<?xml version="1.0" encoding="utf-8"?>
<!-- Generator: Adobe Illustrator 22.0.1, SVG Export Plug-In . SVG Version: 6.00 Build 0)  -->
<svg version="1.1" id="Layer_1" xmlns="http://www.w3.org/2000/svg" xmlns:xlink="http://www.w3.org/1999/xlink" x="0px" y="0px"
	 viewBox="0 0 256 256" style="enable-background:new 0 0 256 256;" xml:space="preserve">
<style type="text/css">
	.st0{fill:#3A312A;}
	.st1{fill:#D6DF58;}
	.st2{fill:#87796F;}
	.st3{fill:#B9C239;}
	.st4{fill:#EF6D7A;}
	.st5{fill:#FCE8CB;}
	.st6{fill:#D5DE58;}
	.st7{fill:#D34E5C;}
	.st8{fill:#695B51;}
	.st9{fill:#8AC6DD;}
	.st10{fill:#D7E057;}
	.st11{fill:#B8C136;}
	.st12{fill:#F16C7A;}
	.st13{fill:#8AC2D9;}
	.st14{fill:#F7E3C7;}
	.st15{fill:#8AC3DA;}
	.st16{fill:#6DA3BC;}
	.st17{fill:#6A5C52;}
	.st18{fill:#D5DC57;}
	.st19{fill:#F6E2C6;}
	.st20{fill:#DBC7AA;}
	.st21{fill:#CE4E61;}
	.st22{fill:#FAE6CA;}
	.st23{fill:#8AC5DC;}
	.st24{fill:#DDC9AC;}
	.st25{fill:#DECAAD;}
	.st26{fill:#6CA6BE;}
	.st27{fill:#F8E4C8;}
	.st28{fill:#89C4DB;}
	.st29{fill:#ED6E7A;}
	.st30{fill:#D24E5C;}
	.st31{fill:#6DA4BD;}
	.st32{fill:#EB6E7A;}
	.st33{fill:#68A7BB;}
	.st34{fill:#B9BC37;}
	.st35{fill:#CC4E61;}
	.st36{fill:#6CA8BF;}
	.st37{fill-rule:evenodd;clip-rule:evenodd;fill:#D5DE58;}
	.st38{fill:#EA6D7A;}
	.st39{fill:#F4E0C4;}
	.st40{fill-rule:evenodd;clip-rule:evenodd;fill:#D6DF58;}
	.st41{fill-rule:evenodd;clip-rule:evenodd;fill:#F16C7A;}
	.st42{fill:#F3DEC3;}
	.st43{fill-rule:evenodd;clip-rule:evenodd;fill:#FAE6CA;}
	.st44{fill:#F59689;}
	.st45{fill-rule:evenodd;clip-rule:evenodd;fill:#F8E4C8;}
	.st46{fill-rule:evenodd;clip-rule:evenodd;fill:#FCE8CB;}
	.st47{fill:#F5978A;}
	.st48{fill:#D4DB56;}
	.st49{fill-rule:evenodd;clip-rule:evenodd;fill:#D4DA55;}
	.st50{fill-rule:evenodd;clip-rule:evenodd;fill:#EB6E7A;}
	.st51{fill:#68A6B9;}
	.st52{fill-rule:evenodd;clip-rule:evenodd;fill:#D5DC57;}
	.st53{fill:#8AC1D8;}
	.st54{fill:#F5E1C5;}
	.st55{fill:#D4D752;}
	.st56{fill:#D3D751;}
	.st57{fill:#D4D853;}
	.st58{fill:#E96C7A;}
	.st59{fill:#D4DA55;}
	.st60{fill:#8BC0D7;}
	.st61{fill:#87796F;stroke:#3A312A;stroke-width:3;stroke-linecap:round;stroke-linejoin:round;stroke-miterlimit:10;}
</style>
<g>
	<g>
		<g>
			<path class="st18" d="M47.726,26.346c-0.974,11.564-13.024,13.39-13.024,13.39c10.347,0.487,12.925,14.059,12.925,14.059
				c0.221-9.677,13.321-14.202,13.321-14.202C51.135,39.005,47.726,26.346,47.726,26.346z"/>
		</g>
	</g>
	<g>
		<g>
			<path class="st0" d="M61.038,38.095C52.434,37.58,49.206,26.07,49.175,25.954c-0.19-0.702-0.842-1.166-1.584-1.102
				c-0.725,0.066-1.298,0.642-1.359,1.367c-0.859,10.215-11.313,11.964-11.754,12.032c-0.763,0.116-1.313,0.791-1.273,1.561
				c0.04,0.771,0.657,1.385,1.428,1.421c9.027,0.426,11.498,12.719,11.521,12.843c0.138,0.712,0.76,1.218,1.473,1.218
				c0.042,0,0.084-0.002,0.126-0.005c0.765-0.064,1.357-0.693,1.375-1.46c0.193-8.51,12.191-12.778,12.313-12.82
				c0.676-0.234,1.092-0.914,0.994-1.622C62.335,38.678,61.752,38.137,61.038,38.095z M47.472,48.44
				c-1.356-3.131-3.708-6.907-7.587-8.876c2.931-1.405,6.409-3.913,8.202-8.273c1.551,3.071,4.2,6.88,8.334,8.723
				C53.413,41.653,49.498,44.419,47.472,48.44z"/>
		</g>
	</g>
	<g>
		<g>
			<path class="st18" d="M26.028,43.326c-0.689,8.179-9.213,9.471-9.213,9.471c7.318,0.344,9.142,9.944,9.142,9.944
				c0.156-6.844,9.422-10.045,9.422-10.045C28.438,52.28,26.028,43.326,26.028,43.326z"/>
		</g>
	</g>
	<g>
		<g>
			<path class="st0" d="M35.47,51.198c-5.767-0.345-7.973-8.186-7.995-8.265c-0.189-0.702-0.865-1.168-1.581-1.102
				c-0.726,0.065-1.3,0.643-1.361,1.368c-0.578,6.871-7.646,8.066-7.941,8.113c-0.763,0.116-1.313,0.791-1.273,1.561
				c0.04,0.771,0.657,1.385,1.428,1.421c6.035,0.284,7.723,8.645,7.738,8.727c0.136,0.712,0.759,1.22,1.473,1.22
				c0.041,0,0.083-0.002,0.124-0.005c0.766-0.063,1.359-0.693,1.377-1.461c0.13-5.709,8.332-8.634,8.413-8.662
				c0.676-0.233,1.093-0.913,0.996-1.622C36.769,51.782,36.184,51.24,35.47,51.198z M25.885,57.993
				c-0.924-1.886-2.34-3.947-4.447-5.279c1.855-1.041,3.697-2.63,4.87-4.917c1.058,1.874,2.655,3.954,4.941,5.224
				C29.399,54.121,27.261,55.761,25.885,57.993z"/>
		</g>
	</g>
	<g>
		<g>
			<path class="st18" d="M26.028,16.669c-0.689,8.179-9.213,9.471-9.213,9.471c7.318,0.344,9.142,9.944,9.142,9.944
				c0.156-6.845,9.422-10.045,9.422-10.045C28.438,25.623,26.028,16.669,26.028,16.669z"/>
		</g>
	</g>
	<g>
		<g>
			<path class="st0" d="M35.47,24.541c-5.767-0.345-7.973-8.186-7.995-8.265c-0.189-0.702-0.865-1.167-1.581-1.102
				c-0.726,0.065-1.3,0.643-1.361,1.368c-0.578,6.87-7.646,8.066-7.941,8.113c-0.763,0.116-1.313,0.791-1.273,1.561
				c0.04,0.771,0.657,1.385,1.428,1.421c6.035,0.284,7.723,8.645,7.738,8.727c0.136,0.712,0.759,1.22,1.473,1.22
				c0.041,0,0.083-0.002,0.124-0.005c0.766-0.063,1.359-0.693,1.377-1.461c0.13-5.709,8.332-8.634,8.413-8.662
				c0.676-0.233,1.093-0.913,0.996-1.622C36.769,25.125,36.184,24.583,35.47,24.541z M25.885,31.336
				c-0.924-1.886-2.34-3.947-4.447-5.28c1.855-1.041,3.697-2.629,4.87-4.916c1.058,1.874,2.655,3.954,4.941,5.224
				C29.399,27.464,27.261,29.104,25.885,31.336z"/>
		</g>
	</g>
	<g>
		<g>
			<circle class="st27" cx="127.685" cy="128.215" r="98"/>
		</g>
	</g>
	<g>
		<g>
			<path class="st0" d="M127.685,28.715c-54.864,0-99.5,44.636-99.5,99.5s44.636,99.5,99.5,99.5s99.5-44.636,99.5-99.5
				S182.549,28.715,127.685,28.715z M127.685,224.715c-53.21,0-96.5-43.29-96.5-96.5s43.29-96.5,96.5-96.5s96.5,43.29,96.5,96.5
				S180.895,224.715,127.685,224.715z"/>
		</g>
	</g>
	<g>
		<g>
			<path class="st12" d="M127.685,83.066c-41.722-26.012-72.593,2.04-72.593,35.235c0,17.574,11.344,36.336,26.831,52.614
				l10.186,9.838c9.827,8.764,20.542,16.436,30.745,22.278c2.99,1.712,6.671,1.712,9.661,0c31.423-17.993,67.762-53.27,67.762-84.73
				C200.277,85.106,169.407,57.054,127.685,83.066z"/>
		</g>
	</g>
	<g>
		<g>
			<path class="st0" d="M178.965,76.359c-14.585-8.094-32.767-6.331-51.28,4.945c-18.514-11.275-36.695-13.04-51.279-4.945
				c-14.071,7.809-22.813,23.88-22.813,41.942c0,11.411,4.727,29.981,27.243,53.648c0.571,0.6,1.522,0.624,2.121,0.053
				c0.6-0.571,0.624-1.521,0.053-2.121c-21.834-22.948-26.417-40.716-26.417-51.58c0-16.973,8.149-32.039,21.268-39.319
				c13.797-7.657,31.209-5.754,49.03,5.356c0.486,0.303,1.102,0.303,1.588,0c17.82-11.109,35.234-13.013,49.03-5.356
				c13.119,7.28,21.269,22.347,21.269,39.319c0,29.582-33.709,64.361-67.007,83.429c-2.521,1.442-5.651,1.44-8.171,0
				c-10.446-5.982-20.99-13.623-30.492-22.096c-0.62-0.555-1.568-0.498-2.117,0.121c-0.552,0.618-0.497,1.566,0.121,2.117
				c9.654,8.61,20.373,16.377,30.998,22.461c1.719,0.984,3.647,1.477,5.575,1.477s3.856-0.492,5.576-1.477
				c34.049-19.496,68.517-55.309,68.517-86.032C201.777,100.24,193.036,84.168,178.965,76.359z"/>
		</g>
	</g>
	<g>
		<g>
			<circle class="st37" cx="194.465" cy="194.611" r="44.72"/>
		</g>
	</g>
	<g>
		<g>
			<path class="st0" d="M194.465,148.391c-25.486,0-46.221,20.734-46.221,46.221c0,25.485,20.734,46.22,46.221,46.22
				c25.485,0,46.22-20.734,46.22-46.22C240.685,169.125,219.95,148.391,194.465,148.391z M194.465,237.831
				c-23.832,0-43.221-19.389-43.221-43.22c0-23.832,19.389-43.221,43.221-43.221c23.831,0,43.22,19.389,43.22,43.221
				C237.685,218.442,218.296,237.831,194.465,237.831z"/>
		</g>
	</g>
	<g>
		<g>
			<polygon class="st4" points="204.221,185.135 204.221,165.945 184.709,165.945 184.709,185.135 165.519,185.135 165.519,204.647 
				184.709,204.647 184.709,223.836 204.221,223.836 204.221,204.647 223.41,204.647 223.41,185.135 			"/>
		</g>
	</g>
	<g>
		<g>
			<path class="st0" d="M223.41,183.636h-17.689v-17.69c0-0.828-0.672-1.5-1.5-1.5h-19.512c-0.828,0-1.5,0.672-1.5,1.5v17.69H165.52
				c-0.828,0-1.5,0.672-1.5,1.5v19.511c0,0.828,0.672,1.5,1.5,1.5h17.689v17.69c0,0.828,0.672,1.5,1.5,1.5h19.512
				c0.828,0,1.5-0.672,1.5-1.5v-17.69h17.689c0.828,0,1.5-0.672,1.5-1.5v-19.511C224.91,184.308,224.238,183.636,223.41,183.636z
				 M221.91,203.146h-17.689c-0.828,0-1.5,0.672-1.5,1.5v17.69h-16.512v-17.69c0-0.828-0.672-1.5-1.5-1.5H167.02v-16.511h17.689
				c0.828,0,1.5-0.672,1.5-1.5v-17.69h16.512v17.69c0,0.828,0.672,1.5,1.5,1.5h17.689V203.146z"/>
		</g>
	</g>
	<g>
		<g>
			<path class="st20" d="M153.255,215.515c-8.45,4.33-17.62,7.46-27.28,9.18c0.57,0.02,1.14,0.02,1.71,0.02
				c9.9,0,19.46-1.5,28.46-4.29C155.085,218.855,154.115,217.215,153.255,215.515z"/>
		</g>
	</g>
	<g>
		<g>
			<path class="st20" d="M127.685,31.715c-0.57,0-1.14,0-1.71,0.02c45.87,8.17,80.71,48.26,80.71,96.48c0,7.3-0.8,14.41-2.32,21.25
				c5.69,1.25,10.99,3.55,15.69,6.68c2.68-8.84,4.13-18.22,4.13-27.93C224.185,75.005,180.895,31.715,127.685,31.715z"/>
		</g>
	</g>
</g>
</svg>
