<?xml version="1.0" encoding="UTF-8"?>
<!DOCTYPE svg PUBLIC "-//W3C//DTD SVG 1.1//EN" "http://www.w3.org/Graphics/SVG/1.1/DTD/svg11.dtd">
<!-- Creator: CorelDRAW -->
<svg xmlns="http://www.w3.org/2000/svg" xml:space="preserve" width="6.82666in" height="6.82666in" style="shape-rendering:geometricPrecision; text-rendering:geometricPrecision; image-rendering:optimizeQuality; fill-rule:evenodd; clip-rule:evenodd"
viewBox="0 0 6.82666 6.82666"
 xmlns:xlink="http://www.w3.org/1999/xlink">
 <defs>
  <style type="text/css">
   <![CDATA[
    .fil2 {fill:none}
    .fil1 {fill:#5E35B1}
    .fil0 {fill:#7E57C2}
    .fil3 {fill:#C94A4E}
    .fil4 {fill:#F15C62}
   ]]>
  </style>
   <clipPath id="id0">
    <path d="M3.41333 -3.93701e-006c1.88513,0 3.41333,1.5282 3.41333,3.41333 0,1.88513 -1.5282,3.41333 -3.41333,3.41333 -1.88513,0 -3.41333,-1.5282 -3.41333,-3.41333 0,-1.88513 1.5282,-3.41333 3.41333,-3.41333z"/>
   </clipPath>
 </defs>
 <g id="Layer_x0020_1">
  <metadata id="CorelCorpID_0Corel-Layer"/>
  <path class="fil0" d="M3.41333 -3.93701e-006c1.88513,0 3.41333,1.5282 3.41333,3.41333 0,1.88513 -1.5282,3.41333 -3.41333,3.41333 -1.88513,0 -3.41333,-1.5282 -3.41333,-3.41333 0,-1.88513 1.5282,-3.41333 3.41333,-3.41333z"/>
  <g style="clip-path:url(#id0)">
   <g id="_457196624">
    <g>
     <polygon id="_4432941521" class="fil1" points="3.88157,1.88718 7.66783,5.67345 8.00822,6.16793 4.22195,2.38166 "/>
     <polygon id="_443293696" class="fil1" points="4.49169,2.18805 8.27796,5.97432 8.10591,6.99455 4.31964,3.20828 "/>
     <polygon id="_443294584" class="fil1" points="3.40731,2.56955 7.19357,6.35582 7.00409,6.62544 3.21782,2.83917 "/>
     <polygon id="_443295280" class="fil1" points="3.21782,2.83917 7.00409,6.62544 6.37437,6.18067 2.5881,2.3944 "/>
     <polygon id="_443295640" class="fil1" points="4.31964,3.20828 8.10591,6.99455 7.09953,6.82014 3.31326,3.03387 "/>
     <polygon id="_443295040" class="fil1" points="2.87976,2.64037 6.66603,6.42665 6.83807,7.44687 3.0518,3.6606 "/>
     <polygon id="_443295232" class="fil1" points="3.0518,3.6606 6.83807,7.44687 6.56639,7.25187 2.78012,3.4656 "/>
     <polygon id="_443295352" class="fil1" points="2.16262,3.02239 5.94889,6.80866 5.65965,6.60106 1.87338,2.81478 "/>
     <polygon id="_443295592" class="fil1" points="2.66224,3.63337 6.4485,7.41965 6.43761,7.43515 2.65135,3.64888 "/>
     <polygon id="_443295424" class="fil1" points="2.65135,3.64888 6.43761,7.43515 6.30909,7.61807 2.52282,3.8318 "/>
     <polygon id="_443295688" class="fil1" points="2.78012,3.4656 6.56639,7.25187 6.4485,7.41965 2.66224,3.63337 "/>
     <polygon id="_443295112" class="fil1" points="3.02555,4.60926 6.81182,8.39553 5.80162,8.39616 2.01535,4.60989 "/>
     <polygon id="_443295448" class="fil1" points="3.02511,3.83198 6.81138,7.61825 6.81182,8.39553 3.02555,4.60926 "/>
     <polygon id="_443295472" class="fil1" points="4.65498,3.0066 8.44125,6.79287 9.01246,7.61584 5.2262,3.82957 "/>
     <polygon id="_443295712" class="fil1" points="5.2262,3.82957 9.01246,7.61584 9.01322,7.61693 5.22696,3.83066 "/>
     <polygon id="_443296096" class="fil1" points="5.22696,3.83066 9.01322,7.61693 9.06626,7.69335 5.28,3.90708 "/>
     <polygon id="_443296216" class="fil1" points="3.80682,3.47256 7.59309,7.25883 7.59248,7.61662 3.80621,3.83035 "/>
     <polygon id="_443295784" class="fil1" points="4.88571,4.60957 8.67198,8.39585 7.59246,8.39616 3.80619,4.60989 "/>
     <polygon id="_443296456" class="fil1" points="3.80619,4.60989 7.59246,8.39616 7.59246,8.72575 3.80619,4.93948 "/>
     <polygon id="_443296144" class="fil1" points="5.28,3.90708 9.06626,7.69335 8.67198,8.39585 4.88571,4.60957 "/>
    </g>
    <path id="_457196672" class="fil1" d="M3.88157 1.88718l0.340382 0.494476 0.26974 -0.19361 -0.172047 1.02023 -1.00638 -0.174406 0.275736 -0.197913 -0.181689 -0.266406 -0.189484 0.269614 -0.629724 -0.444768 0.347535 -0.507217 0.00629528 0 0.000476378 0 0.939161 0zm-1.00181 0.753193l0.172039 1.02023 -0.271681 -0.195 -0.117882 0.167772 -0.0108898 0.0155039 -0.128528 0.182917 0.00319685 0 0.000787402 0 0.498311 0.000181102 0.000437008 0.77728 -1.0102 0.000633858 -0.00969685 -0.0145512 -0.00137402 -0.00205906 -0.457618 -0.686449 0.615957 -0.884445 -0.289236 -0.207602 1.00638 -0.174409zm1.77522 0.366228l0.571213 0.822965 0.000759843 0.00109449 0.0530394 0.0764173 -0.394283 0.702496 -1.07952 0.000314961 0 0.329591 -0.725748 -0.735047 0.726378 -0.731874 -0.000606299 0.357787 0.0744764 4.72441e-005 0.40828 0.000267717 -0.00166142 -0.00233071 -0.261602 -0.367362 0.62928 -0.454366z"/>
   </g>
  </g>
  <path class="fil2" d="M3.41333 -3.93701e-006c1.88513,0 3.41333,1.5282 3.41333,3.41333 0,1.88513 -1.5282,3.41333 -3.41333,3.41333 -1.88513,0 -3.41333,-1.5282 -3.41333,-3.41333 0,-1.88513 1.5282,-3.41333 3.41333,-3.41333z"/>
  <polygon class="fil3" points="2.52602,3.8318 2.5268,3.8318 3.02511,3.83198 3.02555,4.60926 2.01535,4.60989 2.00565,4.59534 2.00428,4.59328 2.21938,4.15815 "/>
  <polygon class="fil3" points="4.28897,3.83066 4.77916,3.86849 5.22696,3.83066 5.2262,3.82957 4.65498,3.0066 4.0257,3.46097 4.28731,3.82833 "/>
  <polygon class="fil3" points="2.94193,1.88718 2.93563,1.88718 2.5881,2.3944 3.21782,2.83917 3.40731,2.56955 3.19964,2.19683 "/>
  <polygon class="fil4" points="3.80621,3.83035 3.88069,3.83039 4.28897,3.83066 3.88069,3.83066 4.28897,3.83066 5.22696,3.83066 5.28,3.90708 4.88571,4.60957 3.80619,4.60989 3.80619,4.93948 3.08044,4.20443 3.80682,3.47256 "/>
  <polygon class="fil4" points="2.78012,3.4656 2.66224,3.63337 2.65135,3.64888 2.73299,3.52971 2.65135,3.64888 2.52282,3.8318 2.52602,3.8318 2.00428,4.59328 1.54666,3.90683 2.16262,3.02239 1.87338,2.81478 2.87976,2.64037 3.0518,3.6606 "/>
  <polygon class="fil4" points="4.22195,2.38166 4.49169,2.18805 4.31964,3.20828 3.31326,3.03387 3.589,2.83596 3.16356,2.21215 2.94193,1.88718 3.589,2.83596 2.94193,1.88718 2.94241,1.88718 3.88157,1.88718 "/>
 </g>
</svg>
