<?xml version="1.0" encoding="UTF-8"?>
<!DOCTYPE svg PUBLIC "-//W3C//DTD SVG 1.1//EN" "http://www.w3.org/Graphics/SVG/1.1/DTD/svg11.dtd">
<!-- Creator: CorelDRAW -->
<svg xmlns="http://www.w3.org/2000/svg" xml:space="preserve" width="6.82666in" height="6.82666in" style="shape-rendering:geometricPrecision; text-rendering:geometricPrecision; image-rendering:optimizeQuality; fill-rule:evenodd; clip-rule:evenodd"
viewBox="0 0 6.82666 6.82666"
 xmlns:xlink="http://www.w3.org/1999/xlink">
 <defs>
  <style type="text/css">
   <![CDATA[
    .fil2 {fill:none}
    .fil1 {fill:#00ACC1}
    .fil12 {fill:#232221}
    .fil0 {fill:#26C6DA}
    .fil3 {fill:#33691E}
    .fil5 {fill:#4B772D}
    .fil8 {fill:#554330}
    .fil4 {fill:#558B2F}
    .fil6 {fill:#624E3A}
    .fil7 {fill:#705B46}
    .fil14 {fill:#BEA18C}
    .fil13 {fill:#C8BAA6}
    .fil11 {fill:#424242;fill-rule:nonzero}
    .fil10 {fill:#BEA18C;fill-rule:nonzero}
    .fil9 {fill:#DCBEA5;fill-rule:nonzero}
    .fil15 {fill:#EFE9DC;fill-rule:nonzero}
   ]]>
  </style>
   <clipPath id="id0">
    <path d="M3.41333 -3.93701e-006c1.88513,0 3.41333,1.5282 3.41333,3.41333 0,1.88513 -1.5282,3.41333 -3.41333,3.41333 -1.88513,0 -3.41333,-1.5282 -3.41333,-3.41333 0,-1.88513 1.5282,-3.41333 3.41333,-3.41333z"/>
   </clipPath>
 </defs>
 <g id="Layer_x0020_1">
  <metadata id="CorelCorpID_0Corel-Layer"/>
  <path class="fil0" d="M3.41333 -3.93701e-006c1.88513,0 3.41333,1.5282 3.41333,3.41333 0,1.88513 -1.5282,3.41333 -3.41333,3.41333 -1.88513,0 -3.41333,-1.5282 -3.41333,-3.41333 0,-1.88513 1.5282,-3.41333 3.41333,-3.41333z"/>
  <g style="clip-path:url(#id0)">
   <g id="_457173560">
    <g>
     <polygon id="_4377681601" class="fil1" points="4.13187,2.17225 7.91814,5.95852 7.94791,5.99698 7.97316,6.03636 7.99402,6.07643 8.01065,6.11697 8.02317,6.15777 8.03174,6.19862 8.03648,6.23929 8.03754,6.27957 8.03506,6.31923 8.02918,6.35807 8.02004,6.39587 8.00779,6.4324 7.99255,6.46746 7.97448,6.50081 7.9537,6.53226 7.93037,6.56157 4.14411,2.7753 4.16744,2.74598 4.18821,2.71454 4.20628,2.68119 4.22152,2.64613 4.23378,2.6096 4.24291,2.5718 4.24879,2.53296 4.25127,2.4933 4.25021,2.45302 4.24547,2.41235 4.23691,2.3715 4.22438,2.3307 4.20776,2.29015 4.18689,2.25009 4.16164,2.21071 "/>
     <polygon id="_437768256" class="fil1" points="4.14411,2.7753 7.93037,6.56157 7.93321,6.56728 7.936,6.573 7.93877,6.57874 7.9415,6.5845 7.9442,6.59028 7.94686,6.59607 7.94949,6.60188 7.95208,6.60771 7.95465,6.61355 7.95717,6.61941 7.95967,6.62529 7.96214,6.63118 7.96457,6.63709 7.96697,6.64301 7.96933,6.64895 7.97167,6.6549 4.1854,2.86863 4.18307,2.86268 4.1807,2.85674 4.1783,2.85081 4.17587,2.84491 4.17341,2.83902 4.17091,2.83314 4.16838,2.82728 4.16581,2.82144 4.16322,2.81561 4.16059,2.8098 4.15793,2.804 4.15523,2.79823 4.1525,2.79247 4.14974,2.78673 4.14694,2.781 "/>
     <polygon id="_437769552" class="fil1" points="5.28,2.61464 9.06627,6.40091 9.04917,6.40705 9.03235,6.41366 9.01579,6.4207 8.9995,6.42814 8.98346,6.43596 8.96766,6.44413 8.95211,6.45261 8.93679,6.46137 8.9217,6.47038 8.90683,6.47962 8.89217,6.48905 8.87772,6.49865 8.86348,6.50837 8.84942,6.5182 8.83556,6.52809 8.82187,6.53803 8.80837,6.54798 8.79503,6.55791 8.78185,6.56778 8.76883,6.57758 8.75595,6.58726 8.74322,6.59681 8.73062,6.60618 8.71815,6.61535 8.70581,6.62429 8.69357,6.63296 8.68145,6.64134 8.66943,6.64939 8.65751,6.65709 8.64568,6.66441 8.63393,6.67131 8.62225,6.67777 4.83598,2.8915 4.84766,2.88504 4.85941,2.87814 4.87124,2.87082 4.88317,2.86312 4.89519,2.85507 4.90731,2.84669 4.91954,2.83802 4.93189,2.82908 4.94435,2.81991 4.95695,2.81054 4.96968,2.80099 4.98256,2.79131 4.99558,2.78151 5.00876,2.77163 5.0221,2.76171 5.03561,2.75176 5.04929,2.74182 5.06315,2.73193 5.07721,2.7221 5.09146,2.71237 5.10591,2.70278 5.12056,2.69335 5.13543,2.68411 5.15052,2.67509 5.16584,2.66633 5.18139,2.65785 5.19719,2.64969 5.21323,2.64187 5.22952,2.63443 5.24608,2.62739 5.26291,2.62078 "/>
     <polygon id="_437769672" class="fil1" points="4.31737,2.81466 8.10364,6.60093 8.09632,6.60631 8.089,6.6117 8.08166,6.61711 8.0743,6.62253 8.06694,6.62796 8.05955,6.63341 8.05213,6.63885 8.0447,6.6443 8.03723,6.64976 8.02973,6.65521 8.0222,6.66066 8.01463,6.6661 8.00701,6.67154 7.99936,6.67696 7.99165,6.68238 7.9839,6.68778 4.19763,2.9015 4.20539,2.89611 4.21309,2.89069 4.22074,2.88526 4.22836,2.87983 4.23593,2.87439 4.24346,2.86894 4.25096,2.86348 4.25843,2.85803 4.26587,2.85258 4.27328,2.84713 4.28067,2.84169 4.28804,2.83626 4.29539,2.83084 4.30273,2.82543 4.31006,2.82004 "/>
     <polygon id="_437769168" class="fil1" points="4.83598,2.8915 8.62225,6.67777 8.59598,6.69128 8.57032,6.70343 8.54528,6.71424 8.52087,6.72376 8.49708,6.732 8.47392,6.73902 8.45139,6.74483 8.42951,6.74948 8.40826,6.75301 8.38765,6.75544 8.3677,6.7568 8.34839,6.75714 8.32973,6.75649 8.31173,6.75487 8.29439,6.75234 8.27771,6.74891 8.2617,6.74463 8.24635,6.73952 8.23169,6.73363 8.21769,6.72699 8.20437,6.71962 8.19174,6.71157 8.17979,6.70287 8.16853,6.69356 8.15796,6.68366 8.14809,6.67321 4.36182,2.88694 4.3717,2.89739 4.38226,2.90728 4.39352,2.9166 4.40547,2.9253 4.41811,2.93335 4.43142,2.94072 4.44542,2.94736 4.46009,2.95325 4.47543,2.95836 4.49144,2.96264 4.50812,2.96607 4.52546,2.9686 4.54346,2.97022 4.56212,2.97087 4.58143,2.97053 4.60139,2.96917 4.62199,2.96674 4.64324,2.96321 4.66513,2.95856 4.68765,2.95274 4.71081,2.94573 4.7346,2.93748 4.75901,2.92797 4.78405,2.91716 4.80971,2.90501 "/>
     <polygon id="_437769840" class="fil1" points="4.10307,2.81613 7.88934,6.60241 7.87237,6.61622 7.85467,6.62907 7.83626,6.64089 7.81717,6.65165 7.79744,6.66129 7.77709,6.66978 7.75614,6.67707 7.73463,6.68311 7.71259,6.68787 7.69004,6.69129 7.66701,6.69333 7.64354,6.69395 7.61965,6.69311 7.59537,6.69075 7.57072,6.68684 7.54574,6.68133 7.52046,6.67417 7.49491,6.66532 7.4691,6.65474 7.44308,6.64238 7.41687,6.6282 7.3905,6.61215 7.36399,6.59419 7.33738,6.57428 7.3107,6.55236 7.28397,6.5284 7.25723,6.50235 3.47096,2.71608 3.4977,2.74213 3.52443,2.76609 3.55111,2.78801 3.57772,2.80792 3.60423,2.82588 3.6306,2.84193 3.65681,2.85611 3.68283,2.86847 3.70864,2.87905 3.73419,2.8879 3.75948,2.89506 3.78445,2.90057 3.8091,2.90448 3.83338,2.90683 3.85727,2.90768 3.88074,2.90706 3.90377,2.90502 3.92632,2.90159 3.94836,2.89684 3.96987,2.8908 3.99082,2.8835 4.01117,2.87502 4.03091,2.86537 4.04999,2.85462 4.0684,2.8428 4.0861,2.82995 "/>
     <polygon id="_437770416" class="fil1" points="4.20404,3.3903 7.99031,7.17657 7.98424,7.17235 7.97821,7.16813 7.97222,7.1639 7.96627,7.15965 7.96035,7.1554 7.95446,7.15115 7.9486,7.14689 7.94276,7.14263 7.93695,7.13837 7.93116,7.13412 7.92539,7.12987 7.91963,7.12563 7.91389,7.12139 7.90816,7.11717 7.90244,7.11295 7.89672,7.10875 4.11045,3.32248 4.11617,3.32668 4.12189,3.33089 4.12762,3.33512 4.13337,3.33935 4.13912,3.3436 4.14489,3.34785 4.15069,3.3521 4.1565,3.35636 4.16233,3.36062 4.16819,3.36488 4.17408,3.36913 4.18,3.37338 4.18596,3.37763 4.19194,3.38186 4.19797,3.38608 "/>
     <polygon id="_437769864" class="fil1" points="4.11045,3.32248 7.89672,7.10875 7.89241,7.11872 7.88755,7.12843 7.88214,7.13785 7.87619,7.14695 7.8697,7.15572 7.86268,7.16411 7.85512,7.17211 7.84702,7.17969 7.8384,7.18683 7.82925,7.19349 7.81957,7.19966 7.80937,7.2053 7.79866,7.21039 7.78742,7.2149 7.77567,7.21881 7.76341,7.22209 7.75063,7.22471 7.73735,7.22666 7.72356,7.22789 7.70928,7.22839 7.69449,7.22813 7.6792,7.22709 7.66342,7.22523 7.64715,7.22253 7.63038,7.21896 7.61313,7.21451 7.59539,7.20914 7.57718,7.20282 7.55848,7.19554 7.5393,7.18726 7.51965,7.17795 7.49953,7.1676 3.71326,3.38133 3.73338,3.39168 3.75304,3.40099 3.77221,3.40927 3.79091,3.41655 3.80913,3.42287 3.82686,3.42824 3.84411,3.43269 3.86088,3.43626 3.87715,3.43896 3.89293,3.44081 3.90822,3.44186 3.92301,3.44212 3.9373,3.44162 3.95108,3.44039 3.96436,3.43844 3.97714,3.43582 3.9894,3.43254 4.00115,3.42863 4.01239,3.42412 4.02311,3.41903 4.03331,3.41339 4.04298,3.40722 4.05213,3.40056 4.06076,3.39342 4.06885,3.38584 4.07641,3.37784 4.08344,3.36944 4.08993,3.36068 4.09587,3.35158 4.10128,3.34216 4.10614,3.33245 "/>
     <polygon id="_437770032" class="fil1" points="4.06947,3.09806 7.85574,6.88433 7.8687,6.90056 7.87992,6.91757 7.88941,6.93525 7.89719,6.95346 7.90326,6.97206 7.90764,6.99093 7.91034,7.00994 7.91137,7.02896 7.91075,7.04785 7.90849,7.0665 7.9046,7.08476 4.11833,3.29849 4.12222,3.28022 4.12448,3.26158 4.12511,3.24269 4.12407,3.22367 4.12137,3.20466 4.11699,3.18579 4.11092,3.16719 4.10314,3.14898 4.09365,3.1313 4.08243,3.11429 "/>
     <polygon id="_437769768" class="fil1" points="4.19763,2.9015 7.9839,6.68778 7.98494,6.69071 7.98597,6.69365 7.987,6.69659 7.98802,6.69953 7.98903,6.70248 7.99003,6.70543 7.99103,6.70838 7.99202,6.71134 4.20575,2.92507 4.20476,2.92211 4.20376,2.91916 4.20276,2.9162 4.20175,2.91326 4.20073,2.91031 4.1997,2.90737 4.19867,2.90444 "/>
     <polygon id="_437770080" class="fil1" points="4.29606,3.00304 8.08233,6.78931 8.10247,6.81187 8.12155,6.83554 8.13953,6.86026 8.15636,6.88597 8.172,6.91261 8.18641,6.94014 8.19955,6.96847 8.21137,6.99757 8.22183,7.02736 8.23089,7.0578 8.23851,7.08881 8.24464,7.12035 8.24924,7.15235 8.25226,7.18476 8.25367,7.21752 8.25343,7.25056 8.25148,7.28383 8.24778,7.31728 8.24231,7.35083 8.235,7.38444 8.22583,7.41804 8.21474,7.45159 8.20169,7.485 8.18664,7.51824 8.16956,7.55124 8.15038,7.58393 8.12908,7.61627 8.10561,7.6482 4.31935,3.86193 4.34281,3.83 4.36411,3.79766 4.38329,3.76496 4.40037,3.73197 4.41542,3.69873 4.42847,3.66531 4.43956,3.63177 4.44874,3.59817 4.45604,3.56456 4.46152,3.531 4.46521,3.49756 4.46716,3.46429 4.46741,3.43124 4.46599,3.39849 4.46297,3.36608 4.45837,3.33408 4.45224,3.30254 4.44463,3.27152 4.43557,3.24109 4.42511,3.2113 4.41328,3.1822 4.40015,3.15387 4.38574,3.12634 4.37009,3.0997 4.35326,3.07398 4.33528,3.04926 4.3162,3.02559 "/>
     <polygon id="_437770440" class="fil1" points="5.14383,4.11929 8.93009,7.90556 8.9305,7.90618 8.93091,7.9068 8.93131,7.90741 8.93171,7.90804 8.93211,7.90866 8.9325,7.90928 8.9329,7.90991 8.93329,7.91053 5.14702,4.12426 5.14663,4.12363 5.14624,4.12301 5.14584,4.12239 5.14544,4.12176 5.14504,4.12114 5.14464,4.12052 5.14424,4.11991 "/>
     <polygon id="_437769936" class="fil1" points="5.1258,4.09626 8.91207,7.88253 8.91638,7.8874 8.92051,7.89242 8.92447,7.89757 5.1382,4.1113 5.13424,4.10615 5.13011,4.10113 "/>
     <polygon id="_437769960" class="fil1" points="4.5977,3.95856 8.38397,7.74483 8.38463,7.74804 4.59836,3.96176 "/>
     <polygon id="_437769984" class="fil1" points="3.71326,3.38133 7.49953,7.1676 7.49059,7.16266 7.48159,7.15737 7.47252,7.15177 7.46339,7.14587 7.45419,7.1397 7.4449,7.13328 7.43554,7.12664 7.42608,7.1198 7.41653,7.11278 7.40688,7.1056 7.39713,7.09829 7.38727,7.09087 7.3773,7.08337 7.3672,7.07581 7.35698,7.0682 7.34664,7.06058 7.33616,7.05297 7.32554,7.04539 7.31478,7.03787 7.30387,7.03042 7.2928,7.02307 7.28158,7.01585 7.27019,7.00877 7.25863,7.00187 7.2469,6.99516 7.23499,6.98867 7.22289,6.98241 7.21061,6.97642 7.19813,6.97072 7.18544,6.96533 7.17256,6.96027 7.15947,6.95557 3.3732,3.1693 3.3863,3.174 3.39918,3.17906 3.41186,3.18445 3.42434,3.19015 3.43662,3.19614 3.44872,3.20239 3.46063,3.20889 3.47236,3.2156 3.48392,3.2225 3.49531,3.22958 3.50654,3.2368 3.5176,3.24415 3.52851,3.25159 3.53928,3.25912 3.54989,3.2667 3.56037,3.27431 3.57072,3.28193 3.58093,3.28954 3.59103,3.2971 3.601,3.3046 3.61086,3.31202 3.62061,3.31933 3.63026,3.3265 3.63981,3.33353 3.64927,3.34037 3.65863,3.34701 3.66792,3.35343 3.67712,3.3596 3.68626,3.3655 3.69532,3.3711 3.70432,3.37639 "/>
     <polygon id="_437770368" class="fil1" points="4.88672,4.56265 8.67298,8.34893 8.67211,8.3483 8.67125,8.34766 8.67039,8.34701 8.66954,8.34635 8.6687,8.34569 8.66787,8.34502 8.66704,8.34434 8.66622,8.34365 4.87996,4.55738 4.88078,4.55807 4.8816,4.55875 4.88243,4.55942 4.88327,4.56008 4.88412,4.56074 4.88498,4.56139 4.88584,4.56202 "/>
     <polygon id="_437770560" class="fil1" points="4.87996,4.55738 8.66622,8.34365 8.65614,8.34954 8.64588,8.3555 8.63545,8.36152 8.62486,8.36758 8.61411,8.3737 8.60321,8.37988 8.59216,8.38609 8.58096,8.39235 8.56963,8.39865 8.55818,8.40499 8.54659,8.41136 8.53489,8.41776 8.52307,8.42419 8.51115,8.43063 8.49912,8.43711 8.487,8.44359 8.47478,8.4501 8.46248,8.45661 8.4501,8.46314 8.43764,8.46967 8.42512,8.4762 8.41253,8.48272 8.39989,8.48925 8.38719,8.49577 8.37445,8.50228 8.36167,8.50877 8.34885,8.51524 8.336,8.5217 8.32313,8.52814 8.31023,8.53454 8.29733,8.54092 8.28442,8.54727 4.49815,4.761 4.51106,4.75465 4.52396,4.74827 4.53686,4.74187 4.54973,4.73543 4.56258,4.72897 4.5754,4.7225 4.58818,4.716 4.60092,4.7095 4.61362,4.70298 4.62626,4.69645 4.63885,4.68993 4.65137,4.68339 4.66383,4.67687 4.67621,4.67034 4.68851,4.66383 4.70073,4.65732 4.71285,4.65083 4.72488,4.64436 4.7368,4.63791 4.74862,4.63149 4.76032,4.62509 4.77191,4.61872 4.78337,4.61238 4.7947,4.60608 4.80589,4.59982 4.81694,4.59361 4.82784,4.58743 4.83859,4.58131 4.84919,4.57524 4.85961,4.56923 4.86987,4.56327 "/>
     <polygon id="_437770728" class="fil1" points="2.42795,3.6377 6.21422,7.42397 6.20701,7.50796 2.42074,3.72169 "/>
     <polygon id="_437771208" class="fil1" points="3.97639,4.97044 7.76266,8.75671 7.75556,8.75798 7.74766,8.75907 7.73898,8.75997 7.72955,8.76069 7.71938,8.76123 7.7085,8.76159 7.69691,8.76179 7.68465,8.76182 7.67172,8.76169 7.65815,8.7614 7.64396,8.76095 7.62917,8.76035 7.61379,8.75961 7.59785,8.75872 7.58135,8.75769 7.56434,8.75653 7.54681,8.75523 7.5288,8.75381 7.51032,8.75226 7.49139,8.75059 7.47203,8.7488 7.45225,8.74689 7.43208,8.74488 7.41154,8.74277 7.39065,8.74055 7.36941,8.73823 7.34787,8.73582 7.32602,8.73332 7.3039,8.73073 7.28152,8.72806 7.2589,8.72531 7.23606,8.72248 3.44979,4.93621 3.47263,4.93904 3.49525,4.94179 3.51763,4.94446 3.53976,4.94705 3.5616,4.94955 3.58315,4.95196 3.60438,4.95428 3.62528,4.9565 3.64581,4.95861 3.66598,4.96062 3.68576,4.96252 3.70512,4.96431 3.72406,4.96598 3.74254,4.96754 3.76055,4.96896 3.77807,4.97026 3.79509,4.97142 3.81158,4.97245 3.82752,4.97334 3.8429,4.97408 3.85769,4.97468 3.87189,4.97513 3.88545,4.97542 3.89838,4.97555 3.91065,4.97552 3.92223,4.97532 3.93311,4.97496 3.94328,4.97442 3.95271,4.9737 3.96139,4.9728 3.96929,4.97171 "/>
     <polygon id="_437770536" class="fil1" points="3.44979,4.93621 7.23606,8.72248 7.19711,8.71756 7.15763,8.71247 7.11772,8.70721 7.07747,8.70181 7.03698,8.69628 6.99636,8.69066 6.95569,8.68494 6.91509,8.67915 6.87464,8.67332 6.83445,8.66745 6.79461,8.66157 6.75523,8.6557 6.71641,8.64985 6.67822,8.64405 6.6408,8.6383 6.60422,8.63264 6.56859,8.62707 6.534,8.62162 6.50056,8.61631 6.46836,8.61115 6.4375,8.60617 6.40809,8.60137 6.38021,8.59678 6.35397,8.59243 6.32947,8.58831 6.30681,8.58447 6.28607,8.58091 6.26737,8.57765 6.2508,8.57472 6.23646,8.57212 6.22446,8.56988 6.21487,8.56802 2.42861,4.78174 2.43819,4.78361 2.4502,4.78585 2.46454,4.78844 2.48111,4.79138 2.49981,4.79464 2.52054,4.7982 2.5432,4.80204 2.5677,4.80615 2.59394,4.81051 2.62182,4.8151 2.65124,4.81989 2.68209,4.82488 2.71429,4.83004 2.74773,4.83535 2.78232,4.8408 2.81795,4.84637 2.85453,4.85203 2.89196,4.85778 2.93014,4.86358 2.96896,4.86943 3.00835,4.8753 3.04818,4.88118 3.08837,4.88705 3.12882,4.89288 3.16943,4.89867 3.21009,4.90439 3.25071,4.91001 3.2912,4.91554 3.33145,4.92094 3.37136,4.9262 3.41084,4.93129 "/>
     <polygon id="_437770488" class="fil1" points="2.42861,4.78174 6.21487,8.56802 6.20993,8.56718 6.20491,8.56662 6.1998,8.56632 6.19462,8.56629 6.18937,8.5665 6.18406,8.56695 6.1787,8.56763 6.17329,8.56852 6.16783,8.56962 6.16235,8.57093 6.15683,8.57242 6.15128,8.57409 6.14572,8.57593 6.14014,8.57794 6.13456,8.58009 6.12898,8.58238 2.34272,4.79611 2.3483,4.79381 2.35387,4.79167 2.35945,4.78966 2.36501,4.78782 2.37056,4.78615 2.37608,4.78465 2.38157,4.78335 2.38702,4.78225 2.39243,4.78135 2.3978,4.78068 2.40311,4.78023 2.40835,4.78002 2.41353,4.78005 2.41864,4.78035 2.42367,4.78091 "/>
     <polygon id="_437771184" class="fil1" points="2.34272,4.79611 6.12898,8.58238 6.12713,8.58317 6.12529,8.58398 6.12344,8.5848 6.12159,8.58563 6.11975,8.58647 6.11791,8.58733 6.11607,8.5882 6.11423,8.58908 2.32796,4.80281 2.3298,4.80193 2.33164,4.80106 2.33348,4.8002 2.33533,4.79935 2.33717,4.79852 2.33902,4.7977 2.34087,4.7969 "/>
     <polygon id="_437770824" class="fil1" points="2.32796,4.80281 6.11423,8.58908 6.10654,8.67872 2.32027,4.89244 "/>
     <polygon id="_437770656" class="fil1" points="2.32027,4.89244 6.10654,8.67872 5.44737,8.67872 1.6611,4.89244 "/>
     <polygon id="_437770872" class="fil1" points="1.6611,4.89244 5.44737,8.67872 5.33293,8.67872 1.54666,4.89244 "/>
     <polygon id="_437770968" class="fil1" points="4.49815,4.761 8.28442,8.54727 8.26551,8.5565 8.2466,8.56565 8.2277,8.57471 8.20884,8.58368 8.19002,8.59254 8.17127,8.60129 8.1526,8.60992 8.13403,8.61841 8.11558,8.62675 8.09726,8.63494 8.07909,8.64297 8.06109,8.65083 8.04328,8.6585 8.02566,8.66598 8.00827,8.67327 7.99111,8.68034 7.97421,8.68719 7.95758,8.69381 7.94123,8.70019 7.92519,8.70632 7.90947,8.71219 7.89409,8.7178 7.87907,8.72313 7.86443,8.72817 7.85017,8.73291 7.83631,8.73734 7.82289,8.74146 7.8099,8.74526 7.79737,8.74871 7.78533,8.75183 7.77377,8.75459 7.76272,8.75698 3.97645,4.97071 3.9875,4.96831 3.99906,4.96556 4.01111,4.96244 4.02363,4.95898 4.03662,4.95519 4.05005,4.95107 4.0639,4.94663 4.07816,4.94189 4.09281,4.93685 4.10783,4.93153 4.1232,4.92592 4.13893,4.92005 4.15496,4.91392 4.17131,4.90754 4.18794,4.90092 4.20485,4.89407 4.222,4.887 4.23939,4.87971 4.25701,4.87223 4.27482,4.86456 4.29282,4.8567 4.31099,4.84867 4.32931,4.84048 4.34776,4.83213 4.36633,4.82365 4.385,4.81502 4.40376,4.80627 4.42257,4.79741 4.44144,4.78844 4.46033,4.77937 4.47924,4.77022 "/>
     <polygon id="_437771088" class="fil1" points="4.71556,4.02763 8.50182,7.81391 8.51229,7.82858 4.72602,4.04231 "/>
     <polygon id="_437771976" class="fil1" points="5.18517,4.2091 8.97144,7.99537 8.97165,8.00194 8.97164,8.00859 8.97139,8.01532 8.97092,8.02211 8.9702,8.02897 8.96924,8.0359 8.96804,8.04289 8.96659,8.04994 8.96489,8.05704 8.96293,8.06419 8.96071,8.0714 8.95823,8.07865 8.95548,8.08594 8.95247,8.09327 8.94918,8.10064 8.94561,8.10805 8.94176,8.11548 8.93763,8.12295 8.93321,8.13044 8.9285,8.13794 8.92349,8.14548 8.91819,8.15302 8.91257,8.16058 8.90666,8.16815 8.90044,8.17572 8.8939,8.1833 8.88705,8.19088 8.87987,8.19846 8.87238,8.20603 8.86455,8.21359 8.8564,8.22114 8.84791,8.22868 5.06164,4.44241 5.07013,4.43487 5.07828,4.42732 5.08611,4.41976 5.09361,4.41219 5.10078,4.40461 5.10763,4.39703 5.11417,4.38945 5.12039,4.38188 5.12631,4.37431 5.13192,4.36675 5.13722,4.3592 5.14223,4.35167 5.14694,4.34417 5.15136,4.33668 5.1555,4.32921 5.15934,4.32178 5.16291,4.31437 5.1662,4.307 5.16922,4.29967 5.17196,4.29237 5.17444,4.28513 5.17666,4.27792 5.17862,4.27077 5.18032,4.26367 5.18177,4.25662 5.18298,4.24963 5.18393,4.2427 5.18465,4.23584 5.18513,4.22905 5.18537,4.22232 5.18538,4.21567 "/>
     <polygon id="_437771400" class="fil1" points="5.06164,4.44241 8.84791,8.22868 8.84478,8.23136 8.84148,8.23413 8.838,8.23698 8.83436,8.2399 8.83056,8.24291 8.82658,8.246 8.82244,8.24915 8.81815,8.25239 8.81369,8.2557 8.80908,8.25908 8.80432,8.26253 8.79941,8.26605 8.79434,8.26964 8.78913,8.2733 8.78378,8.27702 8.77829,8.2808 8.77265,8.28465 8.76688,8.28856 8.76098,8.29252 8.75494,8.29655 8.74877,8.30063 8.74248,8.30477 8.73606,8.30896 8.72951,8.31321 8.72284,8.31751 8.71606,8.32185 8.70916,8.32625 8.70214,8.3307 8.69501,8.33519 8.68778,8.33972 8.68043,8.3443 8.67298,8.34893 4.88672,4.56265 4.89417,4.55803 4.90151,4.55345 4.90874,4.54892 4.91587,4.54443 4.92289,4.53998 4.92979,4.53558 4.93657,4.53124 4.94324,4.52694 4.94979,4.52269 4.95621,4.5185 4.9625,4.51436 4.96867,4.51028 4.97471,4.50625 4.98061,4.50228 4.98639,4.49837 4.99202,4.49453 4.99752,4.49074 5.00287,4.48702 5.00807,4.48337 5.01314,4.47978 5.01805,4.47626 5.02281,4.47281 5.02743,4.46943 5.03188,4.46612 5.03618,4.46288 5.04031,4.45972 5.04429,4.45664 5.04809,4.45363 5.05174,4.4507 5.05521,4.44785 5.05851,4.44509 "/>
     <polygon id="_437771328" class="fil1" points="5.13877,4.11106 8.92504,7.89733 8.92567,7.89835 8.9263,7.89938 8.92694,7.9004 8.92757,7.90143 8.9282,7.90246 8.92883,7.90349 8.92946,7.90453 8.93009,7.90556 5.14383,4.11929 5.1432,4.11826 5.14256,4.11722 5.14193,4.11619 5.1413,4.11516 5.14067,4.11413 5.14004,4.11311 5.13941,4.11208 "/>
     <polygon id="_437771256" class="fil1" points="5.15643,4.11994 8.9427,7.90621 8.94578,7.91106 8.94871,7.91602 8.95148,7.92108 8.95407,7.92624 8.9565,7.9315 8.95877,7.93686 8.96086,7.94232 8.96277,7.94787 8.96451,7.9535 8.96606,7.95923 8.96743,7.96505 8.96862,7.97095 8.96961,7.97693 8.97042,7.983 8.97102,7.98915 8.97144,7.99537 5.18517,4.2091 5.18476,4.20287 5.18415,4.19673 5.18335,4.19066 5.18235,4.18468 5.18117,4.17878 5.17979,4.17296 5.17824,4.16723 5.1765,4.16159 5.17459,4.15605 5.1725,4.15059 5.17024,4.14523 5.16781,4.13997 5.16521,4.13481 5.16244,4.12975 5.15952,4.12479 "/>
    </g>
    <path id="_457174712" class="fil1" d="M2.92602 1.85815c1.3295,-0.084752 1.48009,0.616626 1.21809,0.917142 0.0152008,0.0303898 0.0289252,0.0615433 0.0412953,0.0933346 0.041,-0.028063 0.0810354,-0.0570984 0.121681,-0.0852992 -0.0654646,-0.251098 0.229343,-0.61613 0.972917,-0.168689 -0.183843,0.0628858 -0.319866,0.210476 -0.444016,0.276854 -0.283547,0.151598 -0.462362,0.0637323 -0.51861,-0.0768386 -0.0390197,0.028626 -0.0782559,0.0580945 -0.11974,0.0868465 0.00278346,0.0078189 0.00548425,0.0156732 0.00811417,0.023563 0.26013,0.179654 0.375661,0.59876 0.113598,0.936858 0.100894,0.0222756 0.194181,0.0558701 0.276559,0.0985591 0.000598425,-0.000637795 0.00119685,-0.00128346 0.00179528,-0.00192913l0.000661417 0.00320866c0.0414724,0.0216378 0.0801535,0.0455866 0.115622,0.071563 0.000586614,-0.00200394 0.00111417,-0.00390945 0.00157087,-0.00569291l0.0104646 0.0146772c0.0219449,0.0167047 0.0425866,0.0342008 0.0618189,0.0524213 0.0199724,-0.0125669 0.0383189,-0.025374 0.0550827,-0.0382913 0.0760551,-0.037 0.152508,-0.0360709 0.212933,-0.00970866 0.033437,0.0145827 0.0617008,0.0367402 0.0823504,0.064563 0.000188976,-7.48031e-005 0.000377953,-0.000153543 0.000566929,-0.000232283 0.00168504,0.00271654 0.00337402,0.00546063 0.00505512,0.00822835 0.00109055,0.0016378 0.00215354,0.00329528 0.00319291,0.0049685 0.00314173,-0.00147638 0.00628346,-0.00291732 0.00941339,-0.0043189 0.0168701,0.0255945 0.0270709,0.0557598 0.0287362,0.0891575 0.00347638,0.0696969 -0.0311693,0.153008 -0.123531,0.233307 -0.0324213,0.0281772 -0.0949173,0.0707323 -0.174921,0.120248 -0.00233858,-0.00166929 -0.00459055,-0.00342913 -0.00675984,-0.00527559 -0.106598,0.0625354 -0.244079,0.136114 -0.381803,0.203618 -0.20161,0.0988071 -0.406646,0.186142 -0.521701,0.209713l-6.29921e-005 -0.000271654c-0.0714606,0.014622 -0.281854,-0.00369291 -0.526598,-0.0342283 -0.412244,-0.0514213 -0.932268,-0.136669 -1.02119,-0.154465 -0.0261142,-0.00522047 -0.0561457,0.00177559 -0.0858898,0.0143661 -0.00493307,0.00208661 -0.00985433,0.00433071 -0.014752,0.00670079l-0.00769291 0.0896339 -0.659173 0 -0.114437 0 0 -1.25475 0.211894 0 0.669398 0 -0.00720866 0.0839921c0.0812598,-0.0107953 0.17215,-0.0220787 0.255197,-0.0305984 0.0984646,-0.0100984 0.189693,-0.016752 0.249591,-0.015185 0.203972,0.00532283 0.578406,0.106516 0.840972,0.180469 0.0834449,-0.0165709 0.171768,-0.0254606 0.263177,-0.0254606 0.0458189,0 0.0908661,0.00223228 0.134909,0.00654724 0.0210866,-0.141579 0.0381299,-0.294307 0.0394488,-0.447165 -0.0324685,-0.0224291 -0.0631142,-0.0454567 -0.0935866,-0.067815 -0.0430787,0.107661 -0.180031,0.174957 -0.397193,0.0588504 -0.0950866,-0.0508346 -0.19926,-0.16387 -0.340059,-0.212035 0.569484,-0.342685 0.795272,-0.0631181 0.745134,0.129193 0.0286614,0.0198937 0.0569331,0.0403228 0.085748,0.0602126 -0.00111024,-0.186941 -0.0269606,-0.372937 -0.0989291,-0.537819 -0.000692913,-0.00158661 -0.00138583,-0.00316929 -0.00208268,-0.00474803 -0.176961,0.152476 -0.484264,0.145713 -0.765091,-0.263209 -0.123031,-0.179142 -0.20465,-0.478024 -0.411965,-0.694772z"/>
   </g>
  </g>
  <path class="fil2" d="M3.41333 -3.93701e-006c1.88513,0 3.41333,1.5282 3.41333,3.41333 0,1.88513 -1.5282,3.41333 -3.41333,3.41333 -1.88513,0 -3.41333,-1.5282 -3.41333,-3.41333 0,-1.88513 1.5282,-3.41333 3.41333,-3.41333z"/>
  <path class="fil3" d="M2.92602 1.85815c0.207311,0.216748 0.288933,0.51563 0.411965,0.694772 0.780528,1.13656 1.76562,-0.833587 -0.411965,-0.694772z"/>
  <path class="fil4" d="M4.19947 4.4522c-0.00741732,-0.251858 0.232705,-1.10221 -0.0557913,-1.67776 -0.151461,-0.302173 -0.366394,-0.487902 -0.476469,-0.559457 -0.129555,-0.0842165 -0.154165,-0.112689 -0.304055,-0.169091l0.00161811 0.000622047c-0.0631772,-0.0169685 -0.0907323,-0.0148268 -0.152984,-0.0180157 0.0488386,0.0136181 0.0137244,0.00564173 0.0739921,0.0150472 0.145114,0.0226496 0.248398,0.113693 0.365567,0.194654 0.11587,0.0800669 0.31937,0.274697 0.453807,0.582689 0.248012,0.568189 -0.0516811,1.38716 -0.0240354,1.63133l0.11835 -1.1811e-005z"/>
  <path class="fil4" d="M3.76322 2.2882c-0.0239016,-0.00642913 -0.0485748,-0.0120866 -0.0741378,-0.016874 -0.128327,-0.0240354 -0.156709,-0.0383425 -0.291949,-0.0340984l0.0014685 -3.54331e-005c-0.054811,0.0071063 -0.0756417,0.0176496 -0.125287,0.0352205 0.0425276,-0.00509843 0.0125394,-1.5748e-005 0.0626339,-0.0120906 0.120634,-0.029063 0.230634,0.00876772 0.348228,0.034248 0.0258307,0.00559843 0.050622,0.0120118 0.0744803,0.0191693 -0.00180315,-0.00877559 -0.000141732,-0.017937 0.00456299,-0.0255394z"/>
  <path class="fil4" d="M3.97442 2.50431c-0.00138583,-0.000267717 -0.00275591,-0.000551181 -0.00414567,-0.000811024 -0.15189,-0.0284488 -0.185484,-0.0453819 -0.345563,-0.0403622l0.00174016 -3.93701e-005c-0.064874,0.00840945 -0.0895354,0.0208858 -0.148295,0.041685 0.0503386,-0.00603543 0.0148425,-1.5748e-005 0.0741339,-0.0143071 0.142791,-0.0344016 0.272988,0.010374 0.412177,0.0405354l0.00298819 0.000673228c-0.000940945,-0.00962205 0.00153543,-0.0193701 0.00696457,-0.027374z"/>
  <path class="fil4" d="M3.62214 2.21398c-0.00756693,-0.0147047 -0.0144528,-0.0296614 -0.0205669,-0.0449213 -0.0306969,-0.0765906 -0.0460197,-0.0955472 -0.0502953,-0.16963l5.90551e-005 0.000807087c0.00338189,-0.0288189 0.0121102,-0.0380118 0.0257441,-0.0616142 -0.00222835,0.0224528 0.000755906,0.00695276 -0.00762992,0.0320394 -0.020189,0.0604134 0.0224764,0.129929 0.0538858,0.20089 0.00690157,0.0155906 0.0145118,0.0307835 0.0227677,0.045626 -0.00844094,-0.0029685 -0.0170354,-0.00410236 -0.0239646,-0.00319685z"/>
  <path class="fil4" d="M3.90285 2.45205c-0.000397638,-0.000992126 -0.000811024,-0.0019685 -0.00120472,-0.00296457 -0.0430039,-0.108327 -0.062689,-0.133669 -0.0745512,-0.243295l0.000145669 0.00119291c0.0012874,-0.0436024 0.0106496,-0.0589685 0.0244134,-0.096752 -0.000527559,0.0338937 0.00152756,0.0102205 -0.00596063,0.0492165 -0.0180236,0.0939055 0.0383307,0.189406 0.0816496,0.289209l0.000952756 0.00214567c-0.00929528,-0.0018937 -0.0183543,-0.00145669 -0.0254449,0.00124803z"/>
  <path class="fil3" d="M5.28 2.61464c-0.183843,0.0628898 -0.319862,0.21048 -0.444016,0.276854 -0.787677,0.42113 -0.767154,-1.00567 0.444016,-0.276854z"/>
  <path class="fil5" d="M4.1792 2.87287c0.170079,-0.115697 0.322268,-0.249614 0.56813,-0.273878 0.099626,-0.00983071 0.122256,-0.018874 0.225283,-0.00664567l-0.00111811 -0.000122047c0.0413976,0.00906693 0.0566102,0.0185079 0.0933661,0.0352283 -0.0321496,-0.00672047 -0.00957874,-0.000846457 -0.0470433,-0.0133937 -0.0902205,-0.0302244 -0.17676,-0.00863386 -0.268283,0.00301575 -0.257476,0.0327756 -0.392823,0.179189 -0.581358,0.304433l0.0110236 -0.0486378z"/>
  <path class="fil5" d="M4.67028 2.6125c0.0156614,0.0034252 0.0315433,0.00752362 0.0476732,0.0123898 0.0809724,0.0244173 0.101563,0.0246457 0.178091,0.0673898l-0.000834646 -0.000456693c0.0294055,0.0204213 0.038248,0.0326929 0.0615669,0.0575984 -0.0229409,-0.0156102 -0.00720866,-0.00374803 -0.0324213,-0.025622 -0.0607283,-0.0526693 -0.135276,-0.063689 -0.210508,-0.0840787 -0.0165276,-0.00447638 -0.0326969,-0.00817717 -0.0485551,-0.0111693 0.00365354,-0.00451181 0.00542913,-0.0102756 0.00498819,-0.0160512z"/>
  <path class="fil5" d="M4.48439 2.67386c0.000877953,0.000259843 0.00175197,0.000503937 0.00262992,0.000771654 0.0958425,0.0289016 0.120213,0.0291732 0.210791,0.0797677l-0.000988189 -0.00053937c0.034811,0.0241693 0.0452756,0.0386969 0.072874,0.0681693 -0.0271535,-0.0184724 -0.00852756,-0.00443307 -0.038374,-0.0303228 -0.0718819,-0.0623425 -0.160114,-0.0753858 -0.249161,-0.0995197l-0.00192126 -0.000503937c0.00340551,-0.00525591 0.00488976,-0.0115984 0.00414961,-0.0178228z"/>
  <path class="fil5" d="M4.77354 2.61185c0.00873622,-0.00620079 0.0171535,-0.0127559 0.0252205,-0.0197087 0.0404803,-0.0349094 0.0549409,-0.0412441 0.0794803,-0.0825827l-0.000275591 0.000444882c0.00664567,-0.0175827 0.00436614,-0.0254724 0.00355512,-0.0431102 -0.00540551,0.0135787 -0.00250394,0.00377559 -0.00515748,0.0207008 -0.0063937,0.0407677 -0.0516496,0.0680394 -0.0908661,0.0994921 -0.00861417,0.00691339 -0.0175197,0.0133819 -0.0266929,0.0194606 0.00574016,0.000807087 0.0110197,0.00271654 0.0147362,0.00530315z"/>
  <path class="fil5" d="M4.54113 2.66513c0.000523622,-0.000452756 0.00105512,-0.000889764 0.0015748,-0.00134646 0.0570236,-0.0494921 0.0758976,-0.0582008 0.11539,-0.117724l-0.000437008 0.000645669c0.012252,-0.0254646 0.0114488,-0.0370945 0.0147913,-0.0629291 -0.00979921,0.0196535 -0.0039252,0.0054252 -0.0112402,0.0300827 -0.0176181,0.0593898 -0.0784921,0.0975236 -0.133154,0.14202l-0.00118898 0.000948819c0.00591339,0.0016811 0.0109921,0.00463386 0.0142638,0.00830315z"/>
  <path class="fil3" d="M3.3732 3.1693c0.140803,0.0481654 0.244976,0.161201 0.340063,0.212039 0.603264,0.322531 0.587547,-0.77022 -0.340063,-0.212039z"/>
  <path class="fil5" d="M4.21628 3.36707c-0.13026,-0.0886102 -0.246819,-0.191173 -0.435118,-0.209756 -0.0762992,-0.0075315 -0.0936339,-0.0144567 -0.172543,-0.00509055l0.000858268 -9.44882e-005c-0.0317047,0.00694488 -0.0433543,0.0141732 -0.0715039,0.0269803 0.0246181,-0.00514961 0.00733071,-0.000649606 0.0360276,-0.0102598 0.0690984,-0.0231457 0.135378,-0.00661024 0.205472,0.00231102 0.197197,0.0251024 0.300854,0.137236 0.445248,0.233161l-0.00844094 -0.037252z"/>
  <path class="fil5" d="M3.84017 3.16765c-0.0119961,0.00262205 -0.0241575,0.00576378 -0.0365118,0.00948819 -0.0620157,0.0187008 -0.0777874,0.018878 -0.136394,0.0516142l0.000637795 -0.000350394c-0.0225236,0.0156417 -0.0292953,0.0250394 -0.0471535,0.0441142 0.0175709,-0.0119567 0.00551969,-0.00287008 0.0248307,-0.019622 0.0465118,-0.0403386 0.103602,-0.0487795 0.161224,-0.0643937 0.0126575,-0.00343307 0.0250394,-0.00626378 0.037185,-0.00855906 -0.00279921,-0.00345276 -0.00415748,-0.00786614 -0.0038189,-0.0122913z"/>
  <path class="fil5" d="M3.98254 3.21465c-0.000673228,0.00019685 -0.00134252,0.000385827 -0.00201181,0.000586614 -0.0734055,0.0221378 -0.0920709,0.0223465 -0.161445,0.0610945l0.000759843 -0.000413386c-0.0266614,0.0185118 -0.0346772,0.0296378 -0.055815,0.0522126 0.0207992,-0.0141496 0.0065315,-0.00339764 0.0293937,-0.0232244 0.0550512,-0.047748 0.122626,-0.0577402 0.190827,-0.0762205l0.0014685 -0.000385827c-0.00261024,-0.00402756 -0.00374409,-0.00888583 -0.00317717,-0.0136496z"/>
  <path class="fil5" d="M3.76108 3.16716c-0.00669291,-0.00474803 -0.0131378,-0.00976772 -0.019315,-0.0150906 -0.0310039,-0.0267362 -0.0420827,-0.0315906 -0.060874,-0.063252l0.000208661 0.00034252c-0.00508661,-0.0134646 -0.00333858,-0.0195079 -0.00272047,-0.0330157 0.00414173,0.0103976 0.00191732,0.00288976 0.00394882,0.0158543 0.00489764,0.0312205 0.0395591,0.0521063 0.0695945,0.0762008 0.00659843,0.00529134 0.0134173,0.010248 0.0204449,0.0149016 -0.00439764,0.00061811 -0.00844488,0.00207874 -0.0112874,0.00405906z"/>
  <path class="fil5" d="M3.93908 3.20796c-0.000401575,-0.00034252 -0.000807087,-0.000681102 -0.00120866,-0.00102756 -0.0436693,-0.0379055 -0.058126,-0.0445787 -0.088374,-0.0901654l0.000338583 0.000496063c-0.00938583,-0.0195039 -0.00877165,-0.0284094 -0.0113307,-0.0481969 0.00750394,0.0150512 0.00300787,0.00415354 0.0086063,0.0230394 0.0134961,0.0454843 0.0601181,0.0746929 0.10198,0.108772l0.000909449 0.000728346c-0.00452362,0.0012874 -0.00841732,0.00354724 -0.0109213,0.00635433z"/>
  <path class="fil6" d="M4.02968 3.83091c0.353618,0 0.661114,0.133051 0.818343,0.328921l0 0.160004 -1.70804 0 0 -0.0447953c0.11598,-0.257055 0.470402,-0.44413 0.889697,-0.44413z"/>
  <path class="fil7" d="M3.52102 4.07236c0.0239882,-0.0509764 0.0280551,-0.0438937 0.0597362,-0.0538937 -0.00816142,0.0227323 -0.0265079,0.0679646 -0.0326457,0.0918898l-0.0270906 -0.0379961z"/>
  <path class="fil8" d="M4.74265 4.06563c-0.0239921,0.0509764 -0.0280551,0.0438976 -0.0597362,0.0538976 0.00816142,-0.0227323 0.0265039,-0.0679646 0.0326457,-0.0918898l0.0270906 0.0379921z"/>
  <path class="fil2" d="M3.53457 4.09136l0.00417717 -0.0118386c0.00752756,-0.0213189 0.0306457,-0.0487244 0.0420118,-0.0610512"/>
  <path class="fil2" d="M4.7291 4.04663l-0.00417717 0.0118386c-0.00752756,0.0213228 -0.0306496,0.0487283 -0.0420118,0.0610551"/>
  <path class="fil7" d="M3.65337 4.11837c0.0460157,-0.0267795 0.0372165,-0.0248504 0.0832835,-0.00399606 -0.0248268,0.021311 -0.0469882,0.0394724 -0.070685,0.0650591l-0.0125984 -0.061063z"/>
  <path class="fil8" d="M4.6103 4.01961c-0.0460157,0.0267795 -0.0372165,0.0248543 -0.0832835,0.00399606 0.0248268,-0.0213071 0.0469882,-0.0394724 0.070685,-0.0650551l0.0125984 0.0610591z"/>
  <path class="fil2" d="M3.65967 4.14891l0.0136378 -0.0111811c0.0217638,-0.0178425 0.0402087,-0.0223268 0.0633465,-0.0233465"/>
  <path class="fil2" d="M4.604 3.98908l-0.0136378 0.011185c-0.0217638,0.0178425 -0.0402087,0.0223228 -0.0633465,0.0233425"/>
  <path class="fil7" d="M3.93408 4.14715c0.0743661,0.0337087 0.136028,0.0148504 0.210583,0.00559449 -0.0768465,0.0609331 -0.133039,0.0838976 -0.216677,0.0593031l0.00609449 -0.0648976z"/>
  <path class="fil8" d="M4.32958 3.99084c-0.0743661,-0.0337126 -0.136028,-0.0148504 -0.210587,-0.00559449 0.0768465,-0.060937 0.133039,-0.0839016 0.216681,-0.0593031l-0.00609449 0.0648976z"/>
  <path class="fil2" d="M3.93104 4.1796l0.0102835 0.00383465c0.0623583,0.0232717 0.142602,0.00190157 0.203346,-0.030689"/>
  <path class="fil2" d="M4.33263 3.95839l-0.0102835 -0.00383858c-0.0623622,-0.0232677 -0.142602,-0.00190157 -0.20335,0.0306929"/>
  <path class="fil7" d="M4.1708 4.02719c0.0157677,-0.0248425 0.0147795,-0.032122 0.0316063,-0.0585906 0.00781496,0.0501575 0.00584252,0.0554724 -0.00688583,0.102535l-0.0247205 -0.0439449z"/>
  <path class="fil8" d="M4.09287 4.1108c-0.0157677,0.0248425 -0.0147795,0.032122 -0.0316063,0.0585906 -0.00781496,-0.0501575 -0.00584252,-0.0554724 0.00688583,-0.102535l0.0247205 0.0439449z"/>
  <path class="fil2" d="M4.18316 4.04916c0.0136299,-0.0304646 0.0126929,-0.042437 0.019248,-0.080563"/>
  <path class="fil2" d="M4.0805 4.08883c-0.013626,0.0304646 -0.012689,0.042437 -0.0192441,0.080563"/>
  <path class="fil7" d="M3.80456 4.02781c-0.0480236,-0.0956772 -0.0539449,-0.0907795 -0.114106,-0.143575l3.93701e-006 -7.87402e-005c0.066752,-0.00542913 0.0824252,0.0100039 0.136094,0.0942874l-0.0219921 0.0493661z"/>
  <path class="fil8" d="M4.4591 4.11018c0.0480236,0.0956811 0.0539449,0.0907795 0.114106,0.143579l-3.93701e-006 7.48031e-005c-0.066752,0.00542913 -0.0824291,-0.01 -0.136094,-0.0942835l0.0219921 -0.0493701z"/>
  <path class="fil2" d="M3.81556 4.00312l-0.00737008 -0.0130433c-0.0415472,-0.0735591 -0.0640354,-0.0895748 -0.117728,-0.105886"/>
  <path class="fil2" d="M4.44811 4.13487l0.00736614 0.0130433c0.0415512,0.073563 0.0640354,0.0895748 0.117732,0.105886"/>
  <path class="fil7" d="M4.0153 3.92824c0.0602795,-0.00549606 0.0299882,-0.00484252 0.090874,-0.00184646 -0.0553071,0.0578386 -0.0265472,0.0355866 -0.086189,0.0672087l-0.00468504 -0.0653622z"/>
  <path class="fil8" d="M4.24837 4.20975c-0.0602795,0.00549606 -0.0299882,0.00484252 -0.090878,0.00184646 0.055311,-0.0578346 0.0265512,-0.0355866 0.0861929,-0.0672047l0.00468504 0.0653583z"/>
  <path class="fil2" d="M4.01764 3.96092c0.0276299,-0.00786614 0.0621417,-0.0175236 0.0885315,-0.0345276"/>
  <path class="fil2" d="M4.24602 4.17707c-0.0276299,0.00787008 -0.0621417,0.0175236 -0.0885354,0.0345276"/>
  <path class="fil7" d="M4.31288 4.09251c0.0438189,0.0626102 0.0542913,0.0585039 0.107008,0.0717402 -0.0559921,0.0472244 -0.0743228,0.0349724 -0.127791,-0.0203268l0.0207835 -0.0514134z"/>
  <path class="fil8" d="M3.95079 4.04548c-0.0438189,-0.0626102 -0.0542953,-0.0585039 -0.107008,-0.0717402 0.0559921,-0.0472244 0.0743228,-0.0349724 0.127791,0.0203307l-0.0207835 0.0514094z"/>
  <path class="fil2" d="M4.30248 4.11821c0.0312244,0.0501614 0.079378,0.0671181 0.117402,0.0460354"/>
  <path class="fil2" d="M3.96118 4.01978c-0.0312244,-0.0501575 -0.079378,-0.0671181 -0.117402,-0.0460354"/>
  <path class="fil7" d="M4.52766 4.13507c0.0553425,0.0131772 0.027748,0.00353937 0.0827598,0.0291457l0 5.90551e-005c-0.0545039,0.0360709 -0.0268937,0.0240354 -0.0827598,0.0368189l0 -0.0660236z"/>
  <path class="fil8" d="M3.736 4.00291c-0.0553386,-0.0131732 -0.0277441,-0.00353937 -0.0827559,-0.0291457l-3.93701e-006 -5.51181e-005c0.0545079,-0.0360748 0.0268976,-0.0240394 0.0827598,-0.0368228l0 0.0660236z"/>
  <path class="fil2" d="M4.52766 4.16809c0.0282362,0 0.0544134,0.00171654 0.0827598,-0.00383858"/>
  <path class="fil2" d="M3.736 3.9699c-0.0282323,0 -0.0544094,-0.00171654 -0.0827559,0.00383858"/>
  <path class="fil7" d="M4.71307 4.12772c-0.0470512,-0.0539567 -0.0222835,-0.0232205 -0.0737795,-0.0939016 0.0658898,0.0153661 0.0340512,0.000409449 0.0955866,0.0442047l-0.0218071 0.0496969z"/>
  <path class="fil8" d="M3.55059 4.01028c0.0470512,0.0539528 0.0222795,0.0232165 0.0737795,0.0938976 -0.0658898,-0.0153622 -0.0340512,-0.000409449 -0.0955866,-0.0442047l0.0218071 -0.0496929z"/>
  <path class="fil2" d="M4.72397 4.10287c-0.00843307,-0.0147047 -0.0678819,-0.0555945 -0.0846811,-0.0690512"/>
  <path class="fil2" d="M3.53969 4.03512c0.00843307,0.0147047 0.0678819,0.0555945 0.084685,0.0690512"/>
  <path class="fil7" d="M4.52279 4.07304c-0.0233346,-0.0196772 -0.051878,-0.0376811 -0.0759606,-0.0545669 0.043811,-0.0220118 0.0393898,-0.0269291 0.0857047,-0.00853543l-0.00974409 0.0631024z"/>
  <path class="fil8" d="M3.74087 4.06495c0.0233346,0.0196811 0.051878,0.037685 0.0759646,0.0545709 -0.043811,0.0220079 -0.0393898,0.0269291 -0.0857047,0.0085315l0.00974016 -0.0631024z"/>
  <path class="fil2" d="M4.52766 4.04148l-0.0078622 -0.00482283c-0.0268465,-0.0164646 -0.0456339,-0.0181929 -0.0729685,-0.0181929"/>
  <path class="fil2" d="M3.736 4.0965l0.0078622 0.00482283c0.0268504,0.0164685 0.0456378,0.0181969 0.0729724,0.0181969"/>
  <path class="fil7" d="M3.44796 4.2433c-0.084815,-0.0107126 -0.0524921,0.000720472 -0.130878,-0.0521614l1.1811e-005 -6.69291e-005c0.0477244,-0.00338189 0.0833071,-0.0077874 0.130866,-0.0137953l0 0.0660236z"/>
  <path class="fil8" d="M3.36106 4.06526c0.0848189,0.0107087 0.0524961,-0.000720472 0.130882,0.0521614l-1.1811e-005 6.69291e-005c-0.0477244,0.00338189 -0.0833071,0.0077874 -0.13087,0.0137953l0 -0.0660236z"/>
  <path class="fil2" d="M3.44796 4.21029l-0.00802756 0c-0.0409173,0 -0.0833071,0.00374803 -0.122846,-0.0191811"/>
  <path class="fil2" d="M4.18316 2.9103c0.278055,0.171846 0.407807,0.610921 0.129567,0.960047"/>
  <path class="fil9" d="M4.08018 4.28139c0.377961,-0.0192087 0.624354,-0.118299 0.762744,-0.224953 0.0760551,-0.037 0.152508,-0.0360709 0.212933,-0.0097126 0.0345,0.0150512 0.0634921,0.0381614 0.0842953,0.0672362 0.0204685,0.0286024 0.0329291,0.0629213 0.0347559,0.100862 0.00337402,0.0698701 -0.0302244,0.151524 -0.119791,0.227409 -0.0749449,0.0634764 -0.315575,0.200449 -0.556961,0.31876 -0.20161,0.0988071 -0.406646,0.186142 -0.521701,0.209713l-6.29921e-005 -0.000271654c-0.0714567,0.014622 -0.281854,-0.00369291 -0.526598,-0.0342283 -0.41224,-0.0514213 -0.932268,-0.136669 -1.02118,-0.154465 -0.0261181,-0.00521654 -0.0561496,0.00177559 -0.0858937,0.0143661 -0.0244528,0.0103543 -0.0486693,0.0244961 -0.0711457,0.0395866l0.0949724 -1.10669c0.0933425,-0.0127874 0.207295,-0.0274409 0.309398,-0.0379134 0.0984646,-0.0100984 0.189697,-0.016752 0.249587,-0.015185 0.225114,0.00587402 0.65785,0.12852 0.918697,0.202445 0.0896417,0.0254055 0.158039,0.0447913 0.187524,0.050685 0.0545551,0.0109134 0.0979724,0.0416339 0.124575,0.0821693 0.0187913,0.028626 0.0290591,0.0622913 0.0287441,0.0973307 -0.00104331,0.116106 -0.105949,0.188055 -0.218295,0.21448 -0.276051,0.0649331 -0.624409,-0.151398 -0.892138,-0.193476 0.552406,0.238102 0.887075,0.324417 1.00554,0.151854z"/>
  <path class="fil10" d="M5.13877 4.11106c0.0169409,0.0273307 0.0344567,0.0571299 0.036126,0.0917835 0.00349213,0.0723346 -0.0312913,0.156874 -0.124024,0.235437 -0.0325512,0.0275709 -0.0952992,0.0685354 -0.175618,0.115843 -0.00742126,-0.00582677 -0.014,-0.0125354 -0.019626,-0.0201614 -0.0611063,-0.0827992 0.0685433,-0.282161 0.165276,-0.353547 0.0967283,-0.0713858 0.076378,-0.052252 0.117866,-0.0693543z"/>
  <path class="fil9" d="M4.10299 3.958c0.0216772,0.0142638 0.0397126,0.0324449 0.0533346,0.0532047 0.0187913,0.028626 0.0290591,0.0622913 0.0287441,0.0973307 -0.000594488,0.0661772 -0.0349409,0.118 -0.0851654,0.155236 -0.0457323,0.00605906 -0.0920079,0.00337008 -0.192437,-0.0290866 -0.12852,-0.0415354 -0.356976,-0.0784528 -0.244791,-0.218311 0.112185,-0.139862 0.22048,-0.107799 0.333807,-0.0895 0.039689,0.00640945 0.0756457,0.017 0.106508,0.031126z"/>
  <polygon class="fil11" points="2.32027,4.89244 1.54666,4.89244 1.54666,3.6377 2.42795,3.6377 "/>
  <polygon class="fil12" points="1.75856,3.6377 1.6611,4.89244 2.32028,4.89244 2.32796,4.80281 2.42074,3.72169 2.42795,3.6377 "/>
  <circle class="fil13" cx="1.99347" cy="4.77068" r="0.0561621"/>
  <path class="fil14" d="M3.96677 4.32302c-0.276051,0.0649331 -0.624409,-0.151398 -0.892138,-0.193476 0.332067,0.172677 0.857728,0.385705 1.05582,0.148894l0.000173228 -0.000208661 -0.0603071 0.00482283 -0.000173228 0.000102362c-0.0315079,0.0180118 -0.0670472,0.0313228 -0.103374,0.0398661z"/>
  <path class="fil15" d="M4.1288 4.23888c-0.0595315,0.0111654 -0.096874,0.0179291 -0.217354,-0.0210079 -0.12048,-0.038937 -0.33465,-0.0735433 -0.22948,-0.204657 0.105169,-0.131118 0.206689,-0.101059 0.312929,-0.0839055 0.185815,0.0300039 0.28474,0.157559 0.133906,0.309571z"/>
  <path class="fil15" d="M5.15643 4.11994c0.016874,0.0255945 0.0270709,0.0557598 0.0287362,0.0891535 0.00347638,0.0697047 -0.0311693,0.153012 -0.123531,0.233311 -0.0324173,0.0281772 -0.0949173,0.0707323 -0.174917,0.120248 -0.00738976,-0.00527559 -0.0139449,-0.0114409 -0.0195472,-0.0185394 -0.0608622,-0.0770669 0.0128386,-0.233476 0.164614,-0.349354 0.0409173,-0.0312362 0.0833228,-0.0563228 0.124646,-0.0748189z"/>
 </g>
</svg>
