<?xml version="1.0" encoding="UTF-8"?>
<!DOCTYPE svg PUBLIC "-//W3C//DTD SVG 1.1//EN" "http://www.w3.org/Graphics/SVG/1.1/DTD/svg11.dtd">
<!-- Creator: CorelDRAW -->
<svg xmlns="http://www.w3.org/2000/svg" xml:space="preserve" width="6.82666in" height="6.82666in" style="shape-rendering:geometricPrecision; text-rendering:geometricPrecision; image-rendering:optimizeQuality; fill-rule:evenodd; clip-rule:evenodd"
viewBox="0 0 6.82666 6.82666"
 xmlns:xlink="http://www.w3.org/1999/xlink">
 <defs>
  <style type="text/css">
   <![CDATA[
    .fil0 {fill:none}
    .fil3 {fill:#00ACC1}
    .fil1 {fill:#26C6DA}
    .fil4 {fill:#FAFAFA}
    .fil2 {fill:#F4511E;fill-rule:nonzero}
   ]]>
  </style>
 </defs>
 <g id="Layer_x0020_1">
  <metadata id="CorelCorpID_0Corel-Layer"/>
  <g id="_248884888">
   <rect id="_248884768" class="fil0" width="6.82666" height="6.82666"/>
   <rect id="_248884624" class="fil0" x="0.853331" y="0.853331" width="5.12" height="5.12"/>
  </g>
  <g id="_248884048">
   <polygon id="_248884432" class="fil1" points="1.36441,3.04297 3.41333,1.2198 5.46225,3.11537 5.46225,5.79655 1.36441,5.79655 "/>
   <polygon id="_248884168" class="fil2" points="0.853331,3.3985 3.31877,1.11759 3.41333,1.03011 3.50789,1.11759 5.97333,3.3985 5.78421,3.60292 3.41333,1.40949 1.04245,3.60292 "/>
   <g>
    <path id="_248883832" class="fil3" d="M3.151 2.98141c0.221366,0 0.421799,0.0897402 0.566882,0.234823 0.145079,0.145083 0.234823,0.345516 0.234823,0.566882 0,0.215406 -0.0849843,0.410988 -0.22324,0.555035l0.864689 0.864689c0.0421614,0.0421614 0.0421614,0.110528 0,0.152689 -0.0421614,0.0421614 -0.110528,0.0421614 -0.152689,0l-0.88228 -0.88228c-0.119567,0.070874 -0.25913,0.111567 -0.408185,0.111567 -0.221366,0 -0.421803,-0.0897441 -0.566882,-0.234819 -0.145079,-0.145083 -0.234823,-0.345516 -0.234823,-0.566882 0,-0.221366 0.0897441,-0.421799 0.234823,-0.566882 0.145079,-0.145079 0.345516,-0.234823 0.566882,-0.234823zm0.414189 0.387512c-0.105984,-0.105988 -0.252429,-0.171547 -0.414189,-0.171547 -0.16176,0 -0.308201,0.0655591 -0.414193,0.171547 -0.105988,0.105992 -0.171547,0.252433 -0.171547,0.414193 0,0.16176 0.0655591,0.308201 0.171547,0.414193 0.105992,0.105988 0.252433,0.171547 0.414193,0.171547 0.16176,0 0.308205,-0.0655591 0.414189,-0.171547 0.105988,-0.105988 0.171555,-0.252433 0.171555,-0.414193 0,-0.16176 -0.0655669,-0.308205 -0.171555,-0.414193z"/>
    <path id="_248884096" class="fil4" d="M3.17662 2.92376c0.221366,0 0.421799,0.0897362 0.566882,0.234819 0.145079,0.145083 0.234823,0.345516 0.234823,0.566882 0,0.215409 -0.0849843,0.410988 -0.22324,0.555035l0.864689 0.864689c0.0421614,0.0421614 0.0421614,0.110528 0,0.152689 -0.0421614,0.0421614 -0.110528,0.0421614 -0.152689,0l-0.88228 -0.88228c-0.119567,0.070874 -0.25913,0.111567 -0.408185,0.111567 -0.221366,0 -0.421803,-0.0897441 -0.566882,-0.234819 -0.145079,-0.145083 -0.234823,-0.345516 -0.234823,-0.566882 0,-0.221366 0.0897441,-0.421799 0.234823,-0.566882 0.145079,-0.145079 0.345516,-0.234819 0.566882,-0.234819zm0.414193 0.387508c-0.105988,-0.105988 -0.252433,-0.171547 -0.414193,-0.171547 -0.16176,0 -0.308201,0.0655591 -0.414193,0.171547 -0.105988,0.105992 -0.171547,0.252433 -0.171547,0.414193 0,0.16176 0.0655591,0.308201 0.171547,0.414193 0.105992,0.105988 0.252433,0.171547 0.414193,0.171547 0.16176,0 0.308205,-0.0655591 0.414193,-0.171547 0.105988,-0.105988 0.171551,-0.252433 0.171551,-0.414193 0,-0.16176 -0.065563,-0.308205 -0.171551,-0.414193z"/>
   </g>
  </g>
 </g>
</svg>
