<?xml version="1.0" encoding="UTF-8"?>
<!DOCTYPE svg PUBLIC "-//W3C//DTD SVG 1.1//EN" "http://www.w3.org/Graphics/SVG/1.1/DTD/svg11.dtd">
<!-- Creator: CorelDRAW -->
<svg xmlns="http://www.w3.org/2000/svg" xml:space="preserve" width="6.82666in" height="6.82666in" style="shape-rendering:geometricPrecision; text-rendering:geometricPrecision; image-rendering:optimizeQuality; fill-rule:evenodd; clip-rule:evenodd"
viewBox="0 0 6.82666 6.82666"
 xmlns:xlink="http://www.w3.org/1999/xlink">
 <defs>
  <style type="text/css">
   <![CDATA[
    .fil2 {fill:none}
    .fil3 {fill:#33691E}
    .fil5 {fill:#4B772D}
    .fil4 {fill:#558B2F}
    .fil1 {fill:#90A4AE}
    .fil0 {fill:#B0BEC5}
   ]]>
  </style>
   <clipPath id="id0">
    <path d="M3.41333 -3.93701e-006c1.88513,0 3.41333,1.5282 3.41333,3.41333 0,1.88513 -1.5282,3.41333 -3.41333,3.41333 -1.88513,0 -3.41333,-1.5282 -3.41333,-3.41333 0,-1.88513 1.5282,-3.41333 3.41333,-3.41333z"/>
   </clipPath>
 </defs>
 <g id="Layer_x0020_1">
  <metadata id="CorelCorpID_0Corel-Layer"/>
  <path class="fil0" d="M3.41333 -3.93701e-006c1.88513,0 3.41333,1.5282 3.41333,3.41333 0,1.88513 -1.5282,3.41333 -3.41333,3.41333 -1.88513,0 -3.41333,-1.5282 -3.41333,-3.41333 0,-1.88513 1.5282,-3.41333 3.41333,-3.41333z"/>
  <g style="clip-path:url(#id0)">
   <g id="_457172672">
    <g>
     <polygon id="_4528444641" class="fil1" points="5.10265,1.55679 8.88892,5.34306 8.86154,5.37256 8.83518,5.4027 8.80979,5.43343 8.78532,5.46468 8.76174,5.49641 8.73899,5.52857 8.71704,5.56111 8.69583,5.59396 8.67533,5.62707 8.6555,5.66041 8.63628,5.6939 8.61763,5.7275 8.59952,5.76115 8.58189,5.7948 8.5647,5.82841 8.54791,5.8619 8.53148,5.89524 8.51535,5.92837 8.4995,5.96123 8.48386,5.99377 8.46841,6.02595 8.45309,6.0577 8.43786,6.08898 8.42267,6.11972 8.4075,6.14988 8.39228,6.17941 8.37697,6.20825 8.36154,6.23635 8.34593,6.26365 8.33011,6.2901 8.31402,6.31566 8.29763,6.34026 4.51137,2.55398 4.52776,2.52939 4.54384,2.50383 4.55966,2.47738 4.57527,2.45007 4.5907,2.42198 4.60601,2.39314 4.62123,2.36361 4.63641,2.33345 4.65159,2.3027 4.66682,2.27143 4.68214,2.23968 4.69759,2.2075 4.71323,2.17496 4.72909,2.14209 4.74521,2.10897 4.76165,2.07563 4.77843,2.04213 4.79562,2.00853 4.81325,1.97488 4.83136,1.94122 4.85001,1.90763 4.86923,1.87413 4.88907,1.8408 4.90956,1.80769 4.93077,1.77483 4.95272,1.7423 4.97547,1.71014 4.99906,1.67841 5.02352,1.64715 5.04891,1.61643 5.07528,1.58629 "/>
     <polygon id="_452844392" class="fil1" points="3.00128,2.48037 6.78755,6.26664 6.81513,6.29533 6.83941,6.32575 6.86044,6.35765 6.87822,6.39077 6.8928,6.42489 6.90417,6.45975 6.91238,6.49511 6.91744,6.53074 6.91938,6.56638 6.91822,6.60179 6.91398,6.63673 6.90669,6.67096 3.12043,2.88469 3.12772,2.85046 3.13195,2.81552 3.13311,2.78011 3.13117,2.74446 3.12611,2.70884 3.11791,2.67348 3.10653,2.63861 3.09196,2.6045 3.07417,2.57137 3.05315,2.53948 3.02886,2.50906 "/>
     <polygon id="_452846216" class="fil1" points="3.41324,2.93176 7.1995,6.71803 7.19913,6.71888 7.19876,6.71973 7.19838,6.72059 7.19801,6.72144 7.19763,6.72229 7.19726,6.72315 7.19689,6.724 7.19652,6.72485 3.41025,2.93858 3.41062,2.93772 3.41099,2.93687 3.41137,2.93602 3.41174,2.93517 3.41211,2.93431 3.41249,2.93346 3.41286,2.93261 "/>
     <polygon id="_452846504" class="fil1" points="3.27751,3.05429 7.06378,6.84056 7.05821,6.83669 7.05265,6.83281 7.04712,6.82893 7.0416,6.82504 7.03609,6.82115 7.03061,6.81726 7.02514,6.81336 7.01969,6.80946 7.01424,6.80555 7.00882,6.80165 7.00341,6.79774 6.998,6.79382 6.99262,6.78991 6.98724,6.786 6.98188,6.78209 6.97652,6.77817 6.97118,6.77426 6.96585,6.77035 6.96052,6.76644 6.95521,6.76253 6.94991,6.75863 6.94461,6.75472 6.93931,6.75082 6.93403,6.74692 6.92875,6.74303 6.92348,6.73914 6.91821,6.73526 6.91294,6.73137 6.90768,6.7275 6.90243,6.72363 6.89717,6.71977 6.89192,6.71591 3.10565,2.92964 3.11091,2.9335 3.11616,2.93736 3.12141,2.94123 3.12668,2.9451 3.13194,2.94898 3.13721,2.95287 3.14248,2.95676 3.14776,2.96065 3.15305,2.96455 3.15834,2.96845 3.16364,2.97235 3.16894,2.97626 3.17426,2.98017 3.17958,2.98408 3.18491,2.98799 3.19026,2.9919 3.19561,2.99581 3.20097,2.99973 3.20635,3.00364 3.21174,3.00755 3.21714,3.01146 3.22255,3.01537 3.22798,3.01928 3.23342,3.02319 3.23887,3.02709 3.24434,3.03099 3.24983,3.03488 3.25533,3.03877 3.26085,3.04266 3.26639,3.04654 3.27194,3.05042 "/>
     <polygon id="_452846240" class="fil1" points="3.10565,2.92964 6.89192,6.71591 6.88384,6.7346 6.87473,6.75279 6.8646,6.77044 6.85345,6.7875 6.84129,6.80393 6.82813,6.81966 6.81396,6.83465 6.79879,6.84886 6.78263,6.86224 6.76548,6.87472 6.74735,6.88628 6.72823,6.89685 6.70815,6.90639 6.68709,6.91484 6.66507,6.92217 6.64209,6.92831 6.61815,6.93323 6.59326,6.93687 6.56742,6.93919 6.54065,6.94013 6.51293,6.93964 6.48428,6.93768 6.45471,6.93419 6.42421,6.92914 6.3928,6.92246 6.36047,6.91411 6.32723,6.90405 6.29309,6.89221 6.25805,6.87856 6.22211,6.86304 6.18528,6.84561 6.14757,6.8262 2.3613,3.03993 2.39902,3.05933 2.43584,3.07677 2.47178,3.09229 2.50682,3.10594 2.54096,3.11778 2.5742,3.12784 2.60653,3.13619 2.63794,3.14287 2.66844,3.14792 2.69802,3.15141 2.72667,3.15337 2.75438,3.15385 2.78115,3.15291 2.80699,3.1506 2.83188,3.14696 2.85582,3.14204 2.8788,3.13589 2.90082,3.12857 2.92188,3.12011 2.94196,3.11057 2.96108,3.1 2.97921,3.08845 2.99636,3.07596 3.01252,3.06259 3.02769,3.04838 3.04186,3.03339 3.05502,3.01765 3.06719,3.00123 3.07833,2.98417 3.08846,2.96652 3.09757,2.94833 "/>
     <polygon id="_452846528" class="fil1" points="3.41025,2.93858 7.19652,6.72485 7.18702,6.74713 7.17792,6.76957 7.16919,6.79219 7.16082,6.81496 7.15283,6.83789 7.14519,6.86097 7.13791,6.8842 7.13098,6.90757 7.12439,6.93107 7.11813,6.9547 7.11221,6.97846 7.10662,7.00234 7.10134,7.02633 7.09638,7.05043 7.09173,7.07464 7.08738,7.09894 7.08333,7.12333 7.07958,7.14781 7.07611,7.17238 7.07292,7.19702 7.07,7.22173 7.06736,7.24651 7.06498,7.27135 7.06286,7.29625 7.06099,7.32119 7.05937,7.34619 7.05799,7.37122 7.05685,7.39628 7.05594,7.42137 7.05525,7.44649 7.05478,7.47163 7.05453,7.49678 3.26826,3.71051 3.26852,3.68536 3.26898,3.66022 3.26967,3.6351 3.27058,3.61001 3.27172,3.58494 3.2731,3.55991 3.27472,3.53492 3.27659,3.50998 3.27871,3.48508 3.28109,3.46024 3.28374,3.43546 3.28665,3.41075 3.28984,3.38611 3.29331,3.36154 3.29707,3.33706 3.30111,3.31267 3.30546,3.28837 3.31011,3.26416 3.31507,3.24006 3.32035,3.21607 3.32594,3.19219 3.33187,3.16843 3.33812,3.1448 3.34471,3.1213 3.35164,3.09793 3.35893,3.0747 3.36656,3.05162 3.37456,3.02869 3.38292,3.00591 3.39165,2.9833 3.40076,2.96085 "/>
     <polygon id="_452846384" class="fil1" points="3.40265,3.65852 7.18891,7.44479 7.18481,7.4478 7.18071,7.45081 7.1766,7.45383 7.1725,7.45686 7.16839,7.45989 7.16427,7.46293 7.16015,7.46596 7.15603,7.46901 7.1519,7.47205 7.14776,7.4751 7.14363,7.47815 7.13948,7.4812 7.13533,7.48425 7.13117,7.4873 7.127,7.49036 7.12283,7.49341 7.11864,7.49647 7.11445,7.49953 7.11025,7.50258 7.10604,7.50564 7.10182,7.50869 7.09759,7.51174 7.09334,7.51479 7.08909,7.51784 7.08482,7.52089 7.08054,7.52393 7.07625,7.52697 7.07195,7.53001 7.06763,7.53304 7.0633,7.53607 7.05895,7.5391 7.05459,7.54212 3.26832,3.75585 3.27269,3.75283 3.27703,3.7498 3.28136,3.74677 3.28568,3.74374 3.28998,3.7407 3.29428,3.73766 3.29856,3.73462 3.30282,3.73157 3.30707,3.72852 3.31132,3.72547 3.31555,3.72242 3.31977,3.71937 3.32398,3.71631 3.32819,3.71326 3.33237,3.7102 3.33656,3.70714 3.34073,3.70409 3.3449,3.70103 3.34906,3.69798 3.35321,3.69493 3.35736,3.69187 3.3615,3.68883 3.36563,3.68578 3.36976,3.68274 3.37388,3.67969 3.378,3.67666 3.38212,3.67362 3.38623,3.67059 3.39033,3.66756 3.39444,3.66454 3.39854,3.66153 "/>
     <polygon id="_452845952" class="fil1" points="2.3613,3.03993 6.14757,6.8262 6.13081,6.81694 6.11394,6.80703 6.09696,6.79653 6.07985,6.78548 6.0626,6.77392 6.0452,6.76189 6.02765,6.74944 6.00993,6.73662 5.99203,6.72346 5.97394,6.71 5.95567,6.69631 5.93719,6.68241 5.9185,6.66835 5.89959,6.65417 5.88044,6.63992 5.86105,6.62564 5.84141,6.61138 5.82151,6.59717 5.80134,6.58307 5.78089,6.56911 5.76016,6.55534 5.73912,6.54181 5.71778,6.52855 5.69611,6.51561 5.67413,6.50303 5.65181,6.49086 5.62914,6.47914 5.60611,6.46792 5.58272,6.45723 5.55896,6.44713 5.53482,6.43765 5.51028,6.42883 1.72401,2.64256 1.74855,2.65137 1.7727,2.66085 1.79646,2.67096 1.81985,2.68165 1.84287,2.69287 1.86554,2.70459 1.88786,2.71676 1.90985,2.72933 1.93151,2.74228 1.95285,2.75554 1.97389,2.76907 1.99463,2.78284 2.01507,2.7968 2.03524,2.8109 2.05515,2.82511 2.07478,2.83937 2.09417,2.85365 2.11332,2.8679 2.13223,2.88207 2.15093,2.89613 2.16941,2.91004 2.18768,2.92373 2.20576,2.93719 2.22366,2.95035 2.24138,2.96317 2.25893,2.97562 2.27633,2.98765 2.29358,2.99921 2.31069,3.01026 2.32768,3.02076 2.34455,3.03067 "/>
     <polygon id="_452846048" class="fil1" points="3.44475,5.28 7.23102,9.06627 7.06115,9.06625 3.27488,5.27998 "/>
     <polygon id="_452846192" class="fil1" points="4.51137,2.55398 8.29763,6.34026 8.25974,6.3936 8.22167,6.44362 8.18345,6.49039 8.14514,6.53397 8.10677,6.57443 8.06839,6.61182 8.03002,6.64621 7.99172,6.67767 7.95354,6.70625 7.91549,6.73203 7.87764,6.75506 7.84002,6.77541 7.80267,6.79315 7.76563,6.80834 7.72895,6.82104 7.69267,6.83131 7.65681,6.83922 7.62144,6.84483 7.58659,6.84822 7.5523,6.84943 7.51861,6.84854 7.48556,6.8456 7.4532,6.84069 7.42156,6.83387 7.39069,6.82519 7.36062,6.81473 7.33141,6.80255 7.30308,6.7887 7.27569,6.77327 7.24926,6.7563 7.22386,6.73787 7.1995,6.71803 3.41324,2.93176 3.43759,2.9516 3.463,2.97003 3.48942,2.987 3.51681,3.00243 3.54514,3.01628 3.57435,3.02846 3.60442,3.03892 3.63529,3.04759 3.66693,3.05442 3.69929,3.05933 3.73234,3.06226 3.76603,3.06316 3.80032,3.06194 3.83518,3.05856 3.87055,3.05295 3.9064,3.04504 3.94269,3.03476 3.97937,3.02207 4.0164,3.00688 4.05375,2.98914 4.09137,2.96879 4.12922,2.94576 4.16727,2.91998 4.20546,2.89139 4.24375,2.85994 4.28212,2.82555 4.3205,2.78816 4.35887,2.7477 4.39719,2.70412 4.4354,2.65735 4.47347,2.60733 "/>
     <polygon id="_452845880" class="fil1" points="3.97273,3.74298 7.759,7.52926 7.73011,7.54411 7.70191,7.55747 7.67439,7.56935 7.64755,7.57981 7.6214,7.58887 7.59594,7.59658 7.57118,7.60298 7.54712,7.60809 7.52376,7.61196 7.50111,7.61463 7.47917,7.61613 7.45795,7.61651 7.43744,7.61579 7.41765,7.61402 7.39859,7.61123 7.38026,7.60746 7.36265,7.60275 7.34579,7.59714 7.32966,7.59067 7.31428,7.58336 7.29964,7.57526 7.28575,7.56642 7.27262,7.55685 7.26024,7.54661 7.24863,7.53573 3.46236,3.74946 3.47397,3.76034 3.48635,3.77058 3.49948,3.78015 3.51337,3.78899 3.52801,3.79709 3.54339,3.80439 3.55952,3.81087 3.57639,3.81648 3.59399,3.82119 3.61232,3.82496 3.63139,3.82774 3.65117,3.82952 3.67168,3.83024 3.69291,3.82986 3.71485,3.82836 3.7375,3.82569 3.76085,3.82182 3.78491,3.8167 3.80967,3.81031 3.83513,3.8026 3.86128,3.79354 3.88812,3.78308 3.91564,3.7712 3.94385,3.75784 "/>
     <polygon id="_452846480" class="fil1" points="3.26832,3.75585 7.05459,7.54212 7.05566,7.60223 7.05778,7.66226 7.06089,7.72213 7.06489,7.78178 7.06971,7.84113 7.07528,7.90011 7.08152,7.95864 7.08835,8.01666 7.09571,8.07409 7.1035,8.13086 7.11165,8.1869 7.12009,8.24213 7.12874,8.29649 7.13753,8.34989 7.14637,8.40228 7.15519,8.45356 7.16392,8.50369 7.17247,8.55257 7.18077,8.60014 7.18874,8.64633 7.19631,8.69106 7.20341,8.73426 7.20994,8.77586 7.21584,8.81578 7.22103,8.85396 7.22543,8.89033 7.22897,8.9248 7.23157,8.95731 7.23315,8.98778 7.23363,9.01615 7.23295,9.04234 7.23102,9.06627 3.44475,5.28 3.44668,5.25607 3.44737,5.22988 3.44688,5.20151 3.4453,5.17104 3.4427,5.13853 3.43916,5.10406 3.43476,5.06769 3.42957,5.02951 3.42367,4.98959 3.41714,4.94798 3.41005,4.90478 3.40248,4.86006 3.3945,4.81387 3.3862,4.7663 3.37765,4.71741 3.36893,4.66729 3.36011,4.616 3.35126,4.56362 3.34248,4.51022 3.33383,4.45586 3.32539,4.40063 3.31723,4.34459 3.30944,4.28782 3.30209,4.23039 3.29525,4.17237 3.28901,4.11383 3.28344,4.05486 3.27862,3.99551 3.27462,3.93586 3.27152,3.87598 3.26939,3.81596 "/>
     <polygon id="_452846912" class="fil1" points="4.46081,3.43865 8.24708,7.22492 8.22829,7.23167 8.2098,7.23893 8.1916,7.24667 8.17369,7.25485 8.15606,7.26345 8.13869,7.27243 8.12159,7.28174 8.10476,7.29138 8.08817,7.30129 8.07182,7.31144 8.05571,7.32181 8.03983,7.33235 8.02417,7.34305 8.00872,7.35385 7.99348,7.36473 7.97844,7.37565 7.96359,7.38659 7.94892,7.3975 7.93444,7.40836 7.92012,7.41913 7.90597,7.42977 7.89197,7.44026 7.87812,7.45056 7.86442,7.46064 7.85085,7.47046 7.8374,7.48 7.82407,7.48921 7.81086,7.49807 7.79776,7.50653 7.78475,7.51457 7.77183,7.52216 7.759,7.52926 3.97273,3.74298 3.98556,3.73589 3.99848,3.7283 4.01149,3.72026 4.02459,3.7118 4.03781,3.70294 4.05113,3.69373 4.06458,3.68419 4.07815,3.67437 4.09185,3.66429 4.1057,3.65399 4.1197,3.6435 4.13385,3.63285 4.14817,3.62209 4.16265,3.61123 4.17732,3.60031 4.19217,3.58938 4.20721,3.57846 4.22245,3.56757 4.2379,3.55678 4.25356,3.54608 4.26944,3.53554 4.28555,3.52517 4.3019,3.51502 4.31849,3.50511 4.33533,3.49547 4.35243,3.48615 4.36979,3.47718 4.38742,3.46858 4.40533,3.4604 4.42353,3.45266 4.44202,3.4454 "/>
    </g>
    <path id="_457173128" class="fil1" d="M5.10265 1.55679c-0.297551,0.311098 -0.414701,0.740079 -0.591283,0.997197 -0.403067,0.586917 -0.844138,0.596626 -1.09813,0.377776 -0.000996063,0.00226772 -0.00199606,0.00454331 -0.00298819,0.0068189 -0.103295,0.23665 -0.140394,0.50361 -0.141988,0.771929 0.0413583,-0.0285512 0.0819331,-0.057874 0.123075,-0.0864252 -0.0719606,-0.27602 0.252106,-0.677283 1.06948,-0.185433 -0.202087,0.0691299 -0.35161,0.23137 -0.488087,0.304335 -0.311689,0.166646 -0.508256,0.0700591 -0.570083,-0.0844685 -0.0437362,0.0320906 -0.0877205,0.0651378 -0.134323,0.0973307 0.00551969,0.64135 0.203945,1.28112 0.176429,1.52415l-0.16987 -1.9685e-005c0.00988583,-0.335697 -0.286622,-1.4122 0.00262992,-2.22569 -0.0595394,-0.0412638 -0.115854,-0.0835591 -0.171858,-0.12465 -0.0807283,0.201764 -0.337382,0.327874 -0.74435,0.110291 -0.178197,-0.0952717 -0.373425,-0.307106 -0.637291,-0.39737 1.06724,-0.642205 1.49037,-0.11828 1.39641,0.242122 0.0583346,0.0404764 0.115795,0.0821496 0.174642,0.122425 0.0177559,-0.0456299 0.0374567,-0.0903465 0.0592717,-0.133969 -0.376035,-0.431323 -0.159898,-1.438 1.74831,-1.31635z"/>
   </g>
  </g>
  <path class="fil2" d="M3.41333 -3.93701e-006c1.88513,0 3.41333,1.5282 3.41333,3.41333 0,1.88513 -1.5282,3.41333 -3.41333,3.41333 -1.88513,0 -3.41333,-1.5282 -3.41333,-3.41333 0,-1.88513 1.5282,-3.41333 3.41333,-3.41333z"/>
  <path class="fil3" d="M5.10265 1.55679c-0.297551,0.311094 -0.414701,0.740079 -0.591283,0.997197 -1.12028,1.63128 -2.53417,-1.19644 0.591283,-0.997197z"/>
  <path class="fil4" d="M3.27488 5.27998c0.0106496,-0.361484 -0.333996,-1.58199 0.0800748,-2.40807 0.21739,-0.433701 0.525878,-0.70028 0.68387,-0.80298 0.185949,-0.12087 0.221268,-0.161736 0.436406,-0.242693l-0.00232283 0.000897638c0.0906772,-0.0243583 0.130224,-0.0212874 0.219575,-0.0258583 -0.0700945,0.0195433 -0.0197008,0.00809449 -0.106197,0.0215945 -0.208283,0.0325039 -0.35652,0.163177 -0.524697,0.279382 -0.166303,0.114917 -0.458386,0.394268 -0.651339,0.836327 -0.355969,0.815512 0.0741772,1.99096 0.0344961,2.34142l-0.169866 -1.9685e-005z"/>
  <path class="fil4" d="M3.90102 2.17403c0.0343031,-0.00922441 0.0697205,-0.0173425 0.106409,-0.0242165 0.184185,-0.0345 0.224921,-0.0550315 0.419031,-0.0489449l-0.00211024 -4.72441e-005c0.0786693,0.0101969 0.108571,0.0253307 0.179823,0.0505512 -0.0610394,-0.0073189 -0.0179961,-2.3622e-005 -0.0898937,-0.0173504 -0.17315,-0.0417165 -0.331028,0.0125787 -0.499807,0.0491535 -0.0370787,0.00803543 -0.0726575,0.0172402 -0.106902,0.0275157 0.00258661,-0.0125984 0.000200787,-0.025748 -0.00655118,-0.0366614z"/>
  <path class="fil4" d="M3.59789 2.4842c0.00198819,-0.00038189 0.00395276,-0.000791339 0.00595276,-0.00116142 0.218004,-0.0408346 0.266224,-0.0651378 0.495976,-0.0579331l-0.00249213 -5.51181e-005c0.0931102,0.0120669 0.128504,0.0299803 0.212843,0.0598307 -0.072248,-0.00866142 -0.0212992,-2.75591e-005 -0.106402,-0.0205354 -0.204945,-0.049378 -0.391815,0.0148898 -0.591591,0.0581811l-0.0042874 0.00096063c0.00134646,-0.0138071 -0.00220472,-0.0277953 -0.01,-0.0392874z"/>
  <path class="fil4" d="M4.10351 2.0675c0.0108622,-0.0211024 0.0207441,-0.0425748 0.0295197,-0.0644724 0.0440551,-0.109929 0.0660472,-0.137138 0.072185,-0.243469l-8.66142e-005 0.00115748c-0.00485039,-0.0413583 -0.017378,-0.0545551 -0.0369449,-0.0884331 0.00320079,0.0322244 -0.00108661,0.00998031 0.0109528,0.0459843 0.0289724,0.0867126 -0.0322638,0.186488 -0.0773465,0.288339 -0.00990551,0.022374 -0.0208268,0.0441811 -0.0326772,0.0654843 0.0121142,-0.00425984 0.0244488,-0.00588583 0.0343976,-0.00459055z"/>
  <path class="fil4" d="M3.70061 2.4092c0.000570866,-0.00142126 0.00116535,-0.00282677 0.00172835,-0.00425197 0.0617244,-0.155484 0.0899764,-0.191854 0.107004,-0.349201l-0.000208661 0.0017126c-0.00184646,-0.0625787 -0.0152835,-0.0846378 -0.0350433,-0.138866 0.00076378,0.0486457 -0.00218898,0.0146693 0.00855906,0.0706339 0.0258701,0.134783 -0.0550157,0.271858 -0.117193,0.415098l-0.00136614 0.00307874c0.0133425,-0.00271654 0.0263425,-0.00208661 0.0365197,0.00179528z"/>
  <path class="fil3" d="M1.72401 2.64256c0.263866,0.0902638 0.459094,0.302098 0.637291,0.39737 1.13054,0.604437 1.10108,-1.44342 -0.637291,-0.39737z"/>
  <path class="fil5" d="M3.30398 3.01319c-0.244114,-0.166059 -0.462551,-0.358264 -0.815433,-0.393091 -0.142988,-0.0141102 -0.175472,-0.0270866 -0.323346,-0.00953543l0.0016063 -0.000181102c-0.0594134,0.0130157 -0.081252,0.0265669 -0.134004,0.0505669 0.0461417,-0.00964961 0.0137441,-0.00121654 0.0675157,-0.0192283 0.129496,-0.043374 0.253705,-0.0123898 0.385067,0.00433071 0.369551,0.0470433 0.563811,0.257189 0.834413,0.436953l-0.0158189 -0.069815z"/>
  <path class="fil5" d="M2.59914 2.63949c-0.0224764,0.00491732 -0.0452717,0.0107992 -0.0684213,0.0177835 -0.116224,0.0350472 -0.145772,0.035378 -0.25561,0.0967244l0.00119685 -0.000653543c-0.0422087,0.029311 -0.0548976,0.0469252 -0.0883661,0.0826654 0.0329291,-0.0223976 0.0103425,-0.00537402 0.0465354,-0.0367677 0.0871614,-0.0755984 0.194154,-0.0914173 0.302134,-0.120681 0.0237244,-0.00642913 0.0469331,-0.0117362 0.069689,-0.0160315 -0.00524016,-0.00647638 -0.0077874,-0.014748 -0.00715748,-0.0230394z"/>
  <path class="fil5" d="M2.86593 2.72756c-0.00125984,0.000374016 -0.00251181,0.000724409 -0.00377165,0.0011063 -0.137567,0.0414803 -0.172543,0.0418701 -0.302551,0.114488l0.00142126 -0.000775591c-0.0499646,0.0346929 -0.0649843,0.0555433 -0.104598,0.0978465 0.0389764,-0.0265157 0.0122441,-0.0063622 0.0550827,-0.0435236 0.103169,-0.0894764 0.229807,-0.108201 0.357618,-0.142839l0.00275591 -0.000724409c-0.00488976,-0.00754331 -0.00701575,-0.0166457 -0.00595669,-0.0255787z"/>
  <path class="fil5" d="M2.45092 2.63856c-0.0125354,-0.00890157 -0.0246181,-0.0183071 -0.0361929,-0.0282874 -0.0581024,-0.0501024 -0.0788622,-0.0591969 -0.114079,-0.118531l0.000393701 0.000641732c-0.00953543,-0.0252362 -0.00626378,-0.0365591 -0.00510236,-0.061878 0.00776378,0.0194882 0.00359843,0.00541732 0.00740551,0.0297165 0.00917323,0.0585079 0.0741339,0.0976496 0.130417,0.142799 0.0123661,0.00991732 0.0251457,0.0192047 0.038311,0.0279252 -0.00823622,0.00116142 -0.0158189,0.00390157 -0.0211535,0.00761417z"/>
  <path class="fil5" d="M2.7845 2.71503c-0.000751969,-0.000645669 -0.00151181,-0.00127559 -0.00226378,-0.00192913 -0.0818386,-0.0710394 -0.108929,-0.0835394 -0.165614,-0.168969l0.000629921 0.00092126c-0.0175906,-0.0365433 -0.0164331,-0.0532362 -0.0212283,-0.0903189 0.0140591,0.0282087 0.00562992,0.0077874 0.016126,0.0431811 0.0252874,0.0852362 0.112665,0.139976 0.191118,0.203839l0.00170472 0.0013622c-0.00848425,0.00241339 -0.0157756,0.00664961 -0.0204724,0.0119134z"/>
  <path class="fil3" d="M4.46081 3.43865c-0.202087,0.0691299 -0.35161,0.23137 -0.488087,0.304335 -0.865854,0.462929 -0.843295,-1.10548 0.488087,-0.304335z"/>
  <path class="fil5" d="M3.25075 3.72251c0.186965,-0.127181 0.35426,-0.27439 0.62452,-0.301059 0.109516,-0.0108071 0.134394,-0.020748 0.247646,-0.00730709l-0.00122835 -0.000133858c0.0455039,0.0099685 0.0622283,0.0203425 0.10263,0.0387244 -0.0353386,-0.00738976 -0.0105276,-0.000929134 -0.0517087,-0.0147244 -0.0991772,-0.0332205 -0.194307,-0.00949213 -0.294913,0.00331496 -0.283031,0.0360276 -0.431811,0.196976 -0.639059,0.334654l0.0121142 -0.0534685z"/>
  <path class="fil5" d="M3.79057 3.4363c0.0172165,0.00376378 0.0346732,0.00827165 0.0524016,0.0136181 0.0890157,0.0268425 0.111646,0.0270945 0.195768,0.0740787l-0.000917323 -0.0005c0.0323268,0.0224488 0.0420472,0.035937 0.0676772,0.063311 -0.0252165,-0.0171535 -0.00792126,-0.00411417 -0.0356378,-0.0281614 -0.0667559,-0.0578976 -0.148701,-0.0700118 -0.231402,-0.0924252 -0.0181693,-0.00492126 -0.0359409,-0.00898819 -0.0533701,-0.0122795 0.00401181,-0.00495669 0.00596457,-0.0112953 0.00548031,-0.0176417z"/>
  <path class="fil5" d="M3.58624 3.50374c0.000964567,0.000287402 0.00192126,0.000555118 0.00288976,0.000846457 0.105358,0.0317717 0.132146,0.0320709 0.231713,0.087685l-0.00108268 -0.000594488c0.0382638,0.0265709 0.0497677,0.0425394 0.0801063,0.0749409 -0.0298504,-0.0203071 -0.00937795,-0.00487402 -0.042185,-0.0333346 -0.0790157,-0.0685276 -0.176004,-0.0828701 -0.273894,-0.109398l-0.00211024 -0.000555118c0.00374803,-0.00577559 0.00537402,-0.012748 0.00456299,-0.0195906z"/>
  <path class="fil5" d="M3.90409 3.43558c0.00960236,-0.00681496 0.0188543,-0.0140197 0.0277205,-0.0216614 0.0444961,-0.038374 0.0603976,-0.0453386 0.0873701,-0.0907835l-0.00030315 0.000492126c0.00730315,-0.0193268 0.00479921,-0.028 0.00390945,-0.0473898 -0.00594488,0.0149252 -0.00275591,0.00414961 -0.00566929,0.0227598 -0.0070315,0.044811 -0.0567795,0.0747874 -0.0998858,0.109366 -0.00947244,0.00759449 -0.0192598,0.0147087 -0.0293425,0.0213898 0.00631102,0.000885827 0.0121142,0.00298425 0.0162008,0.00582677z"/>
  <path class="fil5" d="M3.64861 3.49415c0.000574803,-0.000496063 0.00116142,-0.000980315 0.00173228,-0.00148031 0.0626811,-0.0544055 0.0834291,-0.0639803 0.126843,-0.129409l-0.000480315 0.000708661c0.0134685,-0.0279921 0.0125827,-0.0407756 0.0162559,-0.0691732 -0.0107677,0.0216024 -0.00431102,0.00596063 -0.0123504,0.0330709 -0.0193661,0.0652795 -0.0862874,0.107201 -0.146374,0.156114l-0.00130315 0.00104331c0.00649606,0.00184646 0.0120827,0.00509449 0.0156772,0.00912598z"/>
 </g>
</svg>
