<?xml version="1.0" encoding="utf-8"?>
<!-- Generator: Adobe Illustrator 21.0.0, SVG Export Plug-In . SVG Version: 6.00 Build 0)  -->
<svg version="1.1" id="Layer_1" xmlns="http://www.w3.org/2000/svg" xmlns:xlink="http://www.w3.org/1999/xlink" x="0px" y="0px"
	 viewBox="0 0 64 64" style="enable-background:new 0 0 64 64;" xml:space="preserve">
<style type="text/css">
	.st0{fill:#455A64;stroke:#37474F;stroke-linecap:round;stroke-linejoin:round;stroke-miterlimit:10;}
	.st1{fill:#78909C;stroke:#37474F;stroke-linecap:round;stroke-linejoin:round;stroke-miterlimit:10;}
	.st2{fill:#ECEFF1;stroke:#37474F;stroke-linecap:round;stroke-linejoin:round;stroke-miterlimit:10;}
	.st3{fill:none;stroke:#FFFFFF;stroke-linecap:round;stroke-linejoin:round;stroke-miterlimit:10;}
	.st4{fill:#FFCA28;stroke:#37474F;stroke-linecap:round;stroke-linejoin:round;stroke-miterlimit:10;}
	.st5{fill:none;stroke:#37474F;stroke-linecap:round;stroke-linejoin:round;stroke-miterlimit:10;}
	.st6{fill:#B0BEC5;}
	.st7{fill:#37474F;}
	.st8{fill:#455A64;}
	.st9{fill:#9CCC65;stroke:#37474F;stroke-linecap:round;stroke-linejoin:round;stroke-miterlimit:10;}
	.st10{fill:none;stroke:#C5E1A5;stroke-linecap:round;stroke-linejoin:round;stroke-miterlimit:10;}
	.st11{fill:#26C6DA;stroke:#37474F;stroke-linecap:round;stroke-linejoin:round;stroke-miterlimit:10;}
	.st12{fill:#EF5350;stroke:#37474F;stroke-linecap:round;stroke-linejoin:round;stroke-miterlimit:10;}
	.st13{fill:#B0BEC5;stroke:#37474F;stroke-linecap:round;stroke-linejoin:round;stroke-miterlimit:10;}
	.st14{fill:none;stroke:#EF9A9A;stroke-linecap:round;stroke-linejoin:round;stroke-miterlimit:10;}
	.st15{fill:none;stroke:#FFE082;stroke-linecap:round;stroke-linejoin:round;stroke-miterlimit:10;}
	.st16{fill:#D32F2F;stroke:#37474F;stroke-linecap:round;stroke-linejoin:round;stroke-miterlimit:10;}
	.st17{fill:#0097A7;stroke:#37474F;stroke-linecap:round;stroke-linejoin:round;stroke-miterlimit:10;}
	.st18{fill:#689F38;stroke:#37474F;stroke-linecap:round;stroke-linejoin:round;stroke-miterlimit:10;}
	.st19{fill:#FFA000;stroke:#37474F;stroke-linecap:round;stroke-linejoin:round;stroke-miterlimit:10;}
	.st20{fill:#FFA000;}
	.st21{fill:#FF6F00;}
	.st22{fill:#D32F2F;}
	.st23{fill:#0097A7;}
	.st24{fill:none;stroke:#80DEEA;stroke-linecap:round;stroke-linejoin:round;stroke-miterlimit:10;}
	.st25{fill:#689F38;}
	.st26{fill:none;stroke:#B0BEC5;stroke-linecap:round;stroke-linejoin:round;stroke-miterlimit:10;}
	.st27{fill:#78909C;stroke:#37474F;stroke-miterlimit:10;}
	.st28{fill:#78909C;}
	.st29{fill:#B71C1C;}
	.st30{fill:#F57F17;}
	.st31{fill:#006064;}
	.st32{fill:#26A69A;stroke:#37474F;stroke-linecap:round;stroke-linejoin:round;stroke-miterlimit:10;}
</style>
<g>
	<path class="st18" d="M53,9.5v16c0,2.8-2.2,5-5,5h-5c-0.6,0-1,0.4-1,1v4.6c0,0.9-1.1,1.3-1.7,0.7L35.5,32c-0.9-0.9-2.2-1.5-3.5-1.5
		H23c-2.8,0-5-2.2-5-5v-16c0-2.8,2.2-5,5-5h25C50.8,4.5,53,6.7,53,9.5z"/>
	<path class="st9" d="M53,5.5v16c0,2.8-2.2,5-5,5h-5c-0.6,0-1,0.4-1,1v4.6c0,0.9-1.1,1.3-1.7,0.7L35.5,28c-0.9-0.9-2.2-1.5-3.5-1.5
		H23c-2.8,0-5-2.2-5-5v-16c0-2.8,2.2-5,5-5h25C50.8,0.5,53,2.7,53,5.5z"/>
	<path class="st10" d="M20,9.5v-4c0-1.7,1.3-3,3-3h4"/>
	<path class="st16" d="M2,35.4v13c0,2.8,2.2,5,5,5h3c0.6,0,1,0.4,1,1V59c0,0.9,1.1,1.3,1.7,0.7l4.8-4.8c0.9-0.9,2.2-1.5,3.5-1.5H29
		c2.8,0,5-2.2,5-5v-13c0-2.8-2.2-5-5-5H7C4.2,30.4,2,32.7,2,35.4z"/>
	<path class="st12" d="M2,31.4v13c0,2.8,2.2,5,5,5h3c0.6,0,1,0.4,1,1V55c0,0.9,1.1,1.3,1.7,0.7l4.8-4.8c0.9-0.9,2.2-1.5,3.5-1.5H29
		c2.8,0,5-2.2,5-5v-13c0-2.8-2.2-5-5-5H7C4.2,26.4,2,28.7,2,31.4z"/>
	<path class="st14" d="M4,35.4v-4c0-1.7,1.3-3,3-3h4"/>
	<line class="st5" x1="8" y1="33.4" x2="28" y2="33.4"/>
	<line class="st5" x1="8" y1="37.4" x2="18.1" y2="37.4"/>
	<line class="st5" x1="8" y1="41.4" x2="28.2" y2="41.4"/>
	<line class="st5" x1="24" y1="9.4" x2="47" y2="9.4"/>
	<line class="st5" x1="24" y1="13.4" x2="47" y2="13.4"/>
	<line class="st5" x1="24" y1="17.4" x2="35.5" y2="17.4"/>
	<path class="st19" d="M34,42.9v9c0,2.8,2.2,5,5,5h3c0.6,0,1,0.4,1,1v4.6c0,0.9,1.1,1.3,1.7,0.7l4.8-4.8c0.9-0.9,2.2-1.5,3.5-1.5H57
		c2.8,0,5-2.2,5-5v-9c0-2.8-2.2-5-5-5H39C36.2,37.9,34,40.2,34,42.9z"/>
	<path class="st4" d="M34,38.9v9c0,2.8,2.2,5,5,5h3c0.6,0,1,0.4,1,1v4.6c0,0.9,1.1,1.3,1.7,0.7l4.8-4.8c0.9-0.9,2.2-1.5,3.5-1.5H57
		c2.8,0,5-2.2,5-5v-9c0-2.8-2.2-5-5-5H39C36.2,33.9,34,36.2,34,38.9z"/>
	<path class="st15" d="M36,42.9v-4c0-1.7,1.3-3,3-3h4"/>
	<line class="st5" x1="40" y1="41.9" x2="56" y2="41.9"/>
	<line class="st5" x1="40" y1="45.9" x2="48" y2="45.9"/>
</g>
</svg>
