<?xml version="1.0" encoding="UTF-8"?>
<!DOCTYPE svg PUBLIC "-//W3C//DTD SVG 1.1//EN" "http://www.w3.org/Graphics/SVG/1.1/DTD/svg11.dtd">
<!-- Creator: CorelDRAW -->
<svg xmlns="http://www.w3.org/2000/svg" xml:space="preserve" width="2048px" height="2048px" style="shape-rendering:geometricPrecision; text-rendering:geometricPrecision; image-rendering:optimizeQuality; fill-rule:evenodd; clip-rule:evenodd"
viewBox="0 0 2048 2048"
 xmlns:xlink="http://www.w3.org/1999/xlink">
 <defs>
  <style type="text/css">
   <![CDATA[
    .str0 {stroke:#212121;stroke-width:1.00039;stroke-linecap:round;stroke-linejoin:round}
    .fil2 {fill:none}
    .fil4 {fill:#79ACC4}
    .fil3 {fill:#868B8C}
    .fil9 {fill:#9CCC65}
    .fil1 {fill:#C0CA33}
    .fil0 {fill:#D4E157}
    .fil12 {fill:#E53935}
    .fil10 {fill:#FF1744}
    .fil8 {fill:#FFC400}
    .fil11 {fill:#FFCC00}
    .fil7 {fill:#212121;fill-rule:nonzero}
    .fil13 {fill:#263238;fill-rule:nonzero}
    .fil6 {fill:#AAAAA9;fill-rule:nonzero}
    .fil5 {fill:#E9E9E8;fill-rule:nonzero}
   ]]>
  </style>
   <clipPath id="id0">
    <path d="M1024 0c565.538,0 1024,458.462 1024,1024 0,565.538 -458.462,1024 -1024,1024 -565.538,0 -1024,-458.462 -1024,-1024 0,-565.538 458.462,-1024 1024,-1024z"/>
   </clipPath>
 </defs>
 <g id="Layer_x0020_1">
  <metadata id="CorelCorpID_0Corel-Layer"/>
  <path class="fil0" d="M1024 0c565.538,0 1024,458.462 1024,1024 0,565.538 -458.462,1024 -1024,1024 -565.538,0 -1024,-458.462 -1024,-1024 0,-565.538 458.462,-1024 1024,-1024z"/>
  <g style="clip-path:url(#id0)">
   <g id="_385680928">
    <g>
     <polygon id="_2856339361" class="fil1" points="1384.46,647.521 2520.35,1783.4 2521.69,1785.2 2522.86,1787.12 2523.84,1789.16 2524.62,1791.31 2525.2,1793.54 2525.55,1795.86 2525.67,1798.25 1389.79,662.364 1389.67,659.978 1389.32,657.661 1388.74,655.425 1387.96,653.281 1386.98,651.241 1385.81,649.317 "/>
     <polygon id="_285633984" class="fil1" points="1389.79,662.364 2525.67,1798.25 2525.67,2190.12 1389.79,1054.24 "/>
     <polygon id="_285634560" class="fil1" points="1389.79,1054.24 2525.67,2190.12 2525.55,2192.51 2525.2,2194.83 2524.62,2197.06 2523.84,2199.21 2522.86,2201.24 2521.69,2203.17 2520.35,2204.97 2518.84,2206.62 2517.18,2208.13 2515.39,2209.47 2513.46,2210.64 2511.42,2211.62 2509.28,2212.41 2507.04,2212.98 2504.73,2213.34 2502.34,2213.46 1366.46,1077.57 1368.84,1077.45 1371.16,1077.1 1373.4,1076.53 1375.54,1075.74 1377.58,1074.76 1379.5,1073.59 1381.3,1072.25 1382.96,1070.74 1384.46,1069.08 1385.81,1067.29 1386.98,1065.36 1387.96,1063.32 1388.74,1061.18 1389.32,1058.94 1389.67,1056.63 "/>
     <polygon id="_285634752" class="fil1" points="1366.46,1077.57 2502.34,2213.46 2457.59,2213.46 1321.71,1077.57 "/>
     <polygon id="_285634920" class="fil1" points="1321.71,1077.57 2457.59,2213.46 2457.59,2217.83 1321.71,1081.95 "/>
     <polygon id="_285634608" class="fil1" points="1392.5,1089.36 2528.38,2225.24 2529.32,2226.32 2530.2,2227.46 1394.32,1091.58 1393.44,1090.43 "/>
     <polygon id="_285634992" class="fil1" points="1394.32,1091.58 2530.2,2227.46 2530.19,2227.49 1394.31,1091.61 "/>
     <polygon id="_285634800" class="fil1" points="1394.31,1091.61 2530.19,2227.49 2705,2493.49 1569.11,1357.61 "/>
     <polygon id="_285634848" class="fil1" points="1569.11,1357.61 2705,2493.49 2705.65,2494.39 2706.47,2495.5 2707.41,2496.79 2708.45,2498.25 2709.57,2499.84 2710.74,2501.55 2711.94,2503.35 2713.14,2505.23 2714.32,2507.16 2715.45,2509.12 2716.5,2511.08 2717.46,2513.03 2718.29,2514.93 2718.97,2516.78 2719.48,2518.54 2719.79,2520.2 1583.91,1384.32 1583.6,1382.66 1583.09,1380.9 1582.41,1379.05 1581.58,1377.14 1580.62,1375.2 1579.57,1373.23 1578.44,1371.28 1577.26,1369.35 1576.06,1367.47 1574.86,1365.67 1573.69,1363.96 1572.57,1362.36 1571.53,1360.91 1570.59,1359.62 1569.77,1358.51 "/>
     <polygon id="_285634392" class="fil1" points="1583.91,1384.32 2719.79,2520.2 2719.81,2520.37 2719.83,2520.54 2719.85,2520.71 2719.86,2520.87 2719.87,2521.04 2719.88,2521.2 2719.88,2521.36 2719.88,2521.52 1584,1385.64 1584,1385.48 1583.99,1385.32 1583.99,1385.16 1583.98,1384.99 1583.96,1384.83 1583.95,1384.66 1583.93,1384.49 "/>
     <polygon id="_285635544" class="fil1" points="1584,1385.64 2719.88,2521.52 2719.76,2523.91 2719.41,2526.22 2718.83,2528.46 2718.05,2530.6 2717.07,2532.64 2715.9,2534.56 2714.55,2536.36 2713.05,2538.02 2711.39,2539.52 2709.59,2540.87 2707.67,2542.04 2705.63,2543.02 2703.49,2543.8 2701.25,2544.38 2698.93,2544.73 2696.55,2544.85 1560.67,1408.97 1563.05,1408.85 1565.37,1408.5 1567.61,1407.92 1569.75,1407.14 1571.79,1406.15 1573.71,1404.99 1575.51,1403.64 1577.17,1402.14 1578.67,1400.48 1580.01,1398.68 1581.18,1396.76 1582.17,1394.72 1582.95,1392.58 1583.53,1390.34 1583.88,1388.02 "/>
     <polygon id="_285635376" class="fil1" points="727.208,1077.57 1863.09,2213.46 1818.34,2213.46 682.454,1077.57 "/>
     <polygon id="_285635592" class="fil1" points="487.335,1408.97 1623.22,2544.85 1622.32,2544.84 1621.43,2544.79 1620.54,2544.7 1619.65,2544.58 1618.76,2544.43 1617.88,2544.24 1617,2544.02 1616.13,2543.76 1615.27,2543.46 1614.41,2543.14 1613.57,2542.77 1612.73,2542.37 1611.91,2541.93 1611.1,2541.46 1610.3,2540.95 1609.51,2540.4 473.631,1404.52 474.415,1405.07 475.215,1405.58 476.027,1406.05 476.852,1406.49 477.688,1406.89 478.533,1407.25 479.39,1407.58 480.253,1407.88 481.124,1408.13 482.001,1408.36 482.883,1408.55 483.769,1408.7 484.659,1408.82 485.55,1408.9 486.442,1408.95 "/>
     <polygon id="_285635640" class="fil1" points="473.631,1404.52 1609.51,2540.4 1608.3,2539.46 472.42,1403.58 "/>
     <polygon id="_285635448" class="fil1" points="682.454,1077.57 1818.34,2213.46 1815.95,2213.34 1813.63,2212.98 1811.4,2212.41 1809.25,2211.62 1807.21,2210.64 1805.29,2209.47 1803.49,2208.13 1801.84,2206.62 665.954,1070.74 667.612,1072.25 669.408,1073.59 671.332,1074.76 673.372,1075.74 675.515,1076.53 677.751,1077.1 680.069,1077.45 "/>
     <polygon id="_285635664" class="fil1" points="1560.67,1408.97 2696.55,2544.85 1623.22,2544.85 487.335,1408.97 "/>
    </g>
    <path id="_385681168" class="fil1" d="M682.454 639.03l684.004 0c12.887,0 23.3339,10.4469 23.3339,23.3339l0 391.877c0,12.8858 -10.4469,23.3339 -23.3339,23.3339l-44.7532 0 0 4.37363 53.4886 0 0.244488 0c7.213,0.00590552 14.3244,3.3437 18.8847,9.62835l-0.0177165 0.0330709 174.809 265.999c3.0626,4.2189 13.7244,18.1854 14.7969,26.7118 0.0578741,0.454725 0.0885827,0.895276 0.0885827,1.31693 0,12.8858 -10.4469,23.3339 -23.3339,23.3339l-1073.33 -0.0011811c-4.75748,0.00472441 -9.55985,-1.43976 -13.7043,-4.44803 -6.66733,-4.8378 -10.0193,-12.5457 -9.5941,-20.2016 0.239764,-4.32048 1.68307,-8.62442 4.41378,-12.3874l0.0259843 0.0188977 185.391 -279.323c4.1563,-6.42756 11.3847,-10.6807 19.6075,-10.6807l53.7331 0 0 -4.37363 -44.7532 0c-12.887,0 -23.3351,-10.448 -23.3351,-23.3339l0 -391.877c0,-12.887 10.448,-23.3339 23.3351,-23.3339z"/>
   </g>
  </g>
  <path class="fil2" d="M1024 0c565.538,0 1024,458.462 1024,1024 0,565.538 -458.462,1024 -1024,1024 -565.538,0 -1024,-458.462 -1024,-1024 0,-565.538 458.462,-1024 1024,-1024z"/>
  <rect class="fil3" x="727.207" y="1075.56" width="145.15" height="9.11514"/>
  <rect class="fil3" x="1176.56" y="1075.56" width="145.15" height="9.11514"/>
  <rect class="fil4 str0" x="690.429" y="674.237" width="668.054" height="368.131"/>
  <path class="fil5" d="M1394.31 1091.61l174.809 265.999c3.22559,4.44449 14.8854,19.7055 14.8854,28.0288 0,12.8858 -10.4469,23.3339 -23.3339,23.3339l-1073.33 0 0 -0.0011811c-4.75748,0.00472441 -9.55985,-1.43976 -13.7043,-4.44803 -10.4291,-7.56851 -12.7488,-22.1599 -5.18032,-32.589l0.0259843 0.0188977 185.391 -279.323c4.1563,-6.42756 11.3847,-10.6807 19.6075,-10.6807l701.719 0 0.244488 0 0 0c7.213,0.00590552 14.3244,3.3437 18.8847,9.62835l-0.0177165 0.0330709z"/>
  <path class="fil6" d="M1583.91 1384.32c0.0578741,0.454725 0.0885827,0.895276 0.0885827,1.31693 0,12.8858 -10.4469,23.3339 -23.3339,23.3339l-1073.33 0 0 -0.0011811c-4.75748,0.00472441 -9.55985,-1.43976 -13.7043,-4.44803 -6.66733,-4.8378 -10.0193,-12.5457 -9.5941,-20.2016l1119.87 0z"/>
  <path class="fil5" d="M682.454 639.03l684.004 0c12.887,0 23.3339,10.4469 23.3339,23.3339l0 391.877c0,12.8858 -10.4469,23.3339 -23.3339,23.3339l-684.004 0c-12.887,0 -23.3351,-10.448 -23.3351,-23.3339l0 -391.877c0,-12.887 10.448,-23.3339 23.3351,-23.3339zm660.67 46.6678l-637.336 0 0 345.209 637.336 0 0 -345.209z"/>
  <path class="fil6" d="M698.61 678.745l651.693 0 0 359.114 -651.693 0 0 -359.114zm644.515 6.95315l-637.336 0 0 345.209 637.336 0 0 -345.209z"/>
  <polygon class="fil6" points="1189.12,1376.13 1143.05,1285 904.947,1285 858.882,1376.13 "/>
  <path class="fil7" d="M1361.42 1123.45c0,0 0,0 0,0 0.330709,0.464174 0.0826772,0.842127 -1.1563,0.842127 -9.82324,0 -19.6488,0 -29.5547,0 -1.23898,0 -2.97284,-0.377953 -3.13819,-0.8563 -1.98189,-3.78898 -3.79725,-7.54961 -5.61378,-11.3232 -0.246851,-0.479528 1.07362,-0.885827 2.22992,-0.885827 9.65788,0 19.3181,0 28.8945,0.0283465 1.15512,0 1.89921,0.407481 2.31142,0.871654 1.89921,3.75945 3.88111,7.54843 6.02717,11.3232z"/>
  <path class="fil7" d="M1375.78 1149.17c0,0 0,0 0,0 0.413386,0.712205 -1.07244,1.20473 -4.21063,1.20473 -23.9421,0 -47.8831,-0.0141732 -71.7426,-0.0141732 -3.05551,0 -6.3567,-0.507874 -6.60473,-1.23307 -2.55827,-5.64804 -4.95355,-11.3102 -7.34764,-16.9725 -0.0826772,-0.696851 2.47677,-1.40788 5.44843,-1.37835 23.1166,0.0141732 46.3985,0.0141732 69.5138,0.0295276 2.89016,0 5.12008,0.681497 5.44961,1.40788 3.05433,5.64685 6.2752,11.2949 9.49371,16.9559z"/>
  <path class="fil7" d="M1389.57 1173.8c0,0 0,0 0,0 0,0.0437008 0,0.0590552 0,0.0874016 0.165354,0.0283465 0.165354,0.0578741 0.165354,0.0862205 5.03741,8.87127 10.0724,17.7414 15.1087,26.5831 0.577559,1.13268 0.577559,2.04685 -0.825591,2.04685 -11.1449,-0.0141732 -22.2083,0 -33.1878,0 -1.48701,-0.0141732 -3.79843,-0.929528 -4.21063,-2.04685 -4.45866,-8.47796 -8.75198,-16.9276 -13.1268,-25.3914 -7.59568,0 -15.1914,0 -22.7858,0 -1.23898,0 -3.38622,-0.682678 -3.63307,-1.37953 -2.55945,-5.42953 -5.03622,-10.8591 -7.59568,-16.2898 -0.248032,-0.667323 1.1563,-1.24725 2.3941,-1.24725 8.33859,0 16.7587,0 25.1799,0 1.81654,0 3.79843,0 5.863,0 8.33741,0 16.7587,0.0141732 25.0973,0.0141732 1.23898,0 1.98071,0.595276 2.3941,1.27677 3.13701,5.41536 6.10867,10.8307 9.163,16.2602z"/>
  <path class="fil7" d="M1420.44 1227.66c0,0 0,0 0,0 0.494882,0.725197 -2.3941,1.0441 -7.01693,1.01575 -35.6658,0 -71.4957,0 -107.243,0 -4.45866,0 -9.00001,-0.304725 -9.33072,-1.0311 -2.3941,-5.64804 -4.54016,-11.2949 -6.7689,-16.9713 -0.330709,-0.725197 3.5504,-1.58268 8.00788,-1.58268 34.7575,0 69.5138,0 104.271,0 4.37599,0.0295276 7.84371,0.900001 8.25591,1.62638 3.21969,5.64804 6.43938,11.2949 9.82442,16.9429z"/>
  <path class="fil7" d="M1436.54 1255.37c0,0 0,0 0,0 0.248032,0.4063 -0.165354,0.696851 -1.73268,0.696851 -11.9717,0 -24.0248,0 -35.9138,0 -1.65,0 -3.63189,-0.304725 -3.79725,-0.711024 -1.81654,-3.1937 -3.38504,-6.43111 -5.1189,-9.65434 -0.330709,-0.4063 1.48583,-0.696851 3.05551,-0.696851 11.8051,0 23.5288,0 35.4166,0 1.48583,0 2.06457,0.290551 2.3941,0.696851 1.98189,3.22323 3.79843,6.46063 5.69646,9.66851z"/>
  <path class="fil7" d="M1375.37 1243.66c0,0 0,0 0,0 0.165354,0.435827 -0.246851,0.682678 -1.65118,0.682678 -11.8878,0 -23.6114,0 -35.4177,0 -1.56851,0 -3.46654,-0.262205 -3.71457,-0.696851 -1.40315,-3.1937 -2.80748,-6.38859 -4.29331,-9.64016 -0.165354,-0.392126 1.56851,-0.740552 3.05433,-0.740552 11.5583,0 23.1992,0 34.9229,0 1.32047,0 1.98071,0.348425 2.22874,0.754725 1.65118,3.2374 3.21969,6.43229 4.87087,9.64016z"/>
  <path class="fil7" d="M1381.31 1255.36c0,0 0,0 0,0 0.165354,0.4063 -0.165354,0.711024 -1.73386,0.711024 -11.9717,0 -24.0248,0 -35.9126,0 -1.65118,0 -3.63307,-0.304725 -3.71575,-0.696851 -1.56851,-3.20788 -2.88898,-6.44528 -4.37481,-9.66851 -0.248032,-0.420473 1.40315,-0.711024 3.05315,-0.696851 11.8075,0 23.5299,-0.0141732 35.4177,0 1.48701,-0.0141732 2.06457,0.276378 2.47677,0.696851 1.56969,3.22323 3.13819,6.46063 4.78937,9.65434z"/>
  <path class="fil7" d="M1324.59 1255.36c0,0 0,0 0,0 0.165354,0.4063 -0.248032,0.711024 -1.73386,0.711024 -12.0532,0 -24.0248,0 -35.9953,0 -1.48701,0 -3.63307,-0.304725 -3.71575,-0.711024 -1.2378,-3.1937 -2.3941,-6.43111 -3.54922,-9.65434 -0.248032,-0.420473 1.65,-0.696851 3.13701,-0.711024 11.8051,0.0141732 23.6114,0.0141732 35.4177,0 1.48583,0.0141732 2.06339,0.290551 2.22874,0.696851 1.40433,3.2374 2.8063,6.47481 4.21063,9.66851z"/>
  <path class="fil7" d="M1267.71 1254.79c0,0 0,0 0,0 0.330709,0.726379 -0.742914,1.27677 -2.31142,1.27677 -11.9705,0 -23.9421,0 -36.078,0 -1.48583,0 -2.88898,-0.579922 -3.05433,-1.27677 -1.73386,-5.64685 -3.21969,-11.3244 -4.95473,-17.0008 -0.246851,-0.696851 0.90945,-1.27677 2.39528,-1.27677 11.641,0 23.4461,0 35.087,0 1.40315,0 2.72481,0.579922 3.05551,1.3063 1.98071,5.66103 3.87874,11.3244 5.86063,16.9713z"/>
  <path class="fil7" d="M1212.48 1254.79c0,0 0,0 0,0 0.248032,0.726379 -0.907087,1.27677 -2.47677,1.27677 -11.9705,0 -23.941,0 -36.0768,0 -1.40433,0 -2.80748,-0.579922 -2.97284,-1.29213 -1.1563,-5.66103 -2.3941,-11.3091 -3.5504,-16.9854 -0.164173,-0.696851 0.990946,-1.3063 2.55945,-1.27677 11.5583,0 23.1992,0 34.9229,0 1.48583,0 2.8063,0.579922 2.88898,1.27677 1.65118,5.67638 3.13819,11.3539 4.70552,17.0008z"/>
  <path class="fil7" d="M1155.68 1254.79c0,0 0,0 0,0 0.248032,0.726379 -10.2378,1.27677 -24.1075,1.27677 -54.6532,0 -109.308,-0.0129921 -163.878,-0.0129921 -54.5717,0 -109.142,0 -163.713,0 -13.8697,0 -25.7587,-0.56693 -25.5118,-1.27913 2.06457,-5.66103 3.88111,-11.3232 5.86182,-16.9854 0.248032,-0.711024 12.137,-1.32047 25.676,-1.32047 53.0032,0 106.088,0.00708662 159.255,0.0141732 53.002,0.00708662 106.171,0 159.255,0 13.5402,0.0295276 23.8595,0.624804 24.0236,1.33583 0.992127,5.66103 2.14725,11.3244 3.13819,16.9713z"/>
  <path class="fil7" d="M764.848 1254.75c0,0 0,0 0,0 -0.412205,0.725197 -1.81654,1.30748 -3.38386,1.30748 -11.9717,0 -24.0248,0 -35.9965,0 -1.56851,0 -2.55945,-0.582284 -2.14606,-1.30748 2.31142,-5.64685 4.70552,-11.3232 7.01812,-16.9866 0.329528,-0.725197 1.81536,-1.3063 3.30118,-1.3063 11.7236,0 23.3646,0 35.0055,0.0153543 1.48583,0 2.47559,0.579922 2.22874,1.3063 -2.06457,5.64804 -4.04528,11.3244 -6.02717,16.9713z"/>
  <path class="fil7" d="M708.132 1254.75c0,0 0,0 0,0 -0.496063,0.725197 -1.89921,1.30748 -3.38622,1.30748 -12.0532,0 -24.0248,0 -35.9126,0 -1.56851,0 -2.55827,-0.582284 -2.14606,-1.30748 2.8063,-5.64685 5.61378,-11.3232 8.42127,-16.9866 0.412205,-0.725197 1.81654,-1.3063 3.38386,-1.3063 11.641,0 23.2819,0 35.0055,0 1.40315,0 2.31142,0.581103 2.06339,1.3063 -2.55945,5.66339 -5.03504,11.3398 -7.42914,16.9866z"/>
  <path class="fil7" d="M653.065 1254.75c0,0 0,0 0,0 -0.413386,0.725197 -1.89921,1.30748 -3.38622,1.30748 -12.0532,0 -24.1063,0 -35.9953,0 -1.65118,0 -2.3941,-0.582284 -1.98071,-1.30748 3.21969,-5.64685 6.43938,-11.3232 9.74174,-16.9866 0.496063,-0.725197 1.89803,-1.3063 3.46772,-1.3063 11.6398,0 23.2819,0 35.0044,0 1.40433,0 2.31142,0.581103 1.98189,1.3063 -2.97284,5.66339 -5.94449,11.3398 -8.83347,16.9866z"/>
  <path class="fil7" d="M636.965 1210.29c0,0 0,0 0,0 0.248032,-0.711024 3.30236,-1.32047 5.61378,-1.32047 18.7417,0 37.317,0 56.0575,0 2.3941,0 3.30236,0.609449 3.13701,1.32047 -2.88898,5.67756 -5.44961,11.3539 -8.17323,17.015 -0.412205,0.726379 -1.89921,1.29213 -4.37599,1.29213 -19.3181,0 -38.5536,0 -57.7075,0 -2.47677,0 -4.7067,-0.565748 -4.37599,-1.29213 3.30236,-5.66103 6.52205,-11.3374 9.82442,-17.015z"/>
  <path class="fil7" d="M651.578 1184.35c0,0 0,0 0,0 0.330709,-0.725197 3.9626,-1.5248 7.09961,-1.5248 25.1811,0 50.3611,0.0153543 75.541,0.0153543 3.22087,0 4.7067,0.798426 4.45866,1.52362 -2.3941,5.66339 -4.78819,11.3398 -7.26497,16.9866 -0.248032,0.740552 -2.47677,1.11732 -5.61378,1.11732 -25.924,0 -51.9296,-0.0283465 -77.8524,-0.0283465 -3.21969,0 -6.3567,-0.36378 -6.10985,-1.10433 3.30236,-5.64685 6.60473,-11.3232 9.74174,-16.9854z"/>
  <path class="fil7" d="M666.192 1158.12c0,0 0,0 0,0 0.329528,-0.726379 3.05433,-1.45158 5.11772,-1.45158 16.5945,0 33.1063,0.0283465 49.7008,0.0283465 2.22874,0 2.97166,0.726379 2.55945,1.4374 -2.64213,5.67638 -5.20158,11.3386 -8.00906,17.015 -0.246851,0.726379 -1.56851,1.14803 -3.79725,1.14803 -17.0067,-0.0153543 -34.1788,-0.0153543 -51.104,-0.0153543 -2.31142,0 -4.29331,-0.435827 -4.04528,-1.14685 3.21969,-5.67638 6.3567,-11.3528 9.57757,-17.015z"/>
  <path class="fil7" d="M706.645 1148.84c0,0 0,0 0,0 -0.329528,0.726379 -1.73386,1.30748 -2.97166,1.30748 -10.3205,-0.0295276 -20.5571,-0.0295276 -30.7949,-0.0295276 -1.32047,0 -1.89803,-0.579922 -1.65118,-1.29095 3.30236,-5.66339 6.35788,-11.3244 9.49371,-17.0008 0.330709,-0.726379 1.65236,-1.32165 2.97284,-1.32165 9.90709,0 19.8142,0.0153543 29.804,0.0153543 1.23898,0 1.98071,0.609449 1.65118,1.32047 -2.89016,5.67638 -5.53229,11.3528 -8.50394,16.9996z"/>
  <path class="fil7" d="M691.619 1111.78c0,0 0,0 0,0 0.248032,-0.465355 1.89921,-0.885827 3.22087,-0.885827 9.57639,0 19.1528,0.0283465 28.813,0.0283465 1.31929,0 1.56732,0.407481 1.2378,0.871654 -1.81654,3.78898 -3.63189,7.56379 -5.44843,11.3386 -0.248032,0.493701 -0.90945,0.8563 -2.14725,0.8563 -9.90709,0 -19.6488,-0.0141732 -29.4733,-0.0141732 -1.32047,0 -2.64213,-0.36378 -2.3941,-0.857481 2.14606,-3.77481 4.12796,-7.5626 6.19134,-11.3374z"/>
  <path class="fil7" d="M753.868 1148.86c0,0 0,0 0,0 -0.329528,0.725197 -1.65,1.29213 -2.97166,1.29213 -10.2378,0 -20.5559,0 -30.6296,0 -1.40315,0 -2.06339,-0.581103 -1.73386,-1.30748 2.72599,-5.64685 5.44961,-11.3232 8.09174,-16.9996 0.329528,-0.711024 1.65118,-1.32047 2.88898,-1.32047 9.82442,0 19.8969,0.0129921 29.7213,0.0129921 1.32047,0 2.06457,0.61063 1.73386,1.33583 -2.31142,5.66339 -4.62402,11.3398 -7.10079,16.9866z"/>
  <path class="fil7" d="M736.035 1111.79c0,0 0,0 0,0 0.330709,-0.464174 1.98189,-0.871654 3.22087,-0.871654 9.57639,0.0153543 19.1528,0.0153543 28.8118,0.0153543 1.2378,0 1.48583,0.4063 1.32047,0.884646 -1.65,3.77481 -3.05433,7.54961 -4.70552,11.3398 -0.246851,0.478347 -0.82441,0.855119 -2.06339,0.855119 -9.74174,0 -19.6488,-0.0283465 -29.3906,-0.0283465 -1.32165,0 -2.64213,-0.362599 -2.47677,-0.8563 1.73386,-3.77481 3.46654,-7.54961 5.28307,-11.3386z"/>
  <path class="fil7" d="M802.247 1148.88c0,0 0,0 0,0 -0.246851,0.712205 -1.48583,1.27795 -2.88898,1.27795 -10.1551,0 -20.3917,0 -30.7937,0 -1.1563,0 -1.98189,-0.581103 -1.73386,-1.3063 2.31142,-5.64685 4.45748,-11.3232 6.7689,-16.9866 0.330709,-0.725197 1.65118,-1.33583 2.80748,-1.33583 10.0724,0 19.8969,0.0295276 29.8866,0.0295276 1.32047,0 2.14606,0.595276 1.89803,1.32165 -2.06339,5.67638 -3.9626,11.3386 -5.94449,16.9996z"/>
  <path class="fil7" d="M781.608 1111.82c0,0 0,0 0,0 0.165354,-0.478347 1.89921,-0.870473 3.13701,-0.870473 9.57757,0 19.2366,0.0295276 28.813,0 1.32047,0 1.65118,0.421654 1.40315,0.885827 -1.23898,3.77481 -2.55945,7.56379 -3.79725,11.3386 -0.248032,0.493701 -0.660237,0.8563 -1.98189,0.8563 -9.82442,0 -19.6488,-0.0153543 -29.5559,-0.0153543 -1.23898,0 -2.72362,-0.376772 -2.47677,-0.840946 1.48583,-3.80433 2.88898,-7.57914 4.45866,-11.3539z"/>
  <path class="fil7" d="M849.471 1148.88c0,0 0,0 0,0 -0.165354,0.712205 -1.40315,1.30748 -2.72481,1.30748 -10.3193,0 -20.4744,0 -30.7937,0 -1.2378,0 -2.06457,-0.595276 -1.89921,-1.30748 1.89921,-5.66103 3.71457,-11.3232 5.53111,-16.9996 0.248032,-0.726379 1.48701,-1.32165 2.72481,-1.32165 9.90709,0.0153543 19.8969,0.0153543 29.8866,0.0153543 1.2378,0 2.06457,0.609449 1.89921,1.32047 -1.56969,5.67638 -3.05551,11.3528 -4.62402,16.9854z"/>
  <path class="fil7" d="M826.025 1111.85c0,0 0,0 0,0 0.246851,-0.464174 1.89921,-0.870473 3.13583,-0.870473 9.57757,0 19.2366,0 28.813,0.0141732 1.23898,0 1.65236,0.407481 1.48701,0.885827 -1.07362,3.76063 -1.98189,7.53426 -3.05433,11.3091 -0.0826772,0.493701 -0.661418,0.871654 -1.81654,0.871654 -9.90709,0 -19.7315,0 -29.6386,-0.0295276 -1.1563,0 -2.72481,-0.362599 -2.55945,-0.8563 1.23898,-3.77481 2.3941,-7.56379 3.63307,-11.3244z"/>
  <path class="fil7" d="M897.933 1148.9c0,0 0,0 0,0 -0.248032,0.726379 -1.40315,1.3063 -2.72481,1.3063 -10.3193,0 -20.6386,0 -30.7122,0 -1.40197,-0.0141732 -2.31142,-0.579922 -2.06339,-1.3063 1.48583,-5.64804 2.80748,-11.3244 4.21063,-17.0008 0.246851,-0.711024 1.48583,-1.32047 2.64213,-1.32047 9.90709,0.0283465 19.8957,0.0283465 29.804,0.0283465 1.32047,0 2.31142,0.595276 2.14606,1.32165 -1.23898,5.66103 -2.22874,11.3374 -3.30236,16.9713z"/>
  <path class="fil7" d="M871.679 1111.88c0,0 0,0 0,0 0.165354,-0.478347 1.81536,-0.885827 2.97166,-0.885827 9.57639,0 19.154,0 28.8957,0.0283465 1.2378,0 1.65118,0.407481 1.48583,0.871654 -0.742914,3.77481 -1.48583,7.53544 -2.14606,11.3232 -0.165354,0.480709 -0.578741,0.857481 -1.81654,0.857481 -9.98977,0 -19.8142,0 -29.5559,-0.0141732 -1.2378,0 -2.80748,-0.377953 -2.55945,-0.843308 0.908268,-3.7878 1.73386,-7.5626 2.72481,-11.3374z"/>
  <path class="fil7" d="M944.991 1148.91c0,0 0,0 0,0 0,0.726379 -1.1563,1.3063 -2.47677,1.3063 -10.2378,0 -20.4756,0 -30.7949,-0.0141732 -1.2378,0 -2.22874,-0.565748 -2.14606,-1.29213 1.15512,-5.64804 2.06339,-11.3244 3.05433,-16.9854 0.165354,-0.726379 1.32165,-1.32165 2.55945,-1.32165 9.82442,0 19.8969,0.0153543 29.804,0.0153543 1.32047,0 2.22874,0.595276 2.14606,1.32047 -0.742914,5.67638 -1.32047,11.3386 -2.14606,16.9713z"/>
  <path class="fil7" d="M916.096 1111.89c0,0 0,0 0,0 0.0826772,-0.464174 1.65,-0.871654 2.97166,-0.871654 9.65906,0 19.2366,0.0153543 28.8957,0.0153543 1.2378,0 1.73386,0.4063 1.56851,0.871654 -0.496063,3.7878 -0.990946,7.5626 -1.40315,11.3374 -0.0826772,0.479528 -0.494882,0.842127 -1.73386,0.842127 -9.90709,0 -19.65,0 -29.5559,-0.0141732 -1.23898,0 -2.8063,-0.376772 -2.64213,-0.842127 0.660237,-3.77481 1.2378,-7.56379 1.89921,-11.3386z"/>
  <path class="fil7" d="M993.452 1148.94c0,0 0,0 0,0 0,0.712205 -1.2378,1.30748 -2.47677,1.30748 -10.3193,0 -20.5571,-0.0295276 -30.7937,-0.0295276 -1.2378,0 -2.22874,-0.565748 -2.06339,-1.27795 0.494882,-5.66103 1.07244,-11.3232 1.65,-16.9996 0.0826772,-0.725197 1.1563,-1.32047 2.3941,-1.30748 9.90828,0 19.8142,0 29.8051,0 1.23662,0 2.22874,0.61063 2.22874,1.35118 -0.330709,5.64804 -0.496063,11.3244 -0.744095,16.9559z"/>
  <path class="fil7" d="M961.75 1111.91c0,0 0,0 0,0 0.0826772,-0.465355 1.65118,-0.857481 2.80748,-0.871654 9.57639,0.0141732 19.2354,0.0141732 28.8945,0.0141732 1.1563,0 1.65118,0.4063 1.65118,0.885827 -0.246851,3.77481 -0.412205,7.54961 -0.577559,11.3386 0,0.464174 -0.412205,0.8563 -1.81654,0.842127 -9.74056,0 -19.6488,0 -29.3079,0 -1.32165,0 -2.8063,-0.392126 -2.72362,-0.871654 0.246851,-3.77481 0.660237,-7.54961 1.07244,-11.3374z"/>
  <path class="fil7" d="M1040.51 1148.96c0,0 0,0 0,0 0.0826772,0.725197 -0.908268,1.3063 -2.31142,1.3063 -10.1551,0 -20.5571,-0.0141732 -30.6296,-0.0141732 -1.40315,0 -2.3941,-0.56693 -2.3941,-1.29213 0.165354,-5.64685 0.330709,-11.3232 0.496063,-16.9713 0,-0.726379 1.07244,-1.32165 2.3941,-1.32165 9.82442,0 19.7315,0 29.8028,0 1.1563,0 2.14725,0.595276 2.14725,1.32165 0.248032,5.66221 0.494882,11.3386 0.494882,16.9713z"/>
  <path class="fil7" d="M1006.17 1111.95c0,0 0,0 0,0 0,-0.493701 1.56851,-0.870473 2.89016,-0.870473 9.41103,0 19.1528,0.0141732 28.7292,0.0141732 1.23898,0 1.73386,0.407481 1.73386,0.8563 0.0826772,3.77481 0.165354,7.56497 0.413386,11.3386 -0.0826772,0.493701 -0.578741,0.8563 -1.73386,0.8563 -9.90709,0 -19.6488,-0.0141732 -29.5559,-0.0141732 -1.15512,0 -2.80748,-0.377953 -2.72481,-0.8563 0,-3.78898 0.0826772,-7.56379 0.248032,-11.3244z"/>
  <path class="fil7" d="M1088.97 1148.97c0,0 0,0 0,0 0.165354,0.726379 -0.908268,1.3063 -2.22874,1.3063 -10.1551,0 -20.4756,0 -30.6296,-0.0141732 -1.40315,0 -2.47677,-0.581103 -2.55827,-1.3063 -0.248032,-5.63268 -0.578741,-11.3091 -0.826772,-16.9713 0,-0.726379 0.990946,-1.32165 2.22874,-1.32165 9.99095,0.0153543 19.8969,0.0153543 29.8866,0.0153543 1.2378,0 2.3126,0.609449 2.3941,1.32047 0.577559,5.67638 1.15512,11.3244 1.73386,16.9713z"/>
  <path class="fil7" d="M1051.74 1111.95c0,0 0,0 0,0 0,-0.448819 1.48583,-0.8563 2.8063,-0.8563 9.57639,0 19.2366,0 28.8957,0.0141732 1.1563,-0.0141732 1.65118,0.4063 1.73386,0.885827 0.329528,3.76063 0.660237,7.53544 1.15512,11.3232 0,0.480709 -0.494882,0.827953 -1.65,0.827953 -9.8256,0 -19.65,0 -29.3918,0 -1.32047,0 -3.05433,-0.362599 -2.97166,-0.8563 -0.248032,-3.77362 -0.413386,-7.56379 -0.577559,-11.3386z"/>
  <path class="fil7" d="M1136.11 1149c0,0 0,0 0,0 0.246851,0.711024 -0.742914,1.3063 -1.98189,1.3063 -10.3205,-0.0295276 -20.5571,-0.0295276 -30.7949,-0.0295276 -1.40315,0 -2.3941,-0.579922 -2.55827,-1.3063 -0.660237,-5.63268 -1.32165,-11.2949 -2.06457,-16.9417 -0.0826772,-0.726379 0.825591,-1.33583 2.06457,-1.33583 9.98859,0 19.8969,0 29.8028,0.0295276 1.32165,0 2.3941,0.579922 2.47677,1.3063 1.07362,5.66221 2.06457,11.3374 3.05551,16.9713z"/>
  <path class="fil7" d="M1096.24 1111.99c0,0 0,0 0,0 -0.0826772,-0.479528 1.40433,-0.885827 2.64213,-0.885827 9.57639,0 19.154,0 28.8957,0.0295276 1.23898,0 1.73386,0.4063 1.81654,0.871654 0.577559,3.77362 1.32047,7.53426 1.98071,11.3232 0.0826772,0.478347 -0.246851,0.8563 -1.56851,0.8563 -9.82442,-0.0141732 -19.6488,-0.0141732 -29.3906,-0.0141732 -1.32165,0 -2.88898,-0.376772 -2.97166,-0.857481 -0.578741,-3.77362 -0.990946,-7.54843 -1.40433,-11.3232z"/>
  <path class="fil7" d="M1184.58 1149.02c0,0 0,0 0,0 0.246851,0.726379 -0.661418,1.3063 -1.98189,1.3063 -10.2378,0 -20.5571,-0.0141732 -30.7937,-0.0141732 -1.32165,0 -2.47677,-0.595276 -2.64213,-1.3063 -1.07362,-5.63386 -2.22874,-11.3091 -3.46772,-16.9713 -0.0826772,-0.711024 0.825591,-1.3063 2.06339,-1.3063 9.99095,0 19.8969,0 29.8866,0 1.2378,0 2.3941,0.609449 2.55945,1.32047 1.40315,5.66221 3.05433,11.3232 4.37599,16.9713z"/>
  <path class="fil7" d="M1141.81 1112.01c0,0 0,0 0,0 -0.0826772,-0.465355 1.40315,-0.871654 2.55945,-0.871654 9.57639,0 19.3181,0.0141732 28.8957,0.0141732 1.2378,0 1.73268,0.4063 1.98071,0.870473 0.908268,3.76063 1.73268,7.54961 2.72481,11.3244 0.165354,0.493701 -0.165354,0.857481 -1.40433,0.857481 -9.74174,0 -19.7315,-0.0153543 -29.4733,-0.0153543 -1.32047,0 -2.97166,-0.377953 -2.97166,-0.8563 -0.825591,-3.78898 -1.65118,-7.54961 -2.31142,-11.3232z"/>
  <path class="fil7" d="M1231.8 1149.03c0,0 0,0 0,0 0.329528,0.725197 -0.577559,1.29095 -1.89921,1.29095 -10.3193,0 -20.4744,0 -30.8764,0 -1.15512,0 -2.47677,-0.579922 -2.72481,-1.3063 -1.48583,-5.64804 -3.05433,-11.3091 -4.62284,-16.9571 -0.248032,-0.725197 0.660237,-1.33465 1.89921,-1.33465 9.98859,0.0141732 19.8969,0.0141732 29.9681,0.0283465 1.1563,-0.0141732 2.3941,0.609449 2.64213,1.33583 1.89803,5.64804 3.79725,11.2949 5.61378,16.9429z"/>
  <path class="fil7" d="M1186.31 1112.02c0,0 0,0 0,0 -0.248032,-0.464174 1.32047,-0.870473 2.47677,-0.870473 9.57639,0.0153543 19.2354,0.0153543 28.8945,0.0153543 1.2378,0 1.81654,0.4063 1.98189,0.884646 1.2378,3.76063 2.3941,7.53544 3.71457,11.3244 0.0826772,0.478347 -0.248032,0.8563 -1.48583,0.8563 -9.82442,0 -19.6488,0 -29.4733,-0.0283465 -1.2378,0 -3.05433,-0.36378 -3.13701,-0.857481 -0.990946,-3.75945 -2.14606,-7.56379 -2.97166,-11.3244z"/>
  <path class="fil7" d="M1280.1 1149.06c0,0 0,0 0,0 0.330709,0.711024 -0.494882,1.3063 -1.73386,1.3063 -10.3193,-0.0283465 -20.5571,-0.0283465 -30.7937,-0.0283465 -1.2378,0 -2.55945,-0.581103 -2.80748,-1.3063 -1.98071,-5.63386 -4.04528,-11.2949 -6.02717,-16.9429 -0.164173,-0.726379 0.661418,-1.33583 1.81654,-1.33583 9.98977,0 19.9795,0 29.804,0 1.32047,0 2.55945,0.624804 2.89016,1.35 2.22874,5.64804 4.62284,11.2949 6.85158,16.9571z"/>
  <path class="fil7" d="M1301.73 1201.28c0,0 0,0 0,0 0.330709,0.726379 -0.661418,1.30748 -2.14606,1.29213 -11.0634,0.0153543 -22.2083,0.0153543 -33.2717,0 -1.23898,0.0153543 -2.64213,-0.565748 -2.89016,-1.29213 -2.06339,-5.6752 -4.04528,-11.3386 -6.19134,-16.9854 -0.165354,-0.726379 0.742914,-1.3063 2.06339,-1.3063 10.65,0 21.548,0 32.3634,0.0141732 1.23898,0 2.72362,0.581103 2.97166,1.30748 2.31142,5.64685 4.7067,11.2949 7.10079,16.9701z"/>
  <path class="fil7" d="M1286.12 1227.37c0,0 0,0 0,0 0.248032,0.725197 -0.744095,1.3063 -2.22874,1.3063 -11.5595,0 -23.1166,0 -34.5095,0 -1.48701,-0.0141732 -2.80748,-0.581103 -3.13701,-1.3063 -1.81654,-5.66221 -3.63307,-11.3244 -5.44961,-16.9725 -0.248032,-0.725197 0.742914,-1.3063 2.06339,-1.32047 11.2287,0.0141732 22.4563,0 33.6012,0 1.48701,0 2.80748,0.595276 3.13819,1.32047 2.14606,5.64804 4.29331,11.3102 6.52205,16.9725z"/>
  <path class="fil7" d="M1262.59 1175.15c0,0 0,0 0,0 0.248032,0.726379 -0.577559,1.29213 -2.06339,1.29213 -10.65,0 -21.3,0 -32.0327,0 -1.32047,0 -2.55945,-0.595276 -2.89016,-1.3063 -1.65,-5.63268 -3.38386,-11.3091 -5.28307,-16.9571 -0.165354,-0.725197 0.825591,-1.3063 2.06457,-1.3063 10.402,0 20.804,0 31.1244,0.0141732 1.40315,0 2.55827,0.56693 2.8063,1.29213 2.06457,5.66221 4.29331,11.3244 6.27402,16.9713z"/>
  <path class="fil7" d="M1249.38 1201.26c0,0 0,0 0,0 0.164173,0.711024 -0.825591,1.3063 -2.14725,1.3063 -11.2276,0 -22.291,0 -33.3532,0 -1.48701,-0.0283465 -2.72481,-0.595276 -2.97166,-1.33583 -1.56969,-5.64685 -3.22087,-11.3232 -4.7067,-16.9713 -0.248032,-0.711024 0.742914,-1.3063 1.98189,-1.3063 10.8969,0.0295276 21.6295,0.0295276 32.3622,0.0295276 1.48701,0 2.80748,0.579922 3.05433,1.3063 1.98189,5.64685 3.79843,11.2949 5.78032,16.9713z"/>
  <path class="fil7" d="M1231.72 1227.37c0,0 0,0 0,0 0.0826772,0.725197 -0.908268,1.29213 -2.31142,1.29213 -11.5583,0.0141732 -23.1166,0.0141732 -34.6748,0.0141732 -1.40315,-0.0141732 -2.8063,-0.581103 -2.88898,-1.3063 -1.48701,-5.66221 -2.89016,-11.3386 -4.21063,-16.9854 -0.248032,-0.726379 0.825591,-1.30748 2.22874,-1.30748 11.2276,0 22.4551,0 33.6839,0 1.40315,0 2.72481,0.581103 2.97284,1.30748 1.73268,5.66103 3.46654,11.3232 5.2004,16.9854z"/>
  <path class="fil7" d="M1213.31 1175.13c0,0 0,0 0,0 0.412205,0.711024 -0.578741,1.3063 -1.98189,1.3063 -10.65,-0.0295276 -21.3827,-0.0295276 -32.0327,-0.0295276 -1.32047,0 -2.55945,-0.565748 -2.80748,-1.27677 -1.2378,-5.66221 -2.64095,-11.3091 -3.9626,-16.9854 -0.165354,-0.712205 0.826772,-1.29213 2.14606,-1.29213 10.3205,0 20.8063,0.0141732 31.1244,0.0141732 1.32165,0 2.39528,0.581103 2.64331,1.3063 1.73268,5.64804 3.38386,11.3244 4.87087,16.9571z"/>
  <path class="fil7" d="M1198.2 1201.26c0,0 0,0 0,0 0.165354,0.696851 -0.825591,1.27795 -2.22874,1.27795 -11.1461,0 -22.2083,0.0283465 -33.4359,0 -1.32165,0 -2.47677,-0.581103 -2.72481,-1.30748 -1.1563,-5.64685 -2.3941,-11.3232 -3.46772,-16.9713 -0.248032,-0.739371 0.825591,-1.3063 2.06339,-1.3063 10.9807,0 21.7134,0 32.4461,0 1.40315,0 2.64213,0.595276 2.88898,1.3063 1.48701,5.67638 2.97284,11.3244 4.45866,17.0008z"/>
  <path class="fil7" d="M1178.47 1227.35c0,0 0,0 0,0 0.248032,0.739371 -0.825591,1.32047 -2.31142,1.3063 -11.5583,0 -23.1166,0 -34.6748,0 -1.40315,0 -2.72481,-0.581103 -2.88898,-1.3063 -0.990946,-5.67638 -1.89921,-11.3244 -2.80748,-16.9713 -0.164173,-0.726379 0.825591,-1.32165 2.31142,-1.32165 11.2287,0 22.4563,0.0141732 33.7666,0 1.32165,0.0141732 2.64213,0.581103 2.88898,1.32165 1.23898,5.64685 2.47677,11.3232 3.71575,16.9713z"/>
  <path class="fil7" d="M1162.94 1175.1c0,0 0,0 0,0 0.329528,0.740552 -0.825591,1.3063 -2.14725,1.3063 -10.65,0 -21.3,0 -32.0315,-0.0129921 -1.32165,0 -2.47795,-0.56693 -2.72481,-1.29331 -0.742914,-5.64685 -1.81654,-11.3232 -2.55945,-16.9713 -0.165354,-0.711024 0.908268,-1.3063 2.22874,-1.3063 10.3205,0.0295276 20.7225,0.0295276 31.0418,0.0295276 1.32165,0 2.3941,0.565748 2.64213,1.29213 1.1563,5.66103 2.47677,11.3232 3.5504,16.9559z"/>
  <path class="fil7" d="M1145.77 1201.24c0,0 0,0 0,0 0.0814961,0.726379 -0.990946,1.30748 -2.3126,1.30748 -11.0622,0 -22.2898,0 -33.2705,0 -1.56851,0 -2.64213,-0.581103 -2.72362,-1.30748 -0.825591,-5.66103 -1.40433,-11.3232 -2.22992,-16.9854 -0.0826772,-0.725197 0.825591,-1.3063 2.31142,-1.3063 10.6512,0 21.4666,0 32.3634,0.0141732 1.32047,0 2.47677,0.56693 2.72481,1.3063 0.989765,5.64804 2.14606,11.3244 3.13701,16.9713z"/>
  <path class="fil7" d="M1123.98 1227.35c0,0 0,0 0,0 0.165354,0.725197 -0.907087,1.3063 -2.47677,1.3063 -11.4756,0 -23.0327,0 -34.5083,0 -1.56969,0 -2.80748,-0.581103 -2.89016,-1.3063 -0.496063,-5.67638 -0.990946,-11.3398 -1.48583,-16.9866 -0.165354,-0.725197 0.989765,-1.3063 2.47677,-1.3063 11.1449,0 22.4551,0 33.6839,0 1.40315,0 2.55827,0.581103 2.8063,1.3063 0.744095,5.66221 1.56851,11.3102 2.3941,16.9866z"/>
  <path class="fil7" d="M1113.91 1175.1c0,0 0,0 0,0 0.165354,0.726379 -0.908268,1.29331 -2.31142,1.29331 -10.6512,0 -21.3839,0 -32.0339,0 -1.32047,0 -2.47677,-0.582284 -2.64095,-1.30748 -0.330709,-5.64685 -0.908268,-11.3091 -1.32047,-16.9713 -0.165354,-0.726379 0.907087,-1.3063 2.22874,-1.3063 10.3193,0 20.804,0.0141732 31.1244,0.0141732 1.32047,0 2.47677,0.595276 2.55945,1.3063 0.742914,5.64804 1.65118,11.3244 2.3941,16.9713z"/>
  <path class="fil7" d="M1094.75 1201.24c0,0 0,0 0,0 0,0.712205 -1.07244,1.30748 -2.55945,1.29331 -11.0622,0.0141732 -22.2083,0 -33.2705,0 -1.48701,0 -2.55945,-0.581103 -2.64213,-1.3063 -0.248032,-5.67756 -0.660237,-11.3244 -0.908268,-17.0008 -0.0826772,-0.711024 0.990946,-1.29331 2.3941,-1.29331 10.8154,0.0153543 21.548,0.0153543 32.3634,0.0153543 1.32047,0 2.55827,0.581103 2.64095,1.3063 0.578741,5.64804 1.23898,11.3244 1.98189,16.9854z"/>
  <path class="fil7" d="M1070.89 1227.35c0,0 0,0 0,0 0.0826772,0.725197 -1.07362,1.3063 -2.55945,1.3063 -11.5583,-0.0153543 -23.1154,-0.0153543 -34.6736,-0.0153543 -1.40433,0 -2.64213,-0.565748 -2.72481,-1.3063 0,-5.66103 -0.0826772,-11.3244 -0.0826772,-16.9713 0,-0.725197 1.07362,-1.33583 2.47677,-1.33583 11.2276,0 22.539,0.0295276 33.6839,0.0295276 1.48583,0 2.55945,0.581103 2.72481,1.3063 0.329528,5.64685 0.741733,11.3102 1.15512,16.9866z"/>
  <path class="fil7" d="M1063.38 1175.09c0,0 0,0 0,0 0.165354,0.725197 -0.989765,1.29213 -2.31142,1.29213 -10.65,0 -21.3827,0 -32.0327,0 -1.2378,0 -2.31142,-0.595276 -2.3941,-1.3063 0.0826772,-5.66221 -0.165354,-11.3091 -0.165354,-16.9854 0,-0.711024 1.07362,-1.27795 2.3941,-1.27795 10.402,0 20.6398,0 31.0418,0 1.23898,0 2.47795,0.579922 2.47795,1.3063 0.329528,5.66221 0.82441,11.3244 0.989765,16.9713z"/>
  <path class="fil7" d="M1042.16 1201.22c0,0 0,0 0,0 0,0.725197 -1.15512,1.3063 -2.55945,1.3063 -11.0634,0 -22.2083,0 -33.2705,0 -1.32047,0 -2.3941,-0.581103 -2.3941,-1.3063 0.0814961,-5.67756 0.246851,-11.3398 0.329528,-17.0008 0.0826772,-0.711024 1.1563,-1.29331 2.47677,-1.29331 10.65,0 21.6307,0 32.3634,0 1.32165,0 2.3941,0.582284 2.55827,1.29331 0.165354,5.67638 0.330709,11.3232 0.496063,17.0008z"/>
  <path class="fil7" d="M1016.4 1227.34c0,0 0,0 0,0 0,0.712205 -1.1563,1.3063 -2.64213,1.3063 -11.5583,0 -23.1992,0 -34.5922,0 -1.48701,0 -2.64213,-0.594095 -2.55945,-1.3063 0.330709,-5.67638 0.660237,-11.3244 1.15512,-16.9996 0,-0.726379 1.1563,-1.30748 2.64331,-1.30748 11.0622,0 22.291,0 33.6012,0 1.40197,0 2.55827,0.581103 2.55827,1.30748 -0.0814961,5.6752 -0.164173,11.3232 -0.164173,16.9996z"/>
  <path class="fil7" d="M1014.26 1175.07c0,0 0,0 0,0 0.0826772,0.711024 -0.990946,1.3063 -2.3941,1.3063 -10.7327,0 -21.3827,-0.0295276 -31.95,-0.0295276 -1.40315,0 -2.47677,-0.565748 -2.55945,-1.27677 0.577559,-5.66221 0.908268,-11.3244 1.23898,-16.9854 0.0826772,-0.711024 1.15512,-1.29331 2.47677,-1.29331 10.402,0 20.6386,0 31.0418,0 1.2378,0 2.3941,0.582284 2.3941,1.29331 0,5.67638 -0.0826772,11.3232 -0.248032,16.9854z"/>
  <path class="fil7" d="M991.058 1201.22c0,0 0,0 0,0 0,0.725197 -1.2378,1.3063 -2.64213,1.3063 -11.0622,-0.0153543 -22.1256,-0.0153543 -33.2705,-0.0153543 -1.32047,0 -2.55945,-0.595276 -2.31142,-1.3063 0.494882,-5.67638 0.990946,-11.3244 1.65118,-17.0008 0,-0.725197 1.2378,-1.3063 2.55945,-1.3063 10.7327,0 21.548,0 32.2807,0 1.32047,0 2.55945,0.61063 2.47677,1.32165 -0.248032,5.66103 -0.496063,11.3232 -0.744095,17.0008z"/>
  <path class="fil7" d="M963.236 1227.34c0,0 0,0 0,0 0,0.712205 -1.2378,1.3063 -2.72362,1.3063 -11.5595,0 -23.0339,0 -34.5922,0 -1.48701,0 -2.55945,-0.594095 -2.47677,-1.3063 0.825591,-5.67638 1.56851,-11.3528 2.47677,-16.9996 0.0826772,-0.726379 1.2378,-1.30748 2.72362,-1.30748 11.0634,0 22.3736,0 33.6012,0 1.40433,0 2.47795,0.581103 2.47795,1.30748 -0.496063,5.64685 -1.07362,11.3232 -1.48701,16.9996z"/>
  <path class="fil7" d="M963.896 1175.07c0,0 0,0 0,0 0.0826772,0.711024 -1.15512,1.27677 -2.55827,1.27677 -10.6512,0 -21.4654,0 -32.0327,0 -1.23898,0 -2.22992,-0.579922 -2.3126,-1.3063 0.90945,-5.64804 1.73386,-11.3232 2.47795,-16.9713 0.165354,-0.725197 1.2378,-1.3063 2.64095,-1.3063 10.3205,0 20.6398,0 31.0429,0.0283465 1.32047,-0.0283465 2.3941,0.552756 2.22874,1.27795 -0.412205,5.67638 -0.825591,11.3386 -1.48701,17.0008z"/>
  <path class="fil7" d="M938.716 1201.21c0,0 0,0 0,0 -0.0814961,0.711024 -1.40315,1.3063 -2.72362,1.3063 -11.0634,0 -22.291,0 -33.3544,0 -1.48583,0 -2.47677,-0.595276 -2.31142,-1.3063 0.990946,-5.67638 1.98071,-11.3528 3.05433,-17.015 0.165354,-0.726379 1.2378,-1.3063 2.64213,-1.3063 10.8154,0 21.6307,0.0141732 32.3634,0.0141732 1.40315,0 2.47677,0.581103 2.3941,1.3063 -0.744095,5.64804 -1.48701,11.3244 -2.06457,17.0008z"/>
  <path class="fil7" d="M908.829 1227.34c0,0 0,0 0,0 -0.0814961,0.712205 -1.40197,1.3063 -2.88898,1.3063 -11.5571,0 -23.1166,-0.0283465 -34.6748,-0.0283465 -1.40315,0 -2.3941,-0.581103 -2.31142,-1.30748 1.23898,-5.66103 2.47677,-11.3232 3.79843,-16.9854 0.0814961,-0.726379 1.40315,-1.3063 2.88898,-1.3063 11.0622,0 22.291,0 33.5185,0 1.48583,0 2.55945,0.579922 2.47677,1.3063 -0.990946,5.66221 -1.81536,11.3386 -2.80748,17.015z"/>
  <path class="fil7" d="M914.61 1175.05c0,0 0,0 0,0 0.0826772,0.726379 -0.990946,1.29213 -2.47677,1.29213 -10.7327,0 -21.3827,0 -32.0339,0 -1.31929,0 -2.22874,-0.579922 -2.22874,-1.3063 1.40433,-5.64685 2.55945,-11.3091 3.79843,-16.9713 0.164173,-0.726379 1.32047,-1.3063 2.64095,-1.3063 10.3205,0 20.6398,0 31.1244,0 1.23898,0 2.22992,0.595276 2.06457,1.32047 -0.989765,5.64804 -1.73386,11.3232 -2.88898,16.9713z"/>
  <path class="fil7" d="M887.613 1201.18c0,0 0,0 0,0 -0.165354,0.726379 -1.48701,1.30748 -2.97284,1.30748 -11.1461,0 -22.2083,0 -33.2717,0 -1.31929,0 -2.3941,-0.581103 -2.14606,-1.30748 1.32165,-5.66103 2.80748,-11.3386 4.29331,-16.9854 0.165354,-0.726379 1.40315,-1.3063 2.72481,-1.3063 10.8142,0 21.5469,0 32.2796,0 1.56969,0 2.55945,0.579922 2.3941,1.3063 -1.07244,5.66221 -2.22874,11.3244 -3.30118,16.9854z"/>
  <path class="fil7" d="M855.579 1227.31c0,0 0,0 0,0 -0.0826772,0.726379 -1.40197,1.30748 -2.88898,1.30748 -11.5583,0 -23.1166,0 -34.5922,0 -1.48583,0 -2.3941,-0.581103 -2.31142,-1.30748 1.65118,-5.66103 3.38504,-11.3374 5.1189,-16.9854 0.248032,-0.726379 1.56851,-1.3063 2.97166,-1.3063 11.1461,0 22.291,0 33.6012,0 1.40433,0 2.3941,0.579922 2.22874,1.3063 -1.40315,5.66221 -2.72362,11.3244 -4.12796,16.9854z"/>
  <path class="fil7" d="M864.331 1175.03c0,0 0,0 0,0 0,0.726379 -1.32047,1.3063 -2.64213,1.3063 -10.8154,0 -21.4654,-0.0141732 -32.1154,-0.0141732 -1.2378,0 -2.14606,-0.595276 -2.14606,-1.3063 1.81536,-5.66221 3.38504,-11.3102 5.1189,-16.9866 0.246851,-0.711024 1.48583,-1.29213 2.72362,-1.29213 10.4032,0 20.8051,0 31.2071,0.0153543 1.23898,0 2.14725,0.579922 2.06457,1.3063 -1.40433,5.64685 -2.64213,11.3244 -4.21063,16.9713z"/>
  <path class="fil7" d="M835.106 1201.18c0,0 0,0 0,0 -0.165354,0.726379 -1.48701,1.30748 -2.89016,1.30748 -11.0622,0 -22.2898,0 -33.3532,0 -1.48583,-0.0153543 -2.3941,-0.595276 -2.06339,-1.32165 1.81536,-5.64685 3.71339,-11.3244 5.6126,-17.0008 0.248032,-0.711024 1.40433,-1.29095 2.89016,-1.29095 10.7327,0 21.4642,0 32.3622,0 1.23898,0 2.31142,0.579922 2.06457,1.29095 -1.48583,5.67638 -3.05433,11.3539 -4.62284,17.015z"/>
  <path class="fil7" d="M801.257 1227.31c0,0 0,0 0,0 -0.248032,0.726379 -1.65118,1.30748 -3.13819,1.30748 -11.4756,0 -23.0327,0 -34.591,0 -1.56851,0 -2.47677,-0.581103 -2.22874,-1.30748 2.14606,-5.66103 4.29331,-11.3374 6.43938,-17.015 0.248032,-0.711024 1.65,-1.29095 3.05433,-1.29095 11.2276,0 22.4551,0 33.6839,0 1.40315,0 2.47677,0.579922 2.14606,1.29095 -1.81654,5.67756 -3.63189,11.3539 -5.36575,17.015z"/>
  <path class="fil7" d="M815.127 1175.02c0,0 0,0 0,0 -0.0826772,0.711024 -1.32165,1.3063 -2.72481,1.3063 -10.65,0 -21.3,0 -32.0327,0 -1.32047,0 -2.22874,-0.595276 -2.06457,-1.3063 2.22992,-5.66221 4.29331,-11.3244 6.35788,-17.0008 0.329528,-0.726379 1.56851,-1.3063 2.80748,-1.3063 10.402,0 20.804,0.0283465 31.2071,0.0283465 1.2378,0 2.14606,0.581103 1.98071,1.29213 -1.89803,5.67638 -3.54922,11.3244 -5.53111,16.9866z"/>
  <path class="fil7" d="M764.766 1175.02c0,0 0,0 0,0 -0.165354,0.711024 -1.48583,1.27795 -2.8063,1.27795 -10.8154,0 -21.4654,0 -32.0327,0 -1.40315,0 -2.14606,-0.582284 -2.06339,-1.30748 2.8063,-5.64685 5.36575,-11.3232 7.75985,-16.9866 0.329528,-0.725197 1.65118,-1.3063 2.97166,-1.3063 10.3193,0 20.7225,0.0153543 31.0418,0.0153543 1.40433,0 2.22992,0.579922 1.81654,1.3063 -2.06457,5.67638 -4.29331,11.3386 -6.68741,17.0008z"/>
  <path class="fil7" d="M748.09 1227.31c0,0 0,0 0,0 -0.248032,0.726379 -1.73386,1.30748 -3.13819,1.30748 -11.5583,-0.0153543 -23.1154,-0.0153543 -34.6736,-0.0153543 -1.40433,0 -2.31142,-0.579922 -2.14606,-1.3063 2.55827,-5.67638 5.2004,-11.3374 7.84253,-17.0008 0.329528,-0.711024 1.73386,-1.29095 3.05433,-1.29095 11.3114,0 22.539,0 33.6839,0 1.48583,0 2.3941,0.579922 2.14725,1.29095 -2.3126,5.67756 -4.54134,11.3539 -6.77008,17.015z"/>
  <path class="fil7" d="M784.002 1201.16c0,0 0,0 0,0 -0.248032,0.726379 -1.56969,1.3063 -3.05433,1.3063 -11.0634,0 -22.2083,0 -33.3544,0 -1.40315,0 -2.31142,-0.579922 -1.89803,-1.3063 2.22874,-5.67638 4.54016,-11.3374 6.85158,-17.015 0.330709,-0.725197 1.48583,-1.3063 2.97166,-1.3063 10.7339,0 21.548,0.0295276 32.3634,0.0295276 1.40315,0 2.3941,0.579922 2.06457,1.29095 -1.98189,5.67638 -3.9626,11.3244 -5.94449,17.0008z"/>
  <path class="fil7" d="M1354.15 1201.28c0,0 0,0 0,0 0.329528,0.741733 -0.577559,1.30748 -1.89921,1.32165 -11.2287,-0.0141732 -22.291,-0.0141732 -33.2717,-0.0141732 -1.56732,-0.0153543 -2.8063,-0.581103 -3.13583,-1.30748 -2.47677,-5.6752 -4.95355,-11.3232 -7.43032,-16.9701 -0.330709,-0.726379 0.412205,-1.30748 1.89803,-1.30748 10.7327,0 21.548,0 32.2807,0 1.40315,0 2.8063,0.581103 3.13701,1.30748 2.80748,5.64685 5.61378,11.3232 8.42127,16.9701z"/>
  <path class="fil7" d="M1312.87 1175.16c0,0 0,0 0,0 0.413386,0.725197 -0.577559,1.29213 -1.89803,1.29213 -10.6512,0 -21.3012,0 -31.9512,-0.0153543 -1.40315,0 -2.55945,-0.565748 -2.97166,-1.29213 -2.06457,-5.64685 -4.37599,-11.3091 -6.60473,-16.9713 -0.248032,-0.69567 0.660237,-1.29213 2.06457,-1.29213 10.1539,0 20.6386,0 30.9591,0.0295276 1.32047,0 2.55945,0.579922 2.88898,1.27795 2.47677,5.64685 5.1189,11.3232 7.513,16.9713z"/>
  <path class="fil7" d="M1231.88 1112.05c0,0 0,0 0,0 -0.248032,-0.448819 1.23898,-0.8563 2.3941,-0.8563 9.65906,0 19.2366,0 28.8957,0 1.2378,0 1.81536,0.407481 2.14606,0.871654 1.40433,3.77481 2.80748,7.56379 4.45748,11.3374 0.0826772,0.465355 -0.164173,0.842127 -1.40197,0.842127 -9.8256,-0.0141732 -19.6488,-0.0141732 -29.4744,-0.0141732 -1.2378,0 -2.97166,-0.377953 -3.13701,-0.842127 -1.32165,-3.78898 -2.55827,-7.56379 -3.87992,-11.3386z"/>
  <path class="fil7" d="M1277.54 1112.08c0,0 0,0 0,0 -0.248032,-0.465355 1.07244,-0.871654 2.31142,-0.885827 9.57639,0.0141732 19.1528,0.0141732 28.813,0.0141732 1.31929,0 1.81536,0.4063 2.22874,0.901182 1.65118,3.75945 3.46654,7.52008 5.28307,11.2937 0.165354,0.494882 0,0.857481 -1.2378,0.857481 -9.90709,0 -19.6488,0 -29.4744,-0.0153543 -1.32047,0 -3.05433,-0.376772 -3.21851,-0.8563 -1.65236,-3.75945 -3.13819,-7.54843 -4.70552,-11.3091z"/>
  <rect class="fil8" x="1427.24" y="1389.79" width="12.1512" height="13.6719"/>
  <rect class="fil9" x="1453.97" y="1389.79" width="12.1512" height="13.6719"/>
  <rect class="fil10" x="1480.71" y="1389.79" width="12.1512" height="13.6719"/>
  <path class="fil11" d="M926.592 760.438c-25.0453,25.0429 -40.5366,59.6445 -40.5366,97.8639 0,38.2193 15.4914,72.8221 40.5366,97.865 25.0429,25.0453 59.6457,40.5355 97.8639,40.5355 38.2193,0 72.8221,-15.4902 97.865,-40.5355 25.0453,-25.0429 40.5366,-59.6457 40.5366,-97.865 0,-38.2193 -15.4914,-72.8209 -40.5366,-97.8639 -25.0429,-25.0453 -59.6457,-40.5366 -97.865,-40.5366 -38.2181,0 -72.8209,15.4914 -97.8639,40.5366z"/>
  <path class="fil12" d="M1101.98 845.571c-2.28071,2.65748 -3.41221,6.60119 -3.41221,11.8311 0,5.98465 1.18228,10.4256 3.56575,13.2732 2.36693,2.86299 5.26536,4.30276 8.6941,4.30276 3.2752,0 6.00119,-1.32047 8.17914,-3.9437 2.17795,-2.62323 3.2752,-6.94489 3.2752,-12.9295 0,-5.60552 -1.1315,-9.75591 -3.37796,-12.4654 -2.24646,-2.70945 -5.02441,-4.063 -8.33386,-4.063 -3.44646,0 -6.30945,1.31929 -8.59016,3.99449zm-81.5871 -4.35591c-3.08622,0 -5.62441,1.1315 -7.62993,3.37914 -2.00669,2.22874 -3.00236,5.28071 -2.96693,9.1382l21.091 0c-0.102756,-4.09843 -1.14921,-7.20119 -3.15591,-9.32717 -2.00551,-2.12599 -4.45748,-3.19016 -7.33819,-3.19016zm-80.4721 -29.8878l0 28.9795 29.1331 0 0 -28.9795 14.8665 0 0 73.6477 -14.8665 0 0 -32.2028 -29.1331 0 0 32.2028 -14.8843 0 0 -73.6477 14.8843 0zm79.6146 19.0854c7.93938,0 14.198,2.62323 18.7937,7.87087 4.57796,5.24646 6.77245,13.2709 6.58465,24.0921l-35.3752 0c0.102756,4.18347 1.23425,7.44095 3.41221,9.75591 2.17795,2.33268 4.90394,3.49843 8.14489,3.49843 2.21221,0 4.06418,-0.6 5.57245,-1.80118 1.50945,-1.21654 2.65866,-3.15355 3.41221,-5.82874l14.0788 2.34803c-1.81772,5.16142 -4.66418,9.08859 -8.57363,11.7803 -3.89292,2.70945 -8.78032,4.04764 -14.6445,4.04764 -9.27639,0 -16.1351,-3.0189 -20.5937,-9.08859 -3.51496,-4.85315 -5.28071,-10.9913 -5.28071,-18.3815 0,-8.84883 2.31496,-15.776 6.94489,-20.7827 4.61221,-5.0067 10.4587,-7.51064 17.524,-7.51064zm36.8835 54.5622l0 -73.6477 14.113 0 0 73.6477 -14.113 0zm28.174 -53.3457l13.1681 0 0 7.8378c1.69843,-2.69292 4.01339,-4.87087 6.92835,-6.53386 2.91378,-1.68071 6.15591,-2.52047 9.70513,-2.52047 6.19016,0 11.4543,2.43425 15.7583,7.28741 4.32048,4.85197 6.48189,11.6256 6.48189,20.3032 0,8.89843 -2.17795,15.8256 -6.51615,20.765 -4.35591,4.93819 -9.6378,7.40788 -15.8268,7.40788 -2.94921,0 -5.62441,-0.583465 -8.0256,-1.74921 -2.38347,-1.18347 -4.90394,-3.18898 -7.56142,-6.03662l0 26.8878 -14.1118 0 0 -73.6489z"/>
  <polygon class="fil13" points="1123.75,985.774 1105.45,966.622 1087.62,987.654 1077.36,921.122 1142.95,936.277 1121.54,951.686 1149.9,981.633 "/>
 </g>
</svg>
