<?xml version="1.0" encoding="utf-8"?>
<!-- Generator: Adobe Illustrator 18.0.0, SVG Export Plug-In . SVG Version: 6.00 Build 0)  -->
<!DOCTYPE svg PUBLIC "-//W3C//DTD SVG 1.1//EN" "http://www.w3.org/Graphics/SVG/1.1/DTD/svg11.dtd">
<svg version="1.1" id="ecommerce_1_" xmlns="http://www.w3.org/2000/svg" xmlns:xlink="http://www.w3.org/1999/xlink" x="0px"
	 y="0px" viewBox="0 0 115 115" style="enable-background:new 0 0 115 115;" xml:space="preserve">
<style type="text/css">
	.st0{fill:#FFEEAD;}
	.st1{fill:#C9B77D;}
	.st2{fill:#99734A;}
	.st3{fill:#FF6F69;}
	.st4{fill:#96CEB4;}
	.st5{fill:none;}
	.st6{fill:#AA9865;}
	.st7{fill:#71A58A;}
	.st8{fill:#FFCC5C;}
	.st9{fill:#825E3B;}
	.st10{fill:#639376;}
	.st11{fill:#E05858;}
	.st12{fill:#C1821E;}
	.st13{fill:#D6A041;}
	.st14{fill:#B28559;}
	.st15{fill:#BF4343;}
	.st16{fill:#D3C089;}
	.st17{fill:#7C5C3C;}
	.st18{fill:#FDCC5C;}
	.st19{fill:#FFFFFF;}
</style>
<g id="order_checkout_1_">
	<g>
		<g>
			<g>
				<path class="st0" d="M75.555,0H23.939c-4.344,0-7.865,3.522-7.865,7.865v99.27c0,4.344,3.521,7.865,7.865,7.865h60.722
					c4.344,0,7.865-3.521,7.865-7.865V15.468L75.555,0z"/>
			</g>
		</g>
		<g>
			<g>
				<path class="st1" d="M90.67,27.239c-0.552,0-1.085,0.079-1.587,0.225c-2.176,0.634-3.765,2.532-3.765,4.758l0.012,67.668
					c0,1.58,0.804,4.794,2.046,7.238l0.001,0.002c0.307,0.603,0.641,1.152,0.996,1.625c0.051,0.069,0.102,0.14,0.154,0.205
					c0.079,0.098,0.16,0.186,0.241,0.276c0.073,0.081,0.147,0.16,0.222,0.233c0.074,0.071,0.148,0.138,0.223,0.201
					c0.088,0.075,0.177,0.141,0.266,0.203c0.068,0.047,0.137,0.095,0.206,0.135c0.105,0.061,0.212,0.107,0.319,0.149
					c0.058,0.023,0.115,0.052,0.173,0.069c0.167,0.05,0.336,0.081,0.508,0.081c0.171,0,0.34-0.031,0.508-0.081
					c0.012-0.004,0.025-0.002,0.038-0.006c0.046-0.014,0.09-0.045,0.135-0.063c0.107-0.043,0.214-0.089,0.319-0.15
					c0.07-0.04,0.138-0.088,0.207-0.136c0.064-0.045,0.127-0.095,0.189-0.145c0.284-0.813,0.447-1.683,0.447-2.593V27.551
					C91.947,27.35,91.322,27.239,90.67,27.239z"/>
			</g>
		</g>
		<g>
			<g>
				<path class="st4" d="M75.555,0v7.603c0,4.344,3.521,7.865,7.865,7.865h9.106L75.555,0z"/>
			</g>
		</g>
	</g>
	<g>
		<g>
			<g>
				<g>
					<path class="st19" d="M31.536,25.99h-4.019c-0.943,0-1.707,0.764-1.707,1.707v4.019c0,0.942,0.764,1.707,1.707,1.707h4.019
						c0.943,0,1.707-0.764,1.707-1.707v-4.019C33.243,26.754,32.479,25.99,31.536,25.99z"/>
				</g>
			</g>
			<g>
				<g>
					<g>
						<path class="st7" d="M31.536,25.209h-4.019c-1.372,0-2.488,1.116-2.488,2.488v4.018c0,1.372,1.116,2.488,2.488,2.488h4.019
							c1.371,0,2.487-1.116,2.487-2.488v-4.018C34.024,26.325,32.908,25.209,31.536,25.209z M32.463,31.715
							c0,0.511-0.415,0.927-0.926,0.927h-4.019c-0.511,0-0.927-0.416-0.927-0.927v-4.018c0-0.511,0.416-0.927,0.927-0.927h4.019
							c0.511,0,0.926,0.416,0.926,0.927V31.715z"/>
					</g>
				</g>
			</g>
		</g>
		<g>
			<g>
				<path class="st3" d="M42.596,23.784c-0.434-0.741-1.389-0.992-2.135-0.559c-3.091,1.806-5.703,4.401-7.552,7.465
					c-1.038-1.376-2.31-2.57-3.763-3.523c-0.719-0.472-1.687-0.271-2.161,0.448c-0.473,0.721-0.271,1.689,0.45,2.161
					c1.8,1.181,3.25,2.829,4.191,4.765c0.262,0.538,0.807,0.878,1.404,0.878h0.036c0.61-0.014,1.155-0.383,1.398-0.942
					c1.537-3.564,4.225-6.602,7.572-8.558C42.78,25.485,43.031,24.529,42.596,23.784z"/>
			</g>
		</g>
	</g>
	<g>
		<g>
			<g>
				<g>
					<path class="st19" d="M31.536,41.087h-4.019c-0.943,0-1.707,0.764-1.707,1.707v4.019c0,0.943,0.764,1.707,1.707,1.707h4.019
						c0.943,0,1.707-0.764,1.707-1.707v-4.019C33.243,41.852,32.479,41.087,31.536,41.087z"/>
				</g>
			</g>
			<g>
				<g>
					<g>
						<path class="st7" d="M31.536,40.306h-4.019c-1.372,0-2.488,1.116-2.488,2.488v4.02c0,1.371,1.116,2.486,2.488,2.486h4.019
							c1.371,0,2.487-1.116,2.487-2.486v-4.02C34.024,41.422,32.908,40.306,31.536,40.306z M32.463,46.814
							c0,0.511-0.415,0.925-0.926,0.925h-4.019c-0.511,0-0.927-0.415-0.927-0.925v-4.02c0-0.511,0.416-0.927,0.927-0.927h4.019
							c0.511,0,0.926,0.416,0.926,0.927V46.814z"/>
					</g>
				</g>
			</g>
		</g>
		<g>
			<g>
				<path class="st3" d="M42.596,38.881c-0.434-0.744-1.389-0.992-2.136-0.559c-3.091,1.808-5.702,4.402-7.55,7.464
					c-1.039-1.376-2.31-2.57-3.764-3.523c-0.719-0.473-1.687-0.27-2.161,0.448c-0.473,0.721-0.271,1.689,0.45,2.161
					c1.801,1.181,3.25,2.829,4.191,4.767c0.261,0.538,0.807,0.878,1.404,0.878h0.035c0.61-0.014,1.157-0.383,1.399-0.943
					c1.535-3.561,4.225-6.6,7.573-8.558C42.78,40.582,43.031,39.625,42.596,38.881z"/>
			</g>
		</g>
	</g>
	<g>
		<g>
			<g>
				<g>
					<path class="st19" d="M31.536,56.185h-4.019c-0.943,0-1.707,0.764-1.707,1.707v4.019c0,0.943,0.764,1.707,1.707,1.707h4.019
						c0.943,0,1.707-0.764,1.707-1.707v-4.019C33.243,56.949,32.479,56.185,31.536,56.185z"/>
				</g>
			</g>
			<g>
				<g>
					<g>
						<path class="st7" d="M31.536,55.405h-4.019c-1.372,0-2.488,1.116-2.488,2.488v4.018c0,1.372,1.116,2.488,2.488,2.488h4.019
							c1.371,0,2.487-1.116,2.487-2.488v-4.018C34.024,56.521,32.908,55.405,31.536,55.405z M32.463,61.911
							c0,0.51-0.415,0.927-0.926,0.927h-4.019c-0.511,0-0.927-0.416-0.927-0.927v-4.018c0-0.511,0.416-0.927,0.927-0.927h4.019
							c0.511,0,0.926,0.416,0.926,0.927V61.911z"/>
					</g>
				</g>
			</g>
		</g>
		<g>
			<g>
				<path class="st3" d="M42.596,53.98c-0.434-0.742-1.389-0.992-2.135-0.559c-3.091,1.806-5.703,4.401-7.552,7.465
					c-1.038-1.377-2.31-2.57-3.763-3.523c-0.719-0.473-1.687-0.27-2.161,0.448c-0.473,0.721-0.271,1.689,0.45,2.161
					c1.8,1.182,3.25,2.829,4.191,4.765c0.262,0.538,0.807,0.878,1.404,0.878h0.036c0.61-0.014,1.155-0.383,1.398-0.942
					c1.537-3.564,4.225-6.602,7.572-8.558C42.78,55.681,43.031,54.725,42.596,53.98z"/>
			</g>
		</g>
	</g>
	<g>
		<g>
			<g>
				<g>
					<path class="st19" d="M31.536,71.283h-4.019c-0.943,0-1.707,0.764-1.707,1.707v4.019c0,0.943,0.764,1.707,1.707,1.707h4.019
						c0.943,0,1.707-0.764,1.707-1.707V72.99C33.243,72.047,32.479,71.283,31.536,71.283z"/>
				</g>
			</g>
			<g>
				<g>
					<g>
						<path class="st7" d="M31.536,70.502h-4.019c-1.372,0-2.488,1.116-2.488,2.488v4.02c0,1.37,1.116,2.486,2.488,2.486h4.019
							c1.371,0,2.487-1.116,2.487-2.486v-4.02C34.024,71.618,32.908,70.502,31.536,70.502z M32.463,77.009
							c0,0.511-0.415,0.925-0.926,0.925h-4.019c-0.511,0-0.927-0.415-0.927-0.925v-4.02c0-0.511,0.416-0.927,0.927-0.927h4.019
							c0.511,0,0.926,0.416,0.926,0.927V77.009z"/>
					</g>
				</g>
			</g>
		</g>
		<g>
			<g>
				<path class="st3" d="M42.596,69.077c-0.434-0.745-1.389-0.992-2.136-0.56c-3.091,1.808-5.702,4.402-7.55,7.465
					c-1.039-1.377-2.31-2.57-3.764-3.523c-0.719-0.473-1.687-0.271-2.161,0.448c-0.473,0.721-0.271,1.689,0.45,2.161
					c1.801,1.181,3.25,2.829,4.191,4.767c0.261,0.538,0.807,0.878,1.404,0.878h0.035c0.61-0.014,1.157-0.383,1.399-0.944
					c1.535-3.561,4.225-6.6,7.573-8.558C42.78,70.778,43.031,69.82,42.596,69.077z"/>
			</g>
		</g>
	</g>
	<g>
		<g>
			<g>
				<g>
					<path class="st19" d="M31.536,86.381h-4.019c-0.943,0-1.707,0.764-1.707,1.707v4.019c0,0.943,0.764,1.707,1.707,1.707h4.019
						c0.943,0,1.707-0.764,1.707-1.707v-4.019C33.243,87.145,32.479,86.381,31.536,86.381z"/>
				</g>
			</g>
			<g>
				<g>
					<g>
						<path class="st7" d="M31.536,85.6h-4.019c-1.372,0-2.488,1.116-2.488,2.488v4.018c0,1.372,1.116,2.488,2.488,2.488h4.019
							c1.371,0,2.487-1.116,2.487-2.488v-4.018C34.024,86.716,32.908,85.6,31.536,85.6z M32.463,92.106
							c0,0.511-0.415,0.927-0.926,0.927h-4.019c-0.511,0-0.927-0.416-0.927-0.927v-4.018c0-0.511,0.416-0.927,0.927-0.927h4.019
							c0.511,0,0.926,0.416,0.926,0.927V92.106z"/>
					</g>
				</g>
			</g>
		</g>
		<g>
			<g>
				<path class="st3" d="M42.596,84.175c-0.434-0.742-1.389-0.994-2.135-0.559c-3.091,1.806-5.703,4.401-7.552,7.465
					c-1.038-1.376-2.31-2.57-3.763-3.523c-0.719-0.472-1.687-0.271-2.161,0.448c-0.473,0.721-0.271,1.689,0.45,2.161
					c1.8,1.181,3.25,2.829,4.191,4.765c0.262,0.538,0.807,0.878,1.404,0.878h0.036c0.61-0.014,1.155-0.383,1.398-0.942
					c1.537-3.564,4.225-6.602,7.572-8.558C42.78,85.876,43.031,84.92,42.596,84.175z"/>
			</g>
		</g>
	</g>
	<g>
		<g>
			<path class="st4" d="M79.813,28.268H46.775c-0.985,0-1.791,0.806-1.791,1.791v0.272c0,0.985,0.806,1.791,1.791,1.791h33.038
				c0.985,0,1.791-0.806,1.791-1.791v-0.272C81.604,29.074,80.798,28.268,79.813,28.268z"/>
		</g>
	</g>
	<g>
		<g>
			<path class="st4" d="M79.813,43.045H46.775c-0.985,0-1.791,0.806-1.791,1.791v0.273c0,0.985,0.806,1.791,1.791,1.791h33.038
				c0.985,0,1.791-0.806,1.791-1.791v-0.273C81.604,43.851,80.798,43.045,79.813,43.045z"/>
		</g>
	</g>
	<g>
		<g>
			<path class="st4" d="M79.813,57.821H46.775c-0.985,0-1.791,0.806-1.791,1.791v0.272c0,0.985,0.806,1.791,1.791,1.791h33.038
				c0.985,0,1.791-0.806,1.791-1.791v-0.272C81.604,58.627,80.798,57.821,79.813,57.821z"/>
		</g>
	</g>
	<g>
		<g>
			<path class="st4" d="M79.813,72.598H46.775c-0.985,0-1.791,0.806-1.791,1.791v0.273c0,0.985,0.806,1.791,1.791,1.791h33.038
				c0.985,0,1.791-0.806,1.791-1.791v-0.273C81.604,73.404,80.798,72.598,79.813,72.598z"/>
		</g>
	</g>
	<g>
		<g>
			<path class="st4" d="M79.813,87.374H46.775c-0.985,0-1.791,0.806-1.791,1.791v0.272c0,0.985,0.806,1.791,1.791,1.791h33.038
				c0.985,0,1.791-0.806,1.791-1.791v-0.272C81.604,88.18,80.798,87.374,79.813,87.374z"/>
		</g>
	</g>
	<g>
		<g>
			<g>
				<path class="st3" d="M98.915,26.92c0-2.741-2.41-4.983-5.354-4.982c-2.944,0-5.353,2.243-5.352,4.984L88.22,94.59
					c0,2.74,2.411,10.418,5.355,10.418c2.944-0.001,5.352-7.679,5.351-10.419L98.915,26.92z"/>
			</g>
		</g>
		<g>
			<g>
				<path class="st0" d="M98.926,93.674L88.22,93.675l0,0.915c0,2.741,2.411,10.418,5.355,10.418
					c2.944-0.001,5.352-7.679,5.351-10.419L98.926,93.674z"/>
			</g>
		</g>
		<g>
			<g>
				<path class="st2" d="M90.266,101.829c0.913,1.796,2.062,3.179,3.309,3.179c1.247,0,2.396-1.384,3.308-3.181L90.266,101.829z"/>
			</g>
		</g>
		<g>
			<g>
				<path class="st4" d="M98.915,26.92c0-2.741-2.41-4.983-5.354-4.982c-2.944,0-5.353,2.243-5.352,4.984l0.001,7.262l10.706-0.002
					L98.915,26.92z"/>
			</g>
		</g>
		<g>
			<g>
				<rect x="88.21" y="31.767" class="st0" width="10.706" height="2.416"/>
			</g>
		</g>
	</g>
</g>
</svg>
