<?xml version="1.0" encoding="UTF-8"?>
<!DOCTYPE svg PUBLIC "-//W3C//DTD SVG 1.1//EN" "http://www.w3.org/Graphics/SVG/1.1/DTD/svg11.dtd">
<!-- Creator: CorelDRAW -->
<svg xmlns="http://www.w3.org/2000/svg" xml:space="preserve" width="6.82666in" height="6.82666in" style="shape-rendering:geometricPrecision; text-rendering:geometricPrecision; image-rendering:optimizeQuality; fill-rule:evenodd; clip-rule:evenodd"
viewBox="0 0 6.82666 6.82666"
 xmlns:xlink="http://www.w3.org/1999/xlink">
 <defs>
  <style type="text/css">
   <![CDATA[
    .fil2 {fill:none}
    .fil1 {fill:#0277BD}
    .fil0 {fill:#0288D1}
    .fil8 {fill:#81D4FA}
    .fil7 {fill:#B2EBF2}
    .fil4 {fill:#DB7D07}
    .fil6 {fill:#FF9100}
    .fil5 {fill:#FFAB00}
    .fil3 {fill:#FF9100;fill-rule:nonzero}
   ]]>
  </style>
   <clipPath id="id0">
    <path d="M3.41333 -3.93701e-006c1.88513,0 3.41333,1.5282 3.41333,3.41333 0,1.88513 -1.5282,3.41333 -3.41333,3.41333 -1.88513,0 -3.41333,-1.5282 -3.41333,-3.41333 0,-1.88513 1.5282,-3.41333 3.41333,-3.41333z"/>
   </clipPath>
 </defs>
 <g id="Layer_x0020_1">
  <metadata id="CorelCorpID_0Corel-Layer"/>
  <path class="fil0" d="M3.41333 -3.93701e-006c1.88513,0 3.41333,1.5282 3.41333,3.41333 0,1.88513 -1.5282,3.41333 -3.41333,3.41333 -1.88513,0 -3.41333,-1.5282 -3.41333,-3.41333 0,-1.88513 1.5282,-3.41333 3.41333,-3.41333z"/>
  <g style="clip-path:url(#id0)">
   <g id="_457194224">
    <g>
     <polygon id="_4607611601" class="fil1" points="4.09475,1.56219 7.88102,5.34846 7.88424,5.35268 7.88722,5.35754 7.88995,5.36308 7.89243,5.36935 7.89467,5.37638 7.89664,5.38421 7.89837,5.39288 7.89983,5.40244 7.90103,5.41291 7.90197,5.42435 7.90265,5.43678 7.90305,5.45025 7.90319,5.4648 7.90319,5.53572 7.90305,5.55027 7.90265,5.56374 7.90197,5.57618 7.90103,5.58761 7.89983,5.59809 7.89837,5.60764 7.89664,5.61631 7.89467,5.62415 7.89243,5.63118 7.88995,5.63744 7.88722,5.64299 7.88424,5.64785 7.88102,5.65207 7.87755,5.65568 7.87385,5.65873 7.86991,5.66125 7.86573,5.66329 7.86132,5.66487 7.85668,5.66606 7.85182,5.66687 7.84673,5.66736 7.84141,5.66756 7.83588,5.66751 7.83013,5.66724 7.82416,5.66681 7.81798,5.66625 7.81159,5.6656 7.80499,5.6649 7.79819,5.66418 7.79117,5.66349 7.78396,5.66287 7.77656,5.66235 3.99029,1.87608 3.9977,1.87659 4.00491,1.87722 4.01192,1.87791 4.01872,1.87863 4.02532,1.87933 4.03171,1.87998 4.03789,1.88054 4.04386,1.88097 4.04961,1.88124 4.05515,1.88129 4.06046,1.88109 4.06555,1.8806 4.07041,1.87979 4.07505,1.8786 4.07946,1.87702 4.08364,1.87498 4.08758,1.87246 4.09128,1.86941 4.09475,1.8658 4.09797,1.86158 4.10095,1.85672 4.10368,1.85117 4.10617,1.84491 4.1084,1.83787 4.11037,1.83004 4.1121,1.82137 4.11356,1.81181 4.11476,1.80134 4.1157,1.78991 4.11638,1.77747 4.11678,1.764 4.11692,1.74945 4.11692,1.67853 4.11678,1.66398 4.11638,1.65051 4.1157,1.63807 4.11476,1.62664 4.11356,1.61617 4.1121,1.60661 4.11037,1.59794 4.1084,1.59011 4.10617,1.58308 4.10368,1.57681 4.10095,1.57127 4.09797,1.56641 "/>
     <polygon id="_460760680" class="fil1" points="3.99029,1.87608 7.77656,5.66235 7.27256,5.63214 3.48629,1.84587 "/>
     <polygon id="_460761448" class="fil1" points="3.32419,1.84581 7.11046,5.63208 6.60646,5.66235 2.82019,1.87608 "/>
     <polygon id="_460761616" class="fil1" points="3.48629,1.84587 7.27256,5.63214 7.27256,6.31072 3.48629,2.52444 "/>
     <polygon id="_460761736" class="fil1" points="2.82019,1.87608 6.60646,5.66235 6.59905,5.66287 6.59184,5.66349 6.58483,5.66418 6.57802,5.6649 6.57143,5.6656 6.56504,5.66626 6.55885,5.66682 6.55289,5.66725 6.54713,5.66751 6.5416,5.66756 6.53629,5.66736 6.5312,5.66688 6.52633,5.66606 6.52169,5.66488 6.51729,5.66329 6.51311,5.66126 6.50917,5.65873 6.50546,5.65569 6.502,5.65207 2.71573,1.8658 2.7192,1.86941 2.7229,1.87246 2.72684,1.87498 2.73102,1.87702 2.73543,1.87861 2.74006,1.87979 2.74493,1.88061 2.75002,1.88109 2.75533,1.88129 2.76087,1.88124 2.76662,1.88098 2.77259,1.88055 2.77877,1.87998 2.78516,1.87933 2.79176,1.87863 2.79856,1.87791 2.80557,1.87722 2.81278,1.87659 "/>
     <polygon id="_460761760" class="fil1" points="3.69891,2.55308 7.48518,6.33935 7.49048,6.34506 7.49562,6.35122 7.50059,6.35783 7.50537,6.36486 7.50997,6.3723 7.51438,6.38014 7.51858,6.38836 7.52257,6.39694 7.52633,6.40588 7.52987,6.41515 7.53318,6.42474 7.53623,6.43464 7.53904,6.44482 7.54158,6.45528 7.54386,6.466 7.54586,6.47697 7.54757,6.48816 7.54899,6.49957 7.55011,6.51117 7.55092,6.52296 7.55141,6.53493 7.55157,6.54704 7.55157,6.67938 7.55156,6.68337 7.5515,6.68735 7.55141,6.6913 7.55129,6.69525 7.55113,6.69917 7.55094,6.70308 7.55071,6.70697 7.55045,6.71084 7.55015,6.7147 7.54982,6.71853 7.54946,6.72234 7.54907,6.72613 7.54864,6.72991 7.54818,6.73365 7.54769,6.73738 7.54717,6.74108 3.7609,2.95481 3.76142,2.95111 3.76191,2.94738 3.76237,2.94363 3.7628,2.93986 3.76319,2.93607 3.76356,2.93226 3.76389,2.92843 3.76418,2.92457 3.76444,2.9207 3.76467,2.91681 3.76486,2.9129 3.76502,2.90898 3.76515,2.90503 3.76524,2.90107 3.76529,2.8971 3.76531,2.89311 3.76531,2.76076 3.76514,2.74865 3.76465,2.73669 3.76384,2.7249 3.76272,2.7133 3.7613,2.70189 3.75959,2.6907 3.75759,2.67973 3.75531,2.66901 3.75277,2.65855 3.74996,2.64837 3.74691,2.63847 3.74361,2.62888 3.74007,2.61961 3.7363,2.61067 3.73231,2.60209 3.72811,2.59387 3.7237,2.58603 3.71911,2.57859 3.71432,2.57156 3.70935,2.56495 3.70421,2.55879 "/>
     <polygon id="_460761904" class="fil1" points="3.87722,3.05249 7.66349,6.83876 7.67087,6.84673 7.67812,6.85482 7.68524,6.86303 7.69221,6.87137 7.69906,6.87981 7.70576,6.88838 7.71232,6.89706 7.71874,6.90586 7.72501,6.91476 7.73113,6.92378 7.73711,6.9329 7.74294,6.94212 7.74862,6.95145 7.75414,6.96089 7.75951,6.97042 7.76472,6.98005 7.76977,6.98978 7.77466,6.99961 3.98839,3.21333 3.9835,3.20351 3.97845,3.19378 3.97324,3.18415 3.96787,3.17461 3.96235,3.16518 3.95667,3.15585 3.95085,3.14663 3.94487,3.1375 3.93874,3.12849 3.93247,3.11959 3.92605,3.11079 3.91949,3.10211 3.91279,3.09354 3.90594,3.08509 3.89897,3.07676 3.89185,3.06855 3.8846,3.06046 "/>
     <polygon id="_460762264" class="fil1" points="1.90501,2.66989 5.69128,6.45617 5.69527,6.46023 5.69903,6.46446 5.70257,6.46886 5.70587,6.4734 5.70893,6.47809 5.71174,6.48291 5.71428,6.48787 5.71656,6.49294 5.71856,6.49814 5.72027,6.50344 5.72169,6.50885 5.72281,6.51434 5.72362,6.51993 5.72411,6.52559 5.72428,6.53133 5.72428,6.66572 1.93801,2.87944 1.93801,2.74506 1.93784,2.73932 1.93735,2.73366 1.93654,2.72807 1.93543,2.72257 1.934,2.71717 1.93229,2.71187 1.93029,2.70667 1.92802,2.70159 1.92547,2.69664 1.92267,2.69181 1.91961,2.68713 1.9163,2.68259 1.91276,2.67819 1.909,2.67396 "/>
     <polygon id="_460762672" class="fil1" points="2.09366,2.91481 5.87993,6.70109 5.88323,6.70433 5.88629,6.70769 5.8891,6.71114 5.89164,6.71468 5.89392,6.71831 5.89592,6.72202 5.89763,6.72581 5.89905,6.72968 5.90017,6.73361 5.90098,6.7376 5.90147,6.74165 5.90163,6.74576 5.90163,6.99961 2.11537,3.21333 2.11537,2.95948 2.1152,2.95538 2.11471,2.95133 2.1139,2.94734 2.11278,2.94341 2.11136,2.93954 2.10965,2.93575 2.10765,2.93204 2.10537,2.92841 2.10283,2.92487 2.10002,2.92141 2.09696,2.91806 "/>
     <polygon id="_460762528" class="fil1" points="2.11537,3.78065 5.90163,7.56693 5.90163,7.82148 5.90147,7.82558 5.90098,7.82963 5.90017,7.83362 5.89905,7.83756 5.89763,7.84142 5.89592,7.84521 5.89392,7.84892 5.89164,7.85256 5.8891,7.85609 5.88629,7.85955 5.88324,7.8629 5.87993,7.86615 5.87639,7.86929 5.87263,7.87231 5.86864,7.87522 5.86444,7.878 5.86003,7.88066 5.85543,7.88318 5.85065,7.88556 5.84568,7.8878 5.84054,7.88989 5.83524,7.89182 5.82978,7.89359 5.82417,7.8952 5.81843,7.89664 5.81256,7.8979 5.80656,7.89898 5.80044,7.89988 5.79422,7.90059 5.78791,7.9011 5.7815,7.90141 5.775,7.90152 5.72428,7.90152 1.93801,4.11524 1.98874,4.11524 1.99523,4.11514 2.00164,4.11483 2.00795,4.11432 2.01417,4.11361 2.02029,4.11271 2.02629,4.11163 2.03216,4.11037 2.03791,4.10893 2.04351,4.10732 2.04897,4.10555 2.05427,4.10361 2.05941,4.10153 2.06438,4.09929 2.06917,4.09691 2.07376,4.09439 2.07817,4.09173 2.08237,4.08895 2.08636,4.08604 2.09013,4.08302 2.09367,4.07987 2.09697,4.07663 2.10002,4.07328 2.10283,4.06982 2.10537,4.06628 2.10765,4.06265 2.10965,4.05894 2.11136,4.05515 2.11278,4.05128 2.1139,4.04735 2.11471,4.04336 2.1152,4.03931 2.11537,4.0352 "/>
     <polygon id="_460762744" class="fil1" points="1.93801,4.11524 5.72428,7.90152 5.72428,8.0359 5.72411,8.04164 5.72362,8.0473 5.72281,8.05289 5.72169,8.05839 5.72027,8.06379 5.71856,8.06909 5.71656,8.07429 5.71428,8.07937 5.71174,8.08432 5.70893,8.08915 5.70588,8.09383 5.70257,8.09838 5.69904,8.10277 5.69527,8.107 5.69128,8.11107 5.68708,8.11496 5.68267,8.11867 5.67807,8.1222 5.67329,8.12553 5.66832,8.12866 5.66318,8.13158 5.65788,8.13428 5.65242,8.13676 5.64681,8.13901 5.64107,8.14102 5.6352,8.14279 5.6292,8.14431 5.62308,8.14556 5.61686,8.14655 5.61055,8.14726 5.60414,8.1477 5.59765,8.14785 5.52673,8.14785 5.52024,8.1477 5.51383,8.14726 5.50751,8.14655 5.50129,8.14556 5.49518,8.14431 5.48918,8.14279 5.4833,8.14102 5.47756,8.13901 5.47195,8.13676 5.4665,8.13428 5.46119,8.13158 5.45606,8.12866 5.45109,8.12553 5.4463,8.1222 5.4417,8.11868 5.4373,8.11496 1.65103,4.32869 1.65543,4.33241 1.66003,4.33593 1.66482,4.33926 1.66979,4.34239 1.67493,4.34531 1.68023,4.34801 1.68569,4.35049 1.69129,4.35274 1.69704,4.35475 1.70291,4.35652 1.70891,4.35804 1.71502,4.35929 1.72124,4.36028 1.72756,4.36099 1.73397,4.36143 1.74046,4.36157 1.81138,4.36157 1.81787,4.36143 1.82428,4.36099 1.83059,4.36028 1.83681,4.35929 1.84293,4.35804 1.84893,4.35652 1.8548,4.35475 1.86055,4.35274 1.86615,4.35049 1.87161,4.34801 1.87691,4.34531 1.88205,4.34239 1.88702,4.33926 1.89181,4.33593 1.89641,4.3324 1.90081,4.32869 1.90501,4.3248 1.909,4.32073 1.91277,4.3165 1.91631,4.31211 1.91961,4.30756 1.92267,4.30287 1.92547,4.29805 1.92802,4.29309 1.93029,4.28802 1.93229,4.28282 1.934,4.27752 1.93543,4.27211 1.93654,4.26661 1.93735,4.26103 1.93784,4.25537 1.93801,4.24963 "/>
     <polygon id="_460762792" class="fil1" points="2.82208,3.78065 6.60835,7.56693 5.90163,7.56693 2.11537,3.78065 "/>
     <polygon id="_460762624" class="fil1" points="3.98839,3.78065 7.77466,7.56693 7.76446,7.58697 7.75359,7.6066 7.74207,7.62581 7.72991,7.64459 7.71713,7.66291 7.70374,7.68076 7.68976,7.69813 7.6752,7.715 7.66008,7.73136 7.64442,7.74719 7.62822,7.76247 7.6115,7.7772 7.59428,7.79136 7.57657,7.80493 7.55839,7.8179 7.53976,7.83024 7.52068,7.84196 7.50117,7.85303 7.48125,7.86344 7.46093,7.87317 7.44023,7.8822 7.41916,7.89053 7.39774,7.89814 7.37598,7.90501 7.35389,7.91113 7.3315,7.91648 7.30881,7.92104 7.28585,7.92481 7.26262,7.92778 7.23914,7.92991 7.21543,7.9312 7.1915,7.93163 7.16757,7.9312 7.14387,7.92991 7.12039,7.92778 7.09716,7.92481 7.0742,7.92104 7.05151,7.91648 7.02912,7.91113 7.00704,7.90501 6.98528,7.89814 6.96385,7.89053 6.94278,7.8822 6.92208,7.87317 6.90176,7.86344 6.88184,7.85303 6.86233,7.84196 6.84326,7.83024 6.82462,7.8179 6.80644,7.80493 6.78873,7.79136 6.77151,7.7772 6.7548,7.76247 6.7386,7.74719 2.95233,3.96091 2.96853,3.9762 2.98524,3.99093 3.00246,4.00509 3.02017,4.01866 3.03835,4.03163 3.05699,4.04397 3.07607,4.05569 3.09557,4.06676 3.1155,4.07717 3.13581,4.08689 3.15652,4.09593 3.17758,4.10426 3.19901,4.11187 3.22077,4.11874 3.24285,4.12485 3.26524,4.1302 3.28793,4.13477 3.31089,4.13854 3.33412,4.1415 3.3576,4.14363 3.38131,4.14493 3.40524,4.14536 3.42917,4.14493 3.45287,4.14363 3.47635,4.1415 3.49958,4.13854 3.52255,4.13477 3.54523,4.1302 3.56763,4.12485 3.58971,4.11874 3.61147,4.11187 3.63289,4.10426 3.65396,4.09593 3.67467,4.08689 3.69498,4.07717 3.7149,4.06676 3.73441,4.05569 3.75349,4.04397 3.77213,4.03163 3.79031,4.01866 3.80801,4.00509 3.82523,3.99093 3.84195,3.9762 3.85815,3.96091 3.87381,3.94509 3.88893,3.92873 3.90349,3.91185 3.91747,3.89449 3.93086,3.87663 3.94364,3.85831 3.9558,3.83954 3.96732,3.82033 3.97819,3.8007 "/>
     <polygon id="_460762768" class="fil1" points="4.56447,3.78065 8.35074,7.56693 7.77466,7.56693 3.98839,3.78065 "/>
     <polygon id="_460762720" class="fil1" points="5.17983,3.25494 8.9661,7.04121 8.97009,7.04581 8.97386,7.0506 8.9774,7.05557 8.9807,7.0607 8.98376,7.06601 8.98656,7.07147 8.98911,7.07707 8.99138,7.08281 8.99338,7.08869 8.99509,7.09469 8.99652,7.1008 8.99763,7.10702 8.99844,7.11334 8.99893,7.11975 8.9991,7.12624 8.9991,7.805 8.99893,7.81149 8.99844,7.81789 8.99763,7.82421 8.99651,7.83043 8.99509,7.83655 8.99338,7.84254 8.99138,7.84842 8.98911,7.85417 8.98656,7.85977 8.98376,7.86523 8.9807,7.87053 8.97739,7.87567 8.97385,7.88064 8.97009,7.88543 8.9661,7.89003 8.9619,7.89443 8.9575,7.89863 8.95289,7.90262 8.94811,7.90639 8.94314,7.90993 8.938,7.91323 8.9327,7.91629 8.92724,7.91909 8.92163,7.92164 8.91589,7.92391 8.91002,7.92591 8.90402,7.92763 8.89791,7.92904 8.89169,7.93017 8.88537,7.93097 8.87896,7.93146 8.87247,7.93163 8.47737,7.93163 8.47087,7.93146 8.46447,7.93097 8.45815,7.93017 8.45193,7.92905 8.44581,7.92763 8.43982,7.92591 8.43394,7.92391 8.4282,7.92164 8.42259,7.91909 8.41713,7.91629 8.41183,7.91323 8.40669,7.90993 8.40172,7.90639 8.39694,7.90262 8.39234,7.89863 8.38793,7.89443 4.60167,4.10816 4.60607,4.11236 4.61067,4.11635 4.61546,4.12012 4.62043,4.12366 4.62557,4.12696 4.63087,4.13002 4.63633,4.13282 4.64193,4.13537 4.64767,4.13764 4.65355,4.13964 4.65955,4.14135 4.66566,4.14278 4.67188,4.14389 4.6782,4.1447 4.68461,4.14519 4.6911,4.14536 5.0862,4.14536 5.09269,4.14519 5.0991,4.1447 5.10542,4.14389 5.11164,4.14277 5.11775,4.14135 5.12375,4.13964 5.12962,4.13764 5.13537,4.13537 5.14097,4.13282 5.14643,4.13002 5.15173,4.12696 5.15687,4.12365 5.16184,4.12011 5.16663,4.11635 5.17123,4.11236 5.17563,4.10816 5.17983,4.10376 5.18382,4.09915 5.18759,4.09437 5.19113,4.0894 5.19443,4.08426 5.19749,4.07896 5.2003,4.0735 5.20284,4.06789 5.20511,4.06215 5.20711,4.05627 5.20883,4.05028 5.21024,4.04416 5.21137,4.03794 5.21217,4.03162 5.21267,4.02522 5.21283,4.01872 5.21283,3.33997 5.21267,3.33348 5.21217,3.32707 5.21137,3.32075 5.21025,3.31453 5.20883,3.30842 5.20711,3.30242 5.20511,3.29654 5.20284,3.2908 5.2003,3.2852 5.19749,3.27974 5.19443,3.27443 5.19113,3.2693 5.18759,3.26433 5.18382,3.25954 "/>
     <polygon id="_460762480" class="fil1" points="4.87859,4.37361 8.66486,8.15989 8.66573,8.16114 8.66827,8.16481 8.67237,8.17078 8.67791,8.17892 8.68478,8.18909 8.69289,8.20117 8.7021,8.21502 8.71231,8.23052 8.72341,8.24755 8.7353,8.26596 8.74785,8.28564 8.76095,8.30646 8.7745,8.32828 8.78838,8.35097 8.80249,8.37441 8.81671,8.39848 8.83093,8.42303 8.84503,8.44794 8.85891,8.47309 8.87246,8.49834 8.88557,8.52357 8.89812,8.54864 8.91,8.57343 8.9211,8.59781 8.93131,8.62165 8.94053,8.64481 8.94863,8.66719 8.9555,8.68863 8.96105,8.70902 8.96515,8.72823 8.96769,8.74612 8.96856,8.76257 5.18229,4.9763 5.18142,4.95985 5.17888,4.94196 5.17478,4.92275 5.16924,4.90236 5.16236,4.88091 5.15426,4.85854 5.14505,4.83537 5.13483,4.81154 5.12373,4.78715 5.11185,4.76237 5.0993,4.7373 5.0862,4.71207 5.07265,4.68682 5.05876,4.66167 5.04466,4.63676 5.03044,4.6122 5.01622,4.58814 5.00211,4.5647 4.98823,4.542 4.97468,4.52019 4.96158,4.49937 4.94903,4.47969 4.93715,4.46128 4.92604,4.44425 4.91583,4.42875 4.90662,4.41489 4.89852,4.40281 4.89164,4.39265 4.8861,4.38451 4.882,4.37854 4.87946,4.37487 "/>
     <polygon id="_460762120" class="fil1" points="5.18229,4.9763 8.96856,8.76257 8.96816,8.77821 8.96699,8.79363 8.96506,8.80884 8.96239,8.8238 8.959,8.83849 8.95491,8.85291 8.95014,8.86702 8.9447,8.88081 8.93863,8.89426 8.93192,8.90736 8.92461,8.92007 8.91672,8.9324 8.90826,8.9443 8.89925,8.95578 8.88972,8.9668 8.87967,8.97734 8.86913,8.98739 8.85813,8.99694 8.84667,9.00595 8.83477,9.01442 8.82246,9.02231 8.80976,9.02963 8.79668,9.03633 8.78324,9.04241 8.76947,9.04785 8.75538,9.05262 8.74099,9.05671 8.72632,9.0601 8.71139,9.06277 8.69621,9.0647 8.68082,9.06587 8.66522,9.06627 4.87895,5.28 4.89455,5.2796 4.90994,5.27843 4.92512,5.2765 4.94005,5.27383 4.95472,5.27044 4.96911,5.26635 4.9832,5.26157 4.99698,5.25614 5.01041,5.25006 5.02349,5.24335 5.03619,5.23604 5.0485,5.22815 5.0604,5.21968 5.07186,5.21067 5.08287,5.20112 5.0934,5.19107 5.10345,5.18052 5.11298,5.1695 5.122,5.15803 5.13045,5.14613 5.13835,5.1338 5.14565,5.12109 5.15236,5.10799 5.15843,5.09454 5.16387,5.08075 5.16864,5.06663 5.17273,5.05222 5.17612,5.03752 5.17879,5.02257 5.18072,5.00736 5.18189,4.99194 "/>
     <polygon id="_460762288" class="fil1" points="4.87895,5.28 8.66522,9.06627 8.64959,9.06587 8.63417,9.0647 8.61897,9.06277 8.60402,9.0601 8.58933,9.05671 8.57492,9.05262 8.56081,9.04785 8.54703,9.04241 8.53358,9.03633 8.52048,9.02963 8.50777,9.02231 8.49545,9.01442 8.48355,9.00595 8.47208,8.99694 8.46106,8.98739 8.45052,8.97734 4.66425,5.19107 4.6748,5.20112 4.68581,5.21067 4.69728,5.21968 4.70919,5.22815 4.7215,5.23604 4.73422,5.24335 4.74731,5.25006 4.76076,5.25614 4.77455,5.26157 4.78865,5.26635 4.80306,5.27044 4.81775,5.27383 4.8327,5.2765 4.8479,5.27843 4.86332,5.2796 "/>
    </g>
    <path id="_457193984" class="fil1" d="M3.99029 1.5519c0.0800906,-0.00477165 0.126634,-0.0344764 0.126634,0.12663l0 0.0709173c0,0.161102 -0.0465472,0.131433 -0.126634,0.12663l-0.504 -0.0302126 0 0.678579 0.152386 0c0.0696535,0 0.126634,0.106358 0.126634,0.236319l0 0.132343c0,0.0213268 -0.00153543,0.0420157 -0.00440945,0.0617047 0.0971969,0.0638937 0.176181,0.153228 0.227496,0.258524l0.702705 0 0.116504 0 0.278598 0c0.0696496,0 0.12663,0.0569882 0.12663,0.126634l0 0.678756c0,0.0696457 -0.0569882,0.126634 -0.12663,0.126634l-0.395102 0c-0.0696457,0 -0.12663,-0.0569803 -0.12663,-0.126634l0 -0.238071 -0.576075 0c-0.105224,0.215913 -0.326799,0.364705 -0.583157,0.364705 -0.25635,0 -0.477929,-0.148791 -0.583154,-0.364705l-0.706717 0 0 0.254551c0,0.0440197 -0.0569803,0.0800394 -0.12663,0.0800394l-0.0507283 0 0 0.134382c0,0.0615709 -0.0569803,0.111949 -0.12663,0.111949l-0.0709173 0c-0.0696496,0 -0.12663,-0.050374 -0.12663,-0.111949l0 -1.50457c0,-0.0615709 0.0569882,-0.111945 0.12663,-0.111945l0.0709173 0c0.0696457,0 0.12663,0.0503819 0.12663,0.111945l0 0.134386 0.0507283 0c0.0696457,0 0.12663,0.0360197 0.12663,0.0800394l0 0.25385 0.706717 0c0.051315,-0.105295 0.130299,-0.194626 0.227492,-0.258524 -0.00287008,-0.019689 -0.00440551,-0.040378 -0.00440551,-0.0617047l0 -0.132343c0,-0.12998 0.0569843,-0.236319 0.126634,-0.236319l0.152386 0 0 -0.678638 -0.503996 0.0302717c-0.0800906,0.00480709 -0.126634,0.0344803 -0.126634,-0.12663l0 -0.0709173c0,-0.16111 0.0465433,-0.131476 0.126634,-0.12663l0.580327 0.0351063 0.589768 -0.0351063zm0.888303 2.82171c0,0 0.303697,0.435343 0.303697,0.602689 0,0.167783 -0.135913,0.303693 -0.303339,0.303693 -0.167705,0 -0.303614,-0.135909 -0.303614,-0.303693 0,-0.167346 0.303256,-0.602689 0.303256,-0.602689z"/>
   </g>
  </g>
  <path class="fil2" d="M3.41333 -3.93701e-006c1.88513,0 3.41333,1.5282 3.41333,3.41333 0,1.88513 -1.5282,3.41333 -3.41333,3.41333 -1.88513,0 -3.41333,-1.5282 -3.41333,-3.41333 0,-1.88513 1.5282,-3.41333 3.41333,-3.41333z"/>
  <polygon class="fil3" points="3.48629,1.78178 3.48629,2.61874 3.32419,2.61874 3.32419,1.78178 "/>
  <path class="fil4" d="M3.1718 2.52445l0.466874 0c0.0696496,0 0.12663,0.106354 0.12663,0.236315l0 0.132343c0,0.129961 -0.0569882,0.236315 -0.12663,0.236315l-0.466874 0c-0.0696417,0 -0.126634,-0.106339 -0.126634,-0.236315l0 -0.132343c0,-0.129976 0.0569843,-0.236315 0.126634,-0.236315z"/>
  <path class="fil5" d="M2.82019 1.5519l0.580331 0.0351102 0.589768 -0.0351102c0.0800906,-0.00476772 0.126634,-0.0344724 0.126634,0.126634l0 0.0709173c0,0.161106 -0.0465472,0.131433 -0.126634,0.126634l-0.585642 -0.0351063 -0.584457 0.0351063c-0.0800866,0.00480709 -0.12663,0.0344764 -0.12663,-0.126634l0 -0.0709173c0,-0.16111 0.0465433,-0.131476 0.12663,-0.126634z"/>
  <path class="fil5" d="M3.40524 2.84863c0.25635,0 0.477929,0.148791 0.583154,0.364709l0.702705 0 0.116504 0 0.278598 0c0.0696496,0 0.12663,0.0569882 0.12663,0.126634l0 0.678756c0,0.0696457 -0.0569882,0.126634 -0.12663,0.126634l-0.395102 0c-0.0696457,0 -0.126634,-0.0569803 -0.126634,-0.126634l0 -0.238071 -0.576071 0c-0.105224,0.215917 -0.326803,0.364705 -0.583154,0.364705 -0.256354,0 -0.477933,-0.148787 -0.583157,-0.364705l-0.724445 0 0 -0.567319 0.724445 0c0.105224,-0.215917 0.326803,-0.364709 0.583157,-0.364709z"/>
  <path class="fil4" d="M1.79119 4.0352l0 -1.07572c0,-0.0440236 0.0569921,-0.0800394 0.126634,-0.0800394l0.0709173 0c0.0696457,0 0.126634,0.0360197 0.126634,0.0800394l0 1.07572c0,0.0440197 -0.0569843,0.0800394 -0.126634,0.0800394l-0.0709173 0c-0.0696496,0 -0.126634,-0.0360157 -0.126634,-0.0800394z"/>
  <path class="fil6" d="M1.61383 4.24963l0 -1.50457c0,-0.0615748 0.0569882,-0.111949 0.12663,-0.111949l0.0709173 0c0.0696457,0 0.126634,0.0503819 0.126634,0.111949l0 1.50457c0,0.0615669 -0.0569843,0.111945 -0.126634,0.111945l-0.0709173 0c-0.0696496,0 -0.12663,-0.050374 -0.12663,-0.111945z"/>
  <path class="fil7" d="M4.57533 4.9763c0,0.167783 0.135909,0.303697 0.303618,0.303697 0.167421,0 0.303335,-0.135913 0.303335,-0.303697 0,-0.167343 -0.303697,-0.602685 -0.303697,-0.602685 0,0 -0.303256,0.435343 -0.303256,0.602685z"/>
  <path class="fil8" d="M4.67646 5.0213c0,0.0510709 0.0413701,0.092437 0.0924134,0.092437 0.0509606,0 0.0923268,-0.0413661 0.0923268,-0.092437 0,-0.0509331 -0.092437,-0.183441 -0.092437,-0.183441 0,0 -0.0923031,0.132508 -0.0923031,0.183441z"/>
 </g>
</svg>
