<?xml version="1.0" encoding="UTF-8"?>
<!DOCTYPE svg PUBLIC "-//W3C//DTD SVG 1.1//EN" "http://www.w3.org/Graphics/SVG/1.1/DTD/svg11.dtd">
<!-- Creator: CorelDRAW -->
<svg xmlns="http://www.w3.org/2000/svg" xml:space="preserve" width="6.82666in" height="6.82666in" style="shape-rendering:geometricPrecision; text-rendering:geometricPrecision; image-rendering:optimizeQuality; fill-rule:evenodd; clip-rule:evenodd"
viewBox="0 0 6.82666 6.82666"
 xmlns:xlink="http://www.w3.org/1999/xlink">
 <defs>
  <style type="text/css">
   <![CDATA[
    .fil2 {fill:none}
    .fil13 {fill:#015154}
    .fil18 {fill:#07484A}
    .fil15 {fill:#0D0D0D}
    .fil19 {fill:#111111}
    .fil14 {fill:#212121}
    .fil1 {fill:#26C6DA}
    .fil16 {fill:#324047}
    .fil9 {fill:#37474F}
    .fil21 {fill:#416825}
    .fil3 {fill:#424242}
    .fil0 {fill:#4DD0E1}
    .fil4 {fill:#595959}
    .fil20 {fill:#8BC34A}
    .fil11 {fill:#015154;fill-rule:nonzero}
    .fil8 {fill:#393939;fill-rule:nonzero}
    .fil6 {fill:#424242;fill-rule:nonzero}
    .fil12 {fill:#455A64;fill-rule:nonzero}
    .fil17 {fill:#6A838E;fill-rule:nonzero}
    .fil10 {fill:#78909C;fill-rule:nonzero}
    .fil7 {fill:#E6E6E5;fill-rule:nonzero}
    .fil5 {fill:#FFFFFE;fill-rule:nonzero}
   ]]>
  </style>
   <clipPath id="id0">
    <path d="M3.41333 -3.93701e-006c1.88513,0 3.41333,1.5282 3.41333,3.41333 0,1.88513 -1.5282,3.41333 -3.41333,3.41333 -1.88513,0 -3.41333,-1.5282 -3.41333,-3.41333 0,-1.88513 1.5282,-3.41333 3.41333,-3.41333z"/>
   </clipPath>
 </defs>
 <g id="Layer_x0020_1">
  <metadata id="CorelCorpID_0Corel-Layer"/>
  <path class="fil0" d="M3.41333 -3.93701e-006c1.88513,0 3.41333,1.5282 3.41333,3.41333 0,1.88513 -1.5282,3.41333 -3.41333,3.41333 -1.88513,0 -3.41333,-1.5282 -3.41333,-3.41333 0,-1.88513 1.5282,-3.41333 3.41333,-3.41333z"/>
  <g style="clip-path:url(#id0)">
   <g id="_457167272">
    <g>
     <polygon id="_4546076801" class="fil1" points="4.53218,1.6688 8.31844,5.45507 8.11832,5.88383 4.33206,2.09756 "/>
     <polygon id="_454607608" class="fil1" points="4.43524,2.24191 8.22151,6.02818 8.08,6.33137 4.29373,2.5451 "/>
     <polygon id="_454609840" class="fil1" points="4.34579,2.59832 8.13206,6.38459 8.14026,6.3938 8.14833,6.40311 8.15626,6.4125 8.16406,6.42198 8.17171,6.43155 8.17922,6.4412 8.1866,6.45094 8.19384,6.46077 8.20093,6.47067 8.20788,6.48065 8.21469,6.49071 8.22136,6.50084 8.22788,6.51105 8.23426,6.52133 8.24049,6.53167 8.24657,6.54209 8.25251,6.55257 8.2583,6.56313 8.26394,6.57374 8.26944,6.58441 8.27478,6.59515 8.27998,6.60594 8.28502,6.61679 8.28991,6.62769 8.29465,6.63865 8.29923,6.64965 4.51296,2.86338 4.50838,2.85237 4.50364,2.84142 4.49875,2.83052 4.49371,2.81967 4.48852,2.80887 4.48317,2.79814 4.47768,2.78746 4.47204,2.77685 4.46624,2.7663 4.46031,2.75582 4.45422,2.7454 4.44799,2.73506 4.44161,2.72478 4.43509,2.71457 4.42843,2.70444 4.42161,2.69438 4.41467,2.6844 4.40757,2.6745 4.40033,2.66467 4.39296,2.65493 4.38544,2.64528 4.37779,2.63571 4.36999,2.62623 4.36206,2.61683 4.35399,2.60753 "/>
     <polygon id="_454609120" class="fil1" points="4.51296,2.86338 8.29923,6.64965 8.3065,6.66802 8.31333,6.68651 8.31974,6.70512 8.32571,6.72385 8.33125,6.74268 8.33635,6.76161 8.341,6.78063 8.34522,6.79973 8.34898,6.8189 8.35229,6.83814 8.35514,6.85744 8.35754,6.87679 8.35947,6.89618 8.36094,6.91561 8.36195,6.93506 8.36248,6.95454 8.36254,6.97403 8.36212,6.99352 8.36122,7.013 8.35983,7.03248 8.35796,7.05194 8.3556,7.07137 8.35275,7.09077 8.3494,7.11012 8.34555,7.12943 8.3412,7.14867 8.33634,7.16785 8.33097,7.18696 8.32509,7.20598 8.3187,7.22492 8.31178,7.24376 8.30435,7.2625 4.51808,3.47622 4.52552,3.45749 4.53243,3.43865 4.53882,3.41971 4.5447,3.40069 4.55007,3.38158 4.55493,3.3624 4.55928,3.34315 4.56313,3.32385 4.56648,3.3045 4.56933,3.2851 4.57169,3.26567 4.57356,3.24621 4.57495,3.22673 4.57585,3.20724 4.57627,3.18776 4.57621,3.16827 4.57568,3.14879 4.57468,3.12934 4.5732,3.10991 4.57127,3.09052 4.56887,3.07117 4.56602,3.05187 4.56271,3.03263 4.55895,3.01346 4.55474,2.99435 4.55008,2.97534 4.54498,2.95641 4.53944,2.93758 4.53347,2.91885 4.52706,2.90024 4.52023,2.88175 "/>
     <polygon id="_454609408" class="fil1" points="4.51808,3.47622 8.30435,7.2625 8.30265,7.26659 8.30092,7.27069 8.29917,7.27478 8.29739,7.27886 8.29559,7.28294 8.29376,7.28701 8.29191,7.29107 8.29003,7.29513 4.50376,3.50886 4.50564,3.5048 4.5075,3.50074 4.50932,3.49667 4.51113,3.49259 4.5129,3.4885 4.51465,3.48442 4.51638,3.48032 "/>
     <polygon id="_454609672" class="fil1" points="4.50376,3.50886 8.29003,7.29513 8.24187,7.39831 4.4556,3.61204 "/>
     <polygon id="_454609720" class="fil1" points="4.4556,3.61204 8.24187,7.39831 8.18039,7.53003 4.39412,3.74376 "/>
     <polygon id="_454609816" class="fil1" points="4.39412,3.74376 8.18039,7.53003 8.11717,7.66549 4.3309,3.87922 "/>
     <polygon id="_454610032" class="fil1" points="4.3309,3.87922 8.11717,7.66549 8.05195,7.80521 4.26568,4.01894 "/>
     <polygon id="_454610584" class="fil1" points="4.26568,4.01894 8.05195,7.80521 7.98872,7.94067 4.20245,4.1544 "/>
     <polygon id="_454610608" class="fil1" points="4.20245,4.1544 7.98872,7.94067 7.92724,8.07239 4.14097,4.28612 "/>
     <polygon id="_454610152" class="fil1" points="4.14097,4.28612 7.92724,8.07239 7.86402,8.20785 4.07775,4.42158 "/>
     <polygon id="_454610176" class="fil1" points="4.07775,4.42158 7.86402,8.20785 7.82719,8.28675 4.04092,4.50048 "/>
     <polygon id="_454610248" class="fil1" points="4.04092,4.50048 7.82719,8.28675 7.79904,8.34704 4.01278,4.56077 "/>
     <polygon id="_454610344" class="fil1" points="4.01278,4.56077 7.79904,8.34704 7.73648,8.31784 3.95022,4.53157 "/>
     <polygon id="_454609984" class="fil1" points="3.95022,4.53157 7.73648,8.31784 7.56137,8.2361 3.7751,4.44983 "/>
     <polygon id="_454610104" class="fil1" points="3.57211,4.35508 7.35837,8.14135 6.98633,7.9677 3.20006,4.18143 "/>
     <polygon id="_454610464" class="fil1" points="3.20006,4.18143 6.98633,7.9677 6.61316,7.79352 2.82689,4.00725 "/>
     <polygon id="_454611376" class="fil1" points="2.70064,4.27774 6.48691,8.06401 6.24585,8.58046 2.45959,4.79419 "/>
     <polygon id="_454610656" class="fil1" points="3.27026,5.26661 7.05652,9.05288 7.05621,9.05274 7.0559,9.05259 7.05559,9.05244 7.05528,9.0523 7.05497,9.05215 7.05466,9.052 7.05435,9.05185 7.05405,9.0517 3.26778,5.26543 3.26809,5.26557 3.26839,5.26572 3.2687,5.26587 3.26901,5.26602 3.26932,5.26617 3.26963,5.26632 3.26994,5.26646 "/>
     <polygon id="_454610728" class="fil1" points="3.26778,5.26543 7.05405,9.0517 7.04415,9.04639 7.03491,9.04047 7.02634,9.03402 7.01848,9.02709 3.23222,5.24081 3.24007,5.24775 3.24864,5.2542 3.25789,5.26011 "/>
     <polygon id="_454610968" class="fil1" points="3.7751,4.44983 7.56137,8.2361 7.43511,8.50659 3.64885,4.72031 "/>
     <polygon id="_454610848" class="fil1" points="2.6239,3.9125 6.41017,7.69878 6.23505,7.61704 2.44878,3.83077 "/>
     <polygon id="_454610920" class="fil1" points="2.44878,3.83077 6.23505,7.61704 6.17249,7.58784 2.38622,3.80157 "/>
     <polygon id="_454610824" class="fil1" points="3.40779,5.23676 7.19406,9.02304 7.19207,9.02695 7.18985,9.03069 7.1874,9.03425 7.18474,9.03763 7.18186,9.04084 7.17878,9.04387 7.17551,9.04671 7.17206,9.04937 7.16843,9.05184 7.16463,9.05413 7.16068,9.05622 7.15657,9.05812 7.15233,9.05983 7.14796,9.06133 7.14346,9.06265 7.13885,9.06376 7.13413,9.06467 7.12931,9.06538 7.12441,9.06589 7.11943,9.06618 7.11437,9.06627 7.10925,9.06614 7.10408,9.06581 7.09886,9.06526 7.09361,9.06448 7.08832,9.0635 7.08302,9.06229 7.07771,9.06086 7.07239,9.05921 7.06709,9.05733 7.06179,9.05522 7.05652,9.05288 3.27026,5.26661 3.27552,5.26895 3.28082,5.27106 3.28613,5.27294 3.29144,5.27459 3.29676,5.27602 3.30206,5.27723 3.30734,5.27821 3.31259,5.27898 3.31781,5.27954 3.32298,5.27987 3.3281,5.28 3.33316,5.27991 3.33814,5.27961 3.34305,5.27911 3.34786,5.2784 3.35258,5.27749 3.35719,5.27638 3.36169,5.27506 3.36606,5.27356 3.37031,5.27185 3.37441,5.26994 3.37836,5.26785 3.38216,5.26557 3.38579,5.2631 3.38924,5.26044 3.39251,5.25759 3.39559,5.25457 3.39847,5.25136 3.40113,5.24798 3.40358,5.24441 3.4058,5.24068 "/>
     <polygon id="_454610896" class="fil1" points="2.45959,4.79419 6.24585,8.58046 6.24387,8.58437 6.24165,8.58811 6.2392,8.59167 6.23653,8.59506 6.23365,8.59826 6.23057,8.60129 6.2273,8.60413 6.22385,8.60679 6.22022,8.60926 6.21643,8.61155 6.21247,8.61364 6.20837,8.61554 6.20413,8.61724 6.19975,8.61876 6.19526,8.62007 6.19064,8.62118 6.18593,8.62209 6.18111,8.6228 6.1762,8.62331 6.17122,8.6236 6.16617,8.62369 6.16105,8.62356 6.15587,8.62322 6.15066,8.62267 6.1454,8.62191 6.14012,8.62092 6.13482,8.61971 6.1295,8.61828 6.12419,8.61663 6.11888,8.61475 6.11359,8.61264 6.10832,8.6103 2.32205,4.82403 2.32732,4.82637 2.33261,4.82848 2.33792,4.83035 2.34324,4.83201 2.34855,4.83344 2.35385,4.83465 2.35913,4.83563 2.36439,4.8364 2.36961,4.83695 2.37478,4.83729 2.3799,4.83742 2.38495,4.83733 2.38994,4.83704 2.39484,4.83653 2.39966,4.83582 2.40437,4.83491 2.40899,4.8338 2.41348,4.83248 2.41786,4.83097 2.4221,4.82927 2.4262,4.82737 2.43016,4.82528 2.43395,4.82299 2.43758,4.82052 2.44104,4.81786 2.44431,4.81502 2.44739,4.81199 2.45026,4.80878 2.45293,4.8054 2.45538,4.80183 2.4576,4.7981 "/>
     <polygon id="_454611016" class="fil1" points="2.32205,4.82403 6.10832,8.6103 6.10801,8.61016 6.1077,8.61001 6.10739,8.60986 6.10707,8.60972 6.10677,8.60957 6.10646,8.60942 6.10615,8.60927 6.10584,8.60912 2.31957,4.82285 2.31988,4.823 2.32019,4.82315 2.3205,4.8233 2.32081,4.82344 2.32112,4.82359 2.32143,4.82374 2.32174,4.82389 "/>
     <polygon id="_454611160" class="fil1" points="2.31957,4.82285 6.10584,8.60912 6.09595,8.60381 6.0867,8.5979 6.07813,8.59144 2.29187,4.80517 2.30043,4.81163 2.30968,4.81754 "/>
     <polygon id="_454611232" class="fil1" points="2.82689,4.00725 6.61316,7.79352 6.48691,8.06401 2.70064,4.27774 "/>
     <polygon id="_454611736" class="fil1" points="3.64885,4.72031 7.43511,8.50659 7.19406,9.02304 3.40779,5.23676 "/>
     <polygon id="_454611856" class="fil1" points="4.42089,2.14661 8.20715,5.93288 8.2125,5.93944 8.21716,5.94645 8.22111,5.95385 8.22435,5.96157 8.22683,5.96957 8.22855,5.97778 8.22948,5.98615 8.22959,5.99461 8.22888,6.0031 8.22731,6.01156 8.22486,6.01994 8.22151,6.02818 4.43524,2.24191 4.43859,2.23367 4.44104,2.22529 4.44261,2.21683 4.44333,2.20833 4.44321,2.19988 4.44228,2.19151 4.44057,2.1833 4.43808,2.1753 4.43485,2.16757 4.43089,2.16018 4.42623,2.15317 "/>
    </g>
    <path id="_457167416" class="fil1" d="M4.39313 2.12606c0.0434449,0.0202795 0.0623937,0.0724094 0.0421181,0.115846l-0.141512 0.303189c0.0967953,0.0913858 0.17115,0.200598 0.219232,0.318283 0.0797362,0.195173 0.0872165,0.413575 0.00511417,0.612843 -0.00450394,0.010937 -0.00926772,0.0218189 -0.014315,0.0326339l-0.0481614 0.103177 -0.0614803 0.13172 -0.0632244 0.135461 -0.0652165 0.13972 -0.0632283 0.135461 -0.0614803 0.13172 -0.0632244 0.135461 -0.0368307 0.0788976 -0.0281417 0.0602913 -0.0625591 -0.0292008 -0.175118 -0.0817362 -0.126252 0.270484 -0.241055 0.516449c-0.0199016,0.0426457 -0.0814843,0.0560118 -0.137535,0.0298465 -0.000830709,-0.000389764 -0.00165748,-0.000783465 -0.00247638,-0.00118504 -0.054437,-0.0266299 -0.0825866,-0.0813976 -0.0629803,-0.123409l0.241055 -0.516445 0.126252 -0.270488 -0.372047 -0.173657 -0.373165 -0.174173 -0.126252 0.270484 -0.241055 0.516449c-0.0199016,0.0426457 -0.0814843,0.0560079 -0.137535,0.0298465 -0.000830709,-0.000389764 -0.00165748,-0.000783465 -0.00247638,-0.0011811 -0.054437,-0.0266299 -0.0825906,-0.0814016 -0.0629803,-0.123413l0.241055 -0.516449 0.126252 -0.270484 -0.175118 -0.0817362 -0.0625591 -0.0292008 0.0281417 -0.0602874 0.0368268 -0.0789055 0.0632244 -0.135457 0.0614843 -0.13172 0.0632244 -0.135461 0.0652165 -0.139724 0.0632283 -0.135457 0.0614803 -0.131724 0.0481575 -0.103173c0.00504724,-0.0108189 0.0103346,-0.0214567 0.015811,-0.0319409 0.100028,-0.190906 0.272232,-0.325437 0.473047,-0.389657 0.12148,-0.0388504 0.253409,-0.0519567 0.386055,-0.0362126l0.138252 -0.296197c0.0219764,-0.0470827 0.0784724,-0.0676181 0.125551,-0.0456457l0.0544528 0.0254173 0.200126 -0.428756 0.130839 0.0610669 0.130835 0.0610709 -0.200122 0.428756 0.0610709 0.0285039z"/>
   </g>
  </g>
  <path class="fil2" d="M3.41333 -3.93701e-006c1.88513,0 3.41333,1.5282 3.41333,3.41333 0,1.88513 -1.5282,3.41333 -3.41333,3.41333 -1.88513,0 -3.41333,-1.5282 -3.41333,-3.41333 0,-1.88513 1.5282,-3.41333 3.41333,-3.41333z"/>
  <rect class="fil3" transform="matrix(-0.308402 0.660736 -0.660735 -0.308402 4.53218 1.6688)" width="0.776236" height="0.396031"/>
  <rect class="fil4" transform="matrix(-0.308402 0.660736 -0.660735 -0.308402 4.53218 1.6688)" width="0.776236" height="0.198016"/>
  <rect class="fil3" transform="matrix(-0.308402 0.660736 -0.660735 -0.308402 4.40134 1.60773)" width="0.776236" height="0.198016"/>
  <path class="fil5" d="M3.6309 4.22912c0.0199055,-0.0426457 0.0814882,-0.0560118 0.137539,-0.0298465 0.0560512,0.0261614 0.0853583,0.0819488 0.0654528,0.124594l-0.426098 0.912894c-0.0199055,0.0426457 -0.0814882,0.0560079 -0.137539,0.0298465 -0.0560512,-0.0261614 -0.0853583,-0.0819488 -0.0654528,-0.124594l0.426098 -0.912894z"/>
  <path class="fil6" d="M3.6309 4.22912c0.0199055,-0.0426496 0.0814882,-0.0560118 0.137539,-0.0298504 0.0560551,0.0261654 0.0853583,0.0819488 0.0654528,0.124598l-0.185043 0.396445 -0.202996 -0.094748 0.185047 -0.396445z"/>
  <path class="fil7" d="M3.6309 4.22912c0.0196102,-0.0420157 0.0796693,-0.0556102 0.135043,-0.0309882l-0.498165 1.0673c-0.0544331,-0.0266339 -0.0825866,-0.0813976 -0.0629764,-0.123413l0.426098 -0.912894z"/>
  <path class="fil8" d="M3.6309 4.22912c0.0196102,-0.0420157 0.0796693,-0.0556102 0.135043,-0.0309882l-0.221079 0.47365 -0.0990118 -0.0462165 0.185047 -0.396445z"/>
  <path class="fil5" d="M2.6827 3.78654c0.0199016,-0.0426457 0.0814843,-0.0560079 0.137539,-0.0298425 0.0560512,0.0261614 0.0853583,0.0819449 0.0654528,0.124591l-0.426098 0.912898c-0.0199055,0.0426457 -0.0814882,0.0560079 -0.137539,0.0298465 -0.0560551,-0.0261654 -0.0853583,-0.0819488 -0.0654567,-0.124594l0.426102 -0.912898z"/>
  <path class="fil6" d="M2.6827 3.78654c0.0199055,-0.0426457 0.0814882,-0.0560118 0.137539,-0.0298465 0.0560551,0.0261614 0.0853583,0.0819488 0.0654528,0.124594l-0.185047 0.396449 -0.202992 -0.094748 0.185047 -0.396449z"/>
  <path class="fil7" d="M2.6827 3.78654c0.0196063,-0.0420118 0.0796654,-0.0556063 0.135039,-0.0309843l-0.498161 1.0673c-0.054437,-0.0266378 -0.0825906,-0.0814016 -0.0629803,-0.123413l0.426102 -0.912898z"/>
  <path class="fil8" d="M2.6827 3.78654c0.0196063,-0.0420118 0.0796654,-0.0556063 0.135039,-0.0309843l-0.221075 0.473646 -0.0990118 -0.0462126 0.185047 -0.396449z"/>
  <path class="fil9" d="M4.43524 2.24191l-0.279264 0.598307 -0.54178 -0.252882 0.276173 -0.591689c0.0219764,-0.0470827 0.0784724,-0.0676181 0.125551,-0.0456457l0.377201 0.176063c0.0434449,0.0202756 0.0623937,0.0724055 0.0421181,0.115846z"/>
  <path class="fil10" d="M4.50376 3.50886l-0.462846 0.991622 -0.0281378 0.0602874 -0.062563 -0.0292008 -1.50143 -0.700799 -0.062563 -0.0292008 0.0281417 -0.0602913 0.462843 -0.991618c0.0970236,-0.207862 0.27702,-0.35385 0.488858,-0.421598 0.21098,-0.0674764 0.453469,-0.0572992 0.676524,0.046815 0.223059,0.104114 0.386591,0.283453 0.470374,0.488508 0.0841181,0.205886 0.0878189,0.437614 -0.00920079,0.645476z"/>
  <path class="fil11" d="M2.45119 3.66237l0.0632283 -0.135457 0.475161 0.221783c0.037252,0.0173898 0.0535039,0.0620866 0.0361142,0.0993386l0 3.93701e-006c-0.0173858,0.037252 -0.0620866,0.0535039 -0.0993386,0.0361181l-0.475165 -0.221787zm0.124709 -0.267177l0.0632244 -0.135461 0.475165 0.221783c0.037252,0.0173898 0.0535039,0.0620866 0.0361142,0.0993425l0 0c-0.0173898,0.0372559 -0.0620866,0.0535079 -0.0993386,0.0361181l-0.475165 -0.221783zm0.128441 -0.275185l0.0632283 -0.135457 0.475161 0.221783c0.0372559,0.0173898 0.0535039,0.0620866 0.0361142,0.0993425l0 0c-0.0173858,0.0372559 -0.0620866,0.0535039 -0.0993386,0.0361181l-0.475165 -0.221787zm0.124709 -0.267181l0.0481575 -0.103173c0.00504724,-0.010815 0.0103346,-0.0214567 0.0158268,-0.0319331l0.474406 0.221433c0.037252,0.0173898 0.0535039,0.0620906 0.0361142,0.0993425l0 3.93701e-006c-0.0173898,0.037252 -0.0620866,0.0535 -0.0993386,0.0361142l-0.475165 -0.221787z"/>
  <path class="fil12" d="M4.07775 4.42158l0.0632244 -0.135461 -0.475165 -0.221783c-0.037252,-0.0173898 -0.0819488,-0.0011378 -0.0993386,0.0361142l0 3.93701e-006c-0.0173898,0.037252 -0.0011378,0.0819528 0.0361142,0.0993386l0.475165 0.221787zm0.124705 -0.267181l0.0632283 -0.135461 -0.475165 -0.221783c-0.037252,-0.0173898 -0.0819488,-0.0011378 -0.0993386,0.0361181l0 0c-0.0173898,0.0372559 -0.0011378,0.0819528 0.0361142,0.0993386l0.475161 0.221787zm0.128445 -0.275181l0.0632244 -0.135461 -0.475161 -0.221783c-0.0372559,-0.0173898 -0.0819528,-0.0011378 -0.0993425,0.0361142l0 0c-0.0173898,0.0372559 -0.0011378,0.0819567 0.0361142,0.0993425l0.475165 0.221787zm0.124709 -0.267181l0.0481575 -0.103177c0.00504724,-0.010815 0.00980709,-0.0216969 0.014315,-0.0326339l-0.474413 -0.221433c-0.037252,-0.0173898 -0.0819528,-0.00113386 -0.0993386,0.0361181l0 0c-0.0173898,0.037252 -0.0011378,0.0819528 0.0361142,0.0993386l0.475165 0.221787z"/>
  <path class="fil13" d="M3.44706 3.25572c0.0390315,-0.0836299 0.138465,-0.11978 0.222091,-0.0807441 0.0836299,0.0390315 0.119776,0.138465 0.0807441,0.222094 -0.0390354,0.083626 -0.138465,0.119776 -0.222094,0.0807402 -0.083626,-0.0390315 -0.119776,-0.138465 -0.0807402,-0.222091z"/>
  <path class="fil14" d="M3.52685 3.29297c0.0184606,-0.0395551 0.0654921,-0.0566496 0.105043,-0.038189 0.0395512,0.0184606 0.0566496,0.0654882 0.038189,0.105043 -0.0184606,0.0395512 -0.0654882,0.0566496 -0.105043,0.038185 -0.0395512,-0.0184606 -0.0566496,-0.0654882 -0.038189,-0.105039z"/>
  <path class="fil15" d="M3.65325 3.34863l-3.93701e-006 3.93701e-006c-0.00201181,0.00431102 -0.0071811,0.00618898 -0.0114961,0.00417717l-0.0944843 -0.0441024c-0.00431102,-0.00201181 -0.00619291,-0.0071811 -0.0041811,-0.0114921l3.93701e-006 -3.93701e-006c0.00201181,-0.00431102 0.00718504,-0.00619291 0.0114961,-0.0041811l0.0944843 0.0441024c0.00431102,0.00201181 0.00619291,0.00718504 0.0041811,0.0114961z"/>
  <path class="fil15" d="M3.62388 3.26785l3.93701e-006 0c0.00431102,0.00201181 0.00618898,0.00718504 0.00417717,0.0114961l-0.0441024 0.0944843c-0.00201181,0.00431102 -0.0071811,0.00619291 -0.0114921,0.0041811l-3.93701e-006 -3.93701e-006c-0.00431102,-0.00201181 -0.00619291,-0.0071811 -0.0041811,-0.0114961l0.0441024 -0.0944843c0.00201181,-0.00431102 0.00718504,-0.00619291 0.0114961,-0.00417717z"/>
  <path class="fil16" d="M3.88509 2.71378l-0.27089 -0.126441 0.276173 -0.591689c0.0219764,-0.0470827 0.0784724,-0.0676181 0.125551,-0.0456457l0.185291 0.0864882 -0.316126 0.677287z"/>
  <path class="fil17" d="M3.20006 4.18143l-0.751272 -0.350661 -0.062563 -0.0292008 0.0281417 -0.0602913 0.462843 -0.991618c0.0970236,-0.207862 0.27702,-0.35385 0.488858,-0.421598 0.21098,-0.0674764 0.453469,-0.0572992 0.676524,0.046815l0.000562992 0.00026378 -0.843094 1.80629z"/>
  <path class="fil12" d="M2.45119 3.66237l0.0632283 -0.135457 0.475161 0.221783c0.037252,0.0173898 0.0535039,0.0620866 0.0361142,0.0993386l0 3.93701e-006c-0.0173858,0.037252 -0.0620866,0.0535039 -0.0993386,0.0361181l-0.475165 -0.221787zm0.124709 -0.267177l0.0632244 -0.135461 0.475165 0.221783c0.037252,0.0173898 0.0535039,0.0620866 0.0361142,0.0993425l0 0c-0.0173898,0.0372559 -0.0620866,0.0535079 -0.0993386,0.0361181l-0.475165 -0.221783zm0.128441 -0.275185l0.0632283 -0.135457 0.475161 0.221783c0.0372559,0.0173898 0.0535039,0.0620866 0.0361142,0.0993425l0 0c-0.0173858,0.0372559 -0.0620866,0.0535039 -0.0993386,0.0361181l-0.475165 -0.221787zm0.124709 -0.267181l0.0481575 -0.103173c0.00504724,-0.010815 0.0103346,-0.0214567 0.0158268,-0.0319331l0.474406 0.221433c0.037252,0.0173898 0.0535039,0.0620906 0.0361142,0.0993425l0 3.93701e-006c-0.0173898,0.037252 -0.0620866,0.0535 -0.0993386,0.0361142l-0.475165 -0.221787z"/>
  <path class="fil18" d="M3.44706 3.25572c0.0390315,-0.0836299 0.138465,-0.11978 0.222091,-0.0807441l0.000551181 0.000267717 -0.141343 0.302819 -0.000559055 -0.000251969c-0.083626,-0.0390315 -0.119776,-0.138465 -0.0807402,-0.222091z"/>
  <path class="fil14" d="M3.52685 3.29297c0.0184606,-0.0395551 0.0654921,-0.0566496 0.105043,-0.038189l0.000551181 0.000267717 -0.0668465 0.143213 -0.000559055 -0.000251969c-0.0395512,-0.0184606 -0.0566496,-0.0654882 -0.038189,-0.105039z"/>
  <path class="fil19" d="M3.59665 3.33176l-0.049378 -0.0230472c-0.00431102,-0.00201181 -0.00619291,-0.0071811 -0.0041811,-0.0114921l3.93701e-006 -3.93701e-006c0.00201181,-0.00431102 0.00718504,-0.00619291 0.0114961,-0.0041811l0.049374 0.0230472 -0.00731496 0.0156772z"/>
  <path class="fil19" d="M3.62388 3.26785l3.93701e-006 0c0.00073622,0.00034252 0.00140551,0.000783465 0.00199213,0.00129134l-0.0511417 0.109567c-0.000767717,-0.000122047 -0.0015315,-0.000354331 -0.00226772,-0.00069685l-3.93701e-006 -3.93701e-006c-0.00431102,-0.00201181 -0.00619291,-0.0071811 -0.0041811,-0.0114961l0.0441024 -0.0944843c0.00201181,-0.00431102 0.00718504,-0.00619291 0.0114961,-0.00417717z"/>
  <path class="fil20" d="M3.85092 2.85995c-0.0498819,0.169169 -0.0119331,0.347362 -0.0279094,0.47415 -0.101374,0.804398 -1.14743,0.0405433 0.0279094,-0.47415z"/>
  <path class="fil21" d="M3.46459 3.81081c0.00354724,-0.186685 -0.0157913,-0.369677 0.0952441,-0.56452 0.0449921,-0.0789488 0.0501693,-0.100457 0.113287,-0.170354l-0.000681102 0.000767717c0.028437,-0.0259055 0.0434134,-0.0322205 0.0750866,-0.0506732 -0.0218504,0.0202874 -0.00565354,0.00664961 -0.0346063,0.027815 -0.0697244,0.0509724 -0.0991457,0.126398 -0.138539,0.200299 -0.110823,0.207913 -0.0733898,0.384988 -0.0795472,0.590354l-0.0302441 -0.033689z"/>
  <path class="fil21" d="M3.52941 3.31045c0.0107559,-0.00980315 0.022122,-0.0194134 0.034189,-0.028811 0.0605748,-0.0471654 0.0715472,-0.0622953 0.143362,-0.0965472l-0.000775591 0.000377953c0.0305591,-0.0110709 0.0442874,-0.0111772 0.0749685,-0.0153819 -0.0235984,0.00880315 -0.00655906,0.00337008 -0.0359882,0.0105709 -0.070878,0.0173465 -0.118157,0.0667756 -0.172732,0.111803 -0.0119921,0.0098937 -0.0232165,0.0199291 -0.033752,0.0301024 -0.0014252,-0.00507087 -0.00476378,-0.00940945 -0.00927165,-0.0121142z"/>
  <path class="fil21" d="M3.47732 3.48033c0.000653543,-0.000511811 0.00129134,-0.0010315 0.00194882,-0.00154331 0.0717008,-0.0558268 0.084689,-0.0737323 0.169689,-0.11428l-0.000917323 0.000448819c0.0361693,-0.0130984 0.0524213,-0.0132283 0.0887323,-0.0182047 -0.0279291,0.0104173 -0.00775984,0.00398819 -0.0425945,0.0125118 -0.0838937,0.0205315 -0.139854,0.0790394 -0.204453,0.132335l-0.00138189 0.00115748c-0.00210236,-0.00527953 -0.00602362,-0.00970866 -0.0110236,-0.0124252z"/>
  <path class="fil21" d="M3.58311 3.23362c-7.87402e-006,-0.00972441 -0.000444882,-0.0193976 -0.0013622,-0.0290197 -0.00461811,-0.0482992 -0.00172047,-0.0623386 -0.0194646,-0.102205l0.000185039 0.000437008c-0.00953543,-0.0141457 -0.0165787,-0.0165945 -0.0300669,-0.025252 0.00722047,0.0111299 0.00148031,0.00383465 0.012626,0.0146811 0.0268425,0.026126 0.0232953,0.0739606 0.0260197,0.119512 0.000594488,0.0100039 0.000716535,0.0199961 0.000401575,0.0299803 0.00361417,-0.00382677 0.00779921,-0.00673622 0.0116614,-0.00813386z"/>
  <path class="fil21" d="M3.50062 3.43372c-5.51181e-005,-0.000622047 -0.000106299,-0.00124803 -0.000165354,-0.00187008 -0.00674409,-0.0682087 -0.00329134,-0.0867559 -0.0266535,-0.14724l0.000244094 0.000661417c-0.0124291,-0.022437 -0.0214646,-0.0279449 -0.0388504,-0.0439724 0.00942126,0.0175669 0.00196063,0.00575197 0.0163898,0.0241063 0.0347441,0.0442126 0.0310472,0.109315 0.0353228,0.173146l8.26772e-005 0.00137795c0.00434646,-0.00349606 0.00919685,-0.00570866 0.0136299,-0.00620866z"/>
 </g>
</svg>
