<?xml version="1.0" encoding="UTF-8"?>
<!DOCTYPE svg PUBLIC "-//W3C//DTD SVG 1.1//EN" "http://www.w3.org/Graphics/SVG/1.1/DTD/svg11.dtd">
<!-- Creator: CorelDRAW -->
<svg xmlns="http://www.w3.org/2000/svg" xml:space="preserve" width="2048px" height="2048px" style="shape-rendering:geometricPrecision; text-rendering:geometricPrecision; image-rendering:optimizeQuality; fill-rule:evenodd; clip-rule:evenodd"
viewBox="0 0 2048 2048"
 xmlns:xlink="http://www.w3.org/1999/xlink">
 <defs>
  <style type="text/css">
   <![CDATA[
    .str0 {stroke:#373435;stroke-width:2.08347}
    .fil2 {fill:none}
    .fil3 {fill:#B3E5FC}
    .fil1 {fill:#F57C00}
    .fil0 {fill:#FF9800}
    .fil6 {fill:#003761;fill-rule:nonzero}
    .fil7 {fill:#00406F;fill-rule:nonzero}
    .fil4 {fill:#01579B;fill-rule:nonzero}
    .fil5 {fill:#E1F5FE;fill-rule:nonzero}
   ]]>
  </style>
   <clipPath id="id0">
    <path d="M1024 -0.0011811c565.541,0 1024,458.461 1024,1024 0,565.541 -458.461,1024 -1024,1024 -565.541,0 -1024,-458.461 -1024,-1024 0,-565.541 458.461,-1024 1024,-1024z"/>
   </clipPath>
 </defs>
 <g id="Layer_x0020_1">
  <metadata id="CorelCorpID_0Corel-Layer"/>
  <path class="fil0" d="M1024 -0.0011811c565.541,0 1024,458.461 1024,1024 0,565.541 -458.461,1024 -1024,1024 -565.541,0 -1024,-458.461 -1024,-1024 0,-565.541 458.461,-1024 1024,-1024z"/>
  <g style="clip-path:url(#id0)">
   <g id="_464389464">
    <g>
     <polygon id="_4667992721" class="fil1" points="1113.37,588.609 2249.25,1724.49 2255.54,1731.63 2261.61,1738.89 2267.47,1746.27 2273.12,1753.75 2278.56,1761.35 2283.78,1769.05 2288.79,1776.84 2293.59,1784.74 2298.17,1792.72 2302.54,1800.79 2306.7,1808.95 2310.64,1817.18 2314.37,1825.48 2317.89,1833.86 2321.2,1842.31 2324.29,1850.81 2327.16,1859.38 2329.83,1867.99 2332.28,1876.66 2334.52,1885.37 2336.54,1894.13 2338.36,1902.92 2339.96,1911.74 2341.34,1920.59 2342.51,1929.47 2343.47,1938.37 2344.22,1947.28 2344.75,1956.21 2345.07,1965.15 2345.18,1974.09 1209.3,838.207 1209.19,829.267 1208.87,820.331 1208.34,811.403 1207.59,802.488 1206.63,793.589 1205.46,784.711 1204.07,775.858 1202.48,767.034 1200.66,758.243 1198.64,749.489 1196.4,740.777 1193.95,732.11 1191.28,723.493 1188.4,714.929 1185.31,706.424 1182.01,697.98 1178.49,689.602 1174.76,681.296 1170.82,673.064 1166.66,664.91 1162.29,656.839 1157.71,648.856 1152.91,640.962 1147.9,633.165 1142.68,625.466 1137.24,617.871 1131.59,610.384 1125.73,603.008 1119.65,595.748 "/>
     <polygon id="_466799296" class="fil1" points="1209.3,838.207 2345.18,1974.09 2345.09,1982.26 2344.82,1990.43 2344.38,1998.59 2343.75,2006.74 2342.95,2014.88 2341.97,2023 2340.82,2031.1 2339.48,2039.19 2337.97,2047.24 2336.28,2055.27 2334.41,2063.27 2332.36,2071.23 2330.13,2079.15 2327.73,2087.04 2325.15,2094.88 2322.39,2102.67 2319.45,2110.41 2316.33,2118.1 2313.04,2125.73 2309.57,2133.3 2305.92,2140.8 2302.09,2148.24 2298.08,2155.62 2293.9,2162.91 2289.54,2170.14 2285,2177.28 2280.28,2184.34 2275.38,2191.32 2270.31,2198.21 2265.05,2205 2259.62,2211.7 2254.01,2218.31 1118.13,1082.43 1123.74,1075.82 1129.17,1069.12 1134.42,1062.32 1139.5,1055.44 1144.4,1048.46 1149.11,1041.4 1153.65,1034.25 1158.02,1027.03 1162.2,1019.73 1166.21,1012.36 1170.04,1004.92 1173.69,997.413 1177.16,989.844 1180.45,982.214 1183.57,974.526 1186.51,966.785 1189.27,958.994 1191.85,951.155 1194.25,943.272 1196.48,935.348 1198.52,927.386 1200.39,919.39 1202.09,911.361 1203.6,903.304 1204.93,895.222 1206.09,887.118 1207.07,878.995 1207.87,870.857 1208.5,862.705 1208.94,854.544 1209.21,846.377 "/>
     <polygon id="_466799536" class="fil1" points="1573.21,1451.54 2709.09,2587.43 2710.4,2588.8 2711.62,2590.22 2712.76,2591.69 2713.81,2593.21 2714.78,2594.76 2715.67,2596.35 2716.47,2597.97 2717.18,2599.63 2717.82,2601.31 2718.36,2603.01 2718.83,2604.73 2719.21,2606.47 2719.5,2608.22 2719.71,2609.98 2719.84,2611.74 2719.88,2613.51 1584,1477.63 1583.96,1475.86 1583.83,1474.09 1583.62,1472.33 1583.33,1470.58 1582.95,1468.85 1582.48,1467.13 1581.93,1465.42 1581.3,1463.74 1580.59,1462.09 1579.78,1460.47 1578.9,1458.88 1577.93,1457.33 1576.88,1455.81 1575.74,1454.34 1574.52,1452.92 "/>
     <polygon id="_466799608" class="fil1" points="1584,1477.63 2719.88,2613.51 2719.84,2615.27 2719.71,2617.03 2719.5,2618.78 2719.21,2620.53 2718.83,2622.26 2718.36,2623.97 2717.82,2625.67 2717.18,2627.34 2716.47,2628.99 2715.67,2630.61 2714.78,2632.19 2713.81,2633.74 2712.76,2635.25 2711.62,2636.72 2710.4,2638.15 2709.09,2639.52 1573.21,1503.64 1574.52,1502.26 1575.74,1500.84 1576.88,1499.37 1577.93,1497.86 1578.9,1496.31 1579.78,1494.72 1580.59,1493.1 1581.3,1491.46 1581.93,1489.78 1582.48,1488.09 1582.95,1486.37 1583.33,1484.64 1583.62,1482.9 1583.83,1481.15 1583.96,1479.39 "/>
     <polygon id="_466799680" class="fil1" points="1573.21,1503.64 2709.09,2639.52 2709.09,2639.6 1573.21,1503.72 "/>
     <polygon id="_466799752" class="fil1" points="1573.21,1503.72 2709.09,2639.6 2674.8,2673.89 1538.92,1538.01 "/>
     <polygon id="_466799824" class="fil1" points="1538.92,1538.01 2674.8,2673.89 2674.7,2674 1538.81,1538.12 "/>
     <polygon id="_466799896" class="fil1" points="1085.47,1115.63 2221.35,2251.51 2214.67,2257.37 2207.89,2263.04 2201,2268.53 2194.02,2273.83 2186.95,2278.94 2179.78,2283.87 2172.52,2288.61 2165.19,2293.17 2157.77,2297.54 2150.27,2301.73 2142.7,2305.73 2135.06,2309.54 2127.35,2313.17 2119.57,2316.61 2111.74,2319.86 2103.84,2322.93 2095.9,2325.81 2087.9,2328.51 2079.86,2331.02 2071.77,2333.35 2063.64,2335.49 2055.48,2337.44 2047.28,2339.2 2039.05,2340.79 2030.79,2342.18 2022.51,2343.39 2014.21,2344.41 2005.9,2345.25 1997.57,2345.9 1989.23,2346.37 1980.88,2346.64 1972.53,2346.74 836.647,1210.86 844.998,1210.76 853.345,1210.48 861.686,1210.02 870.016,1209.37 878.333,1208.53 886.633,1207.51 894.912,1206.3 903.168,1204.9 911.398,1203.32 919.598,1201.56 927.763,1199.6 935.89,1197.46 943.978,1195.14 952.021,1192.63 960.018,1189.93 967.964,1187.05 975.856,1183.98 983.69,1180.72 991.464,1177.28 999.174,1173.66 1006.82,1169.84 1014.39,1165.84 1021.89,1161.66 1029.31,1157.29 1036.64,1152.73 1043.9,1147.99 1051.06,1143.06 1058.14,1137.95 1065.12,1132.64 1072.01,1127.16 1078.79,1121.48 "/>
     <polygon id="_466799968" class="fil1" points="1505.28,1571.65 2641.16,2707.53 2639.78,2708.84 2638.36,2710.06 2636.89,2711.2 2635.38,2712.25 2633.82,2713.22 2632.23,2714.11 2630.61,2714.91 2628.96,2715.63 2627.28,2716.26 2625.58,2716.81 2623.86,2717.27 2622.12,2717.65 2620.37,2717.95 2618.61,2718.16 2616.84,2718.28 2615.07,2718.32 1479.19,1582.44 1480.96,1582.4 1482.73,1582.27 1484.49,1582.06 1486.24,1581.77 1487.97,1581.39 1489.7,1580.92 1491.4,1580.38 1493.08,1579.74 1494.73,1579.03 1496.35,1578.23 1497.94,1577.34 1499.5,1576.37 1501.01,1575.32 1502.48,1574.18 1503.9,1572.96 "/>
     <polygon id="_466800040" class="fil1" points="1479.19,1582.44 2615.07,2718.32 2613.3,2718.28 2611.54,2718.16 2609.77,2717.95 2608.02,2717.65 2606.29,2717.27 2604.56,2716.81 2602.86,2716.26 2601.18,2715.63 2599.53,2714.91 2597.91,2714.11 2596.32,2713.22 2594.77,2712.25 2593.25,2711.2 2591.78,2710.06 2590.36,2708.84 2588.98,2707.53 1453.1,1571.65 1454.48,1572.96 1455.9,1574.18 1457.37,1575.32 1458.88,1576.37 1460.44,1577.34 1462.03,1578.23 1463.65,1579.03 1465.3,1579.74 1466.98,1580.38 1468.68,1580.92 1470.41,1581.39 1472.14,1581.77 1473.89,1582.06 1475.65,1582.27 1477.42,1582.4 "/>
     <polygon id="_466800112" class="fil1" points="1538.81,1538.12 2674.7,2674 2641.16,2707.53 1505.28,1571.65 "/>
     <polygon id="_466800184" class="fil1" points="836.647,1210.86 1972.53,2346.74 1963.59,2346.63 1954.65,2346.31 1945.73,2345.78 1936.81,2345.03 1927.91,2344.07 1919.03,2342.9 1910.18,2341.51 1901.36,2339.92 1892.57,2338.1 1883.81,2336.08 1875.1,2333.84 1866.43,2331.39 1857.82,2328.72 1849.25,2325.85 1840.75,2322.75 1832.3,2319.45 1823.93,2315.93 1815.62,2312.2 1807.39,2308.26 1799.23,2304.1 1791.16,2299.73 1783.18,2295.15 1775.29,2290.35 1767.49,2285.34 1759.79,2280.12 1752.19,2274.68 1744.71,2269.03 1737.33,2263.17 1730.07,2257.09 1722.93,2250.81 587.05,1114.92 594.189,1121.21 601.45,1127.29 608.826,1133.15 616.313,1138.8 623.908,1144.24 631.607,1149.46 639.404,1154.47 647.297,1159.26 655.281,1163.85 663.352,1168.22 671.506,1172.38 679.738,1176.32 688.045,1180.05 696.422,1183.57 704.866,1186.87 713.371,1189.96 721.934,1192.84 730.551,1195.51 739.218,1197.96 747.93,1200.2 756.684,1202.22 765.475,1204.03 774.299,1205.63 783.153,1207.02 792.03,1208.19 800.929,1209.15 809.845,1209.9 818.771,1210.43 827.708,1210.75 "/>
    </g>
    <path id="_464390064" class="fil1" d="M836.647 465.558c95.367,0 190.736,36.3839 263.501,109.148 72.7654,72.7642 109.149,168.134 109.149,263.501 0,87.156 -30.3886,174.314 -91.1646,244.219l130.883 130.883 16.0323 -16.0335c7.19174,-7.19174 16.65,-10.7882 26.0894,-10.7882 9.44056,0 18.8965,3.59646 26.0882,10.7894l255.984 254.268c7.19174,7.19056 10.7906,16.6477 10.7906,26.087 0,9.38977 -3.59764,18.8126 -10.7894,26.0067l-0.0011811 0.0826772 -34.2874 34.2874 -0.10748 0.10748 -33.5362 33.5362c-7.19174,7.19292 -16.6512,10.7906 -26.0882,10.7906 -9.44056,0 -18.8965,-3.59764 -26.0894,-10.7906l-255.985 -254.268c-7.19174,-7.19056 -10.7882,-16.65 -10.7882,-26.087 0,-9.38977 3.59646,-18.8126 10.7882,-26.0067l0.0011811 -0.0826772 18.965 -18.965 -130.616 -130.616c-70.6595,63.4855 -159.739,95.2288 -248.818,95.2288 -95.367,0 -190.734,-36.3839 -263.501,-109.149 -72.7642,-72.7642 -109.148,-168.134 -109.148,-263.499 0,-95.367 36.3839,-190.736 109.148,-263.501 72.7642,-72.7642 168.134,-109.148 263.501,-109.148z"/>
   </g>
  </g>
  <path class="fil2" d="M1024 -0.0011811c565.541,0 1024,458.461 1024,1024 0,565.541 -458.461,1024 -1024,1024 -565.541,0 -1024,-458.461 -1024,-1024 0,-565.541 458.461,-1024 1024,-1024z"/>
  <ellipse class="fil3 str0" cx="836.648" cy="838.207" rx="329.333" ry="329.333"/>
  <path class="fil4" d="M573.147 574.706c72.7642,-72.7642 168.134,-109.148 263.501,-109.148 95.367,0 190.736,36.3839 263.501,109.148 72.7654,72.7642 109.149,168.134 109.149,263.501 0,95.3658 -36.3839,190.735 -109.149,263.499l0 0.0011811c-72.7654,72.7642 -168.134,109.148 -263.501,109.148 -95.367,0 -190.734,-36.3839 -263.499,-109.148l-0.0011811 -0.0011811c-72.7642,-72.7642 -109.148,-168.134 -109.148,-263.499 0,-95.367 36.3839,-190.736 109.148,-263.501zm263.501 -62.5666c-83.4497,0 -166.899,31.8343 -230.566,95.5016 -63.6662,63.665 -95.5005,147.116 -95.5005,230.566 0,83.4497 31.8343,166.898 95.5005,230.566l0.0011811 0c63.6662,63.6662 147.115,95.5016 230.564,95.5016 83.4497,0 166.899,-31.8355 230.566,-95.5016l0.0011811 0c63.6662,-63.6674 95.5005,-147.116 95.5005,-230.566 0,-83.4497 -31.8343,-166.901 -95.5005,-230.566 -63.6662,-63.6674 -147.117,-95.5016 -230.567,-95.5016z"/>
  <path class="fil5" d="M699.513 1011.23c10.0488,7.98898 11.7177,22.6134 3.72992,32.6622 -7.98898,10.0488 -22.6134,11.7189 -32.6622,3.72992 -4.15866,-3.29764 -8.07757,-6.58465 -11.7473,-9.85394 -4.05,-3.60945 -7.78938,-7.12796 -11.2063,-10.5449 -52.1977,-52.1977 -78.2977,-120.612 -78.2977,-189.02 0,-68.4095 26.1,-136.823 78.2977,-189.02 1.59685,-1.59685 4.4315,-4.2626 8.49568,-7.98662 9.44646,-8.64095 24.111,-7.98898 32.752,1.4563 8.64213,9.44646 7.99016,24.111 -1.45512,32.7532 -1.15748,1.06063 -3.44646,3.3 -6.85749,6.71103 -43.0996,43.0996 -64.65,99.593 -64.65,156.086 0,56.4922 21.5504,112.987 64.65,156.086 3.19961,3.19961 6.27048,6.10985 9.20434,8.72481 3.3189,2.95748 6.5693,5.69764 9.74646,8.21575z"/>
  <polygon class="fil4" points="1089.92,1054.21 1251.52,1215.81 1218.58,1248.75 1056.98,1087.15 "/>
  <path class="fil6" d="M1197.12 1265.21l67.9323 -67.9323c7.19174,-7.19174 16.6488,-10.7882 26.0882,-10.7882 9.44056,0 18.8965,3.59646 26.0882,10.7894l255.984 254.267 0.0011811 0.0011811c7.19056,7.19056 10.7894,16.6477 10.7894,26.087 0,9.39095 -3.59764,18.8138 -10.7894,26.0067l0 0.0814961 0 0.0011811 -67.9323 67.9323c-7.19174,7.19174 -16.6512,10.7894 -26.0882,10.7894 -9.44056,0 -18.8965,-3.59764 -26.0882,-10.7894l-255.985 -254.268 0 -0.0011811c-7.19174,-7.19174 -10.7894,-16.65 -10.7894,-26.087 0,-9.38977 3.59764,-18.8126 10.7894,-26.0067l0 -0.0814961 0 -0.0011811z"/>
  <path class="fil7" d="M1231.51 1230.81l0.323622 -0.324803 33.2126 -33.2126c7.19174,-7.19174 16.65,-10.7882 26.0894,-10.7882 9.44056,0 18.8965,3.59646 26.0882,10.7894l255.984 254.267 0 0.0011811c7.19174,7.19056 10.7906,16.6477 10.7906,26.087 0,9.38977 -3.59764,18.8126 -10.7894,26.0067l0 0.0814961 -0.0011811 0.0011811 -34.2874 34.2874 -0.10748 0.10748 -307.303 -307.303z"/>
  <path class="fil6" d="M1197.12 1265.21l34.3949 -34.3949 307.303 307.303 -33.5362 33.5362c-7.19174,7.19292 -16.6512,10.7906 -26.0882,10.7906 -9.44056,0 -18.8965,-3.59764 -26.0894,-10.7906l-255.984 -254.267 -0.0011811 -0.0011811c-7.19174,-7.19056 -10.7882,-16.65 -10.7882,-26.087 0,-9.38977 3.59646,-18.8126 10.7882,-26.0067l0 -0.0826772 0.0011811 0z"/>
 </g>
</svg>
