<?xml version="1.0" encoding="UTF-8"?>
<!DOCTYPE svg PUBLIC "-//W3C//DTD SVG 1.1//EN" "http://www.w3.org/Graphics/SVG/1.1/DTD/svg11.dtd">
<!-- Creator: CorelDRAW X5 -->
<svg xmlns="http://www.w3.org/2000/svg" xml:space="preserve" width="2048px" height="2048px" style="shape-rendering:geometricPrecision; text-rendering:geometricPrecision; image-rendering:optimizeQuality; fill-rule:evenodd; clip-rule:evenodd"
viewBox="0 0 2048 2048"
 xmlns:xlink="http://www.w3.org/1999/xlink">
 <defs>
  <style type="text/css">
   <![CDATA[
    .fil3 {fill:none}
    .fil1 {fill:#01579B}
    .fil2 {fill:#0091EA;fill-rule:nonzero}
    .fil0 {fill:#388E3C;fill-rule:nonzero}
   ]]>
  </style>
 </defs>
 <g id="Layer_x0020_1">
  <metadata id="CorelCorpID_0Corel-Layer"/>
  <path class="fil0" d="M1023 874c41,0 79,17 106,44 27,27 44,65 44,106 0,41 -17,79 -44,106 -27,27 -65,44 -106,44 -41,0 -79,-17 -106,-44 -27,-27 -44,-65 -44,-106 0,-41 17,-79 44,-106 27,-27 65,-44 106,-44z"/>
  <path class="fil1" d="M352 690c56,-113 141,-211 246,-283 125,-86 273,-132 425,-132 199,0 389,79 530,220 141,141 220,331 220,530 0,199 -79,389 -220,530 -141,141 -331,220 -530,220 -188,0 -368,-70 -507,-197 -139,-127 -224,-300 -240,-487l-3 -30 119 -10 3 30c14,157 85,303 202,410 116,107 268,165 425,165 168,0 327,-66 445,-184 118,-118 184,-278 184,-445 0,-168 -66,-327 -184,-445 -118,-118 -278,-184 -445,-184 -128,0 -252,39 -357,111 -82,57 -149,131 -196,218l-117 -34z"/>
  <polygon class="fil2" points="651,739 369,834 341,843 331,815 236,532 "/>
  <rect class="fil3" width="2048" height="2048"/>
 </g>
</svg>
