<?xml version="1.0" encoding="UTF-8"?>
<!DOCTYPE svg PUBLIC "-//W3C//DTD SVG 1.1//EN" "http://www.w3.org/Graphics/SVG/1.1/DTD/svg11.dtd">
<!-- Creator: CorelDRAW -->
<svg xmlns="http://www.w3.org/2000/svg" xml:space="preserve" width="2048px" height="2048px" style="shape-rendering:geometricPrecision; text-rendering:geometricPrecision; image-rendering:optimizeQuality; fill-rule:evenodd; clip-rule:evenodd"
viewBox="0 0 2048 2048"
 xmlns:xlink="http://www.w3.org/1999/xlink">
 <defs>
  <style type="text/css">
   <![CDATA[
    .fil2 {fill:none}
    .fil1 {fill:#512DA8}
    .fil7 {fill:#558B2F}
    .fil0 {fill:#7E57C2}
    .fil6 {fill:#FBC02D}
    .fil5 {fill:#FDD835}
    .fil4 {fill:#FF7043}
    .fil3 {fill:#0277BD;fill-rule:nonzero}
   ]]>
  </style>
   <clipPath id="id0">
    <path d="M1024 -0.0011811c565.541,0 1024,458.461 1024,1024 0,565.541 -458.461,1024 -1024,1024 -565.541,0 -1024,-458.461 -1024,-1024 0,-565.541 458.461,-1024 1024,-1024z"/>
   </clipPath>
 </defs>
 <g id="Layer_x0020_1">
  <metadata id="CorelCorpID_0Corel-Layer"/>
  <path class="fil0" d="M1024 -0.0011811c565.541,0 1024,458.461 1024,1024 0,565.541 -458.461,1024 -1024,1024 -565.541,0 -1024,-458.461 -1024,-1024 0,-565.541 458.461,-1024 1024,-1024z"/>
  <g style="clip-path:url(#id0)">
   <g id="_385667536">
    <g>
     <polygon id="_2840819921" class="fil1" points="880.106,552.376 2015.99,1688.26 2019.09,1691.68 2022.13,1695.15 2025.11,1698.69 2028.01,1702.28 2030.85,1705.93 2033.62,1709.64 2036.32,1713.4 2038.95,1717.21 2041.5,1721.08 2043.99,1724.99 2046.4,1728.96 2048.73,1732.98 2050.99,1737.05 2053.17,1741.16 2055.27,1745.32 2057.29,1749.53 2059.24,1753.79 2061.1,1758.08 2062.88,1762.42 2064.58,1766.8 2066.19,1771.23 2067.72,1775.69 2069.17,1780.19 2070.52,1784.73 2071.79,1789.31 2072.98,1793.92 2074.07,1798.57 2075.07,1803.25 2075.98,1807.97 2076.79,1812.72 940.913,676.834 940.097,672.086 939.187,667.369 938.186,662.686 937.094,658.039 935.913,653.425 934.644,648.849 933.287,644.308 931.843,639.806 930.313,635.344 928.699,630.922 927.001,626.54 925.22,622.2 923.356,617.904 921.413,613.65 919.389,609.442 917.286,605.281 915.106,601.166 912.848,597.098 910.515,593.08 908.105,589.112 905.623,585.194 903.067,581.327 900.44,577.513 897.74,573.754 894.972,570.049 892.133,566.399 889.227,562.806 886.253,559.271 883.212,555.794 "/>
     <polygon id="_284081848" class="fil1" points="1469.2,579.553 2605.08,1715.44 2608.8,1719.84 2612.42,1724.32 2615.93,1728.9 2619.33,1733.56 2622.62,1738.31 2625.8,1743.14 2628.86,1748.05 2631.81,1753.04 2634.64,1758.1 2637.35,1763.24 2639.94,1768.45 2642.4,1773.73 2644.75,1779.08 2646.96,1784.5 2649.04,1789.98 2651,1795.52 2652.82,1801.13 2654.5,1806.79 2656.05,1812.52 2657.46,1818.3 2658.73,1824.13 2659.86,1830.01 2660.84,1835.95 2661.68,1841.93 2662.37,1847.96 2662.91,1854.03 2663.29,1860.14 2663.53,1866.3 2663.61,1872.49 1527.73,736.612 1527.65,730.418 1527.41,724.262 1527.02,718.147 1526.49,712.074 1525.8,706.046 1524.96,700.064 1523.98,694.13 1522.85,688.245 1521.58,682.413 1520.17,676.635 1518.62,670.912 1516.93,665.246 1515.11,659.64 1513.16,654.095 1511.08,648.613 1508.86,643.196 1506.52,637.847 1504.06,632.566 1501.47,627.355 1498.76,622.217 1495.93,617.154 1492.98,612.167 1489.91,607.257 1486.74,602.429 1483.45,597.682 1480.04,593.019 1476.53,588.442 1472.92,583.953 "/>
     <polygon id="_284083528" class="fil1" points="1527.73,736.612 2663.61,1872.49 2663.53,1878.69 2663.29,1884.84 2662.91,1890.96 2662.37,1897.03 2661.68,1903.06 2660.84,1909.04 2659.86,1914.98 2658.73,1920.86 2657.46,1926.69 2656.05,1932.47 2654.5,1938.2 2652.82,1943.86 2651,1949.47 2649.04,1955.01 2646.96,1960.49 2644.75,1965.91 2642.4,1971.26 2639.94,1976.54 2637.35,1981.75 2634.64,1986.89 2631.81,1991.95 2628.86,1996.94 2625.8,2001.85 2622.62,2006.68 2619.33,2011.43 2615.93,2016.09 2612.42,2020.67 2608.8,2025.16 2605.08,2029.55 2601.26,2033.86 2597.33,2038.08 2593.31,2042.2 1457.43,906.316 1461.45,902.196 1465.38,897.981 1469.2,893.672 1472.92,889.273 1476.53,884.783 1480.04,880.207 1483.45,875.544 1486.74,870.797 1489.91,865.967 1492.98,861.059 1495.93,856.072 1498.76,851.009 1501.47,845.871 1504.06,840.66 1506.52,835.379 1508.86,830.029 1511.08,824.612 1513.16,819.131 1515.11,813.585 1516.93,807.979 1518.62,802.313 1520.17,796.59 1521.58,790.811 1522.85,784.979 1523.98,779.095 1524.96,773.16 1525.8,767.177 1526.49,761.149 1527.02,755.077 1527.41,748.961 1527.65,742.805 "/>
     <polygon id="_284083504" class="fil1" points="1457.43,906.316 2593.31,2042.2 2589.92,2045.53 2586.46,2048.78 2582.94,2051.98 2579.35,2055.1 2575.71,2058.15 2572,2061.13 2568.23,2064.04 2564.41,2066.87 2560.52,2069.63 2556.58,2072.32 2552.59,2074.92 2548.54,2077.45 2544.44,2079.9 2540.28,2082.27 2536.07,2084.56 2531.82,2086.77 2527.51,2088.9 2523.16,2090.94 2518.75,2092.89 2514.31,2094.76 2509.82,2096.55 2505.28,2098.24 2500.7,2099.84 2496.08,2101.36 2491.42,2102.78 2486.72,2104.11 2481.98,2105.35 2477.2,2106.49 2472.39,2107.53 2467.54,2108.48 2462.66,2109.33 2457.74,2110.09 1321.86,974.205 1326.78,973.452 1331.66,972.601 1336.51,971.652 1341.32,970.606 1346.1,969.465 1350.84,968.228 1355.54,966.898 1360.2,965.476 1364.82,963.962 1369.4,962.357 1373.93,960.663 1378.43,958.881 1382.87,957.011 1387.28,955.055 1391.63,953.015 1395.94,950.89 1400.19,948.682 1404.4,946.392 1408.55,944.02 1412.66,941.57 1416.71,939.041 1420.7,936.433 1424.64,933.748 1428.53,930.989 1432.35,928.155 1436.12,925.247 1439.83,922.267 1443.47,919.215 1447.06,916.093 1450.58,912.902 1454.04,909.643 "/>
     <polygon id="_284083312" class="fil1" points="943.896,722.549 2079.78,1858.43 2079.53,1864.36 2079.14,1870.25 2078.62,1876.1 2077.95,1881.91 2077.14,1887.68 2076.2,1893.41 2075.13,1899.08 2073.92,1904.71 2072.58,1910.29 2071.11,1915.82 2069.52,1921.29 2067.8,1926.71 2065.95,1932.08 2063.98,1937.38 2061.9,1942.63 2059.69,1947.81 2057.37,1952.93 2054.93,1957.99 2052.37,1962.98 2049.71,1967.9 2046.93,1972.75 2044.05,1977.53 2041.05,1982.24 2037.96,1986.87 2034.76,1991.42 2031.45,1995.9 2028.05,2000.29 2024.55,2004.61 2020.95,2008.84 2017.25,2012.99 2013.46,2017.04 2009.58,2021.01 873.703,885.132 877.583,881.162 881.371,877.103 885.066,872.957 888.666,868.726 892.168,864.412 895.572,860.016 898.874,855.539 902.076,850.985 905.173,846.354 908.164,841.647 911.05,836.868 913.826,832.016 916.491,827.096 919.045,822.106 921.485,817.049 923.808,811.929 926.016,806.746 928.103,801.499 930.07,796.194 931.915,790.83 933.636,785.41 935.231,779.936 936.699,774.408 938.037,768.829 939.245,763.199 940.32,757.523 941.261,751.801 942.067,746.032 942.735,740.222 943.263,734.37 943.651,728.479 "/>
     <polygon id="_284083240" class="fil1" points="1048.13,722.549 2184.01,1858.43 2079.78,1858.43 943.896,722.549 "/>
     <polygon id="_284083096" class="fil1" points="1118.02,906.316 2253.9,2042.2 2249.88,2038.08 1114,902.196 "/>
     <polygon id="_284083216" class="fil1" points="873.703,885.132 2009.58,2021.01 2005.46,2025.04 2001.25,2028.96 1996.94,2032.78 1992.54,2036.5 1988.05,2040.12 1983.47,2043.63 1978.81,2047.03 1974.06,2050.32 1969.24,2053.5 1964.33,2056.56 1959.34,2059.51 1954.28,2062.34 1949.14,2065.05 1943.93,2067.64 1938.65,2070.11 1933.3,2072.45 1927.88,2074.66 1922.4,2076.75 1916.85,2078.7 1911.25,2080.52 1905.58,2082.21 1899.86,2083.75 1894.08,2085.16 1888.25,2086.44 1882.36,2087.56 1876.43,2088.55 1870.45,2089.38 1864.42,2090.07 1858.35,2090.61 1852.23,2091 1846.07,2091.23 1839.88,2091.31 703.999,955.429 710.193,955.351 716.349,955.117 722.464,954.728 728.536,954.19 734.565,953.5 740.547,952.664 746.482,951.68 752.366,950.553 758.199,949.282 763.977,947.872 769.7,946.324 775.366,944.638 780.973,942.818 786.517,940.865 791.999,938.781 797.416,936.568 802.765,934.227 808.047,931.761 813.257,929.172 818.395,926.461 823.458,923.63 828.446,920.682 833.355,917.617 838.183,914.438 842.93,911.148 847.593,907.748 852.171,904.238 856.66,900.622 861.06,896.901 865.368,893.078 869.584,889.155 "/>
     <polygon id="_284082880" class="fil1" points="703.999,955.429 1839.88,2091.31 1833.69,2091.23 1827.53,2091 1821.41,2090.61 1815.34,2090.07 1809.31,2089.38 1803.33,2088.55 1797.4,2087.56 1791.51,2086.44 1785.68,2085.16 1779.9,2083.75 1774.18,2082.21 1768.51,2080.52 1762.91,2078.7 1757.36,2076.75 1751.88,2074.66 1746.46,2072.45 1741.11,2070.11 1735.83,2067.64 1730.62,2065.05 1725.48,2062.34 1720.42,2059.51 1715.43,2056.56 1710.53,2053.5 1705.7,2050.32 1700.95,2047.03 1696.29,2043.63 1691.71,2040.12 1687.22,2036.5 1682.82,2032.78 1678.51,2028.96 1674.3,2025.04 538.415,889.155 542.631,893.078 546.939,896.901 551.339,900.622 555.828,904.238 560.405,907.748 565.068,911.148 569.815,914.438 574.645,917.617 579.553,920.682 584.54,923.63 589.603,926.461 594.741,929.172 599.952,931.761 605.233,934.227 610.583,936.568 616,938.781 621.481,940.865 627.026,942.818 632.633,944.638 638.298,946.324 644.021,947.872 649.8,949.282 655.633,950.553 661.517,951.68 667.451,952.664 673.433,953.5 679.462,954.19 685.534,954.728 691.649,955.117 697.805,955.351 "/>
     <polygon id="_284084272" class="fil1" points="1274.53,976.257 2410.41,2112.14 2404.7,2111.76 2399.04,2111.26 2393.41,2110.62 2387.83,2109.85 2382.28,2108.95 2376.78,2107.93 2371.32,2106.78 2365.91,2105.52 2360.55,2104.13 2355.23,2102.62 2349.97,2100.99 2344.76,2099.24 2339.6,2097.38 2334.5,2095.41 2329.46,2093.32 2324.47,2091.13 2319.55,2088.82 2314.68,2086.41 2309.88,2083.89 2305.14,2081.27 2300.47,2078.54 2295.87,2075.71 2291.34,2072.79 2286.87,2069.76 2282.48,2066.64 2278.17,2063.42 2273.92,2060.11 2269.76,2056.7 2265.67,2053.21 2261.67,2049.63 2257.74,2045.96 2253.9,2042.2 1118.02,906.316 1121.86,910.073 1125.79,913.745 1129.79,917.329 1133.88,920.822 1138.04,924.226 1142.29,927.538 1146.6,930.757 1150.99,933.878 1155.46,936.904 1159.99,939.832 1164.59,942.66 1169.26,945.386 1174,948.009 1178.8,950.528 1183.67,952.941 1188.59,955.246 1193.58,957.442 1198.62,959.528 1203.72,961.502 1208.88,963.361 1214.09,965.107 1219.35,966.734 1224.67,968.244 1230.03,969.634 1235.44,970.902 1240.9,972.048 1246.4,973.07 1251.94,973.965 1257.53,974.733 1263.16,975.373 1268.82,975.881 "/>
     <polygon id="_284083960" class="fil1" points="1321.86,974.205 2457.74,2110.09 2496.6,2229.03 1360.72,1093.14 "/>
     <polygon id="_284083816" class="fil1" points="1584,1332.57 2719.88,2468.45 2719.8,2474.65 2719.57,2480.8 2719.18,2486.92 2718.64,2492.99 2717.95,2499.02 2717.12,2505 2716.13,2510.94 2715.01,2516.82 2713.73,2522.65 2712.32,2528.43 2710.78,2534.15 2709.09,2539.82 2707.27,2545.43 2705.32,2550.97 2703.23,2556.45 2701.02,2561.87 2698.68,2567.22 2696.21,2572.5 2693.62,2577.71 2690.91,2582.85 2688.08,2587.91 2685.13,2592.9 2682.07,2597.81 2678.89,2602.64 2675.6,2607.38 2672.2,2612.05 2668.69,2616.62 2665.08,2621.11 2661.36,2625.51 2657.53,2629.82 2653.61,2634.04 2649.59,2638.16 1513.7,1502.27 1517.73,1498.16 1521.65,1493.94 1525.47,1489.63 1529.19,1485.23 1532.81,1480.74 1536.32,1476.17 1539.72,1471.5 1543.01,1466.76 1546.19,1461.93 1549.25,1457.02 1552.2,1452.03 1555.03,1446.97 1557.74,1441.83 1560.33,1436.62 1562.8,1431.34 1565.14,1425.99 1567.35,1420.57 1569.44,1415.09 1571.39,1409.54 1573.21,1403.94 1574.89,1398.27 1576.44,1392.55 1577.85,1386.77 1579.12,1380.94 1580.25,1375.05 1581.24,1369.12 1582.07,1363.14 1582.76,1357.11 1583.3,1351.04 1583.69,1344.92 1583.92,1338.76 "/>
     <polygon id="_284084152" class="fil1" points="1517.73,1166.99 2653.61,2302.87 2657.53,2307.09 2661.36,2311.39 2665.08,2315.79 2668.69,2320.28 2672.2,2324.86 2675.6,2329.52 2678.89,2334.27 2682.07,2339.1 2685.13,2344.01 2688.08,2348.99 2690.91,2354.06 2693.62,2359.2 2696.21,2364.41 2698.68,2369.69 2701.02,2375.04 2703.23,2380.45 2705.32,2385.94 2707.27,2391.48 2709.09,2397.09 2710.78,2402.75 2712.32,2408.48 2713.73,2414.25 2715.01,2420.09 2716.13,2425.97 2717.12,2431.9 2717.95,2437.89 2718.64,2443.92 2719.18,2449.99 2719.57,2456.1 2719.8,2462.26 2719.88,2468.45 1584,1332.57 1583.92,1326.38 1583.69,1320.22 1583.3,1314.11 1582.76,1308.03 1582.07,1302 1581.24,1296.02 1580.25,1290.09 1579.12,1284.2 1577.85,1278.37 1576.44,1272.59 1574.89,1266.87 1573.21,1261.2 1571.39,1255.6 1569.44,1250.05 1567.35,1244.57 1565.14,1239.15 1562.8,1233.81 1560.33,1228.52 1557.74,1223.31 1555.03,1218.18 1552.2,1213.11 1549.25,1208.12 1546.19,1203.22 1543.01,1198.39 1539.72,1193.64 1536.32,1188.98 1532.81,1184.4 1529.19,1179.91 1525.47,1175.51 1521.65,1171.2 "/>
     <polygon id="_284083768" class="fil1" points="1513.7,1502.27 2649.59,2638.16 2645.47,2642.18 2641.25,2646.1 2636.94,2649.93 2632.54,2653.65 2628.05,2657.26 2623.47,2660.77 2618.81,2664.17 2614.07,2667.47 2609.24,2670.64 2604.33,2673.71 2599.34,2676.66 2594.28,2679.49 2589.14,2682.2 2583.93,2684.79 2578.65,2687.25 2573.3,2689.59 2567.88,2691.81 2562.4,2693.89 2556.85,2695.84 2551.25,2697.66 2545.58,2699.35 2539.86,2700.9 2534.08,2702.31 2528.25,2703.58 2522.36,2704.71 2516.43,2705.69 2510.45,2706.53 2504.42,2707.22 2498.35,2707.75 2492.23,2708.14 2486.07,2708.38 2479.88,2708.46 1344,1572.57 1350.19,1572.49 1356.35,1572.26 1362.46,1571.87 1368.54,1571.33 1374.56,1570.64 1380.55,1569.81 1386.48,1568.82 1392.37,1567.7 1398.2,1566.43 1403.98,1565.02 1409.7,1563.47 1415.37,1561.78 1420.97,1559.96 1426.52,1558.01 1432,1555.93 1437.42,1553.71 1442.77,1551.37 1448.05,1548.9 1453.26,1546.32 1458.4,1543.61 1463.46,1540.77 1468.45,1537.83 1473.35,1534.76 1478.18,1531.58 1482.93,1528.29 1487.59,1524.89 1492.17,1521.38 1496.66,1517.77 1501.06,1514.05 1505.37,1510.22 1509.58,1506.3 "/>
     <polygon id="_284083600" class="fil1" points="1344,1572.57 2479.88,2708.46 2473.69,2708.38 2467.53,2708.14 2461.41,2707.75 2455.34,2707.22 2449.31,2706.53 2443.33,2705.69 2437.4,2704.71 2431.51,2703.58 2425.68,2702.31 2419.9,2700.9 2414.18,2699.35 2408.51,2697.66 2402.91,2695.84 2397.36,2693.89 2391.88,2691.81 2386.46,2689.59 2381.11,2687.25 2375.83,2684.79 2370.62,2682.2 2365.48,2679.49 2360.42,2676.66 2355.43,2673.71 2350.53,2670.64 2345.7,2667.47 2340.95,2664.17 2336.29,2660.77 2331.71,2657.26 2327.22,2653.65 2322.82,2649.93 2318.51,2646.1 2314.3,2642.18 1178.42,1506.3 1182.63,1510.22 1186.94,1514.05 1191.34,1517.77 1195.83,1521.38 1200.4,1524.89 1205.07,1528.29 1209.81,1531.58 1214.64,1534.76 1219.55,1537.83 1224.54,1540.77 1229.6,1543.61 1234.74,1546.32 1239.95,1548.9 1245.23,1551.37 1250.58,1553.71 1256,1555.93 1261.48,1558.01 1267.03,1559.96 1272.63,1561.78 1278.3,1563.47 1284.02,1565.02 1289.8,1566.43 1295.63,1567.7 1301.52,1568.82 1307.45,1569.81 1313.43,1570.64 1319.46,1571.33 1325.53,1571.87 1331.65,1572.26 1337.8,1572.49 "/>
    </g>
    <path id="_385667584" class="fil1" d="M703.999 475.427c66.2717,0 126.272,26.8642 169.704,70.2969 34.8225,34.8213 58.9949,80.2938 67.2095,131.11l114.315 0c10.8343,-42.2552 32.8855,-80.0186 62.7922,-109.924 43.4315,-43.4339 103.433,-70.2981 169.703,-70.2981 66.2717,0 126.272,26.8642 169.706,70.2981 43.4315,43.4315 70.2957,103.433 70.2957,169.702 0,66.2717 -26.8642,126.273 -70.2957,169.704 -35.8382,35.8382 -82.956,60.3957 -135.569,67.8886l38.8607 118.939c59.6091,4.10197 113.234,29.974 152.984,69.7241 43.4315,43.4303 70.2957,103.433 70.2957,169.702 0,66.2717 -26.8642,126.273 -70.2957,169.704 -43.4339,43.4339 -103.434,70.2981 -169.706,70.2981 -66.2705,0 -126.272,-26.8642 -169.703,-70.2981 -43.4327,-43.4315 -70.2969,-103.433 -70.2969,-169.704 0,-66.2693 26.8642,-126.272 70.2969,-169.702 36.5859,-36.5882 84.9296,-61.4186 138.875,-68.3363l-38.6445 -118.275c-61.017,-3.30709 -115.976,-29.4095 -156.506,-69.9414 -43.4327,-43.4315 -70.2969,-103.433 -70.2969,-169.704 0,-4.72087 0.135827,-9.40867 0.405118,-14.0622l-104.232 0c-1.84843,63.4406 -28.3217,120.711 -70.193,162.582 -43.4327,43.4327 -103.433,70.2969 -169.704,70.2969 -66.2705,0 -126.272,-26.8642 -169.703,-70.2969 -43.4327,-43.4327 -70.2969,-103.434 -70.2969,-169.704 0,-66.2705 26.8642,-126.272 70.2969,-169.703 43.4315,-43.4327 103.433,-70.2969 169.703,-70.2969z"/>
   </g>
  </g>
  <path class="fil2" d="M1024 -0.0011811c565.541,0 1024,458.461 1024,1024 0,565.541 -458.461,1024 -1024,1024 -565.541,0 -1024,-458.461 -1024,-1024 0,-565.541 458.461,-1024 1024,-1024z"/>
  <polygon class="fil3" points="1322.3,1122.48 1266.03,950.25 1309.42,936.141 1365.7,1108.37 "/>
  <polygon class="fil3" points="920.581,676.834 1084.66,676.834 1084.66,722.549 920.581,722.549 "/>
  <path class="fil4" d="M703.999 475.427c66.2717,0 126.272,26.8642 169.704,70.2969 43.4327,43.4315 70.2969,103.433 70.2969,169.703 0,66.2705 -26.8642,126.272 -70.2969,169.704 -43.4327,43.4327 -103.433,70.2969 -169.704,70.2969 -66.2705,0 -126.272,-26.8642 -169.703,-70.2969 -43.4327,-43.4327 -70.2969,-103.434 -70.2969,-169.704 0,-66.2705 26.8642,-126.272 70.2969,-169.703 43.4315,-43.4327 103.433,-70.2969 169.703,-70.2969z"/>
  <path class="fil5" d="M704 556.783c19.7043,0 37.5485,7.99016 50.4638,20.9067 12.9165,12.9154 20.9055,30.7595 20.9055,50.4638 0,19.7043 -7.98898,37.5485 -20.9055,50.4638 -12.9154,12.9165 -30.7595,20.9055 -50.4638,20.9055 -19.7043,0 -37.5485,-7.98898 -50.4638,-20.9055 -12.9165,-12.9154 -20.9067,-30.7595 -20.9067,-50.4638 0,-19.7043 7.99016,-37.5485 20.9067,-50.4638 12.9154,-12.9165 30.7595,-20.9067 50.4638,-20.9067z"/>
  <path class="fil6" d="M640.365 697.975l127.271 0c10.9713,0 20.9315,4.47402 28.1374,11.6787 7.20355,7.20591 11.6776,17.1662 11.6776,28.1374l0 114.109 0 22.1717 -22.1705 0 -162.561 0 -22.1705 0 0 -22.1717 0 -114.109c0,-10.9713 4.47402,-20.9315 11.6787,-28.1374 7.20473,-7.20473 17.1662,-11.6787 28.1374,-11.6787z"/>
  <path class="fil4" d="M1344 1092.57c66.2717,0 126.272,26.8642 169.706,70.2981 43.4315,43.4303 70.2957,103.433 70.2957,169.702 0,66.2717 -26.8642,126.273 -70.2957,169.704 -43.4339,43.4339 -103.434,70.2981 -169.706,70.2981 -66.2705,0 -126.272,-26.8642 -169.703,-70.2981 -43.4327,-43.4315 -70.2969,-103.433 -70.2969,-169.704 0,-66.2693 26.8642,-126.272 70.2969,-169.702 43.4315,-43.4339 103.433,-70.2981 169.703,-70.2981z"/>
  <path class="fil5" d="M1344 1173.93c19.7043,0 37.5485,7.98898 50.4638,20.9055 12.9165,12.9165 20.9055,30.7595 20.9055,50.465 0,19.7043 -7.98898,37.5485 -20.9055,50.4638 -12.9154,12.9165 -30.7595,20.9055 -50.4638,20.9055 -19.7043,0 -37.5485,-7.98898 -50.4638,-20.9055 -12.9165,-12.9154 -20.9067,-30.7595 -20.9067,-50.4638 0,-19.7055 7.99016,-37.5485 20.9067,-50.465 12.9154,-12.9165 30.7595,-20.9055 50.4638,-20.9055z"/>
  <path class="fil6" d="M1280.36 1315.12l127.271 0c10.9713,0 20.9315,4.47284 28.1374,11.6787 7.20355,7.20591 11.6776,17.165 11.6776,28.1362l0 114.11 0 22.1705 -22.1705 0 -162.561 0 -22.1705 0 0 -22.1705 0 -114.11c0,-10.9713 4.47402,-20.9303 11.6787,-28.1362 7.20591,-7.20591 17.1662,-11.6787 28.1374,-11.6787z"/>
  <path class="fil7" d="M1287.72 496.611c66.2717,0 126.272,26.8642 169.706,70.2981 43.4315,43.4315 70.2957,103.433 70.2957,169.702 0,66.2717 -26.8642,126.273 -70.2957,169.704 -43.4339,43.4339 -103.434,70.2981 -169.706,70.2981 -66.2705,0 -126.272,-26.8642 -169.703,-70.2981 -43.4327,-43.4315 -70.2969,-103.433 -70.2969,-169.704 0,-66.2693 26.8642,-126.271 70.2969,-169.702 43.4315,-43.4339 103.433,-70.2981 169.703,-70.2981z"/>
  <path class="fil6" d="M1287.73 577.968c19.7043,0 37.5485,7.98898 50.4638,20.9055 12.9165,12.9165 20.9055,30.7595 20.9055,50.465 0,19.7043 -7.98898,37.5485 -20.9055,50.4638 -12.9154,12.9165 -30.7595,20.9055 -50.4638,20.9055 -19.7043,0 -37.5485,-7.98898 -50.4638,-20.9055 -12.9165,-12.9154 -20.9067,-30.7595 -20.9067,-50.4638 0,-19.7055 7.99016,-37.5485 20.9067,-50.465 12.9154,-12.9165 30.7595,-20.9055 50.4638,-20.9055z"/>
  <path class="fil6" d="M1224.09 719.161l127.271 0c10.9713,0 20.9315,4.47402 28.1374,11.6787 7.20355,7.20591 11.6776,17.1662 11.6776,28.1362l0 114.11 0 22.1717 -22.1705 0 -162.561 0 -22.1705 0 0 -22.1717 0 -114.11c0,-10.9701 4.47402,-20.9303 11.6787,-28.1362 7.20591,-7.20473 17.1662,-11.6787 28.1374,-11.6787z"/>
 </g>
</svg>
