<svg id="artwork" xmlns="http://www.w3.org/2000/svg" width="64" height="64" viewBox="0 0 64 64"><title>share</title><path d="M17,15.5A16.5,16.5,0,1,0,33.5,32,16.519,16.519,0,0,0,17,15.5ZM17,46A14.015,14.015,0,0,1,3,32a1.5,1.5,0,0,1,3,0A11.013,11.013,0,0,0,17,43a1.5,1.5,0,1,1,0,3Z" style="fill:#3e3ef4"/><path d="M52,.5A11.488,11.488,0,0,0,41.362,16.352l-8.232,4.7A19.615,19.615,0,0,1,34.6,23.668l8.256-4.717A11.493,11.493,0,1,0,52,.5Zm0,20A8.5,8.5,0,1,1,60.5,12,8.51,8.51,0,0,1,52,20.5Z"/><path d="M63.5,52a11.486,11.486,0,0,0-20.64-6.951L34.6,40.332a19.615,19.615,0,0,1-1.475,2.612l8.232,4.7A11.5,11.5,0,1,0,63.5,52Zm-3,0A8.5,8.5,0,1,1,52,43.5,8.51,8.51,0,0,1,60.5,52Z"/></svg>