<?xml version="1.0" encoding="UTF-8"?>
<!DOCTYPE svg PUBLIC "-//W3C//DTD SVG 1.1//EN" "http://www.w3.org/Graphics/SVG/1.1/DTD/svg11.dtd">
<!-- Creator: CorelDRAW -->
<svg xmlns="http://www.w3.org/2000/svg" xml:space="preserve" width="6.82666in" height="6.82666in" style="shape-rendering:geometricPrecision; text-rendering:geometricPrecision; image-rendering:optimizeQuality; fill-rule:evenodd; clip-rule:evenodd"
viewBox="0 0 6.82666 6.82666"
 xmlns:xlink="http://www.w3.org/1999/xlink">
 <defs>
  <style type="text/css">
   <![CDATA[
    .fil2 {fill:none}
    .fil5 {fill:none;fill-rule:nonzero}
    .fil1 {fill:#7CB342}
    .fil0 {fill:#AED581}
    .fil4 {fill:#424242;fill-rule:nonzero}
    .fil6 {fill:#E65100;fill-rule:nonzero}
    .fil7 {fill:#F57C00;fill-rule:nonzero}
    .fil3 {fill:#FFFFFE;fill-rule:nonzero}
   ]]>
  </style>
   <clipPath id="id0">
    <path d="M3.41333 0c1.88513,0 3.41333,1.5282 3.41333,3.41333 0,1.88513 -1.5282,3.41333 -3.41333,3.41333 -1.88513,0 -3.41333,-1.5282 -3.41333,-3.41333 0,-1.88513 1.5282,-3.41333 3.41333,-3.41333z"/>
   </clipPath>
 </defs>
 <g id="Layer_x0020_1">
  <metadata id="CorelCorpID_0Corel-Layer"/>
  <path class="fil0" d="M3.41333 0c1.88513,0 3.41333,1.5282 3.41333,3.41333 0,1.88513 -1.5282,3.41333 -3.41333,3.41333 -1.88513,0 -3.41333,-1.5282 -3.41333,-3.41333 0,-1.88513 1.5282,-3.41333 3.41333,-3.41333z"/>
  <g style="clip-path:url(#id0)">
   <g id="_414972776">
    <g>
     <path id="_5494025441" class="fil1" d="M8.85878 5.74117l0 0zm-3.78627 -3.78627l0 0z"/>
     <path id="_549402976" class="fil1" d="M6.36387 7.17374l0 0zm-3.78627 -3.78627l0 0z"/>
     <polygon id="_549404776" class="fil1" points="5.28,1.7477 9.06627,5.53397 9.06533,5.53524 9.06437,5.5365 9.06338,5.53775 9.06236,5.53898 9.06131,5.5402 9.06022,5.54139 9.05911,5.54257 9.05798,5.54374 5.27171,1.75747 5.27285,1.7563 5.27396,1.75512 5.27504,1.75393 5.27609,1.75271 5.27711,1.75148 5.27811,1.75023 5.27907,1.74897 "/>
     <polygon id="_549404800" class="fil1" points="5.27171,1.75747 9.05798,5.54374 9.05754,5.54417 5.27127,1.7579 "/>
     <polygon id="_549404728" class="fil1" points="5.27127,1.7579 9.05754,5.54417 8.85878,5.74118 5.07252,1.95491 "/>
     <polygon id="_549404752" class="fil1" points="5.07252,1.95491 8.85878,5.74118 8.85624,5.74361 8.85331,5.74621 8.85002,5.74897 8.84639,5.75185 8.84244,5.75486 8.8382,5.75795 8.83368,5.76113 8.82891,5.76436 8.82392,5.76763 8.81871,5.77093 8.81333,5.77422 8.80778,5.77751 8.8021,5.78075 8.7963,5.78394 8.79041,5.78706 8.78444,5.79009 8.77843,5.79302 8.7724,5.79581 8.76636,5.79845 8.76034,5.80093 8.75436,5.80323 8.74845,5.80532 8.74263,5.80719 8.73691,5.80882 8.73133,5.8102 8.7259,5.8113 8.72065,5.81209 8.71559,5.81258 8.71077,5.81273 8.70618,5.81253 8.70187,5.81196 8.69784,5.811 4.91157,2.02473 4.9156,2.02569 4.91991,2.02626 4.9245,2.02646 4.92933,2.02631 4.93438,2.02582 4.93963,2.02502 4.94506,2.02393 4.95064,2.02255 4.95636,2.02092 4.96219,2.01905 4.96809,2.01696 4.97407,2.01466 4.98009,2.01218 4.98613,2.00954 4.99217,2.00674 4.99818,2.00382 5.00414,2.00079 5.01003,1.99767 5.01583,1.99448 5.02152,1.99124 5.02706,1.98795 5.03244,1.98466 5.03765,1.98136 5.04265,1.97809 5.04741,1.97486 5.05193,1.97168 5.05618,1.96859 5.06013,1.96558 5.06376,1.9627 5.06705,1.95994 5.06997,1.95734 "/>
     <polygon id="_549404896" class="fil1" points="4.91157,2.02473 8.69784,5.811 7.57303,6.93581 3.78676,3.14954 "/>
     <polygon id="_549405208" class="fil1" points="3.78676,3.14954 7.57303,6.93581 7.57162,6.93719 7.57018,6.93852 7.56872,6.93981 7.56723,6.94106 7.56572,6.94227 7.56419,6.94343 7.56263,6.94455 7.56106,6.94563 3.77479,3.15935 3.77636,3.15828 3.77792,3.15716 3.77945,3.156 3.78096,3.15479 3.78245,3.15354 3.78391,3.15225 3.78535,3.15091 "/>
     <polygon id="_549404656" class="fil1" points="4.02366,3.40831 7.80993,7.19459 7.81313,7.19804 7.81623,7.20156 7.81922,7.20514 7.82211,7.20878 7.82489,7.21247 7.82757,7.21622 7.83014,7.22002 7.83261,7.22386 7.83497,7.22776 7.83723,7.2317 7.83938,7.23569 7.84143,7.23971 7.84337,7.24378 7.84521,7.24788 7.84694,7.25202 7.84857,7.25619 7.85009,7.26039 7.85151,7.26462 7.85282,7.26887 7.85403,7.27315 7.85513,7.27746 7.85613,7.28178 7.85702,7.28613 7.85781,7.29048 7.8585,7.29486 7.85907,7.29924 7.85955,7.30364 7.85991,7.30804 7.86018,7.31245 7.86033,7.31687 7.86039,7.32128 4.07412,3.53501 4.07407,3.53059 4.07391,3.52618 4.07365,3.52177 4.07328,3.51737 4.07281,3.51297 4.07223,3.50859 4.07154,3.50421 4.07076,3.49985 4.06987,3.49551 4.06887,3.49119 4.06776,3.48688 4.06656,3.4826 4.06524,3.47835 4.06383,3.47411 4.0623,3.46991 4.06068,3.46574 4.05894,3.46161 4.05711,3.4575 4.05516,3.45344 4.05311,3.44941 4.05096,3.44543 4.0487,3.44149 4.04634,3.43759 4.04387,3.43374 4.0413,3.42994 4.03863,3.4262 4.03584,3.42251 4.03295,3.41887 4.02996,3.41529 4.02686,3.41177 "/>
     <polygon id="_549404992" class="fil1" points="4.07412,3.53501 7.86039,7.32128 7.86033,7.32569 7.86018,7.33011 7.85991,7.33452 7.85955,7.33892 7.85907,7.34331 7.8585,7.3477 7.85781,7.35207 7.85702,7.35643 7.85613,7.36077 7.85513,7.36509 7.85403,7.3694 7.85282,7.37368 7.85151,7.37794 7.85009,7.38217 7.84857,7.38637 7.84694,7.39054 7.84521,7.39467 7.84337,7.39878 7.84143,7.40284 7.83938,7.40687 7.83723,7.41085 7.83497,7.41479 7.83261,7.41869 7.83014,7.42254 7.82757,7.42633 7.82489,7.43008 7.82211,7.43378 7.81922,7.43741 7.81623,7.44099 7.81313,7.44451 7.80993,7.44797 7.80662,7.45136 4.02035,3.66509 4.02366,3.6617 4.02686,3.65824 4.02996,3.65472 4.03295,3.65114 4.03584,3.6475 4.03863,3.64381 4.0413,3.64006 4.04387,3.63626 4.04634,3.63242 4.0487,3.62852 4.05096,3.62458 4.05311,3.62059 4.05516,3.61657 4.05711,3.6125 4.05894,3.6084 4.06068,3.60427 4.0623,3.60009 4.06383,3.59589 4.06524,3.59167 4.06656,3.58741 4.06776,3.58313 4.06887,3.57882 4.06987,3.5745 4.07076,3.57016 4.07154,3.5658 4.07223,3.56143 4.07281,3.55704 4.07328,3.55265 4.07365,3.54824 4.07391,3.54383 4.07407,3.53942 "/>
     <polygon id="_549405328" class="fil1" points="4.02035,3.66509 7.80662,7.45136 7.7571,7.50088 3.97083,3.71461 "/>
     <polygon id="_549405784" class="fil1" points="3.97083,3.71461 7.7571,7.50088 7.65167,7.60633 3.8654,3.82006 "/>
     <polygon id="_549405928" class="fil1" points="2.9949,3.05701 6.78117,6.84328 6.78104,6.84337 2.99477,3.05709 "/>
     <polygon id="_549405520" class="fil1" points="3.76454,3.82802 7.55081,7.6143 7.54662,7.61178 7.54239,7.60935 7.53812,7.60702 7.53381,7.6048 7.52946,7.60266 7.52508,7.60062 7.52066,7.59868 7.51621,7.59683 7.51173,7.59508 7.50722,7.59342 7.50268,7.59186 7.49812,7.5904 7.49353,7.58903 7.48892,7.58776 7.48429,7.58659 7.47964,7.58551 7.47497,7.58452 7.47028,7.58364 7.46558,7.58285 7.46087,7.58215 7.45615,7.58155 7.45141,7.58105 7.44667,7.58064 7.44192,7.58033 7.43717,7.58011 7.43241,7.58 7.42765,7.57997 7.4229,7.58005 7.41814,7.58022 7.41339,7.58048 7.40864,7.58084 7.4039,7.5813 3.61763,3.79503 3.62237,3.79457 3.62712,3.79421 3.63187,3.79394 3.63663,3.79378 3.64139,3.7937 3.64615,3.79372 3.6509,3.79384 3.65565,3.79406 3.6604,3.79437 3.66514,3.79478 3.66988,3.79528 3.6746,3.79588 3.67931,3.79657 3.68401,3.79737 3.6887,3.79825 3.69337,3.79924 3.69802,3.80031 3.70265,3.80149 3.70726,3.80276 3.71185,3.80413 3.71641,3.80559 3.72095,3.80715 3.72546,3.80881 3.72994,3.81056 3.73439,3.81241 3.73881,3.81435 3.74319,3.81639 3.74754,3.81852 3.75185,3.82075 3.75613,3.82308 3.76035,3.8255 "/>
     <polygon id="_549405640" class="fil1" points="3.61763,3.79503 7.4039,7.5813 7.39918,7.58185 7.39446,7.5825 7.38976,7.58325 7.38507,7.58409 7.38039,7.58504 7.37573,7.58607 7.37109,7.58721 7.36646,7.58844 7.36186,7.58977 7.35728,7.5912 7.35273,7.59272 7.3482,7.59434 7.3437,7.59606 7.33923,7.59787 7.3348,7.59979 7.33039,7.6018 7.32602,7.6039 7.32168,7.6061 7.31738,7.6084 7.31312,7.6108 7.30891,7.6133 7.30473,7.61589 7.3006,7.61857 7.29652,7.62136 7.29248,7.62424 7.28849,7.62722 7.28456,7.6303 7.28067,7.63347 7.27684,7.63674 7.27306,7.64011 7.26935,7.64357 7.26569,7.64713 3.47942,3.86086 3.48308,3.8573 3.4868,3.85383 3.49057,3.85047 3.4944,3.8472 3.49829,3.84402 3.50222,3.84095 3.50621,3.83797 3.51025,3.83509 3.51433,3.8323 3.51846,3.82961 3.52264,3.82702 3.52685,3.82453 3.53111,3.82213 3.53541,3.81983 3.53975,3.81763 3.54412,3.81552 3.54853,3.81352 3.55296,3.8116 3.55744,3.80979 3.56194,3.80807 3.56646,3.80645 3.57102,3.80493 3.57559,3.8035 3.5802,3.80217 3.58482,3.80094 3.58946,3.7998 3.59412,3.79876 3.5988,3.79782 3.60349,3.79698 3.60819,3.79623 3.61291,3.79558 "/>
     <polygon id="_549405664" class="fil1" points="3.47942,3.86086 7.26569,7.64713 7.26528,7.64755 3.47901,3.86128 "/>
     <polygon id="_549406024" class="fil1" points="3.47901,3.86128 7.26528,7.64755 7.26504,7.64779 3.47877,3.86152 "/>
     <polygon id="_549406072" class="fil1" points="3.47877,3.86152 7.26504,7.64779 7.26493,7.64789 3.47867,3.86162 "/>
     <polygon id="_549406120" class="fil1" points="3.47867,3.86162 7.26493,7.64789 7.26137,7.65155 7.2579,7.65527 7.25453,7.65904 7.25126,7.66287 7.24808,7.66676 7.245,7.6707 7.24202,7.67469 7.23913,7.67872 7.23635,7.68281 7.23366,7.68694 7.23106,7.69112 7.22857,7.69534 7.22617,7.6996 7.22387,7.7039 7.22166,7.70824 7.21955,7.71261 7.21754,7.71702 7.21563,7.72146 7.21381,7.72593 7.21209,7.73043 7.21047,7.73496 7.20894,7.73952 7.20752,7.7441 7.20619,7.7487 7.20495,7.75333 7.20381,7.75797 7.20278,7.76264 7.20183,7.76731 7.20099,7.77201 7.20024,7.77672 7.19959,7.78143 7.19904,7.78616 3.41277,3.99989 3.41332,3.99516 3.41397,3.99044 3.41472,3.98574 3.41556,3.98104 3.41651,3.97637 3.41755,3.9717 3.41868,3.96706 3.41992,3.96243 3.42125,3.95783 3.42268,3.95325 3.4242,3.94869 3.42582,3.94416 3.42754,3.93966 3.42936,3.93519 3.43127,3.93075 3.43328,3.92634 3.43539,3.92196 3.4376,3.91763 3.4399,3.91333 3.4423,3.90907 3.4448,3.90485 3.44739,3.90067 3.45008,3.89654 3.45287,3.89245 3.45575,3.88841 3.45874,3.88443 3.46181,3.88048 3.46499,3.8766 3.46826,3.87277 3.47163,3.869 3.4751,3.86528 "/>
     <polygon id="_549406144" class="fil1" points="3.41277,3.99989 7.19904,7.78616 7.19857,7.79104 7.1982,7.79591 7.19793,7.8008 7.19777,7.80569 7.19771,7.81058 7.19774,7.81547 7.19789,7.82036 7.19813,7.82524 7.19847,7.83012 7.19892,7.83499 7.19946,7.83985 7.20011,7.84471 7.20086,7.84955 7.20171,7.85437 7.20266,7.85919 7.20371,7.86398 7.20487,7.86875 7.20613,7.8735 7.20748,7.87822 7.20894,7.88293 7.2105,7.88761 7.21216,7.89225 7.21393,7.89687 7.21579,7.90146 7.21776,7.90601 7.21982,7.91052 7.22199,7.915 7.22426,7.91944 7.22663,7.92384 7.22911,7.9282 7.23168,7.93251 7.23436,7.93678 3.44809,4.1505 3.44541,4.14624 3.44284,4.14193 3.44037,4.13757 3.438,4.13317 3.43572,4.12873 3.43356,4.12425 3.43149,4.11974 3.42952,4.11519 3.42766,4.1106 3.42589,4.10598 3.42423,4.10133 3.42267,4.09666 3.42121,4.09195 3.41986,4.08723 3.4186,4.08248 3.41744,4.0777 3.41639,4.07291 3.41544,4.0681 3.41459,4.06328 3.41384,4.05844 3.41319,4.05358 3.41265,4.04872 3.4122,4.04385 3.41186,4.03897 3.41162,4.03409 3.41148,4.0292 3.41144,4.02431 3.4115,4.01942 3.41167,4.01453 3.41193,4.00964 3.4123,4.00476 "/>
     <polygon id="_549405400" class="fil1" points="3.44823,4.15042 7.2345,7.93669 7.23804,7.94277 7.24097,7.94903 7.2433,7.95544 7.24505,7.96195 7.24622,7.96854 7.24681,7.97515 7.24683,7.98177 7.2463,7.98834 7.24522,7.99484 7.24359,8.00122 7.24144,8.00745 7.23876,8.01349 7.23556,8.01931 7.23185,8.02487 7.22764,8.03012 7.22294,8.03504 3.43667,4.24877 3.44137,4.24385 3.44558,4.23859 3.44929,4.23304 3.45249,4.22722 3.45517,4.22118 3.45733,4.21495 3.45895,4.20857 3.46003,4.20207 3.46056,4.1955 3.46054,4.18888 3.45995,4.18226 3.45878,4.17568 3.45704,4.16917 3.4547,4.16276 3.45177,4.1565 "/>
     <polygon id="_549406600" class="fil1" points="3.43667,4.24877 7.22294,8.03504 6.32021,8.93776 2.53394,5.15149 "/>
     <polygon id="_549406744" class="fil1" points="2.53394,5.15149 6.32021,8.93776 6.31822,8.93975 6.31622,8.94173 6.3142,8.94369 6.31219,8.94564 6.31017,8.94758 6.30814,8.94951 6.3061,8.95143 6.30406,8.95333 2.51779,5.16706 2.51983,5.16516 2.52187,5.16324 2.5239,5.16131 2.52592,5.15937 2.52794,5.15742 2.52995,5.15546 2.53195,5.15348 "/>
     <polygon id="_549406216" class="fil1" points="2.51779,5.16706 6.30406,8.95333 6.30421,8.95349 2.51794,5.16722 "/>
     <polygon id="_549406792" class="fil1" points="2.51794,5.16722 6.30421,8.95349 6.2942,8.96046 6.28407,8.96721 6.27385,8.97374 6.26352,8.98005 6.25309,8.98613 6.24258,8.992 6.23197,8.99764 6.22127,9.00306 6.21049,9.00826 6.19963,9.01324 6.18869,9.018 6.17769,9.02254 6.16661,9.02685 6.15546,9.03095 6.14425,9.03482 6.13298,9.03848 6.12166,9.04191 6.11028,9.04511 6.09886,9.0481 6.08739,9.05087 6.07588,9.05341 6.06433,9.05574 6.05275,9.05784 6.04113,9.05972 6.02949,9.06138 6.01783,9.06282 6.00614,9.06404 5.99443,9.06503 5.98271,9.06581 5.97098,9.06636 5.95925,9.06669 5.94751,9.0668 2.16124,5.28053 2.17298,5.28042 2.18472,5.28009 2.19644,5.27954 2.20817,5.27876 2.21987,5.27776 2.23156,5.27655 2.24322,5.27511 2.25487,5.27345 2.26648,5.27157 2.27806,5.26946 2.28961,5.26714 2.30113,5.2646 2.31259,5.26183 2.32402,5.25884 2.33539,5.25563 2.34672,5.2522 2.35798,5.24855 2.36919,5.24468 2.38034,5.24058 2.39142,5.23627 2.40243,5.23173 2.41336,5.22697 2.42422,5.22199 2.435,5.21679 2.4457,5.21137 2.45631,5.20572 2.46683,5.19986 2.47725,5.19378 2.48758,5.18747 2.49781,5.18094 2.50793,5.17419 "/>
     <polygon id="_549406504" class="fil1" points="2.16124,5.28053 5.94751,9.0668 5.93279,9.06663 5.91807,9.06611 5.90337,9.06524 5.88869,9.06402 5.87403,9.06245 5.85941,9.06054 5.84483,9.05828 5.8303,9.05566 5.81582,9.0527 5.80141,9.0494 5.78706,9.04574 5.77279,9.04174 5.7586,9.03739 5.7445,9.03269 5.7305,9.02764 5.71659,9.02224 5.7028,9.0165 5.68913,9.01041 5.67558,9.00396 5.66216,8.99718 5.64888,8.99004 5.63574,8.98256 5.62275,8.97472 5.60993,8.96654 5.59726,8.95802 5.58477,8.94914 5.57246,8.93991 5.56033,8.93034 1.77406,5.14407 1.78619,5.15364 1.7985,5.16287 1.81099,5.17174 1.82366,5.18027 1.83648,5.18845 1.84947,5.19628 1.86261,5.20377 1.87589,5.21091 1.88931,5.21769 1.90286,5.22413 1.91654,5.23023 1.93033,5.23597 1.94423,5.24137 1.95823,5.24641 1.97233,5.25111 1.98652,5.25546 2.00079,5.25947 2.01514,5.26313 2.02956,5.26643 2.04403,5.26939 2.05856,5.272 2.07315,5.27426 2.08776,5.27618 2.10242,5.27775 2.1171,5.27896 2.13181,5.27983 2.14652,5.28036 "/>
     <polygon id="_549406816" class="fil1" points="3.8654,3.82006 7.65167,7.60633 7.64634,7.61119 7.64069,7.61547 7.63476,7.61917 7.6286,7.62228 7.62223,7.62481 7.61571,7.62677 7.60907,7.62814 7.60235,7.62893 7.59561,7.62913 7.58886,7.62876 7.58217,7.6278 7.57556,7.62626 7.56907,7.62415 7.56276,7.62144 7.55666,7.61816 7.55081,7.6143 3.76454,3.82802 3.77039,3.83189 3.7765,3.83517 3.78281,3.83787 3.78929,3.83999 3.7959,3.84153 3.80259,3.84249 3.80934,3.84286 3.81609,3.84266 3.8228,3.84187 3.82944,3.8405 3.83596,3.83854 3.84233,3.83601 3.8485,3.83289 3.85443,3.8292 3.86007,3.82492 "/>
    </g>
    <path id="_414973928" class="fil1" d="M5.07251 1.9549l0 0zm-2.49491 1.43257l0 0zm0.712642 -0.636327c0.0470945,0 0.094248,0.0179252 0.130091,0.0537638l0.246441 0.246441c0.00281496,-0.00423228 0.00608661,-0.00824409 0.0098189,-0.0119764l1.1245 -1.1245c-0.0151417,-0.0387638 0.0433543,-0.137988 0.068374,-0.163008l0.000444882 -0.000433071 0.198752 -0.197008c0.0030748,-0.0030748 0.00634252,-0.00583858 0.00976378,-0.00829134l0.201571 0.201567c-0.00245669,0.00342126 -0.00521654,0.00669291 -0.00829528,0.00977165l-0.000440945 0.000429134 -0.198752 0.197008c-0.0249724,0.0249724 -0.119614,0.0821969 -0.160945,0.0698268l-1.12481 1.1248c-0.00373228,0.00373228 -0.00774409,0.00700394 -0.0119764,0.0098189l0.245567 0.245567c0.0358386,0.0358386 0.0537638,0.0829921 0.0537638,0.130087 0,0.0470866 -0.0179252,0.0942402 -0.0537638,0.130083l-0.0495197 0.0495157 -0.105437 0.105449c-0.0274803,0.0274803 -0.0703937,0.0301339 -0.100854,0.0079685 -0.0444449,-0.0273858 -0.0963858,-0.0383858 -0.146909,-0.0329961 -0.0504488,0.00538189 -0.0995157,0.0273268 -0.138213,0.0658346l-0.000409449 0.000417323 -0.000244094 0.00023622 -0.000102362 0.000102362c-0.0385394,0.0387008 -0.0605118,0.0877953 -0.0658976,0.138272 -0.00553937,0.0519331 0.00624016,0.105366 0.0353228,0.150614l0.000137795 -8.66142e-005c0.0205039,0.031878 0.0148228,0.0730787 -0.0115551,0.0983504l-0.902728 0.902724c-0.00531102,0.00531496 -0.0106969,0.0105039 -0.0161535,0.0155709l0.000149606 0.000153543c-0.10622,0.0755433 -0.23148,0.113315 -0.356697,0.113315 -0.157051,0 -0.314161,-0.0594134 -0.433697,-0.17824l-0.00238583 -0.00237795c-0.118996,-0.119567 -0.178496,-0.276799 -0.178496,-0.433957 0,-0.12735 0.0390709,-0.254736 0.117201,-0.362102l-0.00117717 -0.00118898c0.00362992,-0.00382283 0.00732283,-0.00761417 0.0110748,-0.0113661l0.903835 -0.903839c0.0274803,-0.0274803 0.0703937,-0.0301378 0.100854,-0.0079685 0.0444449,0.0273819 0.0963898,0.0383819 0.146913,0.0329961 0.050622,-0.00540551 0.0998583,-0.0274843 0.138622,-0.066248 0.0387598,-0.0387559 0.0608386,-0.0879921 0.0662402,-0.138618 0.00553543,-0.0519291 -0.00624016,-0.105362 -0.0353268,-0.150614l-0.000133858 8.66142e-005c-0.0205039,-0.031874 -0.0148228,-0.0730748 0.0115551,-0.0983465l0.0871575 -0.0871614 0.066685 -0.066685c0.0358425,-0.0358386 0.0829961,-0.0537638 0.130083,-0.0537638z"/>
   </g>
  </g>
  <path class="fil2" d="M3.41333 0c1.88513,0 3.41333,1.5282 3.41333,3.41333 0,1.88513 -1.5282,3.41333 -3.41333,3.41333 -1.88513,0 -3.41333,-1.5282 -3.41333,-3.41333 0,-1.88513 1.5282,-3.41333 3.41333,-3.41333z"/>
  <path class="fil3" d="M5.04606 1.89024c0.0304213,-0.0304213 0.0304213,-0.079748 0,-0.110169 -0.0304213,-0.0304213 -0.079748,-0.0304213 -0.110169,0l-1.25929 1.25929c-0.0304213,0.0304213 -0.0304213,0.079748 0,0.110169 0.0304213,0.0304173 0.079748,0.0304173 0.110169,0l1.25929 -1.25929z"/>
  <path class="fil4" d="M5.28 1.7477c-0.00245276,0.00342126 -0.0052126,0.00669291 -0.0082874,0.00977165l-0.000444882 0.000429134 -0.198756 0.197 3.93701e-006 7.87402e-006c-0.0260787,0.0260787 -0.128122,0.0873228 -0.166102,0.0677677 -0.0422913,-0.0217756 -0.0834252,-0.0633268 -0.104362,-0.105642 -0.0183504,-0.0370984 0.0419213,-0.139669 0.0674213,-0.165169l0.000440945 -0.000433071 0.19876 -0.197004 -7.87402e-006 -3.93701e-006c0.00307874,-0.00307874 0.00634646,-0.00583858 0.00976772,-0.00829134l0.201567 0.201567z"/>
  <polyline class="fil5" points="3.47901,3.86128 3.47901,3.86128 3.47877,3.86152 3.47867,3.86162 "/>
  <path class="fil6" d="M2.51794 5.16722c-0.10622,0.0755433 -0.23148,0.113315 -0.356701,0.113315 -0.157047,0 -0.314157,-0.0594134 -0.433693,-0.17824 -0.000811024,-0.000775591 -0.0016063,-0.00157087 -0.00238583,-0.00237795 -0.118996,-0.119567 -0.178496,-0.276795 -0.178496,-0.433957 0,-0.127594 0.0392205,-0.255232 0.117657,-0.362728l0.853618 0.863988z"/>
  <path class="fil7" d="M3.42034 2.8049l0.600016 0.60002c0.0358386,0.0358386 0.0537638,0.0829921 0.0537638,0.130087 0,0.0470866 -0.0179252,0.0942402 -0.0537638,0.130083l-0.154961 0.154961 3.93701e-006 3.93701e-006c-0.0274803,0.0274803 -0.0703937,0.0301339 -0.100854,0.0079685 -0.0444449,-0.0273858 -0.0963858,-0.0383858 -0.146909,-0.0329961 -0.0504488,0.00538189 -0.0995157,0.0273268 -0.138213,0.0658346l-0.000755906 0.000755906c-0.0385394,0.0387008 -0.0605118,0.0877953 -0.0658976,0.138272 -0.00553937,0.0519331 0.00624016,0.105366 0.0353228,0.150614l0.000137795 -8.66142e-005c0.0205039,0.031878 0.0148228,0.0730787 -0.0115551,0.0983504l-0.902724 0.90272 -3.93701e-006 3.93701e-006c-0.00549213,0.00549606 -0.0110669,0.0108583 -0.0167165,0.0160945l-0.854539 -0.864921c0.00362992,-0.00382283 0.00732283,-0.00761417 0.0110748,-0.0113661l0.903843 -0.903835 -7.87402e-006 -3.93701e-006c0.0274803,-0.0274803 0.0703937,-0.0301378 0.100854,-0.0079685 0.0444449,0.0273819 0.0963898,0.0383819 0.146913,0.0329961 0.050622,-0.00540551 0.0998583,-0.0274843 0.138618,-0.0662441l3.93701e-006 -3.93701e-006c0.0387598,-0.0387559 0.0608386,-0.0879921 0.0662402,-0.138618 0.00553543,-0.0519291 -0.00624016,-0.105362 -0.0353268,-0.150614l-0.000133858 8.66142e-005c-0.0205039,-0.031874 -0.0148228,-0.0730748 0.0115551,-0.0983465l0.153843 -0.153846c0.0358425,-0.0358386 0.0829961,-0.0537638 0.130083,-0.0537638 0.0470945,0 0.094248,0.0179252 0.130091,0.0537638z"/>
  <path class="fil6" d="M3.42034 2.8049l0.600016 0.60002c0.0358386,0.0358386 0.0537638,0.0829921 0.0537638,0.130087 0,0.0470866 -0.0179252,0.0942402 -0.0537638,0.130083l-0.0495197 0.0495157 -0.877354 -0.84302 0.066685 -0.066685c0.0358425,-0.0358386 0.0829961,-0.0537638 0.130083,-0.0537638 0.0470945,0 0.094248,0.0179252 0.130091,0.0537638z"/>
  <path class="fil6" d="M2.95374 4.13113c0.0152126,-0.0152126 0.0152126,-0.039878 0,-0.0550866 -0.0152087,-0.0152087 -0.039874,-0.0152087 -0.0550827,0l-0.477283 0.477283c-0.0152087,0.0152087 -0.0152087,0.039874 0,0.0550827 0.0152087,0.0152087 0.039874,0.0152087 0.0550827,0l0.477283 -0.47728z"/>
  <path class="fil6" d="M2.74921 3.92659c0.0152087,-0.0152087 0.0152087,-0.039874 0,-0.0550827 -0.0152047,-0.0152087 -0.039874,-0.0152087 -0.0550827,0l-0.477287 0.47728c-0.0152047,0.0152087 -0.0152047,0.039874 0,0.0550827 0.0152126,0.0152126 0.039878,0.0152126 0.0550866,0l0.477283 -0.47728z"/>
 </g>
</svg>
