<?xml version="1.0" encoding="UTF-8"?>
<!DOCTYPE svg PUBLIC "-//W3C//DTD SVG 1.1//EN" "http://www.w3.org/Graphics/SVG/1.1/DTD/svg11.dtd">
<!-- Creator: CorelDRAW -->
<svg xmlns="http://www.w3.org/2000/svg" xml:space="preserve" width="2048px" height="2048px" style="shape-rendering:geometricPrecision; text-rendering:geometricPrecision; image-rendering:optimizeQuality; fill-rule:evenodd; clip-rule:evenodd"
viewBox="0 0 2048 2048"
 xmlns:xlink="http://www.w3.org/1999/xlink">
 <defs>
  <style type="text/css">
   <![CDATA[
    .fil2 {fill:none}
    .fil14 {fill:#0277BD}
    .fil9 {fill:#039BE5}
    .fil7 {fill:#424242}
    .fil12 {fill:#6D4C41}
    .fil8 {fill:#7CB342}
    .fil13 {fill:#BFEBEA}
    .fil1 {fill:#D81B60}
    .fil0 {fill:#F06292}
    .fil10 {fill:#FFB74D}
    .fil11 {fill:#FFD180}
    .fil5 {fill:#FFD54F}
    .fil6 {fill:#FFE082}
    .fil3 {fill:#212121;fill-rule:nonzero}
    .fil17 {fill:#E65100;fill-rule:nonzero}
    .fil16 {fill:#F57C00;fill-rule:nonzero}
    .fil15 {fill:#FB8C00;fill-rule:nonzero}
    .fil4 {fill:#FFB74D;fill-rule:nonzero}
   ]]>
  </style>
   <clipPath id="id0">
    <path d="M1024 -0.0011811c565.541,0 1024,458.461 1024,1024 0,565.541 -458.461,1024 -1024,1024 -565.541,0 -1024,-458.461 -1024,-1024 0,-565.541 458.461,-1024 1024,-1024z"/>
   </clipPath>
 </defs>
 <g id="Layer_x0020_1">
  <metadata id="CorelCorpID_0Corel-Layer"/>
  <path class="fil0" d="M1024 -0.0011811c565.541,0 1024,458.461 1024,1024 0,565.541 -458.461,1024 -1024,1024 -565.541,0 -1024,-458.461 -1024,-1024 0,-565.541 458.461,-1024 1024,-1024z"/>
  <g style="clip-path:url(#id0)">
   <g id="_385675048">
    <g>
     <polygon id="_2374946641" class="fil1" points="1115.27,537.767 2251.15,1673.65 2251.15,1949.2 1115.27,813.321 "/>
     <polygon id="_237495000" class="fil1" points="1286.4,825.832 2422.28,1961.71 2418.67,1959.41 2415.11,1956.98 2411.6,1954.43 2408.15,1951.76 2404.75,1948.97 2401.41,1946.08 2398.13,1943.07 2394.91,1939.96 2391.75,1936.75 2388.65,1933.45 1252.77,797.564 1255.87,800.871 1259.03,804.081 1262.25,807.19 1265.53,810.194 1268.87,813.092 1272.27,815.877 1275.72,818.546 1279.23,821.098 1282.79,823.528 "/>
     <polygon id="_237487320" class="fil1" points="1115.27,813.321 2251.15,1949.2 2251.15,1973.14 1115.27,837.26 "/>
     <polygon id="_237487968" class="fil1" points="1091.33,837.26 2227.21,1973.14 2117.34,1973.14 981.454,837.26 "/>
     <polygon id="_237488040" class="fil1" points="1203.83,707.089 2339.71,1842.97 2338.06,1843 2336.38,1842.67 2334.69,1842 2332.98,1841.01 2331.29,1839.71 2329.6,1838.11 1193.72,702.226 1195.4,703.823 1197.1,705.126 1198.81,706.119 1200.5,706.789 1202.18,707.117 "/>
     <polygon id="_237488016" class="fil1" points="1400.86,825.832 2536.74,1961.71 2536.74,1990.96 1400.86,855.081 "/>
     <polygon id="_237488352" class="fil1" points="1452.87,514.146 2588.75,1650.03 2593.94,1656.33 2598.82,1662.84 2603.41,1669.52 2607.71,1676.34 2611.72,1683.28 2615.44,1690.31 2618.87,1697.39 2622.02,1704.49 2624.88,1711.59 2627.47,1718.66 2629.78,1725.66 2631.81,1732.57 2633.57,1739.35 2635.06,1745.98 2636.29,1752.43 2637.24,1758.66 2637.93,1764.66 2638.37,1770.37 1502.48,634.492 1502.05,628.773 1501.36,622.782 1500.4,616.548 1499.18,610.1 1497.69,603.469 1495.93,596.686 1493.9,589.778 1491.59,582.776 1489,575.71 1486.14,568.61 1482.99,561.506 1479.56,554.426 1475.84,547.401 1471.83,540.461 1467.53,533.637 1462.94,526.955 1458.05,520.448 "/>
     <polygon id="_237488184" class="fil1" points="1504.19,636.21 2640.07,1772.09 2640.59,1772.79 2641.08,1773.54 2641.54,1774.34 2641.98,1775.21 2642.39,1776.12 2642.77,1777.08 2643.12,1778.1 2643.44,1779.16 2643.74,1780.27 2644,1781.42 2644.24,1782.61 2644.44,1783.85 2644.62,1785.12 2644.76,1786.43 2644.87,1787.78 2644.95,1789.16 2645,1790.57 2645.02,1792.02 2645.01,1793.49 2644.96,1794.99 2644.88,1796.51 2644.77,1798.06 2644.62,1799.63 2644.44,1801.22 2644.23,1802.83 2643.98,1804.46 2643.7,1806.1 2643.38,1807.76 2643.02,1809.43 1507.14,673.543 1507.5,671.875 1507.82,670.219 1508.1,668.578 1508.35,666.951 1508.56,665.341 1508.74,663.749 1508.89,662.18 1509,660.63 1509.08,659.105 1509.13,657.606 1509.14,656.134 1509.12,654.69 1509.07,653.278 1508.99,651.897 1508.88,650.551 1508.73,649.239 1508.56,647.965 1508.35,646.731 1508.12,645.537 1507.85,644.385 1507.56,643.277 1507.24,642.215 1506.89,641.202 1506.51,640.237 1506.1,639.323 1505.66,638.462 1505.2,637.654 1504.71,636.903 "/>
     <polygon id="_237488208" class="fil1" points="1507.14,673.543 2643.02,1809.43 2642.12,1813.12 2641.08,1816.68 2639.92,1820.08 2638.66,1823.31 2637.3,1826.35 2635.86,1829.19 2634.34,1831.81 2632.76,1834.2 2631.14,1836.34 2629.47,1838.21 2627.78,1839.8 2626.07,1841.09 2624.36,1842.06 2622.65,1842.71 2620.97,1843.01 2619.31,1842.95 1483.43,707.067 1485.08,707.128 1486.77,706.827 1488.47,706.18 1490.19,705.204 1491.9,703.913 1493.59,702.324 1495.26,700.453 1496.88,698.317 1498.46,695.93 1499.98,693.308 1501.42,690.467 1502.78,687.425 1504.04,684.194 1505.2,680.794 1506.24,677.238 "/>
     <polygon id="_237487920" class="fil1" points="1115.27,513.826 2251.15,1649.71 2251.15,1673.65 1115.27,537.767 "/>
     <polygon id="_237488136" class="fil1" points="1436.72,890.632 2572.6,2026.51 2574.25,2044.3 1438.37,908.418 "/>
     <polygon id="_237487800" class="fil1" points="1514.57,956.123 2650.45,2092.01 2653.35,2095.29 2656.14,2098.71 2658.85,2102.28 2661.47,2105.98 2664.02,2109.82 2666.48,2113.78 2668.88,2117.87 2671.22,2122.08 2673.49,2126.41 2675.71,2130.86 2677.88,2135.42 2680.01,2140.09 2682.1,2144.86 2684.15,2149.74 2686.18,2154.72 2688.18,2159.79 2690.16,2164.96 2692.13,2170.21 2694.08,2175.55 2696.04,2180.97 2697.99,2186.47 2699.95,2192.05 2701.93,2197.7 2703.91,2203.42 2705.92,2209.2 2707.96,2215.04 1572.08,1079.16 1570.04,1073.32 1568.03,1067.53 1566.04,1061.82 1564.07,1056.17 1562.11,1050.59 1560.16,1045.09 1558.2,1039.67 1556.24,1034.33 1554.28,1029.08 1552.3,1023.91 1550.29,1018.84 1548.27,1013.86 1546.22,1008.98 1544.13,1004.21 1542,999.538 1539.83,994.978 1537.61,990.53 1535.34,986.199 1533,981.986 1530.6,977.897 1528.13,973.933 1525.59,970.098 1522.97,966.398 1520.26,962.832 1517.46,959.405 "/>
     <polygon id="_237487824" class="fil1" points="1572.08,1079.16 2707.96,2215.04 2498.48,2215.04 1362.6,1079.16 "/>
     <polygon id="_237488088" class="fil1" points="1115.27,837.26 2251.15,1973.14 2227.21,1973.14 1091.33,837.26 "/>
     <polygon id="_330232704" class="fil1" points="981.454,837.26 2117.34,1973.14 2114.84,1977.47 978.957,841.586 "/>
     <polygon id="_330232824" class="fil1" points="978.957,841.586 2114.84,1977.47 2076.52,2043.84 940.638,907.957 "/>
     <polygon id="_330232488" class="fil1" points="1324.48,1079.16 2460.36,2215.04 2251.15,2215.04 1115.27,1079.16 "/>
     <polygon id="_330232896" class="fil1" points="858.487,837.26 1994.37,1973.14 1648.55,1973.14 512.665,837.26 "/>
     <polygon id="_330232464" class="fil1" points="1199.48,1142.43 2335.36,2278.31 2353.07,2308.98 1217.19,1173.1 "/>
     <polygon id="_330232560" class="fil1" points="940.638,907.957 2076.52,2043.84 2055.85,2079.63 919.971,943.752 "/>
     <polygon id="_330232368" class="fil1" points="1217.19,1173.1 2353.07,2308.98 2385.9,2365.85 1250.02,1229.97 "/>
     <polygon id="_330233016" class="fil1" points="1483.43,707.067 2619.31,1842.95 2618,1847.53 2616.6,1852.09 2615.1,1856.63 2613.51,1861.13 2611.82,1865.61 2610.04,1870.05 2608.17,1874.45 2606.21,1878.81 2604.17,1883.12 2602.03,1887.38 2599.82,1891.59 2597.52,1895.75 2595.14,1899.84 2592.69,1903.87 2590.15,1907.84 2587.54,1911.73 2584.86,1915.55 2582.1,1919.3 2579.27,1922.96 2576.37,1926.54 2573.4,1930.04 2570.37,1933.44 2567.27,1936.75 2564.11,1939.96 2560.89,1943.07 2557.61,1946.07 2554.27,1948.97 2550.87,1951.76 2547.42,1954.43 2543.91,1956.98 2540.35,1959.41 2536.74,1961.71 1400.86,825.832 1404.47,823.528 1408.03,821.097 1411.53,818.545 1414.99,815.874 1418.38,813.089 1421.73,810.192 1425.01,807.187 1428.23,804.077 1431.39,800.867 1434.49,797.559 1437.52,794.156 1440.49,790.662 1443.39,787.082 1446.22,783.418 1448.97,779.672 1451.66,775.851 1454.27,771.956 1456.8,767.991 1459.26,763.959 1461.64,759.864 1463.94,755.71 1466.15,751.499 1468.28,747.236 1470.33,742.923 1472.29,738.565 1474.16,734.166 1475.94,729.726 1477.63,725.251 1479.22,720.745 1480.72,716.209 1482.12,711.649 "/>
     <polygon id="_330233040" class="fil1" points="1568.97,1233.67 2704.85,2369.56 2704.85,2390.07 1568.97,1254.18 "/>
     <polygon id="_330232416" class="fil1" points="1362.6,1079.16 2498.48,2215.04 2460.36,2215.04 1324.48,1079.16 "/>
     <polygon id="_330233496" class="fil1" points="1568.97,1254.18 2704.85,2390.07 2704.85,2626.16 1568.97,1490.28 "/>
     <polygon id="_330233160" class="fil1" points="1568.97,1490.28 2704.85,2626.16 2704.85,2646.67 1568.97,1510.79 "/>
     <polygon id="_330233328" class="fil1" points="1568.97,1510.79 2704.85,2646.67 2684.34,2646.67 1548.46,1510.79 "/>
     <polygon id="_330233232" class="fil1" points="1250.02,1229.97 2385.9,2365.85 2388.04,2369.56 1252.16,1233.67 "/>
     <polygon id="_330233352" class="fil1" points="512.665,837.26 1648.55,1973.14 1624.61,1973.14 488.725,837.26 "/>
     <polygon id="_330233376" class="fil1" points="883.529,1198.08 2019.41,2333.96 2018.33,2337.87 2017.19,2341.75 2015.99,2345.61 2014.73,2349.44 2013.41,2353.25 2012.04,2357.02 2010.61,2360.76 2009.13,2364.46 2007.58,2368.13 2005.98,2371.76 2004.33,2375.35 2002.62,2378.9 2000.86,2382.41 1999.04,2385.87 1997.16,2389.29 1995.23,2392.65 1993.25,2395.97 1991.21,2399.24 1989.13,2402.45 1986.98,2405.61 1984.79,2408.71 1982.54,2411.75 1980.24,2414.73 1977.89,2417.65 1975.49,2420.51 1973.04,2423.3 1970.53,2426.02 1967.98,2428.67 1965.37,2431.26 1962.72,2433.77 1960.01,2436.21 1957.26,2438.57 821.376,1302.68 824.13,1300.32 826.835,1297.89 829.49,1295.38 832.096,1292.79 834.65,1290.14 837.154,1287.42 839.609,1284.62 842.011,1281.77 844.361,1278.85 846.661,1275.87 848.909,1272.83 851.103,1269.72 853.244,1266.57 855.334,1263.36 857.37,1260.09 859.352,1256.77 861.281,1253.4 863.155,1249.99 864.974,1246.53 866.738,1243.02 868.449,1239.47 870.103,1235.88 871.701,1232.25 873.244,1228.58 874.73,1224.87 876.159,1221.14 877.531,1217.36 878.847,1213.56 880.105,1209.73 881.305,1205.87 882.446,1201.99 "/>
     <polygon id="_330225792" class="fil1" points="848.924,1001.68 1984.81,2137.56 1987.45,2140.46 1990,2143.44 1992.47,2146.49 1994.85,2149.62 1997.15,2152.82 1999.37,2156.09 2001.5,2159.42 2003.54,2162.82 2005.51,2166.29 2007.39,2169.81 2009.18,2173.39 2010.9,2177.03 2012.53,2180.73 2014.08,2184.48 2015.55,2188.27 2016.94,2192.12 2018.25,2196.01 2019.48,2199.94 2020.63,2203.92 2021.7,2207.93 2022.69,2211.99 2023.6,2216.07 2024.44,2220.2 2025.19,2224.35 2025.87,2228.53 2026.47,2232.74 2027,2236.97 2027.45,2241.22 2027.82,2245.5 2028.12,2249.79 2028.34,2254.1 2028.49,2258.42 892.609,1122.54 892.462,1118.22 892.238,1113.91 891.941,1109.62 891.568,1105.34 891.119,1101.09 890.593,1096.86 889.991,1092.65 889.312,1088.47 888.555,1084.31 887.721,1080.19 886.809,1076.1 885.818,1072.05 884.748,1068.04 883.599,1064.06 882.369,1060.13 881.061,1056.23 879.672,1052.39 878.201,1048.59 876.65,1044.85 875.017,1041.15 873.303,1037.51 871.505,1033.93 869.626,1030.4 867.663,1026.94 865.616,1023.54 863.487,1020.2 861.272,1016.94 858.973,1013.74 856.589,1010.61 854.12,1007.56 851.565,1004.58 "/>
     <polygon id="_330225912" class="fil1" points="912.918,1162.24 2048.8,2298.12 2048.31,2300.22 2047.78,2302.28 2047.21,2304.3 2046.61,2306.28 2045.97,2308.21 2045.3,2310.1 2044.6,2311.93 2043.87,2313.72 2043.11,2315.45 2042.33,2317.13 2041.52,2318.74 2040.7,2320.3 2039.85,2321.79 2038.98,2323.22 2038.09,2324.58 2037.19,2325.87 2036.28,2327.09 2035.35,2328.23 2034.42,2329.29 2033.47,2330.28 2032.52,2331.18 2031.56,2332 2030.6,2332.73 2029.63,2333.38 2028.67,2333.93 2027.71,2334.39 2026.74,2334.76 2025.79,2335.02 2024.84,2335.19 2023.9,2335.25 2022.97,2335.21 2022.05,2335.06 886.166,1199.18 887.087,1199.33 888.018,1199.37 888.96,1199.31 889.908,1199.14 890.864,1198.87 891.824,1198.51 892.788,1198.05 893.751,1197.5 894.716,1196.85 895.678,1196.12 896.636,1195.3 897.589,1194.4 898.535,1193.41 899.472,1192.35 900.398,1191.2 901.312,1189.99 902.213,1188.7 903.098,1187.34 903.966,1185.91 904.815,1184.42 905.643,1182.86 906.448,1181.24 907.231,1179.57 907.987,1177.84 908.717,1176.05 909.418,1174.21 910.087,1172.33 910.725,1170.39 911.329,1168.41 911.897,1166.39 912.427,1164.33 "/>
     <polygon id="_330225576" class="fil1" points="886.166,1199.18 2022.05,2335.06 2021.7,2334.98 2021.36,2334.87 2021.02,2334.76 2020.69,2334.63 2020.36,2334.48 2020.04,2334.32 2019.72,2334.15 2019.41,2333.96 883.529,1198.08 883.841,1198.26 884.157,1198.44 884.479,1198.6 884.806,1198.74 885.139,1198.88 885.475,1198.99 885.819,1199.09 "/>
     <polygon id="_330225984" class="fil1" points="845.955,998.619 1981.84,2134.5 1984.81,2137.56 848.924,1001.68 "/>
     <polygon id="_330225552" class="fil1" points="1052.67,1510.79 2188.55,2646.67 2168.03,2646.67 1032.15,1510.79 "/>
     <polygon id="_330225672" class="fil1" points="821.376,1302.68 1957.26,2438.57 1955.96,2439.64 1954.66,2440.7 1953.37,2441.74 1952.08,2442.76 1950.79,2443.77 1949.5,2444.76 1948.21,2445.72 1946.93,2446.68 1945.64,2447.61 1944.36,2448.53 1943.08,2449.43 1941.8,2450.31 1940.53,2451.17 1939.25,2452.02 1937.98,2452.85 1936.71,2453.67 800.827,1317.78 802.098,1316.97 803.37,1316.14 804.644,1315.29 805.921,1314.43 807.199,1313.54 808.479,1312.65 809.761,1311.73 811.045,1310.79 812.33,1309.84 813.617,1308.87 814.906,1307.89 816.197,1306.88 817.489,1305.86 818.783,1304.82 820.079,1303.76 "/>
     <polygon id="_330226056" class="fil1" points="800.827,1317.78 1936.71,2453.67 1936.71,2505.49 800.827,1369.61 "/>
     <polygon id="_330226104" class="fil1" points="800.827,1369.61 1936.71,2505.49 1936.71,2505.7 1936.71,2505.91 1936.7,2506.12 1936.7,2506.33 1936.7,2506.53 1936.69,2506.74 1936.68,2506.95 1936.68,2507.15 800.796,1371.27 800.803,1371.06 800.809,1370.86 800.815,1370.65 800.819,1370.44 800.822,1370.24 800.825,1370.03 800.827,1369.82 "/>
     <polygon id="_330226128" class="fil1" points="926.394,1436.03 2062.27,2571.91 2065.82,2575.34 2069.25,2578.93 2072.56,2582.69 2075.76,2586.61 2078.86,2590.7 2081.87,2594.94 2084.78,2599.33 2087.61,2603.87 2090.36,2608.56 2093.03,2613.38 2095.64,2618.35 2098.18,2623.44 2100.67,2628.66 2103.11,2634.01 2105.5,2639.48 2107.85,2645.07 2110.17,2650.77 2112.46,2656.58 2114.73,2662.5 2116.98,2668.52 2119.23,2674.64 2121.47,2680.85 2123.71,2687.15 2125.95,2693.54 2128.21,2700.01 2130.49,2706.56 2132.79,2713.19 2135.12,2719.88 999.243,1584 996.91,1577.3 994.608,1570.68 992.331,1564.13 990.072,1557.66 987.824,1551.27 985.585,1544.97 983.346,1538.76 981.102,1532.64 978.849,1526.62 976.58,1520.7 974.289,1514.89 971.969,1509.19 969.616,1503.6 967.224,1498.13 964.788,1492.78 962.3,1487.56 959.756,1482.46 957.15,1477.5 954.476,1472.68 951.727,1467.99 948.9,1463.45 945.987,1459.06 942.982,1454.82 939.882,1450.73 936.679,1446.81 933.366,1443.05 929.94,1439.45 "/>
     <polygon id="_330225456" class="fil1" points="674.341,1316.6 1810.22,2452.49 1807.01,2450.07 1803.86,2447.54 1800.74,2444.9 664.863,1309.02 667.974,1311.66 671.134,1314.18 "/>
     <polygon id="_330226944" class="fil1" points="599.011,1197.93 1734.89,2333.81 1734.56,2334.03 1734.22,2334.23 1733.87,2334.41 1733.51,2334.58 1733.15,2334.72 1732.78,2334.85 1732.41,2334.97 1732.03,2335.06 596.152,1199.18 596.532,1199.08 596.904,1198.97 597.271,1198.84 597.631,1198.69 597.985,1198.53 598.334,1198.35 598.675,1198.15 "/>
     <polygon id="_330226344" class="fil1" points="596.152,1199.18 1732.03,2335.06 1731.11,2335.21 1730.18,2335.25 1729.24,2335.19 1728.29,2335.02 1727.34,2334.76 1726.37,2334.39 1725.41,2333.93 1724.45,2333.38 1723.48,2332.73 1722.52,2332 1721.56,2331.18 585.681,1195.3 586.64,1196.12 587.601,1196.85 588.566,1197.5 589.53,1198.05 590.494,1198.51 591.454,1198.87 592.41,1199.14 593.359,1199.31 594.3,1199.37 595.232,1199.33 "/>
     <polygon id="_330226296" class="fil1" points="999.243,1584 2135.12,2719.88 1611.8,2719.88 475.922,1584 "/>
     <polygon id="_330226584" class="fil1" points="908.483,1119.7 2044.36,2255.58 2045.08,2256.32 2045.76,2257.14 2046.4,2258.05 2047,2259.05 2047.56,2260.12 2048.08,2261.27 2048.56,2262.49 2048.99,2263.78 2049.39,2265.14 2049.75,2266.57 2050.06,2268.06 2050.33,2269.61 2050.55,2271.22 2050.73,2272.88 2050.87,2274.59 2050.96,2276.35 2051,2278.16 2051,2280.01 2050.95,2281.9 2050.85,2283.82 2050.71,2285.78 2050.52,2287.78 2050.27,2289.8 2049.98,2291.85 2049.64,2293.92 2049.24,2296.01 2048.8,2298.12 912.918,1162.24 913.364,1160.13 913.757,1158.04 914.1,1155.96 914.392,1153.92 914.636,1151.89 914.828,1149.9 914.974,1147.94 915.07,1146.01 915.12,1144.12 915.122,1142.28 915.077,1140.47 914.988,1138.71 914.852,1137 914.671,1135.34 914.447,1133.73 914.177,1132.18 913.866,1130.69 913.51,1129.26 913.113,1127.9 912.675,1126.61 912.196,1125.38 911.675,1124.24 911.115,1123.16 910.515,1122.17 909.876,1121.26 909.198,1120.44 "/>
     <polygon id="_330226848" class="fil1" points="1548.46,1510.79 2684.34,2646.67 2188.55,2646.67 1052.67,1510.79 "/>
    </g>
    <path id="_385675432" class="fil1" d="M1438.37 908.418c16.7882,7.74804 35.3953,17.9244 56.5902,31.1965 38.7059,24.2374 55.2485,76.8804 77.1201,139.547l-209.477 0 -38.1237 0 -209.209 0c21.978,-62.4331 38.7437,-114.69 77.0316,-139.547 21.1099,-13.7067 39.5929,-24.1618 56.2831,-32.054l1.56496 -16.9288 36.0874 -35.7709 0.159449 0.0980316 0 -29.1272c-38.7544,-23.9008 -69.1737,-69.7784 -82.5627,-118.743 -8.70237,1.12559 -19.1303,-13.6099 -23.5666,-33.5457 -3.9626,-17.8146 -1.83189,-33.8941 4.6252,-39.0237 -3.30827,-69.7441 49.6973,-170.521 162.81,-170.521 104.146,0 151.569,111.053 154.782,170.493 6.48544,5.10237 8.62914,21.2055 4.65827,39.0508 -4.46575,20.0492 -14.9858,34.839 -23.7142,33.5244 -13.3854,48.9733 -43.8083,94.8615 -82.5686,118.765l0 29.2488 35.863 35.5512 1.64528 17.7862zm-186.204 325.255l296.296 0 20.5122 0 0 20.511 0 236.093 0 20.511 -20.5122 0 -495.794 0 -20.5122 0 0 -20.511 0 -236.093 0 -20.511 20.5122 0 94.1387 0 2.14016 -3.70512 32.8323 -56.8678 17.7071 -30.6685 17.7071 30.6685 32.8323 56.8678 2.14016 3.70512zm-739.498 -719.847l578.664 0 23.9398 0 0 23.941 0 275.554 0 23.9398 -23.9398 0 -109.874 0 -2.49685 4.3252 -38.3197 66.3709 -20.6669 35.7957 -20.6658 -35.7957 -38.3209 -66.3709 -2.49685 -4.3252 -345.822 0 -23.9398 0 0 -23.9398 0 -275.554 0 -23.941 23.9398 0zm391.692 603.603c9.75119,2.17205 13.5839,22.2272 8.56182,44.8063 -5.02914,22.5744 -17.0032,39.1158 -26.752,36.9425 -0.934253,-0.207874 -1.81417,-0.579922 -2.6374,-1.10197 -11.2394,41.8181 -32.5146,79.8355 -62.1532,104.609 -6.92363,5.78622 -13.7764,10.8047 -20.5488,15.098l0 51.828c0,0.557481 -0.0106299,1.11024 -0.0307087,1.65945 30.2563,8.6752 65.0812,24.6756 110.099,52.8638 44.3398,27.7666 63.2906,88.0749 88.3477,159.866l-523.321 0c25.1776,-71.5229 44.3847,-131.389 88.2473,-159.866 45.1394,-29.3091 79.7965,-45.6449 110.173,-54.1193 -0.0011811,-0.134646 -0.0011811,-0.269292 -0.0011811,-0.403937l0 -53.0079c-34.4646,-25.2012 -60.9213,-69.6638 -75.3308,-118.674 -0.885827,0.6 -1.84016,1.02165 -2.85827,1.24843 -9.75001,2.17323 -21.7276,-14.3681 -26.752,-36.9425 -5.02205,-22.5792 -1.18819,-42.6343 8.55946,-44.8063 2.85709,-0.635434 5.90552,0.335433 8.91379,2.5937 -1.27441,-77.3044 31.5803,-147.151 113.701,-154.375 68.6634,-14.1366 117.226,2.87362 148.349,36.0319 28.6323,30.5067 42.5044,74.6847 43.6855,120.862 3.89646,-4.00276 7.98662,-5.9504 11.7473,-5.113z"/>
   </g>
  </g>
  <path class="fil2" d="M1024 -0.0011811c565.541,0 1024,458.461 1024,1024 0,565.541 -458.461,1024 -1024,1024 -565.541,0 -1024,-458.461 -1024,-1024 0,-565.541 458.461,-1024 1024,-1024z"/>
  <polygon class="fil3" points="862.959,1136.01 862.959,1136.01 862.958,1136.01 "/>
  <polygon class="fil4" points="512.665,513.826 1091.33,513.826 1115.27,513.826 1115.27,537.767 1115.27,813.321 1115.27,837.26 1091.33,837.26 981.454,837.26 978.957,841.585 940.637,907.957 919.971,943.752 899.305,907.957 860.984,841.585 858.487,837.26 512.665,837.26 488.725,837.26 488.725,813.321 488.725,537.767 488.725,513.826 "/>
  <path class="fil5" d="M904.357 1117.43c9.75119,2.17205 13.5839,22.2272 8.56182,44.8063 -5.02914,22.5744 -17.0032,39.1158 -26.752,36.9437 -9.74765,-2.16732 -13.5791,-22.2284 -8.55946,-44.804 5.02678,-22.5732 17.0008,-39.117 26.7496,-36.9461z"/>
  <path class="fil5" d="M674.343 1186.66l126.484 0 0 182.954c0,61.7469 -126.487,68.8453 -126.487,0l0.00236221 -182.954z"/>
  <path class="fil5" d="M577.96 1117.43c-9.74765,2.17205 -13.5815,22.2272 -8.55946,44.8063 5.02441,22.5744 17.0008,39.1158 26.752,36.9437 9.7441,-2.16732 13.578,-22.2284 8.55473,-44.804 -5.02205,-22.5732 -16.9961,-39.117 -26.7473,-36.9461z"/>
  <path class="fil6" d="M737.585 969.22c202.83,0 170.388,241.045 70.7103,325.237 -44.3953,37.4953 -95.2926,38.1059 -140.104,1.10079 -100.703,-83.1674 -134.33,-326.335 69.3934,-326.338z"/>
  <path class="fil7" d="M700.575 965.648c68.6623,-14.1366 117.226,2.87362 148.349,36.0319 70.9489,75.5918 51.2658,235.128 -27.5481,301.005 -202.064,168.895 -344.938,-317.322 -120.801,-337.037z"/>
  <path class="fil8" d="M564.169 1424.13c-43.8626,28.4776 -63.0686,88.3418 -88.2473,159.866l523.321 0c-25.0571,-71.791 -44.0067,-132.099 -88.3489,-159.866 -79.1682,-49.5733 -126.812,-61.4493 -173.528,-62.0859 -47.7768,-0.650788 -94.5946,11.0516 -173.197,62.0859z"/>
  <path class="fil9" d="M1192.3 939.615c-38.2878,24.8575 -55.0536,77.1142 -77.0316,139.547l456.809 0c-21.8717,-62.667 -38.4142,-115.31 -77.1201,-139.547 -69.1064,-43.2733 -110.694,-53.6398 -151.473,-54.1949 -41.7048,-0.568111 -82.5721,9.64607 -151.185,54.1949z"/>
  <path class="fil10" d="M1286.4 719.584l114.462 0 0 165.566c0,55.878 -114.463,62.302 -114.463,0l0.0011811 -165.566z"/>
  <path class="fil11" d="M1343.63 522.814c242.407,0 144.143,320.211 -0.00236221,320.211 -144.137,0 -242.408,-320.21 0.00236221,-320.211z"/>
  <path class="fil12" d="M1411.31 554.958c39.2114,16.6689 55.1847,66.9815 64.2579,100.889 13.187,49.2437 5.75434,45.0189 23.3303,7.49174 17.5795,-37.5213 -25.4847,-199.34 -151.2,-199.34 -125.717,0 -177.184,124.485 -159.613,192.496 17.5807,68.015 17.5807,51.8575 28.5709,0.26811 28.2555,-132.695 168.679,28.5118 194.654,-101.805z"/>
  <path class="fil10" d="M1499.39 632.996c8.8252,1.96536 12.2929,20.1154 7.74804,40.5473 -4.55079,20.4295 -15.3862,35.3977 -24.2091,33.4323 -8.82166,-1.96063 -12.2882,-20.1142 -7.74686,-40.5449 4.54961,-20.4284 15.3862,-35.3988 24.2079,-33.4347z"/>
  <path class="fil10" d="M1188.01 632.996c-8.82048,1.96536 -12.2906,20.1154 -7.74568,40.5473 4.54607,20.4295 15.3851,35.3977 24.2091,33.4323 8.81812,-1.96063 12.287,-20.1142 7.74213,-40.5449 -4.54489,-20.4284 -15.3815,-35.3988 -24.2055,-33.4347z"/>
  <path class="fil13" d="M1331.09 986.101l-6.61654 93.0615 38.1237 0 -6.61536 -93.0556 40.4351 -96.8552c-37.8555,-0.676772 -68.152,-0.591733 -105.752,0l40.4256 96.8493z"/>
  <polygon class="fil14" points="1286.24,854.861 1250.15,890.632 1243.55,962.024 1342.17,889.079 "/>
  <polygon class="fil14" points="1400.64,854.861 1436.72,890.632 1443.32,962.024 1344.7,889.079 "/>
  <polygon class="fil15" points="1548.46,1510.79 1052.67,1510.79 1032.15,1510.79 1032.15,1490.28 1032.15,1254.18 1032.15,1233.67 1052.67,1233.67 1146.81,1233.67 1148.94,1229.97 1181.78,1173.1 1199.48,1142.43 1217.19,1173.1 1250.02,1229.97 1252.16,1233.67 1548.46,1233.67 1568.97,1233.67 1568.97,1254.18 1568.97,1490.28 1568.97,1510.79 "/>
  <polygon class="fil16" points="558.342,566.039 1045.65,566.039 1045.65,600.846 558.342,600.846 "/>
  <polygon class="fil16" points="558.342,653.633 1045.65,653.633 1045.65,688.441 558.342,688.441 "/>
  <polygon class="fil16" points="558.342,741.227 1045.65,741.227 1045.65,776.036 558.342,776.036 "/>
  <polygon class="fil17" points="1056.91,1284.18 1544.22,1284.18 1544.22,1308.4 1056.91,1308.4 "/>
  <polygon class="fil17" points="1056.91,1364.89 1544.22,1364.89 1544.22,1389.11 1056.91,1389.11 "/>
  <polygon class="fil17" points="1056.91,1445.61 1544.22,1445.61 1544.22,1469.82 1056.91,1469.82 "/>
 </g>
</svg>
