<?xml version="1.0" encoding="UTF-8"?>
<!DOCTYPE svg PUBLIC "-//W3C//DTD SVG 1.1//EN" "http://www.w3.org/Graphics/SVG/1.1/DTD/svg11.dtd">
<!-- Creator: CorelDRAW -->
<svg xmlns="http://www.w3.org/2000/svg" xml:space="preserve" width="2048px" height="2048px" style="shape-rendering:geometricPrecision; text-rendering:geometricPrecision; image-rendering:optimizeQuality; fill-rule:evenodd; clip-rule:evenodd"
viewBox="0 0 2048 2048"
 xmlns:xlink="http://www.w3.org/1999/xlink">
 <defs>
  <style type="text/css">
   <![CDATA[
    .fil2 {fill:none}
    .fil1 {fill:#AFB42B}
    .fil0 {fill:#D4E157}
    .fil6 {fill:#F06292}
    .fil5 {fill:#FCE4EC}
    .fil3 {fill:#00897B;fill-rule:nonzero}
    .fil4 {fill:#26A69A;fill-rule:nonzero}
   ]]>
  </style>
   <clipPath id="id0">
    <path d="M1024 -0.0011811c565.539,0 1024,458.462 1024,1024 0,565.539 -458.462,1024 -1024,1024 -565.539,0 -1024,-458.462 -1024,-1024 0,-565.539 458.462,-1024 1024,-1024z"/>
   </clipPath>
 </defs>
 <g id="Layer_x0020_1">
  <metadata id="CorelCorpID_0Corel-Layer"/>
  <path class="fil0" d="M1024 -0.0011811c565.539,0 1024,458.462 1024,1024 0,565.539 -458.462,1024 -1024,1024 -565.539,0 -1024,-458.462 -1024,-1024 0,-565.539 458.462,-1024 1024,-1024z"/>
  <g style="clip-path:url(#id0)">
   <g id="_466491680">
    <g>
     <polygon id="_3968110961" class="fil1" points="1245.79,566.666 2381.67,1702.55 2386.61,1708.29 2391.43,1714.15 2396.12,1720.14 2400.68,1726.25 2405.11,1732.48 2409.4,1738.82 2413.55,1745.28 2417.56,1751.85 2421.42,1758.53 2425.15,1765.31 2428.72,1772.2 2432.14,1779.19 2435.41,1786.28 2438.53,1793.47 2441.49,1800.75 2444.28,1808.12 2446.92,1815.58 2449.38,1823.13 2451.69,1830.76 2453.82,1838.48 2455.78,1846.27 2457.56,1854.14 2459.17,1862.08 2460.59,1870.1 2461.84,1878.19 2462.9,1886.34 2463.77,1894.56 2464.45,1902.84 2464.94,1911.18 2465.24,1919.58 2465.34,1928.03 1329.46,792.148 1329.36,783.696 1329.06,775.299 1328.57,766.959 1327.89,758.678 1327.01,750.46 1325.95,742.307 1324.71,734.22 1323.28,726.203 1321.68,718.258 1319.89,710.388 1317.94,702.595 1315.8,694.881 1313.5,687.249 1311.04,679.7 1308.4,672.239 1305.6,664.867 1302.65,657.586 1299.53,650.401 1296.26,643.312 1292.84,636.321 1289.27,629.432 1285.54,622.647 1281.68,615.968 1277.67,609.399 1273.51,602.94 1269.22,596.595 1264.8,590.367 1260.24,584.258 1255.55,578.269 1250.73,572.405 "/>
     <polygon id="_396797632" class="fil1" points="1329.46,792.148 2465.34,1928.03 2465.16,1936.73 2464.64,1945.53 2463.78,1954.45 2462.6,1963.46 2461.09,1972.58 2459.28,1981.78 2457.17,1991.07 2454.78,2000.44 2452.1,2009.89 2449.15,2019.4 2445.95,2028.98 2442.49,2038.63 2438.8,2048.32 2434.87,2058.07 2430.72,2067.86 2426.35,2077.7 2421.79,2087.56 2417.03,2097.46 2412.09,2107.38 2406.97,2117.32 2401.69,2127.27 2396.25,2137.24 2390.67,2147.21 2384.95,2157.17 2379.11,2167.13 2373.15,2177.08 2367.08,2187.01 2360.91,2196.92 2354.66,2206.81 2348.32,2216.66 2341.92,2226.47 2335.46,2236.25 1199.57,1100.36 1206.04,1090.59 1212.44,1080.78 1218.77,1070.92 1225.03,1061.04 1231.2,1051.13 1237.26,1041.2 1243.23,1031.25 1249.07,1021.29 1254.79,1011.32 1260.37,1001.36 1265.81,991.392 1271.09,981.438 1276.21,971.498 1281.15,961.576 1285.91,951.68 1290.47,941.813 1294.84,931.98 1298.99,922.188 1302.91,912.441 1306.61,902.743 1310.07,893.102 1313.27,883.52 1316.22,874.003 1318.9,864.557 1321.29,855.187 1323.4,845.898 1325.21,836.695 1326.71,827.583 1327.9,818.567 1328.76,809.652 1329.28,800.845 "/>
     <polygon id="_396828112" class="fil1" points="1386.62,1100.36 2522.5,2236.25 2527.88,2254.54 1392,1118.66 "/>
     <polygon id="_396810016" class="fil1" points="1392,1118.66 2527.88,2254.54 2655.15,2687.27 1519.27,1551.39 "/>
     <polygon id="_396826048" class="fil1" points="1519.27,1551.39 2655.15,2687.27 2664.74,2719.88 1528.86,1584 "/>
     <polygon id="_396826624" class="fil1" points="1528.86,1584 2664.74,2719.88 2630.79,2719.88 1494.91,1584 "/>
     <polygon id="_396807544" class="fil1" points="1494.91,1584 2630.79,2719.88 2159.96,2719.88 1024.08,1584 "/>
     <polygon id="_396802384" class="fil1" points="1024.08,1584 2159.96,2719.88 2159.88,2719.88 1024,1584 "/>
     <polygon id="_396808168" class="fil1" points="1024,1584 2159.88,2719.88 1655.02,2719.88 519.139,1584 "/>
    </g>
    <path id="_466508168" class="fil1" d="M1240.72 561.056c54.7111,59.1473 88.7363,140.652 88.7363,231.092 0,92.1485 -60.6615,204.219 -129.881,308.215l30.7288 0 137.333 0 18.9791 0 5.38229 18.2965 127.272 432.727 9.59292 32.615 -33.9532 0 -470.828 0 -0.0814961 0 -504.861 0 136.865 -465.342 5.38111 -18.2965 18.9803 0 138.614 0 30.6957 0c-69.6473,-105.175 -131.13,-218.614 -131.13,-309.976 0,-90.2268 34.0618,-171.176 88.6654,-229.862 55.6725,-59.8347 132.641,-96.5268 216.79,-96.5268 84.3036,0 161.131,36.9662 216.718,97.0572z"/>
   </g>
  </g>
  <path class="fil2" d="M1024 -0.0011811c565.539,0 1024,458.462 1024,1024 0,565.539 -458.462,1024 -1024,1024 -565.539,0 -1024,-458.462 -1024,-1024 0,-565.539 458.462,-1024 1024,-1024z"/>
  <polygon class="fil3" points="1024,1100.36 1024.66,1100.36 1230.3,1100.36 1367.64,1100.36 1386.62,1100.36 1392,1118.66 1519.27,1551.39 1528.86,1584 1494.91,1584 1024.08,1584 1024,1584 "/>
  <polygon class="fil4" points="680.365,1100.36 818.979,1100.36 1024,1100.36 1024,1584 519.139,1584 656.004,1118.66 661.385,1100.36 "/>
  <path class="fil5" d="M1329.46 792.148c0,134.127 -128.521,310.46 -224.881,442.669 -22.3382,30.6496 -42.8989,58.8556 -59.543,83.4001l-21.078 31.0819 -20.9811 -31.1811c-16.461,-24.463 -36.8445,-52.663 -59.0693,-83.4142 -96.0013,-132.823 -225.358,-311.795 -225.358,-444.317 0,-90.2268 34.0618,-171.176 88.6654,-229.862 55.6725,-59.8347 132.641,-96.5268 216.79,-96.5268 84.3036,0 161.131,36.9662 216.718,97.0572 54.7111,59.1473 88.7363,140.652 88.7363,231.092z"/>
  <path class="fil6" d="M1024 904.975c-40.0548,0 -76.3808,-16.1008 -102.723,-42.1252 -26.4662,-26.1496 -42.8433,-62.2205 -42.8433,-102 0,-39.7807 16.3772,-75.8493 42.8433,-101.999 26.3421,-26.0232 62.6705,-42.1252 102.723,-42.1252 40.0524,0 76.3808,16.1008 102.721,42.1252 26.4685,26.1496 42.8469,62.2182 42.8469,101.999 0,39.7807 -16.3784,75.8505 -42.8457,102 -26.341,26.0244 -62.6693,42.1252 -102.722,42.1252z"/>
 </g>
</svg>
