<?xml version="1.0" encoding="UTF-8"?>
<!DOCTYPE svg PUBLIC "-//W3C//DTD SVG 1.1//EN" "http://www.w3.org/Graphics/SVG/1.1/DTD/svg11.dtd">
<!-- Creator: CorelDRAW -->
<svg xmlns="http://www.w3.org/2000/svg" xml:space="preserve" width="6.82666in" height="6.82666in" style="shape-rendering:geometricPrecision; text-rendering:geometricPrecision; image-rendering:optimizeQuality; fill-rule:evenodd; clip-rule:evenodd"
viewBox="0 0 6.82666 6.82666"
 xmlns:xlink="http://www.w3.org/1999/xlink">
 <defs>
  <style type="text/css">
   <![CDATA[
    .fil2 {fill:none}
    .fil5 {fill:#212F64}
    .fil1 {fill:#6D808A}
    .fil0 {fill:#8FA3AD}
    .fil4 {fill:#BE2033}
    .fil3 {fill:#EEEEEE}
    .fil6 {fill:white}
   ]]>
  </style>
   <clipPath id="id0">
    <path d="M3.41333 0c1.88513,0 3.41333,1.5282 3.41333,3.41333 0,1.88513 -1.5282,3.41333 -3.41333,3.41333 -1.88513,0 -3.41333,-1.5282 -3.41333,-3.41333 0,-1.88513 1.5282,-3.41333 3.41333,-3.41333z"/>
   </clipPath>
 </defs>
 <g id="Layer_x0020_1">
  <metadata id="CorelCorpID_0Corel-Layer"/>
  <path class="fil0" d="M3.41333 0c1.88513,0 3.41333,1.5282 3.41333,3.41333 0,1.88513 -1.5282,3.41333 -3.41333,3.41333 -1.88513,0 -3.41333,-1.5282 -3.41333,-3.41333 0,-1.88513 1.5282,-3.41333 3.41333,-3.41333z"/>
  <g style="clip-path:url(#id0)">
   <g id="_684166616">
    <g>
     <polygon id="_7357523521" class="fil1" points="5.28,2.29163 9.06627,6.0779 9.06627,6.25045 5.28,2.46418 "/>
     <polygon id="_735752376" class="fil1" points="5.28,2.46418 9.06627,6.25045 9.06627,6.41709 5.28,2.63082 "/>
     <polygon id="_735752424" class="fil1" points="5.28,2.63082 9.06627,6.41709 9.06627,6.58965 5.28,2.80338 "/>
     <polygon id="_735752688" class="fil1" points="5.28,2.80338 9.06627,6.58965 9.06627,6.75727 5.28,2.971 "/>
     <polygon id="_735752760" class="fil1" points="5.28,2.971 9.06627,6.75727 9.06627,6.92983 5.28,3.14356 "/>
     <polygon id="_735752952" class="fil1" points="5.28,3.14356 9.06627,6.92983 9.06627,7.09153 5.28,3.30526 "/>
     <polygon id="_735753768" class="fil1" points="5.28,3.30526 9.06627,7.09153 9.06627,7.26408 5.28,3.47781 "/>
     <polygon id="_735753264" class="fil1" points="5.28,3.47781 9.06627,7.26408 9.06627,7.42578 5.28,3.6395 "/>
     <polygon id="_735753936" class="fil1" points="5.28,3.6395 9.06627,7.42578 9.06627,7.59833 5.28,3.81206 "/>
     <polygon id="_735753912" class="fil1" points="5.28,3.81206 9.06627,7.59833 9.06627,7.7837 5.28,3.99743 "/>
     <polygon id="_735753864" class="fil1" points="5.28,3.99743 9.06627,7.7837 9.06627,7.95626 5.28,4.16999 "/>
     <polygon id="_735753576" class="fil1" points="5.28,4.16999 9.06627,7.95626 9.06627,8.14876 5.28,4.36248 "/>
     <polygon id="_735753888" class="fil1" points="5.28,4.36248 9.06627,8.14876 9.06626,8.3213 5.28,4.53503 "/>
     <polygon id="_735753648" class="fil1" points="5.28,4.53503 9.06626,8.3213 5.33293,8.3213 1.54667,4.53503 "/>
    </g>
    <polygon id="_684167648" class="fil1" points="1.54667,2.29163 3.04173,2.29163 3.26216,2.29163 5.28,2.29163 5.28,2.46418 5.28,2.63082 5.28,2.80338 5.28,2.971 5.28,3.14356 5.28,3.30526 5.28,3.47781 5.28,3.6395 5.28,3.81206 5.28,3.99743 5.28,4.16999 5.28,4.36248 5.28,4.53503 1.54667,4.53503 1.54667,4.36248 1.54667,4.16999 1.54667,3.99743 1.54667,3.81206 1.54667,3.6395 1.54667,3.47783 "/>
   </g>
  </g>
  <path class="fil2" d="M3.41333 0c1.88513,0 3.41333,1.5282 3.41333,3.41333 0,1.88513 -1.5282,3.41333 -3.41333,3.41333 -1.88513,0 -3.41333,-1.5282 -3.41333,-3.41333 0,-1.88513 1.5282,-3.41333 3.41333,-3.41333z"/>
  <rect class="fil3" x="1.54666" y="2.29163" width="3.73333" height="2.2434"/>
  <polygon class="fil4" points="5.28,2.46418 3.04173,2.46418 3.04173,2.29163 5.28,2.29163 "/>
  <polygon class="fil4" points="5.28,2.80338 3.04173,2.80338 3.04173,2.63082 5.28,2.63082 "/>
  <polygon class="fil4" points="5.28,3.14356 3.04173,3.14356 3.04173,2.971 5.28,2.971 "/>
  <polygon class="fil4" points="5.28,3.47781 3.04173,3.47781 3.04173,3.30526 5.28,3.30526 "/>
  <polygon class="fil4" points="5.28,3.81206 1.54667,3.81206 1.54667,3.6395 5.28,3.6395 "/>
  <polygon class="fil4" points="5.28,4.16999 1.54667,4.16999 1.54667,3.99743 5.28,3.99743 "/>
  <polygon class="fil4" points="5.28,4.53503 1.54667,4.53503 1.54667,4.36248 5.28,4.36248 "/>
  <polygon class="fil5" points="3.26216,3.47783 1.54667,3.47783 1.54667,2.29163 3.26216,2.29163 "/>
  <polygon class="fil6" points="1.62433,2.39205 1.67429,2.39205 1.69259,2.33961 1.71287,2.39205 1.76234,2.39205 1.72474,2.42642 1.73859,2.47861 1.69333,2.44943 1.65104,2.47861 1.6634,2.42642 "/>
  <polygon class="fil6" points="1.9053,2.39205 1.95526,2.39205 1.97356,2.33961 1.99385,2.39205 2.04331,2.39205 2.00572,2.42642 2.01957,2.47861 1.9743,2.44943 1.93201,2.47861 1.94437,2.42642 "/>
  <polygon class="fil6" points="2.19616,2.39205 2.24612,2.39205 2.26443,2.33961 2.2847,2.39205 2.33417,2.39205 2.29658,2.42642 2.31043,2.47861 2.26517,2.44943 2.22287,2.47861 2.23524,2.42642 "/>
  <polygon class="fil6" points="2.47713,2.39205 2.52709,2.39205 2.54539,2.33961 2.56568,2.39205 2.61513,2.39205 2.57755,2.42642 2.59139,2.47861 2.54613,2.44943 2.50384,2.47861 2.51621,2.42642 "/>
  <polygon class="fil6" points="2.76008,2.39205 2.81004,2.39205 2.82835,2.33961 2.84863,2.39205 2.8981,2.39205 2.8605,2.42642 2.87435,2.47861 2.82909,2.44943 2.7868,2.47861 2.79915,2.42642 "/>
  <polygon class="fil6" points="3.04896,2.39205 3.09892,2.39205 3.11722,2.33961 3.13751,2.39205 3.18698,2.39205 3.14937,2.42642 3.16324,2.47861 3.11796,2.44943 3.07568,2.47861 3.08804,2.42642 "/>
  <polygon class="fil6" points="1.76481,2.5172 1.81477,2.5172 1.83307,2.46476 1.85335,2.5172 1.90282,2.5172 1.86522,2.55157 1.87908,2.60376 1.83381,2.57458 1.79152,2.60376 1.80389,2.55157 "/>
  <polygon class="fil6" points="2.04579,2.5172 2.09574,2.5172 2.11405,2.46476 2.13432,2.5172 2.1838,2.5172 2.1462,2.55157 2.16005,2.60376 2.11479,2.57458 2.0725,2.60376 2.08486,2.55157 "/>
  <polygon class="fil6" points="2.33665,2.5172 2.38661,2.5172 2.40491,2.46476 2.42519,2.5172 2.47466,2.5172 2.43706,2.55157 2.45091,2.60376 2.40565,2.57458 2.36336,2.60376 2.37572,2.55157 "/>
  <polygon class="fil6" points="2.61761,2.5172 2.66757,2.5172 2.68588,2.46476 2.70616,2.5172 2.75563,2.5172 2.71803,2.55157 2.73188,2.60376 2.68663,2.57458 2.64433,2.60376 2.6567,2.55157 "/>
  <polygon class="fil6" points="2.90057,2.5172 2.95052,2.5172 2.96883,2.46476 2.9891,2.5172 3.03857,2.5172 3.00098,2.55157 3.01483,2.60376 2.96957,2.57458 2.92728,2.60376 2.93965,2.55157 "/>
  <polygon class="fil6" points="1.62433,2.62751 1.67429,2.62751 1.69259,2.57507 1.71287,2.62751 1.76234,2.62751 1.72474,2.66188 1.73859,2.71407 1.69333,2.68489 1.65104,2.71407 1.6634,2.66188 "/>
  <polygon class="fil6" points="1.9053,2.62751 1.95526,2.62751 1.97356,2.57507 1.99385,2.62751 2.04331,2.62751 2.00572,2.66188 2.01957,2.71407 1.9743,2.68489 1.93201,2.71407 1.94437,2.66188 "/>
  <polygon class="fil6" points="2.19616,2.62751 2.24612,2.62751 2.26443,2.57507 2.2847,2.62751 2.33417,2.62751 2.29658,2.66188 2.31043,2.71407 2.26517,2.68489 2.22287,2.71407 2.23524,2.66188 "/>
  <polygon class="fil6" points="2.47713,2.62751 2.52709,2.62751 2.54539,2.57507 2.56568,2.62751 2.61513,2.62751 2.57755,2.66188 2.59139,2.71407 2.54613,2.68489 2.50384,2.71407 2.51621,2.66188 "/>
  <polygon class="fil6" points="2.76008,2.62751 2.81004,2.62751 2.82835,2.57507 2.84863,2.62751 2.8981,2.62751 2.8605,2.66188 2.87435,2.71407 2.82909,2.68489 2.7868,2.71407 2.79915,2.66188 "/>
  <polygon class="fil6" points="3.04896,2.62751 3.09892,2.62751 3.11722,2.57507 3.13751,2.62751 3.18698,2.62751 3.14937,2.66188 3.16324,2.71407 3.11796,2.68489 3.07568,2.71407 3.08804,2.66188 "/>
  <polygon class="fil6" points="1.76481,2.75266 1.81477,2.75266 1.83307,2.70022 1.85335,2.75266 1.90282,2.75266 1.86522,2.78704 1.87908,2.83922 1.83381,2.81004 1.79152,2.83922 1.80389,2.78704 "/>
  <polygon class="fil6" points="2.04579,2.75266 2.09574,2.75266 2.11405,2.70022 2.13432,2.75266 2.1838,2.75266 2.1462,2.78704 2.16005,2.83922 2.11479,2.81004 2.0725,2.83922 2.08486,2.78704 "/>
  <polygon class="fil6" points="2.33665,2.75266 2.38661,2.75266 2.40491,2.70022 2.42519,2.75266 2.47466,2.75266 2.43706,2.78704 2.45091,2.83922 2.40565,2.81004 2.36336,2.83922 2.37572,2.78704 "/>
  <polygon class="fil6" points="2.61761,2.75266 2.66757,2.75266 2.68588,2.70022 2.70616,2.75266 2.75563,2.75266 2.71803,2.78704 2.73188,2.83922 2.68663,2.81004 2.64433,2.83922 2.6567,2.78704 "/>
  <polygon class="fil6" points="2.90057,2.75266 2.95052,2.75266 2.96883,2.70022 2.9891,2.75266 3.03857,2.75266 3.00098,2.78704 3.01483,2.83922 2.96957,2.81004 2.92728,2.83922 2.93965,2.78704 "/>
  <polygon class="fil6" points="1.62433,2.86693 1.67429,2.86693 1.69259,2.81449 1.71287,2.86693 1.76234,2.86693 1.72474,2.9013 1.73859,2.95349 1.69333,2.92431 1.65104,2.95349 1.6634,2.9013 "/>
  <polygon class="fil6" points="1.9053,2.86693 1.95526,2.86693 1.97356,2.81449 1.99385,2.86693 2.04331,2.86693 2.00572,2.9013 2.01957,2.95349 1.9743,2.92431 1.93201,2.95349 1.94437,2.9013 "/>
  <polygon class="fil6" points="2.19616,2.86693 2.24612,2.86693 2.26443,2.81449 2.2847,2.86693 2.33417,2.86693 2.29658,2.9013 2.31043,2.95349 2.26517,2.92431 2.22287,2.95349 2.23524,2.9013 "/>
  <polygon class="fil6" points="2.47713,2.86693 2.52709,2.86693 2.54539,2.81449 2.56568,2.86693 2.61513,2.86693 2.57755,2.9013 2.59139,2.95349 2.54613,2.92431 2.50384,2.95349 2.51621,2.9013 "/>
  <polygon class="fil6" points="2.76008,2.86693 2.81004,2.86693 2.82835,2.81449 2.84863,2.86693 2.8981,2.86693 2.8605,2.9013 2.87435,2.95349 2.82909,2.92431 2.7868,2.95349 2.79915,2.9013 "/>
  <polygon class="fil6" points="3.04896,2.86693 3.09892,2.86693 3.11722,2.81449 3.13751,2.86693 3.18698,2.86693 3.14937,2.9013 3.16324,2.95349 3.11796,2.92431 3.07568,2.95349 3.08804,2.9013 "/>
  <polygon class="fil6" points="1.76481,2.99208 1.81477,2.99208 1.83307,2.93964 1.85335,2.99208 1.90282,2.99208 1.86522,3.02646 1.87908,3.07864 1.83381,3.04946 1.79152,3.07864 1.80389,3.02646 "/>
  <polygon class="fil6" points="2.04579,2.99208 2.09574,2.99208 2.11405,2.93964 2.13432,2.99208 2.1838,2.99208 2.1462,3.02646 2.16005,3.07864 2.11479,3.04946 2.0725,3.07864 2.08486,3.02646 "/>
  <polygon class="fil6" points="2.33665,2.99208 2.38661,2.99208 2.40491,2.93964 2.42519,2.99208 2.47466,2.99208 2.43706,3.02646 2.45091,3.07864 2.40565,3.04946 2.36336,3.07864 2.37572,3.02646 "/>
  <polygon class="fil6" points="2.61761,2.99208 2.66757,2.99208 2.68588,2.93964 2.70616,2.99208 2.75563,2.99208 2.71803,3.02646 2.73188,3.07864 2.68663,3.04946 2.64433,3.07864 2.6567,3.02646 "/>
  <polygon class="fil6" points="2.90057,2.99208 2.95052,2.99208 2.96883,2.93964 2.9891,2.99208 3.03857,2.99208 3.00098,3.02646 3.01483,3.07864 2.96957,3.04946 2.92728,3.07864 2.93965,3.02646 "/>
  <polygon class="fil6" points="1.62433,3.10288 1.67429,3.10288 1.69259,3.05044 1.71287,3.10288 1.76234,3.10288 1.72474,3.13726 1.73859,3.18944 1.69333,3.16026 1.65104,3.18944 1.6634,3.13726 "/>
  <polygon class="fil6" points="1.9053,3.10288 1.95526,3.10288 1.97356,3.05044 1.99385,3.10288 2.04331,3.10288 2.00572,3.13726 2.01957,3.18944 1.9743,3.16026 1.93201,3.18944 1.94437,3.13726 "/>
  <polygon class="fil6" points="2.19616,3.10288 2.24612,3.10288 2.26443,3.05044 2.2847,3.10288 2.33417,3.10288 2.29658,3.13726 2.31043,3.18944 2.26517,3.16026 2.22287,3.18944 2.23524,3.13726 "/>
  <polygon class="fil6" points="2.47713,3.10288 2.52709,3.10288 2.54539,3.05044 2.56568,3.10288 2.61513,3.10288 2.57755,3.13726 2.59139,3.18944 2.54613,3.16026 2.50384,3.18944 2.51621,3.13726 "/>
  <polygon class="fil6" points="2.76008,3.10288 2.81004,3.10288 2.82835,3.05044 2.84863,3.10288 2.8981,3.10288 2.8605,3.13726 2.87435,3.18944 2.82909,3.16026 2.7868,3.18944 2.79915,3.13726 "/>
  <polygon class="fil6" points="3.04896,3.10288 3.09892,3.10288 3.11722,3.05044 3.13751,3.10288 3.18698,3.10288 3.14937,3.13726 3.16324,3.18944 3.11796,3.16026 3.07568,3.18944 3.08804,3.13726 "/>
  <polygon class="fil6" points="1.62433,3.33635 1.67429,3.33635 1.69259,3.28393 1.71287,3.33635 1.76234,3.33635 1.72474,3.37075 1.73859,3.42292 1.69333,3.39375 1.65104,3.42292 1.6634,3.37075 "/>
  <polygon class="fil6" points="1.9053,3.33635 1.95526,3.33635 1.97356,3.28393 1.99385,3.33635 2.04331,3.33635 2.00572,3.37075 2.01957,3.42292 1.9743,3.39375 1.93201,3.42292 1.94437,3.37075 "/>
  <polygon class="fil6" points="2.19616,3.33635 2.24612,3.33635 2.26443,3.28393 2.2847,3.33635 2.33417,3.33635 2.29658,3.37075 2.31043,3.42292 2.26517,3.39375 2.22287,3.42292 2.23524,3.37075 "/>
  <polygon class="fil6" points="2.47713,3.33635 2.52709,3.33635 2.54539,3.28393 2.56568,3.33635 2.61513,3.33635 2.57755,3.37075 2.59139,3.42292 2.54613,3.39375 2.50384,3.42292 2.51621,3.37075 "/>
  <polygon class="fil6" points="2.76008,3.33635 2.81004,3.33635 2.82835,3.28393 2.84863,3.33635 2.8981,3.33635 2.8605,3.37075 2.87435,3.42292 2.82909,3.39375 2.7868,3.42292 2.79915,3.37075 "/>
  <polygon class="fil6" points="3.04896,3.33635 3.09892,3.33635 3.11722,3.28393 3.13751,3.33635 3.18698,3.33635 3.14937,3.37075 3.16324,3.42292 3.11796,3.39375 3.07568,3.42292 3.08804,3.37075 "/>
  <polygon class="fil6" points="1.76481,3.22804 1.81477,3.22804 1.83307,3.1756 1.85335,3.22804 1.90282,3.22804 1.86522,3.26241 1.87908,3.3146 1.83381,3.28542 1.79152,3.3146 1.80389,3.26241 "/>
  <polygon class="fil6" points="2.04579,3.22804 2.09574,3.22804 2.11405,3.1756 2.13432,3.22804 2.1838,3.22804 2.1462,3.26241 2.16005,3.3146 2.11479,3.28542 2.0725,3.3146 2.08486,3.26241 "/>
  <polygon class="fil6" points="2.33665,3.22804 2.38661,3.22804 2.40491,3.1756 2.42519,3.22804 2.47466,3.22804 2.43706,3.26241 2.45091,3.3146 2.40565,3.28542 2.36336,3.3146 2.37572,3.26241 "/>
  <polygon class="fil6" points="2.61761,3.22804 2.66757,3.22804 2.68588,3.1756 2.70616,3.22804 2.75563,3.22804 2.71803,3.26241 2.73188,3.3146 2.68663,3.28542 2.64433,3.3146 2.6567,3.26241 "/>
  <polygon class="fil6" points="2.90057,3.22804 2.95052,3.22804 2.96883,3.1756 2.9891,3.22804 3.03857,3.22804 3.00098,3.26241 3.01483,3.3146 2.96957,3.28542 2.92728,3.3146 2.93965,3.26241 "/>
 </g>
</svg>
