<?xml version="1.0" encoding="UTF-8"?>
<!DOCTYPE svg PUBLIC "-//W3C//DTD SVG 1.1//EN" "http://www.w3.org/Graphics/SVG/1.1/DTD/svg11.dtd">
<!-- Creator: CorelDRAW -->
<svg xmlns="http://www.w3.org/2000/svg" xml:space="preserve" width="2048px" height="2048px" style="shape-rendering:geometricPrecision; text-rendering:geometricPrecision; image-rendering:optimizeQuality; fill-rule:evenodd; clip-rule:evenodd"
viewBox="0 0 2048 2048"
 xmlns:xlink="http://www.w3.org/1999/xlink">
 <defs>
  <style type="text/css">
   <![CDATA[
    .fil2 {fill:none}
    .fil4 {fill:#051324}
    .fil3 {fill:#0E2038}
    .fil6 {fill:#E65100}
    .fil7 {fill:#ED641A}
    .fil1 {fill:#FFB300}
    .fil0 {fill:#FFCA28}
    .fil5 {fill:#FFFFFE}
   ]]>
  </style>
   <clipPath id="id0">
    <path d="M1024 -0.0011811c565.541,0 1024,458.461 1024,1024 0,565.541 -458.461,1024 -1024,1024 -565.541,0 -1024,-458.461 -1024,-1024 0,-565.541 458.461,-1024 1024,-1024z"/>
   </clipPath>
 </defs>
 <g id="Layer_x0020_1">
  <metadata id="CorelCorpID_0Corel-Layer"/>
  <path class="fil0" d="M1024 -0.0011811c565.541,0 1024,458.461 1024,1024 0,565.541 -458.461,1024 -1024,1024 -565.541,0 -1024,-458.461 -1024,-1024 0,-565.541 458.461,-1024 1024,-1024z"/>
  <g style="clip-path:url(#id0)">
   <g id="_452532032">
    <path id="_4525053681" class="fil1" d="M1341.59 448l-635.183 0c-0.453544,0 -0.905906,0.00590552 -1.35709,0.0177165 -0.451181,0.011811 -0.901182,0.0271654 -1.35,0.0507874 -0.448819,0.022441 -0.897638,0.0531496 -1.3441,0.0862205 -0.446457,0.034252 -0.892914,0.0744095 -1.33701,0.119291 -0.444095,0.0448819 -0.88819,0.0956694 -1.32992,0.152362 -0.441733,0.056693 -0.883465,0.116929 -1.32284,0.184252 -0.43937,0.0673229 -0.87756,0.13937 -1.31339,0.217323 -0.437008,0.0779528 -0.871654,0.16063 -1.30512,0.249213 -0.433465,0.0885827 -0.865749,0.18189 -1.29567,0.281103 -0.431103,0.0980316 -0.861024,0.20315 -1.2874,0.311811 -0.427559,0.108662 -0.851575,0.223229 -1.27559,0.34252 -0.424016,0.119291 -0.84567,0.243307 -1.26614,0.372048 -0.420473,0.12874 -0.838583,0.264567 -1.25551,0.402756 -0.416929,0.13937 -0.831497,0.282284 -1.2437,0.431103 -0.412205,0.148819 -0.823229,0.303544 -1.23189,0.461811 -0.408662,0.158268 -0.814961,0.320079 -1.22008,0.488977 -0.411024,0.170079 -0.819686,0.346063 -1.22717,0.527953 -0.4063,0.180709 -0.810237,0.367323 -1.21181,0.557481 -0.401575,0.191339 -0.800788,0.386221 -1.19646,0.587008 -0.396851,0.200788 -0.790158,0.407481 -1.1811,0.617717 -0.390945,0.210236 -0.779528,0.426378 -1.16575,0.646063 -0.386221,0.219685 -0.767717,0.445276 -1.14803,0.67441 -0.380315,0.229134 -0.757087,0.464174 -1.1315,0.702756 -0.37441,0.238583 -0.745276,0.48189 -1.11378,0.729922 -0.368504,0.248032 -0.733465,0.501969 -1.09606,0.758268 -0.362599,0.257481 -0.722835,0.518504 -1.07835,0.784253 -0.355512,0.265748 -0.708662,0.536221 -1.05827,0.810237 -0.349607,0.274016 -0.69567,0.552756 -1.03819,0.836221 -0.34252,0.282284 -0.682678,0.570473 -1.01929,0.861024 -0.336614,0.291733 -0.669686,0.587008 -0.999213,0.885827 -0.329528,0.298819 -0.655512,0.602363 -0.977954,0.910631 -0.322441,0.307087 -0.641339,0.618898 -0.956694,0.934253 -0.311811,0.311811 -0.618898,0.627166 -0.922442,0.946064 -0.303544,0.318898 -0.603544,0.641339 -0.900001,0.967324 -0.296457,0.325985 -0.588189,0.655512 -0.876379,0.989765 -0.288189,0.333071 -0.572835,0.669686 -0.852757,1.01102 -0.279921,0.340158 -0.5563,0.683859 -0.827953,1.0311 -0.271654,0.347244 -0.539764,0.696851 -0.80315,1.05118 -0.263386,0.35315 -0.523229,0.709843 -0.777166,1.07008 -0.255118,0.360236 -0.505512,0.724016 -0.752363,1.09016 -0.245669,0.366142 -0.487796,0.735827 -0.725197,1.10906 -0.237402,0.373229 -0.468898,0.748819 -0.698032,1.12795 -0.227953,0.379134 -0.453544,0.760631 -0.672048,1.14567 -0.219685,0.38504 -0.433465,0.77126 -0.64252,1.16221 -0.210236,0.389764 -0.415748,0.783071 -0.615355,1.17992 -0.200788,0.39567 -0.396851,0.794883 -0.587008,1.19646 -0.190158,0.401575 -0.376772,0.804331 -0.557481,1.21181 -0.180709,0.4063 -0.356693,0.816142 -0.527953,1.22835 -0.167717,0.403937 -0.330709,0.810237 -0.488977,1.2189 -0.158268,0.408662 -0.311811,0.818505 -0.46063,1.23189 -0.148819,0.412205 -0.292914,0.826772 -0.432284,1.24252 -0.13937,0.415748 -0.272835,0.83504 -0.402756,1.25433 -0.12874,0.420473 -0.252756,0.842127 -0.372048,1.26614 -0.119291,0.424016 -0.233858,0.849213 -0.34252,1.27559 -0.108662,0.427559 -0.21378,0.857481 -0.312992,1.2874 -0.0992127,0.429922 -0.191339,0.862205 -0.279921,1.29567 -0.0885827,0.433465 -0.172441,0.869292 -0.250394,1.30512 -0.0779528,0.437008 -0.15,0.875198 -0.217323,1.31457 -0.0673229,0.43937 -0.12874,0.879922 -0.185433,1.32284 -0.056693,0.441733 -0.10748,0.887009 -0.152362,1.3311 -0.0448819,0.444095 -0.0850394,0.890552 -0.119291,1.33819 -0.034252,0.446457 -0.0614174,0.896457 -0.0850394,1.34528 -0.022441,0.448819 -0.0401575,0.901182 -0.0519685,1.35236 -0.011811,0.452363 -0.0177165,0.903544 -0.0177165,1.35827l0 1043.5c0,0.453544 0.00590552,0.907087 0.0177165,1.35827 0.011811,0.452363 0.0283465,0.902363 0.0519685,1.35236 0.022441,0.45 0.0519685,0.897638 0.0850394,1.34528 0.034252,0.447638 0.0744095,0.894095 0.119291,1.33819 0.0448819,0.445276 0.0956694,0.88819 0.152362,1.3311 0.056693,0.441733 0.11811,0.883465 0.185433,1.32284 0.0673229,0.43937 0.13937,0.87756 0.217323,1.31457 0.0779528,0.437008 0.161811,0.871654 0.250394,1.30512 0.0885827,0.433465 0.180709,0.865749 0.279921,1.29567 0.0992127,0.429922 0.204331,0.859843 0.312992,1.2874 0.108662,0.426378 0.223229,0.852757 0.34252,1.27559 0.119291,0.424016 0.243307,0.846851 0.372048,1.26614 0.12874,0.419292 0.264567,0.837402 0.402756,1.25433 0.13937,0.415748 0.283465,0.830316 0.432284,1.24252 0.148819,0.412205 0.302362,0.823229 0.46063,1.23189 0.157087,0.408662 0.320079,0.81378 0.488977,1.2189 0.17126,0.412205 0.347244,0.820867 0.527953,1.22835 0.180709,0.4063 0.367323,0.810237 0.557481,1.21181 0.190158,0.401575 0.386221,0.799607 0.587008,1.19646 0.200788,0.39567 0.405118,0.788977 0.615355,1.17992 0.210236,0.389764 0.422835,0.778347 0.64252,1.16221 0.219685,0.38504 0.444095,0.766536 0.672048,1.14567 0.227953,0.379134 0.46063,0.754725 0.698032,1.12795 0.237402,0.373229 0.479528,0.742914 0.725197,1.10906 0.245669,0.366142 0.497244,0.729922 0.752363,1.09016 0.255118,0.360236 0.51378,0.715749 0.777166,1.07008 0.263386,0.35315 0.531496,0.703938 0.80315,1.05118 0.271654,0.347244 0.548032,0.690945 0.827953,1.0311 0.279921,0.340158 0.564567,0.677953 0.852757,1.01102 0.288189,0.333071 0.579922,0.66378 0.876379,0.989765 0.295276,0.325985 0.595276,0.648426 0.900001,0.967324 0.303544,0.318898 0.61063,0.634252 0.922442,0.946064l1135.88 1135.88 0.956694 0.934253 0.977954 0.910631 0.999213 0.885827 1.01929 0.861024 1.03819 0.836221 1.05827 0.810237 1.07835 0.784253 1.09606 0.758268 1.11378 0.729922 1.1315 0.702756 1.14803 0.67441 1.16575 0.646063 1.1811 0.617717 1.19646 0.587008 1.21181 0.557481 1.22717 0.527953 1.22008 0.488977 1.23189 0.461811 1.2437 0.431103 1.25551 0.402756 1.26614 0.372048 1.27559 0.34252 1.2874 0.311811 1.29567 0.281103 1.30512 0.249213 1.31339 0.217323 1.32284 0.184252 1.32992 0.152362 1.33701 0.119291 1.3441 0.0862205 1.35 0.0507874 1.35709 0.0177165 635.183 0 1.35709 -0.0177165 1.35 -0.0507874 1.3441 -0.0862205 1.33701 -0.119291 1.32992 -0.152362 1.32284 -0.184252 1.31339 -0.217323 1.30512 -0.249213 1.29567 -0.281103 1.2874 -0.311811 1.27559 -0.34252 1.26614 -0.372048 1.25551 -0.402756 1.2437 -0.431103 1.23189 -0.461811 1.22008 -0.488977 1.22717 -0.527953 1.21181 -0.557481 1.19646 -0.587008 1.1811 -0.617717 1.16575 -0.646063 1.14803 -0.67441 1.1315 -0.702756 1.11378 -0.729922 1.09606 -0.758268 1.07835 -0.784253 1.05827 -0.810237 1.03819 -0.836221 1.01929 -0.861024 0.999213 -0.885827 0.977954 -0.910631 0.956694 -0.934253 0.922442 -0.946064 0.900001 -0.967324 0.876379 -0.989765 0.852757 -1.01102 0.827953 -1.0311 0.80315 -1.05118 0.777166 -1.07008 0.752363 -1.09016 0.725197 -1.10906 0.698032 -1.12795 0.672048 -1.14567 0.64252 -1.16221 0.615355 -1.17992 0.587008 -1.19646 0.557481 -1.21181 0.527953 -1.22835 0.488977 -1.2189 0.46063 -1.23189 0.432284 -1.24252 0.402756 -1.25433 0.372048 -1.26614 0.34252 -1.27559 0.311811 -1.2874 0.281103 -1.29567 0.249213 -1.30512 0.217323 -1.31457 0.185433 -1.32284 0.152362 -1.3311 0.119291 -1.33819 0.0862205 -1.34528 0.0507874 -1.35236 0.0177165 -1.35827 0 -1043.5 -0.0177165 -1.35827 -0.0507874 -1.35236 -0.0862205 -1.34528 -0.119291 -1.33819 -0.152362 -1.3311 -0.185433 -1.32284 -0.217323 -1.31457 -0.249213 -1.30512 -0.281103 -1.29567 -0.311811 -1.2874 -0.34252 -1.27559 -0.372048 -1.26614 -0.402756 -1.25433 -0.432284 -1.24252 -0.46063 -1.23189 -0.488977 -1.2189 -0.527953 -1.22835 -0.557481 -1.21181 -0.587008 -1.19646 -0.615355 -1.17992 -0.64252 -1.16221 -0.672048 -1.14567 -0.698032 -1.12795 -0.725197 -1.10906 -0.752363 -1.09016 -0.777166 -1.07008 -0.80315 -1.05118 -0.827953 -1.0311 -0.852757 -1.01102 -0.876379 -0.989765 -0.900001 -0.967324 -0.922442 -0.946064 -1135.75 -1135.75 -0.131102 -0.131102c-0.315355,-0.315355 -0.634252,-0.627166 -0.956694,-0.934253 -0.322441,-0.307087 -0.648426,-0.61063 -0.977954,-0.910631 -0.329528,-0.298819 -0.662599,-0.595276 -0.999213,-0.885827 -0.336614,-0.291733 -0.675591,-0.578741 -1.01929,-0.861024 -0.34252,-0.283465 -0.688583,-0.562205 -1.03819,-0.836221 -0.349607,-0.274016 -0.702756,-0.544489 -1.05827,-0.810237 -0.355512,-0.265748 -0.715749,-0.526772 -1.07835,-0.784253 -0.338977,-0.240945 -0.681497,-0.477166 -1.0252,-0.708662l-0.0708662 -0.0484252 0 -0.0011811 -0.0755906 -0.0496063c-0.343701,-0.230315 -0.690945,-0.458268 -1.03819,-0.680315 -0.37441,-0.238583 -0.751182,-0.473622 -1.1315,-0.702756 -0.380315,-0.229134 -0.762993,-0.454725 -1.14803,-0.67441 -0.38504,-0.219685 -0.774804,-0.435827 -1.16575,-0.646063 -0.390945,-0.210236 -0.784253,-0.416929 -1.1811,-0.617717 -0.39567,-0.200788 -0.794883,-0.39567 -1.19646,-0.587008 -0.400394,-0.190158 -0.804331,-0.376772 -1.21181,-0.557481 -0.4063,-0.180709 -0.814961,-0.356693 -1.22717,-0.527953 -0.403937,-0.167717 -0.811418,-0.330709 -1.22008,-0.488977 -0.408662,-0.158268 -0.819686,-0.312992 -1.23189,-0.461811 -0.412205,-0.148819 -0.827953,-0.291733 -1.2437,-0.431103 -0.416929,-0.13937 -0.83504,-0.272835 -1.25551,-0.402756 -0.420473,-0.12874 -0.842127,-0.252756 -1.26614,-0.372048 -0.424016,-0.119291 -0.848032,-0.233858 -1.27559,-0.34252 -0.427559,-0.108662 -0.857481,-0.212599 -1.2874,-0.311811 -0.431103,-0.0992127 -0.861024,-0.193701 -1.29567,-0.281103 -0.433465,-0.0885827 -0.869292,-0.17126 -1.30512,-0.249213 -0.437008,-0.0779528 -0.874016,-0.15 -1.31339,-0.217323 -0.43937,-0.0673229 -0.879922,-0.127559 -1.32284,-0.184252 -0.441733,-0.056693 -0.885827,-0.10748 -1.32992,-0.152362 -0.444095,-0.0448819 -0.890552,-0.0850394 -1.33701,-0.119291 -0.446457,-0.034252 -0.895276,-0.0625985 -1.3441,-0.0862205 -0.448819,-0.022441 -0.89882,-0.0389764 -1.35,-0.0507874 -0.451181,-0.011811 -0.903544,-0.0177165 -1.35709,-0.0177165z"/>
   </g>
  </g>
  <path class="fil2" d="M1024 -0.0011811c565.541,0 1024,458.461 1024,1024 0,565.541 -458.461,1024 -1024,1024 -565.541,0 -1024,-458.461 -1024,-1024 0,-565.541 458.461,-1024 1024,-1024z"/>
  <g id="_440591800">
   <path id="_440610544" class="fil3" d="M706.408 448l635.183 0c7.25079,0 14.263,1.48347 20.7354,4.16929 6.58111,2.73071 12.5551,6.77835 17.5996,11.824 4.98307,4.98544 9.00237,10.9276 11.7378,17.5181 2.68465,6.46772 4.17048,13.4788 4.17048,20.7402l0 1043.5c0,7.26142 -1.48583,14.2725 -4.17048,20.7402 -2.73544,6.59056 -6.75473,12.5327 -11.7378,17.5181 -5.04449,5.04567 -11.0185,9.09331 -17.5996,11.824 -6.47245,2.68583 -13.4847,4.16929 -20.7354,4.16929l-635.183 0c-7.25079,0 -14.263,-1.48347 -20.7354,-4.16929 -6.58111,-2.73071 -12.5551,-6.77835 -17.5996,-11.824 -4.98307,-4.98544 -9.00237,-10.9276 -11.7378,-17.5181 -2.68465,-6.46772 -4.17166,-13.4788 -4.17166,-20.7402l0 -1043.5c0,-7.26142 1.48701,-14.2725 4.17166,-20.7402 2.73544,-6.59056 6.75473,-12.5327 11.7378,-17.5181 5.04449,-5.04567 11.0185,-9.09331 17.5996,-11.824 6.47245,-2.68583 13.4847,-4.16929 20.7354,-4.16929z"/>
   <polygon id="_440583616" class="fil4" points="724,540.032 1324,540.032 1324,1360.35 724,1360.35 "/>
   <polygon id="_440591536" class="fil5" points="1204,1432.36 1324,1432.36 1324,1480.36 1204,1480.36 "/>
   <polygon id="_440602720" class="fil5" points="724,1432.36 843.999,1432.36 843.999,1480.36 724,1480.36 "/>
   <path id="_440600752" class="fil5" d="M1045.46 1434.11c-2.72835,-1.12441 -5.86418,-1.74213 -9.29883,-1.74213 -3.43583,0 -6.57166,0.617717 -9.30001,1.74213 -2.88071,1.18819 -5.48504,2.93977 -7.67008,5.12717 -2.26772,2.27008 -4.07244,4.92402 -5.27126,7.82245 -1.1315,2.7378 -1.75748,5.86772 -1.75748,9.29174 0,3.31418 0.627166,6.39804 1.76102,9.13229 1.23898,2.98819 3.04252,5.66693 5.26772,7.89568 2.17323,2.17441 4.82244,3.95079 7.80945,5.19095 2.74134,1.1374 5.83229,1.76575 9.16064,1.76575 3.32835,0 6.41812,-0.628347 9.16064,-1.76575 2.98701,-1.24016 5.63622,-3.01654 7.80945,-5.19095 2.2252,-2.22874 4.02874,-4.90748 5.26772,-7.89568 1.13386,-2.73425 1.76102,-5.81811 1.76102,-9.13229 0,-3.42402 -0.625985,-6.55394 -1.75748,-9.29174 -1.19882,-2.89843 -3.00355,-5.55237 -5.27126,-7.82245 -2.18622,-2.1874 -4.78937,-3.93898 -7.67127,-5.12717z"/>
   <path id="_440595568" class="fil5" d="M1024 1384.36c9.59292,0 18.8847,1.94646 27.4866,5.49331 8.83229,3.64134 16.7776,8.97875 23.4213,15.6272 6.58583,6.59292 11.9173,14.5193 15.5835,23.3847 3.54803,8.57953 5.50867,17.863 5.50867,27.4795 0,9.64725 -1.96181,18.9449 -5.51221,27.5079 -3.62835,8.74607 -8.95749,16.6406 -15.5799,23.2701 -6.67914,6.68504 -14.6091,12.0543 -23.3717,15.691 -8.56418,3.55276 -17.8701,5.51693 -27.5362,5.51693 -9.66615,0 -18.9721,-1.96417 -27.5362,-5.51693 -8.76261,-3.63662 -16.6925,-9.00591 -23.3717,-15.691 -6.62245,-6.62953 -11.9516,-14.524 -15.5799,-23.2701 -3.5504,-8.563 -5.51221,-17.8606 -5.51221,-27.5079 0,-9.61654 1.96063,-18.9 5.50867,-27.4795 3.66614,-8.86536 8.99764,-16.7917 15.5835,-23.3847 6.64371,-6.64843 14.589,-11.9858 23.4213,-15.6272 8.60198,-3.54685 17.8937,-5.49331 27.4866,-5.49331z"/>
   <polygon id="_440583736" class="fil6" points="731.332,552.336 1314.42,552.336 1314.42,1360.35 731.332,1360.35 "/>
   <polygon id="_440584696" class="fil7" points="817.112,552.337 817.957,552.337 1314.42,552.337 1314.42,1360.35 1182.14,1360.35 1182.12,1360.35 "/>
   <polygon id="_440584888" class="fil6" points="731.332,552.337 817.112,552.337 1182.12,1360.35 731.332,1360.35 "/>
   <rect id="_440594224" class="fil5" x="963.017" y="491.248" width="121.966" height="13.6296" rx="6.81497" ry="6.81497"/>
   <path id="_440596528" class="fil4" d="M1024 1398.14c7.75631,0 15.2705,1.57441 22.2272,4.44213 7.14095,2.94449 13.5662,7.26024 18.9378,12.6366 5.32559,5.33032 9.6378,11.7402 12.6024,18.9095 2.8689,6.9378 4.45394,14.4437 4.45394,22.2201 0,7.80119 -1.58622,15.3201 -4.45748,22.2437 -2.93386,7.07245 -7.24371,13.4563 -12.5988,18.8162 -5.4,5.40591 -11.8134,9.74883 -18.8988,12.6886 -6.92481,2.87362 -14.4496,4.46103 -22.2662,4.46103 -7.81654,0 -15.3414,-1.5874 -22.2662,-4.46103 -7.08544,-2.93977 -13.4988,-7.28268 -18.8988,-12.6886 -5.35512,-5.35985 -9.66497,-11.7437 -12.5988,-18.8162 -2.87126,-6.92363 -4.45748,-14.4425 -4.45748,-22.2437 0,-7.77638 1.58504,-15.2823 4.45394,-22.2201 2.96457,-7.1693 7.27678,-13.5791 12.6024,-18.9095 5.37166,-5.37638 11.7969,-9.69213 18.9378,-12.6366 6.9567,-2.86772 14.4709,-4.44213 22.2272,-4.44213z"/>
  </g>
 </g>
</svg>
