<svg xmlns="http://www.w3.org/2000/svg" viewBox="0 0 32 32"><title>Artboard-4</title><g id="Give_Key" data-name="Give Key"><path d="M26.722,21H19.015a2.42,2.42,0,0,0-.05-.438,2.3,2.3,0,0,0-1.038-1.478l-6.412-4.008A.5.5,0,0,0,11.25,15H3.5a.5.5,0,0,0,0,1h7.606L17.4,19.932a1.318,1.318,0,0,1,.4,1.848,1.318,1.318,0,0,1-1.775.4l-3.514-2.109a.5.5,0,1,0-.514.858l3.514,2.108a2.316,2.316,0,0,0,3.121-.7A2.4,2.4,0,0,0,18.806,22h7.916a1.279,1.279,0,0,1,.459,2.472l-7.672,2.95a8.706,8.706,0,0,1-7.588-.676L7.509,24.072A.5.5,0,0,0,7.25,24H3.5a.5.5,0,0,0,0,1H7.11L11.4,27.6a9.71,9.71,0,0,0,8.465.753l7.672-2.95A2.279,2.279,0,0,0,26.722,21Z"/><path d="M8.426,12.344a4.989,4.989,0,0,0,3.989.374.572.572,0,0,1,.472.029l2.773,1.71a.5.5,0,0,0,.689-.164l.261-.425,2.128,1.313a.5.5,0,0,0,.378.06l.89-.21.211.889a.5.5,0,0,0,.223.31l.851.525a.484.484,0,0,0,.378.061l.891-.211.211.89a.5.5,0,0,0,.223.311l1.7,1.049a.493.493,0,0,0,.378.061l2.752-.652a.5.5,0,0,0,.31-.75l-1.178-1.9a.511.511,0,0,0-.162-.162L18.71,10.464l.263-.426a.5.5,0,0,0-.163-.688L16.034,7.638a.566.566,0,0,1-.236-.406,4.95,4.95,0,0,0-2.569-3.665,5.05,5.05,0,0,0-4.445-.1A4.7,4.7,0,0,0,5.9,7.66,5.11,5.11,0,0,0,8.426,12.344Zm.768-7.967a4.042,4.042,0,0,1,3.558.069,3.958,3.958,0,0,1,2.056,2.931,1.558,1.558,0,0,0,.7,1.113l2.35,1.448-.262.427a.5.5,0,0,0,.163.688l8.41,5.187.751,1.211-1.876.445-1.35-.833-.278-1.174a.5.5,0,0,0-.6-.371l-1.174.278-.5-.308-.279-1.175a.5.5,0,0,0-.6-.371l-1.175.279L16.71,12.754a.494.494,0,0,0-.378-.06.5.5,0,0,0-.311.224l-.261.425L13.412,11.9A1.545,1.545,0,0,0,12.1,11.77a4,4,0,0,1-3.187-.3A4.1,4.1,0,0,1,6.9,7.7,3.735,3.735,0,0,1,9.194,4.377Z"/><path d="M9.95,9.7A1.983,1.983,0,0,0,11,10,2,2,0,0,0,12.7,9.05h0A2,2,0,1,0,9.95,9.7Zm.2-2.227a1,1,0,0,1,.621-.448A1.02,1.02,0,0,1,11,7a1,1,0,1,1-.853.475Z"/></g></svg>