<?xml version="1.0" encoding="UTF-8"?>
<!DOCTYPE svg PUBLIC "-//W3C//DTD SVG 1.1//EN" "http://www.w3.org/Graphics/SVG/1.1/DTD/svg11.dtd">
<!-- Creator: CorelDRAW -->
<svg xmlns="http://www.w3.org/2000/svg" xml:space="preserve" width="2048px" height="2048px" style="shape-rendering:geometricPrecision; text-rendering:geometricPrecision; image-rendering:optimizeQuality; fill-rule:evenodd; clip-rule:evenodd"
viewBox="0 0 2048 2048"
 xmlns:xlink="http://www.w3.org/1999/xlink">
 <defs>
  <style type="text/css">
   <![CDATA[
    .str0 {stroke:#424242;stroke-width:2.08347}
    .fil2 {fill:none}
    .fil1 {fill:#757575}
    .fil4 {fill:#8BC34A}
    .fil0 {fill:#9E9E9E}
    .fil5 {fill:#F1F8E9}
    .fil7 {fill:#F43C3C}
    .fil6 {fill:#FF5252}
    .fil3 {fill:#4D4D4D;fill-rule:nonzero}
   ]]>
  </style>
   <clipPath id="id0">
    <path d="M1024 -0.0011811c565.541,0 1024,458.461 1024,1024 0,565.541 -458.461,1024 -1024,1024 -565.541,0 -1024,-458.461 -1024,-1024 0,-565.541 458.461,-1024 1024,-1024z"/>
   </clipPath>
 </defs>
 <g id="Layer_x0020_1">
  <metadata id="CorelCorpID_0Corel-Layer"/>
  <path class="fil0" d="M1024 -0.0011811c565.541,0 1024,458.461 1024,1024 0,565.541 -458.461,1024 -1024,1024 -565.541,0 -1024,-458.461 -1024,-1024 0,-565.541 458.461,-1024 1024,-1024z"/>
  <g style="clip-path:url(#id0)">
   <g id="_466409536">
    <g>
     <polygon id="_4625475041" class="fil1" points="1238.93,665.611 2374.81,1801.49 2378.14,1805.25 2381.39,1809.09 2384.54,1813 2387.6,1816.99 2390.57,1821.06 2393.44,1825.2 2396.21,1829.41 2398.88,1833.69 2401.45,1838.04 2403.92,1842.45 2406.28,1846.93 2408.54,1851.47 2410.69,1856.08 2412.73,1860.74 2414.66,1865.47 2416.48,1870.25 2418.18,1875.08 2419.77,1879.97 2421.24,1884.91 2422.59,1889.9 2423.82,1894.94 2424.92,1900.02 2425.91,1905.15 2426.76,1910.33 2427.49,1915.54 2428.1,1920.8 2428.57,1926.09 2428.9,1931.43 2429.11,1936.79 2429.18,1942.19 1293.3,806.312 1293.23,800.911 1293.02,795.544 1292.68,790.212 1292.21,784.918 1291.61,779.662 1290.88,774.446 1290.03,769.271 1289.04,764.141 1287.94,759.055 1286.71,754.016 1285.36,749.026 1283.89,744.087 1282.3,739.198 1280.6,734.364 1278.78,729.584 1276.85,724.861 1274.81,720.195 1272.66,715.591 1270.4,711.048 1268.04,706.568 1265.57,702.153 1263,697.805 1260.33,693.525 1257.55,689.314 1254.68,685.176 1251.72,681.109 1248.66,677.118 1245.51,673.204 1242.26,669.368 "/>
     <polygon id="_462547360" class="fil1" points="1293.3,806.312 2429.18,1942.19 2429.13,1944.73 2428.98,1947.41 2428.74,1950.23 2428.41,1953.18 2427.98,1956.25 2427.47,1959.46 2426.87,1962.79 2426.18,1966.24 2425.41,1969.81 2424.55,1973.5 2423.62,1977.3 2422.61,1981.2 2421.52,1985.22 2420.35,1989.34 2419.11,1993.56 2417.8,1997.88 2416.42,2002.3 2414.97,2006.81 2413.45,2011.41 2411.87,2016.09 2410.23,2020.86 2408.52,2025.71 2406.76,2030.64 2404.94,2035.65 2403.06,2040.73 2401.13,2045.88 2399.15,2051.09 2397.11,2056.37 2395.03,2061.71 2392.9,2067.11 2390.73,2072.56 2388.51,2078.07 1252.63,942.189 1254.85,936.682 1257.02,931.228 1259.15,925.829 1261.23,920.488 1263.27,915.21 1265.25,909.994 1267.18,904.846 1269.06,899.768 1270.88,894.762 1272.64,889.833 1274.35,884.981 1275.99,880.21 1277.57,875.525 1279.09,870.925 1280.54,866.417 1281.92,862.001 1283.23,857.681 1284.47,853.458 1285.63,849.338 1286.73,845.322 1287.74,841.413 1288.67,837.614 1289.53,833.929 1290.3,830.358 1290.99,826.907 1291.59,823.577 1292.1,820.372 1292.53,817.294 1292.86,814.346 1293.1,811.531 1293.25,808.853 "/>
     <polygon id="_462550648" class="fil1" points="1252.63,942.189 2388.51,2078.07 2387.96,2079.42 2387.42,2080.76 2386.87,2082.12 2386.31,2083.47 2385.76,2084.83 2385.2,2086.19 2384.64,2087.56 2384.08,2088.92 1248.2,953.042 1248.76,951.674 1249.32,950.309 1249.88,948.947 1250.43,947.589 1250.98,946.234 1251.53,944.883 1252.08,943.534 "/>
     <polygon id="_462549928" class="fil1" points="1297.12,953.042 2433,2088.92 2439.58,2100.33 1303.69,964.446 "/>
     <polygon id="_462551008" class="fil1" points="1303.69,964.446 2439.58,2100.33 2700.37,2552.97 1564.49,1417.09 "/>
     <polygon id="_466413328" class="fil1" points="1564.49,1417.09 2700.37,2552.97 2719.88,2586.83 1584,1450.95 "/>
     <polygon id="_466420480" class="fil1" points="1584,1450.95 2719.88,2586.83 2680.84,2586.83 1544.95,1450.95 "/>
     <polygon id="_466418344" class="fil1" points="1544.95,1450.95 2680.84,2586.83 1639.77,2586.83 503.888,1450.95 "/>
     <polygon id="_466418824" class="fil1" points="503.888,1450.95 1639.77,2586.83 1599.88,2586.83 463.999,1450.95 "/>
    </g>
    <path id="_466409968" class="fil1" d="M1232 658.343c37.8709,37.8697 61.2945,90.1867 61.2945,147.969 0,26.3433 -16.7823,76.8674 -40.6677,135.876 -1.45039,3.58229 -2.92796,7.20119 -4.4315,10.8532l35.9611 0 12.9662 0 6.57166 11.4047 260.797 452.642 19.5083 33.8599 -39.0461 0 -1041.07 0 -39.8894 0 20.5276 -34.213 271.578 -452.644 6.63189 -11.0504 12.7299 0 144.403 0c-1.32638,-3.22323 -2.63386,-6.42048 -3.9189,-9.58938 -24.1583,-59.5536 -41.1792,-110.614 -41.1792,-137.14 0,-57.7819 23.4225,-110.099 61.2934,-147.969 37.8697,-37.8697 90.1855,-61.2922 147.969,-61.2922 57.7831,0 110.098,23.4225 147.967,61.2922z"/>
   </g>
  </g>
  <path class="fil2" d="M1024 -0.0011811c565.541,0 1024,458.461 1024,1024 0,565.541 -458.461,1024 -1024,1024 -565.541,0 -1024,-458.461 -1024,-1024 0,-565.541 458.461,-1024 1024,-1024z"/>
  <path class="fil3 str0" d="M775.466 953.042l303.042 0c6.15119,15.137 12.4784,30.2221 18.9402,45.2646l-309.252 0 -33.3862 55.6453 -211.034 351.733 962.131 0 -234.717 -407.378 -153.422 0c6.463,-15.0414 12.789,-30.1276 18.939,-45.2646l147.449 0 12.9662 0 6.57166 11.4047 260.797 452.642 19.5083 33.8599 -39.0461 0 -1041.07 0 -39.8894 0 20.5276 -34.213 271.578 -452.644 6.63189 -11.0504 12.7299 0z"/>
  <path class="fil4" d="M788.482 1148.49l202.556 -48.443c-16.4917,-35.6646 -30.1725,-65.6115 -45.6933,-101.74l-157.148 0 -33.1937 55.3252 33.4796 94.8579z"/>
  <path class="fil4" d="M1010.21 1141.5l-206.608 49.8284 52.9654 150.071 546.528 -114.158 -131.904 -228.934 -48.4713 0c-18.4748,43.0004 -37.0158,82.9134 -56.6953,125.262 -13.3299,28.6855 -22.8106,51.8185 -34.7209,81.1052 -12.6106,31.0099 -25.5177,63.0071 -46.4764,61.976 -22.878,-1.12559 -32.3256,-24.5705 -45.3036,-56.1331 -8.98229,-21.848 -19.6677,-47.5087 -29.3138,-69.0166z"/>
  <polygon class="fil4" points="831.34,1405.68 724.832,1103.92 543.776,1405.68 "/>
  <polygon class="fil4" points="1426.81,1268.41 871.729,1384.35 879.256,1405.68 1505.91,1405.68 "/>
  <path class="fil5" d="M724.832 1103.92l106.507 301.768 47.9162 0 -7.52717 -21.3295 555.085 -115.945 -23.7189 -41.1685 -546.528 114.158 -52.9654 -150.071 206.608 -49.8284c-3.15473,-7.04646 -6.52914,-14.4555 -10.148,-22.2366 -18.0272,-38.7591 -37.226,-80.7071 -54.6886,-120.891 0.00944883,0.0212599 0.0188977,0.0425197 0.0271654,0.0625985 15.4984,36.0721 29.1662,65.9894 45.6378,101.611l-202.556 48.443 -33.4796 -94.8579 -0.19252 0.320079 -29.9776 49.9642z"/>
  <path class="fil6" d="M1084.03 597.05c57.7831,0 110.099,23.4236 147.967,61.2934 37.8709,37.8697 61.2945,90.1867 61.2945,147.969 0,26.3433 -16.7811,76.8674 -40.6677,135.876 -22.9146,56.6079 -52.78,122.41 -80.1934,181.396 -17.5618,37.7918 -30.0402,68.4745 -39.3213,91.2934 -17.2925,42.5209 -25.9925,63.9142 -48.2552,64.35 -22.8851,0.45 -31.7988,-21.2173 -49.7268,-64.8142 -8.97048,-21.8185 -20.9291,-50.8973 -38.2843,-88.2154 -27.5386,-59.2087 -57.7087,-125.577 -80.8973,-182.746 -24.1571,-59.5524 -41.1792,-110.614 -41.1792,-137.14 0,-57.7819 23.4236,-110.099 61.2945,-147.969 37.8697,-37.8697 90.1855,-61.2934 147.969,-61.2934zm0 117.228c22.8862,0 43.6099,9.28111 58.6099,24.2811 15,15 24.2799,35.7236 24.2799,58.6099 0,22.8862 -9.27875,43.6099 -24.2799,58.6111 -15.0012,15 -35.7236,24.2799 -58.6099,24.2799 -22.8851,0 -43.6099,-9.27993 -58.6111,-24.2799 -15,-15.0012 -24.2799,-35.726 -24.2799,-58.6111 0,-22.8862 9.28111,-43.6099 24.2811,-58.6099 14.9988,-15 35.7236,-24.2811 58.6099,-24.2811z"/>
  <path class="fil7" d="M1084.03 597.051l0.0011811 0 0 117.227 -0.0011811 0c-22.8862,0 -43.6111,9.28111 -58.6099,24.2811 -15.0012,15 -24.2799,35.7236 -24.2799,58.6111 0,22.8851 9.27875,43.6087 24.2788,58.6099 15.0012,15 35.726,24.2799 58.6111,24.2799l0.0011811 0 0 399.172c-22.2768,-0.0826772 -31.1929,-21.7477 -48.9036,-64.8178 -8.97048,-21.8185 -20.9291,-50.8973 -38.2843,-88.2154 -27.5386,-59.2087 -57.7087,-125.577 -80.8961,-182.746 -24.1583,-59.5536 -41.1792,-110.614 -41.1792,-137.14 0,-57.7819 23.4225,-110.099 61.2934,-147.969 37.8697,-37.8697 90.1855,-61.2922 147.969,-61.2922z"/>
 </g>
</svg>
