<?xml version="1.0" encoding="UTF-8"?>
<!DOCTYPE svg PUBLIC "-//W3C//DTD SVG 1.1//EN" "http://www.w3.org/Graphics/SVG/1.1/DTD/svg11.dtd">
<!-- Creator: CorelDRAW -->
<svg xmlns="http://www.w3.org/2000/svg" xml:space="preserve" width="2048px" height="2048px" style="shape-rendering:geometricPrecision; text-rendering:geometricPrecision; image-rendering:optimizeQuality; fill-rule:evenodd; clip-rule:evenodd"
viewBox="0 0 2048 2048"
 xmlns:xlink="http://www.w3.org/1999/xlink">
 <defs>
  <style type="text/css">
   <![CDATA[
    .fil2 {fill:none}
    .fil1 {fill:#546E7A}
    .fil0 {fill:#90A4AE}
    .fil3 {fill:#81D4FA;fill-rule:nonzero}
    .fil4 {fill:#FFEE58;fill-rule:nonzero}
   ]]>
  </style>
   <clipPath id="id0">
    <path d="M1024 0c565.541,0 1024,458.459 1024,1024 0,565.541 -458.459,1024 -1024,1024 -565.541,0 -1024,-458.459 -1024,-1024 0,-565.541 458.459,-1024 1024,-1024z"/>
   </clipPath>
 </defs>
 <g id="Layer_x0020_1">
  <metadata id="CorelCorpID_0Corel-Layer"/>
  <path class="fil0" d="M1024 0c565.541,0 1024,458.459 1024,1024 0,565.541 -458.459,1024 -1024,1024 -565.541,0 -1024,-458.459 -1024,-1024 0,-565.541 458.459,-1024 1024,-1024z"/>
  <g style="clip-path:url(#id0)">
   <g id="_308725768">
    <g>
     <polygon id="_3021564241" class="fil1" points="1564.25,697.119 2700.13,1833 2701.39,1834.49 2702.61,1836 2703.79,1837.55 2704.94,1839.12 2706.05,1840.72 2707.12,1842.35 2708.16,1844.01 2709.15,1845.69 2710.11,1847.4 2711.02,1849.13 2711.9,1850.89 2712.73,1852.67 2713.52,1854.48 2714.27,1856.3 2714.97,1858.15 2715.63,1860.02 2716.24,1861.91 2716.81,1863.83 2717.33,1865.76 2717.81,1867.71 2718.24,1869.68 2718.62,1871.66 2718.95,1873.66 2719.23,1875.68 2719.46,1877.72 2719.65,1879.76 2719.78,1881.83 2719.86,1883.9 2719.88,1885.99 1584,750.112 1583.98,748.022 1583.9,745.945 1583.76,743.882 1583.58,741.833 1583.35,739.799 1583.07,737.781 1582.74,735.779 1582.36,733.793 1581.93,731.826 1581.45,729.876 1580.93,727.945 1580.36,726.032 1579.75,724.142 1579.09,722.271 1578.38,720.421 1577.64,718.593 1576.85,716.788 1576.01,715.006 1575.14,713.248 1574.23,711.514 1573.27,709.806 1572.28,708.123 1571.24,706.466 1570.17,704.838 1569.06,703.236 1567.91,701.663 1566.73,700.118 1565.51,698.604 "/>
     <polygon id="_302156712" class="fil1" points="1584,750.112 2719.88,1885.99 2719.86,1888.08 2719.78,1890.16 2719.65,1892.22 2719.46,1894.27 2719.23,1896.31 2718.95,1898.32 2718.62,1900.33 2718.24,1902.31 2717.81,1904.28 2717.33,1906.23 2716.81,1908.16 2716.24,1910.07 2715.63,1911.96 2714.97,1913.83 2714.27,1915.68 2713.52,1917.51 2712.73,1919.32 2711.9,1921.1 2711.02,1922.86 2710.11,1924.59 2709.15,1926.3 2708.16,1927.98 2707.12,1929.64 2706.05,1931.27 2704.94,1932.87 2703.79,1934.44 2702.61,1935.99 2701.39,1937.5 2700.13,1938.99 2698.84,1940.44 2697.52,1941.86 2696.16,1943.25 1560.28,807.37 1561.64,805.98 1562.96,804.558 1564.25,803.104 1565.51,801.62 1566.73,800.104 1567.91,798.56 1569.06,796.987 1570.17,795.386 1571.24,793.756 1572.28,792.1 1573.27,790.417 1574.23,788.709 1575.14,786.975 1576.01,785.216 1576.85,783.435 1577.64,781.629 1578.38,779.802 1579.09,777.953 1579.75,776.082 1580.36,774.19 1580.93,772.279 1581.45,770.347 1581.93,768.397 1582.36,766.43 1582.74,764.444 1583.07,762.442 1583.35,760.424 1583.58,758.39 1583.76,756.341 1583.9,754.279 1583.98,752.201 "/>
     <polygon id="_302157264" class="fil1" points="1560.28,807.37 2696.16,1943.25 2694.77,1944.61 2693.35,1945.93 2691.9,1947.22 2690.41,1948.48 2688.9,1949.7 2687.35,1950.88 2685.78,1952.03 2684.18,1953.14 2682.55,1954.21 2680.89,1955.25 2679.21,1956.24 2677.5,1957.2 2675.77,1958.11 2674.01,1958.99 2672.23,1959.82 2670.42,1960.61 2668.59,1961.35 2666.74,1962.06 2664.87,1962.72 2662.98,1963.33 2661.07,1963.9 2659.14,1964.42 2657.19,1964.9 2655.22,1965.33 2653.24,1965.71 2651.23,1966.04 2649.22,1966.32 2647.18,1966.55 2645.13,1966.74 2643.07,1966.87 2640.99,1966.95 2638.9,1966.97 1503.02,831.09 1505.11,831.064 1507.19,830.985 1509.25,830.854 1511.3,830.672 1513.33,830.44 1515.35,830.157 1517.36,829.825 1519.34,829.445 1521.31,829.016 1523.26,828.54 1525.19,828.018 1527.1,827.449 1528.99,826.835 1530.86,826.176 1532.71,825.472 1534.54,824.725 1536.35,823.935 1538.13,823.104 1539.89,822.23 1541.62,821.316 1543.33,820.36 1545.01,819.366 1546.67,818.331 1548.3,817.259 1549.9,816.148 1551.47,815.001 1553.02,813.817 1554.53,812.597 1556.01,811.341 1557.47,810.051 1558.89,808.727 "/>
     <polygon id="_302157072" class="fil1" points="1503.02,831.09 2638.9,1966.97 2637.26,1966.96 2635.62,1966.91 2634,1966.83 2632.38,1966.71 2630.77,1966.57 2629.17,1966.39 2627.58,1966.19 2626,1965.95 2624.42,1965.68 2622.86,1965.38 2621.31,1965.06 2619.78,1964.7 2618.25,1964.31 2616.73,1963.9 2615.23,1963.46 2613.74,1962.98 2612.26,1962.48 2610.79,1961.96 2609.34,1961.4 2607.9,1960.82 2606.47,1960.21 2605.06,1959.58 2603.67,1958.92 2602.28,1958.23 2600.92,1957.52 2599.56,1956.79 2598.23,1956.03 2596.91,1955.24 2595.6,1954.43 2594.32,1953.6 2593.05,1952.74 2591.79,1951.86 1455.91,815.979 1457.17,816.859 1458.44,817.717 1459.72,818.549 1461.03,819.36 1462.35,820.144 1463.68,820.906 1465.04,821.642 1466.4,822.353 1467.78,823.039 1469.18,823.698 1470.59,824.332 1472.02,824.94 1473.46,825.522 1474.91,826.075 1476.38,826.602 1477.86,827.101 1479.35,827.573 1480.85,828.016 1482.37,828.431 1483.89,828.817 1485.43,829.173 1486.98,829.501 1488.54,829.799 1490.12,830.066 1491.7,830.304 1493.29,830.51 1494.89,830.686 1496.5,830.832 1498.12,830.944 1499.74,831.025 1501.38,831.074 "/>
     <polygon id="_302157432" class="fil1" points="1455.91,815.979 2591.79,1951.86 2545.09,1984.04 1409.21,848.161 "/>
     <polygon id="_302157168" class="fil1" points="1410.71,849.805 2546.59,1985.69 2550.36,1989.95 2554.03,1994.31 2557.59,1998.76 2561.04,2003.28 2564.39,2007.89 2567.63,2012.59 2570.76,2017.36 2573.77,2022.2 2576.67,2027.13 2579.45,2032.12 2582.12,2037.19 2584.66,2042.33 2587.09,2047.53 2589.38,2052.8 2591.56,2058.13 2593.6,2063.53 2595.52,2068.98 2597.31,2074.49 2598.96,2080.06 2600.48,2085.68 2601.87,2091.35 2603.11,2097.07 2604.22,2102.84 2605.18,2108.65 2606.01,2114.51 2606.68,2120.41 2607.21,2126.35 2607.59,2132.33 2607.83,2138.34 2607.91,2144.39 2607.83,2150.47 2607.6,2156.58 1471.72,1020.7 1471.95,1014.59 1472.03,1008.51 1471.95,1002.46 1471.71,996.447 1471.33,990.47 1470.8,984.53 1470.12,978.629 1469.3,972.771 1468.34,966.956 1467.23,961.188 1465.98,955.466 1464.6,949.795 1463.08,944.175 1461.43,938.609 1459.64,933.098 1457.72,927.644 1455.68,922.25 1453.5,916.919 1451.2,911.649 1448.78,906.445 1446.24,901.309 1443.57,896.241 1440.79,891.245 1437.89,886.322 1434.88,881.474 1431.75,876.703 1428.51,872.011 1425.16,867.4 1421.71,862.873 1418.14,858.429 1414.48,854.072 "/>
     <polygon id="_302157408" class="fil1" points="1090.84,728.396 2226.72,1864.28 2228.96,1866.67 2231.16,1869.1 2233.33,1871.57 2235.46,1874.06 2237.55,1876.59 2239.61,1879.15 2241.62,1881.74 2243.6,1884.37 2245.53,1887.02 2247.43,1889.71 2249.28,1892.42 2251.09,1895.16 2252.87,1897.93 2254.6,1900.74 2256.28,1903.56 2257.93,1906.42 2259.53,1909.3 2261.09,1912.21 2262.6,1915.15 2264.07,1918.11 2265.5,1921.09 2266.88,1924.1 2268.21,1927.14 2269.5,1930.19 1133.62,794.312 1132.33,791.254 1131,788.22 1129.62,785.209 1128.19,782.223 1126.72,779.264 1125.21,776.329 1123.65,773.419 1122.05,770.536 1120.4,767.682 1118.72,764.853 1116.98,762.053 1115.21,759.281 1113.4,756.538 1111.55,753.824 1109.65,751.139 1107.72,748.485 1105.74,745.862 1103.73,743.271 1101.67,740.709 1099.58,738.181 1097.45,735.684 1095.28,733.222 1093.08,730.791 "/>
     <polygon id="_302157600" class="fil1" points="1395.49,1181.27 2531.37,2317.15 2529.96,2318.42 2528.53,2319.67 2527.1,2320.92 2525.66,2322.16 2524.2,2323.38 2522.74,2324.59 2521.26,2325.79 2519.78,2326.98 1383.9,1191.1 1385.38,1189.91 1386.86,1188.71 1388.32,1187.5 1389.77,1186.27 1391.22,1185.04 1392.65,1183.79 1394.08,1182.53 "/>
     <polygon id="_302158080" class="fil1" points="1471.72,1020.7 2607.6,2156.58 2607.23,2162.63 2606.7,2168.62 2606.02,2174.56 2605.21,2180.44 2604.25,2186.26 2603.15,2192.03 2601.91,2197.73 2600.53,2203.38 2599.02,2208.96 2597.38,2214.48 2595.6,2219.93 2593.7,2225.32 2591.67,2230.64 2589.51,2235.89 2587.23,2241.07 2584.83,2246.18 2582.31,2251.21 2579.67,2256.18 2576.91,2261.06 2574.04,2265.87 2571.06,2270.6 2567.96,2275.26 2564.76,2279.83 2561.46,2284.32 2558.04,2288.73 2554.53,2293.05 2550.91,2297.29 2547.19,2301.44 2543.38,2305.5 2539.47,2309.48 2535.47,2313.36 2531.37,2317.15 1395.49,1181.27 1399.59,1177.47 1403.59,1173.59 1407.5,1169.62 1411.31,1165.56 1415.03,1161.41 1418.64,1157.17 1422.16,1152.85 1425.57,1148.44 1428.88,1143.95 1432.08,1139.37 1435.18,1134.72 1438.16,1129.99 1441.03,1125.18 1443.79,1120.29 1446.43,1115.33 1448.95,1110.29 1451.35,1105.19 1453.63,1100.01 1455.79,1094.76 1457.82,1089.44 1459.72,1084.05 1461.5,1078.6 1463.14,1073.08 1464.65,1067.5 1466.03,1061.85 1467.26,1056.15 1468.37,1050.38 1469.33,1044.56 1470.14,1038.68 1470.82,1032.74 1471.34,1026.75 "/>
     <polygon id="_302158248" class="fil1" points="1584,1305.08 2719.88,2440.96 2719.86,2443.05 2719.78,2445.13 2719.65,2447.19 2719.46,2449.24 2719.23,2451.27 2718.95,2453.29 2718.62,2455.3 2718.24,2457.28 2717.81,2459.25 2717.33,2461.2 2716.81,2463.13 2716.24,2465.04 2715.63,2466.93 2714.97,2468.8 2714.27,2470.65 2713.52,2472.48 2712.73,2474.29 2711.9,2476.07 2711.02,2477.83 2710.11,2479.56 2709.15,2481.27 2708.16,2482.95 2707.12,2484.61 2706.05,2486.24 2704.94,2487.84 2703.79,2489.41 2702.61,2490.96 2701.39,2492.47 2700.13,2493.96 2698.84,2495.41 2697.52,2496.83 2696.16,2498.22 1560.28,1362.34 1561.64,1360.95 1562.96,1359.53 1564.25,1358.07 1565.51,1356.59 1566.73,1355.07 1567.91,1353.53 1569.06,1351.96 1570.17,1350.35 1571.24,1348.73 1572.28,1347.07 1573.27,1345.39 1574.23,1343.68 1575.14,1341.94 1576.01,1340.19 1576.85,1338.4 1577.64,1336.6 1578.38,1334.77 1579.09,1332.92 1579.75,1331.05 1580.36,1329.16 1580.93,1327.25 1581.45,1325.32 1581.93,1323.37 1582.36,1321.4 1582.74,1319.41 1583.07,1317.41 1583.35,1315.39 1583.58,1313.36 1583.76,1311.31 1583.9,1309.25 1583.98,1307.17 "/>
     <polygon id="_302158032" class="fil1" points="1427.03,1277.05 2562.91,2412.93 2477.49,2354.07 1341.61,1218.19 "/>
     <polygon id="_302157864" class="fil1" points="1341.61,1218.19 2477.49,2354.07 2474.17,2355.72 2470.83,2357.32 2467.46,2358.87 2464.06,2360.37 2460.64,2361.83 2457.19,2363.24 2453.71,2364.6 2450.21,2365.91 2446.68,2367.17 2443.13,2368.38 2439.56,2369.54 2435.96,2370.65 2432.34,2371.71 2428.7,2372.71 2425.04,2373.67 2421.36,2374.57 2417.65,2375.43 2413.93,2376.22 2410.19,2376.97 2406.43,2377.66 2402.65,2378.3 2398.85,2378.88 2395.04,2379.41 2391.21,2379.89 2387.36,2380.31 2383.5,2380.67 2379.62,2380.98 2375.73,2381.23 2371.83,2381.43 2367.91,2381.56 2363.98,2381.64 2360.03,2381.67 1224.15,1245.78 1228.09,1245.76 1232.03,1245.68 1235.95,1245.54 1239.85,1245.35 1243.74,1245.1 1247.62,1244.79 1251.48,1244.43 1255.33,1244.01 1259.16,1243.53 1262.97,1243 1266.77,1242.42 1270.55,1241.78 1274.31,1241.09 1278.05,1240.34 1281.77,1239.54 1285.48,1238.69 1289.16,1237.79 1292.82,1236.83 1296.46,1235.82 1300.08,1234.76 1303.68,1233.66 1307.25,1232.49 1310.8,1231.28 1314.33,1230.02 1317.83,1228.71 1321.3,1227.35 1324.75,1225.95 1328.18,1224.49 1331.58,1222.99 1334.95,1221.43 1338.29,1219.84 "/>
     <polygon id="_302158416" class="fil1" points="1560.28,1362.34 2696.16,2498.22 2694.77,2499.58 2693.35,2500.9 2691.9,2502.19 2690.41,2503.45 2688.9,2504.67 2687.35,2505.85 2685.78,2507 2684.18,2508.11 2682.55,2509.18 2680.89,2510.22 2679.21,2511.21 2677.5,2512.17 2675.77,2513.08 2674.01,2513.95 2672.23,2514.79 2670.42,2515.58 2668.59,2516.32 2666.74,2517.03 2664.87,2517.69 2662.98,2518.3 2661.07,2518.87 2659.14,2519.39 2657.19,2519.87 2655.22,2520.3 2653.24,2520.68 2651.23,2521.01 2649.22,2521.29 2647.18,2521.52 2645.13,2521.71 2643.07,2521.84 2640.99,2521.92 2638.9,2521.94 1503.02,1386.06 1505.11,1386.03 1507.19,1385.95 1509.25,1385.82 1511.3,1385.64 1513.33,1385.41 1515.35,1385.13 1517.36,1384.79 1519.34,1384.41 1521.31,1383.98 1523.26,1383.51 1525.19,1382.99 1527.1,1382.42 1528.99,1381.8 1530.86,1381.14 1532.71,1380.44 1534.54,1379.69 1536.35,1378.9 1538.13,1378.07 1539.89,1377.2 1541.62,1376.28 1543.33,1375.33 1545.01,1374.33 1546.67,1373.3 1548.3,1372.23 1549.9,1371.12 1551.47,1369.97 1553.02,1368.79 1554.53,1367.57 1556.01,1366.31 1557.47,1365.02 1558.89,1363.7 "/>
     <polygon id="_302157720" class="fil1" points="1503.02,1386.06 2638.9,2521.94 2636.81,2521.92 2634.74,2521.84 2632.67,2521.71 2630.63,2521.52 2628.59,2521.29 2626.57,2521.01 2624.57,2520.68 2622.59,2520.3 2620.62,2519.87 2618.67,2519.39 2616.74,2518.87 2614.83,2518.3 2612.93,2517.69 2611.06,2517.03 2609.21,2516.32 2607.39,2515.58 2605.58,2514.79 2603.8,2513.95 2602.04,2513.08 2600.31,2512.17 2598.6,2511.21 2596.92,2510.22 2595.26,2509.18 2593.63,2508.11 2592.03,2507 2590.46,2505.85 2588.91,2504.67 2587.4,2503.45 2585.91,2502.19 2584.46,2500.9 2583.04,2499.58 2581.65,2498.22 1445.76,1362.34 1447.16,1363.7 1448.58,1365.02 1450.03,1366.31 1451.52,1367.57 1453.03,1368.79 1454.57,1369.97 1456.15,1371.12 1457.75,1372.23 1459.38,1373.3 1461.04,1374.33 1462.72,1375.33 1464.43,1376.28 1466.16,1377.2 1467.92,1378.07 1469.7,1378.9 1471.5,1379.69 1473.33,1380.44 1475.18,1381.14 1477.05,1381.8 1478.94,1382.42 1480.86,1382.99 1482.79,1383.51 1484.74,1383.98 1486.7,1384.41 1488.69,1384.79 1490.69,1385.13 1492.71,1385.41 1494.74,1385.64 1496.79,1385.82 1498.86,1385.95 1500.93,1386.03 "/>
     <polygon id="_302158176" class="fil1" points="1224.15,1245.78 2360.03,2381.67 1803.92,2380.72 668.038,1244.83 "/>
     <polygon id="_302158272" class="fil1" points="668.038,1244.83 1803.92,2380.72 1802.59,2380.71 1801.29,2380.7 1800.04,2380.68 1798.82,2380.66 1797.65,2380.63 1796.52,2380.59 1795.42,2380.55 1794.37,2380.5 658.488,1244.62 659.541,1244.67 660.635,1244.71 661.769,1244.75 662.943,1244.78 664.157,1244.8 665.41,1244.82 666.704,1244.83 "/>
     <polygon id="_302157792" class="fil1" points="658.488,1244.62 1794.37,2380.5 1789.18,2380.17 1784.03,2379.71 1778.92,2379.11 1773.86,2378.39 1768.84,2377.54 1763.87,2376.56 1758.94,2375.46 1754.07,2374.23 1749.24,2372.89 1744.47,2371.42 1739.74,2369.84 1735.07,2368.14 1730.46,2366.33 1725.9,2364.41 1721.41,2362.38 1716.97,2360.24 1712.59,2357.99 1708.27,2355.64 1704.02,2353.19 1699.83,2350.63 1695.71,2347.98 1691.65,2345.23 1687.67,2342.38 1683.75,2339.44 1679.91,2336.41 1676.14,2333.29 1672.44,2330.08 536.556,1194.2 540.254,1197.41 544.026,1200.53 547.871,1203.56 551.787,1206.5 555.773,1209.34 559.828,1212.1 563.951,1214.75 568.139,1217.3 572.391,1219.76 576.708,1222.11 581.086,1224.35 585.525,1226.49 590.024,1228.53 594.58,1230.45 599.194,1232.26 603.861,1233.96 608.585,1235.54 613.36,1237 618.186,1238.35 623.063,1239.57 627.988,1240.68 632.96,1241.66 637.979,1242.51 643.042,1243.23 648.149,1243.83 653.298,1244.29 "/>
     <polygon id="_302157960" class="fil1" points="1561.64,1249.21 2697.52,2385.09 2698.84,2386.52 2700.13,2387.97 2701.39,2389.45 2702.61,2390.97 2703.79,2392.51 2704.94,2394.09 2706.05,2395.69 2707.12,2397.32 2708.16,2398.97 2709.15,2400.66 2710.11,2402.37 2711.02,2404.1 2711.9,2405.86 2712.73,2407.64 2713.52,2409.44 2714.27,2411.27 2714.97,2413.12 2715.63,2414.99 2716.24,2416.88 2716.81,2418.8 2717.33,2420.73 2717.81,2422.68 2718.24,2424.64 2718.62,2426.63 2718.95,2428.63 2719.23,2430.65 2719.46,2432.68 2719.65,2434.73 2719.78,2436.8 2719.86,2438.87 2719.88,2440.96 1584,1305.08 1583.98,1302.99 1583.9,1300.91 1583.76,1298.85 1583.58,1296.8 1583.35,1294.77 1583.07,1292.75 1582.74,1290.75 1582.36,1288.76 1581.93,1286.79 1581.45,1284.84 1580.93,1282.91 1580.36,1281 1579.75,1279.11 1579.09,1277.24 1578.38,1275.39 1577.64,1273.56 1576.85,1271.76 1576.01,1269.97 1575.14,1268.22 1574.23,1266.48 1573.27,1264.77 1572.28,1263.09 1571.24,1261.43 1570.17,1259.81 1569.06,1258.2 1567.91,1256.63 1566.73,1255.09 1565.51,1253.57 1564.25,1252.09 1562.96,1250.63 "/>
    </g>
    <path id="_308725432" class="fil1" d="M1246.64 771.986c47.5004,2.38465 91.0394,18.5858 126.918,44.517l53.9268 -37.1599c-3.51142,-9.06851 -5.44016,-18.9248 -5.44016,-29.2311 0,-22.3583 9.06615,-42.6048 23.7213,-57.2587 14.6539,-14.6539 34.8992,-23.7201 57.2575,-23.7201 22.3583,0 42.6048,9.06615 57.2587,23.7201 14.6551,14.6539 23.7201,34.9004 23.7201,57.2587 0,22.3583 -9.06497,42.6036 -23.7201,57.2587 -14.6539,14.6539 -34.9004,23.7201 -57.2587,23.7201 -17.5725,0 -33.8362,-5.60079 -47.1095,-15.111l-46.7032 32.1815c0.50315,0.54567 1.00394,1.0937 1.50118,1.6441 40.7351,45.0414 64.2922,105.566 61.0123,170.895 -3.2504,64.7682 -32.0764,120.631 -76.2319,160.565 -3.75591,3.39685 -7.62284,6.67796 -11.5937,9.83741l70.9465 48.8882c13.4634,-9.98268 30.1323,-15.8894 48.1784,-15.8894 22.3583,0 42.6048,9.06615 57.2587,23.7201 14.6551,14.6539 23.7201,34.8992 23.7201,57.2587 0,22.3583 -9.06497,42.6048 -23.7201,57.2587 -14.6539,14.6539 -34.9004,23.7201 -57.2587,23.7201 -22.3583,0 -42.6036,-9.06615 -57.2575,-23.7201 -14.6551,-14.6539 -23.7213,-34.9004 -23.7213,-57.2587 0,-9.85276 1.76102,-19.2945 4.98544,-28.0288l-85.4221 -58.8626c-35.2063,17.8075 -75.3237,27.6673 -117.456,27.5953l-556.113 -0.949607c-3.61063,-0.00472441 -6.79371,-0.0791339 -9.5504,-0.217323 -55.5662,-2.78977 -104.415,-28.6701 -139.265,-67.7233 -34.5036,-38.6646 -55.3158,-90.4347 -55.2225,-145.486 0.00708662,-3.88819 0.0874016,-7.38898 0.243307,-10.4847 2.9563,-58.9087 29.5158,-111.046 70.063,-147.718 40.5532,-36.6744 95.041,-57.8835 153.847,-54.9319 12.2138,0.612993 23.9221,2.17677 35.0622,4.60866 1.85315,0.405118 3.7004,0.83504 5.53937,1.28976 10.8614,-44.0622 35.2925,-82.4953 68.4166,-110.875 40.0347,-34.304 92.7556,-53.9315 149.532,-51.0815 47.5831,2.38819 90.7489,20.1732 124.916,48.2882 27.0815,22.2862 48.5067,51.0638 61.9985,83.8087 12.7913,-6.04252 26.2122,-10.9784 40.1292,-14.6894 23.1473,-6.17245 47.6516,-8.90316 72.8918,-7.63701z"/>
   </g>
  </g>
  <path class="fil2" d="M1024 0c565.541,0 1024,458.459 1024,1024 0,565.541 -458.459,1024 -1024,1024 -565.541,0 -1024,-458.459 -1024,-1024 0,-565.541 458.459,-1024 1024,-1024z"/>
  <path class="fil3" d="M1246.64 771.986c65.4308,3.28347 123.344,32.7851 164.073,77.8194 40.7351,45.0414 64.2922,105.566 61.0123,170.895 -3.2504,64.767 -32.0764,120.63 -76.2319,160.565 -44.915,40.6205 -105.679,64.6312 -171.339,64.5201l-556.114 -0.950788c-3.61063,-0.00590552 -6.79252,-0.0791339 -9.5504,-0.217323 -55.5662,-2.78977 -104.415,-28.6689 -139.265,-67.7233 -34.5036,-38.6646 -55.3158,-90.4347 -55.2225,-145.486 0.00708662,-3.88819 0.0874016,-7.38898 0.243307,-10.4847 2.9563,-58.9087 29.5158,-111.046 70.063,-147.718 40.5532,-36.6744 95.041,-57.8835 153.847,-54.9319 12.2138,0.611811 23.9221,2.17795 35.0622,4.60866 1.85315,0.405118 3.69922,0.83504 5.53937,1.28976 10.8614,-44.0622 35.2937,-82.4953 68.4166,-110.875 40.0347,-34.3028 92.7556,-53.9315 149.532,-51.0815 47.5831,2.38819 90.7489,20.1732 124.916,48.2882 27.0815,22.2862 48.5067,51.0638 61.9985,83.8087 12.7913,-6.04252 26.2122,-10.9784 40.1292,-14.6906 23.1473,-6.17126 47.6516,-8.90198 72.8906,-7.63583z"/>
  <path class="fil4" d="M1131.16 941.603c15.7795,0 30.5055,4.51654 42.9579,12.326l253.362 -174.587c-3.51142,-9.06733 -5.44016,-18.9236 -5.44016,-29.2299 0,-22.3595 9.06615,-42.6048 23.7201,-57.2587 14.6551,-14.6539 34.9004,-23.7201 57.2587,-23.7201 22.3583,0 42.6048,9.06615 57.2587,23.7201 14.6539,14.6539 23.7201,34.8992 23.7201,57.2587 0,22.3583 -9.06615,42.6048 -23.7201,57.2587 -14.6539,14.6539 -34.9004,23.7201 -57.2587,23.7201 -17.5713,0 -33.8362,-5.60079 -47.1095,-15.111l-251.054 172.996c4.67599,10.2366 7.28386,21.6166 7.28386,33.6059 0,15.4004 -4.30276,29.7992 -11.7697,42.0591l254.471 175.35c13.4646,-9.98268 30.1323,-15.8894 48.1784,-15.8894 22.3583,0 42.6048,9.06615 57.2587,23.7201 14.6539,14.6551 23.7201,34.9004 23.7201,57.2587 0,22.3583 -9.06615,42.6048 -23.7201,57.2587 -14.6539,14.6539 -34.9004,23.7201 -57.2587,23.7201 -22.3583,0 -42.6036,-9.06615 -57.2587,-23.7201 -14.6539,-14.6539 -23.7201,-34.9004 -23.7201,-57.2587 0,-9.85394 1.76221,-19.2945 4.98544,-28.0299l-262.31 -180.751c-10.2236,4.66181 -21.5858,7.26142 -33.5551,7.26142 -22.3595,0 -42.6048,-9.06615 -57.2587,-23.7201 -14.6539,-14.6551 -23.7201,-34.9004 -23.7201,-57.2587 0,-22.3595 9.06615,-42.6048 23.7201,-57.2587 14.6539,-14.6539 34.8992,-23.7201 57.2587,-23.7201z"/>
 </g>
</svg>
