<?xml version="1.0" encoding="UTF-8"?>
<!DOCTYPE svg PUBLIC "-//W3C//DTD SVG 1.1//EN" "http://www.w3.org/Graphics/SVG/1.1/DTD/svg11.dtd">
<!-- Creator: CorelDRAW -->
<svg xmlns="http://www.w3.org/2000/svg" xml:space="preserve" width="6.82666in" height="6.82666in" style="shape-rendering:geometricPrecision; text-rendering:geometricPrecision; image-rendering:optimizeQuality; fill-rule:evenodd; clip-rule:evenodd"
viewBox="0 0 6.82666 6.82666"
 xmlns:xlink="http://www.w3.org/1999/xlink">
 <defs>
  <style type="text/css">
   <![CDATA[
    .fil2 {fill:none}
    .fil8 {fill:#0288D1}
    .fil5 {fill:#29B6F6}
    .fil7 {fill:#455A64}
    .fil1 {fill:#66BB6A}
    .fil0 {fill:#81C784}
    .fil6 {fill:#FFFFFE}
    .fil3 {fill:#0277BD;fill-rule:nonzero}
    .fil4 {fill:#0288D1;fill-rule:nonzero}
   ]]>
  </style>
   <clipPath id="id0">
    <path d="M3.41333 -3.93701e-006c1.88513,0 3.41333,1.5282 3.41333,3.41333 0,1.88513 -1.5282,3.41333 -3.41333,3.41333 -1.88513,0 -3.41333,-1.5282 -3.41333,-3.41333 0,-1.88513 1.5282,-3.41333 3.41333,-3.41333z"/>
   </clipPath>
 </defs>
 <g id="Layer_x0020_1">
  <metadata id="CorelCorpID_0Corel-Layer"/>
  <path class="fil0" d="M3.41333 -3.93701e-006c1.88513,0 3.41333,1.5282 3.41333,3.41333 0,1.88513 -1.5282,3.41333 -3.41333,3.41333 -1.88513,0 -3.41333,-1.5282 -3.41333,-3.41333 0,-1.88513 1.5282,-3.41333 3.41333,-3.41333z"/>
  <g style="clip-path:url(#id0)">
   <g id="_457193504">
    <g>
     <polygon id="_4607587841" class="fil1" points="4.97867,1.97639 8.76493,5.76267 9.06627,8.17322 5.28,4.38694 "/>
     <polygon id="_460758328" class="fil1" points="5.28,4.38694 9.06627,8.17322 9.06599,8.17321 5.27972,4.38694 "/>
     <polygon id="_460759576" class="fil1" points="5.27972,4.38694 9.06599,8.17321 9.06599,8.23053 5.27972,4.44426 "/>
     <polygon id="_460759000" class="fil1" points="5.27972,4.44426 9.06599,8.23053 7.58521,8.23053 3.79894,4.44426 "/>
     <polygon id="_460759432" class="fil1" points="3.79894,4.44426 7.58521,8.23053 7.58521,8.54198 3.79894,4.75571 "/>
     <polygon id="_460759288" class="fil1" points="4.24745,4.75571 8.03372,8.54198 8.03372,8.63654 4.24745,4.85027 "/>
     <polygon id="_460759480" class="fil1" points="4.24745,4.85027 8.03372,8.63654 7.58521,8.63654 3.79894,4.85027 "/>
     <polygon id="_460759528" class="fil1" points="3.02744,4.44426 6.81371,8.23053 5.33293,8.23053 1.54666,4.44426 "/>
     <polygon id="_460759864" class="fil1" points="3.02744,4.85027 6.81371,8.63654 6.3652,8.63654 2.57893,4.85027 "/>
     <polygon id="_460760464" class="fil1" points="3.79894,4.85027 7.58521,8.63654 6.81371,8.63654 3.02744,4.85027 "/>
    </g>
    <polygon id="_457193288" class="fil1" points="4.97867,1.97639 5.28,4.38694 5.27972,4.38694 5.27972,4.44426 3.79894,4.44426 3.79894,4.75571 4.24745,4.75571 4.24745,4.85027 3.79894,4.85027 3.02744,4.85027 2.57893,4.85027 2.57893,4.75571 3.02744,4.75571 3.02744,4.44426 1.54666,4.44426 1.54666,4.38694 1.54677,4.38694 1.55977,4.283 1.84811,1.97639 "/>
   </g>
  </g>
  <path class="fil2" d="M3.41333 -3.93701e-006c1.88513,0 3.41333,1.5282 3.41333,3.41333 0,1.88513 -1.5282,3.41333 -3.41333,3.41333 -1.88513,0 -3.41333,-1.5282 -3.41333,-3.41333 0,-1.88513 1.5282,-3.41333 3.41333,-3.41333z"/>
  <polygon class="fil3" points="3.79894,4.30544 3.79894,4.85027 3.02744,4.85027 3.02744,4.30544 "/>
  <polygon class="fil4" points="2.57893,4.75571 4.24745,4.75571 4.24745,4.85027 2.57893,4.85027 "/>
  <polygon class="fil5" points="5.28,4.38694 1.65176,4.38694 1.54677,4.38694 1.55977,4.283 1.84811,1.97639 4.97867,1.97639 "/>
  <polygon class="fil6" points="2.85828,3.6474 4.06122,3.6474 4.11816,4.24786 2.80134,4.24786 "/>
  <polygon class="fil6" points="2.76577,3.6474 2.70883,4.24786 1.70424,4.24786 1.77956,3.64529 "/>
  <polygon class="fil6" points="4.05243,3.55467 2.86707,3.55467 2.9374,2.81295 3.9821,2.81295 "/>
  <polygon class="fil6" points="4.94317,2.81295 5.03588,3.55467 4.14494,3.55467 4.07461,2.81295 "/>
  <polygon class="fil6" points="4.00848,2.11548 4.85598,2.11548 4.93157,2.72022 4.06581,2.72022 "/>
  <polygon class="fil6" points="3.00354,2.11548 3.91596,2.11548 3.97331,2.72022 2.94619,2.72022 "/>
  <polygon class="fil6" points="2.77456,3.55467 1.79089,3.55467 1.88361,2.81295 2.84489,2.81295 "/>
  <polygon class="fil6" points="2.91103,2.11548 2.85369,2.72022 1.8952,2.72022 1.9708,2.11548 "/>
  <polygon class="fil6" points="4.15373,3.6474 5.04747,3.6474 5.12254,4.24786 4.21067,4.24786 "/>
  <path class="fil7" d="M4.20469 3.69376l0.0481457 0.507748 0.817189 0 -0.0634724 -0.507748 -0.801862 0zm-1.34462 -1.53193l-0.84835 0 -0.0640079 0.512039 0.863807 0 0.0485512 -0.512039zm-0.127673 1.34649l0.0615354 -0.649012 -0.869402 0 -0.081126 0.649012 0.888992 0zm0.313311 -1.34649l-0.0485551 0.512039 0.925201 0 -0.0485551 -0.512039 -0.828091 0zm1.01373 0l0.0485512 0.512039 0.771075 0 -0.0640079 -0.512039 -0.755618 0zm0.842807 0.697476l-0.776673 0 0.0615394 0.649012 0.796264 0 -0.0811299 -0.649012zm-0.900772 0.649012l-0.0615354 -0.649012 -0.960366 0 -0.0615354 0.649012 1.08344 0zm-1.28666 0.185437l-0.893079 0 0 -0.0120945 -0.0649843 0.519843 0.909917 0 0.0481457 -0.507748zm0.185638 0l-0.0481457 0.507748 1.21489 0 -0.0481457 -0.507748 -1.1186 0z"/>
  <rect class="fil8" x="1.54666" y="4.38694" width="3.73306" height="0.0573153"/>
 </g>
</svg>
