<?xml version="1.0" encoding="UTF-8"?>
<!DOCTYPE svg PUBLIC "-//W3C//DTD SVG 1.1//EN" "http://www.w3.org/Graphics/SVG/1.1/DTD/svg11.dtd">
<!-- Creator: CorelDRAW -->
<svg xmlns="http://www.w3.org/2000/svg" xml:space="preserve" width="6.82666in" height="6.82666in" style="shape-rendering:geometricPrecision; text-rendering:geometricPrecision; image-rendering:optimizeQuality; fill-rule:evenodd; clip-rule:evenodd"
viewBox="0 0 6.82666 6.82666"
 xmlns:xlink="http://www.w3.org/1999/xlink">
 <defs>
  <style type="text/css">
   <![CDATA[
    .fil2 {fill:none}
    .fil5 {fill:#50802E}
    .fil9 {fill:#558B2F}
    .fil4 {fill:#619236}
    .fil8 {fill:#689F38}
    .fil1 {fill:#FB8C00}
    .fil0 {fill:#FFA726}
    .fil3 {fill:#487329;fill-rule:nonzero}
    .fil6 {fill:#4C822B;fill-rule:nonzero}
    .fil7 {fill:#7CB342;fill-rule:nonzero}
    .fil10 {fill:#8BC34A;fill-rule:nonzero}
   ]]>
  </style>
   <clipPath id="id0">
    <path d="M3.41333 -3.93701e-006c1.88513,0 3.41333,1.5282 3.41333,3.41333 0,1.88513 -1.5282,3.41333 -3.41333,3.41333 -1.88513,0 -3.41333,-1.5282 -3.41333,-3.41333 0,-1.88513 1.5282,-3.41333 3.41333,-3.41333z"/>
   </clipPath>
 </defs>
 <g id="Layer_x0020_1">
  <metadata id="CorelCorpID_0Corel-Layer"/>
  <path class="fil0" d="M3.41333 -3.93701e-006c1.88513,0 3.41333,1.5282 3.41333,3.41333 0,1.88513 -1.5282,3.41333 -3.41333,3.41333 -1.88513,0 -3.41333,-1.5282 -3.41333,-3.41333 0,-1.88513 1.5282,-3.41333 3.41333,-3.41333z"/>
  <g style="clip-path:url(#id0)">
   <g id="_457194296">
    <g>
     <polygon id="_4607623121" class="fil1" points="3.16685,2.22683 6.95311,6.01311 6.97927,6.04124 7.00477,6.06942 7.02962,6.09763 7.05383,6.12586 7.07741,6.15413 7.10037,6.1824 7.12271,6.21069 7.14444,6.23898 7.16558,6.26728 7.18612,6.29556 7.20607,6.32384 7.22546,6.35209 7.24427,6.38032 3.458,2.59405 3.43919,2.56582 3.41981,2.53757 3.39985,2.50929 3.37931,2.481 3.35817,2.45271 3.33644,2.42442 3.3141,2.39613 3.29114,2.36785 3.26756,2.33959 3.24335,2.31135 3.2185,2.28315 3.193,2.25497 "/>
     <polygon id="_460762936" class="fil1" points="4.42565,1.76346 8.21191,5.54973 8.1918,5.58587 8.17152,5.62253 8.1511,5.65971 8.13057,5.69738 8.10997,5.73553 8.08931,5.77413 8.06864,5.81317 8.04798,5.85263 8.02735,5.89248 8.00678,5.93272 7.98631,5.97332 7.96596,6.01426 7.94577,6.05553 7.92576,6.0971 7.90596,6.13895 7.88639,6.18108 7.8671,6.22345 7.8481,6.26606 7.82943,6.30887 7.81111,6.35188 7.79317,6.39506 7.77565,6.43839 7.75856,6.48186 7.74195,6.52545 7.72583,6.56913 7.71024,6.6129 7.69521,6.65672 7.68077,6.70059 7.66693,6.74448 7.65374,6.78838 7.64123,6.83226 7.62941,6.8761 3.84314,3.08983 3.85496,3.04598 3.86748,3.00211 3.88067,2.95821 3.8945,2.91432 3.90894,2.87045 3.92398,2.82663 3.93956,2.78286 3.95568,2.73918 3.9723,2.69559 3.98938,2.65212 4.0069,2.60879 4.02484,2.56561 4.04316,2.5226 4.06183,2.47978 4.08083,2.43718 4.10013,2.39481 4.11969,2.35268 4.13949,2.31083 4.1595,2.26926 4.1797,2.22799 4.20004,2.18705 4.22052,2.14645 4.24108,2.10621 4.26171,2.06635 4.28237,2.0269 4.30305,1.98786 4.3237,1.94926 4.3443,1.91111 4.36483,1.87344 4.38525,1.83626 4.40553,1.79959 "/>
     <polygon id="_460763560" class="fil1" points="2.55809,2.54782 6.34436,6.33409 6.3728,6.36305 6.40034,6.39208 6.427,6.42116 6.45279,6.45029 6.47772,6.47945 6.50181,6.50864 6.52507,6.53784 6.54752,6.56705 6.56916,6.59625 6.59001,6.62544 6.61009,6.6546 6.6294,6.68372 6.64797,6.7128 6.6658,6.74182 6.68291,6.77078 6.69931,6.79966 6.71502,6.82845 6.73005,6.85715 6.74441,6.88573 2.95814,3.09946 2.94378,3.07087 2.92875,3.04218 2.91304,3.01339 2.89664,2.98451 2.87953,2.95555 2.8617,2.92653 2.84313,2.89745 2.82382,2.86833 2.80374,2.83917 2.78289,2.80998 2.76125,2.78078 2.73881,2.75157 2.71555,2.72237 2.69146,2.69318 2.66652,2.66402 2.64074,2.63489 2.61407,2.60581 2.58653,2.57678 "/>
     <polygon id="_460762840" class="fil1" points="4.27671,4.3026 8.06298,8.08887 8.06351,8.09028 8.06404,8.09169 8.06457,8.0931 8.06511,8.0945 8.06565,8.09591 8.06619,8.09731 8.06673,8.09871 8.06727,8.10011 4.281,4.31384 4.28046,4.31244 4.27992,4.31104 4.27938,4.30964 4.27884,4.30823 4.2783,4.30683 4.27777,4.30542 4.27724,4.30401 "/>
     <polygon id="_460763968" class="fil1" points="4.281,4.31384 8.06727,8.10011 8.06023,8.10011 4.27396,4.31384 "/>
     <polygon id="_460764232" class="fil1" points="2.50159,3.42691 6.28786,7.21318 6.30167,7.2264 6.31528,7.23963 6.32869,7.25289 6.34191,7.26616 6.35494,7.27944 6.36779,7.29274 6.38044,7.30606 2.59417,3.51978 2.58152,3.50647 2.56868,3.49317 2.55565,3.47989 2.54242,3.46661 2.52901,3.45336 2.5154,3.44013 "/>
     <polygon id="_460764040" class="fil1" points="4.26988,5.23718 8.05615,9.02345 7.57065,9.02345 3.78439,5.23718 "/>
     <polygon id="_460764016" class="fil1" points="3.78439,5.23718 7.57065,9.02345 7.55803,9.06627 3.77176,5.28 "/>
     <polygon id="_460764256" class="fil1" points="3.77176,5.28 7.55803,9.06627 7.50137,9.06627 3.7151,5.28 "/>
     <polygon id="_460764208" class="fil1" points="2.9824,5.1648 6.76867,8.95107 6.3317,8.95107 2.54544,5.1648 "/>
     <polygon id="_460763728" class="fil1" points="3.04113,5.28 6.8274,9.06627 6.71963,9.06627 2.93336,5.28 "/>
     <polygon id="_460764328" class="fil1" points="3.7151,5.28 7.50137,9.06627 6.8274,9.06627 3.04113,5.28 "/>
     <polygon id="_460764160" class="fil1" points="4.27396,4.31384 8.06023,8.10011 8.053,8.13054 8.04608,8.16102 8.0395,8.19155 8.03325,8.22209 8.02735,8.25265 8.02183,8.28319 8.01669,8.31372 8.01196,8.3442 8.00763,8.37463 8.00374,8.40498 8.00028,8.43526 7.99729,8.46543 7.99477,8.49548 7.99274,8.52541 7.9912,8.55518 7.99019,8.58478 7.98971,8.61421 7.98977,8.64345 7.99039,8.67247 7.99159,8.70126 7.99338,8.72982 7.99577,8.75811 7.99878,8.78614 8.00243,8.81387 8.00672,8.8413 8.01168,8.86841 8.01731,8.89518 8.02363,8.9216 8.03067,8.94765 8.03842,8.97332 8.04691,8.99859 8.05615,9.02345 4.26988,5.23718 4.26064,5.21232 4.25215,5.18705 4.2444,5.16138 4.23737,5.13533 4.23104,5.10891 4.22541,5.08213 4.22045,5.05503 4.21616,5.0276 4.21252,4.99987 4.2095,4.97184 4.20711,4.94355 4.20532,4.91499 4.20413,4.8862 4.2035,4.85718 4.20344,4.82794 4.20393,4.79851 4.20494,4.76891 4.20647,4.73913 4.2085,4.70921 4.21102,4.67916 4.21402,4.64899 4.21747,4.61871 4.22136,4.58835 4.22569,4.55793 4.23043,4.52744 4.23556,4.49692 4.24109,4.46637 4.24698,4.43582 4.25323,4.40528 4.25981,4.37475 4.26673,4.34427 "/>
     <polygon id="_460763656" class="fil1" points="4.73725,2.25429 8.52352,6.04056 8.52244,6.04248 8.5193,6.04815 8.5142,6.05744 8.50726,6.07024 8.49859,6.08643 8.48831,6.10586 8.47654,6.12844 8.4634,6.15402 8.44899,6.1825 8.43343,6.21373 8.41684,6.24761 8.39933,6.28401 8.38103,6.3228 8.36204,6.36386 8.34247,6.40707 8.32246,6.4523 8.3021,6.49943 8.28152,6.54834 8.26083,6.5989 8.24015,6.651 8.2196,6.7045 8.19928,6.75928 8.17931,6.81522 8.15981,6.8722 8.14091,6.93009 8.12269,6.98878 8.1053,7.04813 8.08883,7.10802 8.07342,7.16833 8.05916,7.22894 8.04619,7.28973 8.0346,7.35056 4.24833,3.56429 4.25992,3.50346 4.27289,3.44267 4.28715,3.38206 4.30257,3.32175 4.31903,3.26186 4.33643,3.20251 4.35464,3.14382 4.37355,3.08593 4.39304,3.02895 4.41301,2.97301 4.43333,2.91822 4.45389,2.86472 4.47457,2.81263 4.49525,2.76207 4.51583,2.71316 4.53619,2.66603 4.5562,2.6208 4.57577,2.57759 4.59476,2.53653 4.61307,2.49774 4.63057,2.46134 4.64716,2.42746 4.66272,2.39622 4.67713,2.36775 4.69028,2.34217 4.70205,2.31959 4.71232,2.30015 4.72099,2.28397 4.72793,2.27117 4.73303,2.26187 4.73617,2.2562 "/>
     <polygon id="_460763848" class="fil1" points="4.72612,3.17762 8.51239,6.96389 8.51151,6.96546 8.50893,6.97012 8.50472,6.97776 8.49898,6.9883 8.4918,7.00164 8.48325,7.0177 8.47342,7.03639 8.46241,7.05761 8.45028,7.08126 8.43714,7.10727 8.42306,7.13554 8.40813,7.16597 8.39244,7.19848 8.37607,7.23297 8.35911,7.26935 8.34165,7.30754 8.32376,7.34743 8.30553,7.38894 8.28705,7.43199 8.26841,7.47646 8.24969,7.52228 8.23098,7.56935 8.21235,7.61759 8.19391,7.66689 8.17572,7.71718 8.15789,7.76835 8.14048,7.82031 8.1236,7.87298 8.10733,7.92626 8.09174,7.98007 8.07693,8.0343 8.06298,8.08887 4.27671,4.3026 4.29066,4.24803 4.30547,4.1938 4.32106,4.13999 4.33733,4.08671 4.35422,4.03404 4.37162,3.98207 4.38945,3.93091 4.40764,3.88062 4.42608,3.83132 4.44471,3.78308 4.46342,3.73601 4.48214,3.69019 4.50078,3.64572 4.51926,3.60267 4.53749,3.56116 4.55538,3.52127 4.57285,3.48308 4.58981,3.4467 4.60618,3.4122 4.62187,3.3797 4.6368,3.34926 4.65087,3.321 4.66402,3.29499 4.67614,3.27133 4.68715,3.25011 4.69698,3.23143 4.70553,3.21537 4.71271,3.20202 4.71845,3.19148 4.72266,3.18385 4.72524,3.17919 "/>
    </g>
    <path id="_457194344" class="fil1" d="M3.458 2.59405c0.261331,-0.372319 0.584173,-0.582476 0.967646,-0.830591 -0.213591,0.382539 -0.460291,0.858929 -0.582504,1.32637 0.0488425,-0.0409409 0.0991339,-0.0802008 0.15087,-0.118516 0.157791,-0.243 0.39372,-0.490882 0.743236,-0.717028 0,0 -0.373185,0.661303 -0.488917,1.31 0.129087,-0.132492 0.286413,-0.262839 0.477791,-0.386665 0,0 -0.305516,0.54139 -0.449409,1.12498 0.00140551,0.00375984 0.00283465,0.00750787 0.00429134,0.0112402l-0.00704331 0c-0.0787087,0.32422 -0.106697,0.660457 -0.00407874,0.923335l-0.485496 0 -0.012626 0.0428228 -0.0566575 0 -0.673972 0 -0.107772 0 0.0390748 -0.0909252c0.00344882,-0.00802756 0.00677165,-0.0161181 0.0099685,-0.0242756l-0.436965 0c0.288736,-0.740276 -0.456024,-2.05956 -0.456024,-2.05956 0.204906,0.132504 0.37078,0.272469 0.50476,0.414539 -0.0242717,-0.145598 -0.0619921,-0.292303 -0.106016,-0.432488 -0.0417165,-0.0736142 -0.0680827,-0.115929 -0.0685157,-0.116634l-0.144484 -0.234083 0.112764 0.0660236c-0.138732,-0.35737 -0.287382,-0.620689 -0.287382,-0.620689 0.44672,0.288874 0.707933,0.613217 0.857602,0.917547 -0.177961,-0.674634 -0.525787,-1.29133 -0.527378,-1.29418l-0.144484 -0.258618 0.248976 0.161055c0.431673,0.279236 0.725094,0.585354 0.922744,0.886335z"/>
   </g>
  </g>
  <path class="fil2" d="M3.41333 -3.93701e-006c1.88513,0 3.41333,1.5282 3.41333,3.41333 0,1.88513 -1.5282,3.41333 -3.41333,3.41333 -1.88513,0 -3.41333,-1.5282 -3.41333,-3.41333 0,-1.88513 1.5282,-3.41333 3.41333,-3.41333z"/>
  <path class="fil3" d="M3.38786 2.70041c0.272933,-0.440563 0.619252,-0.66615 1.03779,-0.936953 -0.318102,0.569732 -0.709657,1.34763 -0.65402,1.99411 -0.0655748,-0.37911 -0.176882,-0.73861 -0.383768,-1.05715z"/>
  <path class="fil4" d="M3.72848 4.31384l0.552524 0c-0.288681,-0.739508 0.456244,-2.05956 0.456244,-2.05956 -1.3434,0.869217 -1.00877,2.05956 -1.00877,2.05956z"/>
  <path class="fil5" d="M2.10054 2.18191c0,0 0.74476,1.31928 0.456024,2.05956l0.552744 0c0,0 0.335402,-1.19034 -1.00877,-2.05956z"/>
  <path class="fil6" d="M2.98356 4.25622c0.33861,-0.870449 -0.550248,-2.44638 -0.552795,-2.45094l-0.144484 -0.258614 0.248976 0.161051c1.6851,1.09004 1.26343,2.58976 1.26227,2.59411l-0.0146378 0.0548425 -0.0566575 0 -0.673972 0 -0.107772 0 0.0390748 -0.100449z"/>
  <path class="fil7" d="M3.37673 3.62374c0.272933,-0.440563 0.619252,-0.66615 1.03779,-0.936953 -0.318106,0.569732 -0.709661,1.34763 -0.654024,1.99411 -0.0655709,-0.37911 -0.176878,-0.73861 -0.383768,-1.05715z"/>
  <path class="fil8" d="M3.71735 5.23717l0.552524 0c-0.288681,-0.739508 0.456244,-2.05956 0.456244,-2.05956 -1.3434,0.869217 -1.00877,2.05956 -1.00877,2.05956z"/>
  <path class="fil9" d="M2.08941 3.10524c0,0 0.74476,1.31928 0.456024,2.05956l0.552744 0c0,0 0.335402,-1.19034 -1.00877,-2.05956z"/>
  <path class="fil10" d="M2.97243 5.18907c0.338614,-0.787866 -0.550248,-2.21429 -0.552795,-2.21841l-0.14448 -0.234083 0.248972 0.145776c1.68511,0.98663 1.26343,2.34407 1.26227,2.348l-0.0146378 0.0496417 -0.0566575 0 -0.673972 0 -0.107772 0 0.0390748 -0.0909213z"/>
 </g>
</svg>
