<?xml version="1.0" encoding="utf-8"?>
<!-- Generator: Adobe Illustrator 24.3.0, SVG Export Plug-In . SVG Version: 6.00 Build 0)  -->
<svg version="1.1" id="Layer_1" xmlns="http://www.w3.org/2000/svg" xmlns:xlink="http://www.w3.org/1999/xlink" x="0px" y="0px"
	 viewBox="0 0 180 180" enable-background="new 0 0 180 180" xml:space="preserve">
<g>
	<g id="XMLID_604_">
		<path fill="#F2F2F2" d="M154.623,90c0,35.689-28.933,64.623-64.622,64.623c-35.689,0-64.623-28.934-64.623-64.623
			c0-35.689,28.934-64.622,64.623-64.622C125.69,25.377,154.623,54.31,154.623,90z"/>
	</g>
	<g>
		<g>
			<path fill="#CCCBC9" d="M81.042,45.75H64.659c-1.268,0-2.304-1.037-2.304-2.304v-0.591c0-1.268,1.036-2.305,2.304-2.305h16.384
				c1.268,0,2.305,1.037,2.305,2.305v0.591C83.347,44.712,82.31,45.75,81.042,45.75z"/>
		</g>
		<g>
			<path fill="#CCCBC9" d="M83.187,55.862H62.579c-1.267,0-2.304-1.036-2.304-2.304v-0.593c0-1.268,1.037-2.303,2.304-2.303h20.608
				c1.268,0,2.304,1.035,2.304,2.303v0.593C85.491,54.826,84.455,55.862,83.187,55.862z"/>
		</g>
		<g>
			<path fill="#CCCBC9" d="M97.356,55.862h-7.609c-1.267,0-2.304-1.036-2.304-2.304v-0.593c0-1.268,1.037-2.303,2.304-2.303h7.609
				c1.267,0,2.305,1.035,2.305,2.303v0.593C99.661,54.826,98.623,55.862,97.356,55.862z"/>
		</g>
		<g>
			<path fill="#CCCBC9" d="M74.323,48.438v-0.591c0-1.268,1.037-2.305,2.304-2.305H65.172c1.268,0,2.305,1.037,2.305,2.305v0.591
				c0,1.267-1.037,2.304-2.305,2.304h11.454C75.36,50.742,74.323,49.705,74.323,48.438z"/>
		</g>
	</g>
	<g>
		<g>
			<path fill="#CCCBC9" d="M64.097,127.285h16.384c1.268,0,2.305,1.037,2.305,2.305v0.592c0,1.267-1.037,2.304-2.305,2.304H64.097
				c-1.267,0-2.304-1.037-2.304-2.304v-0.592C61.793,128.322,62.831,127.285,64.097,127.285z"/>
		</g>
		<g>
			<path fill="#CCCBC9" d="M60.513,117.173h20.608c1.268,0,2.304,1.037,2.304,2.304v0.591c0,1.268-1.036,2.305-2.304,2.305H60.513
				c-1.267,0-2.305-1.037-2.305-2.305v-0.591C58.208,118.21,59.247,117.173,60.513,117.173z"/>
		</g>
		<g>
			<path fill="#CCCBC9" d="M46.344,117.173h7.609c1.267,0,2.304,1.037,2.304,2.304v0.591c0,1.268-1.037,2.305-2.304,2.305h-7.609
				c-1.267,0-2.303-1.037-2.303-2.305v-0.591C44.042,118.21,45.078,117.173,46.344,117.173z"/>
		</g>
		<g>
			<path fill="#CCCBC9" d="M70.817,124.597v0.592c0,1.267-1.036,2.305-2.303,2.305h11.453c-1.267,0-2.304-1.038-2.304-2.305v-0.592
				c0-1.268,1.036-2.305,2.304-2.305H68.514C69.781,122.292,70.817,123.33,70.817,124.597z"/>
		</g>
	</g>
	<g>
		<g>
			<path fill="#CCCBC9" d="M120.012,126.837h13.624c1.054,0,1.915,0.862,1.915,1.916v0.492c0,1.054-0.861,1.915-1.915,1.915h-13.624
				c-1.054,0-1.916-0.861-1.916-1.915v-0.492C118.096,127.7,118.958,126.837,120.012,126.837z"/>
		</g>
		<g>
			<path fill="#CCCBC9" d="M117.033,118.429h17.135c1.054,0,1.916,0.862,1.916,1.916v0.492c0,1.054-0.862,1.916-1.916,1.916h-17.135
				c-1.055,0-1.916-0.862-1.916-1.916v-0.492C115.117,119.291,115.978,118.429,117.033,118.429z"/>
		</g>
		<g>
			<path fill="#CCCBC9" d="M105.252,118.429h6.326c1.054,0,1.915,0.862,1.915,1.916v0.492c0,1.054-0.861,1.916-1.915,1.916h-6.326
				c-1.054,0-1.916-0.862-1.916-1.916v-0.492C103.336,119.291,104.199,118.429,105.252,118.429z"/>
		</g>
		<g>
			<path fill="#CCCBC9" d="M125.6,124.603v0.492c0,1.054-0.861,1.915-1.916,1.915h9.524c-1.054,0-1.916-0.861-1.916-1.915v-0.492
				c0-1.054,0.862-1.915,1.916-1.915h-9.524C124.739,122.688,125.6,123.549,125.6,124.603z"/>
		</g>
	</g>
	<g>
		<g>
			<path fill="#CCCBC9" d="M56.428,82.977h-16.67c-1.29,0-2.344-1.056-2.344-2.345V80.03c0-1.289,1.054-2.344,2.344-2.344h16.67
				c1.289,0,2.344,1.055,2.344,2.344v0.603C58.772,81.921,57.717,82.977,56.428,82.977z"/>
		</g>
		<g>
			<path fill="#CCCBC9" d="M57.324,93.264H36.358c-1.29,0-2.345-1.055-2.345-2.344v-0.602c0-1.289,1.055-2.345,2.345-2.345h20.966
				c1.29,0,2.345,1.056,2.345,2.345v0.602C59.668,92.209,58.614,93.264,57.324,93.264z"/>
		</g>
		<g>
			<path fill="#CCCBC9" d="M52.406,85.71v-0.602c0-1.289,1.055-2.344,2.344-2.344H43.096c1.289,0,2.344,1.055,2.344,2.344v0.602
				c0,1.29-1.055,2.345-2.344,2.345H54.75C53.46,88.055,52.406,87,52.406,85.71z"/>
		</g>
	</g>
	<g>
		<g>
			<path fill="#FFFFFF" d="M129.843,88.69c-0.742-21.936-19.105-39.126-41.046-38.461c-0.049,0.002-0.098,0.002-0.146,0.003
				c-22.005,0.745-39.239,19.172-38.494,41.156c0.743,21.985,19.186,39.203,41.189,38.458c0.049-0.002,0.098-0.005,0.146-0.007
				C113.427,129.019,130.586,110.626,129.843,88.69z"/>
		</g>
		<g>
			<g>
				<path fill="#ADEBF6" d="M126.745,74.34l-2.078,0.106l-1.081-1.108l-0.263-1.833l-1.047,0.619l-0.498,2.269l-1.597-1.589
					l-0.114-1.548l-1.532-1.231l-0.568-0.526l-1.727,0.058l0.599,1.521l2.116,1.088l0.373,0.37l-0.44,0.24l0.059,1.218l-0.996,0.457
					l-0.872-0.16l-0.563-0.748l1.406,0.028l0.36-0.523l-3.185-1.995l-0.267-0.888l-1.226,1.188l-1.293-0.221l-1.866,2.604
					l-0.35,1.007l-1.244,0.156l-1.848,0.073l-1.12-0.479l-0.4-2.182l0.361-1.06l1.864-0.476l2.065,0.343l0.21-1.143l-0.877-0.177
					l0.237-1.776l2.053-0.392l1.372-2.087l1.482-0.3l1.351,0.153l0.494-0.017l-0.335-1.904l-1.614,0.714l-0.622-1.409l-0.952-0.101
					l-0.211-0.975l0.747-0.868l1.814-0.784l0.446-0.861c-7.219-5.938-16.528-9.392-26.577-9.074
					c-0.029,0.002-0.059,0.002-0.089,0.002c-8.751,0.296-16.75,3.411-23.172,8.431l2.011-0.083l0.912,0.465l1.701,0.308l0.154,0.658
					l2.688,0.009l-0.394-0.85l-2.388,0.014l0.545-0.548L70.543,57.9l-2.157,0.072l2.295-1.837l2.254-0.076l1.109,1.425l1.762,0.039
					l1.024-1.065l0.811,0.372l-1.412,1.476c0,0-2.02,0.102-1.921,0.098c0.101-0.003,0.216,1.385,0.216,1.385l2.446-0.149
					l0.244-0.671L78.9,58.81l0.166-0.999l-1-0.135l0.302-0.904l0.755-0.257l2.655,0.04l-1.418,1.377l0.272,1.018l1.532,0.18
					L82,57.278l1.433-0.811l2.577-0.386l3.026,1.219l0.771,0.312l0.048,1.425l1.206,0.258l-0.561,1.147l-1.357,0.046L88.812,60.5
					l-0.456,1.309l-3.894-0.781l2.98-1.72l-1.191-0.945l-2.608,0.42l-0.221,0.245l-0.008-0.004l-0.041,0.059l-0.726,0.809
					l-1.242,0.147l0.12,0.617l0.441,0.164l-0.01,0.206l-1.008,0.18l-0.055,0.591l-0.968,0.084l-0.215-1.162l-1.723,0.588
					l-3.482,2.201l0.449,1.45l1.015,0.614l1.997,0.207l0.077,2.259l0.913-0.179l0.786-1.794l2.09-0.741l-0.091-2.709l1.145-0.929
					l2.865,0.575l-0.139,1.797l0.764-0.025l2.053-1.098l0.18,2.349l0.711,0.4l0.842,0.475l-0.019,1.397l-0.75,0.284l0.031,0.97
					l1.176,0.489L90.6,70.259l-0.508,0.061c-0.002-0.017-0.005-0.026-0.005-0.026l-0.617-0.168l-1.621-0.44l-0.117-0.707h-0.004
					l0.632-0.468l-0.021-0.646l-0.702-0.151l-0.153,0.603l-1.213,0.231l-0.124-0.037l0.002,0.062l-0.422,0.078l-0.368-0.685
					l-0.405-0.161l-0.871,0.029l-0.384,0.337l0.023,0.721l0.754,0.223l0.737,0.079l-0.161,0.077l-0.646,0.766l-0.309-0.361
					l-0.652-0.149l-1.711,1.722l0.237,0.183l-2.559,1.531l-2.366,2.634l-0.129,1.143l-2.404,1.699l-1.177,1.267l0.218,2.446
					l-1.719-0.73L71.8,79.985l-4.704,0.16l-2.393,1.316l-0.993,1.984l-0.367,1.562l0.737,1.476l1.927,0.169l2.979-2.143l0.302,1.003
					L68.417,87.3l2.336,0.318l0.352,3.577l3.202,0.433l1.941-2.404l2.469,0.415l0.903,1.169l2.348-0.218l0.042-0.698l1.313,0.586
					l1.536,2.235l2.518-0.05l0.985,1.594l0.198,1.981l1.815,0.622l1.006,0.345l3.513-0.086l1.088,1.653l1.571,0.445l-0.252,1.404
					l-1.634,2.227l-0.335,4.815l-1.498,1.27l-2.289,0.01l-0.717,1.347l0.001,0.012l0.648,2.46l-0.54,0.74l-1.84,2.526l-0.744,1.484
					l-2.332,1.22l-1.552,0.289l-0.042,0.664l1.104,0.277l-0.108,0.716l-0.948,0.978l0.622,0.727l1.18-0.006l-0.036,0.913
					l-0.283,0.905l-0.076,0.732l1.793,1.41l-0.205,0.77l-2.374,0.036l-2.432-1.981l-1.95-3.171l0.151-3.13l-1.454-1.81l0.457-3.166
					l-0.836-0.204l-0.23-6.827c0,0-2.38-1.68-2.512-1.675c-0.133,0.004-1.236-0.256-1.236-0.256l-0.277-1.284l-3.142-3.676
					l0.253-1.369l0.022-2.224l2.036-1.528l-0.382-2.477l-3.056-0.126l-2.478-2.639l-1.705-0.405l-1.099-0.164l0.097-0.998
					l-1.399-0.15l0.019,0.562l-3.509-0.743l-1.473-2.095l0.535-1.059l-2.312-3.141l-0.459-2.34l-0.894,0.029l0.375,2.276
					l1.603,2.302l-0.134,0.935l-1.299-0.154l-1.681-2.658l-0.107-3.153l-1.684-0.741l-0.076-2.271
					c-1.887,4.866-2.845,10.18-2.657,15.716c0.745,21.989,19.241,39.275,41.23,38.528c0.03,0,0.06-0.003,0.09-0.004
					c12.43-0.449,23.344-6.572,30.341-15.784l-1.315,0.045l-0.09-2.65l-1.591-1.999l-0.107-3.188l-1.203-1.117l-0.144-1.323
					l1.381-2.869l-2.967-4.843l0.219-3.36l-2.528-0.177l-0.958-0.897l-1.691,0.059l-0.834,0.824l-2.982,0.1l-0.092,0.27
					l-1.657,0.056l-3.957-4.21l-0.083-3.383l0.622-0.253l0.189-1.3l-0.895,0.029l-0.411-1.345l4.301-3.33l-0.076-2.254l2.116-1.271
					l0.876,0.058l1.775-0.06l1.364-0.792l4.462-0.501l0.078,2.287l3.561,0.775l0.713,0.475l0.647-0.022l-0.042-1.244l2.03-0.268
					l1.988,1.377l3.181-0.107l0.217-0.212C127.578,76.403,127.181,75.363,126.745,74.34z M107.529,63.628l0.347-0.574l1.3-0.308
					l0.385,1.58l0.735,1.103l0.479,0.517l0.856,0.3l-0.762,0.973l-1.536,0.201l-1.16,0.039l0.085-1.379l0.957-0.232l-0.105-0.644
					l-0.916-0.533l-0.645-0.409L107.529,63.628z M105.458,66.189l0.755-1.302l1.065-0.285l0.776,0.306l-0.04,0.862l-1.601,1.216
					l-0.927,0.031L105.458,66.189z M84.709,70.831l1.141-0.038l0.218-0.617l0.452-0.024l0.523,0.089l-0.206,0.47l-0.565,0.068
					l-0.097,0.552l-0.428,0.288l-0.697,0.081C85.021,71.536,85,71.41,85,71.41l-0.271,0.01L84.709,70.831z M83.132,71.924
					l0.025-0.577l0.356-0.477l0.51,0.374l-0.063,0.583L83.132,71.924z"/>
			</g>
		</g>
	</g>
	<g>
		<g>
			<g>
				<g>
					<g>
						<path fill="#B4D8E7" d="M111.368,96.75c-0.284-0.143-0.569-0.289-0.849-0.441C110.798,96.46,111.083,96.607,111.368,96.75z"/>
					</g>
					<g>
						<path fill="#B4D8E7" d="M110.462,96.274c-0.282-0.156-0.562-0.316-0.84-0.487C109.9,95.958,110.18,96.118,110.462,96.274z"/>
					</g>
					<g>
						<path fill="#B4D8E7" d="M117.709,55.28c-0.17,0.026-0.343,0.055-0.515,0.085C117.367,55.334,117.539,55.306,117.709,55.28z"/>
					</g>
					<g>
						<path fill="#B4D8E7" d="M117.088,55.384c-0.152,0.029-0.305,0.059-0.458,0.094C116.784,55.443,116.935,55.412,117.088,55.384z
							"/>
					</g>
					<g>
						<path fill="#B4D8E7" d="M116.491,55.505c-0.19,0.039-0.385,0.082-0.577,0.129C116.106,55.587,116.3,55.544,116.491,55.505z"/>
					</g>
				</g>
				<g>
					<g>
						<path fill="#757575" d="M101.18,109.927c1.782,1.089,4.11,0.519,5.197-1.263l3.442-5.837c1.081-1.785,0.522-4.105-1.255-5.194
							c0,0-0.009-0.001-0.014-0.003c-1.783-1.086-4.109-0.521-5.195,1.265l-3.442,5.835c-1.085,1.782-0.522,4.104,1.259,5.193
							L101.18,109.927z"/>
					</g>
				</g>
				<g>
					<g>
						<path fill="#333333" d="M107.609,106.576l2.211-3.748c1.081-1.785,0.522-4.105-1.255-5.194c0,0-0.009-0.001-0.014-0.003
							c-1.783-1.086-4.109-0.521-5.195,1.265l-2.075,3.518C101.562,103.597,106.894,106.313,107.609,106.576z"/>
					</g>
				</g>
			</g>
			<g>
				<path fill="#333333" d="M149.846,70.042c-1.854-7.649-6.586-14.126-13.311-18.242c-6.767-4.134-14.722-5.379-22.409-3.519
					c-7.663,1.864-14.151,6.609-18.268,13.365c-4.113,6.755-5.353,14.696-3.488,22.365c1.558,6.431,5.156,12.039,10.268,16.103
					c0.961,0.768,1.974,1.477,3.042,2.128c1.109,0.678,2.256,1.28,3.426,1.798l-0.001,0.004c2.285,1.023,4.673,1.746,7.105,2.156
					c3.904,0.659,7.932,0.524,11.886-0.438C143.94,101.911,153.704,85.887,149.846,70.042z M126.312,98.408
					c-5.488,1.336-11.164,0.531-16.071-2.259c-0.053-0.028-0.105-0.057-0.156-0.088c-0.156-0.09-0.312-0.183-0.463-0.274
					c-5.004-3.063-8.521-7.878-9.901-13.56c-1.391-5.708-0.465-11.615,2.599-16.643c3.064-5.031,7.89-8.562,13.597-9.951
					c5.711-1.385,11.632-0.452,16.672,2.622c5.003,3.065,8.523,7.888,9.913,13.576C145.364,83.623,138.103,95.543,126.312,98.408z"
					/>
			</g>
			<g>
				
					<rect x="67.028" y="119.128" transform="matrix(0.5217 -0.8531 0.8531 0.5217 -64.6669 138.1258)" fill="#757575" width="47.643" height="15.213"/>
			</g>
			<g>
				
					<rect x="67.028" y="122.277" transform="matrix(0.5217 -0.8531 0.8531 0.5217 -64.6661 138.126)" fill="#333333" width="47.642" height="8.911"/>
			</g>
		</g>
	</g>
	<g id="XMLID_222_">
		<g id="XMLID_225_">
			<path fill="#FFFFFF" d="M99.571,55.695c0-2.019,1.64-3.659,3.655-3.659c-2.016,0-3.655-1.635-3.655-3.655
				c0,2.021-1.642,3.655-3.656,3.655C97.929,52.036,99.571,53.676,99.571,55.695z"/>
		</g>
		<g id="XMLID_224_">
			<path fill="#FFFFFF" d="M93.603,51.131c0-0.808,0.654-1.464,1.461-1.464c-0.807,0-1.461-0.654-1.461-1.462
				c0,0.808-0.657,1.462-1.463,1.462C92.946,49.667,93.603,50.324,93.603,51.131z"/>
		</g>
		<g id="XMLID_223_">
			<path fill="#FFFFFF" d="M103.973,63.207c0-0.808,0.655-1.463,1.461-1.463c-0.806,0-1.461-0.655-1.461-1.462
				c0,0.807-0.656,1.462-1.463,1.462C103.317,61.744,103.973,62.399,103.973,63.207z"/>
		</g>
	</g>
	<g>
		<linearGradient id="SVGID_1_" gradientUnits="userSpaceOnUse" x1="129.4536" y1="75.3687" x2="129.4536" y2="59.396">
			<stop  offset="0.197" style="stop-color:#333333"/>
			<stop  offset="0.2787" style="stop-color:#3E3E3E;stop-opacity:0.8983"/>
			<stop  offset="0.4204" style="stop-color:#5A5A5A;stop-opacity:0.7219"/>
			<stop  offset="0.605" style="stop-color:#888888;stop-opacity:0.492"/>
			<stop  offset="0.8229" style="stop-color:#C7C7C7;stop-opacity:0.2206"/>
			<stop  offset="1" style="stop-color:#FFFFFF;stop-opacity:0"/>
		</linearGradient>
		<path fill="url(#SVGID_1_)" d="M135.571,73.371c0,1.018-1.859,1.998-2.877,1.998c-1.018,0-9.357-14.509-9.357-15.087
			c0-0.579,0.456-0.886,0.959-0.886C124.796,59.396,135.571,72.352,135.571,73.371z"/>
		<g>
			<path fill="#333333" d="M135.725,74.084c0,1.018-0.825,1.844-1.844,1.844c-1.018,0-1.844-0.826-1.844-1.844
				c0-1.019,0.826-1.844,1.844-1.844C134.9,72.241,135.725,73.066,135.725,74.084z"/>
		</g>
	</g>
</g>
</svg>
