<?xml version="1.0" encoding="UTF-8"?>
<!DOCTYPE svg PUBLIC "-//W3C//DTD SVG 1.1//EN" "http://www.w3.org/Graphics/SVG/1.1/DTD/svg11.dtd">
<!-- Creator: CorelDRAW -->
<svg xmlns="http://www.w3.org/2000/svg" xml:space="preserve" width="2048px" height="2048px" style="shape-rendering:geometricPrecision; text-rendering:geometricPrecision; image-rendering:optimizeQuality; fill-rule:evenodd; clip-rule:evenodd"
viewBox="0 0 2048 2048"
 xmlns:xlink="http://www.w3.org/1999/xlink">
 <defs>
  <style type="text/css">
   <![CDATA[
    .fil2 {fill:none}
    .fil1 {fill:#006064}
    .fil0 {fill:#00838F}
    .fil10 {fill:lime}
    .fil4 {fill:#0B88BA}
    .fil5 {fill:#1B9DD1}
    .fil6 {fill:#4D4D4D}
    .fil3 {fill:#999999}
    .fil9 {fill:#B2B2B2}
    .fil8 {fill:#C5C5C5}
    .fil7 {fill:#CCCCCC}
    .fil11 {fill:red}
   ]]>
  </style>
   <clipPath id="id0">
    <path d="M1024 -0.0011811c565.541,0 1024,458.461 1024,1024 0,565.541 -458.461,1024 -1024,1024 -565.541,0 -1024,-458.461 -1024,-1024 0,-565.541 458.461,-1024 1024,-1024z"/>
   </clipPath>
 </defs>
 <g id="Layer_x0020_1">
  <metadata id="CorelCorpID_0Corel-Layer"/>
  <path class="fil0" d="M1024 -0.0011811c565.541,0 1024,458.461 1024,1024 0,565.541 -458.461,1024 -1024,1024 -565.541,0 -1024,-458.461 -1024,-1024 0,-565.541 458.461,-1024 1024,-1024z"/>
  <g style="clip-path:url(#id0)">
   <g id="_452524592">
    <path id="_4525305921" class="fil1" d="M2632.41 1851.57l1.42205 1.29331 1.29331 1.42205 1.15394 1.54016 1.00394 1.64882 0.844489 1.74803 0.675591 1.83425 0.493701 1.91339 0.304725 1.97953 0.103937 2.0374 0 451.499 93.2351 93.2351 1.22362 1.4811 0.923623 1.69843 0.584646 1.87323 0.204331 2.00906 0 23.9977 -0.0141732 0.933072 -0.0437008 0.925985 -0.0708662 0.918898 -0.0992127 0.911812 -0.126378 0.902363 -0.152362 0.894095 -0.180709 0.885827 -0.205512 0.875198 -0.711024 2.40236 -0.902363 2.31496 -1.08425 2.21929 -1.25669 2.11299 -1.42087 1.99843 -1.57441 1.87323 -1.71969 1.74095 -1.85433 1.59567 -1.98071 1.44449 -2.09646 1.2815 -2.20394 1.11142 -2.30197 0.929528 -2.38937 0.739371 -2.46851 0.539764 -2.53819 0.330709 -2.59843 0.112205 -1092.01 0 -2.59843 -0.112205 -2.53819 -0.330709 -2.46851 -0.539764 -2.38937 -0.739371 -2.30197 -0.929528 -2.20394 -1.11142 -2.09646 -1.2815 -1.98071 -1.44449 -1.85551 -1.59567 -1.71851 -1.74095 -1.25669 -1.4941 -1131.05 -1131.05c-0.628347,-0.498426 -1.23543,-1.02165 -1.82126,-1.56614l-0.034252 -0.0295276 -0.0295276 -0.0307087c-0.584646,-0.548032 -1.14921,-1.11732 -1.68898,-1.71024 -0.550394,-0.602363 -1.07599,-1.22717 -1.57559,-1.87323 -0.499607,-0.646063 -0.97441,-1.31221 -1.42087,-1.99843 -0.447638,-0.68504 -0.865749,-1.39016 -1.25669,-2.11299 -0.390945,-0.722835 -0.753544,-1.46339 -1.08543,-2.21929 -0.33189,-0.755906 -0.633071,-1.52835 -0.902363,-2.31496 -0.269292,-0.786615 -0.506693,-1.58858 -0.711024,-2.40236 -0.0732284,-0.290551 -0.141732,-0.582284 -0.205512,-0.875198 -0.0649607,-0.294095 -0.122835,-0.589371 -0.178347,-0.885827 -0.0555119,-0.296457 -0.10748,-0.594095 -0.153543,-0.894095 -0.0401575,-0.263386 -0.0779528,-0.525591 -0.111024,-0.790158l-0.0153543 -0.112205 0 -0.0011811 -0.0129921 -0.113386c-0.0318898,-0.264567 -0.0602363,-0.530315 -0.0850394,-0.797245 -0.0283465,-0.304725 -0.0519685,-0.611811 -0.0708662,-0.918898 -0.0188977,-0.307087 -0.034252,-0.616536 -0.0437008,-0.925985 -0.00944883,-0.309449 -0.0141732,-0.62126 -0.0141732,-0.933072l0 -23.9977c0,-0.688583 0.0708662,-1.35945 0.204331,-2.00906 0.133465,-0.649607 0.330709,-1.27559 0.584646,-1.87323 0.253937,-0.597638 0.563386,-1.16693 0.923623,-1.69843 0.360236,-0.532678 0.77126,-1.02874 1.22362,-1.4811 0.453544,-0.452363 0.949607,-0.863386 1.4811,-1.22362 0.532678,-0.360236 1.10079,-0.669686 1.69843,-0.923623 0.597638,-0.253937 1.22362,-0.451181 1.87323,-0.584646 0.649607,-0.134646 1.32165,-0.204331 2.00906,-0.204331l87.0768 0c-0.0744095,-0.23504 -0.142913,-0.47126 -0.207874,-0.709843 -0.0649607,-0.237402 -0.126378,-0.478347 -0.18189,-0.719292 -0.0555119,-0.242126 -0.10748,-0.485433 -0.154725,-0.729922 -0.0472441,-0.244488 -0.090945,-0.491339 -0.12874,-0.739371 -0.0377953,-0.248032 -0.0720473,-0.497244 -0.100394,-0.747638 -0.0295276,-0.250394 -0.0519685,-0.50315 -0.0720473,-0.755906 -0.0188977,-0.252756 -0.0354331,-0.507874 -0.0448819,-0.762993 -0.00944883,-0.256299 -0.0141732,-0.51378 -0.0141732,-0.77126l0 -535.862c0,-0.688583 0.0354331,-1.36772 0.103937,-2.0374 0.068504,-0.670867 0.17126,-1.3311 0.304725,-1.97953 0.134646,-0.649607 0.298819,-1.28858 0.493701,-1.91339 0.196063,-0.625985 0.421654,-1.23662 0.675591,-1.83425 0.253937,-0.597638 0.536221,-1.1811 0.844489,-1.74803 0.308268,-0.565748 0.643701,-1.11614 1.00394,-1.64882 0.359055,-0.531496 0.745276,-1.04528 1.15394,-1.54016 0.408662,-0.494882 0.840946,-0.968505 1.29331,-1.42205 0.453544,-0.453544 0.928347,-0.884646 1.42205,-1.29331 0.493701,-0.408662 1.00866,-0.793701 1.54016,-1.15394 0.532678,-0.360236 1.08189,-0.69567 1.64882,-1.00394 0.56693,-0.308268 1.14921,-0.590552 1.74685,-0.844489 0.596457,-0.253937 1.20945,-0.480709 1.83425,-0.675591 0.624804,-0.196063 1.2626,-0.360236 1.91221,-0.493701 0.649607,-0.134646 1.30984,-0.236221 1.97953,-0.304725 0.670867,-0.068504 1.35,-0.103937 2.0374,-0.103937l919.668 0c2.05748,0 4.04646,0.315355 5.91851,0.900001l0.0106299 0.00236221 0.0129921 0.00472441c0.616536,0.193701 1.22008,0.416929 1.81063,0.666142l0.011811 0.00472441 0.011811 0.00590552c0.591733,0.251575 1.16929,0.531496 1.73032,0.836221l0.00472441 0.00236221 0.00354331 0.00236221c0.561024,0.307087 1.10669,0.638977 1.63465,0.99567l0.0106299 0.00590552 0.00826772 0.00708662c0.525591,0.355512 1.03701,0.737008 1.5248,1.14095l0.00708662 0.00590552 0.00472441 0.00472441c0.491339,0.4063 0.96378,0.836221 1.41614,1.2874l0.0011811 0.0011811 0.0011811 0.0011811c0.452363,0.452363 0.884646,0.927166 1.29213,1.42087l1135.88 1135.88 -2.71536 -2.71536z"/>
   </g>
  </g>
  <path class="fil2" d="M1024 -0.0011811c565.541,0 1024,458.461 1024,1024 0,565.541 -458.461,1024 -1024,1024 -565.541,0 -1024,-458.461 -1024,-1024 0,-565.541 458.461,-1024 1024,-1024z"/>
  <g id="_319401328">
   <rect id="_319410496" class="fil3" x="544.169" y="711.108" width="959.66" height="575.855" rx="19.9973" ry="19.9973"/>
   <rect id="_319409440" class="fil4" x="584.163" y="751.101" width="879.674" height="495.868"/>
   <polygon id="_319396912" class="fil5" points="750.467,751.101 751.408,751.101 1463.84,751.101 1463.84,1246.97 1265.65,1246.97 1265.41,1246.97 "/>
   <polygon id="_319399288" class="fil4" points="584.163,751.101 750.467,751.101 1265.41,1246.97 584.163,1246.97 "/>
   <circle id="_319390096" class="fil6" cx="1024" cy="731.748" r="12.8885"/>
   <circle id="_319400656" class="fil7" cx="1024" cy="731.748" r="6.05335"/>
   <path id="_319408000" class="fil8" d="M457.998 1272.9l438.116 0 0 10.8425 255.773 0 0 -10.8425 438.116 0c5.5004,0 9.99804,4.49764 9.99804,9.99804l0 23.9977c0,16.4977 -13.4965,29.9941 -29.9941,29.9941l-1092.01 0c-16.4977,0 -29.9941,-13.4965 -29.9941,-29.9941l0 -23.9977c0,-5.5004 4.49764,-9.99804 9.99804,-9.99804z"/>
   <path id="_319405984" class="fil9" d="M1599.11 1314.15c-3.26221,13.0264 -15.1004,22.7469 -29.1012,22.7469l-1092.01 0c-14.0008,0 -25.839,-9.72048 -29.1012,-22.7469l1150.22 0z"/>
   <rect id="_319395856" class="fil10" x="1448.17" y="1292.36" width="23.6667" height="9.46737"/>
   <rect id="_319411360" class="fil11" x="1403.2" y="1292.36" width="23.6667" height="9.46737"/>
  </g>
 </g>
</svg>
