<svg xmlns="http://www.w3.org/2000/svg" width="128" height="128" viewBox="0 0 128 128">
  <title>FOLLOWER</title>
  <g>
    <g>
      <circle cx="51.553" cy="39.293" r="12.884" fill="#ffd92d"/>
      <path d="M51.553,52.177A27.357,27.357,0,0,0,24.2,79.534H78.911A27.358,27.358,0,0,0,51.553,52.177Z" fill="#ff9001"/>
      <circle cx="64.438" cy="49.159" r="12.884" fill="#fd4b4a"/>
      <path d="M64.438,62.043A27.357,27.357,0,0,0,37.081,89.4H91.8A27.357,27.357,0,0,0,64.438,62.043Z" fill="#e70b69"/>
      <circle cx="85.841" cy="83.634" r="17.957" fill="#a6d12b"/>
      <path d="M82.97,90.5a1.749,1.749,0,0,1-1.164-.443L76.064,84.94a1.75,1.75,0,0,1,2.33-2.612l4.576,4.08,10.318-9.2a1.75,1.75,0,0,1,2.329,2.612L84.135,90.059A1.75,1.75,0,0,1,82.97,90.5Z" fill="#e9f1f8"/>
    </g>
    <g>
      <path d="M42.692,31.693a1.744,1.744,0,0,0,1.2-.48q.313-.3.651-.571a1.75,1.75,0,0,0-2.206-2.718q-.441.358-.853.748a1.75,1.75,0,0,0,1.2,3.021Z" fill="#001c5b"/>
      <path d="M101.34,92.88a1.75,1.75,0,0,0-2.447.369c-.245.33-.5.65-.768.961a1.75,1.75,0,1,0,2.651,2.285q.487-.566.932-1.167A1.751,1.751,0,0,0,101.34,92.88Z" fill="#001c5b"/>
      <path d="M85.843,63.927a19.62,19.62,0,0,0-5.852.887,28.9,28.9,0,0,0-7.578-3.4A14.611,14.611,0,0,0,65.4,34.573a14.553,14.553,0,0,0-13.844-9.914A14.847,14.847,0,0,0,49,24.881a1.751,1.751,0,0,0,.607,3.448,11.228,11.228,0,0,1,1.95-.17,11.067,11.067,0,0,1,10.177,6.627A14.65,14.65,0,0,0,49.807,49.159c0,.38.028.753.057,1.126a11.135,11.135,0,0,1-9.135-13.6,1.75,1.75,0,1,0-3.4-.816,14.626,14.626,0,0,0,6.256,15.68A29.153,29.153,0,0,0,22.449,79.534a1.751,1.751,0,0,0,1.75,1.75H36.493a29.009,29.009,0,0,0-1.16,8.116,1.75,1.75,0,0,0,1.75,1.75h23.75a1.75,1.75,0,0,0,0-3.5H38.893a25.589,25.589,0,0,1,37.13-21.077,19.7,19.7,0,0,0,18.093,34.952,1.749,1.749,0,1,0-1.47-3.175,16.21,16.21,0,1,1,9.405-14.716,16.34,16.34,0,0,1-.382,3.517,1.75,1.75,0,0,0,3.417.756,19.723,19.723,0,0,0-19.243-23.98Zm-21.4-25.9A11.135,11.135,0,1,1,53.307,49.159,11.147,11.147,0,0,1,64.441,38.024ZM37.759,77.784H26.008A25.639,25.639,0,0,1,50.629,53.95a14.691,14.691,0,0,0,5.837,7.463A29.232,29.232,0,0,0,37.759,77.784Z" fill="#001c5b"/>
      <path d="M93.291,77.21l-10.318,9.2L78.4,82.328a1.75,1.75,0,0,0-2.329,2.612l5.742,5.119a1.752,1.752,0,0,0,2.329,0L95.62,79.822a1.75,1.75,0,0,0-2.329-2.612Z" fill="#001c5b"/>
    </g>
  </g>
</svg>
