<?xml version="1.0" encoding="utf-8"?>
<!-- Generator: Adobe Illustrator 22.0.1, SVG Export Plug-In . SVG Version: 6.00 Build 0)  -->
<svg version="1.1" xmlns="http://www.w3.org/2000/svg" xmlns:xlink="http://www.w3.org/1999/xlink" x="0px" y="0px"
	 viewBox="0 0 512 512" style="enable-background:new 0 0 512 512;" xml:space="preserve">
<style type="text/css">
	.st0{fill:#A5CDBC;}
	.st1{fill:#453D80;}
	.st2{fill:#E9D178;}
	.st3{fill:#918BC6;}
	.st4{fill:#E2A2AB;}
	.st5{fill:#EECAC4;}
	.st6{fill:#7CB59C;}
	.st7{fill:#BDB9DC;}
	.st8{fill:#E2A66F;}
	.st9{fill:#DAAB5C;}
	.st10{fill:#74A0FB;}
	.st11{fill:#EDBB87;}
	.st12{fill:#EFCBC5;}
	.st13{fill:#CB9E56;}
	.st14{fill:#F8EF6C;}
	.st15{fill:#BBD9CC;}
	.st16{fill:#673528;}
	.st17{fill:#532B22;}
	.st18{fill:#7A3F2C;}
	.st19{fill:#B9865D;}
	.st20{fill:#A1ACA5;}
	.st21{fill:#B7C7BE;}
	.st22{fill:#D3E8DF;}
	.st23{fill:#AA583E;}
	.st24{fill:#944937;}
	.st25{fill:#E9A497;}
	.st26{fill:#C15E48;}
	.st27{fill:#D29289;}
	.st28{fill:#E4CAC8;}
	.st29{fill:#BFE6D5;}
	.st30{fill:#A2D6BD;}
	.st31{fill:#D5EBE2;}
	.st32{fill:#EBF3EF;}
	.st33{fill:#5F55AB;}
	.st34{fill:#2A284C;}
	.st35{fill:#D69C6C;}
	.st36{fill:#CE9567;}
	.st37{fill:#EAE7D6;}
	.st38{fill:#E1C978;}
	.st39{fill:#544C4A;}
	.st40{fill:#ACABB4;}
	.st41{fill:#BC8B63;}
	.st42{fill:#B9D7CA;}
	.st43{fill:#C9B26B;}
	.st44{fill:#817EB1;}
	.st45{fill:#3C3B4D;}
	.st46{fill:#2B2A36;}
	.st47{fill:#CC9567;}
	.st48{fill:#AF7C59;}
	.st49{fill:#A27855;}
	.st50{fill:#B4825B;}
	.st51{fill:#806045;}
	.st52{fill:#CB8694;}
	.st53{fill:#AE6E7E;}
	.st54{fill:#DDC3CB;}
	.st55{fill:#DEE8E3;}
	.st56{fill:#9B3A52;}
	.st57{fill:#C43C50;}
	.st58{fill:#538872;}
	.st59{fill:#67A78A;}
	.st60{fill:none;stroke:#E2A66F;stroke-width:6;stroke-linecap:round;stroke-miterlimit:10;}
	.st61{fill:none;stroke:#B9865D;stroke-width:6;stroke-linecap:round;stroke-miterlimit:10;}
	.st62{fill:#C4D6CD;}
	.st63{fill:#BCE9F2;}
	.st64{fill:#E2B9C1;}
	.st65{fill:#D19AA6;}
	.st66{fill:#D8ACB7;}
	.st67{fill:#C4929F;}
	.st68{fill:#CA6F63;}
	.st69{fill:#E07B67;}
	.st70{fill:#DF9589;}
	.st71{fill:#BE6761;}
	.st72{fill:#9B7380;}
	.st73{fill:#C48D99;}
	.st74{fill:#A97A86;}
	.st75{fill:#886672;}
	.st76{fill:#EEE8D6;}
	.st77{fill:#DCD7C8;}
	.st78{fill:#DB95A3;}
	.st79{fill:#E3CCD3;}
	.st80{fill:#CFBEC3;}
	.st81{fill:#EDE5E7;}
	.st82{fill:#39356B;}
	.st83{fill:#D8E8E1;}
	.st84{fill:none;stroke:#E2A66F;stroke-width:10;stroke-linecap:round;stroke-miterlimit:10;}
	.st85{fill:#C0A2A1;}
	.st86{fill:#ABAAD4;}
	.st87{fill:#514C96;}
	.st88{fill:#C1C1DF;}
	.st89{fill:#807CAE;}
	.st90{fill:#40715B;}
	.st91{fill:#DB9E6B;}
	.st92{fill:#E3C8B0;}
	.st93{fill:#653528;}
	.st94{fill:#D0C5C2;}
	.st95{fill:#EBE4E2;}
	.st96{fill:#F2F0DE;}
	.st97{fill:#668C7B;}
	.st98{fill:#65937D;}
	.st99{fill:#AD617E;}
	.st100{fill:#C97793;}
	.st101{fill:#E28DA3;}
	.st102{fill:#F9A2B3;}
	.st103{fill:#F2D7DC;}
	.st104{fill:#963346;}
	.st105{fill:#AA394E;}
	.st106{fill:#C8C8D5;}
	.st107{fill:#D5D4E8;}
	.st108{fill:#A2A1AF;}
	.st109{fill:#BABACB;}
	.st110{fill:#CCE0D7;}
	.st111{fill:#E0A0A9;}
	.st112{fill:#943346;}
	.st113{fill:#8F89C4;}
	.st114{fill:#BBB7DA;}
	.st115{fill:#C23C50;}
	.st116{fill:#A8394E;}
	.st117{fill:#EBB985;}
	.st118{fill:#DFA36F;}
	.st119{fill:#E1D3CF;}
	.st120{fill:#A59B98;}
	.st121{fill:#3E221C;}
	.st122{fill:none;stroke:#B7845D;stroke-width:8;stroke-linecap:round;stroke-miterlimit:10;}
	.st123{fill:none;stroke:#743A2F;stroke-width:7;stroke-linecap:round;stroke-miterlimit:10;}
	.st124{fill:#EEEBDA;}
	.st125{fill:#E5CD78;}
	.st126{fill:#69342A;}
	.st127{fill:#8C8482;}
	.st128{fill:#BA9D6F;}
	.st129{fill:#EFEFEF;}
	.st130{fill:none;stroke:#E2A66F;stroke-width:8;stroke-linecap:round;stroke-miterlimit:10;}
	.st131{fill:#6A9982;}
	.st132{fill:#638DCA;}
	.st133{fill:#6B96E1;}
	.st134{fill:#90B6F3;}
	.st135{fill:#6796EB;}
	.st136{fill:#C8A7A5;}
	.st137{fill:#817EAE;}
	.st138{fill:#DF9387;}
	.st139{fill:#B99151;}
	.st140{fill:#EFE8D0;}
	.st141{fill:#CC8D84;}
	.st142{fill:#304B78;}
	.st143{fill:#283F65;}
	.st144{fill:#365780;}
	.st145{fill:#CC94A0;}
	.st146{fill:#C0C6CC;}
	.st147{fill:#EBD5DA;}
	.st148{fill:#668ED4;}
	.st149{fill:#D4C3C7;}
	.st150{fill:#ACB0B4;}
	.st151{fill:#B6BDC3;}
	.st152{fill:#CE9668;}
	.st153{fill:#9C9FA0;}
	.st154{fill:#893248;}
	.st155{fill:#E7EBF0;}
	.st156{fill:#673628;}
	.st157{fill:#ECE9D8;}
	.st158{fill:#E3CB78;}
	.st159{fill:#6D9E86;}
	.st160{fill:#BE9573;}
	.st161{fill:#D1A37A;}
	.st162{fill:#D5C6B8;}
	.st163{fill:#E7D4C3;}
	.st164{fill:#B4A69A;}
	.st165{fill:#C79064;}
	.st166{fill:#BEC4C9;}
	.st167{fill:#AAADB2;}
	.st168{fill:#B4BBC1;}
	.st169{fill:#CC9468;}
	.st170{fill:#9A9D9E;}
	.st171{fill:#873248;}
	.st172{fill:#E5E9EE;}
	.st173{fill:#DBBBB8;}
	.st174{fill:#D3CAC3;}
	.st175{fill:#E4DAD1;}
	.st176{fill:#979492;}
	.st177{fill:#BAB5B0;}
	.st178{fill:#D1996C;}
	.st179{fill:#58504B;}
	.st180{fill:#E3DBDB;}
	.st181{fill:#855151;}
	.st182{fill:#BD8F9B;}
	.st183{fill:#CFC45A;}
	.st184{fill:#599178;}
	.st185{fill:#C3EDDE;}
	.st186{fill:#A2D4BF;}
	.st187{fill:#CA6F62;}
	.st188{fill:#EBDDE0;}
	.st189{fill:#D7CCCF;}
	.st190{fill:#CBC8C9;}
	.st191{fill:#A39EA0;}
	.st192{fill:#BAB2B4;}
	.st193{fill:#AA818B;}
	.st194{fill:#BF8D97;}
	.st195{fill:#C8939E;}
	.st196{fill:#E4C0C7;}
	.st197{fill:#A5BAD3;}
	.st198{fill:#B3CAEC;}
	.st199{fill:#6C95DC;}
	.st200{fill:#6E9AE6;}
	.st201{fill:#D4A67D;}
	.st202{fill:#D3D1C2;}
	.st203{fill:#827FB3;}
	.st204{fill:#646386;}
	.st205{fill:#6F6D97;}
	.st206{fill:#5A597A;}
	.st207{fill:#B6B4DA;}
	.st208{fill:#D0CEC0;}
	.st209{fill:#DAB9B6;}
	.st210{fill:#7E7AAB;}
	.st211{fill:#DBC5C5;}
	.st212{fill:#E0C18D;}
	.st213{fill:#7D9DC8;}
	.st214{fill:#9EBEEF;}
	.st215{fill:#C3D6F0;}
	.st216{fill:#B79872;}
	.st217{fill:#A68962;}
	.st218{fill:#70665E;}
	.st219{fill:#8E9791;}
	.st220{fill:#535399;}
	.st221{fill:#E0EBE4;}
	.st222{fill:#C08B96;}
	.st223{fill:#DDEDE7;}
	.st224{fill:#A68048;}
	.st225{fill:#474085;}
	.st226{fill:#7C7C9C;}
	.st227{fill:#9E9DCD;}
	.st228{fill:#4D291F;}
	.st229{fill:#854735;}
	.st230{fill:#9C533F;}
	.st231{fill:#D15F2E;}
	.st232{fill:#C26862;}
	.st233{fill:#464648;}
	.st234{fill:#3A3A3C;}
	.st235{fill:#5E5E63;}
	.st236{fill:#4F4F55;}
	.st237{fill:#7F7F86;}
	.st238{fill:#686871;}
	.st239{fill:#548A72;}
	.st240{fill:#67A98C;}
	.st241{fill:#CC9366;}
	.st242{fill:#CEB76E;}
	.st243{fill:#E1D4AB;}
	.st244{fill:#A87958;}
	.st245{fill:#92B5A5;}
	.st246{fill:#B68B4F;}
	.st247{fill:#D5B788;}
	.st248{fill:#CDE0D8;}
	.st249{fill:#6F6D95;}
	.st250{fill:#DAE1E6;}
	.st251{fill:#E0B7BF;}
	.st252{fill:#C2909D;}
	.st253{fill:#D6AAB5;}
	.st254{fill:#807FB1;}
	.st255{fill:#646384;}
	.st256{fill:#B4B2D8;}
	.st257{fill:#E8E5D4;}
	.st258{fill:#DFC778;}
	.st259{fill:#CF98A4;}
	.st260{fill:#99737F;}
	.st261{fill:none;stroke:#538872;stroke-width:10;stroke-linecap:round;stroke-miterlimit:10;}
	.st262{fill:#87485A;}
	.st263{fill:#A25365;}
	.st264{fill:#A4BDB1;}
	.st265{fill:#C7A23A;}
	.st266{fill:#E6BE3F;}
	.st267{fill:#A77D5A;}
	.st268{fill:#DDD9D5;}
	.st269{fill:#9F7654;}
	.st270{fill:#8B6A4D;}
	.st271{fill:#CACCCB;}
	.st272{fill:#C7C7D3;}
	.st273{fill:#D7D6E8;}
	.st274{fill:#E9DBDE;}
	.st275{fill:#D5CACD;}
	.st276{fill:#C9C6C7;}
	.st277{fill:#A19C9E;}
	.st278{fill:#B8AFB2;}
	.st279{fill:#6C9C84;}
	.st280{fill:#8481B6;}
	.st281{fill:#82653B;}
	.st282{fill:#D1CFC0;}
	.st283{fill:#C6919C;}
	.st284{fill:#A88089;}
	.st285{fill:#CECCBE;}
	.st286{fill:#739EF9;}
	.st287{fill:#A3B8D1;}
	.st288{fill:#B1C8EA;}
	.st289{fill:#6B93DA;}
	.st290{fill:#6D98E4;}
	.st291{fill:#BCC2C7;}
	.st292{fill:#A8ABB0;}
	.st293{fill:#B2B9BF;}
	.st294{fill:#CA9268;}
	.st295{fill:#DDA16E;}
	.st296{fill:#989B9C;}
	.st297{fill:#C03C50;}
	.st298{fill:#853248;}
	.st299{fill:#E3E7EC;}
	.st300{fill:#AC844B;}
	.st301{fill:#C6BB5A;}
	.st302{fill:#94B5A6;}
	.st303{fill:#C7E0D5;}
	.st304{fill:#6892DC;}
	.st305{fill:#B7D5C8;}
	.st306{fill:#A2BBAF;}
	.st307{fill:#528672;}
	.st308{fill:#67A588;}
	.st309{fill:#C5A03A;}
	.st310{fill:#E4BC3F;}
	.st311{fill:#DCE6E1;}
	.st312{fill:#993A52;}
	.st313{fill:#983347;}
</style>
<g id="BULINE">
	<g>
		<g>
			<path id="XMLID_521_" class="st0" d="M512,256c0,3.3-0.1,6.5-0.2,9.8c-3.4,90.8-54.1,169.5-128.2,212.2
				c-6.2,3.6-12.6,6.9-19.2,10c-17.6,8.2-36.2,14.5-55.7,18.6c-5.9,1.2-11.9,2.3-17.9,3.1c-11.4,1.5-23,2.3-34.8,2.3
				c-7.3,0-14.6-0.3-21.8-0.9c-4.5-0.4-8.9-0.9-13.3-1.5c-27.8-3.8-54.2-12.1-78.4-24.1C60.8,445.1,3.8,362.3,0.2,265.8
				C0.1,262.5,0,259.3,0,256C0,114.6,114.6,0,256,0S512,114.6,512,256z"/>
		</g>
	</g>
</g>
<g id="ICON_1_">
	<g id="XMLID_1129_">
		<path id="XMLID_520_" class="st6" d="M511.8,265.8c-3.4,90.8-54.1,169.5-128.2,212.2c-6.2,3.6-12.6,6.9-19.2,10
			c-17.6,8.2-36.2,14.5-55.7,18.6c-5.9,1.2-11.9,2.3-17.9,3.1c-11.4,1.5-23,2.3-34.8,2.3c-7.3,0-14.6-0.3-21.8-0.9
			c-4.5-0.4-8.9-0.9-13.3-1.5c-27.8-3.8-54.2-12.1-78.4-24.1C60.8,445.1,3.8,362.3,0.2,265.8H511.8z"/>
		<g id="XMLID_238_">
			<circle id="XMLID_518_" class="st16" cx="255.7" cy="49.6" r="46.7"/>
			<path id="XMLID_517_" class="st17" d="M302.4,49.6c0,25.8-20.9,46.7-46.7,46.7c-2.8,0-5.6-0.2-8.3-0.7c21.8-3.9,38.4-23,38.4-46
				c0-23-16.6-42.1-38.4-46c2.7-0.5,5.4-0.7,8.3-0.7C281.5,2.9,302.4,23.8,302.4,49.6z"/>
			<circle id="XMLID_516_" class="st18" cx="257.7" cy="130.1" r="85.7"/>
			<circle id="XMLID_515_" class="st8" cx="318.7" cy="195.5" r="12.4"/>
			<g id="XMLID_472_">
				<path id="XMLID_512_" class="st11" d="M257.7,293.5L257.7,293.5c-10.3,0-18.6-8.3-18.6-18.6v-33.7h37.3v33.7
					C276.3,285.2,267.9,293.5,257.7,293.5z"/>
				<path id="XMLID_511_" class="st11" d="M325.9,341.2v12.9H189.4v-12.9c0-31.2,21-57.5,49.6-65.7c5.9-1.7,12.2-2.6,18.6-2.6
					c2.5,0,5,0.1,7.5,0.4c1,0.1,1.9,0.2,2.9,0.4c1.7,0.3,3.4,0.6,5,1c1.1,0.2,2.1,0.5,3.2,0.8c0.6,0.2,1.1,0.3,1.7,0.5
					c0.5,0.2,1.1,0.3,1.6,0.5c0.5,0.2,1,0.3,1.5,0.5c1.7,0.6,3.3,1.2,4.8,2c0.5,0.2,0.9,0.4,1.4,0.7c1,0.5,2,1,2.9,1.5
					c0.4,0.2,0.8,0.4,1.2,0.7c0.1,0.1,0.2,0.1,0.3,0.2c0.4,0.2,0.8,0.5,1.2,0.7c0.1,0,0.2,0.1,0.2,0.1c0.4,0.3,0.9,0.5,1.3,0.8
					c0.8,0.5,1.6,1.1,2.4,1.6c0.2,0.1,0.4,0.2,0.5,0.4c0.3,0.2,0.6,0.5,0.9,0.7c0.5,0.4,1,0.8,1.5,1.1c0.8,0.6,1.6,1.3,2.3,1.9
					c0.1,0.1,0.2,0.2,0.3,0.2c0.3,0.3,0.7,0.6,1,0.9c0.1,0.1,0.2,0.1,0.2,0.2c0.4,0.3,0.7,0.7,1.1,1c0.4,0.4,0.8,0.8,1.2,1.1
					c1.2,1.2,2.3,2.4,3.3,3.6c1.4,1.7,2.8,3.4,4,5.2c0.6,0.9,1.2,1.8,1.8,2.7c0.6,0.9,1.2,1.9,1.7,2.8c0.8,1.4,1.6,2.9,2.3,4.4
					c0.5,1,0.9,2,1.4,3c0.4,1,0.8,2,1.2,3.1s0.7,2.1,1.1,3.2C324.8,327.4,325.9,334.2,325.9,341.2z"/>
			</g>
			<g id="XMLID_468_">
				<path id="XMLID_470_" class="st8" d="M276.3,241.2v33.7c0,0.2,0,0.5,0,0.7c0,1.4-0.2,2.7-0.6,4l-10.5-4c0-0.2,0-0.5,0-0.7v-33.7
					H276.3z"/>
				<path id="XMLID_469_" class="st8" d="M325.9,341.2v12.9h-11.1v-12.9c0-18.8-7.6-35.9-20-48.2c-5.5-5.5-12-10.1-19.1-13.5
					l-10.5-4c0-0.2,0-0.4,0-0.7v-1.5c1,0.1,1.9,0.2,2.9,0.4c1.7,0.2,3.4,0.6,5,1c1.1,0.2,2.1,0.5,3.2,0.8c0.6,0.2,1.1,0.3,1.7,0.5
					c0.5,0.2,1.1,0.3,1.6,0.5c0.5,0.2,1,0.3,1.5,0.5c1.7,0.6,3.3,1.2,4.8,2c0.5,0.2,0.9,0.4,1.4,0.7c1,0.5,2,1,2.9,1.5
					c0.4,0.2,0.8,0.4,1.2,0.7c0.1,0.1,0.2,0.1,0.3,0.2c0.4,0.2,0.8,0.5,1.2,0.7c0.1,0,0.2,0.1,0.2,0.1c0.4,0.3,0.9,0.5,1.3,0.8
					c0.8,0.5,1.6,1,2.4,1.6c0.2,0.1,0.4,0.2,0.5,0.4c0.3,0.2,0.6,0.5,0.9,0.7c0.5,0.4,1,0.8,1.5,1.1c0.8,0.6,1.6,1.2,2.3,1.9
					c0.1,0.1,0.2,0.2,0.3,0.2c0.3,0.3,0.7,0.6,1,0.9c0.1,0.1,0.2,0.1,0.2,0.2c0.4,0.3,0.7,0.7,1.1,1c0.4,0.4,0.8,0.7,1.2,1.1v0
					c1.2,1.2,2.3,2.4,3.3,3.6c1.4,1.7,2.8,3.4,4,5.2c0.6,0.9,1.2,1.8,1.8,2.7c0.6,0.9,1.2,1.9,1.7,2.8c0.8,1.4,1.6,2.9,2.3,4.4
					c0.5,1,0.9,2,1.4,3c0.4,1,0.8,2,1.2,3.1c0.4,1,0.7,2.1,1.1,3.2C324.8,327.4,325.9,334.2,325.9,341.2z"/>
			</g>
			<path id="XMLID_467_" class="st11" d="M257.7,263.5L257.7,263.5c-33.7,0-61.1-27.3-61.1-61.1v-67.7c0-23,18.6-41.6,41.6-41.6h39
				c23,0,41.6,18.6,41.6,41.6v67.7C318.7,236.1,291.4,263.5,257.7,263.5z"/>
			<path id="XMLID_466_" class="st8" d="M318.7,134.7v67.7c0,33.7-27.4,61.1-61.1,61.1c-2.4,0-4.8-0.1-7.2-0.4
				c30.4-3.6,53.9-29.4,53.9-60.7v-67.7c0-23-18.6-41.6-41.6-41.6h14.4C300.1,93.1,318.7,111.7,318.7,134.7z"/>
			<path id="XMLID_464_" class="st84" d="M243.6,229.1c0,6.7,5.4,12.1,12.1,12.1s12.1-5.4,12.1-12.1"/>
			<path id="XMLID_463_" class="st61" d="M217.8,183.1c0,4.7,3.8,8.5,8.5,8.5c4.7,0,8.5-3.8,8.5-8.5"/>
			<path id="XMLID_462_" class="st61" d="M280.5,183.1c0,4.7,3.8,8.5,8.5,8.5c4.7,0,8.5-3.8,8.5-8.5"/>
			<circle id="XMLID_461_" class="st11" cx="196.6" cy="195.5" r="12.4"/>
			<polygon id="XMLID_460_" class="st8" points="304.4,176.5 243.6,136.5 255,125 306.3,162.2 			"/>
			<path id="XMLID_459_" class="st18" d="M255.7,132.8c0,0-26.1,30-59.1,43.8l-12.4-41.1l18-51l48.4-12l55.9,8.9l19.6,30.5
				l-7.1,64.7C318.7,176.5,264.8,141.9,255.7,132.8z"/>
			<path id="XMLID_458_" class="st20" d="M250.5,114.3c0,0-32.1,50.9-64.8,62.3c0,0-22.3-13-9.7-36.6
				C176,140,223.9,95.1,250.5,114.3z"/>
			<path id="XMLID_240_" class="st21" d="M325.9,78.2c0,0,40.8,39.5,3.8,98.3c0,0-51-74.3-140.3-56.1
				C189.4,120.4,281.7,49.7,325.9,78.2z"/>
			<path id="XMLID_239_" class="st22" d="M168.4,142.5c-4.9-25.1-1.6-64.8,53.3-93.1c2.4-1.2,4.9-2.2,7.4-2.9
				C245.8,42,306.8,30,333.7,88.5c0,0-47.7-35.6-141.1,60.5C184.8,157,170.5,153.2,168.4,142.5z"/>
		</g>
		<path id="XMLID_237_" class="st97" d="M145,332.1c0,0-49.9,48.2,94,48.2C239,380.3,51,389.4,145,332.1z"/>
		<path id="XMLID_236_" class="st97" d="M87.3,330.9c0,0-73.8,71.2,139,71.2C226.3,402.1-51.6,415.5,87.3,330.9z"/>
		<path id="XMLID_235_" class="st97" d="M428,330.9c0,0,73.8,71.2-139,71.2C289,402.1,566.9,415.5,428,330.9z"/>
		<path id="XMLID_233_" class="st97" d="M379.1,332.1c0,0,49.9,48.2-94,48.2C285,380.3,473.1,389.4,379.1,332.1z"/>
		<path id="XMLID_232_" class="st15" d="M93.2,292.8c-1-2.9-5.3-6.5-7.1-9.1c-5.3-7.7-9.5-16.2-12.2-25.2c-4.2-14.5-3.1-29.6,3-43.4
			c5.5-12.4,15.8-21.2,21.7-33c12.2-24.3,8.6-51.8-5.5-74.5c0.8,1.3,5.3,2.8,6.7,3.7c5.2,3.5,9.8,8,13.4,13.2
			c13.5,19.7,10.1,45.1,2.4,66.3c-5.6,15.4-17.9,26.8-23.2,42.6C86.1,252.8,86.7,273.6,93.2,292.8z"/>
		<path id="XMLID_231_" class="st15" d="M147.6,342.1c-0.6-1.9-3.5-4.3-4.7-6c-3.5-5.1-6.3-10.7-8-16.6c-2.8-9.5-2-19.4,2-28.5
			c3.6-8.1,10.4-13.9,14.3-21.7c8-16,5.7-34-3.6-49c0.5,0.9,3.5,1.8,4.4,2.4c3.4,2.3,6.4,5.3,8.8,8.7c8.9,12.9,6.7,29.6,1.6,43.6
			c-3.7,10.1-11.8,17.6-15.2,28C143,315.8,143.4,329.5,147.6,342.1z"/>
		<path id="XMLID_230_" class="st15" d="M415.5,292.8c1-2.9,5.3-6.5,7.1-9.1c5.3-7.7,9.5-16.2,12.2-25.2c4.2-14.5,3.1-29.6-3-43.4
			c-5.5-12.4-15.8-21.2-21.7-33c-12.2-24.3-8.6-51.8,5.5-74.5c-0.8,1.3-5.3,2.8-6.7,3.7c-5.2,3.5-9.8,8-13.4,13.2
			c-13.5,19.7-10.1,45.1-2.4,66.3c5.6,15.4,17.9,26.8,23.2,42.6C422.6,252.8,421.9,273.6,415.5,292.8z"/>
		<path id="XMLID_229_" class="st15" d="M361.1,342.1c0.6-1.9,3.5-4.3,4.7-6c3.5-5.1,6.3-10.7,8-16.6c2.8-9.5,2-19.4-2-28.5
			c-3.6-8.1-10.4-13.9-14.3-21.7c-8-16-5.7-34,3.6-49c-0.5,0.9-3.5,1.8-4.4,2.4c-3.4,2.3-6.4,5.3-8.8,8.7
			c-8.9,12.9-6.7,29.6-1.6,43.6c3.7,10.1,11.8,17.6,15.2,28C365.7,315.8,365.3,329.5,361.1,342.1z"/>
		<rect id="XMLID_228_" x="189.4" y="341.2" class="st8" width="136.5" height="12.9"/>
	</g>
</g>
</svg>
