<?xml version="1.0" encoding="UTF-8"?>
<!DOCTYPE svg PUBLIC "-//W3C//DTD SVG 1.1//EN" "http://www.w3.org/Graphics/SVG/1.1/DTD/svg11.dtd">
<!-- Creator: CorelDRAW -->
<svg xmlns="http://www.w3.org/2000/svg" xml:space="preserve" width="6.82666in" height="6.82666in" style="shape-rendering:geometricPrecision; text-rendering:geometricPrecision; image-rendering:optimizeQuality; fill-rule:evenodd; clip-rule:evenodd"
viewBox="0 0 6.82666 6.82666"
 xmlns:xlink="http://www.w3.org/1999/xlink">
 <defs>
  <style type="text/css">
   <![CDATA[
    .fil2 {fill:none}
    .fil4 {fill:#33691E}
    .fil17 {fill:#424242}
    .fil3 {fill:#4E342E}
    .fil7 {fill:#50802E}
    .fil11 {fill:#558B2F}
    .fil19 {fill:#5F493A}
    .fil6 {fill:#619236}
    .fil10 {fill:#689F38}
    .fil15 {fill:#B0B0B0}
    .fil1 {fill:#FFF176}
    .fil0 {fill:#FFF59D}
    .fil13 {fill:#3E2723;fill-rule:nonzero}
    .fil5 {fill:#487329;fill-rule:nonzero}
    .fil8 {fill:#4C822B;fill-rule:nonzero}
    .fil9 {fill:#7CB342;fill-rule:nonzero}
    .fil12 {fill:#8BC34A;fill-rule:nonzero}
    .fil16 {fill:#B0B0B0;fill-rule:nonzero}
    .fil14 {fill:#BDBDBD;fill-rule:nonzero}
    .fil18 {fill:#FF8F00;fill-rule:nonzero}
   ]]>
  </style>
   <clipPath id="id0">
    <path d="M3.41333 -3.93701e-006c1.88513,0 3.41333,1.5282 3.41333,3.41333 0,1.88513 -1.5282,3.41333 -3.41333,3.41333 -1.88513,0 -3.41333,-1.5282 -3.41333,-3.41333 0,-1.88513 1.5282,-3.41333 3.41333,-3.41333z"/>
   </clipPath>
 </defs>
 <g id="Layer_x0020_1">
  <metadata id="CorelCorpID_0Corel-Layer"/>
  <path class="fil0" d="M3.41333 -3.93701e-006c1.88513,0 3.41333,1.5282 3.41333,3.41333 0,1.88513 -1.5282,3.41333 -3.41333,3.41333 -1.88513,0 -3.41333,-1.5282 -3.41333,-3.41333 0,-1.88513 1.5282,-3.41333 3.41333,-3.41333z"/>
  <g style="clip-path:url(#id0)">
   <g id="_457198856">
    <g>
     <path id="_4432774721" class="fil1" d="M8.53959 6.81933l0 0zm-3.78627 -3.78627l0 0z"/>
     <path id="_443277496" class="fil1" d="M6.34237 5.61676l0 0zm-3.78627 -3.78627l0 0z"/>
     <polygon id="_443279080" class="fil1" points="4.99591,3.16449 8.78217,6.95076 8.79879,6.96932 8.81488,6.9884 8.83044,7.00798 8.84547,7.02802 8.85998,7.04851 8.87398,7.06941 8.88746,7.0907 8.90042,7.11235 8.91287,7.13433 8.92482,7.15661 8.93626,7.17917 8.9472,7.20197 8.95765,7.225 8.9676,7.24822 8.97706,7.27161 8.98602,7.29514 8.9945,7.31878 9.0025,7.3425 9.01002,7.36628 9.01706,7.39009 9.02362,7.41389 9.02971,7.43768 9.03533,7.46141 9.0405,7.48506 5.25423,3.69878 5.24907,3.67513 5.24344,3.65141 5.23735,3.62762 5.23079,3.60381 5.22375,3.58001 5.21623,3.55623 5.20823,3.5325 5.19975,3.50887 5.19079,3.48534 5.18133,3.46195 5.17138,3.43873 5.16094,3.4157 5.15,3.39289 5.13856,3.37034 5.12661,3.34806 5.11415,3.32608 5.10119,3.30443 5.08771,3.28314 5.07372,3.26224 5.0592,3.24175 5.04417,3.2217 5.02861,3.20213 5.01252,3.18305 "/>
     <polygon id="_443278984" class="fil1" points="2.79668,1.65017 6.58294,5.43644 6.58864,5.44293 6.59411,5.44956 6.59935,5.4563 6.60436,5.46316 6.60914,5.47013 6.61369,5.47722 6.61802,5.4844 6.62211,5.49168 6.62597,5.49906 6.62961,5.50652 6.63302,5.51406 6.63619,5.52168 6.63914,5.52937 6.64186,5.53713 6.64435,5.54495 6.64662,5.55282 2.86035,1.76655 2.85809,1.75868 2.85559,1.75086 2.85287,1.7431 2.84993,1.73541 2.84675,1.72779 2.84334,1.72025 2.8397,1.71279 2.83584,1.70541 2.83175,1.69813 2.82743,1.69094 2.82287,1.68386 2.81809,1.67689 2.81308,1.67002 2.80784,1.66328 2.80237,1.65666 "/>
     <polygon id="_443279344" class="fil1" points="2.86035,1.76655 6.64662,5.55282 6.64844,5.55985 6.65007,5.56692 6.65154,5.57401 6.65281,5.58112 6.65391,5.58826 6.65483,5.59542 6.65557,5.60259 6.65613,5.60976 6.65652,5.61695 6.65672,5.62414 6.65674,5.63133 6.65658,5.63852 6.65624,5.64569 6.65573,5.65286 6.65503,5.66001 6.65416,5.66714 2.86789,1.88087 2.86876,1.87374 2.86946,1.86659 2.86998,1.85942 2.87031,1.85224 2.87047,1.84506 2.87045,1.83787 2.87025,1.83068 2.86987,1.82349 2.86931,1.81631 2.86857,1.80915 2.86765,1.80199 2.86655,1.79485 2.86527,1.78774 2.86381,1.78065 2.86217,1.77358 "/>
     <polygon id="_443279224" class="fil1" points="2.86001,1.88795 6.64628,5.67422 6.63914,5.67486 6.63199,5.67532 6.62484,5.6756 6.61769,5.6757 6.61053,5.67563 6.60338,5.67538 6.59624,5.67495 6.5891,5.67434 6.58199,5.67356 6.57489,5.67259 6.56781,5.67146 6.56076,5.67014 6.55374,5.66865 6.54676,5.66698 6.5398,5.66513 6.53289,5.6631 2.74663,1.87683 2.75354,1.87885 2.76049,1.8807 2.76747,1.88237 2.7745,1.88387 2.78154,1.88519 2.78862,1.88632 2.79572,1.88728 2.80283,1.88807 2.80997,1.88868 2.81711,1.88911 2.82426,1.88936 2.83142,1.88943 2.83857,1.88933 2.84572,1.88905 2.85287,1.88859 "/>
     <polygon id="_443279272" class="fil1" points="3.17124,3.07197 6.9575,6.85824 6.97828,6.87995 7.00115,6.90558 7.02615,6.93526 7.05331,6.96913 7.08269,7.00733 7.11429,7.04999 3.32802,3.26372 3.29642,3.22106 3.26705,3.18286 3.23989,3.14899 3.21489,3.11931 3.19202,3.09368 "/>
     <polygon id="_443279320" class="fil1" points="4.33425,3.45213 8.12052,7.2384 7.74737,6.8772 7.74482,6.8746 3.95855,3.08833 3.96111,3.09093 "/>
     <polygon id="_443279512" class="fil1" points="2.86158,1.96606 6.64785,5.75233 6.64702,5.75147 2.86075,1.9652 "/>
     <polygon id="_443279608" class="fil1" points="3.93914,3.04111 7.72541,6.82739 6.64785,5.75233 2.86158,1.96606 "/>
     <polygon id="_443279776" class="fil1" points="2.74663,1.87683 6.53289,5.6631 6.52511,5.66059 6.51739,5.65785 6.50974,5.65489 6.50216,5.6517 6.49465,5.64828 6.48722,5.64463 6.47988,5.64075 6.47263,5.63665 6.46548,5.63232 6.45843,5.62776 6.45149,5.62298 6.44467,5.61796 6.43795,5.61273 6.43137,5.60726 6.42491,5.60157 6.41858,5.59565 2.63231,1.80938 2.63864,1.8153 2.6451,1.82099 2.65169,1.82646 2.6584,1.83169 2.66522,1.8367 2.67217,1.84149 2.67922,1.84605 2.68637,1.85038 2.69361,1.85448 2.70095,1.85836 2.70838,1.862 2.71589,1.86543 2.72347,1.86862 2.73113,1.87158 2.73885,1.87432 "/>
     <polygon id="_443280328" class="fil1" points="5.23366,4.20717 9.01993,7.99344 9.01719,7.9994 9.01385,8.00489 9.00998,8.00989 9.00562,8.01437 9.00083,8.0183 8.99567,8.02168 8.99018,8.02446 8.98442,8.02664 5.19815,4.24037 5.20391,4.23819 5.2094,4.23541 5.21457,4.23203 5.21935,4.22809 5.22371,4.22361 5.22759,4.21862 5.23092,4.21313 "/>
     <polygon id="_443279704" class="fil1" points="3.45197,2.80087 7.23824,6.58714 7.24307,6.5935 7.24783,6.60111 7.25248,6.60992 7.25704,6.61986 7.26149,6.63089 7.26583,6.64294 7.27006,6.65596 7.27417,6.66988 7.27815,6.68466 7.28199,6.70022 7.2857,6.71652 7.28926,6.7335 7.29267,6.7511 7.29593,6.76926 7.29902,6.78791 7.30195,6.80702 7.3047,6.82651 7.30728,6.84633 7.30967,6.86643 7.31187,6.88674 7.31388,6.9072 7.31568,6.92777 7.31728,6.94837 7.31867,6.96896 7.31983,6.98948 7.32078,7.00986 7.32149,7.03005 7.32196,7.04999 3.5357,3.26372 3.53522,3.24378 3.53451,3.22359 3.53356,3.2032 3.5324,3.18269 3.53101,3.1621 3.52941,3.1415 3.52761,3.12093 3.5256,3.10047 3.5234,3.08016 3.52101,3.06006 3.51843,3.04024 3.51568,3.02075 3.51275,3.00164 3.50966,2.98298 3.5064,2.96483 3.50299,2.94723 3.49943,2.93025 3.49572,2.91395 3.49188,2.89839 3.4879,2.88361 3.4838,2.86969 3.47957,2.85667 3.47522,2.84462 3.47077,2.83359 3.46622,2.82365 3.46156,2.81483 3.45681,2.80722 "/>
     <polygon id="_443279752" class="fil1" points="5.25423,3.69878 9.0405,7.48506 9.04376,7.50119 9.04683,7.51739 9.04969,7.53365 9.05235,7.54996 9.05479,7.56631 9.05701,7.58269 9.05901,7.59911 9.06077,7.61553 9.0623,7.63197 9.06359,7.64841 9.06464,7.66483 9.06543,7.68125 9.06596,7.69763 9.06623,7.71399 9.06623,7.73031 9.06596,7.74657 9.06541,7.76278 9.06457,7.77892 9.06344,7.79499 9.06202,7.81098 9.06029,7.82687 9.05826,7.84267 9.05592,7.85835 9.05325,7.87393 9.05027,7.88938 9.04695,7.90469 9.0433,7.91987 9.03931,7.9349 9.03498,7.94977 9.03029,7.96448 9.02525,7.97901 9.01985,7.99336 5.23358,4.20709 5.23898,4.19274 5.24402,4.1782 5.24871,4.1635 5.25304,4.14863 5.25704,4.1336 5.26069,4.11842 5.264,4.10311 5.26698,4.08766 5.26965,4.07208 5.27199,4.05639 5.27402,4.0406 5.27575,4.0247 5.27717,4.00872 5.2783,3.99265 5.27914,3.97651 5.27969,3.9603 5.27996,3.94404 5.27996,3.92772 5.27969,3.91136 5.27916,3.89498 5.27837,3.87856 5.27733,3.86213 5.27604,3.8457 5.2745,3.82926 5.27274,3.81283 5.27074,3.79642 5.26852,3.78004 5.26608,3.76369 5.26342,3.74738 5.26056,3.73112 5.25749,3.71492 "/>
     <polygon id="_443279992" class="fil1" points="5.23358,4.20709 9.01985,7.99336 9.01993,7.99344 5.23366,4.20717 "/>
     <polygon id="_443280256" class="fil1" points="3.78803,3.02314 7.5743,6.80941 7.57792,6.81683 7.57983,6.82679 7.58004,6.83916 7.57862,6.85378 7.57559,6.87053 7.57098,6.88927 7.56485,6.90985 7.55722,6.93214 7.54814,6.956 7.53763,6.98129 7.52574,7.00787 7.51251,7.03559 7.49797,7.06434 7.48216,7.09396 7.46512,7.12431 7.44689,7.15527 7.4275,7.18668 7.40698,7.21841 3.62072,3.43213 3.64123,3.40041 3.66062,3.369 3.67885,3.33804 3.69589,3.30769 3.7117,3.27807 3.72624,3.24932 3.73948,3.22159 3.75136,3.19502 3.76187,3.16972 3.77095,3.14587 3.77858,3.12358 3.78472,3.103 3.78932,3.08426 3.79235,3.06751 3.79378,3.05289 3.79356,3.04052 3.79165,3.03056 "/>
     <polygon id="_443279896" class="fil1" points="3.89354,3.37341 7.67981,7.15969 7.68234,7.16422 7.68231,7.16981 7.67984,7.17636 7.67505,7.18378 7.66806,7.192 7.65897,7.20093 7.64792,7.21046 7.63502,7.22054 7.62038,7.23107 7.60413,7.24195 7.58638,7.25311 7.56725,7.26446 7.54686,7.27592 7.52533,7.28739 7.50277,7.2988 7.4793,7.31004 7.45505,7.32106 7.43012,7.33174 7.40463,7.34201 7.37871,7.35178 3.59244,3.56551 3.61837,3.55574 3.64385,3.54547 3.66878,3.53478 3.69304,3.52377 3.7165,3.51252 3.73906,3.50112 3.76059,3.48965 3.78098,3.47819 3.80011,3.46684 3.81786,3.45568 3.83411,3.4448 3.84875,3.43427 3.86165,3.42419 3.8727,3.41465 3.88179,3.40573 3.88878,3.39751 3.89357,3.39009 3.89604,3.38354 3.89607,3.37795 "/>
     <polygon id="_443280136" class="fil1" points="3.71967,3.63063 7.50594,7.41691 7.50652,7.42021 7.50632,7.42341 7.50538,7.42652 7.50372,7.42952 7.50136,7.43243 7.49833,7.43523 7.49463,7.43793 7.49031,7.44053 7.48538,7.44303 7.47986,7.44543 7.47378,7.44773 7.46715,7.44993 7.46001,7.45203 7.45237,7.45403 7.44425,7.45593 7.43569,7.45772 7.42669,7.45942 7.4173,7.46102 7.40751,7.46251 7.39737,7.46391 7.38689,7.4652 7.37609,7.46639 7.365,7.46748 7.35365,7.46848 7.34204,7.46937 7.33021,7.47016 7.31817,7.47085 7.30596,7.47143 7.29359,7.47192 7.28108,7.47231 7.26846,7.47259 7.25576,7.47278 3.46949,3.68651 3.4822,3.68632 3.49481,3.68604 3.50732,3.68565 3.51969,3.68516 3.53191,3.68457 3.54394,3.68389 3.55577,3.68309 3.56738,3.6822 3.57874,3.68121 3.58983,3.68012 3.60062,3.67893 3.6111,3.67763 3.62124,3.67624 3.63103,3.67474 3.64043,3.67315 3.64942,3.67145 3.65798,3.66965 3.6661,3.66776 3.67374,3.66576 3.68088,3.66366 3.68751,3.66146 3.69359,3.65916 3.69911,3.65676 3.70404,3.65426 3.70837,3.65166 3.71206,3.64896 3.71509,3.64615 3.71746,3.64325 3.71911,3.64025 3.72006,3.63714 3.72025,3.63394 "/>
     <polygon id="_443279872" class="fil1" points="3.46949,3.68651 7.25576,7.47278 7.24801,7.47268 3.46174,3.68641 "/>
     <polygon id="_443280544" class="fil1" points="2.29472,2.79582 6.08098,6.58209 6.0859,6.58714 6.09074,6.5935 6.09549,6.60111 6.10015,6.60992 6.1047,6.61986 6.10916,6.63089 6.1135,6.64294 6.11773,6.65596 6.12183,6.66988 6.12581,6.68466 6.12966,6.70022 6.13336,6.71652 6.13693,6.7335 6.14033,6.7511 6.14359,6.76926 6.14669,6.78791 6.14961,6.80702 6.15237,6.82651 6.15494,6.84633 6.15733,6.86643 6.15954,6.88674 6.16154,6.9072 6.16335,6.92777 6.16494,6.94837 6.16633,6.96896 6.1675,6.98948 6.16844,7.00986 6.16915,7.03005 6.16963,7.04999 2.38336,3.26372 2.38289,3.24378 2.38217,3.22359 2.38123,3.2032 2.38006,3.18269 2.37868,3.1621 2.37708,3.1415 2.37528,3.12093 2.37327,3.10047 2.37107,3.08016 2.36868,3.06006 2.3661,3.04024 2.36335,3.02075 2.36042,3.00164 2.35732,2.98298 2.35407,2.96483 2.35066,2.94723 2.34709,2.93025 2.34339,2.91395 2.33954,2.89839 2.33557,2.88361 2.33146,2.86969 2.32723,2.85667 2.32289,2.84462 2.31844,2.83359 2.31388,2.82365 2.30922,2.81483 2.30447,2.80722 2.29963,2.80087 "/>
     <polygon id="_443280712" class="fil1" points="2.6357,3.02314 6.42197,6.80941 6.42559,6.81683 6.42749,6.82679 6.42771,6.83916 6.42629,6.85378 6.42326,6.87053 6.41865,6.88927 6.41252,6.90985 6.40489,6.93214 6.3958,6.956 6.3853,6.98129 6.37341,7.00787 6.36018,7.03559 6.34564,7.06434 6.32983,7.09396 6.31279,7.12431 6.29455,7.15527 6.27516,7.18668 6.25465,7.21841 2.46838,3.43213 2.48889,3.40041 2.50828,3.369 2.52652,3.33804 2.54356,3.30769 2.55937,3.27807 2.57391,3.24932 2.58714,3.22159 2.59903,3.19502 2.60954,3.16972 2.61862,3.14587 2.62625,3.12358 2.63239,3.103 2.63699,3.08426 2.64002,3.06751 2.64144,3.05289 2.64122,3.04052 2.63932,3.03056 "/>
     <polygon id="_443281000" class="fil1" points="2.00018,3.05404 5.78644,6.84031 5.80517,6.85824 5.82595,6.87995 5.84882,6.90558 5.87382,6.93526 5.90098,6.96913 5.93035,7.00733 5.96196,7.04999 2.17569,3.26372 2.14409,3.22106 2.11472,3.18286 2.08756,3.14899 2.06256,3.11931 2.03969,3.09368 2.01891,3.07197 "/>
     <polygon id="_443280808" class="fil1" points="2.74121,3.37341 6.52748,7.15969 6.53001,7.16422 6.52998,7.16981 6.52751,7.17636 6.52272,7.18378 6.51572,7.192 6.50664,7.20093 6.49559,7.21046 6.48269,7.22054 6.46805,7.23107 6.4518,7.24195 6.43405,7.25311 6.41492,7.26446 6.39453,7.27592 6.373,7.28739 6.35044,7.2988 6.32697,7.31004 6.30271,7.32106 6.27778,7.33174 6.2523,7.34201 6.22638,7.35178 2.44011,3.56551 2.46603,3.55574 2.49152,3.54547 2.51644,3.53478 2.5407,3.52377 2.56417,3.51252 2.58673,3.50112 2.60826,3.48965 2.62865,3.47819 2.64778,3.46684 2.66553,3.45568 2.68178,3.4448 2.69642,3.43427 2.70932,3.42419 2.72037,3.41465 2.72945,3.40573 2.73645,3.39751 2.74124,3.39009 2.74371,3.38354 2.74374,3.37795 "/>
     <polygon id="_443281048" class="fil1" points="2.99919,3.77437 6.78546,7.56065 6.79432,7.56945 6.80355,7.57919 6.81309,7.5898 6.82288,7.60124 6.83287,7.61348 6.84302,7.62646 6.85325,7.64015 6.86352,7.65449 6.87377,7.66945 6.88396,7.68498 3.09769,3.89871 3.0875,3.88318 3.07725,3.86822 3.06698,3.85387 3.05675,3.84019 3.04661,3.8272 3.03661,3.81497 3.02682,3.80352 3.01728,3.79291 3.00806,3.78318 "/>
     <polygon id="_443280616" class="fil1" points="2.56286,3.62129 6.34913,7.40756 6.35077,7.40931 6.35207,7.41098 6.35302,7.41259 6.3536,7.41411 6.3538,7.41555 6.35361,7.41691 2.56734,3.63063 2.56753,3.62928 2.56733,3.62784 2.56675,3.62631 2.5658,3.62471 2.5645,3.62304 "/>
     <polygon id="_443280472" class="fil1" points="2.56734,3.63063 6.35361,7.41691 6.35418,7.42021 6.35399,7.42341 6.35305,7.42652 6.35139,7.42952 6.34903,7.43243 6.34599,7.43523 6.3423,7.43793 6.33798,7.44053 6.33304,7.44303 6.32752,7.44543 6.32144,7.44773 6.31481,7.44993 6.30767,7.45203 6.30003,7.45403 6.29192,7.45593 6.28335,7.45772 6.27436,7.45942 6.26496,7.46102 6.25518,7.46251 6.24504,7.46391 6.23456,7.4652 6.22376,7.46639 6.21267,7.46748 6.20131,7.46848 6.1897,7.46937 6.17787,7.47016 6.16584,7.47085 6.15363,7.47143 6.14126,7.47192 6.12875,7.47231 6.11613,7.47259 6.10343,7.47278 2.31716,3.68651 2.32987,3.68632 2.34248,3.68604 2.35499,3.68565 2.36736,3.68516 2.37957,3.68457 2.39161,3.68389 2.40344,3.68309 2.41504,3.6822 2.42641,3.68121 2.43749,3.68012 2.44829,3.67893 2.45877,3.67763 2.46891,3.67624 2.47869,3.67474 2.48809,3.67315 2.49709,3.67145 2.50565,3.66965 2.51376,3.66776 2.52141,3.66576 2.52855,3.66366 2.53517,3.66146 2.54126,3.65916 2.54678,3.65676 2.55171,3.65426 2.55603,3.65166 2.55972,3.64896 2.56276,3.64615 2.56512,3.64325 2.56678,3.64025 2.56772,3.63714 2.56791,3.63394 "/>
     <polygon id="_443280832" class="fil1" points="2.96402,3.99618 6.75029,7.78245 6.74146,7.77826 6.73257,7.77393 6.72364,7.76944 6.71469,7.76483 6.70576,7.76011 6.69685,7.7553 6.68801,7.75039 6.67925,7.74542 6.67061,7.74039 6.66209,7.73532 6.65373,7.73022 6.64556,7.72511 6.63759,7.71999 6.62986,7.71489 6.62239,7.70981 6.61519,7.70479 6.6083,7.69981 6.60175,7.69491 6.59555,7.69009 6.58973,7.68536 6.58431,7.68075 6.57933,7.67627 2.79307,3.89 2.79805,3.89448 2.80346,3.89909 2.80928,3.90381 2.81548,3.90863 2.82204,3.91354 2.82892,3.91852 2.83612,3.92354 2.84359,3.92862 2.85133,3.93372 2.85929,3.93883 2.86746,3.94395 2.87582,3.94905 2.88434,3.95412 2.89298,3.95915 2.90174,3.96412 2.91059,3.96902 2.91949,3.97384 2.92843,3.97856 2.93737,3.98317 2.9463,3.98765 2.9552,3.99199 "/>
     <polygon id="_443280880" class="fil1" points="4.02057,3.82972 7.80684,7.61599 7.80674,7.61606 4.02048,3.82978 "/>
     <polygon id="_443280424" class="fil1" points="1.81169,3.99618 5.59796,7.78245 5.58913,7.77826 5.58024,7.77393 5.5713,7.76944 5.56236,7.76483 5.55342,7.76011 5.54452,7.7553 5.53568,7.75039 5.52692,7.74542 5.51827,7.74039 5.50976,7.73532 5.5014,7.73022 5.49322,7.72511 5.48526,7.71999 5.47753,7.71489 5.47005,7.70981 5.46285,7.70479 5.45597,7.69981 5.44941,7.69491 5.44321,7.69009 5.4374,7.68536 5.43198,7.68075 1.64572,3.89448 1.65113,3.89909 1.65694,3.90381 1.66315,3.90863 1.6697,3.91354 1.67659,3.91852 1.68378,3.92354 1.69126,3.92862 1.69899,3.93372 1.70696,3.93883 1.71513,3.94395 1.72349,3.94905 1.732,3.95412 1.74065,3.95915 1.74941,3.96412 1.75825,3.96902 1.76715,3.97384 1.77609,3.97856 1.78504,3.98317 1.79397,3.98765 1.80286,3.99199 "/>
     <polygon id="_443280400" class="fil1" points="2.16437,4.16049 5.95063,7.94676 5.93741,7.93506 5.92387,7.92336 5.91003,7.91167 5.89585,7.89999 5.88134,7.8883 5.86649,7.87661 5.85128,7.86492 5.83571,7.85321 5.81977,7.84149 5.80344,7.82976 2.01717,4.04348 2.0335,4.05522 2.04944,4.06694 2.06502,4.07865 2.08022,4.09034 2.09507,4.10203 2.10959,4.11372 2.12376,4.1254 2.13761,4.13709 2.15114,4.14879 "/>
     <polygon id="_443281408" class="fil1" points="2.01717,4.04348 5.80344,7.82976 5.80032,7.83702 2.01405,4.05075 "/>
     <polygon id="_443281144" class="fil1" points="1.87011,4.06776 5.65638,7.85403 5.6381,7.85689 5.62019,7.85931 5.6027,7.86131 5.58572,7.86289 5.56932,7.86406 5.55357,7.86484 5.53852,7.86524 5.52426,7.86527 5.51085,7.86493 5.49837,7.86425 5.48688,7.86322 5.47644,7.86187 5.46715,7.86019 5.45905,7.85822 5.45222,7.85594 5.44673,7.85338 5.44265,7.85054 1.65639,4.06427 1.66046,4.06711 1.66595,4.06967 1.67278,4.07194 1.68088,4.07392 1.69018,4.07559 1.70061,4.07695 1.7121,4.07798 1.72459,4.07866 1.738,4.079 1.75226,4.07897 1.7673,4.07857 1.78306,4.07779 1.79946,4.07661 1.81643,4.07504 1.83392,4.07304 1.85183,4.07062 "/>
     <polygon id="_443281672" class="fil1" points="1.93542,4.08167 5.72169,7.86794 5.71215,7.87759 5.70248,7.88695 5.69274,7.89598 5.68298,7.90464 5.67327,7.9129 5.66368,7.92072 5.65426,7.92807 5.64507,7.93492 5.63618,7.94122 5.62765,7.94693 5.61955,7.95204 5.61192,7.95649 5.60484,7.96026 5.59837,7.9633 5.59257,7.96559 5.5875,7.96708 5.58322,7.96775 5.5798,7.96755 5.5773,7.96645 1.79103,4.18018 1.79354,4.18128 1.79696,4.18148 1.80123,4.18081 1.8063,4.17932 1.81211,4.17703 1.81857,4.17399 1.82565,4.17022 1.83328,4.16577 1.84139,4.16066 1.84991,4.15494 1.8588,4.14865 1.86799,4.1418 1.87741,4.13445 1.887,4.12663 1.89671,4.11837 1.90647,4.10971 1.91622,4.10068 1.92589,4.09132 "/>
     <polygon id="_443281384" class="fil1" points="2.01405,4.05075 5.80032,7.83702 5.79506,7.84826 5.78972,7.85922 5.78432,7.86981 5.7789,7.87997 5.7735,7.8896 5.76815,7.89862 5.76288,7.90696 5.75775,7.91454 5.75277,7.92126 5.748,7.92706 5.74345,7.93185 5.73918,7.93556 5.7352,7.93808 5.73158,7.93936 5.72833,7.93931 5.72549,7.93784 1.93922,4.15157 1.94206,4.15304 1.94531,4.15309 1.94894,4.15181 1.95291,4.14928 1.95718,4.14558 1.96173,4.14079 1.9665,4.13499 1.97148,4.12826 1.97661,4.12069 1.98188,4.11235 1.98723,4.10333 1.99263,4.0937 1.99805,4.08354 2.00345,4.07294 2.0088,4.06199 "/>
     <polygon id="_443281744" class="fil1" points="2.43578,4.60532 6.22205,8.39159 6.22773,8.39678 6.23321,8.40198 6.2385,8.40717 6.24359,8.41235 6.24849,8.41754 6.25321,8.42271 6.25774,8.42788 6.2621,8.43304 6.26628,8.43818 6.27028,8.44331 6.27412,8.44843 6.27779,8.45353 6.2813,8.45861 2.49503,4.67234 2.49152,4.66726 2.48785,4.66216 2.48402,4.65704 2.48001,4.65191 2.47583,4.64676 2.47148,4.64161 2.46694,4.63644 2.46222,4.63126 2.45732,4.62608 2.45223,4.62089 2.44694,4.6157 2.44146,4.61051 "/>
     <polygon id="_443281432" class="fil1" points="1.93922,4.15157 5.72549,7.93784 5.72424,7.93728 1.93798,4.15101 "/>
     <polygon id="_443281720" class="fil1" points="1.83841,3.76653 5.62468,7.5528 5.63313,7.56065 5.64199,7.56945 5.65122,7.57919 5.66076,7.5898 5.67055,7.60124 5.68054,7.61348 5.69068,7.62646 5.70091,7.64015 5.71119,7.65449 5.72144,7.66945 5.73163,7.68498 1.94536,3.89871 1.93517,3.88318 1.92492,3.86822 1.91465,3.85387 1.90441,3.84019 1.89428,3.8272 1.88428,3.81497 1.87449,3.80352 1.86495,3.79291 1.85572,3.78318 1.84686,3.77437 "/>
     <polygon id="_443281264" class="fil1" points="1.98074,3.76701 5.76701,7.55328 5.76942,7.55619 5.77175,7.56026 5.77397,7.56544 5.77608,7.57167 5.77806,7.5789 5.77988,7.58707 5.78154,7.59615 5.78302,7.60606 5.78431,7.61676 5.78538,7.6282 5.78622,7.64031 5.78683,7.65306 5.78717,7.66638 5.78723,7.68023 5.787,7.69454 5.78646,7.70927 5.78559,7.72436 1.99933,3.93809 2.00019,3.923 2.00073,3.90827 2.00096,3.89396 2.0009,3.88011 2.00056,3.86679 1.99996,3.85404 1.99911,3.84193 1.99804,3.83049 1.99676,3.81979 1.99528,3.80987 1.99361,3.8008 1.99179,3.79263 1.98981,3.78539 1.9877,3.77917 1.98548,3.77399 1.98315,3.76992 "/>
     <polygon id="_443281456" class="fil1" points="2.05374,3.89429 5.84,7.68056 5.8418,7.68332 5.84306,7.68692 5.84381,7.6913 5.84408,7.69641 5.84389,7.7022 5.84325,7.70862 5.84219,7.71562 5.84074,7.72315 5.83892,7.73115 5.83674,7.73957 5.83424,7.74837 5.83144,7.75749 5.82836,7.76688 5.82502,7.77649 5.82144,7.78626 5.81766,7.79615 2.03139,4.00988 2.03518,3.99999 2.03875,3.99022 2.04209,3.98061 2.04517,3.97122 2.04798,3.9621 2.05048,3.9533 2.05265,3.94487 2.05447,3.93687 2.05592,3.92935 2.05698,3.92235 2.05762,3.91593 2.05781,3.91013 2.05755,3.90502 2.0568,3.90065 2.05553,3.89705 "/>
     <polygon id="_443281528" class="fil1" points="2.20442,4.14323 5.99069,7.9295 6.00376,7.94142 6.01664,7.95344 6.02932,7.96555 6.04181,7.97775 6.05411,7.99003 6.06622,8.00239 6.07815,8.01483 6.08989,8.02733 6.10145,8.03989 6.11284,8.05251 6.12405,8.06519 6.13508,8.0779 6.14594,8.09066 6.15663,8.10345 6.16715,8.11628 6.17751,8.12913 6.18771,8.142 6.19774,8.15488 6.20762,8.16777 6.21734,8.18067 2.43107,4.39439 2.42135,4.3815 2.41148,4.36861 2.40144,4.35572 2.39124,4.34285 2.38089,4.33 2.37036,4.31718 2.35967,4.30439 2.34881,4.29163 2.33778,4.27891 2.32657,4.26624 2.31519,4.25362 2.30363,4.24106 2.29188,4.22856 2.27995,4.21612 2.26784,4.20376 2.25554,4.19148 2.24305,4.17928 2.23037,4.16717 2.21749,4.15515 "/>
     <polygon id="_443281360" class="fil1" points="2.24341,3.68556 6.02968,7.47183 6.02756,7.4718 2.2413,3.68553 "/>
     <polygon id="_443281984" class="fil1" points="2.11922,3.56551 5.90549,7.35178 5.87662,7.34086 5.8487,7.32964 5.82181,7.31819 5.79603,7.30657 5.77146,7.29488 5.74819,7.28318 5.72628,7.27154 5.70584,7.26005 5.68694,7.24876 5.66969,7.23777 5.65414,7.22714 5.64041,7.21694 5.62856,7.20725 1.84229,3.42098 1.85414,3.43067 1.86787,3.44087 1.88342,3.4515 1.90068,3.46249 1.91957,3.47378 1.94002,3.48527 1.96192,3.49691 1.9852,3.50861 2.00976,3.5203 2.03554,3.53191 2.06243,3.54337 2.09035,3.55459 "/>
     <polygon id="_443282224" class="fil1" points="2.2413,3.68553 6.02756,7.4718 6.01617,7.47135 6.00485,7.47081 5.99362,7.47019 5.9825,7.46949 5.97148,7.46871 5.96061,7.46785 5.94989,7.46691 5.93933,7.46589 5.92896,7.46478 5.91878,7.46359 5.90883,7.46233 5.89911,7.46098 5.88963,7.45955 5.88043,7.45804 5.8715,7.45644 5.86287,7.45477 5.85456,7.45301 5.84657,7.45118 5.83894,7.44926 5.83167,7.44726 5.82477,7.44518 5.81827,7.44302 5.81218,7.44077 5.80652,7.43844 5.80131,7.43604 5.79656,7.43355 5.79228,7.43098 5.78849,7.42833 5.78522,7.42559 1.99895,3.63932 2.00222,3.64206 2.00601,3.64471 2.01029,3.64728 2.01504,3.64977 2.02026,3.65217 2.02591,3.6545 2.032,3.65674 2.0385,3.65891 2.0454,3.66099 2.05267,3.66299 2.06031,3.66491 2.06829,3.66674 2.0766,3.6685 2.08523,3.67017 2.09416,3.67176 2.10337,3.67328 2.11284,3.6747 2.12256,3.67606 2.13252,3.67732 2.14269,3.67851 2.15306,3.67961 2.16362,3.68064 2.17434,3.68158 2.18522,3.68244 2.19623,3.68322 2.20735,3.68392 2.21859,3.68454 2.22991,3.68507 "/>
     <polygon id="_443282416" class="fil1" points="3.13308,3.76701 6.91935,7.55328 6.92176,7.55619 6.92408,7.56026 6.9263,7.56544 6.92841,7.57167 6.93039,7.5789 6.93221,7.58707 6.93388,7.59615 6.93536,7.60606 6.93664,7.61676 6.93772,7.6282 6.93856,7.64031 6.93916,7.65306 6.9395,7.66638 6.93956,7.68023 6.93933,7.69454 6.93879,7.70927 6.93793,7.72436 3.15166,3.93809 3.15252,3.923 3.15306,3.90827 3.1533,3.89396 3.15323,3.88011 3.15289,3.86679 3.15229,3.85404 3.15145,3.84193 3.15037,3.83049 3.14909,3.81979 3.14761,3.80987 3.14594,3.8008 3.14412,3.79263 3.14215,3.78539 3.14004,3.77917 3.13781,3.77399 3.13549,3.76992 "/>
     <polygon id="_443281960" class="fil1" points="3.20607,3.89429 6.99233,7.68056 6.99413,7.68332 6.99539,7.68692 6.99615,7.6913 6.99642,7.69641 6.99622,7.7022 6.99558,7.70862 6.99452,7.71562 6.99307,7.72315 6.99125,7.73115 6.98908,7.73957 6.98658,7.74837 6.98378,7.75749 6.98069,7.76688 6.97735,7.77649 6.97378,7.78626 6.96999,7.79615 3.18372,4.00988 3.18751,3.99999 3.19109,3.99022 3.19443,3.98061 3.19751,3.97122 3.20031,3.9621 3.20281,3.9533 3.20498,3.94488 3.20681,3.93687 3.20826,3.92935 3.20931,3.92235 3.20995,3.91593 3.21015,3.91013 3.20988,3.90502 3.20913,3.90065 3.20786,3.89705 "/>
     <polygon id="_443281912" class="fil1" points="3.39539,4.17928 7.18165,7.96555 7.19415,7.97775 7.20644,7.99004 7.21856,8.0024 7.23048,8.01483 7.24223,8.02733 7.25379,8.03989 7.26517,8.05251 7.27638,8.06519 7.28741,8.0779 7.29828,8.09066 7.30896,8.10345 7.31949,8.11628 7.32985,8.12913 7.34004,8.142 7.35008,8.15488 7.35995,8.16777 7.36967,8.18067 3.58341,4.39439 3.57369,4.3815 3.56381,4.36861 3.55378,4.35572 3.54358,4.34285 3.53322,4.33001 3.5227,4.31718 3.51201,4.30439 3.50115,4.29163 3.49011,4.27891 3.47891,4.26624 3.46752,4.25362 3.45596,4.24106 3.44422,4.22856 3.43229,4.21613 3.42018,4.20376 3.40788,4.19148 "/>
     <polygon id="_443282320" class="fil1" points="3.35463,4.19571 7.1409,7.98198 7.12854,7.97022 7.11589,7.95848 7.10296,7.94676 7.08974,7.93506 7.07621,7.92336 7.06236,7.91167 7.04819,7.89998 7.03368,7.8883 7.01883,7.87661 7.00362,7.86491 6.98805,7.85321 6.9721,7.84149 6.95578,7.82975 3.16951,4.04348 3.18583,4.05522 3.20178,4.06694 3.21735,4.07864 3.23256,4.09034 3.24741,4.10203 3.26192,4.11371 3.27609,4.1254 3.28994,4.13709 3.30347,4.14878 3.3167,4.16049 3.32963,4.17221 3.34227,4.18395 "/>
     <polygon id="_443282032" class="fil1" points="3.02245,4.06776 6.80872,7.85403 6.79043,7.85689 6.77252,7.85931 6.75504,7.86131 6.73806,7.86289 6.72166,7.86406 6.7059,7.86484 6.69086,7.86524 6.6766,7.86527 6.66319,7.86493 6.6507,7.86425 6.63921,7.86322 6.62878,7.86187 6.61948,7.86019 6.61138,7.85822 6.60456,7.85594 6.59907,7.85338 6.59499,7.85054 2.80872,4.06427 2.8128,4.06711 2.81829,4.06967 2.82511,4.07194 2.83321,4.07392 2.84251,4.07559 2.85294,4.07695 2.86444,4.07798 2.87692,4.07866 2.89033,4.079 2.90459,4.07897 2.91963,4.07857 2.93539,4.07779 2.95179,4.07661 2.96877,4.07504 2.98625,4.07304 3.00417,4.07062 "/>
     <polygon id="_443282056" class="fil1" points="3.08776,4.08167 6.87402,7.86794 6.86449,7.87759 6.85482,7.88695 6.84507,7.89598 6.83531,7.90464 6.82561,7.9129 6.81601,7.92072 6.80659,7.92807 6.79741,7.93492 6.78852,7.94122 6.77999,7.94693 6.77188,7.95204 6.76426,7.95649 6.75718,7.96026 6.75071,7.9633 6.74491,7.96559 6.73983,7.96708 6.73556,7.96775 6.73214,7.96755 6.72963,7.96645 2.94336,4.18018 2.94587,4.18128 2.94929,4.18148 2.95357,4.18081 2.95864,4.17932 2.96444,4.17703 2.97091,4.17399 2.97799,4.17022 2.98561,4.16577 2.99372,4.16066 3.00225,4.15494 3.01114,4.14865 3.02032,4.1418 3.02974,4.13445 3.03934,4.12663 3.04905,4.11837 3.0588,4.10971 3.06855,4.10068 3.07822,4.09132 "/>
     <polygon id="_443282152" class="fil1" points="2.31716,3.68651 6.10343,7.47278 6.09568,7.47268 2.30941,3.68641 "/>
     <polygon id="_443282488" class="fil1" points="2.30941,3.68641 6.09568,7.47268 6.10022,7.50411 6.1051,7.53507 6.11031,7.56559 6.11585,7.59568 6.1217,7.62535 6.12788,7.65465 6.13436,7.68357 6.14116,7.71215 6.14825,7.74041 6.15564,7.76836 6.16333,7.79603 6.1713,7.82343 6.17955,7.85059 6.18808,7.87753 6.19688,7.90427 6.20595,7.93083 6.21528,7.95722 6.22487,7.98348 6.23471,8.00962 6.2448,8.03566 6.25513,8.06162 6.2657,8.08752 6.2765,8.11339 6.28753,8.13924 6.29878,8.16509 6.31025,8.19097 6.32194,8.2169 6.33383,8.24289 6.34592,8.26897 6.35821,8.29515 6.3707,8.32147 6.38337,8.34793 2.59711,4.56166 2.58443,4.5352 2.57194,4.50888 2.55965,4.4827 2.54756,4.45662 2.53567,4.43063 2.52398,4.4047 2.51252,4.37882 2.50126,4.35296 2.49023,4.32711 2.47943,4.30125 2.46886,4.27535 2.45853,4.24939 2.44844,4.22335 2.4386,4.19721 2.42901,4.17095 2.41968,4.14456 2.41061,4.118 2.40181,4.09126 2.39328,4.06432 2.38503,4.03716 2.37706,4.00976 2.36937,3.98209 2.36198,3.95414 2.35489,3.92588 2.34809,3.8973 2.34161,3.86838 2.33544,3.83908 2.32958,3.80941 2.32404,3.77932 2.31883,3.7488 2.31395,3.71784 "/>
     <polygon id="_443283112" class="fil1" points="2.59711,4.56166 6.38337,8.34793 6.38601,8.35054 6.3886,8.35315 6.39116,8.35576 6.39368,8.35837 6.39616,8.36097 6.3986,8.36358 6.401,8.36619 6.40337,8.36879 2.6171,4.58252 2.61474,4.57991 2.61233,4.57731 2.60989,4.5747 2.60741,4.57209 2.60489,4.56948 2.60233,4.56688 2.59974,4.56427 "/>
     <polygon id="_443283328" class="fil1" points="2.85342,4.43489 6.63969,8.22117 6.63477,8.22759 6.62982,8.2341 6.62483,8.24071 6.61982,8.24741 6.61479,8.25419 6.60974,8.26105 6.6047,8.26798 6.59965,8.275 6.59461,8.28208 6.58959,8.28923 6.58459,8.29645 6.57962,8.30372 6.57469,8.31106 6.5698,8.31845 6.56496,8.32589 6.56019,8.33337 6.55548,8.34091 6.55083,8.34848 6.54628,8.35609 6.5418,8.36373 6.53742,8.37141 6.53314,8.37911 6.52897,8.38683 6.52491,8.39458 6.52097,8.40234 6.51717,8.41012 6.5135,8.41791 6.50997,8.4257 6.50659,8.4335 6.50337,8.44131 6.50031,8.44911 6.49743,8.4569 2.71116,4.67063 2.71404,4.66283 2.7171,4.65504 2.72032,4.64723 2.7237,4.63943 2.72723,4.63164 2.7309,4.62385 2.7347,4.61607 2.73864,4.60831 2.7427,4.60056 2.74687,4.59283 2.75115,4.58513 2.75553,4.57746 2.76001,4.56981 2.76457,4.5622 2.76921,4.55463 2.77392,4.5471 2.7787,4.53961 2.78353,4.53218 2.78842,4.52479 2.79335,4.51745 2.79832,4.51018 2.80332,4.50296 2.80834,4.49581 2.81338,4.48873 2.81843,4.48171 2.82348,4.47478 2.82852,4.46791 2.83355,4.46113 2.83857,4.45444 2.84355,4.44783 2.8485,4.44131 "/>
     <polygon id="_443283376" class="fil1" points="2.92952,4.52213 6.71578,8.3084 6.71552,8.30874 6.71475,8.30975 6.71351,8.3114 6.71181,8.31368 6.7097,8.31655 6.70719,8.32001 6.70431,8.32402 6.7011,8.32857 6.69758,8.33363 6.69378,8.33918 6.68973,8.3452 6.68546,8.35167 6.68098,8.35856 6.67635,8.36586 6.67157,8.37354 6.66668,8.38158 6.66171,8.38995 6.65669,8.39865 6.65163,8.40763 6.64658,8.41689 6.64156,8.4264 6.6366,8.43613 6.63172,8.44608 6.62696,8.4562 6.62234,8.46649 6.6179,8.47692 6.61365,8.48747 6.60963,8.49811 6.60586,8.50883 6.60238,8.51961 6.59921,8.53041 6.59638,8.54122 2.81011,4.75495 2.81294,4.74414 2.81611,4.73333 2.81959,4.72256 2.82336,4.71184 2.82738,4.7012 2.83163,4.69065 2.83607,4.68022 2.84069,4.66993 2.84546,4.65981 2.85033,4.64986 2.8553,4.64013 2.86031,4.63062 2.86537,4.62136 2.87042,4.61237 2.87544,4.60368 2.88041,4.59531 2.8853,4.58727 2.89008,4.57959 2.89472,4.57229 2.89919,4.5654 2.90346,4.55893 2.90752,4.55291 2.91131,4.54735 2.91483,4.5423 2.91804,4.53775 2.92092,4.53374 2.92343,4.53028 2.92554,4.52741 2.92724,4.52513 2.92848,4.52348 2.92925,4.52247 "/>
     <polygon id="_443283400" class="fil1" points="2.9268,4.68623 6.71307,8.4725 6.71285,8.47278 6.71222,8.47361 6.71119,8.47496 6.70979,8.47684 6.70804,8.47921 6.70595,8.48206 6.70355,8.48539 6.70086,8.48915 6.6979,8.49336 6.69469,8.49798 6.69125,8.503 6.68761,8.50841 6.68378,8.51419 6.67978,8.52032 6.67563,8.52679 6.67137,8.53357 6.667,8.54067 6.66255,8.54804 6.65804,8.55569 6.65348,8.5636 6.64891,8.57174 6.64434,8.58011 6.63979,8.58868 6.63529,8.59744 6.63085,8.60638 6.62649,8.61547 6.62224,8.62471 6.61812,8.63407 6.61414,8.64354 6.61033,8.6531 6.60672,8.66274 6.60331,8.67244 2.81704,4.88617 2.82045,4.87647 2.82407,4.86683 2.82787,4.85727 2.83185,4.8478 2.83597,4.83844 2.84022,4.8292 2.84458,4.82011 2.84902,4.81117 2.85352,4.80241 2.85807,4.79383 2.86264,4.78547 2.86722,4.77733 2.87177,4.76942 2.87628,4.76177 2.88073,4.75439 2.8851,4.7473 2.88937,4.74052 2.89351,4.73405 2.89751,4.72792 2.90134,4.72214 2.90498,4.71673 2.90842,4.71171 2.91163,4.70709 2.91459,4.70288 2.91728,4.69911 2.91968,4.69579 2.92177,4.69294 2.92352,4.69057 2.92493,4.68869 2.92595,4.68733 2.92658,4.68651 "/>
     <polygon id="_443282656" class="fil1" points="2.81704,4.88617 6.60331,8.67244 6.60344,8.67269 6.60357,8.67294 6.6037,8.67319 6.60383,8.67344 6.60396,8.67369 6.6041,8.67394 6.60423,8.67419 6.60436,8.67444 2.81809,4.88817 2.81796,4.88792 2.81783,4.88767 2.8177,4.88742 2.81757,4.88717 2.81743,4.88692 2.8173,4.88667 2.81717,4.88642 "/>
     <polygon id="_443283304" class="fil1" points="2.81809,4.88817 6.60436,8.67444 6.60264,8.67444 2.81637,4.88817 "/>
     <polygon id="_443283232" class="fil1" points="2.81637,4.88817 6.60264,8.67444 6.60085,8.67991 6.59915,8.68539 6.59752,8.69087 6.59598,8.69637 6.59453,8.70186 6.59317,8.70735 6.59191,8.71284 6.59075,8.71832 6.58969,8.72379 6.58874,8.72924 6.5879,8.73469 6.58718,8.74011 6.58657,8.74551 6.58609,8.75088 6.58573,8.75623 6.5855,8.76155 2.79924,4.97528 2.79946,4.96996 2.79982,4.96461 2.8003,4.95924 2.80091,4.95383 2.80163,4.94841 2.80247,4.94297 2.80342,4.93752 2.80448,4.93205 2.80564,4.92657 2.80691,4.92108 2.80826,4.91559 2.80971,4.91009 2.81126,4.9046 2.81288,4.89912 2.81459,4.89364 "/>
     <polygon id="_443283352" class="fil1" points="2.79924,4.97528 6.5855,8.76155 6.58593,8.76243 6.58635,8.76332 6.58678,8.7642 6.5872,8.76509 6.58762,8.76598 6.58805,8.76687 6.58847,8.76775 6.58889,8.76864 2.80263,4.98237 2.8022,4.98148 2.80178,4.98059 2.80135,4.9797 2.80093,4.97882 2.80051,4.97793 2.80008,4.97705 2.79966,4.97616 "/>
     <polygon id="_443282896" class="fil1" points="3.16638,4.05075 6.95265,7.83702 6.9474,7.84826 6.94205,7.85922 6.93665,7.86981 6.93123,7.87997 6.92583,7.8896 6.92048,7.89862 6.91522,7.90696 6.91008,7.91454 6.90511,7.92126 6.90033,7.92706 6.89578,7.93185 6.89151,7.93556 6.88754,7.93808 6.88391,7.93936 6.88066,7.93931 6.87783,7.93784 3.09156,4.15157 3.09439,4.15304 3.09765,4.15309 3.10127,4.15181 3.10524,4.14928 3.10952,4.14558 3.11406,4.14079 3.11884,4.13499 3.12381,4.12826 3.12895,4.12069 3.13421,4.11235 3.13956,4.10333 3.14496,4.0937 3.15038,4.08354 3.15578,4.07294 3.16113,4.06199 "/>
     <polygon id="_443282968" class="fil1" points="3.16951,4.04348 6.95578,7.82975 6.95265,7.83702 3.16638,4.05075 "/>
     <polygon id="_443283064" class="fil1" points="3.39574,3.68556 7.18201,7.47183 7.1799,7.4718 3.39363,3.68553 "/>
     <polygon id="_443284024" class="fil1" points="3.96938,4.88617 7.75565,8.67244 7.75578,8.67269 7.75591,8.67294 7.75604,8.67319 7.75617,8.67344 7.7563,8.67369 7.75643,8.67394 7.75656,8.67419 7.7567,8.67444 3.97043,4.88817 3.9703,4.88792 3.97016,4.88767 3.97003,4.88742 3.9699,4.88717 3.96977,4.88692 3.96964,4.88667 3.96951,4.88642 "/>
     <polygon id="_443283592" class="fil1" points="3.09156,4.15157 6.87783,7.93784 6.87658,7.93728 3.09031,4.15101 "/>
     <polygon id="_443283616" class="fil1" points="3.97043,4.88817 7.7567,8.67444 7.75497,8.67444 3.9687,4.88817 "/>
     <polygon id="_443283832" class="fil1" points="3.9687,4.88817 7.75497,8.67444 7.7537,8.6783 7.75247,8.68217 7.75128,8.68605 7.75013,8.68992 7.74902,8.6938 7.74796,8.69769 7.74694,8.70157 7.74596,8.70544 7.74504,8.70932 7.74416,8.7132 7.74333,8.71707 7.74256,8.72094 7.74184,8.7248 7.74117,8.72866 7.74056,8.7325 7.74,8.73634 3.95373,4.95007 3.95429,4.94623 3.9549,4.94239 3.95557,4.93853 3.95629,4.93467 3.95707,4.9308 3.95789,4.92693 3.95877,4.92305 3.9597,4.91917 3.96067,4.9153 3.96169,4.91141 3.96276,4.90753 3.96386,4.90365 3.96501,4.89978 3.9662,4.8959 3.96744,4.89203 "/>
     <polygon id="_443284144" class="fil1" points="3.5938,4.61051 7.38007,8.39678 7.38555,8.40198 7.39083,8.40717 7.39593,8.41235 7.40083,8.41754 7.40554,8.42271 7.41008,8.42788 7.41443,8.43304 7.41861,8.43818 7.42262,8.44331 7.42645,8.44843 7.43012,8.45353 7.43363,8.45861 3.64736,4.67234 3.64385,4.66726 3.64019,4.66216 3.63635,4.65704 3.63234,4.65191 3.62817,4.64676 3.62381,4.64161 3.61928,4.63644 3.61456,4.63126 3.60966,4.62608 3.60456,4.62089 3.59928,4.6157 "/>
     <polygon id="_443283448" class="fil1" points="3.27156,3.56551 7.05782,7.35178 7.02895,7.34086 7.00103,7.32964 6.97414,7.31819 6.94837,7.30657 6.9238,7.29488 6.90052,7.28318 6.87862,7.27154 6.85818,7.26005 6.83928,7.24876 6.82202,7.23777 6.80648,7.22714 6.79274,7.21694 6.78089,7.20725 6.77102,7.19815 2.98475,3.41188 2.99463,3.42098 3.00647,3.43067 3.02021,3.44087 3.03575,3.4515 3.05301,3.46249 3.07191,3.47378 3.09235,3.48527 3.11425,3.49691 3.13753,3.50861 3.1621,3.5203 3.18787,3.53191 3.21476,3.54337 3.24269,3.55459 "/>
     <polygon id="_443283520" class="fil1" points="3.39363,3.68553 7.1799,7.4718 7.16851,7.47135 7.15719,7.47081 7.14596,7.47019 7.13483,7.46949 7.12382,7.46871 7.11294,7.46785 7.10222,7.46691 7.09166,7.46589 7.08129,7.46478 7.07112,7.46359 7.06117,7.46233 7.05144,7.46098 7.04197,7.45955 7.03276,7.45804 7.02383,7.45644 7.0152,7.45477 7.00689,7.45301 6.99891,7.45118 6.99127,7.44926 6.984,7.44726 6.9771,7.44518 6.97061,7.44302 6.96452,7.44077 6.95886,7.43844 6.95364,7.43604 6.94889,7.43355 6.94461,7.43098 6.94083,7.42833 6.93756,7.42559 3.15129,3.63932 3.15456,3.64206 3.15834,3.64471 3.16262,3.64728 3.16737,3.64977 3.17259,3.65217 3.17825,3.6545 3.18434,3.65674 3.19083,3.65891 3.19773,3.66099 3.205,3.66299 3.21264,3.66491 3.22063,3.66674 3.22894,3.6685 3.23757,3.67017 3.24649,3.67176 3.2557,3.67328 3.26517,3.6747 3.2749,3.67606 3.28485,3.67732 3.29502,3.67851 3.30539,3.67961 3.31595,3.68064 3.32668,3.68158 3.33755,3.68244 3.34856,3.68322 3.35969,3.68392 3.37092,3.68454 3.38224,3.68507 "/>
     <polygon id="_443283736" class="fil1" points="3.46174,3.68641 7.24801,7.47268 7.25256,7.50411 7.25743,7.53507 7.26264,7.56559 7.26818,7.59568 7.27404,7.62535 7.28021,7.65465 7.2867,7.68357 7.29349,7.71215 7.30058,7.74041 7.30798,7.76836 7.31566,7.79603 7.32363,7.82343 7.33188,7.85059 7.34041,7.87753 7.34921,7.90427 7.35828,7.93083 7.36761,7.95722 7.3772,7.98348 7.38704,8.00962 7.39713,8.03566 7.40746,8.06162 7.41804,8.08752 7.42883,8.11339 7.43987,8.13924 7.45112,8.16509 7.46259,8.19097 7.47427,8.2169 7.48616,8.24289 7.49826,8.26897 7.51055,8.29515 7.52304,8.32147 7.53571,8.34793 3.74944,4.56166 3.73677,4.5352 3.72428,4.50888 3.71199,4.4827 3.69989,4.45662 3.688,4.43063 3.67632,4.4047 3.66485,4.37882 3.6536,4.35296 3.64257,4.32711 3.63177,4.30125 3.6212,4.27535 3.61087,4.24939 3.60078,4.22335 3.59094,4.19721 3.58135,4.17095 3.57202,4.14456 3.56294,4.118 3.55415,4.09126 3.54561,4.06432 3.53736,4.03716 3.52939,4.00976 3.52171,3.98209 3.51431,3.95414 3.50722,3.92588 3.50043,3.8973 3.49394,3.86838 3.48777,3.83908 3.48191,3.80941 3.47637,3.77932 3.47117,3.7488 3.46629,3.71784 "/>
     <polygon id="_443283640" class="fil1" points="4.00575,4.43489 7.79202,8.22117 7.78711,8.22759 7.78215,8.2341 7.77717,8.24071 7.77215,8.24741 7.76712,8.25419 7.76208,8.26105 7.75703,8.26798 7.75198,8.275 7.74694,8.28208 7.74193,8.28923 7.73693,8.29645 7.73196,8.30372 7.72702,8.31106 7.72214,8.31845 7.7173,8.32589 7.71252,8.33337 7.70781,8.34091 7.70317,8.34848 7.69861,8.35609 7.69414,8.36373 7.68976,8.37141 7.68548,8.37911 7.6813,8.38683 7.67725,8.39458 7.67331,8.40234 7.6695,8.41012 7.66583,8.41791 7.66231,8.4257 7.65893,8.4335 7.65571,8.44131 7.65265,8.44911 7.64976,8.4569 3.8635,4.67063 3.86638,4.66283 3.86944,4.65504 3.87266,4.64723 3.87604,4.63943 3.87957,4.63164 3.88324,4.62385 3.88704,4.61607 3.89098,4.60831 3.89504,4.60056 3.89921,4.59283 3.90349,4.58513 3.90787,4.57746 3.91234,4.56981 3.91691,4.5622 3.92154,4.55463 3.92626,4.5471 3.93104,4.53961 3.93587,4.53218 3.94076,4.52479 3.94569,4.51745 3.95066,4.51018 3.95566,4.50296 3.96068,4.49581 3.96572,4.48873 3.97076,4.48171 3.97581,4.47478 3.98085,4.46791 3.98589,4.46113 3.9909,4.45444 3.99589,4.44783 4.00084,4.44131 "/>
     <polygon id="_443283784" class="fil1" points="4.08185,4.52213 7.86811,8.3084 7.86785,8.30874 7.86708,8.30975 7.86584,8.3114 7.86414,8.31368 7.86203,8.31655 7.85952,8.32001 7.85664,8.32402 7.85343,8.32857 7.84991,8.33363 7.84611,8.33918 7.84206,8.3452 7.83779,8.35167 7.83331,8.35856 7.82868,8.36586 7.8239,8.37354 7.81901,8.38158 7.81404,8.38995 7.80902,8.39865 7.80396,8.40763 7.79891,8.41689 7.79389,8.4264 7.78893,8.43613 7.78406,8.44608 7.7793,8.4562 7.77468,8.46649 7.77023,8.47692 7.76598,8.48747 7.76196,8.49811 7.7582,8.50883 7.75471,8.51961 7.75155,8.53041 7.74872,8.54122 3.96245,4.75495 3.96528,4.74414 3.96844,4.73333 3.97193,4.72256 3.97569,4.71184 3.97971,4.7012 3.98396,4.69065 3.98841,4.68022 3.99303,4.66993 3.99779,4.65981 4.00267,4.64986 4.00763,4.64013 4.01265,4.63062 4.0177,4.62136 4.02275,4.61237 4.02778,4.60368 4.03274,4.59531 4.03763,4.58727 4.04241,4.57959 4.04705,4.57229 4.05152,4.5654 4.0558,4.55893 4.05985,4.55291 4.06365,4.54735 4.06717,4.5423 4.07037,4.53775 4.07325,4.53374 4.07576,4.53028 4.07787,4.52741 4.07957,4.52513 4.08081,4.52348 4.08158,4.52247 "/>
     <polygon id="_443283976" class="fil1" points="3.74944,4.56166 7.53571,8.34793 7.53834,8.35054 7.54094,8.35315 7.54349,8.35576 7.54601,8.35837 7.54849,8.36097 7.55093,8.36358 7.55334,8.36619 7.5557,8.36879 3.76944,4.58252 3.76707,4.57991 3.76467,4.57731 3.76222,4.5747 3.75974,4.57209 3.75722,4.56948 3.75467,4.56688 3.75207,4.56427 "/>
     <polygon id="_443284888" class="fil1" points="4.07913,4.68623 7.8654,8.4725 7.86518,8.47278 7.86455,8.47361 7.86352,8.47496 7.86212,8.47684 7.86037,8.47921 7.85828,8.48206 7.85588,8.48539 7.85319,8.48915 7.85023,8.49336 7.84702,8.49798 7.84358,8.503 7.83994,8.50841 7.83611,8.51419 7.83211,8.52032 7.82796,8.52679 7.8237,8.53357 7.81933,8.54067 7.81488,8.54804 7.81037,8.55569 7.80581,8.5636 7.80124,8.57174 7.79667,8.58011 7.79213,8.58868 7.78762,8.59744 7.78318,8.60638 7.77882,8.61547 7.77457,8.62471 7.77045,8.63407 7.76648,8.64354 7.76267,8.6531 7.75905,8.66274 7.75565,8.67244 3.96938,4.88617 3.97278,4.87647 3.9764,4.86683 3.98021,4.85727 3.98419,4.8478 3.98831,4.83844 3.99256,4.8292 3.99691,4.82011 4.00135,4.81117 4.00586,4.80241 4.01041,4.79383 4.01498,4.78547 4.01955,4.77733 4.0241,4.76942 4.02861,4.76177 4.03306,4.75439 4.03743,4.7473 4.0417,4.74052 4.04584,4.73405 4.04984,4.72792 4.05367,4.72214 4.05731,4.71673 4.06075,4.71171 4.06396,4.70709 4.06692,4.70288 4.06961,4.69911 4.07201,4.69579 4.0741,4.69294 4.07585,4.69057 4.07726,4.68869 4.07828,4.68733 4.07891,4.68651 "/>
     <polygon id="_443284576" class="fil1" points="5.2727,5.26086 9.05897,9.04713 5.33293,9.04713 1.54667,5.26086 "/>
     <polygon id="_443284456" class="fil1" points="5.19815,4.24037 8.98442,8.02664 8.94939,8.03889 8.91315,8.04922 8.87583,8.05767 8.83754,8.06427 8.79837,8.06905 8.75846,8.07205 8.7179,8.0733 8.6768,8.07283 8.63529,8.07069 8.59346,8.0669 8.55144,8.06149 8.50932,8.05451 8.46722,8.04598 8.42526,8.03593 8.38355,8.02441 8.34218,8.01145 8.30128,7.99707 8.26096,7.98132 8.22132,7.96422 8.18248,7.94582 8.14456,7.92614 8.10764,7.90522 8.07186,7.88309 8.03732,7.8598 8.00413,7.83535 7.97241,7.80981 7.94226,7.78319 7.9138,7.75553 4.12753,3.96926 4.15599,3.99692 4.18615,4.02354 4.21787,4.04908 4.25106,4.07352 4.28559,4.09682 4.32137,4.11895 4.35829,4.13987 4.39622,4.15955 4.43506,4.17795 4.47469,4.19505 4.51502,4.2108 4.55591,4.22518 4.59728,4.23814 4.639,4.24966 4.68096,4.2597 4.72305,4.26824 4.76517,4.27522 4.80719,4.28063 4.84902,4.28442 4.89054,4.28656 4.93163,4.28703 4.97219,4.28578 5.01211,4.28278 5.05127,4.278 5.08956,4.2714 5.12689,4.26295 5.16312,4.25262 "/>
     <polygon id="_443284480" class="fil1" points="3.71519,3.62129 7.50146,7.40756 7.5031,7.40931 7.50441,7.41098 7.50535,7.41259 7.50593,7.41411 7.50613,7.41555 7.50594,7.41691 3.71967,3.63063 3.71987,3.62928 3.71967,3.62784 3.71908,3.62631 3.71814,3.62471 3.71683,3.62304 "/>
     <polygon id="_443284288" class="fil1" points="5.2727,5.06028 9.05897,8.84655 9.05897,9.04713 5.2727,5.26086 "/>
    </g>
    <path id="_457199192" class="fil1" d="M4.75332 3.03306l0 0zm-2.19722 -1.20257l0 0zm1.50593 1.15617l0.374846 0.362839 0.316433 -0.316441c0.0201732,-0.0201732 0.0518307,-0.0218622 0.0739291,-0.0050748 0.00641732,0.00418504 0.0115315,0.00731102 0.0162402,0.0101929 0.226685,0.138642 0.358181,0.40889 0.410744,0.660606 0.0358504,0.171709 0.038937,0.356232 -0.0206496,0.508303l7.87402e-005 8.66142e-005c-0.00646457,0.0164921 -0.0198386,0.0282283 -0.0355039,0.0331929 -0.366925,0.14102 -0.95724,-0.0510472 -1.16543,-0.391437 -0.00331102,-0.00541339 -0.00694882,-0.0113622 -0.0121535,-0.0192126l-9.84252e-005 6.69291e-005c-0.0153268,-0.0231299 -0.0113543,-0.053437 0.00805512,-0.0719331l0.30572 -0.30572 -0.373146 -0.361201c-0.0140472,-0.0135945 -0.0213937,-0.0316063 -0.0219685,-0.049815l-1.07756 -1.07506c-0.00225591,-0.00225591 -0.00427953,-0.00465354 -0.00607087,-0.00716535 -0.0152913,-0.0214252 -0.0137913,-0.0511417 0.00449606,-0.070937 -0.0380236,0.00387008 -0.0766417,0.000149606 -0.113382,-0.011122 -0.0416457,-0.0127756 -0.0809409,-0.0352795 -0.114315,-0.0674528l0.164366 -0.159205c0.031,0.0342598 0.0522087,0.074248 0.0636732,0.116378 0.0101811,0.0374016 0.0126811,0.0763386 0.00753937,0.114319 0.0210197,-0.0156102 0.0504409,-0.0147087 0.0704921,0.00270079 0.00100394,0.000874016 0.00198425,0.0017874 0.00294094,0.00274409l1.08377 1.08126c0.0134921,0.00252756 0.0264016,0.00887795 0.0369449,0.0190866zm-0.441319 0.445472c0.474154,-0.168878 0.250118,0.0320906 -0.0282717,0.133378 0.0666339,0.021622 0.131402,0.0511496 0.127228,0.065122 0.0102992,0.0357835 -0.114248,0.054437 -0.250181,0.055874l-0.00774803 -9.84252e-005c0.0466378,0.33785 0.15152,0.592122 0.287697,0.875248 0.0070748,0.00696063 0.0137323,0.0139173 0.0199961,0.0208583 0.0638189,-0.0661732 0.142661,-0.103524 0.236315,-0.147622 -0.0521614,0.0679882 -0.112409,0.152657 -0.142256,0.235732 0.0119291,-0.00727559 0.0242087,-0.0142559 0.0368465,-0.021063 0.0385315,-0.043189 0.0961496,-0.0872402 0.181504,-0.127433 0,0 -0.0911378,0.117528 -0.119398,0.232819 0.0315236,-0.0235472 0.0699449,-0.0467126 0.116681,-0.0687205 0,0 -0.0746102,0.0962205 -0.109752,0.199937 0.000346457,0.000669291 0.000692913,0.00133465 0.00105118,0.002l-0.00172441 0c-0.00687008,0.0205945 -0.0121575,0.0414606 -0.0149724,0.0619055 0.48687,0.0100591 0.937429,0.0493425 1.31897,0.110205l0 0.200587 -3.72604 0 0 -0.0735866c0.233445,-0.0672402 0.524138,-0.123346 0.854929,-0.164339 0.0487244,-0.133705 -0.118724,-0.349571 -0.118724,-0.349571 0.0500433,0.0235512 0.0905512,0.0484252 0.123272,0.0736772 -0.0059252,-0.025878 -0.0151417,-0.0519528 -0.0258937,-0.0768701 -0.010185,-0.0130827 -0.016622,-0.0206024 -0.0167283,-0.0207283l-0.0352874 -0.0415984 0.0275394 0.0117323c-0.0338819,-0.0635118 -0.070185,-0.110311 -0.070185,-0.110311 0.109098,0.0513425 0.17289,0.108984 0.209441,0.163075 -0.0434606,-0.119902 -0.128406,-0.229508 -0.128795,-0.230016l-0.0352835 -0.0459606 0.0608031 0.028622c0.00184252,0.000870079 0.00367717,0.00173622 0.0055,0.00261024 -0.0946024,-0.13702 -0.203843,-0.258827 -0.380079,-0.384114l-0.00312205 0.00726772c-0.0277165,0.0605394 -0.0608661,0.112555 -0.0748268,0.100819 -0.00708268,-0.000913386 -0.00739764,-0.0357756 -0.00380315,-0.0698976 -0.100764,0.104394 -0.235299,0.164614 -0.0653071,-0.0139134 -0.196713,0.0328661 -0.342882,-0.0107441 -0.0584252,-0.0715827 -0.0937402,-0.0437677 -0.202638,-0.116343 -0.191669,-0.140976 0.0109764,-0.0246654 0.137764,0.00770472 0.233028,0.0480551 -0.144957,-0.251736 -0.0157717,-0.173094 0.092311,-0.00454724 0.0178346,-0.233213 0.0649646,-0.12335 0.0539685,0.0393819 0.0229331,-0.0254764 0.049063,-0.0486181 0.0544094,-0.0437992 0.0110394,0.0123976 -0.00162992,0.062626 -0.0223465,0.115591 0.167681,0.10913 0.296831,0.246957 0.399681,0.384512 -0.0838858,-0.212665 -0.155803,-0.450634 -0.187661,-0.708835l-0.00211417 -2.75591e-005c-0.121795,-0.00442913 -0.234398,-0.0226969 -0.248949,-0.0548976 -0.00455118,-0.0139724 0.060315,-0.0435 0.126874,-0.065122 -0.312681,-0.114602 -0.478488,-0.293724 -0.0286535,-0.133378 -0.224669,-0.341547 -0.264098,-0.647815 0.085126,-0.168413 0.0038189,-0.211197 0.0487008,-0.474583 0.103831,-0.474583 0.0550551,0 0.10002,0.263386 0.103839,0.474583 0.349654,-0.480098 0.309642,-0.17124 0.0850197,0.168413 0.474154,-0.168878 0.250118,0.0320906 -0.0282717,0.133378 0.0666378,0.021622 0.131402,0.0511496 0.127228,0.065122 0.0102992,0.0357835 -0.114248,0.054437 -0.250177,0.055874l-0.00775197 -9.84252e-005c0.0466417,0.33785 0.15152,0.592122 0.287697,0.875248 0.0070748,0.00696063 0.0137323,0.0139173 0.0199961,0.0208583 0.0638189,-0.0661732 0.142665,-0.103524 0.236315,-0.147622 -0.0521614,0.0679882 -0.112413,0.152657 -0.14226,0.235732 0.0119291,-0.00727559 0.0242126,-0.0142559 0.0368504,-0.021063 0.0385354,-0.043189 0.0961535,-0.0872402 0.181508,-0.127433 0,0 -0.0911378,0.117528 -0.119402,0.232819 0.0315276,-0.0235472 0.0699488,-0.0467126 0.116685,-0.0687205 0,0 -0.0746102,0.0962205 -0.109756,0.199937 0.000346457,0.000669291 0.00069685,0.00133465 0.00105118,0.002l-0.00172047 0c-0.00972441,0.0291457 -0.0162795,0.0588346 -0.0171378,0.0871102 0.00112992,0.00235827 0.00225984,0.00472441 0.00338976,0.00709449 0.239858,-0.0191614 0.494634,-0.0308937 0.759228,-0.0340157 -0.0117362,-0.12685 -0.12665,-0.274988 -0.12665,-0.274988 0.0500394,0.0235512 0.0905512,0.0484252 0.123272,0.0736772 -0.00592913,-0.025878 -0.0151417,-0.0519528 -0.0258937,-0.0768701 -0.010189,-0.0130827 -0.016626,-0.0206024 -0.0167323,-0.0207283l-0.0352835 -0.0415984 0.0275354 0.0117323c-0.033878,-0.0635118 -0.0701811,-0.110311 -0.0701811,-0.110311 0.109098,0.0513425 0.17289,0.108984 0.209441,0.163075 -0.0434606,-0.119902 -0.128406,-0.229508 -0.128795,-0.230016l-0.0352835 -0.0459606 0.0608031 0.028622c0.00184252,0.000870079 0.00367717,0.00173622 0.0055,0.00261024 -0.0946024,-0.13702 -0.203846,-0.258827 -0.380079,-0.384118l-0.00312598 0.00727165c-0.0277126,0.0605394 -0.0608622,0.112555 -0.0748228,0.100819 -0.00708268,-0.000913386 -0.00739764,-0.0357756 -0.00380315,-0.0698976 -0.100764,0.104394 -0.235303,0.164614 -0.0653071,-0.0139134 -0.196713,0.0328661 -0.342882,-0.0107441 -0.0584252,-0.0715827 -0.0937402,-0.0437677 -0.202638,-0.116343 -0.191673,-0.140976 0.0109803,-0.0246654 0.137768,0.00770472 0.233031,0.0480551 -0.144961,-0.251736 -0.0157717,-0.173094 0.0923071,-0.00454724 0.0178386,-0.233213 0.0649685,-0.12335 0.0539724,0.0393819 0.0229331,-0.0254764 0.049063,-0.0486181 0.0544055,-0.0437992 0.0110433,0.0123976 -0.00162598,0.0626299 -0.0223425,0.115591 0.167681,0.10913 0.296831,0.246961 0.399681,0.384512 -0.0838898,-0.212665 -0.155803,-0.450634 -0.187661,-0.708835l-0.00211417 -2.75591e-005c-0.121795,-0.00442913 -0.234398,-0.0226969 -0.248949,-0.0548976 -0.00455118,-0.0139724 0.060315,-0.0435 0.126874,-0.065122 -0.312681,-0.114602 -0.478488,-0.293724 -0.0286535,-0.133378 -0.224673,-0.341547 -0.264102,-0.647815 0.085122,-0.168413 0.0038189,-0.211197 0.0487047,-0.474583 0.103835,-0.474583 0.0550551,0 0.10002,0.263386 0.103839,0.474583 0.34965,-0.480098 0.309638,-0.17124 0.0850197,0.168413z"/>
   </g>
  </g>
  <path class="fil2" d="M3.41333 -3.93701e-006c1.88513,0 3.41333,1.5282 3.41333,3.41333 0,1.88513 -1.5282,3.41333 -3.41333,3.41333 -1.88513,0 -3.41333,-1.5282 -3.41333,-3.41333 0,-1.88513 1.5282,-3.41333 3.41333,-3.41333z"/>
  <path class="fil3" d="M2.66895 4.7703c-0.160173,-0.27737 -0.41263,-0.739177 -0.957488,-0.911618 0.597,0.314213 0.679362,0.558866 0.938508,0.980807l0.0189803 -0.069189z"/>
  <path class="fil3" d="M2.70595 4.9817c-0.240941,-0.475476 -0.65502,-1.2473 -0.399886,-2.16354 -0.104953,1.11783 0.161146,1.45511 0.513579,2.2l-0.113693 -0.0364646z"/>
  <path class="fil4" d="M2.56734 3.63063c0.00417323,-0.0139724 -0.0605906,-0.0435 -0.127228,-0.065122 0.27839,-0.101287 0.502429,-0.302256 0.0282717,-0.133378 0.224622,-0.339657 0.264634,-0.648512 -0.0850197,-0.168413 -0.0038189,-0.211197 -0.0487835,-0.474583 -0.103839,-0.474583 -0.055126,0 -0.100012,0.263386 -0.103835,0.474583 -0.34922,-0.479402 -0.309791,-0.173134 -0.0851181,0.168413 -0.449839,-0.160346 -0.284031,0.0187756 0.0286496,0.133378 -0.0665591,0.021622 -0.131425,0.0511496 -0.126874,0.065122 0.0145512,0.0322008 0.127154,0.0504685 0.248949,0.0548976l0.0758661 0.000976378c0.135929,-0.00143701 0.26048,-0.0200906 0.250177,-0.055874z"/>
  <path class="fil5" d="M2.59997 4.60142c0.0666535,-0.0782992 0.151228,-0.118394 0.253445,-0.166524 -0.077689,0.101256 -0.173311,0.239512 -0.159724,0.354409 -0.0160118,-0.067378 -0.0431969,-0.131272 -0.0937205,-0.187886z"/>
  <path class="fil6" d="M2.68316 4.88817l0.134933 0c-0.0705,-0.131433 0.111425,-0.366039 0.111425,-0.366039 -0.328083,0.15448 -0.246358,0.366039 -0.246358,0.366039z"/>
  <path class="fil7" d="M2.28559 4.50926c0,0 0.181882,0.234472 0.11137,0.366039l0.134988 0c0,0 0.0819094,-0.211555 -0.246358,-0.366039z"/>
  <path class="fil8" d="M2.50124 4.87793c0.0826929,-0.154701 -0.134382,-0.434787 -0.135004,-0.435598l-0.0352835 -0.0459646 0.0608031 0.028626c0.411531,0.193728 0.308551,0.460272 0.308268,0.461043l-0.0035748 0.00974803 -0.0138386 0 -0.164594 0 -0.0263189 0 0.00954331 -0.0178543z"/>
  <path class="fil9" d="M2.59726 4.76552c0.0666535,-0.0783031 0.151228,-0.118394 0.253445,-0.166524 -0.077689,0.101256 -0.173311,0.239512 -0.159724,0.354409 -0.0160118,-0.0673819 -0.0431969,-0.131272 -0.0937205,-0.187886z"/>
  <path class="fil10" d="M2.68044 5.05227l0.134933 0c-0.0705,-0.131429 0.111425,-0.366039 0.111425,-0.366039 -0.328083,0.154484 -0.246358,0.366039 -0.246358,0.366039z"/>
  <path class="fil11" d="M2.28287 4.67337c0,0 0.181882,0.234472 0.11137,0.366039l0.134988 0c0,0 0.0819094,-0.211555 -0.246358,-0.366039z"/>
  <path class="fil12" d="M2.49852 5.04372c0.0826929,-0.140024 -0.134382,-0.393539 -0.135004,-0.394272l-0.0352835 -0.0416024 0.0608031 0.0259055c0.411531,0.17535 0.308551,0.416606 0.308268,0.417307l-0.0035748 0.00882283 -0.0138386 0 -0.164594 0 -0.0263189 0 0.00954331 -0.0161614z"/>
  <path class="fil4" d="M1.93922 4.15157c-0.00708268,-0.000917323 -0.00739764,-0.0357756 -0.00379921,-0.0698976 -0.100764,0.104394 -0.235303,0.164614 -0.065311,-0.0139134 -0.196713,0.0328622 -0.342878,-0.0107441 -0.0584252,-0.0715827 -0.0937402,-0.0437677 -0.202638,-0.116343 -0.191673,-0.140976 0.0109803,-0.0246654 0.137772,0.00770472 0.233031,0.0480551 -0.144961,-0.251732 -0.0157717,-0.173098 0.0923071,-0.00454724 0.0178386,-0.233213 0.0649685,-0.12335 0.0539764,0.0393819 0.0229291,-0.0254764 0.0490591,-0.0486181 0.0544055,-0.0437992 0.0115079,0.0129213 -0.00274409,0.0669449 -0.0250157,0.122323l-0.0146732 0.0341417c-0.0277126,0.0605354 -0.0608622,0.112551 -0.0748228,0.100815z"/>
  <path class="fil3" d="M3.82128 4.7703c-0.160173,-0.27737 -0.41263,-0.739177 -0.957488,-0.911618 0.597,0.314213 0.679362,0.558866 0.938508,0.980807l0.0189803 -0.069189z"/>
  <path class="fil3" d="M3.85828 4.9817c-0.240937,-0.475476 -0.65502,-1.2473 -0.399882,-2.16354 -0.104953,1.11783 0.161146,1.45511 0.513579,2.2l-0.113697 -0.0364646z"/>
  <path class="fil4" d="M3.71967 3.63063c0.00417323,-0.0139724 -0.0605945,-0.0435 -0.127228,-0.065122 0.27839,-0.101287 0.502429,-0.302256 0.0282717,-0.133378 0.224622,-0.339657 0.264634,-0.648512 -0.0850197,-0.168413 -0.0038189,-0.211197 -0.0487835,-0.474583 -0.103839,-0.474583 -0.0551299,0 -0.100016,0.263386 -0.103835,0.474583 -0.349224,-0.479402 -0.309791,-0.173134 -0.085122,0.168413 -0.449835,-0.160346 -0.284028,0.0187756 0.0286535,0.133378 -0.0665591,0.021622 -0.131425,0.0511496 -0.126874,0.065122 0.0145512,0.0322008 0.127154,0.0504685 0.248949,0.0548976l0.0758622 0.000976378c0.135933,-0.00143701 0.26048,-0.0200906 0.250181,-0.055874z"/>
  <path class="fil5" d="M3.75231 4.60142c0.0666535,-0.0782992 0.151228,-0.118394 0.253445,-0.166524 -0.077689,0.101256 -0.173311,0.239512 -0.159724,0.354409 -0.0160157,-0.067378 -0.0431969,-0.131272 -0.0937205,-0.187886z"/>
  <path class="fil6" d="M3.83549 4.88817l0.134933 0c-0.0705,-0.131433 0.111421,-0.366039 0.111421,-0.366039 -0.328079,0.15448 -0.246354,0.366039 -0.246354,0.366039z"/>
  <path class="fil7" d="M3.43792 4.50926c0,0 0.181882,0.234472 0.11137,0.366039l0.134988 0c0,0 0.0819094,-0.211555 -0.246358,-0.366039z"/>
  <path class="fil8" d="M3.65357 4.87793c0.0826929,-0.154701 -0.134382,-0.434787 -0.135004,-0.435598l-0.0352835 -0.0459646 0.0608031 0.028626c0.411528,0.193728 0.308547,0.460272 0.308264,0.461043l-0.0035748 0.00974803 -0.0138346 0 -0.164594 0 -0.0263189 0 0.00954331 -0.0178543z"/>
  <path class="fil9" d="M3.74959 4.76552c0.0666575,-0.0783031 0.151232,-0.118394 0.253445,-0.166524 -0.077685,0.101256 -0.173307,0.239512 -0.15972,0.354409 -0.0160157,-0.0673819 -0.0431969,-0.131272 -0.0937244,-0.187886z"/>
  <path class="fil10" d="M3.83277 5.05227l0.134937 0c-0.0705,-0.131429 0.111421,-0.366039 0.111421,-0.366039 -0.328079,0.154484 -0.246358,0.366039 -0.246358,0.366039z"/>
  <path class="fil11" d="M3.4352 4.67337c0,0 0.181882,0.234472 0.11137,0.366039l0.134988 0c0,0 0.0819094,-0.211555 -0.246358,-0.366039z"/>
  <path class="fil12" d="M3.65085 5.04372c0.0826969,-0.140024 -0.134378,-0.393539 -0.135,-0.394272l-0.0352835 -0.0416024 0.0608031 0.0259055c0.411528,0.17535 0.308547,0.416606 0.308264,0.417307l-0.0035748 0.00882283 -0.0138346 0 -0.164594 0 -0.0263189 0 0.00953937 -0.0161614z"/>
  <path class="fil4" d="M3.09156 4.15157c-0.00708268,-0.000917323 -0.00739764,-0.0357756 -0.00380315,-0.0698976 -0.100764,0.104394 -0.235303,0.164614 -0.0653071,-0.0139134 -0.196713,0.0328622 -0.342882,-0.0107441 -0.0584252,-0.0715827 -0.0937402,-0.0437677 -0.202638,-0.116343 -0.191673,-0.140976 0.0109803,-0.0246654 0.137772,0.00770472 0.233031,0.0480551 -0.144961,-0.251732 -0.0157756,-0.173098 0.0923071,-0.00454724 0.0178386,-0.233213 0.0649646,-0.12335 0.0539724,0.0393819 0.0229331,-0.0254764 0.049063,-0.0486181 0.0544055,-0.0437992 0.0115118,0.0129213 -0.00274016,0.0669449 -0.0250118,0.122323l-0.0146732 0.0341417c-0.0277126,0.0605354 -0.0608661,0.112551 -0.0748228,0.100815z"/>
  <path class="fil13" d="M4.67038 3.77067c0.0220197,0.0220157 0.0577205,0.0220157 0.0797402,0 0.0220197,-0.0220197 0.0220197,-0.0577244 0,-0.0797402l-1.8088 -1.80461c-0.0220197,-0.0220197 -0.0577205,-0.0220197 -0.0797402,0 -0.0220197,0.0220157 -0.0220197,0.0577205 0,0.0797362l1.8088 1.80462z"/>
  <path class="fil14" d="M4.82724 3.02798c0.00641732,0.00418504 0.0115315,0.00731102 0.0162402,0.0101929 0.226685,0.138642 0.358181,0.40889 0.41074,0.660606 0.0358543,0.171709 0.038937,0.356232 -0.0206457,0.508303l7.87402e-005 8.66142e-005c-0.00646457,0.0164921 -0.0198346,0.0282283 -0.0355039,0.0331929 -0.366925,0.14102 -0.95724,-0.0510472 -1.16543,-0.391437 -0.00331102,-0.00541339 -0.00694882,-0.0113622 -0.0121496,-0.0192126l-0.000102362 6.69291e-005c-0.0153268,-0.0231299 -0.0113583,-0.053437 0.00805906,-0.0719331l0.724787 -0.724787 -3.93701e-006 -3.93701e-006c0.0201693,-0.0201732 0.0518268,-0.0218622 0.0739252,-0.0050748z"/>
  <path class="fil15" d="M4.06204 2.98666l0.388768 0.376319 -0.100929 0.104268 -0.388768 -0.376319c-0.0286732,-0.0277559 -0.0294252,-0.0739213 -0.00166929,-0.102598l0 0c0.0277559,-0.0286732 0.0739252,-0.0294252 0.102598,-0.00166929z"/>
  <path class="fil16" d="M4.23285 3.55655l0.315791 -0.313713c0.152807,0.170319 0.433457,0.496283 0.436031,0.706043 0.0023937,0.00264567 -0.0107205,0.0124016 -0.0144646,0.0135866 -0.125996,0.0484252 -0.553913,-0.23265 -0.737358,-0.405917z"/>
  <path class="fil17" d="M4.00717 3.01981c0.00853937,0 0.0154646,0.0069252 0.0154646,0.0154646 0,0.00854331 -0.0069252,0.0154685 -0.0154646,0.0154685 -0.00854331,0 -0.0154685,-0.0069252 -0.0154685,-0.0154685 0,-0.00853937 0.0069252,-0.0154646 0.0154685,-0.0154646z"/>
  <path class="fil18" d="M2.90112 1.95278c-0.0580157,0.0116142 -0.118346,0.00865748 -0.17515,-0.00876772 -0.055626,-0.017063 -0.107831,-0.0479882 -0.151118,-0.0926811 -0.00272835,-0.00281496 -0.00590945,-0.00625591 -0.00953937,-0.0103071 -0.0043189,-0.00482283 -0.00735433,-0.00830315 -0.0092126,-0.0105394l-3.14961e-005 2.3622e-005c-0.0124016,-0.0149528 -0.0103543,-0.037122 0.00455512,-0.0495551l0.211756 -0.20511 0.0245039 0.0251969 -0.0245197 -0.025315c0.0139803,-0.0135433 0.0362913,-0.013185 0.0498346,0.000795276l0.000255906 0.000275591c0.00304331,0.0027126 0.0057126,0.00516929 0.00798031,0.00733465 0.0032874,0.0031378 0.00659843,0.0064252 0.00990945,0.00984252 0.0434409,0.0448543 0.072752,0.0980512 0.0880157,0.154126 0.0157953,0.0580315 0.0165669,0.119394 0.00242126,0.177969l0.000114173 2.75591e-005c-0.0035315,0.0146142 -0.0157008,0.024878 -0.0297756,0.026685zm-0.1545 -0.0759528c0.0389882,0.0119606 0.0800827,0.0154173 0.120343,0.0103307 0.00632283,-0.0399606 0.00412992,-0.0811417 -0.00661024,-0.12061 -0.0114685,-0.0421299 -0.0326811,-0.0821181 -0.0636732,-0.116378l-0.164366 0.159205c0.0333701,0.0321732 0.0726654,0.0546772 0.114307,0.0674528z"/>
  <path class="fil19" d="M3.70491 4.94751c0.582031,0 1.12202,0.0416575 1.56779,0.112764l0 0.200587 -3.72604 0 0 -0.0735866c0.507555,-0.146189 1.2857,-0.239764 2.15825,-0.239764z"/>
 </g>
</svg>
