<?xml version="1.0" encoding="utf-8"?>
<!-- Generator: Adobe Illustrator 21.0.0, SVG Export Plug-In . SVG Version: 6.00 Build 0)  -->
<svg version="1.1" id="Layer_1" xmlns="http://www.w3.org/2000/svg" xmlns:xlink="http://www.w3.org/1999/xlink" x="0px" y="0px"
	 viewBox="0 0 512 512" style="enable-background:new 0 0 512 512;" xml:space="preserve">
<style type="text/css">
	.st0{fill:#71CCE0;}
	.st1{fill:#DFDFDF;}
	.st2{fill:#4A555F;}
	.st3{fill:#FFD452;}
	.st4{fill:#F58E6F;}
	.st5{fill:#FFFFFF;}
	.st6{fill:none;}
</style>
<g>
	<g>
		<g>
			<g>
				<path class="st0" d="M195.104,53.737H91.584c-18.076,0-32.769,14.715-32.769,32.769v78.658c0,9.35,4.007,18.27,10.988,24.474
					l42.895,38.198l3.619,3.232v59.958l-4.287,3.232l-13.164,9.953l12.625,8.359l13.207,8.769l-12.991,9.048L98.22,339.78
					l14.047,11.246l4.051,3.231v73.875l-4.352,3.231l-22.945,16.977l46.492,45.566l0.086,0.064l34.88-35.311V229.538l3.986-3.253
					l41.236-33.329c7.734-6.248,12.151-15.533,12.151-25.465V86.505C227.852,68.451,213.158,53.737,195.104,53.737z
					 M143.333,134.657c-14.995,0-27.146-12.151-27.146-27.146s12.151-27.167,27.146-27.167c14.995,0,27.167,12.172,27.167,27.167
					S158.328,134.657,143.333,134.657z"/>
			</g>
		</g>
	</g>
	<g>
		<g>
			<g>
				<path class="st2" d="M195.097,39.743H91.581c-25.787,0-46.766,20.979-46.766,46.766v78.666c0,13.335,5.712,26.066,15.67,34.93
					l41.828,37.235v46.72l-27.671,20.894l25.154,16.667l-24.959,17.393l27.476,21.971v60.086l-34.677,25.689l57.994,57.995h19.963
					l38.884-40.463V236.212l40.024-32.358c11.034-8.921,17.363-22.177,17.363-36.366V86.509
					C241.863,60.722,220.884,39.743,195.097,39.743z M235.4,167.488c0,12.228-5.454,23.653-14.963,31.342l-42.424,34.298v228.565
					l-35.173,36.6h-14.534l-50.799-50.799l31.269-23.165v-66.448l-23.146-18.508l25.664-17.886l-25.469-16.878l22.952-17.33v-52.838
					l-43.994-39.163c-8.582-7.639-13.504-18.611-13.504-30.103V86.509c0-22.224,18.08-40.303,40.303-40.303h103.516
					c22.223,0,40.303,18.079,40.303,40.303V167.488z"/>
			</g>
		</g>
	</g>
	<g>
		<g>
			<path class="st2" d="M140.985,223.936v274.357h-10.786V223.936h-6.463v277.588c0,1.784,1.447,3.232,3.232,3.232h17.249
				c1.785,0,3.232-1.448,3.232-3.232V223.936H140.985z"/>
		</g>
	</g>
	<g>
		<g>
			<path class="st2" d="M465.852,261.756l-32.707-113.334c-8.471-29.356-35.728-49.859-66.282-49.859H260.299v6.463h106.564
				c27.692,0,52.394,18.582,60.072,45.188l32.707,113.334c2.371,8.216,0.783,16.848-4.357,23.684
				c-5.142,6.833-12.995,10.753-21.547,10.753c-11.855,0-22.198-7.604-25.735-18.921l-28.764-92.045v106.152
				c0,0.802,0.111,1.599,0.291,2.217l38.623,166.554c2.978,10.412,0.946,21.342-5.574,29.989
				c-6.521,8.645-16.472,13.604-27.301,13.604c-15.305,0-28.853-10.299-32.899-24.847l-27.769-131.536
				c-1.05-3.783-4.395-6.326-8.322-6.326s-7.272,2.544-8.371,6.524l-27.672,131.14c-4.094,14.746-17.643,25.045-32.948,25.045
				c-10.83,0-20.781-4.959-27.301-13.606c-6.52-8.645-8.552-19.575-5.532-30.145l38.541-166.24c0.22-0.774,0.331-1.572,0.331-2.373
				V179.276h-6.463v113.896c0,0.202-0.028,0.404-0.125,0.757l-38.54,166.238c-3.54,12.379-1.125,25.375,6.629,35.655
				c7.752,10.28,19.584,16.177,32.46,16.177c18.197,0,34.307-12.245,39.224-29.977l27.672-131.14
				c0.399-1.437,1.598-1.593,2.094-1.593s1.696,0.156,2.046,1.395l27.769,131.535C350.97,499.755,367.08,512,385.277,512
				c12.876,0,24.708-5.895,32.46-16.177c7.753-10.28,10.169-23.276,6.671-35.498l-38.622-166.551
				c-0.057-0.198-0.085-0.4-0.085-0.602v-63.8l16.132,51.62c4.385,14.031,17.206,23.457,31.904,23.457
				c10.603,0,20.339-4.86,26.712-13.333C466.822,282.644,468.791,271.944,465.852,261.756z"/>
		</g>
	</g>
	<g>
		<g>
			<path class="st1" d="M452.397,265.638l-32.708-113.333c-6.751-23.396-28.475-39.738-52.827-39.738H260.3l0.577,50.422v130.184
				c0,1.388-0.179,2.77-0.531,4.113l-38.598,166.468l-0.076,0.263c-2.868,10.031,0.227,20.679,8.524,27.821
				c2.028,1.746,4.348,3.157,6.833,4.149c15.563,6.214,31.642-2.66,35.866-17.215l27.714-131.308l0.091-0.326
				c2.265-8.163,10.229-13.241,18.997-11.514c5.936,1.169,10.596,5.808,12.213,11.638l0.056,0.202l27.714,131.308
				c4.227,14.561,20.314,23.435,35.88,17.209c2.485-0.994,4.804-2.406,6.831-4.153c8.286-7.142,11.379-17.784,8.512-27.812
				l-0.076-0.262l-38.599-166.468c-0.352-1.343-0.531-2.725-0.531-4.113v-74.327c0-6.125,4.473-11.332,10.527-12.255
				c6.054-0.924,11.876,2.712,13.703,8.557l19.272,61.667c2.991,9.572,12.74,15.456,23.078,13.116
				c3.208-0.726,6.195-2.331,8.594-4.58C452.422,280.149,454.429,272.682,452.397,265.638z"/>
		</g>
	</g>
	<g>
		<g>
			<g>
				<path class="st2" d="M320.925,0c-28.956,0-52.513,23.558-52.513,52.514c0,28.954,23.558,52.512,52.513,52.512
					c28.955,0,52.513-23.558,52.513-52.512C373.438,23.558,349.88,0,320.925,0z M320.925,98.563
					c-25.393,0-46.05-20.656-46.05-46.049s20.657-46.051,46.05-46.051c25.392,0,46.05,20.658,46.05,46.051
					S346.317,98.563,320.925,98.563z"/>
			</g>
		</g>
	</g>
	<g>
		<g>
			<path class="st3" d="M320.925,14.005c-21.234,0-38.51,17.274-38.51,38.508c0,21.234,17.275,38.509,38.51,38.509
				c21.234,0,38.509-17.275,38.509-38.509C359.434,31.279,342.159,14.005,320.925,14.005z"/>
		</g>
	</g>
	<g>
		<g>
			<polygon class="st4" points="299.574,101.794 313.254,127.371 328.595,127.371 342.275,101.794 			"/>
		</g>
	</g>
	<g>
		<g>
			<polygon class="st4" points="328.595,127.371 313.254,127.371 299.574,211.938 319.783,235.694 340.304,211.938 			"/>
		</g>
	</g>
	<g>
		<g>
			<g>
				<path class="st2" d="M294.181,98.563l17.136,32.041h19.215l17.137-32.041H294.181z M326.659,124.14H315.19l-10.223-19.114
					h31.914L326.659,124.14z"/>
			</g>
		</g>
	</g>
	<g>
		<g>
			<g>
				<path class="st2" d="M331.411,124.14h-20.908l-14.357,88.754l23.619,27.764l23.942-27.715L331.411,124.14z M303.002,210.98
					l13.002-80.376h9.776l11.121,80.328l-17.1,19.796L303.002,210.98z"/>
			</g>
		</g>
	</g>
	<g>
		<g>
			<g>
				<path class="st2" d="M143.338,77.084c-16.697,0-30.281,13.583-30.281,30.28s13.584,30.282,30.281,30.282
					c16.697,0,30.281-13.585,30.281-30.282S160.035,77.084,143.338,77.084z M143.338,131.182c-13.133,0-23.817-10.686-23.817-23.819
					c0-13.133,10.685-23.816,23.817-23.816c13.133,0,23.818,10.684,23.818,23.816C167.156,120.496,156.471,131.182,143.338,131.182z
					"/>
			</g>
		</g>
	</g>
</g>
</svg>
