<?xml version="1.0" encoding="utf-8"?>
<!-- Generator: Adobe Illustrator 22.1.0, SVG Export Plug-In . SVG Version: 6.00 Build 0)  -->
<svg version="1.1" id="Layer_1" xmlns="http://www.w3.org/2000/svg" xmlns:xlink="http://www.w3.org/1999/xlink" x="0px" y="0px"
	 viewBox="0 0 256 256" style="enable-background:new 0 0 256 256;" xml:space="preserve">
<style type="text/css">
	.st0{fill:#231F20;}
	.st1{fill:#FFEFE4;}
	.st2{fill:#69EBFC;}
	.st3{fill:#5FD4E3;}
	.st4{fill:#A1F1FC;}
	.st5{fill:#D476E2;}
	.st6{fill:#B665C2;}
	.st7{fill:#EA82FA;}
	.st8{fill:#FFF7F2;}
	.st9{fill:#FF8354;}
	.st10{fill:#FFA172;}
	.st11{fill:#6770E6;}
	.st12{fill:#5861C7;}
	.st13{fill:#E0734A;}
	.st14{fill:#EDD4C2;}
	.st15{fill:#CC6944;}
	.st16{fill:#858EFF;}
	.st17{fill:#C76642;}
	.st18{fill:#FFFFFF;}
	.st19{fill:#FFDEC7;}
	.st20{fill:#4E56B0;}
	.st21{fill:#94529E;}
	.st22{fill:#41B6C5;}
	.st23{fill:#9847A4;}
	.st24{fill:#C2552C;}
	.st25{fill:#CFB6A4;}
</style>
<g>
	<path class="st9" d="M236.067,113.934h-20v-6.25c0-48.349-39.335-87.684-87.685-87.684s-87.685,39.335-87.685,87.684v6.25h-20
		v-6.25C20.698,48.307,69.005,0,128.383,0s107.685,48.307,107.685,107.684V113.934z"/>
	<path class="st10" d="M128.383,0C69.005,0,20.698,48.307,20.698,107.684v6.25h0.01C21.114,54.901,69.256,7,128.383,7
		s107.269,47.901,107.675,106.934h0.01v-6.25C236.067,48.307,187.761,0,128.383,0z"/>
	<path class="st5" d="M238.891,188.144h-25.648c-2.43,0-4.401-1.97-4.401-4.401v-75.409c0-2.43,1.97-4.401,4.401-4.401h25.648
		c2.43,0,4.401,1.97,4.401,4.401v75.409C243.292,186.174,241.322,188.144,238.891,188.144z"/>
	<path class="st6" d="M242.526,167.934L242.526,167.934l0-43.789h0c7.441,0,13.474,6.032,13.474,13.474v16.842
		C256,161.901,249.968,167.934,242.526,167.934z"/>
	<path class="st6" d="M13.474,167.934L13.474,167.934C6.032,167.934,0,161.901,0,154.46v-16.842c0-7.441,6.032-13.474,13.474-13.474
		h0V167.934z"/>
	<path class="st5" d="M43.523,188.144H17.874c-2.43,0-4.401-1.97-4.401-4.401v-75.409c0-2.43,1.97-4.401,4.401-4.401h25.648
		c2.43,0,4.401,1.97,4.401,4.401v75.409C47.923,186.174,45.953,188.144,43.523,188.144z"/>
	<path class="st9" d="M219.605,188.145c0,24.507-19.94,44.447-44.447,44.447h-6.265c-1.892-2.626-4.969-4.342-8.452-4.342h-15.598
		c-5.755,0-10.421,4.666-10.421,10.421c0,5.755,4.666,10.421,10.421,10.421h15.598c3.484,0,6.56-1.716,8.452-4.342h6.265
		c31.212,0,56.605-25.393,56.605-56.605H219.605z"/>
	<path class="st13" d="M175.158,237.75h-6.265c-1.892,2.626-4.969,4.342-8.452,4.342h-15.598c-4.525,0-8.366-2.89-9.806-6.921
		c-0.391,1.095-0.615,2.27-0.615,3.5c0,5.755,4.666,10.421,10.421,10.421h15.598c3.484,0,6.56-1.716,8.452-4.342h6.265
		c31.212,0,56.605-25.393,56.605-56.605h-0.448C227.853,216.064,203.998,237.75,175.158,237.75z"/>
	<circle class="st9" cx="128" cy="128" r="68.724"/>
	<path class="st1" d="M137.948,128c0-5.494-4.454-9.948-9.948-9.948s-9.948,4.454-9.948,9.948c0,3.522,1.836,6.61,4.598,8.378
		l-12.421,36.022c5.496,2.202,11.489,3.426,17.772,3.426s12.276-1.224,17.772-3.426l-12.421-36.022
		C136.112,134.61,137.948,131.522,137.948,128z"/>
	<g>
		<path class="st1" d="M151.09,150.437c-0.86,0-1.728-0.283-2.451-0.864c-1.687-1.355-1.956-3.821-0.601-5.509
			c3.7-4.605,5.656-10.16,5.656-16.063c0-14.168-11.526-25.694-25.694-25.694S102.306,113.832,102.306,128
			c0,5.713,1.844,11.125,5.332,15.651c1.321,1.714,1.002,4.174-0.712,5.495c-1.713,1.32-4.174,1.004-5.495-0.712
			c-4.554-5.909-6.961-12.976-6.961-20.435c0-18.489,15.041-33.53,33.53-33.53s33.53,15.041,33.53,33.53
			c0,7.597-2.622,15.045-7.383,20.972C153.373,149.936,152.237,150.437,151.09,150.437z"/>
	</g>
	<g>
		<path class="st1" d="M98.691,169.688c-0.841,0-1.688-0.27-2.402-0.825C83.558,158.964,76.257,144.069,76.257,128
			c0-28.531,23.212-51.743,51.743-51.743S179.743,99.469,179.743,128c0,15.899-7.177,30.696-19.691,40.597
			c-1.696,1.345-4.161,1.057-5.504-0.643c-1.343-1.696-1.055-4.161,0.643-5.504c10.623-8.404,16.717-20.961,16.717-34.45
			c0-24.21-19.697-43.907-43.907-43.907S84.093,103.79,84.093,128c0,13.634,6.199,26.272,17.007,34.676
			c1.708,1.329,2.017,3.791,0.688,5.499C101.016,169.168,99.859,169.688,98.691,169.688z"/>
	</g>
</g>
</svg>
