<?xml version="1.0" encoding="UTF-8"?>
<!DOCTYPE svg PUBLIC "-//W3C//DTD SVG 1.1//EN" "http://www.w3.org/Graphics/SVG/1.1/DTD/svg11.dtd">
<!-- Creator: CorelDRAW -->
<svg xmlns="http://www.w3.org/2000/svg" xml:space="preserve" width="2048px" height="2048px" style="shape-rendering:geometricPrecision; text-rendering:geometricPrecision; image-rendering:optimizeQuality; fill-rule:evenodd; clip-rule:evenodd"
viewBox="0 0 2048 2048"
 xmlns:xlink="http://www.w3.org/1999/xlink">
 <defs>
  <style type="text/css">
   <![CDATA[
    .fil2 {fill:none}
    .fil1 {fill:#81C784}
    .fil3 {fill:#BF360C}
    .fil0 {fill:#C8E6C9}
    .fil5 {fill:#D84315;fill-rule:nonzero}
    .fil4 {fill:#F4511E;fill-rule:nonzero}
   ]]>
  </style>
   <clipPath id="id0">
    <path d="M1024 -0.0011811c565.539,0 1024,458.462 1024,1024 0,565.539 -458.462,1024 -1024,1024 -565.539,0 -1024,-458.462 -1024,-1024 0,-565.539 458.462,-1024 1024,-1024z"/>
   </clipPath>
 </defs>
 <g id="Layer_x0020_1">
  <metadata id="CorelCorpID_0Corel-Layer"/>
  <path class="fil0" d="M1024 -0.0011811c565.539,0 1024,458.462 1024,1024 0,565.539 -458.462,1024 -1024,1024 -565.539,0 -1024,-458.462 -1024,-1024 0,-565.539 458.462,-1024 1024,-1024z"/>
  <g style="clip-path:url(#id0)">
   <g id="_300477848">
    <g>
     <polygon id="_2996277841" class="fil1" points="1123.12,554.408 2259,1690.29 2259,1713.77 1123.12,577.888 "/>
     <polygon id="_299627352" class="fil1" points="1123.12,577.888 2259,1713.77 2259,1796.6 1123.12,660.719 "/>
     <polygon id="_299628528" class="fil1" points="1458.37,993.107 2594.26,2128.99 2594.26,2561.97 1458.37,1426.09 "/>
     <polygon id="_299628456" class="fil1" points="1458.37,1426.09 2594.26,2561.97 2594.23,2563.74 2594.16,2565.49 2594.04,2567.24 2593.87,2568.97 2593.66,2570.69 2593.39,2572.4 2593.09,2574.09 2592.74,2575.77 2592.34,2577.43 2591.9,2579.08 2591.42,2580.71 2590.9,2582.32 2590.33,2583.92 2589.72,2585.5 2589.08,2587.06 2588.39,2588.61 2587.66,2590.13 2586.89,2591.63 2586.09,2593.12 2585.24,2594.58 2584.36,2596.02 2583.45,2597.44 2582.5,2598.84 2581.51,2600.21 2580.49,2601.56 2579.43,2602.89 2578.34,2604.19 2577.22,2605.47 2576.06,2606.72 2574.87,2607.94 2573.65,2609.14 2572.41,2610.31 1436.53,1474.42 1437.77,1473.25 1438.99,1472.06 1440.18,1470.83 1441.33,1469.58 1442.46,1468.31 1443.55,1467.01 1444.6,1465.68 1445.63,1464.33 1446.61,1462.96 1447.57,1461.56 1448.48,1460.14 1449.36,1458.7 1450.21,1457.23 1451.01,1455.75 1451.78,1454.25 1452.51,1452.72 1453.19,1451.18 1453.84,1449.62 1454.45,1448.04 1455.02,1446.44 1455.54,1444.82 1456.02,1443.19 1456.46,1441.55 1456.86,1439.88 1457.21,1438.2 1457.51,1436.51 1457.77,1434.81 1457.99,1433.09 1458.16,1431.36 1458.28,1429.61 1458.35,1427.86 "/>
     <polygon id="_299629152" class="fil1" points="1436.53,1474.42 2572.41,2610.31 2571.18,2611.4 2569.93,2612.47 2568.65,2613.51 2567.34,2614.52 2566.01,2615.51 2564.65,2616.47 2563.28,2617.39 2561.87,2618.29 2560.45,2619.16 2559,2619.99 2557.53,2620.8 2556.04,2621.57 2554.52,2622.31 2552.99,2623.01 2551.44,2623.69 2549.87,2624.32 2548.28,2624.93 2546.67,2625.5 2545.05,2626.03 2543.41,2626.53 2541.75,2626.99 2540.08,2627.41 2538.39,2627.8 2536.69,2628.14 2534.97,2628.45 2533.24,2628.72 2531.5,2628.95 2529.75,2629.13 2527.98,2629.28 2526.21,2629.39 2524.42,2629.45 2522.62,2629.47 1386.74,1493.59 1388.54,1493.57 1390.33,1493.51 1392.1,1493.4 1393.87,1493.25 1395.62,1493.06 1397.36,1492.84 1399.09,1492.57 1400.81,1492.26 1402.51,1491.91 1404.2,1491.53 1405.87,1491.11 1407.53,1490.64 1409.17,1490.15 1410.79,1489.61 1412.4,1489.05 1413.99,1488.44 1415.56,1487.8 1417.11,1487.13 1418.64,1486.42 1420.16,1485.69 1421.65,1484.91 1423.12,1484.11 1424.57,1483.27 1425.99,1482.41 1427.39,1481.51 1428.77,1480.58 1430.13,1479.63 1431.46,1478.64 1432.77,1477.63 1434.05,1476.59 1435.3,1475.52 "/>
     <polygon id="_299629392" class="fil1" points="1386.74,1493.59 2522.62,2629.47 2455.54,2629.47 1319.66,1493.59 "/>
     <polygon id="_299628888" class="fil1" points="1319.66,1493.59 2455.54,2629.47 2312.26,2629.47 1176.38,1493.59 "/>
     <polygon id="_299629344" class="fil1" points="589.627,993.107 1725.51,2128.99 1629.41,2206.98 493.532,1071.1 "/>
     <polygon id="_299628936" class="fil1" points="871.62,1493.59 2007.5,2629.47 1926.55,2629.47 790.666,1493.59 "/>
     <polygon id="_299629080" class="fil1" points="790.666,1493.59 1926.55,2629.47 1797.14,2629.47 661.257,1493.59 "/>
     <polygon id="_299628960" class="fil1" points="661.257,1493.59 1797.14,2629.47 1795.34,2629.45 1793.56,2629.39 1791.78,2629.28 1790.02,2629.13 1788.26,2628.95 1786.52,2628.72 1784.79,2628.45 1783.07,2628.14 1781.37,2627.8 1779.69,2627.41 1778.01,2626.99 1776.36,2626.53 1774.72,2626.03 1773.09,2625.5 1771.48,2624.93 1769.9,2624.32 1768.32,2623.69 1766.77,2623.01 1765.24,2622.31 1763.73,2621.57 1762.24,2620.8 1760.77,2619.99 1759.32,2619.16 1757.89,2618.29 1756.49,2617.39 1755.11,2616.47 1753.75,2615.51 1752.42,2614.52 1751.12,2613.51 1749.84,2612.47 613.955,1476.59 615.236,1477.63 616.541,1478.64 617.872,1479.63 619.228,1480.58 620.607,1481.51 622.01,1482.41 623.436,1483.27 624.885,1484.11 626.356,1484.91 627.846,1485.69 629.359,1486.42 630.891,1487.13 632.443,1487.8 634.014,1488.44 635.604,1489.05 637.21,1489.61 638.834,1490.15 640.476,1490.64 642.132,1491.11 643.805,1491.53 645.492,1491.91 647.194,1492.26 648.91,1492.57 650.638,1492.84 652.38,1493.06 654.134,1493.25 655.899,1493.4 657.675,1493.51 659.461,1493.57 "/>
     <polygon id="_299628840" class="fil1" points="1176.38,1493.59 2312.26,2629.47 2007.5,2629.47 871.62,1493.59 "/>
     <polygon id="_299628864" class="fil1" points="1584,1034.78 2719.88,2170.66 2690.35,2206.98 1554.47,1071.1 "/>
     <polygon id="_299629296" class="fil1" points="1554.47,1071.1 2690.35,2206.98 2594.26,2128.99 1458.37,993.107 "/>
    </g>
    <path id="_300477224" class="fil1" d="M1123.12 660.719l460.878 374.061 -29.5323 36.3201 -96.0946 -77.993 0 432.982c0,18.9036 -8.36812,36.0095 -21.8492,48.3343 -12.9354,11.8264 -30.5717,19.1681 -49.7823,19.1681l-67.0808 0 -143.283 0 -304.759 0 -80.954 0 -129.409 0c-19.2095,0 -36.8457,-7.34174 -49.7811,-19.1681 -13.4811,-12.3248 -21.8492,-29.4307 -21.8492,-48.3343l0 -432.982 -96.0946 77.993 -29.5323 -36.3201 460.878 -374.061 0 -82.8308 0 -23.4803 23.4803 0 151.284 0 23.4803 0 0 23.4803 0 82.8308z"/>
   </g>
  </g>
  <path class="fil2" d="M1024 -0.0011811c565.539,0 1024,458.462 1024,1024 0,565.539 -458.462,1024 -1024,1024 -565.539,0 -1024,-458.462 -1024,-1024 0,-565.539 458.462,-1024 1024,-1024z"/>
  <rect class="fil3" x="790.667" y="1024" width="528.995" height="469.592"/>
  <path class="fil4" d="M1554.47 1071.1l-96.0946 -77.993 0 432.982c0,18.9036 -8.36812,36.0095 -21.8492,48.3343 -12.9354,11.8264 -30.5717,19.1681 -49.7823,19.1681l-210.364 0 0 -262.816 -152.379 -136.338 -152.38 136.338 0 262.816 -210.363 0c-19.2095,0 -36.8457,-7.34174 -49.7811,-19.1681 -13.4811,-12.3248 -21.8492,-29.4307 -21.8492,-48.3343l0 -432.982 -96.0946 77.993 -29.5323 -36.3201 460.878 -374.061 0 -82.8308 0 -23.4803 23.4803 0 151.284 0 23.4803 0 0 23.4803 0 82.8308 460.878 374.061 -29.5323 36.3201z"/>
  <polygon class="fil5" points="1554.47,1071.1 1458.37,993.107 589.627,993.107 493.532,1071.1 464,1034.78 924.878,660.719 924.878,577.888 924.878,554.408 948.359,554.408 1099.64,554.408 1123.12,554.408 1123.12,577.888 1123.12,660.719 1584,1034.78 "/>
 </g>
</svg>
