<?xml version="1.0" encoding="UTF-8"?>
<!DOCTYPE svg PUBLIC "-//W3C//DTD SVG 1.1//EN" "http://www.w3.org/Graphics/SVG/1.1/DTD/svg11.dtd">
<!-- Creator: CorelDRAW -->
<svg xmlns="http://www.w3.org/2000/svg" xml:space="preserve" width="2048px" height="2048px" style="shape-rendering:geometricPrecision; text-rendering:geometricPrecision; image-rendering:optimizeQuality; fill-rule:evenodd; clip-rule:evenodd"
viewBox="0 0 2048 2048"
 xmlns:xlink="http://www.w3.org/1999/xlink">
 <defs>
  <style type="text/css">
   <![CDATA[
    .fil1 {fill:none}
    .fil0 {fill:#EC407A}
    .fil2 {fill:#FFFFFE;fill-rule:nonzero}
   ]]>
  </style>
 </defs>
 <g id="Layer_x0020_1">
  <metadata id="CorelCorpID_0Corel-Layer"/>
  <rect class="fil0" width="2048" height="2048"/>
  <rect class="fil1" x="255.999" y="255.999" width="1536" height="1536"/>
  <path class="fil2" d="M1664 671.874l-288 -0.250394 -24.6685 -0.0212599 -6.2067 -23.8547 -31.2355 -120.046 -0.750001 -3.24922c-1.75866,-11.4921 -8.71772,-22.6606 -18.3732,-31.1032 -9.31536,-8.14489 -20.7732,-13.35 -32.0067,-13.35l-477.52 0c-11.2335,0 -22.6914,5.20512 -32.0067,13.35 -9.65552,8.44253 -16.6146,19.611 -18.3732,31.1032l-0.750001 3.24922 -31.2355 120.046 -6.2067 23.8547 -24.6685 0.0212599 -288 0.250394 0 0.125197c-8.81339,0 -16.0961,3.8126 -21.274,9.80316 -6.85749,7.93583 -10.7256,19.565 -10.7256,32.25l0 812.649c0,11.8158 4.42087,22.3099 11.5843,29.7579 6.86812,7.14095 16.3784,11.5394 26.9138,11.5394l633.334 0 0.168898 0 0.168898 0 633.334 0c10.5354,0 20.0457,-4.39843 26.9138,-11.5394 7.16339,-7.44804 11.5843,-17.9421 11.5843,-29.7579l0 -812.649c0,-12.685 -3.86811,-24.3142 -10.7256,-32.25 -5.17796,-5.99056 -12.4606,-9.80316 -21.274,-9.80316l0 -0.125197zm-263.332 -63.9804l263.332 0.229134 0 -0.125197c28.7941,0 52.5922,12.4654 69.5245,32.0551 16.9299,19.591 26.4768,46.2733 26.4768,73.9997l0 812.649c0,28.8484 -11.2913,54.9863 -29.5866,74.0091 -18.6248,19.363 -44.3859,31.2898 -72.913,31.2898l-633.334 0 -0.168898 0 -0.168898 0 -633.334 0c-28.5272,0 -54.2882,-11.9268 -72.913,-31.2898 -18.2953,-19.0228 -29.5866,-45.1607 -29.5866,-74.0091l0 -812.649c0,-27.7264 9.54686,-54.4087 26.4768,-73.9997 16.9323,-19.5898 40.7303,-32.0551 69.5245,-32.0551l0 0.125197 263.332 -0.229134 24.4299 -93.8906c4.29449,-26.3563 19.1646,-50.8985 39.4725,-68.654 20.4815,-17.9079 46.8674,-29.3516 74.0067,-29.3516l477.52 0c27.1394,0 53.5252,11.4437 74.0067,29.3516 20.3079,17.7555 35.178,42.2977 39.4725,68.654l24.4299 93.8906z"/>
  <path class="fil2" d="M1531.87 867.433c30.4547,0 55.878,-26.1012 55.878,-56.5359 0,-31.1894 -24.7606,-57.2764 -55.878,-57.2764 -31.1882,0 -55.9489,26.087 -55.9489,57.2764 0,30.4347 25.4232,56.5359 55.9489,56.5359z"/>
  <path class="fil2" d="M1024 863.999c-32.4744,0 -62.6138,5.8063 -90.2694,17.361 -27.7725,11.6032 -53.354,29.061 -76.5957,52.3111l-0.125197 0.125197c-23.2524,23.2122 -40.7091,48.776 -52.3099,76.5402 -11.5536,27.6544 -17.361,57.8091 -17.361,90.3142 0,32.5028 5.80748,62.6587 17.3622,90.3166 11.6008,27.7666 29.0587,53.3351 52.3087,76.5485l0.125197 0c23.4047,23.4059 48.9012,40.5 76.3571,51.7205 27.8551,11.3835 58.206,17.1036 90.8835,17.5831 2.01024,0.0295276 4.0004,0.0330709 5.9563,0.00826772 61.4245,-0.750001 118.499,-27.7146 160.545,-69.8174 42.1217,-42.176 68.98,-99.2316 69.8823,-160.071 0.0283465,-1.98898 0.0318898,-3.96378 0.00826772,-5.9126l0 -0.125197c-0.361418,-32.6965 -6.22323,-62.941 -17.791,-90.7808 -11.5158,-27.7134 -28.7811,-53.139 -52.0016,-76.3241l-0.125197 -0.125197c-23.2264,-23.2701 -48.639,-40.7303 -76.2993,-52.3158 -27.5776,-11.5512 -57.7382,-17.3563 -90.5505,-17.3563zm-114.77 -41.6398c35.6209,-14.8831 73.9418,-22.3618 114.77,-22.3618 41.204,0 79.5272,7.47638 115.051,22.3571 35.3906,14.824 67.6713,36.913 96.9237,66.1914l0.0555119 0.0555119 0.0696851 0.0696851c29.3138,29.2996 51.1867,61.5957 65.8772,96.9485 14.6433,35.2429 22.0689,73.441 22.5402,114.656l0.0011811 0c0.0295276,2.49803 0.0259843,4.97244 -0.00826772,7.41497 -1.16102,78.2103 -35.1272,150.996 -88.3831,204.32 -53.328,53.4 -126.188,87.6048 -205.044,88.5686 -2.50158,0.0307087 -4.99134,0.0271654 -7.45867,-0.00826772 -40.6146,-0.596457 -78.7182,-7.86024 -114.132,-22.3335 -35.8158,-14.6374 -68.4237,-36.2847 -97.6076,-65.4709l0.0625985 -0.0625985c-29.3173,-29.2855 -51.4264,-61.7623 -66.2469,-97.2355 -14.8831,-35.6244 -22.363,-73.9607 -22.363,-114.817 0,-40.8591 7.47875,-79.1942 22.3618,-114.815 14.8099,-35.4449 36.8988,-67.8981 66.1855,-97.1646l0.056693 -0.056693 0.068504 -0.068504c29.3126,-29.2925 61.78,-51.3804 97.2202,-66.1867z"/>
  <polygon class="fil2" points="512.001,543.998 512.001,642.342 448,642.342 448,543.998 "/>
  <polygon class="fil2" points="1568,543.998 1568,642.342 1504,642.342 1504,543.998 "/>
 </g>
</svg>
