<?xml version="1.0" encoding="utf-8"?>
<!-- Generator: Adobe Illustrator 18.0.0, SVG Export Plug-In . SVG Version: 6.00 Build 0)  -->
<!DOCTYPE svg PUBLIC "-//W3C//DTD SVG 1.1//EN" "http://www.w3.org/Graphics/SVG/1.1/DTD/svg11.dtd">
<svg version="1.1" id="Icon_Set" xmlns="http://www.w3.org/2000/svg" xmlns:xlink="http://www.w3.org/1999/xlink" x="0px" y="0px"
	 viewBox="0 0 256 256" style="enable-background:new 0 0 256 256;" xml:space="preserve">
<style type="text/css">
	.st0{fill:#484771;}
	.st1{fill:#F1C48B;}
	.st2{fill:#D5E6F7;}
	.st3{fill:#A0D1F2;}
	.st4{fill:#FD919F;}
	.st5{fill:#E0667D;}
	.st6{fill:#504774;}
	.st7{fill:#7BACF1;}
	.st8{fill:#FFFFFF;}
	.st9{fill:#D4E7F8;}
	.st10{fill:#A3D0F1;}
	.st11{fill:#4C4372;}
	.st12{fill:#7BABF3;}
	.st13{fill:#FD919E;}
	.st14{fill:#D3E6F8;}
	.st15{fill:#E8677D;}
	.st16{fill:#A4CFF2;}
</style>
<g>
	<g>
		<circle class="st1" cx="128" cy="128" r="103.873"/>
	</g>
	<g>
		<g>
			<path class="st2" d="M62.663,193.337c-14.069-14.069-14.069-36.962,0-51.032L76.968,128c14.069-14.069,36.962-14.069,51.032,0
				s14.069,36.962,0,51.032l-14.305,14.305C99.626,207.406,76.732,207.406,62.663,193.337z M115.753,140.247
				c-7.317-7.317-19.222-7.317-26.538,0L74.91,154.552c-7.317,7.317-7.317,19.222,0,26.538c7.317,7.317,19.222,7.317,26.538,0
				l14.305-14.305C123.07,159.468,123.07,147.563,115.753,140.247z"/>
		</g>
	</g>
	<g>
		<g>
			<path class="st2" d="M128,128c-14.069-14.069-14.07-36.962,0-51.031l14.305-14.305c14.069-14.069,36.962-14.069,51.032,0
				s14.069,36.963,0,51.032L179.032,128C164.962,142.07,142.07,142.069,128,128z M181.09,74.91c-7.317-7.317-19.222-7.317-26.538,0
				l-14.305,14.305c-7.316,7.316-7.316,19.221,0,26.538c7.317,7.317,19.222,7.317,26.538,0l14.305-14.305
				C188.407,94.132,188.407,82.227,181.09,74.91z"/>
		</g>
	</g>
	<g>
		<path class="st3" d="M142.305,62.663L130.058,74.91c14.069-14.069,36.962-14.069,51.032,0c14.07,14.07,14.069,36.962,0,51.032
			l12.247-12.247c14.069-14.069,14.069-36.962,0-51.032C179.267,48.594,156.374,48.594,142.305,62.663z"/>
	</g>
	<g>
		<path class="st3" d="M76.968,128l-12.247,12.247c14.069-14.069,36.962-14.07,51.032,0c14.07,14.069,14.069,36.962,0,51.032
			L128,179.032c14.069-14.069,14.069-36.962,0-51.032C113.931,113.93,91.038,113.93,76.968,128z"/>
	</g>
	<g>
		<g>
			<path class="st6" d="M153.516,141.552c-10.451,0-20.266-4.06-27.637-11.431c-7.372-7.372-11.431-17.187-11.431-27.638
				s4.06-20.266,11.431-27.637l14.305-14.305c7.371-7.372,17.186-11.431,27.637-11.431c10.451,0,20.266,4.059,27.637,11.431
				c7.372,7.371,11.431,17.186,11.431,27.637c0,10.451-4.059,20.266-11.431,27.637l-14.305,14.305
				C173.782,137.493,163.967,141.552,153.516,141.552z M167.821,55.111c-8.849,0-17.157,3.435-23.395,9.673l-14.305,14.305
				c-6.238,6.238-9.673,14.546-9.673,23.395s3.436,17.157,9.674,23.395c6.238,6.238,14.546,9.673,23.395,9.673
				s17.156-3.436,23.394-9.673l14.306-14.305c12.899-12.9,12.899-33.89,0-46.79C184.978,58.546,176.669,55.111,167.821,55.111z
				 M153.517,124.241C153.516,124.241,153.517,124.241,153.517,124.241c-5.82,0-11.286-2.261-15.391-6.367
				c-4.105-4.105-6.366-9.571-6.366-15.39s2.261-11.285,6.366-15.39l14.305-14.305c4.105-4.105,9.571-6.366,15.391-6.366
				s11.285,2.261,15.391,6.366c8.486,8.487,8.486,22.295,0,30.781l-14.306,14.306C164.801,121.979,159.335,124.241,153.517,124.241z
				 M167.821,72.422c-4.217,0-8.176,1.637-11.148,4.608l-14.305,14.306c-2.972,2.972-4.609,6.931-4.609,11.147
				s1.637,8.176,4.609,11.147c2.972,2.973,6.931,4.609,11.148,4.609s8.175-1.637,11.147-4.608l14.306-14.306
				c6.146-6.146,6.146-16.148,0-22.296C175.997,74.059,172.038,72.422,167.821,72.422z"/>
		</g>
	</g>
	<g>
		<g>
			<path class="st6" d="M88.179,206.889c-10.451,0-20.266-4.059-27.637-11.431c-7.372-7.371-11.431-17.186-11.431-27.637
				c0-10.451,4.059-20.266,11.431-27.637l14.305-14.305c7.371-7.372,17.186-11.431,27.637-11.431
				c10.451,0,20.266,4.06,27.637,11.431c7.371,7.371,11.431,17.186,11.431,27.637c0,10.451-4.06,20.266-11.431,27.638
				l-14.305,14.305C108.445,202.83,98.63,206.889,88.179,206.889z M102.484,120.448c-8.849,0-17.157,3.436-23.395,9.673
				l-14.306,14.305c-12.899,12.9-12.899,33.89,0,46.79c6.238,6.238,14.546,9.673,23.395,9.673c8.848,0,17.156-3.435,23.395-9.673
				l14.305-14.305c6.238-6.238,9.673-14.546,9.673-23.395c0-8.848-3.436-17.156-9.673-23.394
				C119.641,123.883,111.333,120.448,102.484,120.448z M88.179,189.578c-5.82,0-11.285-2.261-15.391-6.366
				c-8.486-8.487-8.486-22.295,0-30.781l14.306-14.306c4.105-4.105,9.571-6.366,15.39-6.366s11.285,2.261,15.391,6.367
				c4.105,4.105,6.366,9.571,6.366,15.39s-2.261,11.285-6.367,15.391l-14.305,14.305C99.464,187.317,93.999,189.578,88.179,189.578z
				 M102.484,137.759c-4.217,0-8.176,1.637-11.147,4.609l-14.306,14.306c-6.146,6.146-6.146,16.148,0,22.296
				c2.972,2.972,6.931,4.608,11.148,4.608c4.216,0,8.176-1.637,11.148-4.609l14.305-14.305c2.973-2.972,4.609-6.931,4.609-11.148
				s-1.637-8.176-4.609-11.147C110.66,139.396,106.701,137.759,102.484,137.759z"/>
		</g>
	</g>
	<g>
		<g>
			<path class="st4" d="M95.006,160.994c-3.382-3.382-3.382-8.865,0-12.247l52.961-52.961c3.382-3.382,8.865-3.382,12.247,0
				c3.382,3.382,3.382,8.865,0,12.247l-52.961,52.961C103.871,164.376,98.388,164.376,95.006,160.994z"/>
		</g>
	</g>
	<g>
		<path class="st5" d="M147.967,95.786l-37.372,37.373c3.382-3.382,8.865-3.382,12.247,0c3.382,3.382,3.382,8.865,0,12.247
			l37.372-37.372c3.382-3.382,3.382-8.865,0-12.247C156.832,92.404,151.349,92.404,147.967,95.786z"/>
	</g>
	<g>
		<g>
			<path class="st6" d="M101.129,166.531c-3.115,0-6.042-1.213-8.245-3.415c-4.546-4.546-4.546-11.943,0-16.49l52.962-52.961
				c2.202-2.203,5.13-3.416,8.245-3.416s6.042,1.213,8.245,3.416c2.202,2.202,3.415,5.13,3.415,8.244s-1.213,6.042-3.416,8.245
				l-52.96,52.961C107.172,165.318,104.244,166.531,101.129,166.531z M154.091,96.25c-1.512,0-2.933,0.589-4.002,1.658
				l-52.961,52.961c-2.207,2.207-2.207,5.798,0,8.005c1.069,1.069,2.491,1.658,4.002,1.658s2.933-0.589,4.002-1.658l52.961-52.961
				c1.069-1.069,1.658-2.491,1.658-4.002c0-1.511-0.589-2.933-1.658-4.001C157.023,96.838,155.602,96.25,154.091,96.25z"/>
		</g>
	</g>
</g>
</svg>
