<?xml version="1.0" encoding="UTF-8"?>
<!DOCTYPE svg PUBLIC "-//W3C//DTD SVG 1.1//EN" "http://www.w3.org/Graphics/SVG/1.1/DTD/svg11.dtd">
<!-- Creator: CorelDRAW -->
<svg xmlns="http://www.w3.org/2000/svg" xml:space="preserve" width="6.82666in" height="6.82666in" style="shape-rendering:geometricPrecision; text-rendering:geometricPrecision; image-rendering:optimizeQuality; fill-rule:evenodd; clip-rule:evenodd"
viewBox="0 0 6.82666 6.82666"
 xmlns:xlink="http://www.w3.org/1999/xlink">
 <defs>
  <style type="text/css">
   <![CDATA[
    .str0 {stroke:#212121;stroke-width:0.00333465}
    .fil2 {fill:none}
    .fil13 {fill:#263238}
    .fil14 {fill:#33691E}
    .fil3 {fill:#3E2723}
    .fil16 {fill:#4B772D}
    .fil15 {fill:#558B2F}
    .fil9 {fill:#616161}
    .fil10 {fill:#689F38}
    .fil12 {fill:#757575}
    .fil11 {fill:#8BC34A}
    .fil7 {fill:#A8977E}
    .fil1 {fill:#AB47BC}
    .fil0 {fill:#BA68C8}
    .fil4 {fill:#FF6F00}
    .fil8 {fill:#391F0B;fill-rule:nonzero}
    .fil5 {fill:#CABCA9;fill-rule:nonzero}
    .fil6 {fill:#FF6F00;fill-rule:nonzero}
   ]]>
  </style>
   <clipPath id="id0">
    <path d="M3.41333 -3.93701e-006c1.88513,0 3.41333,1.5282 3.41333,3.41333 0,1.88513 -1.5282,3.41333 -3.41333,3.41333 -1.88513,0 -3.41333,-1.5282 -3.41333,-3.41333 0,-1.88513 1.5282,-3.41333 3.41333,-3.41333z"/>
   </clipPath>
 </defs>
 <g id="Layer_x0020_1">
  <metadata id="CorelCorpID_0Corel-Layer"/>
  <path class="fil0" d="M3.41333 -3.93701e-006c1.88513,0 3.41333,1.5282 3.41333,3.41333 0,1.88513 -1.5282,3.41333 -3.41333,3.41333 -1.88513,0 -3.41333,-1.5282 -3.41333,-3.41333 0,-1.88513 1.5282,-3.41333 3.41333,-3.41333z"/>
  <g style="clip-path:url(#id0)">
   <g id="_457172744">
    <g>
     <polygon id="_4528468401" class="fil1" points="5.24794,2.87365 9.03421,6.65992 8.61444,6.65992 4.82817,2.87365 "/>
     <polygon id="_452847296" class="fil1" points="4.82817,2.87365 8.61444,6.65992 8.61444,7.32298 4.82817,3.53671 "/>
     <polygon id="_452847608" class="fil1" points="4.90205,3.53671 8.68831,7.32298 8.68831,7.47758 4.90205,3.69131 "/>
     <polygon id="_452847560" class="fil1" points="4.90205,3.69131 8.68831,7.47758 8.65194,7.47758 4.86567,3.69131 "/>
     <polygon id="_452847632" class="fil1" points="4.86567,3.69131 8.65194,7.47758 8.65194,8.0687 4.86567,4.28243 "/>
     <polygon id="_452847656" class="fil1" points="4.90205,4.28243 8.68831,8.0687 8.68831,8.2233 4.90205,4.43703 "/>
     <polygon id="_452848064" class="fil1" points="4.90205,4.43703 8.68831,8.2233 8.65194,8.2233 4.86567,4.43703 "/>
     <polygon id="_452847728" class="fil1" points="4.86567,4.43703 8.65194,8.2233 8.61444,8.2233 4.82817,4.43703 "/>
     <polygon id="_452847824" class="fil1" points="4.82817,4.43703 8.61444,8.2233 8.61444,8.72587 4.82817,4.9396 "/>
     <polygon id="_452847416" class="fil1" points="5.00753,4.98833 8.7938,8.7746 8.79728,8.77826 8.80065,8.78202 8.80389,8.78589 8.80703,8.78985 8.81004,8.79392 8.81292,8.79807 8.81568,8.80233 5.02941,5.01606 5.02665,5.0118 5.02377,5.00765 5.02076,5.00358 5.01763,4.99961 5.01438,4.99575 5.01101,4.99198 "/>
     <polygon id="_452847800" class="fil1" points="5.2436,5.05246 9.02987,8.83873 9.03788,8.84754 9.04503,8.85709 9.05125,8.8673 9.05649,8.87813 9.06067,8.8895 9.06374,8.90135 9.06562,8.91362 9.06626,8.92624 9.06626,9.05016 5.28,5.26389 5.28,5.13997 5.27935,5.12735 5.27747,5.11508 5.2744,5.10323 5.27022,5.09186 5.26498,5.08103 5.25876,5.07081 5.25161,5.06127 "/>
     <polygon id="_452848520" class="fil1" points="5.28,5.26389 9.06626,9.05016 8.75598,9.05016 4.96971,5.26389 "/>
     <polygon id="_452848544" class="fil1" points="4.96971,5.26389 8.75598,9.05016 8.66868,9.05016 4.88241,5.26389 "/>
     <polygon id="_452848568" class="fil1" points="4.88241,5.26389 8.66868,9.05016 8.59691,9.05016 4.81064,5.26389 "/>
     <polygon id="_452848088" class="fil1" points="4.81064,5.26389 8.59691,9.05016 8.41083,9.05016 4.62456,5.26389 "/>
     <polygon id="_452848136" class="fil1" points="1.96644,2.87365 5.7527,6.65992 5.33293,6.65992 1.54667,2.87365 "/>
     <polygon id="_452848784" class="fil1" points="1.92894,3.69131 5.7152,7.47758 5.67883,7.47758 1.89256,3.69131 "/>
     <polygon id="_452848304" class="fil1" points="1.96643,4.43703 5.7527,8.2233 5.7152,8.2233 1.92894,4.43703 "/>
     <polygon id="_452848376" class="fil1" points="2.64379,5.26389 6.43006,9.05016 6.28063,9.05016 2.49437,5.26389 "/>
     <polygon id="_452848328" class="fil1" points="2.49437,5.26389 6.28063,9.05016 6.14746,9.05016 2.36119,5.26389 "/>
     <polygon id="_452848400" class="fil1" points="2.36119,5.26389 6.14746,9.05016 5.92153,9.05016 2.13526,5.26389 "/>
     <polygon id="_452848424" class="fil1" points="2.13526,5.26389 5.92153,9.05016 5.92083,9.05016 2.13456,5.26389 "/>
     <polygon id="_452849576" class="fil1" points="2.13456,5.26389 5.92083,9.05016 5.67739,9.05016 1.89113,5.26389 "/>
     <polygon id="_452849096" class="fil1" points="1.89113,5.26389 5.67739,9.05016 5.45147,9.05016 1.6652,5.26389 "/>
     <polygon id="_452849360" class="fil1" points="1.92894,4.43703 5.7152,8.2233 5.67883,8.2233 1.89256,4.43703 "/>
     <polygon id="_452849600" class="fil1" points="2.91356,5.26389 6.69983,9.05016 6.43006,9.05016 2.64379,5.26389 "/>
     <polygon id="_452849144" class="fil1" points="3.88105,5.26389 7.66732,9.05016 6.69983,9.05016 2.91356,5.26389 "/>
     <polygon id="_452849264" class="fil1" points="4.62456,5.26389 8.41083,9.05016 7.66732,9.05016 3.88105,5.26389 "/>
    </g>
    <path id="_457172600" class="fil1" d="M3.41213 1.56278l1.83582 1.31087 -0.419776 0 0 0.663063 0.073878 0 0 0.154598 -0.036374 0 0 0.591122 0.036374 0 0 0.154598 -0.036374 0 -0.0375 0 0 0.502575 0.0637598 0c0.0577795,0 0.108752,0.0306299 0.13748,0.0764528l0.126673 0c0.0681496,0 0.123909,0.0557638 0.123909,0.123917l0 0.123913 -0.310283 0 -0.0872992 0 -0.0717756 0 -0.186075 0 -0.743512 0 -0.967492 0 -0.269768 0 -0.149425 0 -0.133177 0 -0.225929 0 -0.00069685 0 -0.243437 0 -0.225921 0 0 -0.123913c0,-0.0681535 0.0557598,-0.123917 0.123909,-0.123917l0.114839 0c0.0152953,-0.0244016 0.0369016,-0.0444921 0.0624803,-0.0579449l0 -0.521083 -0.0374961 0 -0.036374 0 0 -0.154598 0.036374 0 0 -0.591122 -0.036374 0 0 -0.154598 0.073874 0 0 -0.663063 -0.419772 0 1.86546 -1.31087z"/>
   </g>
  </g>
  <path class="fil2" d="M3.41333 -3.93701e-006c1.88513,0 3.41333,1.5282 3.41333,3.41333 0,1.88513 -1.5282,3.41333 -3.41333,3.41333 -1.88513,0 -3.41333,-1.5282 -3.41333,-3.41333 0,-1.88513 1.5282,-3.41333 3.41333,-3.41333z"/>
  <rect class="fil3 str0" x="1.92894" y="3.65948" width="0.0454727" height="0.777547"/>
  <rect class="fil4" x="1.89256" y="4.28243" width="0.0818469" height="0.154598"/>
  <rect class="fil4" x="1.89256" y="3.53671" width="0.0818469" height="0.154598"/>
  <rect class="fil3 str0" x="4.8202" y="3.65948" width="0.0454727" height="0.777547"/>
  <rect class="fil4" x="4.8202" y="4.28243" width="0.0818469" height="0.154598"/>
  <rect class="fil4" x="4.8202" y="3.53671" width="0.0818469" height="0.154598"/>
  <path class="fil5" d="M4.82817 5.11877l-3.93701e-006 0.0753071 -0.0753071 0c-0.750898,0 -0.563772,0 -2.71112,0l-0.0753071 0 -3.93701e-006 -0.0753071 3.93701e-006 -2.263 0.0753071 0 2.71112 0 0.0753071 0 3.93701e-006 2.263z"/>
  <polygon class="fil6" points="1.54667,2.87365 3.41213,1.56278 5.24794,2.87365 "/>
  <polygon class="fil7" points="2.94446,3.61202 2.94446,5.11877 2.94446,5.19408 3.85015,5.19408 3.85015,5.11877 3.85015,3.61202 3.85015,3.53671 3.77484,3.53671 3.01977,3.53671 2.94446,3.53671 "/>
  <path class="fil8" d="M2.968 3.58848l0 1.50675 0 0.0517756 0.858618 0 0 -0.0517756 0 -1.50675 0 -0.0517756 -0.0517717 0 -0.755071 0 -0.0517756 0 0 0.0517756zm-0.0470709 1.50675l0 -1.50675 0 -0.075311 0 -0.0235354 0.0235354 0 0.075311 0 0.755071 0 0.0753071 0 0.0235354 0 0 0.0235354 0 0.075311 0 1.50675 0 0.0753071 0 0.0235354 -0.0235354 0 -0.905689 0 -0.0235354 0 0 -0.0235354 0 -0.0753071z"/>
  <rect class="fil9" x="2.13526" y="5.13997" width="2.74715" height="0.123913"/>
  <path class="fil10" d="M2.01135 5.01606l-0.222236 0c-0.0681496,0 -0.123909,0.0557638 -0.123909,0.123917l0 0.123913 0.469358 0c0.000385827,0 0.00069685,-0.000314961 0.00069685,-0.00069685l0 -0.123217c0,-0.0681535 -0.0557598,-0.123917 -0.123909,-0.123917z"/>
  <path class="fil10" d="M2.5696 5.11467l-0.133807 0c-0.0410354,0 -0.0746063,0.0335709 -0.0746063,0.0746024l0 0.0746102 0.282602 0c0.000228346,0 0.000417323,-0.000185039 0.000417323,-0.000417323l0 -0.0741929c0,-0.0410315 -0.0335709,-0.0746024 -0.0746063,-0.0746024z"/>
  <path class="fil11" d="M2.33223 4.9396l-0.290799 0c-0.0891732,0 -0.162134,0.0729606 -0.162134,0.162138l0 0.150311c0,0.00651181 0.00532283,0.0118346 0.0118307,0.0118346l0.60324 0 0 -0.162146c0,-0.0891772 -0.0729646,-0.162138 -0.162138,-0.162138z"/>
  <path class="fil10" d="M4.7867 4.9396l0.105232 0c0.0891772,0 0.162138,0.0729606 0.162138,0.162138l0 0.0777835c0,0.0463976 -0.0379606,0.0843622 -0.0843583,0.0843622l-0.34515 0 0 -0.162146c0,-0.0891772 0.0729646,-0.162138 0.162138,-0.162138z"/>
  <path class="fil11" d="M4.93385 5.01606l0.222236 0c0.0681496,0 0.123909,0.0557638 0.123909,0.123917l0 0.123913 -0.469358 0c-0.000385827,0 -0.00069685,-0.000314961 -0.00069685,-0.00069685l0 -0.123217c0,-0.0681535 0.0557598,-0.123917 0.123909,-0.123917z"/>
  <rect class="fil12" x="2.91356" y="5.19408" width="0.967495" height="0.0698056"/>
  <path class="fil13" d="M3.66838 4.26148c0.0425866,0 0.0771063,0.0345197 0.0771063,0.0771024 0,0.0425866 -0.0345197,0.0771063 -0.0771063,0.0771063 -0.0425827,0 -0.0771063,-0.0345197 -0.0771063,-0.0771063 0,-0.0425827 0.0345236,-0.0771024 0.0771063,-0.0771024z"/>
  <path class="fil14" d="M4.17175 2.17428c-0.184579,0.117953 -0.294173,0.315917 -0.412445,0.421756 -0.750354,0.671508 -1.1087,-0.896772 0.412445,-0.421756z"/>
  <path class="fil15" d="M3.03494 2.75093c0.155413,-0.172122 0.286366,-0.359421 0.549189,-0.451622 0.106496,-0.0373583 0.128874,-0.0533031 0.244984,-0.0674055l-0.00125984 0.000161417c0.0477638,-0.00111417 0.0669488,0.00516535 0.111669,0.0136693 -0.0370079,0.00121654 -0.0107165,0.00162992 -0.0551024,-0.00211811 -0.106886,-0.00901969 -0.195913,0.0377205 -0.293051,0.0749094 -0.273272,0.104622 -0.382441,0.301118 -0.55552,0.488622l-0.000909449 -0.0562165z"/>
  <path class="fil15" d="M3.50334 2.33467c0.0180709,-0.000425197 0.0365551,-0.000173228 0.0555236,0.000846457 0.0952087,0.00513386 0.117823,-0.000110236 0.213051,0.0262835l-0.00103543 -0.000275591c0.0376614,0.0145157 0.050622,0.0256024 0.082811,0.0466535 -0.0292953,-0.0109724 -0.0088937,-0.0021811 -0.0423543,-0.0194094 -0.0805748,-0.0414803 -0.165165,-0.0336575 -0.253012,-0.0359094 -0.0192992,-0.000492126 -0.0379961,-0.000228346 -0.0561614,0.000724409 0.00279528,-0.00591732 0.00320079,-0.0127008 0.00117717,-0.0189134z"/>
  <path class="fil15" d="M3.31611 2.45149c0.0010315,5.11811e-005 0.00205118,8.66142e-005 0.00308661,0.000141732 0.112693,0.00607874 0.139461,-0.000129921 0.252177,0.0311102l-0.00122835 -0.000326772c0.0445787,0.017185 0.0599173,0.0303031 0.0980157,0.0552205 -0.0346732,-0.0129882 -0.0105276,-0.00257874 -0.050126,-0.0229724 -0.095374,-0.0490984 -0.195496,-0.0398386 -0.299476,-0.0425039l-0.00223622 -3.93701e-005c0.00233071,-0.00666535 0.00225984,-0.0140079 -0.000212598,-0.0206299z"/>
  <path class="fil15" d="M3.61628 2.3064c0.00790945,-0.00912598 0.0153819,-0.0185472 0.0223583,-0.0283189 0.0350236,-0.0490394 0.0491732,-0.0598386 0.0650197,-0.111669l-0.000181102 0.000562992c0.00258268,-0.0210315 -0.00202362,-0.029063 -0.00761417,-0.0481693 -0.00229921,0.016315 -0.00173622,0.00480315 -0.000125984,0.0240512 0.00387795,0.0463583 -0.0384134,0.088311 -0.0729724,0.133232 -0.00759055,0.00986614 -0.0156181,0.0193307 -0.0240433,0.0284331 0.00650394,-0.000645669 0.0127953,3.54331e-005 0.0175591,0.00187795z"/>
  <path class="fil15" d="M3.37593 2.42679c0.000452756,-0.000633858 0.000917323,-0.00125591 0.00136614,-0.0018937 0.049248,-0.0694291 0.0675945,-0.0840079 0.0949685,-0.159744l-0.000307087 0.000822835c0.00662598,-0.0311614 0.0026378,-0.043685 -0.000598425,-0.072874 -0.00548425,0.0241417 -0.00285039,0.00698819 -0.00427559,0.0359528 -0.00344882,0.069748 -0.0599488,0.127768 -0.107945,0.191094l-0.00104724 0.00135827c0.0069252,0.00026378 0.0132756,0.00214173 0.0178386,0.00528346z"/>
  <path class="fil14" d="M2.55244 2.41528c0.089685,0.057315 0.142937,0.153504 0.200406,0.204929 0.364591,0.32628 0.538705,-0.435736 -0.200406,-0.204929z"/>
  <path class="fil16" d="M3.1048 2.69547c-0.0755118,-0.0836339 -0.139142,-0.174642 -0.266843,-0.219441 -0.051748,-0.0181496 -0.062622,-0.0258976 -0.119039,-0.032752l0.000614173 7.87402e-005c-0.0232087,-0.00053937 -0.0325315,0.00251181 -0.0542598,0.00664173 0.0179803,0.000590551 0.00520472,0.000791339 0.0267717,-0.00102756 0.051937,-0.00438583 0.0951969,0.0183268 0.142394,0.0363976 0.13278,0.0508346 0.185823,0.146311 0.269921,0.237417l0.000440945 -0.027315z"/>
  <path class="fil16" d="M2.87721 2.49321c-0.00877953,-0.000204724 -0.0177598,-8.26772e-005 -0.0269764,0.000413386 -0.0462638,0.00249213 -0.057248,-5.51181e-005 -0.10352,0.0127717l0.000503937 -0.000137795c-0.0183031,0.00705512 -0.0245984,0.0124409 -0.0402362,0.0226693 0.0142323,-0.00533071 0.0043189,-0.00105906 0.0205748,-0.00942913 0.0391535,-0.0201575 0.0802559,-0.0163543 0.122937,-0.0174488 0.00937795,-0.000240157 0.0184646,-0.000110236 0.0272913,0.000350394 -0.00135827,-0.00287402 -0.00155512,-0.00616929 -0.000574803,-0.00918898z"/>
  <path class="fil16" d="M2.96819 2.54997c-0.0005,2.3622e-005 -0.000996063,4.33071e-005 -0.0015,7.08661e-005 -0.0547559,0.00294882 -0.0677638,-6.29921e-005 -0.122531,0.0151142l0.000598425 -0.00015748c-0.0216614,0.00834646 -0.0291142,0.0147205 -0.047626,0.0268307 0.0168465,-0.00631102 0.00511417,-0.00125591 0.0243583,-0.0111614 0.0463386,-0.0238583 0.0949882,-0.0193583 0.145512,-0.0206535l0.00108661 -1.9685e-005c-0.00113386,-0.00324016 -0.00109843,-0.00680709 0.000102362,-0.0100236z"/>
  <path class="fil16" d="M2.82234 2.47947c-0.00384646,-0.00443307 -0.00747638,-0.00901181 -0.0108661,-0.0137598 -0.0170157,-0.0238268 -0.0238937,-0.0290748 -0.0315906,-0.0542559l8.66142e-005 0.000271654c-0.00125591,-0.0102205 0.000984252,-0.014122 0.00370079,-0.0234055 0.00111811,0.00792913 0.00084252,0.00233465 5.90551e-005,0.011689 -0.00188189,0.0225236 0.0186654,0.0429055 0.0354567,0.0647323 0.00368898,0.00479528 0.00759055,0.0093937 0.011685,0.0138189 -0.00316142,-0.000314961 -0.00622047,1.5748e-005 -0.0085315,0.000909449z"/>
  <path class="fil16" d="M2.93912 2.53797c-0.000220472,-0.000307087 -0.000444882,-0.000610236 -0.000665354,-0.00092126 -0.0239291,-0.0337362 -0.0328425,-0.0408189 -0.0461417,-0.0776181l0.000149606 0.000401575c-0.00322047,-0.0151417 -0.00128346,-0.0212283 0.000287402,-0.0354094 0.00266535,0.0117283 0.00138583,0.0033937 0.00207874,0.0174685 0.00167717,0.0338898 0.0291299,0.0620827 0.0524488,0.0928504l0.000507874 0.000661417c-0.0033622,0.000125984 -0.00644882,0.00103937 -0.00866535,0.00256693z"/>
 </g>
</svg>
