<?xml version="1.0" encoding="UTF-8"?>
<!DOCTYPE svg PUBLIC "-//W3C//DTD SVG 1.1//EN" "http://www.w3.org/Graphics/SVG/1.1/DTD/svg11.dtd">
<!-- Creator: CorelDRAW -->
<svg xmlns="http://www.w3.org/2000/svg" xml:space="preserve" width="6.82666in" height="6.82666in" style="shape-rendering:geometricPrecision; text-rendering:geometricPrecision; image-rendering:optimizeQuality; fill-rule:evenodd; clip-rule:evenodd"
viewBox="0 0 6.82666 6.82666"
 xmlns:xlink="http://www.w3.org/1999/xlink">
 <defs>
  <style type="text/css">
   <![CDATA[
    .fil2 {fill:none}
    .fil7 {fill:#E6E7E8}
    .fil8 {fill:#2B2B2B}
    .fil9 {fill:#3D3E3F}
    .fil5 {fill:#424E5E}
    .fil3 {fill:#4E5A68}
    .fil6 {fill:#7DD4DB}
    .fil1 {fill:#E9C34A}
    .fil0 {fill:#FFD54F}
    .fil4 {fill:#3CB2BA;fill-rule:nonzero}
   ]]>
  </style>
   <clipPath id="id0">
    <path d="M3.41333 0c1.88513,0 3.41333,1.5282 3.41333,3.41333 0,1.88513 -1.5282,3.41333 -3.41333,3.41333 -1.88513,0 -3.41333,-1.5282 -3.41333,-3.41333 0,-1.88513 1.5282,-3.41333 3.41333,-3.41333z"/>
   </clipPath>
 </defs>
 <g id="Layer_x0020_1">
  <metadata id="CorelCorpID_0Corel-Layer"/>
  <path class="fil0" d="M3.41333 0c1.88513,0 3.41333,1.5282 3.41333,3.41333 0,1.88513 -1.5282,3.41333 -3.41333,3.41333 -1.88513,0 -3.41333,-1.5282 -3.41333,-3.41333 0,-1.88513 1.5282,-3.41333 3.41333,-3.41333z"/>
  <g style="clip-path:url(#id0)">
   <g id="_328321032">
    <g>
     <polygon id="_3293773921" class="fil1" points="4.46511,2.26399 8.25138,6.05026 8.25138,6.23694 4.46511,2.45067 "/>
     <polygon id="_329377248" class="fil1" points="5.23559,2.51634 9.02185,6.30261 9.02467,6.30602 9.02742,6.30951 9.03007,6.31306 9.03265,6.31667 9.03515,6.32034 9.03756,6.32408 9.03989,6.32788 9.04212,6.33174 9.04427,6.33565 9.04633,6.33961 9.04829,6.34364 9.05017,6.34771 9.05194,6.35184 9.05362,6.35602 9.0552,6.36024 9.05669,6.36451 9.05807,6.36883 9.05935,6.37319 9.06052,6.37759 9.0616,6.38203 9.06256,6.38652 9.06342,6.39104 9.06417,6.39559 9.0648,6.40018 9.06533,6.4048 9.06574,6.40946 9.06603,6.41415 9.06621,6.41886 9.06627,6.4236 5.28,2.63733 5.27994,2.63259 5.27976,2.62787 5.27947,2.62319 5.27906,2.61853 5.27854,2.61391 5.2779,2.60932 5.27715,2.60476 5.2763,2.60024 5.27533,2.59576 5.27426,2.59132 5.27308,2.58692 5.2718,2.58256 5.27042,2.57824 5.26894,2.57397 5.26735,2.56974 5.26567,2.56557 5.2639,2.56144 5.26202,2.55737 5.26006,2.55334 5.258,2.54937 5.25585,2.54546 5.25362,2.54161 5.25129,2.53781 5.24888,2.53407 5.24639,2.5304 5.24381,2.52678 5.24115,2.52324 5.23841,2.51975 "/>
     <polygon id="_329378376" class="fil1" points="5.28,2.63733 9.06627,6.4236 9.06627,8.29027 5.28,4.504 "/>
     <polygon id="_329378088" class="fil1" points="5.28,4.504 9.06627,8.29027 9.06621,8.29501 9.06603,8.29972 9.06574,8.30441 9.06533,8.30907 9.0648,8.31369 9.06417,8.31828 9.06342,8.32284 9.06256,8.32736 9.0616,8.33184 9.06052,8.33628 9.05935,8.34069 9.05807,8.34505 9.05669,8.34936 9.0552,8.35363 9.05362,8.35786 9.05194,8.36203 9.05017,8.36616 9.04829,8.37024 9.04633,8.37426 9.04427,8.37822 9.04212,8.38214 9.03989,8.38599 9.03756,8.38979 9.03515,8.39353 9.03265,8.3972 9.03007,8.40081 9.02742,8.40436 9.02467,8.40784 9.02185,8.41126 9.01896,8.4146 9.01598,8.41787 9.01294,8.42107 5.22667,4.6348 5.22972,4.6316 5.23269,4.62833 5.23559,4.62498 5.23841,4.62157 5.24115,4.61809 5.24381,4.61454 5.24639,4.61093 5.24888,4.60726 5.25129,4.60352 5.25362,4.59972 5.25585,4.59587 5.258,4.59195 5.26006,4.58798 5.26202,4.58396 5.2639,4.57989 5.26567,4.57576 5.26735,4.57159 5.26894,4.56736 5.27042,4.56309 5.2718,4.55878 5.27308,4.55441 5.27426,4.55001 5.27533,4.54557 5.2763,4.54109 5.27715,4.53657 5.2779,4.53201 5.27854,4.52742 5.27906,4.5228 5.27947,4.51814 5.27976,4.51345 5.27994,4.50874 "/>
     <polygon id="_329378304" class="fil1" points="5.22667,4.6348 9.01294,8.42107 9.00975,8.42427 9.00649,8.42738 9.00316,8.43042 8.99976,8.43337 8.99629,8.43624 8.99276,8.43903 8.98915,8.44173 8.98548,8.44434 8.98175,8.44687 8.97796,8.4493 8.97411,8.45165 8.9702,8.4539 8.96623,8.45605 8.9622,8.45811 8.95813,8.46007 8.954,8.46193 8.94982,8.46369 8.94559,8.46535 8.94131,8.4669 8.93698,8.46835 8.93261,8.46969 8.9282,8.47092 8.92374,8.47204 8.91925,8.47305 8.91471,8.47395 8.91014,8.47473 8.90553,8.4754 8.90089,8.47594 8.89621,8.47637 8.8915,8.47669 8.88676,8.47687 8.88199,8.47693 5.09572,4.69066 5.10049,4.6906 5.10523,4.69041 5.10994,4.6901 5.11462,4.68967 5.11926,4.68913 5.12387,4.68846 5.12844,4.68768 5.13298,4.68678 5.13748,4.68577 5.14193,4.68465 5.14635,4.68342 5.15072,4.68207 5.15504,4.68063 5.15932,4.67907 5.16355,4.67742 5.16773,4.67566 5.17186,4.6738 5.17594,4.67184 5.17996,4.66978 5.18393,4.66763 5.18784,4.66537 5.19169,4.66303 5.19548,4.6606 5.19922,4.65807 5.20288,4.65546 5.20649,4.65276 5.21002,4.64997 5.21349,4.6471 5.21689,4.64415 5.22022,4.64111 5.22348,4.638 "/>
     <polygon id="_329378160" class="fil1" points="5.09572,4.69066 8.88199,8.47693 8.5996,8.47693 4.81333,4.69066 "/>
     <polygon id="_329378592" class="fil1" points="4.81333,4.69066 8.5996,8.47693 7.19959,8.47693 3.41333,4.69066 "/>
     <polygon id="_329378472" class="fil1" points="3.41333,4.69066 7.19959,8.47693 6.57738,8.47693 2.79111,4.69066 "/>
     <polygon id="_329378208" class="fil1" points="2.79111,4.69066 6.57738,8.47693 5.67516,8.47693 1.88889,4.69066 "/>
     <polygon id="_329378256" class="fil1" points="1.88889,4.69066 5.67516,8.47693 5.5172,8.47693 1.73094,4.69066 "/>
     <polygon id="_329378016" class="fil1" points="1.73094,4.69066 5.5172,8.47693 5.51244,8.47687 5.5077,8.47669 5.50299,8.47637 5.49831,8.47594 5.49367,8.4754 5.48906,8.47473 5.48448,8.47395 5.47994,8.47305 5.47545,8.47204 5.47099,8.47092 5.46658,8.46969 5.46221,8.46835 5.45788,8.4669 5.4536,8.46535 5.44937,8.46369 5.44519,8.46193 5.44106,8.46007 5.43699,8.45811 5.43296,8.45605 5.429,8.45389 5.42509,8.45165 5.42123,8.4493 5.41744,8.44687 5.41371,8.44434 5.41004,8.44173 5.40644,8.43903 5.40291,8.43624 5.39943,8.43337 1.61317,4.6471 1.61664,4.64997 1.62017,4.65276 1.62378,4.65546 1.62744,4.65807 1.63117,4.6606 1.63496,4.66303 1.63882,4.66537 1.64273,4.66762 1.6467,4.66978 1.65072,4.67183 1.6548,4.6738 1.65893,4.67566 1.66311,4.67742 1.66733,4.67907 1.67161,4.68063 1.67594,4.68207 1.68031,4.68342 1.68472,4.68465 1.68918,4.68577 1.69368,4.68678 1.69821,4.68768 1.70279,4.68846 1.7074,4.68913 1.71204,4.68967 1.71672,4.6901 1.72143,4.69041 1.72617,4.6906 "/>
    </g>
    <path id="_328321104" class="fil1" d="M2.79111 2.45066l0.622217 0 0.398453 3.93701e-006 0 -0.186673 0.653331 0 0 0.186673 0.348224 -3.93701e-006 0.28239 0c0.0510157,0 0.0973661,0.0213976 0.130945,0.0558543 0.0329016,0.0337756 0.0533307,0.0800945 0.0533307,0.130815l0 1.86667c0,0.0507244 -0.0204291,0.0970472 -0.0533307,0.130807 -0.0335787,0.0344685 -0.0799409,0.0558583 -0.130945,0.0558583l-0.28239 0 -1.40001 0 -0.622217 0 -0.902217 0 -0.157957 0c-0.0510157,0 -0.0973661,-0.0213937 -0.130945,-0.0558543 -0.0329016,-0.0337717 -0.0533307,-0.0800945 -0.0533307,-0.130811l0 -1.86667c0,-0.0507205 0.0204291,-0.0970394 0.0533307,-0.130815 0.0335787,-0.0344567 0.0799291,-0.0558543 0.130945,-0.0558543l0.157957 0 0.902217 0z"/>
   </g>
  </g>
  <path class="fil2" d="M3.41333 0c1.88513,0 3.41333,1.5282 3.41333,3.41333 0,1.88513 -1.5282,3.41333 -3.41333,3.41333 -1.88513,0 -3.41333,-1.5282 -3.41333,-3.41333 0,-1.88513 1.5282,-3.41333 3.41333,-3.41333z"/>
  <path class="fil3" d="M1.73094 2.45066l3.36479 0c0.0510157,0 0.0973661,0.0213976 0.130945,0.0558543 0.0329016,0.0337756 0.0533307,0.0800945 0.0533307,0.130815l0 1.86667c0,0.0507244 -0.0204291,0.0970472 -0.0533307,0.130807 -0.0335787,0.0344685 -0.0799409,0.0558583 -0.130945,0.0558583l-3.36479 0c-0.0510157,0 -0.0973661,-0.0213937 -0.130945,-0.0558543 -0.0329016,-0.0337717 -0.0533307,-0.0800945 -0.0533307,-0.130811l0 -1.86667c0,-0.0507205 0.0204291,-0.0970394 0.0533307,-0.130815 0.0335787,-0.0344567 0.0799291,-0.0558543 0.130945,-0.0558543z"/>
  <polygon class="fil4" points="3.81178,2.26399 4.46511,2.26399 4.46511,2.45067 3.81178,2.45067 "/>
  <polygon class="fil5" points="1.88889,2.45066 2.79111,2.45066 2.79111,4.69066 1.88889,4.69066 "/>
  <polygon class="fil6" points="2.01333,2.79492 2.66667,2.79492 2.66667,3.11955 2.01333,3.11955 "/>
  <polygon class="fil5" points="3.41333,2.45066 4.81333,2.45066 4.81333,4.69066 3.41333,4.69066 "/>
  <path class="fil6" d="M4.11333 2.964c0.167516,0 0.319185,0.0679094 0.428972,0.177697 0.109787,0.109787 0.177697,0.261457 0.177697,0.428969 0,0.167516 -0.0679094,0.319181 -0.177697,0.428969 -0.109787,0.109791 -0.261457,0.177701 -0.428972,0.177701 -0.167512,0 -0.319177,-0.0679094 -0.428969,-0.177701 -0.109787,-0.109787 -0.177693,-0.261453 -0.177693,-0.428969 0,-0.167512 0.0679055,-0.319181 0.177693,-0.428969 0.109791,-0.109787 0.261457,-0.177697 0.428969,-0.177697z"/>
  <path class="fil7" d="M4.11333 3.14169c0.118453,0 0.225693,0.0480197 0.303323,0.125646 0.0776339,0.0776339 0.12565,0.184878 0.12565,0.303323 0,0.118449 -0.0480157,0.225693 -0.12565,0.303323 -0.0776299,0.0776299 -0.18487,0.12565 -0.303323,0.12565 -0.118445,0 -0.225689,-0.0480197 -0.303319,-0.12565 -0.0776339,-0.0776299 -0.12565,-0.184874 -0.12565,-0.303323 0,-0.118445 0.0480157,-0.225689 0.12565,-0.303323 0.0776299,-0.077626 0.184874,-0.125646 0.303319,-0.125646z"/>
  <path class="fil8" d="M4.11333 3.27511c0.0816102,0 0.1555,0.0330866 0.208988,0.0865709 0.0534882,0.0534843 0.0865709,0.127378 0.0865709,0.208984 0,0.0816102 -0.0330827,0.1555 -0.0865709,0.208988 -0.0534882,0.0534843 -0.127378,0.0865709 -0.208988,0.0865709 -0.0816063,0 -0.155496,-0.0330866 -0.208984,-0.0865709 -0.0534882,-0.0534882 -0.0865709,-0.127378 -0.0865709,-0.208988 0,-0.0816063 0.0330827,-0.1555 0.0865709,-0.208984 0.0534882,-0.0534843 0.127378,-0.0865709 0.208984,-0.0865709z"/>
  <path class="fil9" d="M4.11333 3.43066c0.0386614,0 0.0736614,0.0156693 0.0989961,0.0410079 0.0253386,0.0253346 0.0410079,0.0603346 0.0410079,0.0989921 0,0.0386575 -0.0156693,0.0736614 -0.0410079,0.0989961 -0.0253346,0.0253346 -0.0603346,0.0410079 -0.0989961,0.0410079 -0.0386575,0 -0.0736575,-0.0156732 -0.0989921,-0.0410079 -0.0253386,-0.0253346 -0.0410079,-0.0603386 -0.0410079,-0.0989961 0,-0.0386575 0.0156693,-0.0736575 0.0410079,-0.0989921 0.0253346,-0.0253386 0.0603346,-0.0410079 0.0989921,-0.0410079z"/>
 </g>
</svg>
