<?xml version="1.0" encoding="UTF-8"?>
<!DOCTYPE svg PUBLIC "-//W3C//DTD SVG 1.1//EN" "http://www.w3.org/Graphics/SVG/1.1/DTD/svg11.dtd">
<!-- Creator: CorelDRAW -->
<svg xmlns="http://www.w3.org/2000/svg" xml:space="preserve" width="6.82666in" height="6.82666in" style="shape-rendering:geometricPrecision; text-rendering:geometricPrecision; image-rendering:optimizeQuality; fill-rule:evenodd; clip-rule:evenodd"
viewBox="0 0 6.82666 6.82666"
 xmlns:xlink="http://www.w3.org/1999/xlink">
 <defs>
  <style type="text/css">
   <![CDATA[
    .fil2 {fill:none}
    .fil4 {fill:#558B2F}
    .fil3 {fill:#689F38}
    .fil1 {fill:#C0CA33}
    .fil0 {fill:#DCE775}
    .fil5 {fill:#689F38;fill-rule:nonzero}
   ]]>
  </style>
   <clipPath id="id0">
    <path d="M3.41333 -3.93701e-006c1.88513,0 3.41333,1.5282 3.41333,3.41333 0,1.88513 -1.5282,3.41333 -3.41333,3.41333 -1.88513,0 -3.41333,-1.5282 -3.41333,-3.41333 0,-1.88513 1.5282,-3.41333 3.41333,-3.41333z"/>
   </clipPath>
 </defs>
 <g id="Layer_x0020_1">
  <metadata id="CorelCorpID_0Corel-Layer"/>
  <path class="fil0" d="M3.41333 -3.93701e-006c1.88513,0 3.41333,1.5282 3.41333,3.41333 0,1.88513 -1.5282,3.41333 -3.41333,3.41333 -1.88513,0 -3.41333,-1.5282 -3.41333,-3.41333 0,-1.88513 1.5282,-3.41333 3.41333,-3.41333z"/>
  <g style="clip-path:url(#id0)">
   <g id="_457194440">
    <g>
     <polygon id="_4607650721" class="fil1" points="3.31411,3.32823 7.10038,7.1145 7.09526,7.10994 7.09015,7.10537 7.08505,7.10081 7.07996,7.09624 7.07489,7.09167 7.06983,7.0871 7.06479,7.08253 7.05976,7.07796 7.05473,7.07339 7.04972,7.06882 7.04472,7.06425 7.03972,7.05969 7.03474,7.05512 7.02977,7.05056 7.0248,7.04599 7.01984,7.04143 7.01489,7.03687 7.00995,7.03231 7.00502,7.02776 7.00009,7.0232 6.99516,7.01866 6.99024,7.01411 6.98533,7.00957 6.98042,7.00504 6.97552,7.0005 6.97062,6.99597 6.96572,6.99145 6.96083,6.98693 6.95594,6.98242 6.95105,6.97791 6.94616,6.97341 6.94128,6.96891 3.15501,3.18264 3.15989,3.18713 3.16478,3.19164 3.16967,3.19615 3.17456,3.20066 3.17945,3.20518 3.18435,3.2097 3.18925,3.21423 3.19415,3.21876 3.19906,3.2233 3.20398,3.22784 3.20889,3.23239 3.21382,3.23693 3.21875,3.24148 3.22368,3.24604 3.22863,3.2506 3.23357,3.25516 3.23854,3.25972 3.2435,3.26428 3.24847,3.26885 3.25346,3.27341 3.25845,3.27798 3.26345,3.28255 3.26846,3.28712 3.27349,3.29169 3.27852,3.29626 3.28357,3.30083 3.28863,3.3054 3.2937,3.30996 3.29878,3.31454 3.30388,3.3191 3.30899,3.32367 "/>
     <polygon id="_460764880" class="fil1" points="3.15501,3.18264 6.94128,6.96891 6.93826,6.97445 6.93517,6.97994 6.932,6.98539 6.92875,6.99078 6.92543,6.99613 6.92203,7.00143 6.91855,7.00668 6.91499,7.01188 6.91136,7.01702 6.90765,7.02212 6.90387,7.02716 6.90001,7.03214 6.89608,7.03707 6.89207,7.04194 6.88799,7.04675 6.88383,7.0515 3.09756,3.26523 3.10172,3.26048 3.1058,3.25567 3.10981,3.2508 3.11374,3.24587 3.1176,3.24089 3.12139,3.23585 3.12509,3.23075 3.12872,3.22561 3.13228,3.22041 3.13576,3.21516 3.13916,3.20986 3.14248,3.20451 3.14573,3.19911 3.1489,3.19367 3.152,3.18818 "/>
     <polygon id="_460764448" class="fil1" points="3.09756,3.26523 6.88383,7.0515 6.86926,7.06709 6.85384,7.08196 6.83759,7.09606 6.82052,7.10937 6.80263,7.12183 6.78393,7.13342 6.76442,7.1441 6.74413,7.15382 6.72304,7.16255 6.70119,7.17025 6.67856,7.17688 6.65517,7.18241 6.63102,7.18679 6.60613,7.18999 6.58051,7.19197 6.55415,7.19269 6.52707,7.19212 6.49928,7.1902 6.47078,7.18692 6.44159,7.18222 6.4117,7.17607 6.38114,7.16844 6.3499,7.15928 6.31799,7.14855 6.28543,7.13622 6.25221,7.12225 6.21836,7.1066 6.18387,7.08923 6.14875,7.07011 6.11302,7.04919 6.07667,7.02644 6.03973,7.00181 2.25346,3.21554 2.29041,3.24017 2.32675,3.26292 2.36248,3.28383 2.3976,3.30296 2.43209,3.32033 2.46594,3.33598 2.49916,3.34995 2.53172,3.36228 2.56363,3.37301 2.59487,3.38217 2.62544,3.3898 2.65532,3.39595 2.68452,3.40065 2.71302,3.40393 2.74081,3.40585 2.76789,3.40642 2.79424,3.4057 2.81987,3.40372 2.84476,3.40052 2.8689,3.39614 2.89229,3.39061 2.91492,3.38398 2.93678,3.37628 2.95786,3.36755 2.97815,3.35783 2.99766,3.34715 3.01636,3.33556 3.03425,3.32309 3.05132,3.30979 3.06757,3.29569 3.08299,3.28082 "/>
     <polygon id="_460764808" class="fil1" points="3.06788,2.60882 6.85415,6.39509 6.86965,6.41203 6.88422,6.42939 6.89787,6.44716 6.91059,6.4653 6.92241,6.48378 6.93333,6.50257 6.94335,6.52166 6.95247,6.54099 6.96071,6.56055 6.96807,6.5803 6.97456,6.60022 6.98018,6.62028 6.98494,6.64044 6.98884,6.66067 6.9919,6.68096 6.99411,6.70126 6.99549,6.72154 6.99604,6.74178 6.99576,6.76195 6.99467,6.78202 6.99277,6.80196 6.99006,6.82174 6.98655,6.84132 6.98225,6.86068 6.97717,6.87979 6.9713,6.89863 6.96466,6.91715 3.17839,3.13087 3.18503,3.11235 3.1909,3.09352 3.19598,3.07441 3.20028,3.05505 3.20379,3.03546 3.2065,3.01569 3.2084,2.99575 3.2095,2.97568 3.20977,2.95551 3.20922,2.93527 3.20785,2.91498 3.20563,2.89469 3.20257,2.8744 3.19867,2.85417 3.19391,2.83401 3.18829,2.81395 3.1818,2.79403 3.17444,2.77428 3.1662,2.75472 3.15708,2.73539 3.14706,2.7163 3.13615,2.69751 3.12433,2.67902 3.1116,2.66089 3.09795,2.64312 3.08338,2.62576 "/>
     <polygon id="_460764688" class="fil1" points="2.25346,3.21554 6.03973,7.00181 6.02099,6.98856 6.0022,6.97452 5.98335,6.95976 5.96442,6.94432 5.94539,6.92826 5.92626,6.91162 5.90698,6.89446 5.88757,6.87683 5.86798,6.85878 5.84822,6.84036 5.82826,6.82162 5.80808,6.80261 5.78767,6.78338 5.767,6.76398 5.74607,6.74447 5.72486,6.72489 5.70335,6.70529 5.68152,6.68573 5.65935,6.66625 5.63683,6.64691 5.61394,6.62776 5.59067,6.60884 5.56699,6.59022 5.54289,6.57193 5.51835,6.55403 5.49337,6.53657 5.46791,6.51961 5.44196,6.50319 5.4155,6.48735 5.38852,6.47217 5.36101,6.45767 5.33293,6.44393 1.54667,2.65765 1.57474,2.6714 1.60226,2.68589 1.62923,2.70108 1.65569,2.71691 1.68164,2.73334 1.7071,2.7503 1.73209,2.76776 1.75662,2.78566 1.78072,2.80394 1.8044,2.82257 1.82767,2.84149 1.85056,2.86064 1.87308,2.87998 1.89525,2.89946 1.91708,2.91902 1.93859,2.93861 1.95981,2.9582 1.98074,2.97771 2.0014,2.99711 2.02181,3.01634 2.04199,3.03535 2.06195,3.05409 2.08172,3.07251 2.1013,3.09056 2.12072,3.10819 2.13999,3.12535 2.15913,3.14199 2.17815,3.15805 2.19708,3.17348 2.21593,3.18825 2.23472,3.20228 "/>
     <polygon id="_460765408" class="fil1" points="3.50072,4.61277 7.28698,8.39904 7.28628,8.41043 7.28558,8.42182 7.28488,8.43323 7.28417,8.44465 7.28347,8.45607 7.28277,8.4675 7.28207,8.47894 7.28137,8.49038 7.28067,8.50182 7.27996,8.51326 7.27927,8.52471 7.27857,8.53615 7.27787,8.54759 7.27718,8.55904 7.27649,8.57047 7.2758,8.5819 7.27511,8.59332 7.27443,8.60473 7.27375,8.61613 7.27307,8.62753 7.2724,8.63891 7.27173,8.65028 7.27106,8.66163 7.2704,8.67297 7.26974,8.6843 7.26909,8.6956 7.26844,8.70689 7.2678,8.71815 7.26716,8.7294 7.26652,8.74062 7.26589,8.75181 7.26527,8.76299 3.479,4.97672 3.47963,4.96554 3.48026,4.95435 3.48089,4.94313 3.48153,4.93188 3.48217,4.92061 3.48282,4.90933 3.48348,4.89802 3.48413,4.8867 3.4848,4.87536 3.48546,4.86401 3.48613,4.85264 3.48681,4.84126 3.48748,4.82986 3.48817,4.81846 3.48885,4.80705 3.48954,4.79563 3.49022,4.7842 3.49091,4.77276 3.49161,4.76132 3.4923,4.74988 3.493,4.73844 3.4937,4.72699 3.4944,4.71555 3.4951,4.70411 3.4958,4.69267 3.4965,4.68123 3.4972,4.6698 3.49791,4.65837 3.49861,4.64696 3.49931,4.63555 3.50002,4.62415 "/>
     <polygon id="_460765720" class="fil1" points="3.479,4.97672 7.26527,8.76299 7.26408,8.77428 7.2618,8.78519 7.25848,8.79566 7.2542,8.80564 7.249,8.81506 7.24295,8.82389 7.2361,8.83207 7.22852,8.83955 7.22026,8.84627 7.21138,8.85218 7.20194,8.85723 7.192,8.86136 7.18161,8.86453 7.17084,8.86668 7.15975,8.86775 7.14839,8.8677 3.36212,5.08143 3.37348,5.08148 3.38457,5.08041 3.39534,5.07826 3.40573,5.07509 3.41567,5.07096 3.42511,5.06591 3.43399,5.06 3.44225,5.05328 3.44983,5.0458 3.45668,5.03762 3.46273,5.02879 3.46793,5.01937 3.47221,5.00939 3.47553,4.99892 3.47781,4.98801 "/>
     <polygon id="_460765576" class="fil1" points="3.36212,5.08143 7.14839,8.8677 7.13709,8.86651 7.12619,8.86422 7.11572,8.86091 7.10574,8.85663 7.09631,8.85143 7.08748,8.84538 7.0793,8.83853 3.29304,5.05226 3.30122,5.05911 3.31005,5.06516 3.31947,5.07035 3.32945,5.07464 3.33992,5.07795 3.35083,5.08024 "/>
     <polygon id="_460765792" class="fil1" points="2.85105,2.01265 6.63731,5.79892 6.63348,5.79493 6.62963,5.79094 6.62576,5.78697 6.62187,5.78301 6.61796,5.77906 6.61403,5.77513 6.61008,5.7712 6.60611,5.76728 6.60212,5.76338 6.59811,5.75949 6.59408,5.75561 6.59003,5.75174 6.58596,5.74787 6.58187,5.74403 6.57775,5.74019 6.57362,5.73637 6.56946,5.73255 6.56529,5.72875 6.56109,5.72496 2.77483,1.93869 2.77902,1.94248 2.7832,1.94628 2.78735,1.95009 2.79148,1.95392 2.7956,1.95776 2.79969,1.9616 2.80376,1.96546 2.80781,1.96933 2.81184,1.97322 2.81585,1.97711 2.81984,1.98101 2.82381,1.98493 2.82776,1.98885 2.83169,1.99279 2.8356,1.99674 2.83949,2.0007 2.84336,2.00467 2.84722,2.00865 "/>
     <polygon id="_460765624" class="fil1" points="2.77483,1.93869 6.56109,5.72496 6.55694,5.72103 2.77067,1.93476 "/>
     <polygon id="_460765384" class="fil1" points="3.02937,1.87749 6.81564,5.66376 6.86402,5.71789 6.90944,5.77342 6.952,5.83036 6.99178,5.88869 7.02885,5.94838 7.0633,6.00943 7.0952,6.07181 7.12466,6.13551 7.15174,6.20052 7.17653,6.26681 7.19911,6.33437 7.21957,6.4032 7.23798,6.47326 7.25443,6.54454 7.269,6.61703 7.28178,6.69071 7.29285,6.76556 7.30229,6.84157 7.31018,6.91872 7.3166,6.997 7.32164,7.07639 7.32539,7.15687 7.32791,7.23843 7.3293,7.32104 7.32964,7.4047 7.32901,7.48939 7.32749,7.57509 7.32517,7.66179 7.32213,7.74946 7.31845,7.8381 3.53218,4.05183 3.53586,3.96319 3.53891,3.87552 3.54122,3.78882 3.54274,3.70312 3.54337,3.61843 3.54304,3.53477 3.54164,3.45215 3.53912,3.3706 3.53537,3.29012 3.53033,3.21073 3.52391,3.13245 3.51602,3.0553 3.50658,2.97929 3.49552,2.90444 3.48274,2.83076 3.46817,2.75827 3.45171,2.68698 3.4333,2.61693 3.41284,2.5481 3.39026,2.48054 3.36547,2.41424 3.33839,2.34924 3.30894,2.28554 3.27703,2.22315 3.24258,2.16211 3.20551,2.10241 3.16574,2.04409 3.12318,1.98715 3.07775,1.93161 "/>
     <polygon id="_460765696" class="fil1" points="3.52839,4.13239 7.31466,7.91866 7.31393,7.9333 7.31319,7.94797 7.31244,7.96266 7.31168,7.97738 7.3109,7.99211 7.31011,8.00688 7.30932,8.02167 7.30851,8.03648 7.30769,8.05131 7.30687,8.06618 7.30603,8.08106 7.30519,8.09597 7.30433,8.1109 7.30347,8.12585 7.3026,8.14083 7.30173,8.15583 7.30085,8.17086 7.29995,8.18591 7.29906,8.20098 7.29816,8.21608 7.29725,8.2312 7.29633,8.24634 7.29542,8.26151 7.29449,8.2767 7.29357,8.29191 7.29263,8.30715 7.2917,8.32241 7.29076,8.33769 7.28982,8.35299 7.28888,8.36832 7.28793,8.38367 7.28698,8.39904 3.50072,4.61277 3.50167,4.59739 3.50261,4.58205 3.50355,4.56672 3.50449,4.55141 3.50543,4.53613 3.50637,4.52087 3.5073,4.50564 3.50822,4.49043 3.50915,4.47524 3.51007,4.46007 3.51098,4.44493 3.51189,4.42981 3.51279,4.41471 3.51369,4.39964 3.51458,4.38459 3.51546,4.36956 3.51633,4.35456 3.5172,4.33958 3.51807,4.32463 3.51892,4.3097 3.51976,4.29479 3.5206,4.27991 3.52143,4.26504 3.52224,4.25021 3.52305,4.2354 3.52385,4.22061 3.52463,4.20584 3.52541,4.19111 3.52617,4.17639 3.52693,4.1617 3.52767,4.14703 "/>
     <polygon id="_460765456" class="fil1" points="5.28,3.47596 9.06627,7.26224 9.03819,7.27598 9.01068,7.29048 8.9837,7.30567 8.95724,7.3215 8.9313,7.33792 8.90583,7.35489 8.88085,7.37234 8.85631,7.39024 8.83221,7.40853 8.80854,7.42715 8.78526,7.44607 8.76237,7.46522 8.73985,7.48456 8.71769,7.50404 8.69585,7.5236 8.67434,7.5432 8.65313,7.56278 8.6322,7.5823 8.61154,7.60169 8.59112,7.62092 8.57094,7.63993 8.55098,7.65867 8.53122,7.67709 8.51163,7.69515 8.49222,7.71278 8.47294,7.72993 8.45381,7.74657 8.43478,7.76263 8.41585,7.77807 8.397,7.79283 8.37821,7.80687 8.35947,7.82013 4.5732,4.03385 4.59194,4.02059 4.61073,4.00656 4.62958,3.9918 4.64851,3.97636 4.66754,3.9603 4.68668,3.94366 4.70595,3.9265 4.72537,3.90887 4.74495,3.89082 4.76471,3.8724 4.78468,3.85366 4.80485,3.83465 4.82527,3.81542 4.84593,3.79602 4.86686,3.77651 4.88807,3.75693 4.90959,3.73733 4.93142,3.71777 4.95359,3.69829 4.9761,3.67895 4.99899,3.6598 5.02227,3.64088 5.04594,3.62226 5.07004,3.60397 5.09458,3.58607 5.11957,3.56861 5.14503,3.55165 5.17098,3.53522 5.19743,3.51939 5.22441,3.5042 5.25193,3.48971 "/>
     <polygon id="_460765840" class="fil1" points="3.67165,4.00095 7.45792,7.78722 7.45351,7.79128 7.44909,7.79535 7.44468,7.79942 7.44026,7.80349 7.43585,7.80757 7.43143,7.81165 7.427,7.81574 7.42257,7.81983 7.41815,7.82393 7.41371,7.82802 7.40928,7.83213 7.40484,7.83623 7.40039,7.84033 7.39594,7.84444 7.39148,7.84856 7.38702,7.85267 7.38256,7.85679 7.37809,7.86091 7.37361,7.86503 7.36912,7.86915 7.36463,7.87327 7.36013,7.8774 7.35562,7.88152 7.35111,7.88565 7.34658,7.88978 7.34205,7.8939 7.33751,7.89803 7.33296,7.90216 7.3284,7.90628 7.32383,7.91041 7.31925,7.91454 7.31466,7.91866 3.52839,4.13239 3.53298,4.12826 3.53756,4.12414 3.54213,4.12001 3.54669,4.11589 3.55124,4.11176 3.55578,4.10763 3.56031,4.1035 3.56484,4.09938 3.56935,4.09525 3.57386,4.09113 3.57836,4.087 3.58285,4.08288 3.58734,4.07876 3.59182,4.07463 3.59629,4.07052 3.60076,4.0664 3.60522,4.06229 3.60967,4.05817 3.61412,4.05406 3.61857,4.04996 3.62301,4.04585 3.62744,4.04175 3.63188,4.03765 3.63631,4.03356 3.64074,4.02947 3.64516,4.02538 3.64958,4.0213 3.654,4.01722 3.65841,4.01315 3.66283,4.00907 3.66724,4.00501 "/>
     <polygon id="_460765264" class="fil1" points="4.5732,4.03385 8.35947,7.82013 8.3171,7.84824 8.27553,7.87389 8.23476,7.89714 8.19481,7.91805 8.15569,7.93667 8.11742,7.95307 8.08,7.9673 8.04344,7.97941 8.00777,7.98948 7.97299,7.99754 7.93912,8.00367 7.90616,8.00792 7.87413,8.01035 7.84304,8.01101 7.81289,8.00996 7.78372,8.00727 7.75552,8.00299 7.72831,7.99717 7.7021,7.98988 7.6769,7.98117 7.65273,7.97111 7.62959,7.95974 7.60751,7.94713 7.58648,7.93333 7.56653,7.91841 7.54766,7.90241 7.52989,7.88541 3.74362,4.09913 3.76139,4.11614 3.78026,4.13213 3.80021,4.14706 3.82124,4.16086 3.84333,4.17347 3.86646,4.18483 3.89063,4.1949 3.91583,4.20361 3.94204,4.2109 3.96925,4.21672 3.99745,4.221 4.02663,4.22369 4.05677,4.22474 4.08786,4.22407 4.11989,4.22165 4.15285,4.2174 4.18672,4.21127 4.2215,4.2032 4.25718,4.19314 4.29373,4.18102 4.33115,4.1668 4.36942,4.1504 4.40854,4.13178 4.44849,4.11087 4.48926,4.08762 4.53083,4.06196 "/>
    </g>
    <path id="_457195328" class="fil1" d="M2.92343 1.77357c0.598579,0.538724 0.651138,1.32771 0.608756,2.27826 0.0387047,-0.0342835 0.0771811,-0.0687008 0.116094,-0.102642 -0.159602,-0.417024 0.275028,-1.09714 1.63172,-0.47322 -0.302476,0.142496 -0.507067,0.420772 -0.706795,0.55789 -0.456154,0.313169 -0.778673,0.196854 -0.901551,-0.0329055 -0.0470591,0.0432835 -0.0942441,0.0874409 -0.14326,0.131441 -0.00770079,0.156051 -0.017563,0.316287 -0.0276772,0.480378 -0.00748425,0.12139 -0.0150984,0.244913 -0.0217126,0.363949 -0.00335827,0.061189 -0.055689,0.108071 -0.116882,0.104713 -0.061189,-0.00335827 -0.108071,-0.0556929 -0.104713,-0.116882 0.00709843,-0.127799 0.0144724,-0.247331 0.0217126,-0.364815 0.00358661,-0.0581693 0.00713386,-0.115807 0.0105669,-0.172941 0.0236732,-0.394004 0.0416063,-0.762831 0.0244213,-1.09856 -0.0547323,-0.0486654 -0.106992,-0.0976614 -0.159102,-0.145591 -0.0158622,0.0296535 -0.0350748,0.0574016 -0.0574449,0.0825945 -0.150945,0.170012 -0.446831,0.223055 -0.844102,-0.049689 -0.199728,-0.137118 -0.404319,-0.415394 -0.706795,-0.55789l1.42957 -0.125965c0.221004,0.149591 0.277091,0.403382 0.202154,0.599185 0.0438307,0.0382283 0.0870984,0.0770669 0.130776,0.115626 -0.0328622,-0.469331 -0.141465,-0.870555 -0.410035,-1.18098 -0.0381614,-0.0441102 -0.079437,-0.0864528 -0.124303,-0.126831 -0.0455945,-0.0410315 -0.0492913,-0.111264 -0.00825984,-0.156854 0.0410354,-0.0455945 0.111264,-0.0492913 0.156858,-0.00825984z"/>
   </g>
  </g>
  <path class="fil2" d="M3.41333 -3.93701e-006c1.88513,0 3.41333,1.5282 3.41333,3.41333 0,1.88513 -1.5282,3.41333 -3.41333,3.41333 -1.88513,0 -3.41333,-1.5282 -3.41333,-3.41333 0,-1.88513 1.5282,-3.41333 3.41333,-3.41333z"/>
  <path class="fil3" d="M1.54667 2.65765c0.302476,0.142496 0.507067,0.420772 0.706795,0.55789 1.26714,0.869945 1.50318,-1.57422 -0.706795,-0.55789z"/>
  <path class="fil4" d="M3.38031 3.30849c-0.268909,-0.230201 -0.503752,-0.488157 -0.919642,-0.576378 -0.16852,-0.035748 -0.205512,-0.0555118 -0.384043,-0.0541772l0.00193701 0c-0.0725236,0.00764567 -0.100339,0.0209016 -0.166378,0.0425118 0.0562598,-0.00538583 0.0165394,0.000374016 0.083,-0.0139724 0.160051,-0.0345394 0.303961,0.0188268 0.45828,0.0561417 0.434138,0.104988 0.637799,0.381122 0.936449,0.631161l-0.00960236 -0.0852874z"/>
  <path class="fil4" d="M2.58989 2.76985c-0.027437,0.00288583 -0.055378,0.00687795 -0.0838898,0.0121339 -0.143134,0.026374 -0.17839,0.0228543 -0.317394,0.0814173l0.00151181 -0.000622047c-0.0541772,0.0293386 -0.0716299,0.0486496 -0.116244,0.0868071 0.0422047,-0.0223346 0.0130354,-0.00503543 0.0603189,-0.0376535 0.113874,-0.0785433 0.243465,-0.0832283 0.376012,-0.103803 0.0291181,-0.00451575 0.0574764,-0.00777165 0.0851654,-0.00987795 -0.00538976,-0.00840945 -0.00733071,-0.0186063 -0.00548031,-0.0284016z"/>
  <path class="fil4" d="M2.89615 2.91013c-0.00155118,0.000279528 -0.00309055,0.000531496 -0.00464173,0.000818898 -0.169417,0.0312165 -0.21115,0.0270512 -0.375681,0.0963701l0.00179134 -0.00073622c-0.064126,0.0347244 -0.0847874,0.0575787 -0.137591,0.102748 0.0499528,-0.026437 0.0154291,-0.00596457 0.0713976,-0.0445709 0.134783,-0.0929646 0.288169,-0.0985118 0.445055,-0.122862l0.00337795 -0.000496063c-0.00482677,-0.0096378 -0.00615354,-0.0207677 -0.00370866,-0.0312717z"/>
  <path class="fil4" d="M2.41339 2.74913c-0.0137598,-0.0122638 -0.0269134,-0.0250709 -0.0393858,-0.0384961 -0.0626024,-0.0673976 -0.0861339,-0.0809843 -0.120244,-0.15635l0.000385827 0.000818898c-0.00802362,-0.0313346 -0.00262205,-0.0443976 0.00211024,-0.0744094 0.00666929,0.024252 0.00357087,0.00692913 0.00488976,0.0363858 0.00318898,0.070937 0.0754094,0.126181 0.1365,0.187433 0.0134252,0.0134567 0.0274213,0.0262126 0.0419606,0.0383504 -0.00997244,0.000291339 -0.0193701,0.00255512 -0.0262165,0.00626772z"/>
  <path class="fil4" d="M2.80077 2.88441c-0.000811024,-0.000870079 -0.00163386,-0.00172441 -0.00244094,-0.00259843 -0.0881181,-0.0954882 -0.118744,-0.113969 -0.17498,-0.223276l0.000629921 0.00118504c-0.016122,-0.045878 -0.0125354,-0.0656181 -0.0133386,-0.110437 0.0130197,0.0354764 0.0056811,0.0100236 0.0135,0.0535906 0.0188504,0.104913 0.11572,0.181713 0.200752,0.268197l0.00185039 0.00185039c-0.0104291,0.00175197 -0.0196772,0.00583858 -0.0259724,0.0114882z"/>
  <path class="fil3" d="M5.28 3.47596c-0.302476,0.142496 -0.507067,0.420772 -0.706795,0.55789 -1.26714,0.869949 -1.50319,-1.57422 0.706795,-0.55789z"/>
  <path class="fil4" d="M3.44635 4.1268c0.268906,-0.230197 0.503752,-0.488157 0.919638,-0.576378 0.16852,-0.0357441 0.205512,-0.0555118 0.384047,-0.0541772l-0.00194094 3.93701e-006c0.0725236,0.00764173 0.100339,0.0208976 0.166382,0.0425118 -0.0562598,-0.00538976 -0.0165394,0.000370079 -0.0830039,-0.0139724 -0.160047,-0.0345433 -0.303957,0.0188228 -0.458276,0.0561378 -0.434142,0.104988 -0.637799,0.381126 -0.936453,0.631161l0.0096063 -0.0852874z"/>
  <path class="fil4" d="M4.23678 3.58817c0.027437,0.00288189 0.055374,0.00687795 0.0838858,0.0121299 0.143134,0.026374 0.17839,0.0228543 0.317398,0.0814173l-0.00151575 -0.000622047c0.0541811,0.0293386 0.0716339,0.0486496 0.116248,0.0868071 -0.0422047,-0.0223307 -0.0130394,-0.00503543 -0.0603228,-0.0376535 -0.11387,-0.0785433 -0.243461,-0.0832283 -0.376008,-0.103799 -0.0291181,-0.00451969 -0.0574764,-0.00777165 -0.0851654,-0.00987795 0.00538976,-0.00841339 0.00732677,-0.0186063 0.00548031,-0.0284016z"/>
  <path class="fil4" d="M3.93052 3.72844c0.00155118,0.000279528 0.00308661,0.000531496 0.0046378,0.000818898 0.169421,0.0312165 0.21115,0.0270512 0.375685,0.0963701l-0.00179528 -0.00073622c0.0641299,0.0347244 0.0847874,0.0575827 0.137594,0.102748 -0.0499528,-0.0264331 -0.0154331,-0.00596063 -0.0713976,-0.0445709 -0.134783,-0.0929646 -0.288169,-0.0985079 -0.445059,-0.122862l-0.00337795 -0.000496063c0.00483071,-0.00963386 0.00615748,-0.0207677 0.0037126,-0.0312717z"/>
  <path class="fil4" d="M4.41328 3.56744c0.0137598,-0.0122677 0.0269134,-0.0250748 0.0393819,-0.0385 0.0626024,-0.0673937 0.0861339,-0.0809843 0.120248,-0.156346l-0.000385827 0.000814961c0.00802362,-0.0313346 0.00262205,-0.0443937 -0.00211417,-0.0744094 -0.00666929,0.024252 -0.00356693,0.00693307 -0.00488583,0.0363898 -0.00318898,0.0709331 -0.0754134,0.126177 -0.136504,0.187429 -0.0134213,0.0134567 -0.0274213,0.0262165 -0.0419567,0.0383504 0.00997244,0.000291339 0.0193661,0.00255512 0.0262165,0.00627165z"/>
  <path class="fil4" d="M4.0259 3.70272c0.000807087,-0.000870079 0.00163386,-0.00172441 0.00243701,-0.00259843 0.088122,-0.0954843 0.118744,-0.113969 0.17498,-0.223272l-0.000625984 0.0011811c0.0161181,-0.045878 0.0125315,-0.0656181 0.0133386,-0.110437 -0.0130197,0.0354764 -0.0056811,0.0100236 -0.0135039,0.0535906 -0.0188465,0.104917 -0.115717,0.181713 -0.200748,0.268201l-0.00185039 0.00185039c0.0104291,0.00174803 0.0196772,0.00583465 0.0259724,0.0114843z"/>
  <path class="fil2" d="M2.85637 1.83078c0.741547,0.66739 0.59324,1.77971 0.519083,3.1145"/>
  <path class="fil5" d="M2.92343 1.77357c-0.0455945,-0.0410315 -0.115823,-0.0373346 -0.156858,0.00825984 -0.0410315,0.0455906 -0.0373346,0.115823 0.00825984,0.156854 0.633197,0.569878 0.57476,1.51787 0.504295,2.66105 -0.00724016,0.117484 -0.0146142,0.237016 -0.0217126,0.364815 -0.00335827,0.061189 0.0435236,0.113524 0.104713,0.116882 0.0611929,0.00335827 0.113524,-0.0435236 0.116882,-0.104713 0.00661417,-0.119035 0.0142283,-0.242559 0.0217126,-0.363949 0.0740551,-1.20142 0.135469,-2.19771 -0.577291,-2.8392z"/>
 </g>
</svg>
