<?xml version="1.0" encoding="UTF-8"?>
<!DOCTYPE svg PUBLIC "-//W3C//DTD SVG 1.1//EN" "http://www.w3.org/Graphics/SVG/1.1/DTD/svg11.dtd">
<!-- Creator: CorelDRAW -->
<svg xmlns="http://www.w3.org/2000/svg" xml:space="preserve" width="2048px" height="2048px" style="shape-rendering:geometricPrecision; text-rendering:geometricPrecision; image-rendering:optimizeQuality; fill-rule:evenodd; clip-rule:evenodd"
viewBox="0 0 2048 2048"
 xmlns:xlink="http://www.w3.org/1999/xlink">
 <defs>
  <style type="text/css">
   <![CDATA[
    .fil2 {fill:none}
    .fil4 {fill:#01579B}
    .fil1 {fill:#D81B60}
    .fil0 {fill:#EC407A}
    .fil5 {fill:#0091EA;fill-rule:nonzero}
    .fil3 {fill:#388E3C;fill-rule:nonzero}
   ]]>
  </style>
   <clipPath id="id0">
    <path d="M1024 -0.0011811c565.541,0 1024,458.461 1024,1024 0,565.541 -458.461,1024 -1024,1024 -565.541,0 -1024,-458.461 -1024,-1024 0,-565.541 458.461,-1024 1024,-1024z"/>
   </clipPath>
 </defs>
 <g id="Layer_x0020_1">
  <metadata id="CorelCorpID_0Corel-Layer"/>
  <path class="fil0" d="M1024 -0.0011811c565.541,0 1024,458.461 1024,1024 0,565.541 -458.461,1024 -1024,1024 -565.541,0 -1024,-458.461 -1024,-1024 0,-565.541 458.461,-1024 1024,-1024z"/>
  <g style="clip-path:url(#id0)">
   <g id="_466413376">
    <g>
     <polygon id="_4608932161" class="fil1" points="1362.1,699.389 2497.98,1835.27 2489.8,1827.28 2481.44,1819.53 2472.93,1811.99 2464.24,1804.69 2455.41,1797.62 2446.42,1790.78 2437.28,1784.18 2428,1777.82 2418.58,1771.69 2409.03,1765.81 2399.34,1760.16 2389.53,1754.77 2379.6,1749.61 2369.54,1744.71 2359.38,1740.05 2349.1,1735.65 2338.72,1731.5 2328.24,1727.6 2317.67,1723.96 2307,1720.58 2296.24,1717.46 2285.4,1714.6 2274.49,1712.01 2263.49,1709.68 2252.43,1707.61 2241.3,1705.82 2230.11,1704.3 2218.86,1703.05 2207.56,1702.07 2196.2,1701.38 2184.81,1700.96 2173.37,1700.82 2164.65,1700.9 2155.94,1701.15 2147.25,1701.56 2138.58,1702.13 2129.94,1702.86 2121.32,1703.76 2112.72,1704.82 2104.16,1706.04 2095.63,1707.42 2087.13,1708.96 2078.66,1710.65 2070.24,1712.51 2061.85,1714.52 2053.5,1716.69 2045.2,1719.02 2036.95,1721.5 2028.74,1724.13 2020.58,1726.92 2012.48,1729.87 2004.43,1732.96 1996.43,1736.21 1988.5,1739.61 1980.63,1743.16 1972.82,1746.86 1965.07,1750.72 1957.39,1754.72 1949.78,1758.86 1942.25,1763.16 1934.78,1767.61 1927.39,1772.2 1920.08,1776.93 1912.85,1781.82 1908.55,1784.82 1904.29,1787.86 1900.07,1790.95 1895.88,1794.09 1891.74,1797.27 1887.63,1800.5 1883.57,1803.77 1879.54,1807.08 1875.56,1810.43 1871.61,1813.83 1867.71,1817.28 1863.85,1820.76 1860.03,1824.28 1856.25,1827.85 1852.52,1831.46 1848.83,1835.11 1845.18,1838.79 1841.57,1842.52 1838.01,1846.29 1834.49,1850.1 1831.02,1853.94 1827.59,1857.82 1824.2,1861.75 1820.86,1865.7 1817.57,1869.7 1814.32,1873.73 1811.11,1877.8 1807.95,1881.91 1804.84,1886.05 1801.78,1890.22 1798.76,1894.44 1795.79,1898.68 659.908,762.798 662.879,758.553 665.897,754.341 668.962,750.166 672.073,746.025 675.231,741.919 678.434,737.851 681.684,733.818 684.98,729.821 688.32,725.864 691.706,721.942 695.136,718.059 698.611,714.213 702.129,710.406 705.691,706.64 709.297,702.911 712.947,699.224 716.639,695.575 720.374,691.968 724.151,688.401 727.971,684.876 731.832,681.393 735.733,677.951 739.677,674.552 743.662,671.196 747.686,667.883 751.751,664.614 755.856,661.388 760.001,658.208 764.186,655.071 768.408,651.98 772.671,648.934 776.971,645.934 784.202,641.051 791.512,636.315 798.899,631.724 806.364,627.279 813.902,622.982 821.51,618.833 829.189,614.833 836.935,610.981 844.745,607.28 852.618,603.728 860.553,600.328 868.547,597.08 876.596,593.983 884.701,591.039 892.857,588.25 901.065,585.615 909.321,583.134 917.622,580.809 925.967,578.639 934.354,576.628 942.781,574.772 951.245,573.075 959.746,571.537 968.279,570.158 976.843,568.939 985.437,567.879 994.058,566.982 1002.7,566.246 1011.37,565.673 1020.06,565.263 1028.77,565.016 1037.49,564.934 1048.93,565.074 1060.32,565.495 1071.68,566.193 1082.98,567.168 1094.23,568.417 1105.42,569.939 1116.55,571.732 1127.61,573.794 1138.6,576.123 1149.52,578.718 1160.36,581.578 1171.12,584.698 1181.79,588.08 1192.36,591.719 1202.84,595.615 1213.22,599.765 1223.5,604.17 1233.66,608.826 1243.71,613.731 1253.65,618.883 1263.46,624.282 1273.15,629.925 1282.7,635.809 1292.12,641.936 1301.4,648.3 1310.54,654.902 1319.53,661.739 1328.36,668.809 1337.04,676.111 1345.56,683.643 1353.92,691.403 "/>
     <polygon id="_460893264" class="fil1" points="578.254,1042.02 1714.14,2177.9 1716.03,2199.66 1717.09,2210.39 1718.39,2221.07 1719.94,2231.69 1721.73,2242.25 1723.76,2252.75 1726.03,2263.17 1728.54,2273.52 1731.28,2283.8 1734.26,2293.99 1737.47,2304.11 1740.9,2314.13 1744.57,2324.07 1748.46,2333.91 1752.58,2343.65 1756.92,2353.3 1761.48,2362.84 1766.27,2372.27 1771.27,2381.58 1776.48,2390.79 1781.91,2399.87 1787.55,2408.84 1793.4,2417.67 1799.47,2426.38 1805.74,2434.95 1812.21,2443.39 1818.89,2451.68 1825.77,2459.84 1832.85,2467.84 1840.13,2475.7 1847.6,2483.39 1855.27,2490.94 1863.14,2498.32 1871.17,2505.51 735.29,1369.63 727.257,1362.43 719.393,1355.05 711.722,1347.51 704.247,1339.81 696.968,1331.96 689.887,1323.95 683.007,1315.8 676.328,1307.5 669.854,1299.07 663.585,1290.49 657.524,1281.79 651.67,1272.95 646.028,1263.99 640.599,1254.91 635.384,1245.7 630.384,1236.38 625.603,1226.95 621.042,1217.42 616.701,1207.77 612.583,1198.03 608.69,1188.19 605.024,1178.25 601.586,1168.22 598.378,1158.11 595.401,1147.92 592.659,1137.64 590.151,1127.29 587.881,1116.86 585.85,1106.37 584.058,1095.81 582.51,1085.19 581.206,1074.51 580.146,1063.78 "/>
     <polygon id="_460893768" class="fil1" points="766.574,816.038 1902.46,1951.92 1696.99,2021.04 561.11,885.153 "/>
     <polygon id="_460893864" class="fil1" points="1385.38,724.449 2521.26,1860.33 2513.73,1851.81 2505.97,1843.46 2497.98,1835.27 1362.1,699.389 1370.09,707.574 1377.85,715.928 "/>
     <polygon id="_460893984" class="fil1" points="1116.61,948.591 2252.49,2084.47 2254.28,2086.39 2256.02,2088.35 2257.71,2090.36 2259.36,2092.4 2260.96,2094.49 2262.51,2096.61 2264.01,2098.77 2265.45,2100.97 2266.85,2103.21 2268.19,2105.48 2269.48,2107.79 2270.72,2110.12 2271.89,2112.5 2273.02,2114.9 2274.08,2117.34 2275.09,2119.81 2276.04,2122.3 2276.93,2124.83 2277.76,2127.38 2278.53,2129.96 2279.23,2132.57 2279.88,2135.2 2280.45,2137.86 2280.97,2140.54 2281.42,2143.24 2281.8,2145.96 2282.11,2148.71 2282.36,2151.47 2282.53,2154.26 2282.64,2157.06 2282.67,2159.88 1146.79,1024 1146.76,1021.18 1146.65,1018.38 1146.47,1015.59 1146.23,1012.83 1145.91,1010.08 1145.53,1007.36 1145.09,1004.65 1144.57,1001.97 1143.99,999.317 1143.35,996.686 1142.65,994.079 1141.88,991.5 1141.05,988.946 1140.16,986.421 1139.21,983.924 1138.2,981.458 1137.14,979.021 1136.01,976.615 1134.83,974.242 1133.6,971.903 1132.31,969.597 1130.97,967.326 1129.57,965.09 1128.12,962.891 1126.63,960.729 1125.08,958.606 1123.48,956.521 1121.83,954.477 1120.14,952.472 1118.4,950.511 "/>
     <polygon id="_460894080" class="fil1" points="561.11,885.153 1696.99,2021.04 1676.27,2028 540.394,892.122 "/>
     <polygon id="_462587296" class="fil1" points="1114.78,1101.29 2250.66,2237.17 2248.78,2239 2246.86,2240.79 2244.9,2242.53 2242.9,2244.22 2240.85,2245.87 2238.77,2247.47 2236.64,2249.02 2234.48,2250.51 2232.28,2251.96 2230.05,2253.36 2227.78,2254.7 2225.47,2255.99 2223.13,2257.22 2220.76,2258.4 2218.35,2259.53 2215.92,2260.59 2213.45,2261.6 2210.95,2262.55 2208.43,2263.44 2205.87,2264.27 2203.29,2265.04 2200.69,2265.74 2198.05,2266.38 2195.4,2266.96 2192.72,2267.47 2190.02,2267.92 2187.29,2268.3 2184.55,2268.62 2181.78,2268.86 2179,2269.04 2176.19,2269.15 2173.37,2269.18 1037.49,1133.3 1040.31,1133.27 1043.11,1133.16 1045.9,1132.98 1048.66,1132.74 1051.41,1132.42 1054.13,1132.04 1056.84,1131.59 1059.52,1131.08 1062.17,1130.5 1064.8,1129.86 1067.41,1129.15 1069.99,1128.39 1072.54,1127.56 1075.07,1126.67 1077.57,1125.72 1080.03,1124.71 1082.47,1123.64 1084.88,1122.52 1087.25,1121.34 1089.59,1120.11 1091.89,1118.82 1094.17,1117.48 1096.4,1116.08 1098.6,1114.63 1100.76,1113.13 1102.89,1111.58 1104.97,1109.99 1107.02,1108.34 1109.02,1106.65 1110.98,1104.9 1112.9,1103.12 "/>
     <polygon id="_462586432" class="fil1" points="1146.79,1024 2282.67,2159.88 2282.64,2162.7 2282.53,2165.51 2282.36,2168.29 2282.11,2171.06 2281.8,2173.8 2281.42,2176.53 2280.97,2179.23 2280.45,2181.91 2279.88,2184.57 2279.23,2187.2 2278.53,2189.8 2277.76,2192.38 2276.93,2194.94 2276.04,2197.46 2275.09,2199.96 2274.08,2202.42 2273.02,2204.86 2271.89,2207.27 2270.72,2209.64 2269.48,2211.98 2268.19,2214.29 2266.85,2216.56 2265.45,2218.79 2264.01,2220.99 2262.51,2223.15 2260.96,2225.28 2259.36,2227.36 2257.71,2229.41 2256.02,2231.41 2254.28,2233.37 2252.49,2235.29 2250.66,2237.17 1114.78,1101.29 1116.61,1099.41 1118.4,1097.49 1120.14,1095.53 1121.83,1093.52 1123.48,1091.48 1125.08,1089.39 1126.63,1087.27 1128.12,1085.11 1129.57,1082.91 1130.97,1080.67 1132.31,1078.4 1133.6,1076.1 1134.83,1073.76 1136.01,1071.38 1137.14,1068.98 1138.2,1066.54 1139.21,1064.08 1140.16,1061.58 1141.05,1059.05 1141.88,1056.5 1142.65,1053.92 1143.35,1051.31 1143.99,1048.68 1144.57,1046.03 1145.09,1043.35 1145.53,1040.64 1145.91,1037.92 1146.23,1035.17 1146.47,1032.41 1146.65,1029.62 1146.76,1026.82 "/>
     <polygon id="_462585112" class="fil1" points="1451.63,667.387 2587.52,1803.27 2596.21,1813.6 2604.62,1824.12 2612.76,1834.82 2620.62,1845.7 2628.19,1856.75 2635.49,1867.96 2642.49,1879.34 2649.21,1890.87 2655.64,1902.55 2661.77,1914.38 2667.61,1926.35 2673.16,1938.45 2678.4,1950.69 2683.34,1963.04 2687.98,1975.52 2692.32,1988.11 2696.34,2000.81 2700.06,2013.62 2703.46,2026.53 2706.55,2039.52 2709.33,2052.61 2711.78,2065.78 2713.92,2079.03 2715.73,2092.35 2717.22,2105.74 2718.38,2119.2 2719.21,2132.71 2719.71,2146.27 2719.88,2159.88 2719.71,2173.49 2719.21,2187.06 2718.38,2200.57 2717.22,2214.02 2715.73,2227.41 2713.92,2240.73 2711.78,2253.98 2709.33,2267.15 2706.55,2280.24 2703.46,2293.24 2700.06,2306.14 2696.34,2318.95 2692.32,2331.65 2687.98,2344.24 2683.34,2356.72 2678.4,2369.08 2673.16,2381.31 2667.61,2393.42 2661.77,2405.38 2655.64,2417.21 2649.21,2428.89 2642.49,2440.43 2635.49,2451.8 2628.19,2463.02 2620.62,2474.06 2612.76,2484.94 2604.62,2495.64 2596.21,2506.16 2587.52,2516.5 2578.55,2526.64 2569.32,2536.58 2559.81,2546.32 1423.93,1410.44 1433.43,1400.7 1442.67,1390.75 1451.63,1380.61 1460.33,1370.28 1468.74,1359.76 1476.88,1349.06 1484.74,1338.18 1492.31,1327.13 1499.61,1315.92 1506.61,1304.54 1513.33,1293.01 1519.76,1281.33 1525.89,1269.5 1531.73,1257.53 1537.27,1245.43 1542.52,1233.2 1547.46,1220.84 1552.1,1208.36 1556.43,1195.77 1560.46,1183.07 1564.18,1170.26 1567.58,1157.36 1570.67,1144.36 1573.45,1131.27 1575.9,1118.1 1578.04,1104.85 1579.85,1091.53 1581.34,1078.14 1582.5,1064.69 1583.33,1051.17 1583.83,1037.61 1584,1024 1583.83,1010.39 1583.33,996.825 1582.5,983.315 1581.34,969.861 1579.85,956.47 1578.04,943.149 1575.9,929.899 1573.45,916.729 1570.67,903.641 1567.58,890.643 1564.18,877.738 1560.46,864.933 1556.43,852.231 1552.1,839.638 1547.46,827.161 1542.52,814.803 1537.27,802.569 1531.73,790.466 1525.89,778.498 1519.76,766.671 1513.33,754.988 1506.61,743.457 1499.61,732.081 1492.31,720.866 1484.74,709.818 1476.88,698.94 1468.74,688.24 1460.33,677.721 "/>
     <polygon id="_462582904" class="fil1" points="1037.49,1133.3 2173.37,2269.18 2170.55,2269.15 2167.75,2269.04 2164.96,2268.86 2162.2,2268.62 2159.45,2268.3 2156.73,2267.92 2154.03,2267.47 2151.35,2266.96 2148.69,2266.38 2146.06,2265.74 2143.45,2265.04 2140.87,2264.27 2138.32,2263.44 2135.79,2262.55 2133.3,2261.6 2130.83,2260.59 2128.39,2259.53 2125.99,2258.4 2123.62,2257.22 2121.28,2255.99 2118.97,2254.7 2116.7,2253.36 2114.46,2251.96 2112.26,2250.51 2110.1,2249.02 2107.98,2247.47 2105.89,2245.87 2103.85,2244.22 2101.85,2242.53 2099.88,2240.79 2097.96,2239 962.082,1103.12 964.001,1104.9 965.964,1106.65 967.967,1108.34 970.012,1109.99 972.096,1111.58 974.22,1113.13 976.383,1114.63 978.582,1116.08 980.817,1117.48 983.088,1118.82 985.394,1120.11 987.734,1121.34 990.107,1122.52 992.513,1123.64 994.948,1124.71 997.416,1125.72 999.913,1126.67 1002.44,1127.56 1004.99,1128.39 1007.57,1129.15 1010.18,1129.86 1012.81,1130.5 1015.47,1131.08 1018.14,1131.59 1020.85,1132.04 1023.57,1132.42 1026.32,1132.74 1029.08,1132.98 1031.87,1133.16 1034.67,1133.27 "/>
     <polygon id="_462582088" class="fil1" points="1423.93,1410.44 2559.81,2546.32 2550.07,2555.82 2540.13,2565.06 2529.98,2574.03 2519.65,2582.72 2509.13,2591.13 2498.43,2599.27 2487.55,2607.13 2476.51,2614.7 2465.29,2622 2453.92,2629 2442.38,2635.72 2430.7,2642.15 2418.87,2648.28 2406.91,2654.12 2394.8,2659.67 2382.57,2664.91 2370.21,2669.85 2357.73,2674.49 2345.14,2678.82 2332.44,2682.85 2319.63,2686.57 2306.73,2689.97 2293.73,2693.06 2280.64,2695.84 2267.47,2698.29 2254.22,2700.43 2240.9,2702.24 2227.51,2703.73 2214.06,2704.89 2200.55,2705.72 2186.98,2706.22 2173.37,2706.39 2160.54,2706.24 2147.74,2705.79 2134.99,2705.05 2122.28,2704.01 2109.63,2702.68 2097.03,2701.06 2084.5,2699.16 2072.03,2696.96 2059.63,2694.48 2047.31,2691.71 2035.06,2688.66 2022.9,2685.34 2010.83,2681.73 1998.85,2677.85 1986.97,2673.69 1975.18,2669.26 1963.51,2664.56 1951.94,2659.59 1940.49,2654.35 1929.16,2648.84 1917.95,2643.07 1906.86,2637.04 1895.92,2630.75 1885.1,2624.19 1874.43,2617.38 1863.9,2610.32 1853.53,2603 1843.31,2595.43 1833.24,2587.6 1823.34,2579.53 1813.61,2571.21 677.728,1435.33 687.461,1443.65 697.361,1451.72 707.424,1459.54 717.645,1467.12 728.023,1474.43 738.549,1481.5 749.221,1488.31 760.034,1494.86 770.983,1501.16 782.065,1507.19 793.275,1512.96 804.608,1518.47 816.06,1523.7 827.626,1528.68 839.303,1533.38 851.085,1537.81 862.968,1541.97 874.949,1545.85 887.022,1549.46 899.183,1552.78 911.427,1555.83 923.75,1558.59 936.148,1561.08 948.617,1563.27 961.151,1565.18 973.746,1566.8 986.4,1568.13 999.105,1569.17 1011.86,1569.91 1024.65,1570.36 1037.49,1570.51 1051.1,1570.34 1064.67,1569.84 1078.18,1569.01 1091.63,1567.85 1105.02,1566.36 1118.34,1564.55 1131.59,1562.41 1144.76,1559.96 1157.85,1557.18 1170.85,1554.09 1183.75,1550.69 1196.56,1546.97 1209.26,1542.94 1221.85,1538.61 1234.33,1533.97 1246.69,1529.03 1258.92,1523.78 1271.02,1518.24 1282.99,1512.4 1294.82,1506.27 1306.5,1499.84 1318.03,1493.12 1329.41,1486.11 1340.62,1478.82 1351.67,1471.25 1362.55,1463.39 1373.25,1455.25 1383.77,1446.83 1394.1,1438.14 1404.24,1429.18 1414.19,1419.94 "/>
    </g>
    <path id="_466413112" class="fil1" d="M1037.49 477.492c145.42,0 283.628,57.2599 386.439,160.07 102.81,102.81 160.07,241.019 160.07,386.438 0,145.419 -57.2599,283.628 -160.07,386.438 -102.811,102.81 -241.019,160.07 -386.439,160.07 -137.113,0 -268.279,-51.0993 -369.323,-143.739 -101.032,-92.6292 -163.254,-218.874 -175.128,-355.447l-1.89449 -21.7925 87.1087 -7.51418 1.89213 21.763c9.97796,114.771 62.204,220.811 147.111,298.656 84.8953,77.8335 195.054,120.632 310.233,120.632 122.19,0 238.225,-48.0674 324.612,-134.456 86.3871,-86.3883 134.456,-202.422 134.456,-324.611 0,-122.189 -48.0685,-238.223 -134.456,-324.611 -86.3871,-86.3883 -202.422,-134.456 -324.612,-134.456 -93.1324,0 -183.829,28.1492 -260.519,81.0001 -46.0772,31.754 -85.6323,71.3977 -117.063,116.864l106.665 53.2406 -205.464 69.1146 -20.7166 6.96851 -6.96969 -20.7166 -69.4253 -206.393 117.071 58.4351c38.4827,-58.4339 88.0383,-109.207 146.327,-149.378 91.278,-62.902 199.22,-96.5776 310.094,-96.5776zm0 437.208c30.1807,0 57.5056,12.235 77.2867,32.015 19.7799,19.7799 32.0162,47.1059 32.0162,77.2855 0,30.1796 -12.2362,57.5056 -32.0162,77.2855 -19.7811,19.7799 -47.1059,32.015 -77.2867,32.015 -30.1784,0 -57.5044,-12.235 -77.2855,-32.015 -19.7799,-19.7799 -32.015,-47.1059 -32.015,-77.2855 0,-30.1796 12.235,-57.5056 32.015,-77.2855 19.7811,-19.7799 47.1071,-32.015 77.2855,-32.015z"/>
   </g>
  </g>
  <path class="fil2" d="M1024 -0.0011811c565.541,0 1024,458.461 1024,1024 0,565.541 -458.461,1024 -1024,1024 -565.541,0 -1024,-458.461 -1024,-1024 0,-565.541 458.461,-1024 1024,-1024z"/>
  <path class="fil3" d="M1037.49 914.698c30.1796,0 57.5044,12.2362 77.2855,32.0162 19.7799,19.7799 32.015,47.1059 32.015,77.2855 0,30.1796 -12.235,57.5056 -32.015,77.2855 -19.7811,19.7799 -47.1059,32.0162 -77.2855,32.0162 -30.1796,0 -57.5056,-12.2362 -77.2867,-32.0162 -19.7799,-19.7799 -32.015,-47.1059 -32.015,-77.2855 0,-30.1796 12.235,-57.5056 32.015,-77.2855 19.7811,-19.7799 47.1071,-32.0162 77.2867,-32.0162z"/>
  <path class="fil4" d="M548.241 780.517c41.1248,-82.6583 102.611,-153.696 179.157,-206.447 91.2768,-62.902 199.22,-96.5776 310.094,-96.5776 145.419,0 283.627,57.2599 386.438,160.07 102.81,102.81 160.07,241.019 160.07,386.438 0,145.419 -57.2599,283.628 -160.07,386.438 -102.811,102.81 -241.019,160.07 -386.438,160.07 -137.114,0 -268.281,-51.1004 -369.325,-143.739 -101.032,-92.6292 -163.253,-218.874 -175.127,-355.446l-1.89449 -21.7937 87.1087 -7.51418 1.89213 21.763c9.97796,114.771 62.204,220.811 147.112,298.657 84.8942,77.8323 195.053,120.631 310.233,120.631 122.189,0 238.223,-48.0674 324.611,-134.456 86.3883,-86.3871 134.456,-202.422 134.456,-324.611 0,-122.189 -48.0674,-238.224 -134.456,-324.611 -86.3883,-86.3883 -202.422,-134.456 -324.611,-134.456 -93.1335,0 -183.829,28.1492 -260.521,81.0001 -59.889,41.2725 -108.761,95.8737 -143.093,159.265l-85.6371 -24.6815z"/>
  <polygon class="fil5" points="766.574,816.038 561.11,885.153 540.394,892.122 533.424,871.404 464,665.012 "/>
 </g>
</svg>
