<?xml version="1.0" encoding="utf-8"?>
<!-- Generator: Adobe Illustrator 24.0.0, SVG Export Plug-In . SVG Version: 6.00 Build 0)  -->
<svg version="1.1" id="Layer_1" xmlns="http://www.w3.org/2000/svg" xmlns:xlink="http://www.w3.org/1999/xlink" x="0px" y="0px"
	 viewBox="0 0 256 256" enable-background="new 0 0 256 256" xml:space="preserve">
<g>
</g>
<g>
	<polygon fill="#72C2E9" points="252.333,253.192 3.667,253.192 3.667,83.796 128,2.796 252.333,83.796 	"/>
	<path fill="#C5E5FE" d="M239.334,242.693H34.685c-1.381,0-2.5-1.119-2.5-2.5s1.119-2.5,2.5-2.5h202.149V90.842
		c0-1.381,1.119-2.5,2.5-2.5s2.5,1.119,2.5,2.5v149.351C241.834,241.574,240.715,242.693,239.334,242.693z M24.685,242.693h-8.018
		c-1.381,0-2.5-1.119-2.5-2.5s1.119-2.5,2.5-2.5h8.018c1.381,0,2.5,1.119,2.5,2.5S26.065,242.693,24.685,242.693z"/>
	<path fill="#EFEFEF" d="M162.75,162.989L162.75,162.989c0-4.004-3.246-7.25-7.25-7.25h-20.25v-34.956
		c15.815-3.816,27.322-18.677,25.878-35.968c-1.383-16.554-14.889-29.847-31.461-30.993C109.796,52.45,93.25,68.162,93.25,87.739
		c0,16.021,11.084,29.446,26,33.044v90.872c0,4.418,3.582,8,8,8c4.417,0,8-3.58,8-8v-12.417h20.25c4.004,0,7.25-3.246,7.25-7.25v0
		c0-4.004-3.246-7.25-7.25-7.25h-20.25v-14.5h20.25C159.504,170.239,162.75,166.993,162.75,162.989z"/>
	<path fill="#FC5D3D" d="M145.581,87.864l-18.331,18.331l-18.33-18.33c-3.375-3.375-3.374-8.846,0.001-12.221l0.001-0.001
		c3.374-3.373,8.844-3.373,12.218,0.001l6.11,6.11l6.113-6.111c3.374-3.373,8.844-3.373,12.218,0.001v0
		C148.955,79.019,148.955,84.49,145.581,87.864z"/>
	<path d="M1.17,83.794v169.4c0,1.417,1.148,2.5,2.5,2.5h248.66c1.4,0,2.5-1.129,2.5-2.5v-169.4c0-0.84-0.42-1.63-1.13-2.09
		l-124.341-81c-0.81-0.53-1.91-0.53-2.72,0l-64.06,41.73c-1.16,0.75-1.49,2.3-0.74,3.46c0.73,1.11,2.34,1.46,3.47,0.73
		c0,0,0-0.01,0.01-0.01L128,5.784l121.83,79.37v165.54H6.17V85.154l42.38-27.61c1.15-0.76,1.48-2.31,0.73-3.46
		c-0.73-1.12-2.34-1.46-3.46-0.73L2.3,81.704C1.59,82.164,1.17,82.944,1.17,83.794z"/>
	<path d="M54.2,47.894c-1.191,0.766-1.466,2.347-0.73,3.46c0.748,1.154,2.288,1.473,3.46,0.73c1.15-0.76,1.48-2.31,0.73-3.46
		C56.93,47.504,55.32,47.164,54.2,47.894z"/>
	<path d="M143.81,89.634c0.95,0.94,2.59,0.94,3.54,0c4.333-4.352,4.365-11.376,0-15.76c-4.4-4.38-11.431-4.318-15.75,0l-4.35,4.35
		l-4.34-4.35c-4.331-4.332-11.377-4.362-15.75-0.01c0,0.01-0.01,0.01-0.01,0.01c-4.349,4.349-4.366,11.394,0,15.76l18.33,18.33
		c0.945,0.946,2.518,1.002,3.54,0l4.19-4.19c0.97-0.97,0.97-2.56,0-3.53c-0.95-0.95-2.58-0.95-3.53-0.01c0,0,0,0-0.01,0l-2.42,2.43
		l-16.56-16.57c-2.404-2.403-2.401-6.279,0-8.68c2.371-2.372,6.249-2.431,8.68,0l6.11,6.11c0.95,0.94,2.59,0.94,3.54,0l6.11-6.11
		c2.372-2.372,6.248-2.432,8.68,0c2.402,2.402,2.401,6.279,0,8.68C142.807,87.119,142.865,88.689,143.81,89.634z"/>
	<path d="M136.74,93.164c-0.971,0.98-0.971,2.56,0,3.54c0.973,0.973,2.562,0.976,3.54,0c0.943-0.944,1.003-2.515,0-3.54
		C139.33,92.224,137.689,92.224,136.74,93.164z"/>
	<path d="M163.62,84.614c-1.51-17.8-15.945-32.028-33.78-33.29c-22.246-1.301-39.09,16.053-39.09,36.42
		c0,16.704,11.161,30.515,26,34.95v33.97c0,1.38,1.12,2.5,2.5,2.5c1.38,0,2.5-1.12,2.5-2.5v-35.88c0-1.16-0.79-2.16-1.91-2.43
		c-14.19-3.42-24.1-16.01-24.09-30.61c0.031-17.908,15.173-32.647,33.74-31.43c15.35,1.05,27.88,13.39,29.149,28.71
		c1.269,16.244-9.307,29.794-23.979,33.33c-1.12,0.27-1.91,1.27-1.91,2.43v34.96c0,1.398,1.154,2.5,2.5,2.5h20.25
		c2.609,0,4.75,2.13,4.75,4.75c0,2.61-2.141,4.74-4.75,4.75h-20.25c-1.387,0-2.5,1.117-2.5,2.5v14.5c0,1.382,1.14,2.5,2.5,2.5h20.25
		c2.609,0,4.75,2.13,4.75,4.75c0,2.61-2.141,4.74-4.75,4.75h-20.25c-1.387,0-2.5,1.117-2.5,2.5v12.41c-0.01,3.03-2.47,5.5-5.5,5.5
		s-5.5-2.47-5.5-5.5v-34.99c0-1.38-1.12-2.5-2.5-2.5c-1.38,0-2.5,1.12-2.5,2.5v34.99c0,5.79,4.71,10.5,10.5,10.5
		s10.5-4.71,10.5-10.5v-9.92h17.75c5.37,0,9.75-4.37,9.75-9.74c0-5.38-4.38-9.75-9.75-9.75h-17.75v-9.5h17.75
		c5.37-0.01,9.75-4.38,9.75-9.76c0-5.37-4.38-9.74-9.75-9.74h-17.75v-30.55C153.075,118.113,165.032,103.303,163.62,84.614z"/>
	<circle cx="119.25" cy="166.664" r="2.5"/>
</g>
</svg>
