<svg xmlns="http://www.w3.org/2000/svg" viewBox="0 0 64 64"><g id="_28-Agency" data-name="28-Agency"><rect x="47" y="11" width="10" height="2" style="fill:#ffee6e"/><rect x="46.469" y="5" width="8.062" height="2" transform="translate(3.677 25.846) rotate(-29.745)" style="fill:#ffee6e"/><rect x="49.5" y="13.969" width="2" height="8.062" transform="translate(9.817 52.916) rotate(-60.255)" style="fill:#ffee6e"/><rect x="7" y="11" width="10" height="2" style="fill:#ffee6e"/><rect x="12.5" y="1.969" width="2" height="8.062" transform="translate(1.593 14.744) rotate(-60.255)" style="fill:#ffee6e"/><rect x="9.469" y="17" width="8.062" height="2" transform="translate(-7.152 9.069) rotate(-29.745)" style="fill:#ffee6e"/><path d="M36.707,26.293l-1.414,1.414L37.586,30H33V24H31v6H26.414l2.293-2.293-1.414-1.414-4,4A.974.974,0,0,0,23.3,31.7l-.006.006,4,4,1.414-1.414L26.414,32H37.586l-2.293,2.293,1.414,1.414,4-4L40.7,31.7a.974.974,0,0,0,.006-1.408Z" style="fill:#afb4c8"/><rect x="26" y="13" width="4" height="8" style="fill:#b2876d"/><rect x="28" y="13" width="2" height="8" style="fill:#966857"/><polygon points="27 1 27 3.73 23 5.91 23 1 27 1" style="fill:#966857"/><polygon points="25 1 23 1 23 5.91 25 4.82 25 1" style="fill:#b2876d"/><rect x="33" y="13" width="5" height="4" style="fill:#a3d4ff"/><rect x="33" y="15" width="5" height="2" style="fill:#65b1fc"/><path d="M38,13H33v4h5Zm3-3.09V21H30V13H26v8H23V9.91L32,5Z" style="fill:#f7f7f7"/><polygon points="32 5 23 9.91 23 11.91 32 7 41 11.91 41 9.91 32 5" style="fill:#cfcfcf"/><polygon points="27 3.73 32 1 43 7 43 11 41 9.91 32 5 23 9.91 21 11 21 7 23 5.91 27 3.73" style="fill:#ff936b"/><polygon points="32 3 23 7.91 21 9 21 11 23 9.91 32 5 41 9.91 43 11 43 9 41 7.91 32 3" style="fill:#ff7045"/><path d="M43,31v2h3c7,0,7-3,7-3a2.938,2.938,0,0,0,3,3h3V31a8,8,0,0,0-16,0Z" style="fill:#966857"/><path d="M53,28a2.938,2.938,0,0,0,3,3h3v2H56a2.938,2.938,0,0,1-3-3s0,3-7,3H43V31h3C53,31,53,28,53,28Z" style="fill:#8d5c4d"/><polygon points="39 47 39 63 63 63 63 47 53 45 51 47 49 45 39 47" style="fill:#e9edf5"/><polygon points="49 45 51 47 53 45 63 47 63 50 53 48 51 50 49 48 39 50 39 47 49 45" style="fill:#cdd2e1"/><path d="M49,42.59V45l2,2,2-2V42.59a5.083,5.083,0,0,1-4,0Z" style="fill:#faa68e"/><path d="M56,33v5h1a2.006,2.006,0,0,0,2-2V33Z" style="fill:#faa68e"/><path d="M43,33v3a2.006,2.006,0,0,0,2,2h1V33Z" style="fill:#faa68e"/><path d="M49,42.59a5,5,0,0,0,5.54-1.05A5.022,5.022,0,0,0,56,38V33a2.938,2.938,0,0,1-3-3s0,3-7,3v5A5.029,5.029,0,0,0,49,42.59Z" style="fill:#ffcdbe"/><path d="M53,30a2.938,2.938,0,0,0,3,3v2a2.938,2.938,0,0,1-3-3s0,3-7,3V33C53,33,53,30,53,30Z" style="fill:#ffbeaa"/><polygon points="50 52 49 58 51 60 53 58 52 52 50 52" style="fill:#a3d4ff"/><polygon points="48 50 50 52 52 52 54 50 51 47 48 50" style="fill:#65b1fc"/><polygon points="46.22 45.56 48 50 51 47 49 45 46.22 45.56" style="fill:#afb4c8"/><polygon points="51 47 54 50 55.78 45.56 53 45 51 47" style="fill:#afb4c8"/><path d="M5,31v2H8c7,0,7-3,7-3a2.938,2.938,0,0,0,3,3h3V31A8,8,0,0,0,5,31Z" style="fill:#966857"/><path d="M15,28a2.938,2.938,0,0,0,3,3h3v2H18a2.938,2.938,0,0,1-3-3s0,3-7,3H5V31H8C15,31,15,28,15,28Z" style="fill:#8d5c4d"/><polygon points="1 47 1 63 25 63 25 47 15 45 13 47 11 45 1 47" style="fill:#9c9c9c"/><polygon points="11 45 13 47 15 45 25 47 25 50 15 48 13 50 11 48 1 50 1 47 11 45" style="fill:#cfcfcf"/><path d="M11,42.59V45l2,2,2-2V42.59a5.083,5.083,0,0,1-4,0Z" style="fill:#faa68e"/><path d="M18,33v5h1a2.006,2.006,0,0,0,2-2V33Z" style="fill:#faa68e"/><path d="M5,33v3a2.006,2.006,0,0,0,2,2H8V33Z" style="fill:#faa68e"/><path d="M11,42.59a5,5,0,0,0,5.54-1.05A5.022,5.022,0,0,0,18,38V33a2.938,2.938,0,0,1-3-3s0,3-7,3v5A5.029,5.029,0,0,0,11,42.59Z" style="fill:#ffcdbe"/><path d="M15,30a2.938,2.938,0,0,0,3,3v2a2.938,2.938,0,0,1-3-3s0,3-7,3V33C15,33,15,30,15,30Z" style="fill:#ffbeaa"/><path d="M25.2,46.02,16,44.18v-.992A6.007,6.007,0,0,0,18.91,39H19a3,3,0,0,0,3-3V31A9,9,0,0,0,4,31v5a3,3,0,0,0,3,3h.09A6.007,6.007,0,0,0,10,43.188v.992L.8,46.02A1,1,0,0,0,0,47V63a1,1,0,0,0,1,1H25a1,1,0,0,0,1-1V47A1,1,0,0,0,25.2,46.02ZM19,37V34h1v2A1,1,0,0,1,19,37ZM6,36V34H7v3A1,1,0,0,1,6,36Zm2-4H6V31a7,7,0,0,1,14,0v1H18a1.883,1.883,0,0,1-2-2,1.019,1.019,0,0,0-1-1.023.979.979,0,0,0-1,.966v.015C13.983,30.068,13.586,32,8,32Zm1,1.979c2.99-.129,4.7-.84,5.687-1.628A3.963,3.963,0,0,0,17,33.874V38a4,4,0,0,1-8,0ZM13,44a6,6,0,0,0,1-.09v.676l-1,1-1-1V43.91A6,6,0,0,0,13,44ZM2,47.819l8.671-1.734L12,47.414V62H2ZM24,62H14V47.414l1.329-1.329L24,47.819Z"/><path d="M63.2,46.02,54,44.18v-.992A6.007,6.007,0,0,0,56.91,39H57a3,3,0,0,0,3-3V31a9,9,0,0,0-18,0v5a3,3,0,0,0,3,3h.09A6.007,6.007,0,0,0,48,43.188v.992l-9.2,1.84A1,1,0,0,0,38,47V63a1,1,0,0,0,1,1H63a1,1,0,0,0,1-1V47A1,1,0,0,0,63.2,46.02Zm-14.525.065.915.915-1.221,1.221L47.6,46.3Zm3.258,11.572L51,58.586l-.929-.929L50.847,53h.306ZM51.586,51H50.414l-1-1L51,48.414,52.586,50Zm.828-4,.915-.915L54.4,46.3l-.768,1.921ZM57,37V34h1v2A1,1,0,0,1,57,37ZM44,36V34h1v3A1,1,0,0,1,44,36Zm2-4H44V31a7,7,0,0,1,14,0v1H56a1.883,1.883,0,0,1-2-2,1.019,1.019,0,0,0-1-1.023.979.979,0,0,0-1,.966v.015C51.983,30.068,51.586,32,46,32Zm1,1.979c2.99-.129,4.7-.84,5.687-1.628A3.963,3.963,0,0,0,55,33.874V38a4,4,0,0,1-8,0ZM51,44a6,6,0,0,0,1-.09v.676l-1,1-1-1V43.91A6,6,0,0,0,51,44ZM40,47.819l5.6-1.12,1.469,3.672a.978.978,0,0,0,.227.331l-.005.005,1.636,1.636-.915,5.493a1,1,0,0,0,.279.871L50,60.414V62H40ZM62,62H52V60.414l1.707-1.707a1,1,0,0,0,.279-.871l-.915-5.493,1.636-1.636L54.7,50.7a.978.978,0,0,0,.227-.331L56.4,46.7l5.6,1.12Z"/><path d="M20.489,11.86a1,1,0,0,0,.99.018L22,11.593V21a1,1,0,0,0,1,1H41a1,1,0,0,0,1-1V11.593l.521.285A1,1,0,0,0,44,11V7a1,1,0,0,0-.521-.878l-11-6a1,1,0,0,0-.958,0L28,2.043V1a1,1,0,0,0-1-1H23a1,1,0,0,0-1,1V5.316l-1.479.806A1,1,0,0,0,20,7v4A1,1,0,0,0,20.489,11.86ZM27,20V14h2v6Zm13,0H31V13a1,1,0,0,0-1-1H26a1,1,0,0,0-1,1v7H24V10.5l8-4.364L40,10.5ZM24,2h2V3.134L24,4.225ZM22,7.594,32,2.139,42,7.594V9.315L32.479,4.122a1,1,0,0,0-.958,0L22,9.315Z"/><path d="M32,17a1,1,0,0,0,1,1h5a1,1,0,0,0,1-1V13a1,1,0,0,0-1-1H33a1,1,0,0,0-1,1Zm2-3h3v2H34Z"/><rect x="47" y="11" width="10" height="2"/><rect x="46.469" y="5" width="8.062" height="2" transform="translate(3.677 25.846) rotate(-29.745)"/><rect x="49.5" y="13.969" width="2" height="8.062" transform="translate(9.817 52.916) rotate(-60.255)"/><rect x="7" y="11" width="10" height="2"/><rect x="12.5" y="1.969" width="2" height="8.062" transform="translate(1.593 14.744) rotate(-60.255)"/><rect x="9.469" y="17" width="8.062" height="2" transform="translate(-7.152 9.069) rotate(-29.745)"/><path d="M40.7,31.7a.974.974,0,0,0,.006-1.408l-4-4-1.414,1.414L37.586,30H33V24H31v6H26.414l2.293-2.293-1.414-1.414-4,4A.974.974,0,0,0,23.3,31.7l-.006.006,4,4,1.414-1.414L26.414,32H37.586l-2.293,2.293,1.414,1.414,4-4Z"/></g></svg>