<?xml version="1.0" encoding="UTF-8"?>
<!DOCTYPE svg PUBLIC "-//W3C//DTD SVG 1.1//EN" "http://www.w3.org/Graphics/SVG/1.1/DTD/svg11.dtd">
<!-- Creator: CorelDRAW -->
<svg xmlns="http://www.w3.org/2000/svg" xml:space="preserve" width="6.82666in" height="6.82666in" style="shape-rendering:geometricPrecision; text-rendering:geometricPrecision; image-rendering:optimizeQuality; fill-rule:evenodd; clip-rule:evenodd"
viewBox="0 0 6.82666 6.82666"
 xmlns:xlink="http://www.w3.org/1999/xlink">
 <defs>
  <style type="text/css">
   <![CDATA[
    .fil4 {fill:none}
    .fil1 {fill:#F57F17}
    .fil0 {fill:#FFA726}
    .fil3 {fill:#FFF3E0}
    .fil2 {fill:#E53935;fill-rule:nonzero}
   ]]>
  </style>
 </defs>
 <g id="Layer_x0020_1">
  <metadata id="CorelCorpID_0Corel-Layer"/>
  <g id="_246832992">
   <g>
    <polygon id="_246833856" class="fil0" points="1.36441,3.04297 3.41333,1.2198 5.46225,3.11537 5.46225,5.79655 1.36441,5.79655 "/>
    <g>
     <polygon id="_246833136" class="fil1" points="1.36826,3.03955 3.41333,1.2198 5.46225,3.11537 5.46225,3.42249 3.41333,1.52693 1.36441,3.42248 1.36441,3.04311 "/>
     <polygon id="_246833424" class="fil2" points="0.853331,3.3985 3.31877,1.11759 3.41333,1.03011 3.50789,1.11759 5.97333,3.3985 5.78421,3.60292 3.41333,1.40949 1.04245,3.60292 "/>
    </g>
   </g>
   <path id="_246832920" class="fil3" d="M3.04122 3.56219l0 -0.110543c0,-0.0692677 0.0282953,-0.132197 0.073874,-0.17778 0.0455827,-0.0455787 0.108512,-0.073874 0.17778,-0.073874l0.231563 0c0.0692677,0 0.132197,0.0282953 0.177776,0.073874 0.0455827,0.0455827 0.073878,0.108512 0.073878,0.17778l0 0.360476 0.127445 0c0.0299055,0 0.0574803,0.0112165 0.0777992,0.0292756 0.0222126,0.019752 0.0360039,0.0475591 0.0360039,0.0786614l0 0.882256c0,0.0311063 -0.0137913,0.0589173 -0.0360079,0.0786575 -0.0203189,0.0180669 -0.0478858,0.0292795 -0.0777953,0.0292795l-0.980409 0c-0.0299055,0 -0.0574803,-0.0112165 -0.0778031,-0.0292756 -0.0222126,-0.0197441 -0.0360039,-0.0475551 -0.0360039,-0.0786614l0 -0.882256c0,-0.0311063 0.0137874,-0.0589173 0.0360039,-0.0786614 0.0203189,-0.018063 0.0478937,-0.0292756 0.0778031,-0.0292756l0.730945 0 0 -0.360476c0,-0.0355866 -0.0146024,-0.0679882 -0.038122,-0.0915079 -0.0235276,-0.0235276 -0.0559291,-0.038126 -0.0915118,-0.038126l-0.231563 0c-0.0355866,0 -0.0679882,0.0145984 -0.0915118,0.038126 -0.0235236,0.0235197 -0.038126,0.0559213 -0.038126,0.0915079l0 0.110543 -0.122016 0z"/>
  </g>
  <g id="_246832752">
   <rect id="_246833544" class="fil4" width="6.82666" height="6.82666"/>
   <rect id="_246833568" class="fil4" x="0.853331" y="0.853331" width="5.12" height="5.12"/>
  </g>
 </g>
</svg>
