<?xml version="1.0" encoding="UTF-8"?>
<!DOCTYPE svg PUBLIC "-//W3C//DTD SVG 1.1//EN" "http://www.w3.org/Graphics/SVG/1.1/DTD/svg11.dtd">
<!-- Creator: CorelDRAW -->
<svg xmlns="http://www.w3.org/2000/svg" xml:space="preserve" width="6.82666in" height="6.82666in" style="shape-rendering:geometricPrecision; text-rendering:geometricPrecision; image-rendering:optimizeQuality; fill-rule:evenodd; clip-rule:evenodd"
viewBox="0 0 6.82666 6.82666"
 xmlns:xlink="http://www.w3.org/1999/xlink">
 <defs>
  <style type="text/css">
   <![CDATA[
    .fil2 {fill:none}
    .fil1 {fill:#E6A545}
    .fil0 {fill:#FFB74D}
    .fil5 {fill:#424242;fill-rule:nonzero}
    .fil4 {fill:#5F6875;fill-rule:nonzero}
    .fil6 {fill:#6C6D6F;fill-rule:nonzero}
    .fil3 {fill:#7F8690;fill-rule:nonzero}
   ]]>
  </style>
   <clipPath id="id0">
    <path d="M3.41333 0c1.88513,0 3.41333,1.5282 3.41333,3.41333 0,1.88513 -1.5282,3.41333 -3.41333,3.41333 -1.88513,0 -3.41333,-1.5282 -3.41333,-3.41333 0,-1.88513 1.5282,-3.41333 3.41333,-3.41333z"/>
   </clipPath>
 </defs>
 <g id="Layer_x0020_1">
  <metadata id="CorelCorpID_0Corel-Layer"/>
  <path class="fil0" d="M3.41333 0c1.88513,0 3.41333,1.5282 3.41333,3.41333 0,1.88513 -1.5282,3.41333 -3.41333,3.41333 -1.88513,0 -3.41333,-1.5282 -3.41333,-3.41333 0,-1.88513 1.5282,-3.41333 3.41333,-3.41333z"/>
  <g style="clip-path:url(#id0)">
   <g id="_414975848">
    <g>
     <polygon id="_3667039361" class="fil1" points="4.42667,2.26231 8.21293,6.04859 8.21293,6.62619 4.42667,2.83992 "/>
     <polygon id="_366703744" class="fil1" points="4.88797,3.13881 8.67424,6.92508 8.683,6.93485 8.69165,6.94472 8.70019,6.9547 8.7086,6.96478 8.71689,6.97496 8.72506,6.98524 8.73311,6.99563 8.74104,7.00611 8.74884,7.0167 8.75652,7.02737 8.76407,7.03815 8.77149,7.04901 8.77878,7.05997 8.78595,7.07102 8.79298,7.08217 8.79989,7.09339 8.80665,7.10471 8.81329,7.11611 8.81979,7.12761 8.82615,7.13918 8.83238,7.15083 8.83847,7.16257 8.84442,7.17439 8.85023,7.18628 8.8559,7.19825 8.86143,7.2103 8.86681,7.22243 8.87206,7.23462 8.87715,7.24689 5.09088,3.46062 5.08579,3.44835 5.08055,3.43615 5.07516,3.42403 5.06963,3.41198 5.06396,3.40001 5.05815,3.38811 5.0522,3.3763 5.04611,3.36456 5.03989,3.35291 5.03352,3.34133 5.02702,3.32984 5.02039,3.31844 5.01362,3.30712 5.00672,3.29589 4.99968,3.28475 4.99252,3.2737 4.98522,3.26274 4.9778,3.25187 4.97025,3.2411 4.96257,3.23043 4.95477,3.21984 4.94685,3.20936 4.9388,3.19897 4.93063,3.18869 4.92233,3.17851 4.91392,3.16843 4.90539,3.15845 4.89674,3.14858 "/>
     <polygon id="_366705664" class="fil1" points="3.67262,2.197 7.45889,5.98327 7.45307,5.97731 7.44739,5.97122 3.66113,2.18495 3.6668,2.19104 "/>
     <polygon id="_366705640" class="fil1" points="5.17141,3.87063 8.95768,7.6569 8.95737,7.6569 5.17111,3.87063 "/>
     <polygon id="_366705688" class="fil1" points="4.10776,3.45352 7.89402,7.23979 7.889,7.23982 7.884,7.23991 7.87902,7.24007 7.87405,7.24029 7.86909,7.24057 7.86416,7.24092 7.85925,7.24133 7.85435,7.24179 7.84947,7.24232 7.84461,7.24291 7.83977,7.24356 7.83495,7.24426 7.83015,7.24503 7.82537,7.24585 7.82061,7.24674 7.81588,7.24768 7.81116,7.24867 7.80647,7.24973 7.8018,7.25084 7.79715,7.25201 7.79253,7.25324 7.78793,7.25452 7.78335,7.25585 7.7788,7.25724 7.77427,7.25869 7.76976,7.26019 7.76529,7.26174 7.76083,7.26335 7.75641,7.265 7.75201,7.26672 7.74764,7.26848 7.7433,7.2703 3.95703,3.48402 3.96137,3.48221 3.96574,3.48044 3.97014,3.47873 3.97457,3.47707 3.97902,3.47547 3.9835,3.47391 3.988,3.47242 3.99253,3.47097 3.99708,3.46958 4.00166,3.46824 4.00626,3.46696 4.01088,3.46574 4.01553,3.46457 4.0202,3.46346 4.02489,3.4624 4.02961,3.46141 4.03435,3.46046 4.0391,3.45958 4.04388,3.45876 4.04868,3.45799 4.0535,3.45728 4.05834,3.45663 4.0632,3.45605 4.06808,3.45552 4.07298,3.45506 4.07789,3.45465 4.08283,3.4543 4.08778,3.45402 4.09275,3.4538 4.09774,3.45364 4.10274,3.45355 "/>
     <polygon id="_366705520" class="fil1" points="4.38663,3.57155 8.1729,7.35782 8.16946,7.35435 8.16598,7.35092 8.16247,7.34753 8.15891,7.34419 8.15532,7.34088 8.15169,7.33763 8.14801,7.33441 8.1443,7.33125 8.14056,7.32813 8.13677,7.32505 8.13295,7.32202 8.12909,7.31904 8.1252,7.31611 8.12127,7.31322 8.1173,7.31038 8.1133,7.30759 8.10926,7.30485 8.1052,7.30216 8.10109,7.29952 8.09696,7.29693 8.09279,7.2944 8.08859,7.29191 8.08435,7.28948 8.08008,7.28709 8.07579,7.28476 8.07146,7.28249 8.0671,7.28027 8.06271,7.2781 8.05829,7.27599 8.05384,7.27393 8.04936,7.27193 8.04485,7.26999 4.25858,3.48372 4.26309,3.48566 4.26757,3.48766 4.27202,3.48972 4.27644,3.49183 4.28083,3.494 4.28519,3.49622 4.28952,3.49849 4.29381,3.50082 4.29808,3.5032 4.30232,3.50564 4.30652,3.50813 4.31069,3.51066 4.31483,3.51325 4.31893,3.51589 4.323,3.51858 4.32703,3.52132 4.33103,3.52411 4.335,3.52695 4.33893,3.52983 4.34282,3.53277 4.34668,3.53575 4.3505,3.53878 4.35429,3.54185 4.35804,3.54498 4.36174,3.54814 4.36542,3.55135 4.36905,3.55461 4.37265,3.55791 4.3762,3.56126 4.37972,3.56465 4.38319,3.56808 "/>
     <polygon id="_366705496" class="fil1" points="4.39018,3.57523 8.17645,7.3615 8.1729,7.35782 4.38663,3.57155 "/>
     <polygon id="_366705544" class="fil1" points="3.82804,3.57241 7.61431,7.35869 7.61079,7.36233 7.60731,7.36602 7.60388,7.36976 7.60049,7.37354 7.59714,7.37736 7.59384,7.38123 7.59058,7.38514 7.58737,7.38909 7.5842,7.39309 7.58109,7.39713 7.57801,7.4012 7.57499,7.40532 7.57201,7.40948 7.56908,7.41368 7.5662,7.41791 7.56336,7.42219 7.56058,7.4265 7.55785,7.43085 7.55516,7.43524 7.55253,7.43967 7.54995,7.44414 7.54742,7.44864 7.54494,7.45317 7.54251,7.45774 7.54014,7.46235 7.53782,7.46699 7.53555,7.47166 7.53334,7.47637 7.53118,7.48111 7.52908,7.48588 7.52703,7.49069 7.52504,7.49552 3.73877,3.70925 3.74076,3.70441 3.74281,3.69961 3.74491,3.69484 3.74707,3.6901 3.74928,3.68539 3.75155,3.68072 3.75387,3.67607 3.75624,3.67147 3.75867,3.6669 3.76115,3.66237 3.76368,3.65787 3.76626,3.6534 3.76889,3.64897 3.77158,3.64458 3.77431,3.64023 3.77709,3.63592 3.77993,3.63164 3.78281,3.62741 3.78574,3.62321 3.78872,3.61905 3.79174,3.61493 3.79482,3.61085 3.79794,3.60682 3.8011,3.60282 3.80431,3.59887 3.80757,3.59496 3.81087,3.59109 3.81422,3.58727 3.81761,3.58349 3.82105,3.57975 3.82452,3.57606 "/>
     <polygon id="_366705592" class="fil1" points="3.73877,3.70925 7.52504,7.49552 7.52319,7.50018 7.52139,7.50486 7.51965,7.50958 7.51795,7.51432 7.51631,7.51909 7.51473,7.52388 7.5132,7.52871 7.51173,7.53356 7.51031,7.53843 7.50895,7.54333 7.50765,7.54826 7.5064,7.55321 7.5052,7.55819 7.50407,7.56319 7.503,7.56822 7.50198,7.57326 7.50102,7.57833 7.50012,7.58343 7.49928,7.58855 7.4985,7.59369 7.49778,7.59884 7.49712,7.60402 7.49652,7.60922 7.49598,7.61444 7.4955,7.61969 7.49509,7.62495 7.49474,7.63023 7.49445,7.63553 7.49423,7.64084 7.49407,7.64618 7.49397,7.65153 7.49394,7.6569 3.70767,3.87063 3.7077,3.86526 3.7078,3.85991 3.70796,3.85457 3.70819,3.84926 3.70847,3.84396 3.70882,3.83868 3.70924,3.83342 3.70971,3.82817 3.71025,3.82295 3.71085,3.81775 3.71151,3.81257 3.71223,3.80741 3.71301,3.80228 3.71385,3.79716 3.71475,3.79206 3.71571,3.78699 3.71673,3.78194 3.7178,3.77692 3.71894,3.77192 3.72013,3.76694 3.72138,3.76199 3.72269,3.75706 3.72404,3.75216 3.72546,3.74728 3.72694,3.74244 3.72846,3.73761 3.73005,3.73281 3.73169,3.72805 3.73338,3.72331 3.73512,3.71859 3.73692,3.71391 "/>
     <polygon id="_366705568" class="fil1" points="3.70511,4.17617 7.49138,7.96244 7.49044,7.97525 7.48934,7.98801 7.48809,8.00074 7.48669,8.01342 7.48513,8.02606 7.48342,8.03865 7.48156,8.05119 7.47955,8.06369 7.47739,8.07614 7.47509,8.08855 7.47264,8.1009 7.47004,8.1132 7.4673,8.12546 7.46441,8.13766 7.46138,8.14981 7.4582,8.1619 7.45489,8.17394 7.45144,8.18592 7.44784,8.19785 7.44411,8.20972 7.44024,8.22153 7.43623,8.23328 7.43209,8.24497 7.42781,8.2566 7.42341,8.26817 7.41886,8.27967 7.41419,8.29111 7.40938,8.30249 7.40444,8.3138 7.39937,8.32504 7.39418,8.33622 7.38886,8.34733 3.60259,4.56106 3.60791,4.54995 3.61311,4.53877 3.61817,4.52753 3.62311,4.51622 3.62792,4.50484 3.63259,4.4934 3.63714,4.4819 3.64155,4.47033 3.64582,4.4587 3.64996,4.44701 3.65397,4.43526 3.65784,4.42344 3.66157,4.41157 3.66517,4.39965 3.66862,4.38767 3.67194,4.37563 3.67511,4.36354 3.67814,4.35139 3.68103,4.33919 3.68377,4.32693 3.68637,4.31463 3.68882,4.30228 3.69113,4.28987 3.69328,4.27742 3.69529,4.26492 3.69715,4.25237 3.69886,4.23978 3.70042,4.22715 3.70182,4.21446 3.70307,4.20174 3.70417,4.18898 "/>
     <polygon id="_366705736" class="fil1" points="4.25858,3.48372 8.04485,7.26999 8.04054,7.26819 8.0362,7.26645 8.03183,7.26476 8.02744,7.26312 8.02301,7.26153 8.01856,7.25999 8.01408,7.25851 8.00957,7.25708 8.00504,7.2557 8.00048,7.25438 7.99589,7.25311 7.99128,7.2519 7.98663,7.25074 7.98197,7.24964 7.97728,7.2486 7.97257,7.24761 7.96783,7.24668 7.96306,7.2458 7.95828,7.24498 7.95346,7.24422 7.94863,7.24352 7.94378,7.24288 7.9389,7.2423 7.934,7.24178 7.92907,7.24131 7.92413,7.24091 7.91916,7.24057 7.91417,7.24029 7.90917,7.24007 7.90414,7.23991 7.89909,7.23982 7.89402,7.23979 4.10776,3.45352 4.11282,3.45355 4.11787,3.45364 4.1229,3.4538 4.12791,3.45402 4.13289,3.4543 4.13786,3.45464 4.1428,3.45504 4.14773,3.4555 4.15263,3.45603 4.15751,3.45661 4.16237,3.45725 4.1672,3.45795 4.17201,3.45871 4.1768,3.45953 4.18156,3.46041 4.1863,3.46133 4.19101,3.46233 4.1957,3.46337 4.20037,3.46447 4.20501,3.46563 4.20962,3.46684 4.21421,3.46811 4.21877,3.46943 4.2233,3.47081 4.22781,3.47224 4.23229,3.47372 4.23674,3.47526 4.24117,3.47685 4.24557,3.47848 4.24993,3.48018 4.25427,3.48192 "/>
     <polygon id="_366705232" class="fil1" points="4.50815,3.87063 8.29441,7.6569 8.29411,7.6569 4.50784,3.87063 "/>
     <polygon id="_366705376" class="fil1" points="3.95703,3.48402 7.7433,7.2703 7.73875,7.27226 7.73424,7.27428 7.72976,7.27636 7.7253,7.27849 7.72087,7.28068 7.71648,7.28292 7.71212,7.28521 7.70779,7.28756 7.70348,7.28996 7.69922,7.29241 7.69498,7.29491 7.69078,7.29746 7.68661,7.30007 7.68248,7.30273 7.67837,7.30543 7.67431,7.30819 7.67028,7.31099 7.66628,7.31385 7.66232,7.31675 7.6584,7.3197 7.65451,7.3227 7.65066,7.32574 7.64685,7.32883 7.64307,7.33197 7.63934,7.33515 7.63565,7.33839 7.63199,7.34166 7.62837,7.34498 7.6248,7.34834 7.62126,7.35174 7.61776,7.35519 7.61431,7.35869 3.82804,3.57241 3.8315,3.56892 3.83499,3.56547 3.83853,3.56207 3.84211,3.5587 3.84572,3.55539 3.84938,3.55211 3.85307,3.54888 3.85681,3.5457 3.86058,3.54256 3.86439,3.53947 3.86824,3.53643 3.87213,3.53343 3.87606,3.53048 3.88001,3.52757 3.88401,3.52472 3.88804,3.52192 3.89211,3.51916 3.89621,3.51646 3.90034,3.5138 3.90451,3.51119 3.90871,3.50864 3.91295,3.50613 3.91722,3.50369 3.92152,3.50128 3.92585,3.49894 3.93021,3.49665 3.93461,3.49441 3.93903,3.49222 3.94349,3.49009 3.94797,3.48801 3.95248,3.48599 "/>
     <polygon id="_366706072" class="fil1" points="5.17111,3.87063 8.95737,7.6569 8.95428,8.56394 5.16801,4.77767 "/>
     <polygon id="_366706504" class="fil1" points="5.25728,4.80039 9.04354,8.58666 9.04855,8.59217 9.05302,8.59814 9.0569,8.60454 9.06017,8.61132 9.06278,8.61845 9.06469,8.62588 9.06586,8.63358 9.06626,8.64152 5.28,4.85524 5.27959,4.84731 5.27842,4.83961 5.27651,4.83218 5.2739,4.82505 5.27063,4.81827 5.26675,4.81187 5.26228,4.8059 "/>
     <polygon id="_366706288" class="fil1" points="5.28,4.85524 9.06626,8.64152 9.06626,8.90896 5.28,5.12269 "/>
     <polygon id="_366706144" class="fil1" points="5.28,5.12269 9.06626,8.90896 9.06586,8.91689 9.06469,8.92459 9.06278,8.93202 9.06017,8.93915 9.0569,8.94593 9.05302,8.95233 9.04855,8.9583 9.04354,8.96381 9.03803,8.96881 9.03206,8.97328 9.02567,8.97717 9.01889,8.98044 9.01176,8.98304 9.00432,8.98496 8.99662,8.98613 8.98869,8.98653 5.20242,5.20026 5.21035,5.19986 5.21806,5.19869 5.22549,5.19677 5.23262,5.19417 5.2394,5.1909 5.2458,5.18701 5.25176,5.18254 5.25728,5.17754 5.26228,5.17203 5.26675,5.16606 5.27063,5.15966 5.2739,5.15288 5.27651,5.14575 5.27842,5.13832 5.27959,5.13062 "/>
     <polygon id="_366706552" class="fil1" points="3.70767,3.87063 7.49394,7.6569 7.49357,7.7317 3.70731,3.94543 "/>
     <polygon id="_366706360" class="fil1" points="3.70731,3.94543 7.49357,7.7317 7.49363,7.73237 7.49368,7.73303 7.49372,7.7337 7.49376,7.73437 7.49379,7.73504 7.49381,7.7357 7.49383,7.73638 7.49384,7.73705 3.70757,3.95078 3.70756,3.95011 3.70754,3.94943 3.70752,3.94876 3.70749,3.94809 3.70745,3.94743 3.70741,3.94676 3.70736,3.94609 "/>
     <polygon id="_366706000" class="fil1" points="3.70757,3.95078 7.49384,7.73705 7.49385,7.7372 3.70758,3.95093 "/>
     <polygon id="_366706408" class="fil1" points="3.70758,3.95093 7.49385,7.7372 7.49356,7.73722 3.70729,3.95095 "/>
     <polygon id="_366706624" class="fil1" points="3.70729,3.95095 7.49356,7.73722 7.49367,7.74445 7.49378,7.75169 7.49389,7.75894 7.494,7.76619 7.49411,7.77344 7.4942,7.7807 7.4943,7.78796 7.49438,7.7952 7.49446,7.80245 7.49453,7.80969 7.49458,7.81691 7.49463,7.82413 7.49466,7.83132 7.49468,7.8385 7.49468,7.84567 7.49467,7.85281 7.49464,7.85993 7.49459,7.86702 7.49452,7.87409 7.49443,7.88112 7.49432,7.88813 7.49419,7.89509 7.49403,7.90203 7.49385,7.90893 7.49365,7.91578 7.49341,7.92259 7.49315,7.92936 7.49286,7.93608 7.49254,7.94275 7.49219,7.94937 7.4918,7.95593 7.49138,7.96244 3.70511,4.17617 3.70553,4.16966 3.70592,4.16309 3.70627,4.15648 3.70659,4.14981 3.70688,4.14309 3.70714,4.13632 3.70738,4.12951 3.70758,4.12265 3.70776,4.11576 3.70792,4.10882 3.70806,4.10185 3.70817,4.09485 3.70825,4.08781 3.70832,4.08075 3.70837,4.07366 3.7084,4.06654 3.70841,4.0594 3.70841,4.05223 3.70839,4.04505 3.70836,4.03785 3.70831,4.03064 3.70826,4.02341 3.70819,4.01618 3.70811,4.00893 3.70803,4.00169 3.70794,3.99443 3.70784,3.98717 3.70774,3.97992 3.70763,3.97267 3.70752,3.96542 3.7074,3.95818 "/>
     <polygon id="_366705976" class="fil1" points="5.20242,5.20026 8.98869,8.98653 8.26777,8.98653 4.4815,5.20026 "/>
     <polygon id="_366706768" class="fil1" points="4.4815,5.20026 8.26777,8.98653 8.25983,8.98613 8.25213,8.98496 8.2447,8.98304 8.23757,8.98044 8.23079,8.97717 8.22439,8.97328 8.21843,8.96881 8.21291,8.96381 4.42665,5.17754 4.43216,5.18254 4.43813,5.18701 4.44452,5.1909 4.4513,5.19417 4.45843,5.19677 4.46587,5.19869 4.47357,5.19986 "/>
     <polygon id="_366707344" class="fil1" points="3.60259,4.56106 7.38886,8.34733 7.38324,8.3587 7.37749,8.37001 7.3716,8.38124 7.36558,8.39239 7.35943,8.40346 7.35315,8.41446 7.34674,8.42538 7.3402,8.43622 7.33354,8.44698 7.32674,8.45765 7.31983,8.46825 7.31278,8.47876 7.30562,8.48918 7.29833,8.49952 7.29093,8.50977 7.2834,8.51993 7.27575,8.53 7.26798,8.53998 7.2601,8.54988 7.2521,8.55968 7.24399,8.56939 7.23576,8.579 7.22743,8.58852 7.21897,8.59794 7.21041,8.60726 7.20174,8.61649 7.19296,8.62561 7.18407,8.63464 7.17507,8.64357 7.16597,8.65239 7.15676,8.66111 7.14745,8.66973 3.36119,4.88346 3.3705,4.87484 3.3797,4.86612 3.3888,4.8573 3.3978,4.84837 3.40669,4.83934 3.41547,4.83022 3.42414,4.82099 3.4327,4.81167 3.44116,4.80224 3.4495,4.79272 3.45772,4.78311 3.46583,4.77341 3.47383,4.76361 3.48172,4.75371 3.48948,4.74373 3.49713,4.73366 3.50466,4.7235 3.51206,4.71324 3.51935,4.70291 3.52652,4.69248 3.53356,4.68198 3.54048,4.67138 3.54727,4.66071 3.55393,4.64995 3.56047,4.63911 3.56688,4.62819 3.57316,4.61719 3.57931,4.60612 3.58533,4.59496 3.59122,4.58374 3.59697,4.57243 "/>
     <polygon id="_366707200" class="fil1" points="3.36119,4.88346 7.14745,8.66973 7.13815,8.67814 7.12875,8.68645 7.11925,8.69465 7.10966,8.70275 7.09998,8.71074 7.0902,8.71861 7.08032,8.72638 7.07036,8.73404 7.06031,8.74158 7.05017,8.74901 7.03994,8.75633 7.02962,8.76354 7.01922,8.77062 7.00872,8.77759 6.99815,8.78444 6.9875,8.79117 6.97676,8.79779 6.96594,8.80428 6.95504,8.81065 6.94406,8.8169 6.933,8.82302 6.92187,8.82902 6.91066,8.83489 6.89937,8.84063 6.88801,8.84625 6.87658,8.85174 6.86507,8.8571 6.8535,8.86233 6.84185,8.86743 6.83014,8.87239 6.81835,8.87722 6.8065,8.88192 3.02024,5.09565 3.03209,5.09095 3.04387,5.08612 3.05558,5.08115 3.06723,5.07606 3.07881,5.07083 3.09031,5.06547 3.10174,5.05998 3.1131,5.05436 3.12439,5.04862 3.1356,5.04274 3.14673,5.03675 3.15779,5.03063 3.16877,5.02438 3.17967,5.01801 3.19049,5.01152 3.20123,5.0049 3.21189,4.99817 3.22246,4.99132 3.23295,4.98435 3.24335,4.97726 3.25367,4.97006 3.2639,4.96274 3.27404,4.95531 3.28409,4.94777 3.29406,4.94011 3.30393,4.93234 3.31371,4.92446 3.32339,4.91648 3.33298,4.90838 3.34248,4.90018 3.35188,4.89187 "/>
     <polygon id="_366707368" class="fil1" points="1.94102,4.41948 5.72729,8.20575 5.7328,8.21075 5.73781,8.21626 5.74228,8.22224 5.74616,8.22863 5.74943,8.23541 5.75204,8.24254 5.75395,8.24998 5.75512,8.25768 5.75552,8.26561 1.96926,4.47934 1.96885,4.47141 1.96768,4.4637 1.96577,4.45627 1.96316,4.44914 1.95989,4.44236 1.95601,4.43596 1.95154,4.42999 1.94654,4.42448 "/>
     <polygon id="_366706984" class="fil1" points="2.62735,5.16957 6.41362,8.95584 5.75552,8.95584 1.96926,5.16957 "/>
     <polygon id="_366706672" class="fil1" points="1.96926,5.16957 5.75552,8.95584 5.75552,8.98653 1.96926,5.20026 "/>
     <polygon id="_366706864" class="fil1" points="1.96926,5.20026 5.75552,8.98653 5.75512,8.99446 5.75395,9.00217 5.75204,9.0096 5.74943,9.01673 5.74616,9.02351 5.74228,9.02991 5.73781,9.03587 5.7328,9.04139 5.72729,9.04639 5.72132,9.05086 5.71493,9.05474 5.70815,9.05801 5.70102,9.06062 5.69358,9.06253 5.68588,9.0637 5.67795,9.06411 1.89168,5.27783 1.89961,5.27743 1.90731,5.27626 1.91475,5.27435 1.92188,5.27174 1.92866,5.26847 1.93506,5.26459 1.94102,5.26012 1.94654,5.25511 1.95154,5.2496 1.95601,5.24363 1.95989,5.23724 1.96316,5.23046 1.96577,5.22333 1.96768,5.21589 1.96885,5.20819 "/>
     <polygon id="_366707248" class="fil1" points="1.89168,5.27783 5.67795,9.06411 5.41051,9.06411 1.62424,5.27783 "/>
     <polygon id="_366707128" class="fil1" points="1.62424,5.27783 5.41051,9.06411 5.40257,9.0637 5.39487,9.06253 5.38744,9.06062 5.38031,9.05801 5.37353,9.05474 5.36713,9.05086 5.36117,9.04639 1.5749,5.26012 1.58087,5.26459 1.58726,5.26847 1.59404,5.27174 1.60117,5.27435 1.60861,5.27626 1.61631,5.27743 "/>
     <polygon id="_366707080" class="fil1" points="1.96926,4.47934 5.75552,8.26561 5.75552,8.29228 1.96926,4.506 "/>
     <polygon id="_366707656" class="fil1" points="3.02024,5.09565 6.8065,8.88192 6.795,8.88632 6.78343,8.89061 6.7718,8.89476 6.76012,8.89878 6.74839,8.90268 6.73659,8.90644 6.72474,8.91008 6.71285,8.91358 6.70089,8.91695 6.68889,8.92019 6.67683,8.92329 6.66473,8.92626 6.65258,8.92909 6.64038,8.93178 6.62813,8.93434 6.61583,8.93676 6.6035,8.93904 6.59111,8.94117 6.57869,8.94317 6.56622,8.94502 6.55371,8.94673 6.54116,8.9483 6.52857,8.94972 6.51594,8.95099 6.50327,8.95212 6.49057,8.9531 6.47783,8.95393 6.46505,8.95462 6.45224,8.95515 6.4394,8.95553 6.42652,8.95576 6.41362,8.95584 2.62735,5.16957 2.64026,5.16949 2.65313,5.16926 2.66598,5.16888 2.67878,5.16835 2.69156,5.16766 2.7043,5.16683 2.717,5.16585 2.72967,5.16472 2.7423,5.16344 2.75489,5.16203 2.76744,5.16046 2.77995,5.15875 2.79242,5.1569 2.80485,5.1549 2.81723,5.15276 2.82957,5.15049 2.84186,5.14807 2.85411,5.14551 2.86631,5.14282 2.87846,5.13999 2.89057,5.13702 2.90262,5.13392 2.91463,5.13068 2.92658,5.12731 2.93848,5.12381 2.95033,5.12017 2.96212,5.11641 2.97385,5.11251 2.98554,5.10849 2.99716,5.10433 3.00873,5.10005 "/>
     <polygon id="_366707728" class="fil1" points="3.7631,2.26231 7.54937,6.04859 7.5431,6.04537 7.53691,6.04202 7.53079,6.03856 7.52475,6.03498 7.51879,6.03128 7.51291,6.02746 7.50711,6.02353 7.5014,6.01949 7.49577,6.01533 7.49022,6.01107 7.48477,6.0067 7.47941,6.00222 7.47413,5.99763 7.46896,5.99295 7.46387,5.98816 7.45889,5.98327 3.67262,2.197 3.67761,2.20189 3.68269,2.20668 3.68787,2.21136 3.69314,2.21594 3.6985,2.22043 3.70396,2.2248 3.7095,2.22906 3.71513,2.23322 3.72084,2.23726 3.72664,2.24119 3.73252,2.24501 3.73848,2.24871 3.74452,2.25229 3.75064,2.25575 3.75683,2.25909 "/>
     <polygon id="_366707632" class="fil1" points="5.09088,3.46062 8.87715,7.24689 8.88195,7.25887 8.88662,7.2709 8.89114,7.283 8.89553,7.29517 8.89977,7.30739 8.90387,7.31968 8.90783,7.33203 8.91165,7.34444 8.91532,7.3569 8.91885,7.36943 8.92223,7.382 8.92546,7.39463 8.92855,7.40731 8.93148,7.42005 8.93426,7.43284 8.9369,7.44568 8.93938,7.45856 8.9417,7.4715 8.94388,7.48448 8.9459,7.4975 8.94776,7.51057 8.94946,7.52368 8.95101,7.53683 8.9524,7.55003 8.95363,7.56326 8.9547,7.57653 8.95561,7.58984 8.95635,7.60318 8.95693,7.61656 8.95734,7.62998 8.95759,7.64342 8.95768,7.6569 5.17141,3.87063 5.17133,3.85715 5.17107,3.8437 5.17066,3.83029 5.17008,3.81691 5.16934,3.80357 5.16843,3.79026 5.16736,3.77699 5.16613,3.76376 5.16474,3.75056 5.1632,3.73741 5.16149,3.7243 5.15963,3.71123 5.15761,3.6982 5.15544,3.68522 5.15311,3.67229 5.15063,3.65941 5.148,3.64657 5.14521,3.63378 5.14228,3.62104 5.13919,3.60836 5.13596,3.59573 5.13258,3.58315 5.12906,3.57063 5.12538,3.55817 5.12157,3.54576 5.11761,3.53341 5.1135,3.52112 5.10926,3.50889 5.10487,3.49673 5.10035,3.48463 5.09569,3.47259 "/>
     <polygon id="_366707560" class="fil1" points="4.60121,1.57706 8.38748,5.36333 8.39194,5.3693 8.39583,5.3757 8.3991,5.38248 8.40171,5.38961 8.40362,5.39704 8.4048,5.40474 8.4052,5.41268 4.61893,1.62641 4.61853,1.61847 4.61735,1.61077 4.61544,1.60334 4.61283,1.59621 4.60957,1.58943 4.60568,1.58303 "/>
     <polygon id="_366707848" class="fil1" points="4.61893,1.62641 8.4052,5.41268 8.4052,5.73838 4.61893,1.95211 "/>
     <polygon id="_366707704" class="fil1" points="4.61893,1.95211 8.4052,5.73838 8.40508,5.7473 8.40474,5.75616 8.40418,5.76497 8.4034,5.77372 8.4024,5.78241 8.40119,5.79103 8.39976,5.79958 8.39813,5.80806 8.39628,5.81647 8.39424,5.82481 8.392,5.83306 8.38955,5.84124 8.38691,5.84932 8.38408,5.85732 8.38106,5.86524 8.37786,5.87306 8.37447,5.88078 8.37089,5.8884 8.36715,5.89593 8.36322,5.90335 8.35912,5.91066 8.35485,5.91786 8.35042,5.92496 8.34581,5.93193 8.34106,5.93879 8.33613,5.94553 8.33106,5.95215 8.32582,5.95863 8.32044,5.96499 8.31491,5.97122 8.30924,5.97731 8.30342,5.98327 4.51715,2.197 4.52297,2.19104 4.52865,2.18495 4.53417,2.17872 4.53956,2.17236 4.54479,2.16587 4.54987,2.15926 4.55479,2.15252 4.55955,2.14566 4.56415,2.13869 4.56858,2.13159 4.57285,2.12439 4.57695,2.11707 4.58088,2.10965 4.58463,2.10213 4.5882,2.09451 4.59159,2.08678 4.5948,2.07896 4.59781,2.07105 4.60065,2.06305 4.60328,2.05496 4.60573,2.04679 4.60797,2.03854 4.61002,2.0302 4.61186,2.02179 4.61349,2.01331 4.61492,2.00476 4.61613,1.99613 4.61713,1.98744 4.61791,1.9787 4.61848,1.96989 4.61881,1.96102 "/>
     <polygon id="_366707608" class="fil1" points="4.51715,2.197 8.30342,5.98327 8.29843,5.98816 8.29335,5.99295 8.28817,5.99763 8.2829,6.00222 8.27754,6.0067 8.27208,6.01107 8.26654,6.01533 8.26091,6.01949 8.25519,6.02354 8.24939,6.02746 8.24351,6.03128 8.23755,6.03498 8.23151,6.03856 8.22539,6.04203 8.2192,6.04537 8.21293,6.04859 4.42667,2.26231 4.43293,2.25909 4.43913,2.25576 4.44524,2.25229 4.45128,2.24871 4.45724,2.24501 4.46313,2.24119 4.46893,2.23726 4.47464,2.23322 4.48027,2.22906 4.48581,2.2248 4.49127,2.22043 4.49663,2.21595 4.50191,2.21136 4.50708,2.20668 4.51217,2.20189 "/>
    </g>
    <path id="_414976016" class="fil1" d="M4.42667 2.26231l0 0.577602c0.0300512,0.00967717 0.0595236,0.020685 0.0883622,0.0329409 0.130598,0.0555118 0.247783,0.136866 0.345945,0.237311 0.0978071,0.100079 0.176343,0.219189 0.229909,0.350453 0.0519567,0.127335 0.0805276,0.266087 0.0805276,0.410004l-0.00030315 0 -0.00309843 0.907043 0.0344134 0c0.0428425,0 0.0775748,0.0347323 0.0775748,0.0775748l0 0.267441c0,0.0428425 -0.0347323,0.0775748 -0.0775748,0.0775748l-0.720921 0c-0.0428425,0 -0.0775748,-0.0347323 -0.0775748,-0.0775748l0 -0.267441c0,-0.0428425 0.0347323,-0.0775748 0.0775748,-0.0775748l0.0235512 0 0.00309449 -0.907043 -0.00030315 0c0,-0.0569921 -0.0111457,-0.111669 -0.0314134,-0.161587 -0.0210236,-0.0517717 -0.0516969,-0.0985 -0.0897992,-0.137488 -0.0364331,-0.0372756 -0.079811,-0.0673937 -0.128047,-0.0878346 -0.045815,-0.0194134 -0.0966693,-0.0302008 -0.150827,-0.0302008 -0.0536181,0 -0.104531,0.0108661 -0.150728,0.0305079 -0.0486024,0.0206693 -0.0923701,0.0509173 -0.128984,0.0883898 -0.0377756,0.0386535 -0.0683268,0.0850787 -0.0892717,0.136839 -0.0200276,0.0495039 -0.0311024,0.104016 -0.0311024,0.161374l-0.000362205 0.0748071c0.000149606,0.00176378 0.000244094,0.00354724 0.000267717,0.00534646l7.87402e-006 0.000149606 -0.000295276 1.9685e-005c0.00122047,0.0770748 0.0024685,0.156091 -0.00217323,0.22522 -0.00921654,0.136823 -0.0450827,0.266772 -0.102524,0.384886 -0.0592126,0.121756 -0.141551,0.231051 -0.241406,0.322402 -0.0987087,0.0903031 -0.214193,0.162823 -0.340949,0.212189 -0.122437,0.0476811 -0.255047,0.0739213 -0.392886,0.0739213l-0.658094 0 0 0.0306929c0,0.0428425 -0.0347323,0.0775748 -0.0775748,0.0775748l-0.267441 0c-0.0428425,0 -0.0775748,-0.0347323 -0.0775748,-0.0775748l0 -0.720921c0,-0.0428465 0.0347323,-0.0775787 0.0775748,-0.0775787l0.267441 0c0.0428425,0 0.0775748,0.0347323 0.0775748,0.0775787l0 0.0266654 0.658094 0c0.0551969,0 0.107693,-0.0101142 0.155602,-0.0284882 0.0499843,-0.0191732 0.0948228,-0.0469764 0.132409,-0.0813622 0.0371693,-0.0340079 0.0680433,-0.0751024 0.0905276,-0.12124 0.0214646,-0.0440394 0.0348465,-0.0922756 0.038252,-0.142807 0.00378346,-0.056378 0.0031063,-0.110909 0.00227953,-0.164126l-0.000220472 -0.00264173 -2.3622e-005 -0.000366142 -8.26772e-005 -0.00149213 -2.3622e-005 -0.000633858 -1.9685e-005 -0.000547244 -3.14961e-005 -0.00114961 0.000295276 -1.9685e-005c-0.000440945,-0.0279409 -0.000944882,-0.0432677 -0.0013189,-0.0547126 -0.000535433,-0.0164764 -0.000893701,-0.0274016 -0.000893701,-0.0357913 0,-0.144665 0.0285236,-0.283126 0.080126,-0.409795 0.0535512,-0.131457 0.132083,-0.25015 0.229472,-0.349803 0.0985827,-0.10087 0.216181,-0.18224 0.346598,-0.237768 0.0206299,-0.00878346 0.0415709,-0.0169252 0.0628031,-0.0243976l0 -0.586547c-0.0336181,-0.0168386 -0.0641496,-0.0389843 -0.0904843,-0.065315 -0.0627913,-0.0627992 -0.101772,-0.149484 -0.101772,-0.244894l0 -0.325701c0,-0.0428425 0.0347323,-0.0775787 0.0775748,-0.0775787l0.892929 0c0.0428425,0 0.0775787,0.0347362 0.0775787,0.0775787l0 0.325701c0,0.0954094 -0.0389803,0.182098 -0.101776,0.244894 -0.0263346,0.0263346 -0.0568701,0.0484764 -0.0904882,0.065315z"/>
   </g>
  </g>
  <path class="fil2" d="M3.41333 0c1.88513,0 3.41333,1.5282 3.41333,3.41333 0,1.88513 -1.5282,3.41333 -3.41333,3.41333 -1.88513,0 -3.41333,-1.5282 -3.41333,-3.41333 0,-1.88513 1.5282,-3.41333 3.41333,-3.41333z"/>
  <path class="fil3" d="M4.42667 2.22119l0 0.676839c0,0.0428425 -0.0347323,0.0775787 -0.0775748,0.0775787 -0.00916142,0 -0.0179488,-0.00159055 -0.0261063,-0.00450787 -0.0335276,-0.00835827 -0.0679134,-0.0148228 -0.103035,-0.0192638 -0.0351378,-0.00444094 -0.0725472,-0.00673228 -0.112193,-0.00673228 -0.0429567,0 -0.0844685,0.00291732 -0.124378,0.00855906 -0.0417205,0.00590157 -0.0821811,0.0145945 -0.121181,0.0258661l-0.0215157 -0.0742402 0.0215472 0.0745236c-0.0411575,0.0118976 -0.0841772,-0.0118228 -0.0960748,-0.0529764 -0.00223622,-0.00774803 -0.0032126,-0.0155591 -0.00305118,-0.0232165l0 -0.682429c0,-0.0428425 0.0347362,-0.0775748 0.0775787,-0.0775748l0.508409 0c0.0428425,0 0.0775748,0.0347323 0.0775748,0.0775748z"/>
  <path class="fil3" d="M2.62735 5.16957l-0.735669 0c-0.0428465,0 -0.0775787,-0.0347362 -0.0775787,-0.0775787l0 -0.508409c0,-0.0428425 0.0347323,-0.0775748 0.0775787,-0.0775748l0.735669 0c0.0551969,0 0.107693,-0.0101142 0.155602,-0.0284882 0.0499843,-0.0191732 0.0948228,-0.0469764 0.132409,-0.0813622 0.0371693,-0.0340079 0.0680433,-0.0751024 0.0905276,-0.12124 0.0214646,-0.0440394 0.0348465,-0.0922756 0.038252,-0.142807 0.00378346,-0.056378 0.0031063,-0.110909 0.00227953,-0.164126 -8.66142e-005,-0.000877953 -0.000161417,-0.00175591 -0.000220472,-0.00264173l-2.3622e-005 -0.000366142 -8.26772e-005 -0.00149213 -2.3622e-005 -0.000633858 -2.3622e-005 -0.000547244 3.93701e-006 0 -3.14961e-005 -0.00114961 0.0775669 -0.00123228 -0.0772717 0.0012126c-0.000440945,-0.0279409 -0.000944882,-0.0432677 -0.0013189,-0.0547126 -0.000535433,-0.0164764 -0.000893701,-0.0274016 -0.000893701,-0.0357913 0,-0.144665 0.0285236,-0.283126 0.080126,-0.409795 0.0535512,-0.131457 0.132083,-0.25015 0.229472,-0.349803 0.0985827,-0.10087 0.216181,-0.18224 0.346598,-0.237768 0.126012,-0.0536535 0.263693,-0.083311 0.407457,-0.083311 0.144457,0 0.281874,0.0296102 0.407272,0.0829094 0.130598,0.0555118 0.247783,0.136866 0.345945,0.237311 0.0978071,0.100079 0.176343,0.219189 0.229909,0.350453 0.0519567,0.127335 0.0805276,0.266087 0.0805276,0.410004l-0.00030315 0 -0.00325591 0.953327 0.000307087 0c0,0.00542913 -0.000275591,0.0124331 -0.000811024,0.0209724 -0.000220472,0.00350787 -0.000629921,0.00792913 -0.00123228,0.0132244 -0.00107874,0.0419016 -0.0353898,0.0755394 -0.0775512,0.0755394l-0.504075 0c-0.038689,0.000200787 -0.072315,-0.0285315 -0.0772717,-0.0678819l0.0769685 -0.00969291 -0.0766693 0.0093937c-0.00108661,-0.00865748 -0.00180315,-0.0155551 -0.00211811,-0.0205827 -0.000535433,-0.00853937 -0.000807087,-0.0155433 -0.000807087,-0.0209724l0.00030315 0 0.00325197 -0.953327 -0.00030315 0c0,-0.0569921 -0.0111457,-0.111669 -0.0314134,-0.161587 -0.0210236,-0.0517717 -0.0516969,-0.0985 -0.0897992,-0.137488 -0.0364331,-0.0372756 -0.079811,-0.0673937 -0.128047,-0.0878346 -0.045815,-0.0194134 -0.0966693,-0.0302008 -0.150827,-0.0302008 -0.0536181,0 -0.104531,0.0108661 -0.150728,0.0305079 -0.0486024,0.0206693 -0.0923701,0.0509173 -0.128984,0.0883898 -0.0377756,0.0386535 -0.0683268,0.0850787 -0.0892717,0.136839 -0.0200276,0.0495039 -0.0311024,0.104016 -0.0311024,0.161374 0,0.00238189 -0.00026378,0.0545079 -0.000362205,0.0748071 0.000149606,0.00176378 0.000244094,0.00354724 0.000271654,0.00534646l-3.93701e-006 0 7.87402e-006 0.000149606 -0.0316417 0.000503937 0.00191732 -2.3622e-005 0.0294291 -0.00046063c0.00122047,0.0770748 0.0024685,0.156091 -0.00217323,0.22522 -0.00921654,0.136823 -0.0450827,0.266772 -0.102524,0.384886 -0.0592126,0.121756 -0.141551,0.231051 -0.241406,0.322402 -0.0987087,0.0903031 -0.214193,0.162823 -0.340949,0.212189 -0.122437,0.0476811 -0.255047,0.0739213 -0.392886,0.0739213z"/>
  <path class="fil4" d="M2.3064 5.03374c0,0.0214173 0.0173701,0.0387874 0.0387913,0.0387874 0.0214213,0 0.0387874,-0.0173701 0.0387874,-0.0387874l0 -0.387882c0,-0.0214173 -0.0173661,-0.0387874 -0.0387874,-0.0387874 -0.0214213,0 -0.0387913,0.0173701 -0.0387913,0.0387874l0 0.387882z"/>
  <path class="fil4" d="M2.449 5.03374c0,0.0214173 0.0173661,0.0387874 0.0387874,0.0387874 0.0214213,0 0.0387913,-0.0173701 0.0387913,-0.0387874l0 -0.387882c0,-0.0214173 -0.0173701,-0.0387874 -0.0387913,-0.0387874 -0.0214213,0 -0.0387874,0.0173701 -0.0387874,0.0387874l0 0.387882z"/>
  <path class="fil4" d="M4.65939 4.38572c-0.0214173,0 -0.0387874,0.0173661 -0.0387874,0.0387874 0,0.0214213 0.0173701,0.0387874 0.0387874,0.0387874l0.387882 0c0.0214213,0 0.0387874,-0.0173661 0.0387874,-0.0387874 0,-0.0214213 -0.0173661,-0.0387874 -0.0387874,-0.0387874l-0.387882 0z"/>
  <path class="fil4" d="M4.65939 4.52832c-0.0214173,0 -0.0387874,0.0173701 -0.0387874,0.0387874 0,0.0214213 0.0173701,0.0387913 0.0387874,0.0387913l0.387882 0c0.0214213,0 0.0387874,-0.0173701 0.0387874,-0.0387913 0,-0.0214173 -0.0173661,-0.0387874 -0.0387874,-0.0387874l-0.387882 0z"/>
  <polygon class="fil5" points="4.55908,4.93282 4.55908,5.04511 5.12484,5.04511 5.12484,4.93282 "/>
  <path class="fil6" d="M4.40393 5.12269l0 -0.267441c0,-0.0428425 0.0347323,-0.0775748 0.0775748,-0.0775748l0.720921 0c0.0428425,0 0.0775748,0.0347323 0.0775748,0.0775748l0 0.267441c0,0.0428425 -0.0347323,0.0775748 -0.0775748,0.0775748l-0.720921 0c-0.0428425,0 -0.0775748,-0.0347323 -0.0775748,-0.0775748z"/>
  <polygon class="fil5" points="1.70182,5.12268 1.8141,5.12268 1.8141,4.55691 1.70182,4.55691 "/>
  <path class="fil6" d="M1.89168 5.27783l-0.267441 0c-0.0428425,0 -0.0775748,-0.0347323 -0.0775748,-0.0775748l0 -0.720921c0,-0.0428465 0.0347323,-0.0775787 0.0775748,-0.0775787l0.267441 0c0.0428425,0 0.0775748,0.0347323 0.0775748,0.0775787l0 0.720921c0,0.0428425 -0.0347323,0.0775748 -0.0775748,0.0775748z"/>
  <path class="fil5" d="M4.46377 1.70398l-0.737772 0 0 0.248122c0,0.0525827 0.0215709,0.100449 0.056315,0.135197 0.034748,0.0347441 0.0826102,0.056315 0.135197,0.056315l0.354752 0c0.0525827,0 0.100449,-0.0215709 0.135193,-0.056315 0.034748,-0.034748 0.056315,-0.0826142 0.056315,-0.135197l0 -0.248122z"/>
  <path class="fil6" d="M3.64842 1.54883l0.892929 0c0.0428425,0 0.0775787,0.0347362 0.0775787,0.0775787l0 0.325701c0,0.0954094 -0.0389803,0.182098 -0.101776,0.244894 -0.0627913,0.0627913 -0.14948,0.101772 -0.24489,0.101772l-0.354752 0c-0.0954094,0 -0.182098,-0.0389803 -0.244894,-0.101772 -0.0627913,-0.0627992 -0.101772,-0.149484 -0.101772,-0.244894l0 -0.325701c0,-0.0428425 0.0347323,-0.0775787 0.0775748,-0.0775787z"/>
 </g>
</svg>
