<svg xmlns="http://www.w3.org/2000/svg" viewBox="0 0 64 64"><g id="_02-Loan" data-name="02-Loan"><path d="M17,1V7a2.006,2.006,0,0,1-2,2H9Z" style="fill:#afb4c8"/><path d="M55,5V59a4,4,0,0,1-4,4H13a4,4,0,0,1-4-4V9h6a2.006,2.006,0,0,0,2-2V1H51A4,4,0,0,1,55,5Z" style="fill:#f2f6fc"/><path d="M42,27H22V16.594l-2,1.09V11.406l2-1.09V5h6V7.044l4-2.183,12,6.545v6.278l-2-1.09Z" style="fill:#9c9c9c"/><rect x="26" y="18" width="4" height="8" style="fill:#b2876d"/><rect x="28" y="18" width="2" height="8" style="fill:#966857"/><polygon points="27 6 27 8.73 23 10.91 23 6 27 6" style="fill:#966857"/><polygon points="25 6 23 6 23 10.91 25 9.82 25 6" style="fill:#b2876d"/><rect x="33" y="18" width="5" height="4" style="fill:#a3d4ff"/><rect x="33" y="20" width="5" height="2" style="fill:#65b1fc"/><path d="M38,18H33v4h5Zm3-3.09V26H30V18H26v8H23V14.91L32,10Z" style="fill:#f7f7f7"/><polygon points="32 10 23 14.91 23 16.91 32 12 41 16.91 41 14.91 32 10" style="fill:#cfcfcf"/><polygon points="27 8.73 32 6 43 12 43 16 41 14.91 32 10 23 14.91 21 16 21 12 23 10.91 27 8.73" style="fill:#ff936b"/><polygon points="32 8 23 12.91 21 14 21 16 23 14.91 32 10 41 14.91 43 16 43 14 41 12.91 32 8" style="fill:#ff7045"/><circle cx="32" cy="50" r="8" style="fill:#ffda45"/><circle cx="32" cy="50" r="6" style="fill:#ffee6e"/><path d="M33,49H31a1,1,0,0,1,0-2h2a1,1,0,0,1,1,1h2a3,3,0,0,0-3-3V44H31v1a3,3,0,0,0,0,6h2a1,1,0,0,1,0,2H31a1,1,0,0,1-1-1H28a3,3,0,0,0,3,3v1h2V55a3,3,0,0,0,0-6Z" style="fill:#ff936b"/><path d="M27.293,29.293l-3,3,1.414,1.414L27,32.414V39h2V32.414l1.293,1.293,1.414-1.414-3-3A1,1,0,0,0,27.293,29.293Z" style="fill:#afb4c8"/><path d="M38.293,34.293,37,35.586V29H35v6.586l-1.293-1.293-1.414,1.414,3,3a1,1,0,0,0,1.414,0l3-3Z" style="fill:#afb4c8"/><polygon points="9 52 9 59 3 59 1 59 1 52 3 52 9 52" style="fill:#65b1fc"/><polygon points="9 55 9 59 3 59 1 59 1 55 3 55 9 55" style="fill:#4a98f7"/><polygon points="63 52 63 59 61 59 55 59 55 52 61 52 63 52" style="fill:#65b1fc"/><polygon points="63 55 63 59 61 59 55 59 55 55 61 55 63 55" style="fill:#4a98f7"/><path d="M13,63H3V59H9A4,4,0,0,0,13,63Z" style="fill:#65b1fc"/><path d="M61,59v4H51a4,4,0,0,0,4-4Z" style="fill:#65b1fc"/><path d="M9,19v8.29c-2.61.76-4.53,2.94-5.83,5.04L6,21Z" style="fill:#faa68e"/><path d="M60.83,32.33c-1.3-2.1-3.22-4.28-5.83-5.04V19l3,2Z" style="fill:#faa68e"/><path d="M9,41.48V52H3V49a1.959,1.959,0,0,1-2-2V37a21.866,21.866,0,0,1,2.17-4.67c1.3-2.1,3.22-4.28,5.83-5.04A6.858,6.858,0,0,1,11,27h7a3,3,0,0,1,0,6H14S14,39.58,9,41.48Z" style="fill:#ffdecf"/><path d="M6,41.48V52H9V41.48c5-1.9,5-8.48,5-8.48H11S11,39.58,6,41.48Z" style="fill:#ffcdbe"/><path d="M18,27H15a3,3,0,0,1,0,6h3a3,3,0,0,0,0-6Z" style="fill:#ffcdbe"/><path d="M61,49v3H55V41.48C50,39.58,50,33,50,33H46a3,3,0,0,1,0-6h7a6.858,6.858,0,0,1,2,.29c2.61.76,4.53,2.94,5.83,5.04A21.866,21.866,0,0,1,63,37V47A1.959,1.959,0,0,1,61,49Z" style="fill:#ffdecf"/><path d="M46,30a3,3,0,0,1,3-3H46a3,3,0,0,0,0,6h3a3,3,0,0,1-3-3Z" style="fill:#ffcdbe"/><path d="M53,33H50s0,6.58,5,8.48V52h3V41.48C53,39.58,53,33,53,33Z" style="fill:#ffcdbe"/><path d="M64,47V37a1,1,0,0,0-.042-.287,22.649,22.649,0,0,0-2.2-4.81L58.97,20.758a1,1,0,0,0-.415-.59L56,18.465V5a5.006,5.006,0,0,0-5-5H17a1,1,0,0,0-.707.293l-8,8A1,1,0,0,0,8,9v9.465l-2.555,1.7a1,1,0,0,0-.415.59L2.246,31.9a22.649,22.649,0,0,0-2.2,4.81A1,1,0,0,0,0,37V47a2.818,2.818,0,0,0,2,2.833V51H1a1,1,0,0,0-1,1v7a1,1,0,0,0,1,1H2v3H4V60H8.1A5.009,5.009,0,0,0,13,64H51a5.009,5.009,0,0,0,4.9-4H60v3h2V60h1a1,1,0,0,0,1-1V52a1,1,0,0,0-1-1H62V49.833A2.818,2.818,0,0,0,64,47Zm-2,0a.915.915,0,0,1-1,1,1,1,0,0,0-1,1v2H56V42.8a10.081,10.081,0,0,0,2,.2V41c-6.891,0-7-7.675-7-8a1,1,0,0,0-1-1H46a2,2,0,0,1,0-4h7c5.761,0,8.625,8.023,9,9.156ZM57.124,21.618,58.793,28.3A9.649,9.649,0,0,0,56,26.573v-5.7ZM16,3.414V7a1,1,0,0,1-1,1H11.414Zm-9.124,18.2L8,20.869v5.7A9.649,9.649,0,0,0,5.207,28.3ZM2,37.156C2.375,36.023,5.239,28,11,28h7a2,2,0,0,1,0,4H14a1,1,0,0,0-1,1c0,.327-.109,8-7,8v2a10.081,10.081,0,0,0,2-.2V51H4V49a1.012,1.012,0,0,0-.988-1A.919.919,0,0,1,2,47ZM2,53H8v5H2Zm49,9H13a3,3,0,0,1-3-3V42.134c3.412-1.672,4.7-5.426,4.952-8.134H18a4,4,0,0,0,0-8H11a8.151,8.151,0,0,0-1,.067V10h5a3,3,0,0,0,3-3V2H51a3,3,0,0,1,3,3V26.067A8.151,8.151,0,0,0,53,26H46a4,4,0,0,0,0,8h3.048c.251,2.708,1.54,6.462,4.952,8.134V59A3,3,0,0,1,51,62Zm11-4H56V53h6Z"/><path d="M32,41a9,9,0,1,0,9,9A9.011,9.011,0,0,0,32,41Zm0,16a7,7,0,1,1,7-7A7.008,7.008,0,0,1,32,57Z"/><path d="M31,47h2a1,1,0,0,1,1,1h2a3,3,0,0,0-3-3V44H31v1a3,3,0,0,0,0,6h2a1,1,0,0,1,0,2H31a1,1,0,0,1-1-1H28a3,3,0,0,0,3,3v1h2V55a3,3,0,0,0,0-6H31a1,1,0,0,1,0-2Z"/><path d="M29,39V32.414l1.293,1.293,1.414-1.414-3-3a1,1,0,0,0-1.414,0l-3,3,1.414,1.414L27,32.414V39Z"/><path d="M35,29v6.586l-1.293-1.293-1.414,1.414,3,3a1,1,0,0,0,1.414,0l3-3-1.414-1.414L37,35.586V29Z"/><path d="M42,16.594l.521.284A1,1,0,0,0,44,16V12a1,1,0,0,0-.521-.878l-11-6a1,1,0,0,0-.958,0L28,7.043V6a1,1,0,0,0-1-1H23a1,1,0,0,0-1,1v4.315l-1.479.807A1,1,0,0,0,20,12v4a1,1,0,0,0,1.479.878L22,16.594V26a1,1,0,0,0,1,1H41a1,1,0,0,0,1-1ZM24,7h2V8.134l-2,1.09Zm-2,5.594L32,7.139l10,5.455v1.721L32.479,9.122a1,1,0,0,0-.958,0L22,14.315ZM27,25V19h2v6Zm4,0V18a1,1,0,0,0-1-1H26a1,1,0,0,0-1,1v7H24V15.5l8-4.364L40,15.5V25Z"/><path d="M38,17H33a1,1,0,0,0-1,1v4a1,1,0,0,0,1,1h5a1,1,0,0,0,1-1V18A1,1,0,0,0,38,17Zm-1,4H34V19h3Z"/></g></svg>