<?xml version="1.0" encoding="UTF-8"?>
<!DOCTYPE svg PUBLIC "-//W3C//DTD SVG 1.1//EN" "http://www.w3.org/Graphics/SVG/1.1/DTD/svg11.dtd">
<!-- Creator: CorelDRAW -->
<svg xmlns="http://www.w3.org/2000/svg" xml:space="preserve" width="2048px" height="2048px" style="shape-rendering:geometricPrecision; text-rendering:geometricPrecision; image-rendering:optimizeQuality; fill-rule:evenodd; clip-rule:evenodd"
viewBox="0 0 2048 2048"
 xmlns:xlink="http://www.w3.org/1999/xlink">
 <defs>
  <style type="text/css">
   <![CDATA[
    .fil2 {fill:none}
    .fil1 {fill:#7CB342}
    .fil0 {fill:#AED581}
    .fil3 {fill:#FF8F00}
    .fil4 {fill:#FFE082}
    .fil5 {fill:#E30D18;fill-rule:nonzero}
   ]]>
  </style>
   <clipPath id="id0">
    <path d="M1024 -0.0011811c565.539,0 1024,458.462 1024,1024 0,565.539 -458.462,1024 -1024,1024 -565.539,0 -1024,-458.462 -1024,-1024 0,-565.539 458.462,-1024 1024,-1024z"/>
   </clipPath>
 </defs>
 <g id="Layer_x0020_1">
  <metadata id="CorelCorpID_0Corel-Layer"/>
  <path class="fil0" d="M1024 -0.0011811c565.539,0 1024,458.462 1024,1024 0,565.539 -458.462,1024 -1024,1024 -565.539,0 -1024,-458.462 -1024,-1024 0,-565.539 458.462,-1024 1024,-1024z"/>
  <g style="clip-path:url(#id0)">
   <g id="_300474752">
    <g>
     <polygon id="_3603729441" class="fil1" points="1503.36,890.071 2639.24,2025.95 2618.03,2042.1 1482.15,906.216 "/>
     <polygon id="_360372728" class="fil1" points="1482.15,906.216 2618.03,2042.1 2543.25,2099.02 1407.37,963.134 "/>
     <polygon id="_360373736" class="fil1" points="1407.37,963.134 2543.25,2099.02 2534.82,2091.64 1398.94,955.756 "/>
     <polygon id="_360373616" class="fil1" points="1398.94,955.756 2534.82,2091.64 2534.82,2695.79 1398.94,1559.91 "/>
     <polygon id="_360373568" class="fil1" points="1398.94,1559.91 2534.82,2695.79 2534.82,2719.88 1398.94,1584 "/>
     <polygon id="_360373256" class="fil1" points="1398.94,1584 2534.82,2719.88 2509.65,2719.88 1373.77,1584 "/>
     <polygon id="_360373808" class="fil1" points="649.061,955.753 1784.94,2091.64 1776.51,2099.02 640.626,963.134 "/>
     <polygon id="_360373496" class="fil1" points="1175.01,1584 2310.89,2719.88 2008.87,2719.88 872.989,1584 "/>
     <polygon id="_360373760" class="fil1" points="872.989,1584 2008.87,2719.88 1903.22,2719.88 767.334,1584 "/>
     <polygon id="_360373784" class="fil1" points="767.334,1584 1903.22,2719.88 1810.11,2719.88 674.229,1584 "/>
     <polygon id="_360374192" class="fil1" points="674.229,1584 1810.11,2719.88 1784.94,2719.88 649.061,1584 "/>
     <polygon id="_360374288" class="fil1" points="640.626,963.134 1776.51,2099.02 1701.73,2042.1 565.852,906.216 "/>
     <polygon id="_360374240" class="fil1" points="565.852,906.216 1701.73,2042.1 1680.53,2025.95 544.645,890.071 "/>
     <polygon id="_360374480" class="fil1" points="1373.77,1584 2509.65,2719.88 2310.89,2719.88 1175.01,1584 "/>
    </g>
    <polygon id="_300474296" class="fil1" points="1039.87,478.105 1483.52,872.436 1503.36,890.071 1482.15,906.216 1407.37,963.134 1398.94,955.756 1398.94,1559.91 1398.94,1584 1373.77,1584 1175.01,1584 872.989,1584 767.334,1584 674.229,1584 649.061,1584 649.061,1559.91 649.061,955.753 640.626,963.134 565.852,906.216 544.645,890.071 564.486,872.436 1008.13,478.105 1024,463.999 "/>
   </g>
  </g>
  <path class="fil2" d="M1024 -0.0011811c565.539,0 1024,458.462 1024,1024 0,565.539 -458.462,1024 -1024,1024 -565.539,0 -1024,-458.462 -1024,-1024 0,-565.539 458.462,-1024 1024,-1024z"/>
  <rect class="fil3" x="767.335" y="994.832" width="606.436" height="589.168"/>
  <path class="fil4" d="M1040.91 616.797l349.771 306.034 8.25827 7.22599 0.0011811 10.4622 0 619.394 0 24.0862 -25.1693 0 -198.758 0 0 -239.103c0,-48.4737 -16.9831,-92.5264 -44.3422,-124.446 -27.3603,-31.9193 -65.1189,-51.7335 -106.668,-51.7335l-0.00236221 0c-41.55,0 -79.3087,19.8142 -106.668,51.7335 -27.3603,31.9193 -44.3433,75.9721 -44.3433,124.446l0 239.103 -198.76 0 -25.1693 0 0 -24.0862 0 -619.394 0 -10.4622 8.25946 -7.22599 349.771 -306.034 16.9099 -14.7945 16.9099 14.7945z"/>
  <polygon class="fil5" points="640.626,963.134 565.852,906.216 544.645,890.072 564.486,872.436 1008.13,478.105 1024,463.999 1039.87,478.105 1483.52,872.436 1503.36,890.072 1482.15,906.216 1407.37,963.134 1057.89,657.351 1024,627.699 "/>
 </g>
</svg>
