<?xml version="1.0" encoding="UTF-8"?>
<!DOCTYPE svg PUBLIC "-//W3C//DTD SVG 1.1//EN" "http://www.w3.org/Graphics/SVG/1.1/DTD/svg11.dtd">
<!-- Creator: CorelDRAW -->
<svg xmlns="http://www.w3.org/2000/svg" xml:space="preserve" width="6.82666in" height="6.82666in" style="shape-rendering:geometricPrecision; text-rendering:geometricPrecision; image-rendering:optimizeQuality; fill-rule:evenodd; clip-rule:evenodd"
viewBox="0 0 6.82666 6.82666"
 xmlns:xlink="http://www.w3.org/1999/xlink">
 <defs>
  <style type="text/css">
   <![CDATA[
    .fil2 {fill:none}
    .fil14 {fill:#33691E}
    .fil13 {fill:#455A64}
    .fil15 {fill:#4B772D}
    .fil6 {fill:#4FC3F7}
    .fil12 {fill:#558B2F}
    .fil10 {fill:#80DEEA}
    .fil4 {fill:#90A4AE}
    .fil9 {fill:#93806E}
    .fil8 {fill:#D50000}
    .fil5 {fill:#DBCBB1}
    .fil1 {fill:#F4511E}
    .fil0 {fill:#FF7043}
    .fil7 {fill:#47241A;fill-rule:nonzero}
    .fil11 {fill:#4DD0E1;fill-rule:nonzero}
    .fil3 {fill:#BFAE94;fill-rule:nonzero}
   ]]>
  </style>
   <clipPath id="id0">
    <path d="M3.41333 -3.93701e-006c1.88513,0 3.41333,1.5282 3.41333,3.41333 0,1.88513 -1.5282,3.41333 -3.41333,3.41333 -1.88513,0 -3.41333,-1.5282 -3.41333,-3.41333 0,-1.88513 1.5282,-3.41333 3.41333,-3.41333z"/>
   </clipPath>
 </defs>
 <g id="Layer_x0020_1">
  <metadata id="CorelCorpID_0Corel-Layer"/>
  <path class="fil0" d="M3.41333 -3.93701e-006c1.88513,0 3.41333,1.5282 3.41333,3.41333 0,1.88513 -1.5282,3.41333 -3.41333,3.41333 -1.88513,0 -3.41333,-1.5282 -3.41333,-3.41333 0,-1.88513 1.5282,-3.41333 3.41333,-3.41333z"/>
  <g style="clip-path:url(#id0)">
   <g id="_457168232">
    <g>
     <polygon id="_4546115201" class="fil1" points="4.14227,1.54918 7.92854,5.33545 7.92854,5.46514 4.14227,1.67887 "/>
     <polygon id="_454611952" class="fil1" points="4.05713,2.99206 7.84339,6.77833 7.84339,6.79352 4.05713,3.00724 "/>
     <polygon id="_454612384" class="fil1" points="4.05713,2.63651 7.84339,6.42278 7.84715,6.42818 7.85067,6.43365 7.85395,6.4392 7.85701,6.4448 7.85984,6.45046 7.86244,6.45618 7.86481,6.46194 7.86697,6.46773 7.8689,6.47356 7.87061,6.47943 7.87211,6.48531 7.8734,6.4912 7.87447,6.49711 7.87533,6.50303 7.87598,6.50894 7.87643,6.51485 7.87667,6.52074 7.8767,6.52662 7.87654,6.53247 7.87618,6.53829 7.87562,6.54408 7.87487,6.54983 7.87393,6.55552 7.87279,6.56117 7.87147,6.56676 7.86996,6.57228 7.86826,6.57774 7.86639,6.58311 7.86433,6.58841 7.86209,6.59362 7.85968,6.59873 7.85709,6.60375 4.07082,2.81748 4.07341,2.81246 4.07582,2.80735 4.07806,2.80214 4.08012,2.79684 4.082,2.79146 4.08369,2.78601 4.0852,2.78049 4.08652,2.7749 4.08766,2.76925 4.0886,2.76356 4.08935,2.75781 4.08991,2.75202 4.09028,2.7462 4.09044,2.74035 4.0904,2.73447 4.09016,2.72857 4.08971,2.72267 4.08906,2.71676 4.0882,2.71084 4.08713,2.70493 4.08585,2.69904 4.08435,2.69315 4.08263,2.68729 4.0807,2.68146 4.07855,2.67567 4.07617,2.66991 4.07357,2.66419 4.07074,2.65853 4.06769,2.65293 4.0644,2.64738 4.06088,2.64191 "/>
     <polygon id="_454612408" class="fil1" points="4.05713,1.67887 7.84339,5.46514 7.84339,6.42278 4.05713,2.63651 "/>
     <polygon id="_454612912" class="fil1" points="4.14227,1.67887 7.92854,5.46514 7.84339,5.46514 4.05713,1.67887 "/>
     <polygon id="_454612240" class="fil1" points="5.28,2.32563 9.06627,6.11191 9.04787,6.12406 9.02994,6.13667 9.01244,6.14973 8.99537,6.16319 8.9787,6.17702 8.96243,6.19118 8.94653,6.20565 8.93099,6.22038 8.91578,6.23534 8.90091,6.25051 8.88634,6.26583 8.87206,6.2813 8.85806,6.29685 8.84431,6.31248 8.83081,6.32813 8.81753,6.34378 8.80446,6.35939 8.79159,6.37492 8.77889,6.39035 8.76635,6.40564 8.75395,6.42076 8.74169,6.43567 8.72952,6.45033 8.71746,6.46473 8.70547,6.47881 8.69354,6.49255 8.68166,6.50591 8.6698,6.51886 8.65796,6.53136 8.64611,6.54339 8.63424,6.5549 8.62233,6.56587 4.83606,2.77959 4.84797,2.76863 4.85984,2.75712 4.87169,2.74509 4.88354,2.73259 4.89539,2.71964 4.90728,2.70628 4.9192,2.69254 4.93119,2.67846 4.94326,2.66406 4.95542,2.6494 4.96769,2.63449 4.98008,2.61937 4.99262,2.60408 5.00532,2.58865 5.0182,2.57311 5.03126,2.5575 5.04454,2.54186 5.05804,2.5262 5.07179,2.51058 5.08579,2.49502 5.10007,2.47956 5.11464,2.46424 5.12952,2.44907 5.14472,2.43411 5.16026,2.41937 5.17617,2.40491 5.19244,2.39075 5.2091,2.37692 5.22618,2.36346 5.24367,2.3504 5.26161,2.33778 "/>
     <polygon id="_454612816" class="fil1" points="1.75526,1.67887 5.54152,5.46514 5.45638,5.46514 1.67011,1.67887 "/>
     <polygon id="_454612888" class="fil1" points="5.03099,5.18166 8.81726,8.96793 8.81723,8.96978 8.81715,8.97163 8.81702,8.97346 8.81684,8.97528 8.81661,8.97708 8.81632,8.97888 8.81599,8.98066 8.81561,8.98243 5.02934,5.19615 5.02972,5.19439 5.03006,5.19261 5.03034,5.19081 5.03057,5.189 5.03076,5.18719 5.03089,5.18535 5.03096,5.18351 "/>
     <polygon id="_454612672" class="fil1" points="4.07082,2.81748 7.85709,6.60375 7.8602,6.60726 7.86329,6.61078 7.86639,6.6143 7.86947,6.61783 7.87256,6.62135 7.87563,6.62489 7.87871,6.62843 7.88179,6.63196 7.88487,6.6355 7.88795,6.63904 7.89104,6.64257 7.89412,6.64611 7.89721,6.64964 7.90031,6.65317 7.90341,6.6567 7.90653,6.66022 4.12026,2.87395 4.11715,2.87043 4.11404,2.8669 4.11094,2.86337 4.10785,2.85984 4.10477,2.8563 4.10169,2.85277 4.0986,2.84923 4.09552,2.84569 4.09244,2.84215 4.08937,2.83862 4.08629,2.83508 4.0832,2.83156 4.08012,2.82803 4.07702,2.8245 4.07393,2.82099 "/>
     <polygon id="_454613704" class="fil1" points="4.20257,2.83799 7.98883,6.62426 7.98446,6.62947 7.98009,6.63468 7.97572,6.6399 7.97135,6.64513 7.96697,6.65037 7.96259,6.65561 7.95819,6.66087 7.9538,6.66612 7.94939,6.67139 7.94498,6.67666 7.94056,6.68193 7.93612,6.68721 7.93167,6.69249 7.92721,6.69778 7.92274,6.70307 7.91825,6.70836 7.91375,6.71366 7.90922,6.71896 7.90469,6.72426 7.90013,6.72956 7.89556,6.73486 7.89096,6.74016 7.88634,6.74546 7.8817,6.75076 7.87703,6.75606 7.87234,6.76136 7.86763,6.76666 7.86289,6.77195 7.85811,6.77724 7.85332,6.78253 7.84849,6.78782 7.84363,6.7931 4.05737,3.00683 4.06222,3.00155 4.06705,2.99626 4.07185,2.99097 4.07662,2.98568 4.08136,2.98039 4.08607,2.97509 4.09076,2.96979 4.09543,2.96449 4.10007,2.95919 4.10469,2.95389 4.10929,2.94859 4.11386,2.94328 4.11842,2.93798 4.12296,2.93269 4.12748,2.92739 4.13198,2.92209 4.13647,2.9168 4.14094,2.91151 4.14541,2.90622 4.14985,2.90094 4.15429,2.89566 4.15871,2.89039 4.16313,2.88511 4.16753,2.87985 4.17193,2.87459 4.17632,2.86934 4.1807,2.8641 4.18508,2.85886 4.18946,2.85363 4.19383,2.84841 4.1982,2.8432 "/>
     <polygon id="_454613632" class="fil1" points="4.83606,2.77959 8.62233,6.56587 8.59523,6.58935 8.56847,6.61104 8.54206,6.63098 8.51601,6.64921 8.49033,6.66577 8.46505,6.68069 8.44016,6.69402 8.41569,6.70579 8.39165,6.71605 8.36806,6.72483 8.34492,6.73217 8.32225,6.73812 8.30007,6.74271 8.27839,6.74598 8.25721,6.74797 8.23657,6.74872 8.21646,6.74828 8.1969,6.74667 8.17791,6.74393 8.1595,6.74012 8.14169,6.73526 8.12448,6.7294 8.1079,6.72258 8.09194,6.71483 8.07664,6.70619 8.062,6.69671 8.04804,6.68643 8.03476,6.67537 8.02219,6.66359 8.01034,6.65111 4.22407,2.86484 4.23593,2.87731 4.2485,2.8891 4.26177,2.90015 4.27574,2.91044 4.29037,2.91992 4.30568,2.92856 4.32163,2.93631 4.33822,2.94313 4.35542,2.94899 4.37324,2.95385 4.39165,2.95766 4.41063,2.96039 4.43019,2.962 4.4503,2.96245 4.47094,2.9617 4.49212,2.95971 4.5138,2.95644 4.53598,2.95185 4.55865,2.9459 4.58179,2.93856 4.60539,2.92978 4.62943,2.91952 4.65389,2.90774 4.67878,2.89442 4.70407,2.8795 4.72974,2.86294 4.75579,2.84471 4.7822,2.82477 4.80896,2.80308 "/>
     <polygon id="_454613248" class="fil1" points="5.2061,3.00724 8.99237,6.79352 8.99237,6.9232 5.2061,3.13693 "/>
     <polygon id="_454613320" class="fil1" points="5.2061,3.13693 8.99237,6.9232 8.81726,6.9232 5.03099,3.13693 "/>
     <polygon id="_454613032" class="fil1" points="5.03099,3.13693 8.81726,6.9232 8.81726,8.96793 5.03099,5.18166 "/>
     <polygon id="_454613296" class="fil1" points="5.22678,5.19615 9.01305,8.98243 9.01305,9.06376 5.22678,5.27748 "/>
     <polygon id="_454613080" class="fil1" points="5.22678,5.27748 9.01305,9.06376 5.33293,9.06376 1.54666,5.27748 "/>
    </g>
    <path id="_457168160" class="fil1" d="M4.18144 2.80402c-0.149315,-0.277228 0.0933819,-0.792276 1.09856,-0.478382 -0.198677,0.126961 -0.316638,0.340039 -0.443941,0.453961 -0.290736,0.260185 -0.526795,0.207969 -0.633492,0.0583976 -0.0465984,0.0554606 -0.0932244,0.112524 -0.145201,0.168835l-0.000240157 -0.0147638 0 0.0151811 0.000161417 0 0.885169 0 0.263646 0 0 0.129689 -0.17511 0 0 2.04472c0,0.00495669 -0.000570866,0.00980315 -0.00165354,0.0144961l0.197441 0 0 0.0813307 -3.68012 0 0 -0.0813307 0.210252 0c-0.00108268,-0.00553543 -0.00165748,-0.011252 -0.00165748,-0.0171024l0 -3.50019 -0.0851417 0 0 -0.129685 0.173677 3.93701e-006 2.1248 0 0.173681 -3.93701e-006 0 0.129685 -0.0851457 0 0 0.957642c0.0412992,0.057185 0.0422205,0.128008 0.0136969,0.180969 0.0165787,0.0187087 0.032815,0.0377047 0.049437,0.0564724 0.0203543,-0.0233701 0.0406378,-0.0467598 0.0611772,-0.0699331z"/>
   </g>
  </g>
  <path class="fil2" d="M3.41333 -3.93701e-006c1.88513,0 3.41333,1.5282 3.41333,3.41333 0,1.88513 -1.5282,3.41333 -3.41333,3.41333 -1.88513,0 -3.41333,-1.5282 -3.41333,-3.41333 0,-1.88513 1.5282,-3.41333 3.41333,-3.41333z"/>
  <path class="fil3" d="M3.88171 5.19615c-0.00108661,-0.00469291 -0.00165748,-0.00953543 -0.00165748,-0.0145l0.0885354 -0.0750512 0 -1.94925c-0.0488937,0 -0.0885354,-0.0336063 -0.0885354,-0.0750551 0,-0.0414488 0.0396417,-0.0750551 0.0885354,-0.0750551l0.973866 0c0.0488937,0 0.0885354,0.0336063 0.0885354,0.0750551l0 2.09935c0,0.00496457 -0.000570866,0.00980709 -0.00165354,0.0145l-1.14763 0z"/>
  <polygon class="fil4" points="2.28646,4.47078 2.10939,4.47078 2.10939,4.91345 2.28646,4.91345 "/>
  <polygon class="fil4" points="3.70299,4.47078 3.52592,4.47078 3.52592,4.91345 3.70299,4.91345 "/>
  <path class="fil4" d="M3.51603 4.23876c0.0227283,0.0431614 0.00616142,0.0965827 -0.0370039,0.119311 -0.0431614,0.0227283 -0.0965827,0.00615748 -0.119311,-0.0370039 -0.0305984,-0.0580512 -0.0894528,-0.107709 -0.165555,-0.143748 -0.0814764,-0.0385827 -0.181394,-0.0606654 -0.287969,-0.0606654 -0.104299,0 -0.202327,0.0211614 -0.282913,0.0583268 -0.0757244,0.0349213 -0.134949,0.0831063 -0.167165,0.139701 -0.024063,0.0423976 -0.0779488,0.0572638 -0.12035,0.0332008 -0.0423976,-0.024063 -0.0572598,-0.0779528 -0.0331969,-0.12035 0.0510669,-0.0897087 0.138311,-0.163028 0.246705,-0.213016 0.103531,-0.047752 0.227287,-0.0749331 0.356921,-0.0749331 0.132496,0 0.258657,0.028374 0.363362,0.0779606 0.110079,0.0521299 0.197543,0.128386 0.246476,0.221217z"/>
  <path class="fil5" d="M3.96859 1.54919l-2.1248 0c-0.0488976,0 -0.0885354,0.0396417 -0.0885354,0.0885315l0 3.54133c0,0.00585039 0.000574803,0.0115669 0.00165748,0.0171024l0.904709 0 0 -0.813902 0.489138 0 0 0.813902 0.904709 0c0.00108268,-0.00553543 0.00165748,-0.011252 0.00165748,-0.0171024l0 -3.54133c0,-0.0488898 -0.0396417,-0.0885315 -0.0885354,-0.0885315z"/>
  <polygon class="fil6" points="2.99472,1.90587 2.81766,1.90587 2.81766,2.09926 2.99472,2.09926 "/>
  <path class="fil7" d="M2.99472 1.89756l-0.177067 0c-0.00457874,0 -0.00829921,0.00372047 -0.00829921,0.00830315l0 0.19339c0,0.00457874 0.00372047,0.00829921 0.00829921,0.00829921l0.177067 0c0.00458268,0 0.00830315,-0.00372047 0.00830315,-0.00829921l0 -0.19339c0,-0.00458268 -0.00372047,-0.00830315 -0.00830315,-0.00830315zm-0.168768 0.0166024l0.160469 0 0 0.176787 -0.160469 0 0 -0.176787z"/>
  <polygon class="fil6" points="2.64059,1.90587 2.46353,1.90587 2.46353,2.09926 2.64059,2.09926 "/>
  <path class="fil7" d="M2.64059 1.89756l-0.177067 0c-0.00458268,0 -0.00830315,0.00372047 -0.00830315,0.00830315l0 0.19339c0,0.00457874 0.00372047,0.00829921 0.00830315,0.00829921l0.177067 0c0.00457874,0 0.00829921,-0.00372047 0.00829921,-0.00829921l0 -0.19339c0,-0.00458268 -0.00372047,-0.00830315 -0.00829921,-0.00830315zm-0.168768 0.0166024l0.160469 0 0 0.176787 -0.160469 0 0 -0.176787z"/>
  <polygon class="fil6" points="2.28646,1.90587 2.10939,1.90587 2.10939,2.09926 2.28646,2.09926 "/>
  <path class="fil7" d="M2.28646 1.89756l-0.177067 0c-0.00458268,0 -0.00829921,0.00372047 -0.00829921,0.00830315l0 0.19339c0,0.00457874 0.00371654,0.00829921 0.00829921,0.00829921l0.177067 0c0.00458268,0 0.00829921,-0.00372047 0.00829921,-0.00829921l0 -0.19339c0,-0.00458268 -0.00371654,-0.00830315 -0.00829921,-0.00830315zm-0.168768 0.0166024l0.160469 0 0 0.176787 -0.160469 0 0 -0.176787z"/>
  <polygon class="fil6" points="2.99472,2.29265 2.81766,2.29265 2.81766,2.48604 2.99472,2.48604 "/>
  <path class="fil7" d="M2.99472 2.28434l-0.177067 0c-0.00457874,0 -0.00829921,0.00372047 -0.00829921,0.00830315l0 0.19339c0,0.00458268 0.00372047,0.00830315 0.00829921,0.00830315l0.177067 0c0.00458268,0 0.00830315,-0.00372047 0.00830315,-0.00830315l0 -0.19339c0,-0.00458268 -0.00372047,-0.00830315 -0.00830315,-0.00830315zm-0.168768 0.0166024l0.160469 0 0 0.176791 -0.160469 0 0 -0.176791z"/>
  <polygon class="fil6" points="2.99472,2.67943 2.81766,2.67943 2.81766,2.87282 2.99472,2.87282 "/>
  <path class="fil7" d="M2.99472 2.67113l-0.177067 0c-0.00457874,0 -0.00829921,0.00372047 -0.00829921,0.00829921l0 0.193394c0,0.00458268 0.00372047,0.00829921 0.00829921,0.00829921l0.177067 0c0.00458268,0 0.00830315,-0.00371654 0.00830315,-0.00829921l0 -0.193394c0,-0.00457874 -0.00372047,-0.00829921 -0.00830315,-0.00829921zm-0.168768 0.0166024l0.160469 0 0 0.176791 -0.160469 0 0 -0.176791z"/>
  <polygon class="fil6" points="2.99472,3.06621 2.81766,3.06621 2.81766,3.2596 2.99472,3.2596 "/>
  <path class="fil7" d="M2.99472 3.05791l-0.177067 0c-0.00457874,0 -0.00829921,0.00372047 -0.00829921,0.00829921l0 0.19339c0,0.00458268 0.00372047,0.00829921 0.00829921,0.00829921l0.177067 0c0.00458268,0 0.00830315,-0.00371654 0.00830315,-0.00829921l0 -0.19339c0,-0.00457874 -0.00372047,-0.00829921 -0.00830315,-0.00829921zm-0.168768 0.0165984l0.160469 0 0 0.176791 -0.160469 0 0 -0.176791z"/>
  <polygon class="fil6" points="2.99472,3.45299 2.81766,3.45299 2.81766,3.64638 2.99472,3.64638 "/>
  <path class="fil7" d="M2.99472 3.44469l-0.177067 0c-0.00457874,0 -0.00829921,0.00371654 -0.00829921,0.00829921l0 0.19339c0,0.00458268 0.00372047,0.00829921 0.00829921,0.00829921l0.177067 0c0.00458268,0 0.00830315,-0.00371654 0.00830315,-0.00829921l0 -0.19339c0,-0.00458268 -0.00372047,-0.00829921 -0.00830315,-0.00829921zm-0.168768 0.0165984l0.160469 0 0 0.176791 -0.160469 0 0 -0.176791z"/>
  <polygon class="fil6" points="2.99472,3.83978 2.81766,3.83978 2.81766,4.03317 2.99472,4.03317 "/>
  <path class="fil7" d="M2.99472 3.83148l-0.177067 0c-0.00457874,0 -0.00829921,0.00371654 -0.00829921,0.00829921l0 0.19339c0,0.00458268 0.00372047,0.00829921 0.00829921,0.00829921l0.177067 0c0.00458268,0 0.00830315,-0.00371654 0.00830315,-0.00829921l0 -0.19339c0,-0.00458268 -0.00372047,-0.00829921 -0.00830315,-0.00829921zm-0.168768 0.0165984l0.160469 0 0 0.176791 -0.160469 0 0 -0.176791z"/>
  <polygon class="fil6" points="2.64059,2.29265 2.46353,2.29265 2.46353,2.48604 2.64059,2.48604 "/>
  <path class="fil7" d="M2.64059 2.28434l-0.177067 0c-0.00458268,0 -0.00830315,0.00372047 -0.00830315,0.00830315l0 0.19339c0,0.00458268 0.00372047,0.00830315 0.00830315,0.00830315l0.177067 0c0.00457874,0 0.00829921,-0.00372047 0.00829921,-0.00830315l0 -0.19339c0,-0.00458268 -0.00372047,-0.00830315 -0.00829921,-0.00830315zm-0.168768 0.0166024l0.160469 0 0 0.176791 -0.160469 0 0 -0.176791z"/>
  <polygon class="fil6" points="2.64059,2.67943 2.46353,2.67943 2.46353,2.87282 2.64059,2.87282 "/>
  <path class="fil7" d="M2.64059 2.67113l-0.177067 0c-0.00458268,0 -0.00830315,0.00372047 -0.00830315,0.00829921l0 0.193394c0,0.00458268 0.00372047,0.00829921 0.00830315,0.00829921l0.177067 0c0.00457874,0 0.00829921,-0.00371654 0.00829921,-0.00829921l0 -0.193394c0,-0.00457874 -0.00372047,-0.00829921 -0.00829921,-0.00829921zm-0.168768 0.0166024l0.160469 0 0 0.176791 -0.160469 0 0 -0.176791z"/>
  <polygon class="fil6" points="2.64059,3.06621 2.46353,3.06621 2.46353,3.2596 2.64059,3.2596 "/>
  <path class="fil7" d="M2.64059 3.05791l-0.177067 0c-0.00458268,0 -0.00830315,0.00372047 -0.00830315,0.00829921l0 0.19339c0,0.00458268 0.00372047,0.00829921 0.00830315,0.00829921l0.177067 0c0.00457874,0 0.00829921,-0.00371654 0.00829921,-0.00829921l0 -0.19339c0,-0.00457874 -0.00372047,-0.00829921 -0.00829921,-0.00829921zm-0.168768 0.0165984l0.160469 0 0 0.176791 -0.160469 0 0 -0.176791z"/>
  <polygon class="fil6" points="2.64059,3.45299 2.46353,3.45299 2.46353,3.64638 2.64059,3.64638 "/>
  <path class="fil7" d="M2.64059 3.44469l-0.177067 0c-0.00458268,0 -0.00830315,0.00371654 -0.00830315,0.00829921l0 0.19339c0,0.00458268 0.00372047,0.00829921 0.00830315,0.00829921l0.177067 0c0.00457874,0 0.00829921,-0.00371654 0.00829921,-0.00829921l0 -0.19339c0,-0.00458268 -0.00372047,-0.00829921 -0.00829921,-0.00829921zm-0.168768 0.0165984l0.160469 0 0 0.176791 -0.160469 0 0 -0.176791z"/>
  <polygon class="fil6" points="2.64059,3.83978 2.46353,3.83978 2.46353,4.03317 2.64059,4.03317 "/>
  <path class="fil7" d="M2.64059 3.83148l-0.177067 0c-0.00458268,0 -0.00830315,0.00371654 -0.00830315,0.00829921l0 0.19339c0,0.00458268 0.00372047,0.00829921 0.00830315,0.00829921l0.177067 0c0.00457874,0 0.00829921,-0.00371654 0.00829921,-0.00829921l0 -0.19339c0,-0.00458268 -0.00372047,-0.00829921 -0.00829921,-0.00829921zm-0.168768 0.0165984l0.160469 0 0 0.176791 -0.160469 0 0 -0.176791z"/>
  <polygon class="fil6" points="2.28646,2.29265 2.10939,2.29265 2.10939,2.48604 2.28646,2.48604 "/>
  <path class="fil7" d="M2.28646 2.28434l-0.177067 0c-0.00458268,0 -0.00829921,0.00372047 -0.00829921,0.00830315l0 0.19339c0,0.00458268 0.00371654,0.00830315 0.00829921,0.00830315l0.177067 0c0.00458268,0 0.00829921,-0.00372047 0.00829921,-0.00830315l0 -0.19339c0,-0.00458268 -0.00371654,-0.00830315 -0.00829921,-0.00830315zm-0.168768 0.0166024l0.160469 0 0 0.176791 -0.160469 0 0 -0.176791z"/>
  <polygon class="fil6" points="2.28646,2.67943 2.10939,2.67943 2.10939,2.87282 2.28646,2.87282 "/>
  <path class="fil7" d="M2.28646 2.67113l-0.177067 0c-0.00458268,0 -0.00829921,0.00372047 -0.00829921,0.00829921l0 0.193394c0,0.00458268 0.00371654,0.00829921 0.00829921,0.00829921l0.177067 0c0.00458268,0 0.00829921,-0.00371654 0.00829921,-0.00829921l0 -0.193394c0,-0.00457874 -0.00371654,-0.00829921 -0.00829921,-0.00829921zm-0.168768 0.0166024l0.160469 0 0 0.176791 -0.160469 0 0 -0.176791z"/>
  <polygon class="fil6" points="2.28646,3.06621 2.10939,3.06621 2.10939,3.2596 2.28646,3.2596 "/>
  <path class="fil7" d="M2.28646 3.05791l-0.177067 0c-0.00458268,0 -0.00829921,0.00372047 -0.00829921,0.00829921l0 0.19339c0,0.00458268 0.00371654,0.00829921 0.00829921,0.00829921l0.177067 0c0.00458268,0 0.00829921,-0.00371654 0.00829921,-0.00829921l0 -0.19339c0,-0.00457874 -0.00371654,-0.00829921 -0.00829921,-0.00829921zm-0.168768 0.0165984l0.160469 0 0 0.176791 -0.160469 0 0 -0.176791z"/>
  <polygon class="fil6" points="2.28646,3.45299 2.10939,3.45299 2.10939,3.64638 2.28646,3.64638 "/>
  <path class="fil7" d="M2.28646 3.44469l-0.177067 0c-0.00458268,0 -0.00829921,0.00371654 -0.00829921,0.00829921l0 0.19339c0,0.00458268 0.00371654,0.00829921 0.00829921,0.00829921l0.177067 0c0.00458268,0 0.00829921,-0.00371654 0.00829921,-0.00829921l0 -0.19339c0,-0.00458268 -0.00371654,-0.00829921 -0.00829921,-0.00829921zm-0.168768 0.0165984l0.160469 0 0 0.176791 -0.160469 0 0 -0.176791z"/>
  <polygon class="fil6" points="2.28646,3.83978 2.10939,3.83978 2.10939,4.03317 2.28646,4.03317 "/>
  <path class="fil7" d="M2.28646 3.83148l-0.177067 0c-0.00458268,0 -0.00829921,0.00371654 -0.00829921,0.00829921l0 0.19339c0,0.00458268 0.00371654,0.00829921 0.00829921,0.00829921l0.177067 0c0.00458268,0 0.00829921,-0.00371654 0.00829921,-0.00829921l0 -0.19339c0,-0.00458268 -0.00371654,-0.00829921 -0.00829921,-0.00829921zm-0.168768 0.0165984l0.160469 0 0 0.176791 -0.160469 0 0 -0.176791z"/>
  <polygon class="fil6" points="3.34886,1.90587 3.17179,1.90587 3.17179,2.09926 3.34886,2.09926 "/>
  <path class="fil7" d="M3.34886 1.89756l-0.177067 0c-0.00458268,0 -0.00829921,0.00372047 -0.00829921,0.00830315l0 0.19339c0,0.00457874 0.00371654,0.00829921 0.00829921,0.00829921l0.177067 0c0.00458268,0 0.00829921,-0.00372047 0.00829921,-0.00829921l0 -0.19339c0,-0.00458268 -0.00371654,-0.00830315 -0.00829921,-0.00830315zm-0.168768 0.0166024l0.160469 0 0 0.176787 -0.160469 0 0 -0.176787z"/>
  <polygon class="fil6" points="3.70299,2.29265 3.52592,2.29265 3.52592,2.48604 3.70299,2.48604 "/>
  <path class="fil7" d="M3.70299 2.28434l-0.177067 0c-0.00457874,0 -0.00829921,0.00372047 -0.00829921,0.00830315l0 0.19339c0,0.00458268 0.00372047,0.00830315 0.00829921,0.00830315l0.177067 0c0.00458268,0 0.00830315,-0.00372047 0.00830315,-0.00830315l0 -0.19339c0,-0.00458268 -0.00372047,-0.00830315 -0.00830315,-0.00830315zm-0.168768 0.0166024l0.160469 0 0 0.176791 -0.160469 0 0 -0.176791z"/>
  <polygon class="fil6" points="3.70299,2.67943 3.52592,2.67943 3.52592,2.87282 3.70299,2.87282 "/>
  <path class="fil7" d="M3.70299 2.67113l-0.177067 0c-0.00457874,0 -0.00829921,0.00372047 -0.00829921,0.00829921l0 0.193394c0,0.00458268 0.00372047,0.00829921 0.00829921,0.00829921l0.177067 0c0.00458268,0 0.00830315,-0.00371654 0.00830315,-0.00829921l0 -0.193394c0,-0.00457874 -0.00372047,-0.00829921 -0.00830315,-0.00829921zm-0.168768 0.0166024l0.160469 0 0 0.176791 -0.160469 0 0 -0.176791z"/>
  <polygon class="fil6" points="3.70299,3.06621 3.52592,3.06621 3.52592,3.2596 3.70299,3.2596 "/>
  <path class="fil7" d="M3.70299 3.05791l-0.177067 0c-0.00457874,0 -0.00829921,0.00372047 -0.00829921,0.00829921l0 0.19339c0,0.00458268 0.00372047,0.00829921 0.00829921,0.00829921l0.177067 0c0.00458268,0 0.00830315,-0.00371654 0.00830315,-0.00829921l0 -0.19339c0,-0.00457874 -0.00372047,-0.00829921 -0.00830315,-0.00829921zm-0.168768 0.0165984l0.160469 0 0 0.176791 -0.160469 0 0 -0.176791z"/>
  <polygon class="fil6" points="3.70299,3.45299 3.52592,3.45299 3.52592,3.64638 3.70299,3.64638 "/>
  <path class="fil7" d="M3.70299 3.44469l-0.177067 0c-0.00457874,0 -0.00829921,0.00371654 -0.00829921,0.00829921l0 0.19339c0,0.00458268 0.00372047,0.00829921 0.00829921,0.00829921l0.177067 0c0.00458268,0 0.00830315,-0.00371654 0.00830315,-0.00829921l0 -0.19339c0,-0.00458268 -0.00372047,-0.00829921 -0.00830315,-0.00829921zm-0.168768 0.0165984l0.160469 0 0 0.176791 -0.160469 0 0 -0.176791z"/>
  <polygon class="fil6" points="3.70299,3.83978 3.52592,3.83978 3.52592,4.03317 3.70299,4.03317 "/>
  <path class="fil7" d="M3.70299 3.83148l-0.177067 0c-0.00457874,0 -0.00829921,0.00371654 -0.00829921,0.00829921l0 0.19339c0,0.00458268 0.00372047,0.00829921 0.00829921,0.00829921l0.177067 0c0.00458268,0 0.00830315,-0.00371654 0.00830315,-0.00829921l0 -0.19339c0,-0.00458268 -0.00372047,-0.00829921 -0.00830315,-0.00829921zm-0.168768 0.0165984l0.160469 0 0 0.176791 -0.160469 0 0 -0.176791z"/>
  <polygon class="fil6" points="3.34886,2.29265 3.17179,2.29265 3.17179,2.48604 3.34886,2.48604 "/>
  <path class="fil7" d="M3.34886 2.28434l-0.177067 0c-0.00458268,0 -0.00829921,0.00372047 -0.00829921,0.00830315l0 0.19339c0,0.00458268 0.00371654,0.00830315 0.00829921,0.00830315l0.177067 0c0.00458268,0 0.00829921,-0.00372047 0.00829921,-0.00830315l0 -0.19339c0,-0.00458268 -0.00371654,-0.00830315 -0.00829921,-0.00830315zm-0.168768 0.0166024l0.160469 0 0 0.176791 -0.160469 0 0 -0.176791z"/>
  <polygon class="fil6" points="3.34886,2.67943 3.17179,2.67943 3.17179,2.87282 3.34886,2.87282 "/>
  <path class="fil7" d="M3.34886 2.67113l-0.177067 0c-0.00458268,0 -0.00829921,0.00372047 -0.00829921,0.00829921l0 0.193394c0,0.00458268 0.00371654,0.00829921 0.00829921,0.00829921l0.177067 0c0.00458268,0 0.00829921,-0.00371654 0.00829921,-0.00829921l0 -0.193394c0,-0.00457874 -0.00371654,-0.00829921 -0.00829921,-0.00829921zm-0.168768 0.0166024l0.160469 0 0 0.176791 -0.160469 0 0 -0.176791z"/>
  <polygon class="fil6" points="3.34886,3.06621 3.17179,3.06621 3.17179,3.2596 3.34886,3.2596 "/>
  <path class="fil7" d="M3.34886 3.05791l-0.177067 0c-0.00458268,0 -0.00829921,0.00372047 -0.00829921,0.00829921l0 0.19339c0,0.00458268 0.00371654,0.00829921 0.00829921,0.00829921l0.177067 0c0.00458268,0 0.00829921,-0.00371654 0.00829921,-0.00829921l0 -0.19339c0,-0.00457874 -0.00371654,-0.00829921 -0.00829921,-0.00829921zm-0.168768 0.0165984l0.160469 0 0 0.176791 -0.160469 0 0 -0.176791z"/>
  <polygon class="fil6" points="3.34886,3.45299 3.17179,3.45299 3.17179,3.64638 3.34886,3.64638 "/>
  <path class="fil7" d="M3.34886 3.44469l-0.177067 0c-0.00458268,0 -0.00829921,0.00371654 -0.00829921,0.00829921l0 0.19339c0,0.00458268 0.00371654,0.00829921 0.00829921,0.00829921l0.177067 0c0.00458268,0 0.00829921,-0.00371654 0.00829921,-0.00829921l0 -0.19339c0,-0.00458268 -0.00371654,-0.00829921 -0.00829921,-0.00829921zm-0.168768 0.0165984l0.160469 0 0 0.176791 -0.160469 0 0 -0.176791z"/>
  <polygon class="fil6" points="3.34886,3.83978 3.17179,3.83978 3.17179,4.03317 3.34886,4.03317 "/>
  <path class="fil7" d="M3.34886 3.83148l-0.177067 0c-0.00458268,0 -0.00829921,0.00371654 -0.00829921,0.00829921l0 0.19339c0,0.00458268 0.00371654,0.00829921 0.00829921,0.00829921l0.177067 0c0.00458268,0 0.00829921,-0.00371654 0.00829921,-0.00829921l0 -0.19339c0,-0.00458268 -0.00371654,-0.00829921 -0.00829921,-0.00829921zm-0.168768 0.0165984l0.160469 0 0 0.176791 -0.160469 0 0 -0.176791z"/>
  <polygon class="fil6" points="3.70299,1.90587 3.52592,1.90587 3.52592,2.09926 3.70299,2.09926 "/>
  <path class="fil7" d="M3.70299 1.89756l-0.177067 0c-0.00457874,0 -0.00829921,0.00372047 -0.00829921,0.00830315l0 0.19339c0,0.00457874 0.00372047,0.00829921 0.00829921,0.00829921l0.177067 0c0.00458268,0 0.00830315,-0.00372047 0.00830315,-0.00829921l0 -0.19339c0,-0.00458268 -0.00372047,-0.00830315 -0.00830315,-0.00830315zm-0.168768 0.0166024l0.160469 0 0 0.176787 -0.160469 0 0 -0.176787z"/>
  <rect class="fil8" x="3.49393" y="1.87569" width="0.241062" height="0.0363221"/>
  <rect class="fil8" x="3.49393" y="2.27494" width="0.241062" height="0.0363221"/>
  <rect class="fil8" x="3.49393" y="2.66881" width="0.241062" height="0.0363221"/>
  <rect class="fil8" x="3.49393" y="3.05087" width="0.241062" height="0.0363221"/>
  <rect class="fil8" x="3.49393" y="3.44119" width="0.241062" height="0.0363221"/>
  <rect class="fil8" x="3.49393" y="3.82089" width="0.241062" height="0.0363221"/>
  <rect class="fil8" x="3.49393" y="3.05087" width="0.241062" height="0.0363221"/>
  <rect class="fil8" x="3.13979" y="1.87569" width="0.241062" height="0.0363221"/>
  <rect class="fil8" x="3.13979" y="2.27494" width="0.241062" height="0.0363221"/>
  <rect class="fil8" x="3.13979" y="2.66881" width="0.241062" height="0.0363221"/>
  <rect class="fil8" x="3.13979" y="3.05087" width="0.241062" height="0.0363221"/>
  <rect class="fil8" x="3.13979" y="3.44119" width="0.241062" height="0.0363221"/>
  <rect class="fil8" x="3.13979" y="3.82089" width="0.241062" height="0.0363221"/>
  <rect class="fil8" x="3.13979" y="3.05087" width="0.241062" height="0.0363221"/>
  <polygon class="fil6" points="4.79924,3.27904 4.62217,3.27904 4.62217,3.47243 4.79924,3.47243 "/>
  <path class="fil7" d="M4.79924 3.27074l-0.177067 0c-0.00458268,0 -0.00829921,0.00371654 -0.00829921,0.00829921l0 0.193394c0,0.00458268 0.00371654,0.00829921 0.00829921,0.00829921l0.177067 0c0.00458268,0 0.00829921,-0.00371654 0.00829921,-0.00829921l0 -0.193394c0,-0.00458268 -0.00371654,-0.00829921 -0.00829921,-0.00829921zm-0.168768 0.0165984l0.160469 0 0 0.176795 -0.160469 0 0 -0.176795z"/>
  <polygon class="fil6" points="4.79924,3.66582 4.62217,3.66582 4.62217,3.85921 4.79924,3.85921 "/>
  <path class="fil7" d="M4.79924 3.65752l-0.177067 0c-0.00458268,0 -0.00829921,0.00371654 -0.00829921,0.00829921l0 0.193394c0,0.00457874 0.00371654,0.00829921 0.00829921,0.00829921l0.177067 0c0.00458268,0 0.00829921,-0.00372047 0.00829921,-0.00829921l0 -0.193394c0,-0.00458268 -0.00371654,-0.00829921 -0.00829921,-0.00829921zm-0.168768 0.0165984l0.160469 0 0 0.176795 -0.160469 0 0 -0.176795z"/>
  <polygon class="fil6" points="4.79924,4.0526 4.62217,4.0526 4.62217,4.24599 4.79924,4.24599 "/>
  <path class="fil7" d="M4.79924 4.0443l-0.177067 0c-0.00458268,0 -0.00829921,0.00371654 -0.00829921,0.00829921l0 0.19339c0,0.00457874 0.00371654,0.00829921 0.00829921,0.00829921l0.177067 0c0.00458268,0 0.00829921,-0.00372047 0.00829921,-0.00829921l0 -0.19339c0,-0.00458268 -0.00371654,-0.00829921 -0.00829921,-0.00829921zm-0.168768 0.0165984l0.160469 0 0 0.176791 -0.160469 0 0 -0.176791z"/>
  <polygon class="fil6" points="4.79924,4.43939 4.62217,4.43939 4.62217,4.63278 4.79924,4.63278 "/>
  <path class="fil7" d="M4.79924 4.43108l-0.177067 0c-0.00458268,0 -0.00829921,0.00372047 -0.00829921,0.00830315l0 0.19339c0,0.00457874 0.00371654,0.00829921 0.00829921,0.00829921l0.177067 0c0.00458268,0 0.00829921,-0.00372047 0.00829921,-0.00829921l0 -0.19339c0,-0.00458268 -0.00371654,-0.00830315 -0.00829921,-0.00830315zm-0.168768 0.0166024l0.160469 0 0 0.176787 -0.160469 0 0 -0.176787z"/>
  <polygon class="fil6" points="4.79924,4.82617 4.62217,4.82617 4.62217,5.01956 4.79924,5.01956 "/>
  <path class="fil7" d="M4.79924 4.81787l-0.177067 0c-0.00458268,0 -0.00829921,0.00372047 -0.00829921,0.00829921l0 0.19339c0,0.00458268 0.00371654,0.00830315 0.00829921,0.00830315l0.177067 0c0.00458268,0 0.00829921,-0.00372047 0.00829921,-0.00830315l0 -0.19339c0,-0.00457874 -0.00371654,-0.00829921 -0.00829921,-0.00829921zm-0.168768 0.0166024l0.160469 0 0 0.176787 -0.160469 0 0 -0.176787z"/>
  <polygon class="fil6" points="4.44511,3.27904 4.26804,3.27904 4.26804,3.47243 4.44511,3.47243 "/>
  <path class="fil7" d="M4.44511 3.27074l-0.177071 0c-0.00457874,0 -0.00829921,0.00371654 -0.00829921,0.00829921l0 0.193394c0,0.00458268 0.00372047,0.00829921 0.00829921,0.00829921l0.177071 0c0.00457874,0 0.00829921,-0.00371654 0.00829921,-0.00829921l0 -0.193394c0,-0.00458268 -0.00372047,-0.00829921 -0.00829921,-0.00829921zm-0.168768 0.0165984l0.160465 0 0 0.176795 -0.160465 0 0 -0.176795z"/>
  <polygon class="fil6" points="4.44511,3.66582 4.26804,3.66582 4.26804,3.85921 4.44511,3.85921 "/>
  <path class="fil7" d="M4.44511 3.65752l-0.177071 0c-0.00457874,0 -0.00829921,0.00371654 -0.00829921,0.00829921l0 0.193394c0,0.00457874 0.00372047,0.00829921 0.00829921,0.00829921l0.177071 0c0.00457874,0 0.00829921,-0.00372047 0.00829921,-0.00829921l0 -0.193394c0,-0.00458268 -0.00372047,-0.00829921 -0.00829921,-0.00829921zm-0.168768 0.0165984l0.160465 0 0 0.176795 -0.160465 0 0 -0.176795z"/>
  <polygon class="fil6" points="4.44511,4.0526 4.26804,4.0526 4.26804,4.24599 4.44511,4.24599 "/>
  <path class="fil7" d="M4.44511 4.0443l-0.177071 0c-0.00457874,0 -0.00829921,0.00371654 -0.00829921,0.00829921l0 0.19339c0,0.00457874 0.00372047,0.00829921 0.00829921,0.00829921l0.177071 0c0.00457874,0 0.00829921,-0.00372047 0.00829921,-0.00829921l0 -0.19339c0,-0.00458268 -0.00372047,-0.00829921 -0.00829921,-0.00829921zm-0.168768 0.0165984l0.160465 0 0 0.176791 -0.160465 0 0 -0.176791z"/>
  <polygon class="fil6" points="4.44511,4.43939 4.26804,4.43939 4.26804,4.63278 4.44511,4.63278 "/>
  <path class="fil7" d="M4.44511 4.43108l-0.177071 0c-0.00457874,0 -0.00829921,0.00372047 -0.00829921,0.00830315l0 0.19339c0,0.00457874 0.00372047,0.00829921 0.00829921,0.00829921l0.177071 0c0.00457874,0 0.00829921,-0.00372047 0.00829921,-0.00829921l0 -0.19339c0,-0.00458268 -0.00372047,-0.00830315 -0.00829921,-0.00830315zm-0.168768 0.0166024l0.160465 0 0 0.176787 -0.160465 0 0 -0.176787z"/>
  <polygon class="fil6" points="4.44511,4.82617 4.26804,4.82617 4.26804,5.01956 4.44511,5.01956 "/>
  <path class="fil7" d="M4.44511 4.81787l-0.177071 0c-0.00457874,0 -0.00829921,0.00372047 -0.00829921,0.00829921l0 0.19339c0,0.00458268 0.00372047,0.00830315 0.00829921,0.00830315l0.177071 0c0.00457874,0 0.00829921,-0.00372047 0.00829921,-0.00830315l0 -0.19339c0,-0.00457874 -0.00372047,-0.00829921 -0.00829921,-0.00829921zm-0.168768 0.0166024l0.160465 0 0 0.176787 -0.160465 0 0 -0.176787z"/>
  <rect class="fil8" x="4.59017" y="3.26133" width="0.241062" height="0.0363221"/>
  <rect class="fil8" x="4.59017" y="3.6552" width="0.241062" height="0.0363221"/>
  <rect class="fil8" x="4.59017" y="4.03726" width="0.241062" height="0.0363221"/>
  <rect class="fil8" x="4.59017" y="4.42758" width="0.241062" height="0.0363221"/>
  <rect class="fil8" x="4.59017" y="4.80728" width="0.241062" height="0.0363221"/>
  <rect class="fil8" x="4.59017" y="4.03726" width="0.241062" height="0.0363221"/>
  <rect class="fil8" x="4.23604" y="3.26133" width="0.241062" height="0.0363221"/>
  <rect class="fil8" x="4.23604" y="3.6552" width="0.241062" height="0.0363221"/>
  <rect class="fil8" x="4.23604" y="4.03726" width="0.241062" height="0.0363221"/>
  <rect class="fil8" x="4.23604" y="4.42758" width="0.241062" height="0.0363221"/>
  <rect class="fil8" x="4.23604" y="4.80728" width="0.241062" height="0.0363221"/>
  <rect class="fil8" x="4.23604" y="4.03726" width="0.241062" height="0.0363221"/>
  <rect class="fil8" x="2.78566" y="1.87569" width="0.241062" height="0.0363221"/>
  <rect class="fil8" x="2.78566" y="2.27494" width="0.241062" height="0.0363221"/>
  <rect class="fil8" x="2.78566" y="2.66881" width="0.241062" height="0.0363221"/>
  <rect class="fil8" x="2.78566" y="3.05087" width="0.241062" height="0.0363221"/>
  <rect class="fil8" x="2.78566" y="3.44119" width="0.241062" height="0.0363221"/>
  <rect class="fil8" x="2.78566" y="3.82089" width="0.241062" height="0.0363221"/>
  <rect class="fil8" x="2.78566" y="3.05087" width="0.241062" height="0.0363221"/>
  <rect class="fil8" x="2.43153" y="1.87569" width="0.241062" height="0.0363221"/>
  <rect class="fil8" x="2.43153" y="2.27494" width="0.241062" height="0.0363221"/>
  <rect class="fil8" x="2.43153" y="2.66881" width="0.241062" height="0.0363221"/>
  <rect class="fil8" x="2.43153" y="3.05087" width="0.241062" height="0.0363221"/>
  <rect class="fil8" x="2.43153" y="3.44119" width="0.241062" height="0.0363221"/>
  <rect class="fil8" x="2.43153" y="3.82089" width="0.241062" height="0.0363221"/>
  <rect class="fil8" x="2.43153" y="3.05087" width="0.241062" height="0.0363221"/>
  <rect class="fil8" x="2.0774" y="1.87569" width="0.241062" height="0.0363221"/>
  <rect class="fil8" x="2.0774" y="2.27494" width="0.241062" height="0.0363221"/>
  <rect class="fil8" x="2.0774" y="2.66881" width="0.241062" height="0.0363221"/>
  <rect class="fil8" x="2.0774" y="3.05087" width="0.241062" height="0.0363221"/>
  <rect class="fil8" x="2.0774" y="3.44119" width="0.241062" height="0.0363221"/>
  <rect class="fil8" x="2.0774" y="3.82089" width="0.241062" height="0.0363221"/>
  <rect class="fil8" x="2.0774" y="3.05087" width="0.241062" height="0.0363221"/>
  <rect class="fil9" x="1.67011" y="1.54919" width="2.47216" height="0.129683"/>
  <rect class="fil9" x="4.05729" y="3.00725" width="1.14881" height="0.129683"/>
  <rect class="fil10" x="2.59062" y="4.36278" width="0.631144" height="0.904805"/>
  <polygon class="fil7" points="3.22176,4.34467 2.59062,4.34467 2.56987,4.34467 2.56987,4.36542 2.56987,5.26759 2.61137,5.26759 2.61137,4.38617 3.20101,4.38617 3.20101,5.26759 3.24251,5.26759 3.24251,4.36542 3.24251,4.34467 "/>
  <polygon class="fil11" points="2.88346,4.3862 2.88346,5.26859 2.92892,5.26859 2.92892,4.3862 "/>
  <polygon class="fil11" points="3.20109,4.80827 2.61129,4.80827 2.61129,4.85373 3.20109,4.85373 "/>
  <path class="fil12" d="M3.44211 4.24116l-1.07184 0c-0.085811,0 -0.156012,0.0702047 -0.156012,0.156016l0 0 1.38386 0 0 0c0,-0.085811 -0.0702047,-0.156016 -0.156012,-0.156016z"/>
  <rect class="fil13" x="1.54666" y="5.19615" width="3.68012" height="0.0813299"/>
  <path class="fil14" d="M5.28 2.32563c-0.198673,0.126957 -0.316634,0.340039 -0.443937,0.453961 -0.80765,0.72278 -1.19335,-0.965248 0.443937,-0.453961z"/>
  <path class="fil12" d="M4.05638 2.94631c0.167283,-0.18526 0.308236,-0.386862 0.591122,-0.486102 0.11463,-0.0402087 0.138717,-0.0573701 0.263693,-0.0725551l-0.00135433 0.000177165c0.0514094,-0.00120079 0.0720551,0.00555906 0.120193,0.0147126 -0.0398307,0.00131102 -0.0115315,0.00175197 -0.0593071,-0.00227953 -0.115051,-0.0097126 -0.210874,0.0406024 -0.315429,0.0806299 -0.294138,0.11261 -0.411642,0.32411 -0.597933,0.525929l-0.000984252 -0.0605118z"/>
  <path class="fil12" d="M4.56054 2.49827c0.0194528,-0.00046063 0.0393504,-0.000188976 0.0597638,0.000913386 0.10248,0.00552362 0.126823,-0.000122047 0.229323,0.0282874l-0.00111811 -0.000299213c0.0405394,0.015626 0.0544882,0.0275591 0.0891339,0.0502165 -0.0315315,-0.0118071 -0.00957087,-0.00234646 -0.0455827,-0.0208898 -0.0867283,-0.0446496 -0.17778,-0.0362283 -0.272335,-0.0386496 -0.0207717,-0.000531496 -0.0408976,-0.000248031 -0.0604488,0.000779528 0.00300787,-0.00637008 0.00344488,-0.0136732 0.00126378,-0.0203583z"/>
  <path class="fil12" d="M4.35903 2.62402c0.00111024,5.51181e-005 0.00220866,9.05512e-005 0.0033189,0.000153543 0.121299,0.00653937 0.15011,-0.000141732 0.271433,0.0334843l-0.0013189 -0.000354331c0.0479803,0.0184961 0.0644921,0.0326142 0.1055,0.059437 -0.0373228,-0.0139764 -0.0113307,-0.00277559 -0.0539567,-0.0247244 -0.102654,-0.0528504 -0.210425,-0.0428819 -0.322343,-0.045752l-0.00240551 -4.33071e-005c0.00250787,-0.00717323 0.00242913,-0.0150748 -0.000228346,-0.0222008z"/>
  <path class="fil12" d="M4.68211 2.46784c0.00851575,-0.0098189 0.0165591,-0.0199646 0.0240669,-0.0304764 0.0376969,-0.0527874 0.0529291,-0.0644134 0.0699803,-0.120197l-0.000192913 0.000602362c0.00277953,-0.0226339 -0.00217323,-0.0312835 -0.00819685,-0.0518465 -0.00247244,0.017563 -0.00187008,0.00516929 -0.000133858,0.0258898 0.00417323,0.0498976 -0.0413465,0.0950512 -0.0785433,0.143402 -0.00816929,0.010622 -0.016811,0.0208071 -0.0258819,0.0306063 0.007,-0.000692913 0.0137756,3.93701e-005 0.0189016,0.00201969z"/>
  <path class="fil12" d="M4.42341 2.59742c0.000488189,-0.000681102 0.000988189,-0.00135039 0.00147244,-0.00203543 0.0530039,-0.0747323 0.0727559,-0.0904252 0.102217,-0.171941l-0.000330709 0.00088189c0.00712992,-0.0335394 0.00283858,-0.0470197 -0.000641732,-0.078437 -0.00590551,0.0259843 -0.00306693,0.00752362 -0.0046063,0.0386969 -0.00370866,0.0750748 -0.0645236,0.137528 -0.116185,0.205685l-0.00112598 0.00146457c0.00745276,0.000279528 0.0142874,0.00230315 0.0192008,0.00568504z"/>
  <path class="fil14" d="M3.53704 2.58503c0.0965315,0.061689 0.15385,0.165224 0.215705,0.220579 0.392429,0.351189 0.579839,-0.469008 -0.215705,-0.220579z"/>
  <path class="fil15" d="M4.13158 2.88662c-0.0812795,-0.0900197 -0.149768,-0.187976 -0.28722,-0.236193 -0.0556969,-0.0195394 -0.0674016,-0.027878 -0.128126,-0.0352559l0.00065748 8.66142e-005c-0.0249803,-0.000582677 -0.0350118,0.00270079 -0.0584016,0.00714567 0.0193543,0.000637795 0.00560236,0.000854331 0.0288189,-0.0011063 0.0559016,-0.00471654 0.102461,0.0197283 0.153264,0.0391772 0.142917,0.0547165 0.200012,0.157484 0.290531,0.255547l0.000476378 -0.0294016z"/>
  <path class="fil15" d="M3.88661 2.66892c-0.00944882,-0.000224409 -0.0191181,-9.44882e-005 -0.0290394,0.000440945 -0.0497953,0.00268504 -0.061622,-5.90551e-005 -0.111425,0.013748l0.000543307 -0.000145669c-0.0196969,0.00759055 -0.0264764,0.0133898 -0.043311,0.0243976 0.0153228,-0.00573622 0.00465354,-0.0011378 0.0221496,-0.0101496 0.0421417,-0.0216929 0.0863819,-0.0176024 0.132327,-0.0187795 0.0100906,-0.000259843 0.0198701,-0.000122047 0.0293701,0.000377953 -0.00146063,-0.00309449 -0.00167323,-0.00664173 -0.000614173,-0.00988976z"/>
  <path class="fil15" d="M3.98453 2.73001c-0.00053937,2.75591e-005 -0.0010748,4.72441e-005 -0.00161417,7.48031e-005 -0.0589409,0.00317717 -0.072937,-6.69291e-005 -0.131886,0.0162717l0.000641732 -0.000173228c-0.023315,0.00898819 -0.0313386,0.0158504 -0.0512638,0.0288819 0.0181339,-0.00679134 0.00550394,-0.00135039 0.0262165,-0.0120157 0.049878,-0.0256772 0.102244,-0.0208346 0.156622,-0.0222283l0.00116929 -1.9685e-005c-0.00121654,-0.00348819 -0.00117717,-0.00732677 0.000114173,-0.0107913z"/>
  <path class="fil15" d="M3.82755 2.65413c-0.0041378,-0.00477165 -0.00804724,-0.00970079 -0.0116969,-0.0148071 -0.018315,-0.0256496 -0.0257165,-0.0312992 -0.034,-0.0584055l9.44882e-005 0.000295276c-0.00135433,-0.011 0.00105512,-0.0152008 0.00398031,-0.0251929 0.00120472,0.00853543 0.000909449,0.00251181 6.69291e-005,0.0125787 -0.00202756,0.024248 0.0200906,0.046185 0.0381614,0.0696811 0.00397244,0.00516142 0.00816929,0.0101102 0.0125748,0.0148701 -0.00340157,-0.000338583 -0.00669291,1.9685e-005 -0.0091811,0.000980315z"/>
  <path class="fil15" d="M3.95325 2.71709c-0.00023622,-0.000334646 -0.000480315,-0.00065748 -0.000716535,-0.000992126 -0.0257559,-0.036311 -0.0353504,-0.043937 -0.0496654,-0.0835433l0.000161417 0.000429134c-0.00346457,-0.0162992 -0.00138189,-0.0228465 0.000311024,-0.0381142 0.00286614,0.012626 0.00149213,0.00365354 0.00223622,0.0188031 0.00180315,0.0364764 0.0313543,0.0668228 0.0564528,0.0999409l0.000547244 0.000708661c-0.00361811,0.000137795 -0.00694094,0.00112205 -0.00932677,0.00276772z"/>
  <polygon class="fil6" points="2.3765,4.6076 2.11934,4.6076 2.11934,4.88846 2.3765,4.88846 "/>
  <path class="fil7" d="M2.3765 4.59555l-0.257161 0c-0.00665354,0 -0.0120551,0.00540157 -0.0120551,0.0120551l0 0.280862c0,0.00665354 0.00540157,0.0120551 0.0120551,0.0120551l0.257161 0c0.00665354,0 0.0120551,-0.00540157 0.0120551,-0.0120551l0 -0.280862c0,-0.00665354 -0.00540157,-0.0120551 -0.0120551,-0.0120551zm-0.245106 0.0241102l0.233051 0 0 0.256756 -0.233051 0 0 -0.256756z"/>
  <rect class="fil8" x="2.07287" y="4.58018" width="0.3501" height="0.0527541"/>
  <polygon class="fil6" points="3.69304,4.6076 3.43588,4.6076 3.43588,4.88846 3.69304,4.88846 "/>
  <path class="fil7" d="M3.69304 4.59555l-0.257157 0c-0.00665354,0 -0.0120551,0.00540157 -0.0120551,0.0120551l0 0.280862c0,0.00665354 0.00540157,0.0120551 0.0120551,0.0120551l0.257157 0c0.00665354,0 0.0120551,-0.00540157 0.0120551,-0.0120551l0 -0.280862c0,-0.00665354 -0.00540157,-0.0120551 -0.0120551,-0.0120551zm-0.245102 0.0241102l0.233051 0 0 0.256756 -0.233051 0 0 -0.256756z"/>
  <rect class="fil8" x="3.38941" y="4.58018" width="0.3501" height="0.0527541"/>
 </g>
</svg>
