<?xml version="1.0" encoding="UTF-8"?>
<!DOCTYPE svg PUBLIC "-//W3C//DTD SVG 1.1//EN" "http://www.w3.org/Graphics/SVG/1.1/DTD/svg11.dtd">
<!-- Creator: CorelDRAW -->
<svg xmlns="http://www.w3.org/2000/svg" xml:space="preserve" width="2048px" height="2048px" style="shape-rendering:geometricPrecision; text-rendering:geometricPrecision; image-rendering:optimizeQuality; fill-rule:evenodd; clip-rule:evenodd"
viewBox="0 0 2048 2048"
 xmlns:xlink="http://www.w3.org/1999/xlink">
 <defs>
  <style type="text/css">
   <![CDATA[
    .fil1 {fill:none}
    .fil0 {fill:#C0CA33}
    .fil2 {fill:#FFFFFE}
   ]]>
  </style>
 </defs>
 <g id="Layer_x0020_1">
  <metadata id="CorelCorpID_0Corel-Layer"/>
  <rect class="fil0" width="2048" height="2048" rx="256.001" ry="256.001"/>
  <rect class="fil1" x="255.999" y="255.999" width="1536" height="1536"/>
  <path class="fil2" d="M684.276 1177l-0.125197 0 0 -31.9996c0,-1.25669 0.0874016,-3.35551 0.231496,-8.55237 2.37756,-85.8142 40.4268,-165.2 103.289,-223.055 56.3965,-51.9048 128.319,-82.5709 203.975,-89.328l0 -1.54961 31.9996 0c3.19843,0 6.47717,0.198425 9.69213,0.244488 28.5756,0.407481 57.2729,3.43465 85.0359,10.3583 27.9579,6.97323 55.0524,17.4874 80.2536,31.4752l28.0016 15.541 -62.1 111.684 -27.9579 -15.5162c-15.3461,-8.51812 -31.9134,-14.8406 -48.9343,-19.0854 -18.176,-4.53307 -36.9048,-6.70985 -55.6311,-6.70985l-0.862205 0c-2.50394,0.00472441 -4.9937,0.00944883 -7.49764,0.00944883l-7.61103 0c-52.4185,1.72441 -102.96,21.2469 -141.775,56.9682 -37.3252,34.3524 -60.6414,81.1217 -62.1414,132.154 0.0141732,1.78819 0.0330709,3.57284 0.0330709,5.36221l0 31.9996 -0.125197 0 -0.00590552 407.895c-0.0011811,52.7918 28.0725,101.184 66.3355,136.011 41.9764,38.2075 96.9898,59.4485 153.749,59.4485l0.875198 0c2.35984,0 4.71496,0.112205 7.06772,0.114567 55.2508,0.068504 108.956,-19.5839 149.741,-57.1276 37.5095,-34.5272 60.8977,-81.5835 62.3056,-132.888 0.0425197,-1.55551 0.0826772,-3.11693 0.0814961,-4.67244l-0.125197 -320.1 127.75 0 0.125197 320.074c0.0011811,2.73544 -0.0307087,5.47087 -0.105118,8.20512 -2.36221,85.9595 -40.4752,165.512 -103.439,223.471 -64.4186,59.2961 -149.054,90.893 -236.412,90.789 -3.07796,-0.00354331 -6.15,-0.0720473 -9.22678,-0.11811 -87.8505,-1.33228 -173.296,-33.2953 -238.467,-92.615 -64.6312,-58.8272 -108.007,-140.275 -108.007,-228.841l0 -0.875198 0.00590552 -408.77z"/>
  <path class="fil2" d="M1476.17 900.279l0.125197 0 0 31.9996c0,1.25906 -0.0885827,3.35788 -0.231496,8.55119 -2.37874,85.8154 -40.4256,165.201 -103.289,223.056 -56.3989,51.9071 -128.32,82.5721 -203.978,89.328l0 1.54961 -31.9996 0c-3.19843,0 -6.47481,-0.198425 -9.68977,-0.244488 -28.5756,-0.407481 -57.2741,-3.43583 -85.0371,-10.3595 -27.9579,-6.97323 -55.0536,-17.4874 -80.256,-31.4752l-28.0004 -15.541 62.1 -111.684 27.9579 15.5162c15.3473,8.51812 31.9146,14.8406 48.9355,19.0854 18.176,4.53307 36.9059,6.71103 55.6323,6.71103l0.862205 0c2.50276,-0.00472441 4.99252,-0.00944883 7.49528,-0.00944883l7.61221 0c52.4197,-1.72441 102.96,-21.2457 141.776,-56.9682 37.3252,-34.3524 60.6414,-81.1229 62.1414,-132.155 -0.0141732,-1.78819 -0.0330709,-3.57166 -0.0330709,-5.36103l0 -31.9996 0.125197 0 0.00472441 -407.896c0,-52.7918 -28.0725,-101.184 -66.3367,-136.011 -41.9776,-38.2063 -96.9875,-59.4485 -153.748,-59.4485l-0.875198 0c-2.36103,0 -4.71733,-0.112205 -7.07127,-0.114567 -55.2496,-0.0673229 -108.953,19.5862 -149.738,57.1288 -37.5107,34.5272 -60.8977,81.5823 -62.3044,132.887 -0.0425197,1.55669 -0.0826772,3.11693 -0.0814961,4.67363l0.125197 320.1 -127.75 0 -0.125197 -320.074c-0.0011811,-2.73544 0.0307087,-5.47205 0.105118,-8.20631 2.36103,-85.9595 40.4729,-165.512 103.437,-223.469 64.4174,-59.2949 149.053,-90.8942 236.408,-90.7902 3.07914,0.00354331 6.15237,0.0720473 9.23032,0.11811 87.8516,1.33228 173.294,33.2953 238.466,92.615 64.6312,58.8272 108.008,140.275 108.008,228.841l0 0.875198 -0.00472441 408.772z"/>
 </g>
</svg>
