<?xml version="1.0" encoding="UTF-8"?>
<!DOCTYPE svg PUBLIC "-//W3C//DTD SVG 1.1//EN" "http://www.w3.org/Graphics/SVG/1.1/DTD/svg11.dtd">
<!-- Creator: CorelDRAW -->
<svg xmlns="http://www.w3.org/2000/svg" xml:space="preserve" width="6.82666in" height="6.82666in" style="shape-rendering:geometricPrecision; text-rendering:geometricPrecision; image-rendering:optimizeQuality; fill-rule:evenodd; clip-rule:evenodd"
viewBox="0 0 6.82666 6.82666"
 xmlns:xlink="http://www.w3.org/1999/xlink">
 <defs>
  <style type="text/css">
   <![CDATA[
    .fil2 {fill:none}
    .fil0 {fill:#EC407A}
    .fil1 {fill:#FFFFFE;fill-rule:nonzero}
   ]]>
  </style>
 </defs>
 <g id="Layer_x0020_1">
  <metadata id="CorelCorpID_0Corel-Layer"/>
  <rect class="fil0" width="6.82666" height="6.82666"/>
  <path class="fil1" d="M4.78245 3.34566c-0.140756,0.00451181 -0.279969,-0.00222441 -0.417705,-0.0196378 -0.13985,-0.017685 -0.276496,-0.0458976 -0.410083,-0.0840472l-0.126634 -0.0361614 0.0620472 -0.116339c0.0796457,-0.149343 0.107941,-0.350906 0.136228,-0.552461 0.0648465,-0.462047 0.129705,-0.924102 0.743228,-1.00079l0.0258346 0c0.613528,0.076689 0.678386,0.538748 0.743232,1.0008 0.0282874,0.201551 0.0565787,0.40311 0.136228,0.552457l0.0620433 0.116339 -0.12663 0.0361614c-0.133587,0.0381496 -0.270232,0.0663622 -0.410083,0.0840472 -0.137736,0.0174134 -0.276949,0.0241496 -0.417709,0.0196378zm-0.391035 -0.230472c0.127323,0.0160984 0.256528,0.0222323 0.387701,0.0178622l0.00666929 0c0.131177,0.00437008 0.260382,-0.00176378 0.387705,-0.0178622 0.0867008,-0.0109646 0.173339,-0.0267795 0.259906,-0.0472638 -0.057,-0.155362 -0.0813228,-0.328555 -0.10563,-0.50174 -0.0529488,-0.377248 -0.105969,-0.754457 -0.545315,-0.816508 -0.439343,0.0620512 -0.492362,0.439252 -0.545311,0.816504 -0.0243071,0.173193 -0.048626,0.346386 -0.105626,0.501744 0.086563,0.0204803 0.173201,0.0362992 0.259902,0.0472638z"/>
  <path class="fil1" d="M4.08546 3.5127l1.3992 0c0.00735827,0 0.0145433,0.000740157 0.0214803,0.00216142 0.122559,0.0187244 0.228169,0.0557244 0.314461,0.113524 0.0923189,0.0618386 0.160587,0.145748 0.201803,0.254437l0.000240157 -9.05512e-005c0.0058622,0.0154764 0.00788976,0.0314685 0.00654724,0.0469213l0.00248819 0.549862 0.000413386 0c0.00026378,0.0589094 -0.0472717,0.106886 -0.106181,0.10715l-0.000484252 -3.93701e-006 0 7.87402e-006 -2.28274 0c-0.0589094,0 -0.106669,-0.0477598 -0.106669,-0.106669 0,-0.00295669 0.000125984,-0.00588976 0.000362205,-0.0087874l-0.00315748 -0.52976 -0.000413386 3.93701e-006c-0.00011811,-0.0203386 0.00546063,-0.039378 0.0152441,-0.0556142 0.0423346,-0.0821102 0.104106,-0.155157 0.188512,-0.217606 0.0830236,-0.0614252 0.187425,-0.112248 0.316303,-0.150898l-4.33071e-005 -0.000145669c0.010874,-0.00325984 0.0218622,-0.00469291 0.0326339,-0.00449213zm1.39202 0.213339l-1.37856 0c-0.0980354,0.0307323 -0.175776,0.0687126 -0.235681,0.113031 -0.0515236,0.0381181 -0.0900866,0.0811102 -0.117346,0.128339l0.00241732 0.405921 2.07039 0 -0.00195276 -0.431445c-0.0251969,-0.0577047 -0.063811,-0.102902 -0.114469,-0.136831 -0.0582008,-0.0389803 -0.133839,-0.0647992 -0.224791,-0.0790157z"/>
  <path class="fil1" d="M4.54022 3.12752l0.484461 0 0.106669 0 0 0.106669 0 0.385173 0 0.106669 -0.106669 0 -0.484461 0 -0.106669 0 0 -0.106669 0 -0.385173 0 -0.106669 0.106669 0zm0.377791 0.213339l-0.271122 0 0 0.171835 0.271122 0 0 -0.171835z"/>
  <g id="_242000592">
   <rect id="_240110728" class="fil2" width="6.82666" height="6.82666"/>
   <rect id="_242003376" class="fil2" x="0.853331" y="0.853331" width="5.12" height="5.12"/>
  </g>
  <path class="fil1" d="M2.02652 4.67988c-0.446843,0 -0.636575,-0.373063 -0.712268,-0.585189 -0.0630748,0.000102362 -0.113441,-0.0443465 -0.144756,-0.11535 -0.0208819,-0.0473465 -0.0342205,-0.112543 -0.0334882,-0.178579 0.00112992,-0.102429 0.0344055,-0.209862 0.120587,-0.273197 -0.0303189,-0.182835 -0.0276417,-0.327075 -0.00200394,-0.439764 0.0255591,-0.112331 0.0736378,-0.195453 0.135465,-0.255354 0.0636378,-0.0616496 0.14,-0.0972638 0.220646,-0.113854 0.0906181,-0.0186496 0.185925,-0.012622 0.272744,0.00713386 0.0378858,0.00861811 0.0713465,0.00187795 0.102744,-0.00445276 0.0167953,-0.00338189 0.0332244,-0.00669685 0.0499685,-0.00887402 0.167193,-0.0217323 0.396504,-0.0332953 0.568693,0.0803898 0.164917,0.108878 0.267689,0.319453 0.197449,0.715894 0.0647244,0.0406693 0.104335,0.112154 0.122827,0.190976 0.0155945,0.0664843 0.015122,0.139933 0.00124409,0.19972 -0.0190157,0.0819173 -0.0650236,0.146638 -0.135453,0.166106 -0.0151181,0.00417717 -0.0305157,0.00624409 -0.0460906,0.00594882 -0.07,0.206709 -0.252752,0.608445 -0.718307,0.608445zm-0.543661 -0.758858c0.0287205,0.1025 0.152878,0.54552 0.543661,0.54552 0.380531,0 0.504846,-0.419106 0.539591,-0.53624 0.00515354,-0.0173701 0.00938189,-0.0316142 0.0147756,-0.0440709 0.00549213,-0.0136142 0.0138937,-0.026311 0.0251929,-0.0371181l0.000188976 0.000200787 0.000208661 -0.000200787 0.000208661 0.000220472c0.039374,-0.0375591 0.0781457,-0.0461339 0.116417,-0.0245906 0.00215748,-0.024374 0.000496063,-0.0512756 -0.00548031,-0.076752 -0.00727165,-0.0310039 -0.0200236,-0.0577323 -0.0376929,-0.0614606 -0.00809055,4.72441e-005 -0.016315,-0.000826772 -0.0245433,-0.0027126 -0.0574213,-0.0131614 -0.0932992,-0.0703858 -0.0801378,-0.127807l0.000228346 5.11811e-005c0.0799606,-0.348843 0.0203976,-0.514122 -0.0881299,-0.585768 -0.113965,-0.0752402 -0.29185,-0.0641969 -0.423685,-0.0470591 -0.0118268,0.00153543 -0.023685,0.00392913 -0.0358031,0.00637008 -0.0531457,0.0107126 -0.109768,0.022126 -0.191083,0.00362598 -0.0604961,-0.0137638 -0.125063,-0.0183465 -0.183571,-0.00630709 -0.0429488,0.00883465 -0.0828386,0.0270472 -0.114819,0.0580276 -0.0337795,0.0327283 -0.0607205,0.0810945 -0.0762913,0.14952 -0.0227087,0.0998189 -0.0212756,0.237165 0.0160945,0.422606l0.000358268 0.00124016c0.015689,0.0567795 -0.017626,0.115535 -0.0744055,0.131224l-8.66142e-005 -0.000311024c-0.0403543,0.0111575 -0.0549882,0.0628976 -0.0555433,0.113201 -5.11811e-005,0.00483071 1.9685e-005,0.00962205 0.000212598,0.0143465 0.0143268,-0.00182283 0.0301929,-0.00015748 0.047626,0.00500787 0.0051811,0.00118898 0.0103425,0.00277559 0.015437,0.00478346l-7.48031e-005 0.000188976c0.0501496,0.0198701 0.0579409,0.0471339 0.0711457,0.0942638zm1.19736 0.00559843l0 -3.93701e-006 -3.93701e-006 3.93701e-006 3.93701e-006 0z"/>
  <path class="fil1" d="M1.38419 4.65132l1.28495 0c0.450295,0 0.530862,0.342602 0.530862,0.71302 0,0.0908189 -0.00572441,0.188634 -0.0111575,0.281579 -0.00451969,0.0773543 -0.00883465,0.151055 -0.00883465,0.220744l0 0.106669 -0.106669 0 -2.09335 0 -0.106669 0 0 -0.106669c0,-0.0696929 -0.00431496,-0.143398 -0.00883465,-0.220752 -0.00543307,-0.0929488 -0.0111575,-0.190764 -0.0111575,-0.281587l0.000417323 0c-3.93701e-006,-0.370406 0.0805039,-0.713004 0.530445,-0.713004zm1.28495 0.213339l-1.28495 0c-0.269689,0 -0.317941,0.240091 -0.317941,0.499665l0.000417323 0c0,0.0934252 0.00529528,0.183921 0.0103228,0.269917 0.00253543,0.0433976 0.00501181,0.0857441 0.00682677,0.125752l1.8857 0c0.00181102,-0.0400039 0.00429134,-0.0823504 0.00682677,-0.125744 0.00502756,-0.0859921 0.0103228,-0.176484 0.0103228,-0.269909 0,-0.259587 -0.0481929,-0.499681 -0.317524,-0.499681z"/>
  <path class="fil1" d="M1.17333 0.963874l2.57835 0 0.106669 0 0 0.106669 0 1.22778 0 0.106669 -0.106669 0 -0.489567 0 -0.011126 0.0192677 -0.170744 0.295732 -0.0920827 0.159492 -0.0920827 -0.159492 -0.170744 -0.295732 -0.011126 -0.0192677 -1.54087 0 -0.106669 0 0 -0.106669 0 -1.22778 0 -0.106669 0.106669 0zm2.47168 0.213339l-2.36501 0 0 1.01444 1.49549 0 0.0612874 0 0.0307953 0.0533346 0.0419213 0.0726024 0.0786614 0.136244 0.0786614 -0.136244 0.0419173 -0.0726024 0.0307953 -0.0533346 0.0612874 0 0.444189 0 0 -1.01444z"/>
 </g>
</svg>
