<?xml version="1.0" encoding="UTF-8"?>
<!DOCTYPE svg PUBLIC "-//W3C//DTD SVG 1.1//EN" "http://www.w3.org/Graphics/SVG/1.1/DTD/svg11.dtd">
<!-- Creator: CorelDRAW -->
<svg xmlns="http://www.w3.org/2000/svg" xml:space="preserve" width="2048px" height="2048px" style="shape-rendering:geometricPrecision; text-rendering:geometricPrecision; image-rendering:optimizeQuality; fill-rule:evenodd; clip-rule:evenodd"
viewBox="0 0 2048 2048"
 xmlns:xlink="http://www.w3.org/1999/xlink">
 <defs>
  <style type="text/css">
   <![CDATA[
    .fil2 {fill:none}
    .fil5 {fill:#0277BD}
    .fil4 {fill:#29B6F6}
    .fil1 {fill:#70A13B}
    .fil0 {fill:#9CCC65}
    .fil3 {fill:#0277BD;fill-rule:nonzero}
   ]]>
  </style>
   <clipPath id="id0">
    <path d="M1024 0c565.539,0 1024,458.461 1024,1024 0,565.539 -458.461,1024 -1024,1024 -565.539,0 -1024,-458.461 -1024,-1024 0,-565.539 458.461,-1024 1024,-1024z"/>
   </clipPath>
 </defs>
 <g id="Layer_x0020_1">
  <metadata id="CorelCorpID_0Corel-Layer"/>
  <path class="fil0" d="M1024 0c565.539,0 1024,458.461 1024,1024 0,565.539 -458.461,1024 -1024,1024 -565.539,0 -1024,-458.461 -1024,-1024 0,-565.539 458.461,-1024 1024,-1024z"/>
  <g style="clip-path:url(#id0)">
   <g id="_461725136">
    <g>
     <polygon id="_4613331441" class="fil1" points="1584,1148.1 2719.88,2283.98 2667.76,2283.75 1531.88,1147.87 "/>
     <polygon id="_461330672" class="fil1" points="1531.88,1147.87 2667.76,2283.75 2562.03,2283.28 1426.15,1147.4 "/>
     <polygon id="_461350952" class="fil1" points="854.67,704.05 1990.55,1839.93 1990.55,1861.1 854.67,725.214 "/>
     <polygon id="_461333480" class="fil1" points="1426.15,1425.5 2562.03,2561.39 2562.03,2582.55 1426.15,1446.67 "/>
     <polygon id="_461328296" class="fil1" points="1426.15,1446.67 2562.03,2582.55 2540.86,2582.55 1404.98,1446.67 "/>
     <polygon id="_461348312" class="fil1" points="1404.98,1446.67 2540.86,2582.55 2159.88,2582.55 1024,1446.67 "/>
     <polygon id="_461332880" class="fil1" points="621.852,1147.4 1757.73,2283.28 1652,2283.75 516.123,1147.87 "/>
     <polygon id="_461340488" class="fil1" points="643.019,1446.67 1778.9,2582.55 1757.73,2582.55 621.852,1446.67 "/>
     <polygon id="_461328320" class="fil1" points="516.123,1147.87 1652,2283.75 1599.88,2283.98 463.999,1148.1 "/>
     <polygon id="_461355080" class="fil1" points="1024,1446.67 2159.88,2582.55 1778.9,2582.55 643.019,1446.67 "/>
     <polygon id="_461360120" class="fil1" points="854.67,725.214 1990.55,1861.1 1990.55,1902.54 854.67,766.653 "/>
     <polygon id="_461336072" class="fil1" points="1426.15,1147.4 2562.03,2283.28 2562.03,2561.39 1426.15,1425.5 "/>
    </g>
    <polygon id="_461732120" class="fil1" points="1038.71,615.699 1546.67,1111.66 1584,1148.1 1531.88,1147.87 1426.15,1147.4 1426.15,1425.5 1426.15,1446.67 1404.98,1446.67 1024,1446.67 643.019,1446.67 621.852,1446.67 621.852,1425.5 621.852,1147.4 516.123,1147.87 463.999,1148.1 501.324,1111.66 685.361,931.965 685.361,725.214 685.361,704.05 706.527,704.05 833.505,704.05 854.67,704.05 854.67,725.214 854.67,766.653 1009.27,615.699 1023.99,601.332 "/>
   </g>
  </g>
  <path class="fil2" d="M1024 0c565.539,0 1024,458.461 1024,1024 0,565.539 -458.461,1024 -1024,1024 -565.539,0 -1024,-458.461 -1024,-1024 0,-565.539 458.461,-1024 1024,-1024z"/>
  <path class="fil3" d="M685.361 947.143l0 -221.929 0 -21.1654 21.1654 0 126.978 0 21.1654 0 0 21.1654 0 56.6185c-32.3835,31.6181 -13.9016,13.5732 -169.309,165.311z"/>
  <polygon class="fil4" points="1038.71,615.7 1546.67,1111.66 1584,1148.1 1531.88,1147.87 1426.15,1147.4 1426.15,1425.5 1426.15,1446.67 1404.98,1446.67 1024,1446.67 643.017,1446.67 621.852,1446.67 621.852,1425.5 621.852,1147.4 516.123,1147.87 464,1148.1 501.324,1111.66 1009.28,615.7 1023.99,601.332 "/>
  <path class="fil5" d="M1040.25 1324.63l0 34.4055 -33.8988 0 0 -32.5796c-2.8311,-0.323622 -5.64567,-0.778347 -8.43662,-1.34528 -6.01063,-1.22362 -11.8984,-2.94331 -17.5583,-5.24882 -5.37993,-2.19331 -10.5567,-4.94055 -15.1713,-8.40946l-6.35197 -4.7752 15.2882 -30.1335 9.59765 6.97441c3.11693,2.26417 6.51378,4.16693 10.0299,5.79213 3.93425,1.81536 8.07048,3.20551 12.2965,4.23307 4.27205,1.04055 8.63505,1.60512 13.0429,1.60748 4.45866,0.00354331 8.95631,-0.629528 13.1162,-2.21929 3.50551,-1.34055 6.72756,-3.23386 9.40985,-5.80394 2.59488,-2.48504 4.53307,-5.33977 5.92323,-8.60079 1.4563,-3.41575 2.11417,-7.00158 2.11417,-10.689 0,-4.57914 -0.882284,-9.06379 -3.06851,-13.1551 -2.28189,-4.26969 -5.63386,-7.83308 -9.52205,-10.8012 -5.4,-4.12087 -11.5476,-7.4504 -17.8181,-10.1622 -7.30394,-3.15709 -14.5725,-6.55394 -21.4677,-10.4811 -6.26812,-3.57166 -12.2232,-7.74095 -17.4213,-12.6721 -5.06103,-4.80237 -9.14056,-10.3925 -11.9504,-16.6878 -2.97166,-6.65788 -4.24961,-13.7563 -4.22953,-20.9858 0.0271654,-9.5256 2.14488,-18.7347 6.87284,-27.137 4.53662,-8.06221 10.8047,-14.6563 18.7193,-19.7551 5.81339,-3.7441 12.1701,-6.42875 18.8339,-8.22166l0 -33.887 33.8988 0 0 32.211c2.73544,0.337796 5.45315,0.79252 8.13071,1.39725 4.92048,1.10906 9.78662,2.60669 14.3847,4.63937 3.88111,1.71496 7.65473,3.74292 11.1024,6.17835l6.69686 4.73032 -14.3634 28.3335 -9.08268 -4.71496c-2.7437,-1.42559 -5.56063,-2.7437 -8.37402,-4.03583 -3.29764,-1.51536 -6.86575,-2.64449 -10.389,-3.55512 -4.34646,-1.12205 -8.87599,-1.57205 -13.3677,-1.57205 -4.07717,0 -8.24292,0.548032 -12.0095,2.11181 -3.07323,1.27795 -5.83701,3.01181 -8.13898,5.36811 -2.10354,2.15315 -3.75,4.58386 -4.86024,7.34174 -1.06181,2.6374 -1.62402,5.32678 -1.62402,8.15316 0,3.02126 0.400394,6.16063 1.59803,8.97284 1.11732,2.62323 2.88662,4.90394 4.97953,6.87875 3.0567,2.88425 6.68859,5.31851 10.3677,7.40316 5.33859,3.02599 10.9347,5.70473 16.5768,8.16024 9.59174,4.17166 18.9496,9.1819 27.3118,15.3673 7.66772,5.67048 14.0941,12.5894 18.5894,20.8713 4.72678,8.70709 6.61536,18.3071 6.61536,28.0784 0,6.99331 -1.1752,13.8744 -3.54331,20.4815 -2.38937,6.66851 -5.9752,12.7465 -10.6217,18.189 -4.83071,5.65867 -10.6819,10.2295 -17.2784,13.8496 -4.71969,2.59016 -9.74765,4.52008 -14.9492,5.89961z"/>
  <polygon class="fil5" points="691.562,1055.03 1009.03,737.56 1023.99,722.595 1038.96,737.56 1356.43,1055.03 1326.51,1084.96 1023.99,782.453 721.491,1084.96 "/>
 </g>
</svg>
