<?xml version="1.0" encoding="UTF-8"?>
<!DOCTYPE svg PUBLIC "-//W3C//DTD SVG 1.1//EN" "http://www.w3.org/Graphics/SVG/1.1/DTD/svg11.dtd">
<!-- Creator: CorelDRAW -->
<svg xmlns="http://www.w3.org/2000/svg" xml:space="preserve" width="6.82666in" height="6.82666in" style="shape-rendering:geometricPrecision; text-rendering:geometricPrecision; image-rendering:optimizeQuality; fill-rule:evenodd; clip-rule:evenodd"
viewBox="0 0 6.82666 6.82666"
 xmlns:xlink="http://www.w3.org/1999/xlink">
 <defs>
  <style type="text/css">
   <![CDATA[
    .fil2 {fill:none}
    .fil0 {fill:#C0CA33}
    .fil1 {fill:#FFFFFE;fill-rule:nonzero}
   ]]>
  </style>
 </defs>
 <g id="Layer_x0020_1">
  <metadata id="CorelCorpID_0Corel-Layer"/>
  <rect class="fil0" width="6.82666" height="6.82666"/>
  <path class="fil1" d="M2.59539 4.40989c0.323268,0 0.617154,0.110213 0.830972,0.288394 0.219228,0.182685 0.354823,0.436307 0.354823,0.717547 0,0.563291 -0.454543,0.560331 -1.04352,0.556504 -0.0149567,-9.44882e-005 -0.0296969,-0.00019685 -0.14228,-0.00019685 -0.112591,0 -0.127319,0.000102362 -0.14228,0.00019685 -0.588976,0.00382677 -1.04352,0.0067874 -1.04352,-0.556504 0,-0.281236 0.135602,-0.534862 0.354823,-0.717547 0.213819,-0.178181 0.507709,-0.288394 0.830976,-0.288394zm0.695138 0.451724c-0.17674,-0.147283 -0.422421,-0.238386 -0.695138,-0.238386 -0.272717,0 -0.518402,0.0911024 -0.695142,0.238386 -0.171339,0.142783 -0.277319,0.338807 -0.277319,0.554217 0,0.34939 0.361252,0.347043 0.829346,0.344 0.0784055,-0.000507874 0.127276,-0.0010315 0.143114,-0.0010315 0.0158346,0 0.0647047,0.000523622 0.143114,0.0010315 0.468091,0.00304331 0.829343,0.00538976 0.829343,-0.344 0,-0.215413 -0.10598,-0.411437 -0.277319,-0.554217z"/>
  <path class="fil1" d="M2.59539 3.10709c0.178437,0 0.339996,0.0723346 0.456945,0.189283 0.116945,0.116949 0.189283,0.278508 0.189283,0.456945 0,0.178437 -0.0723386,0.339996 -0.189283,0.456945 -0.116949,0.116949 -0.278508,0.189283 -0.456945,0.189283 -0.178437,0 -0.339996,-0.0723386 -0.456945,-0.189283 -0.116945,-0.116949 -0.189283,-0.278508 -0.189283,-0.456945 0,-0.178437 0.0723386,-0.339996 0.189283,-0.456945 0.116949,-0.116945 0.278508,-0.189283 0.456945,-0.189283zm0.30611 0.340118c-0.0783268,-0.0783268 -0.186559,-0.12678 -0.30611,-0.12678 -0.119551,0 -0.22778,0.0484528 -0.30611,0.12678 -0.0783268,0.0783307 -0.12678,0.186559 -0.12678,0.30611 0,0.119551 0.0484528,0.22778 0.12678,0.30611 0.0783307,0.0783268 0.186559,0.12678 0.30611,0.12678 0.119551,0 0.227783,-0.0484528 0.30611,-0.12678 0.0783268,-0.0783307 0.12678,-0.186559 0.12678,-0.30611 0,-0.119551 -0.0484528,-0.22778 -0.12678,-0.30611z"/>
  <path class="fil1" d="M1.2872 1.53528l2.13941 0c0.0589094,0 0.106669,0.0477598 0.106669,0.106669l0 1.16905c0,0.0589094 -0.0477598,0.106669 -0.106669,0.106669l-1.39111 0 -0.472768 0.456925 0.000200787 0.000208661c-0.0423583,0.040937 -0.109894,0.0397874 -0.150831,-0.00257087 -0.0200157,-0.0207087 -0.0299646,-0.047437 -0.0299606,-0.0741299l-7.87402e-006 0 0 -0.380433 -0.0949252 0c-0.0589094,0 -0.106669,-0.0477598 -0.106669,-0.106669l0 -1.16905c0,-0.0589094 0.0477598,-0.106669 0.106669,-0.106669zm2.03274 0.213339l-1.92607 0 0 0.955713 0.0949252 0c0.0589094,0 0.106669,0.0477598 0.106669,0.106669l0 0.236059 0.317823 -0.307173c0.0195315,-0.0218189 0.0479094,-0.0355551 0.0794961,-0.0355551l1.32715 0 0 -0.955713z"/>
  <path class="fil1" d="M3.4693 2.02238c-0.0589094,0 -0.106669,0.0477598 -0.106669,0.106669 0,0.0589094 0.0477598,0.106669 0.106669,0.106669l0.8835 0 0.472768 0.456929 -0.000200787 0.000208661c0.0423583,0.040937 0.109894,0.0397874 0.150831,-0.00257087 0.0200157,-0.0207087 0.0299646,-0.047437 0.0299606,-0.0741299l7.87402e-006 0 0 -0.380437 0.0949291 0c0.0589094,0 0.106669,-0.0477598 0.106669,-0.106669l0 -1.16905c0,-0.0589094 -0.0477598,-0.106669 -0.106669,-0.106669l-2.13941 0c-0.0589094,0 -0.106669,0.0477598 -0.106669,0.106669l0 0.62287c0,0.0589094 0.0477598,0.106669 0.106669,0.106669 0.0589094,0 0.106669,-0.0477598 0.106669,-0.106669l0 -0.516201 1.92607 0 0 0.955709 -0.0949291 0c-0.0589094,0 -0.106669,0.0477598 -0.106669,0.106669l0 0.236063 -0.317823 -0.307177c-0.0195315,-0.0218189 -0.0479094,-0.0355551 -0.0794961,-0.0355551l-0.926209 0z"/>
  <path class="fil1" d="M3.29953 4.7177c-0.0138071,0.0570669 0.0212677,0.114528 0.0783346,0.128335 0.0570669,0.0138071 0.114528,-0.0212677 0.128335,-0.0783346 0.0441024,-0.180776 0.164181,-0.339961 0.331909,-0.454028 0.168618,-0.114669 0.385161,-0.183445 0.622228,-0.183445 0.272717,0 0.518402,0.0911024 0.695142,0.238386 0.171339,0.142783 0.277319,0.338807 0.277319,0.554217 0,0.34939 -0.361256,0.347043 -0.829346,0.344 -0.0784055,-0.000507874 -0.127276,-0.0010315 -0.143114,-0.0010315 -0.0158425,0 -0.0647047,0.000523622 -0.143118,0.0010315 -0.205512,0.00133465 -0.39235,0.00255118 -0.536858,-0.0235591 -0.0577559,-0.0103543 -0.11298,0.0280748 -0.123335,0.0858307 -0.0103543,0.0577559 0.0280748,0.11298 0.0858307,0.123335 0.163677,0.0295709 0.359642,0.0282992 0.575197,0.0268976 0.0149606,-9.44882e-005 0.0296811,-0.00019685 0.142283,-0.00019685 0.112591,0 0.127319,0.000102362 0.14228,0.00019685 0.588972,0.00382677 1.04352,0.0067874 1.04352,-0.556504 0,-0.281236 -0.135602,-0.534862 -0.354823,-0.717547 -0.213819,-0.178181 -0.507709,-0.288394 -0.830976,-0.288394 -0.280126,0 -0.538303,0.0828346 -0.741394,0.220949 -0.210811,0.143366 -0.362496,0.346571 -0.419413,0.579862z"/>
  <path class="fil1" d="M4.46033 2.61408c0.178437,0 0.339996,0.0723386 0.456945,0.189283 0.116945,0.116949 0.189283,0.278508 0.189283,0.456945 0,0.178433 -0.0723386,0.339996 -0.189287,0.456941 -0.116945,0.116949 -0.278504,0.189287 -0.456941,0.189287 -0.178437,0 -0.339996,-0.0723386 -0.456945,-0.189283 -0.116945,-0.116949 -0.189283,-0.278508 -0.189283,-0.456945 0,-0.178437 0.0723386,-0.339996 0.189283,-0.456945 0.116949,-0.116949 0.278508,-0.189283 0.456945,-0.189283zm0.30611 0.340118c-0.0783307,-0.0783268 -0.186559,-0.12678 -0.30611,-0.12678 -0.119551,0 -0.227783,0.0484528 -0.30611,0.12678 -0.0783268,0.0783307 -0.12678,0.186559 -0.12678,0.30611 0,0.119551 0.0484528,0.22778 0.12678,0.30611 0.0783307,0.0783268 0.186559,0.12678 0.30611,0.12678 0.119551,0 0.22778,-0.0484528 0.306106,-0.126783 0.0783307,-0.0783268 0.126783,-0.186559 0.126783,-0.306106 0,-0.119551 -0.0484528,-0.22778 -0.12678,-0.30611z"/>
  <rect class="fil2" width="6.82666" height="6.82666"/>
 </g>
</svg>
