<svg xmlns="http://www.w3.org/2000/svg" viewBox="0 0 64 64"><defs><style>.cls-1{fill:#d0d7dc;}.cls-2{fill:#b2b9bf;}.cls-3{fill:#00b39b;}.cls-4{fill:#2d91c0;}.cls-5{fill:#29394a;}</style></defs><title>15-checklist</title><g id="_15-checklist" data-name="15-checklist"><rect class="cls-1" x="1" y="15" width="13" height="10"/><rect class="cls-2" x="14" y="15" width="12" height="10"/><rect class="cls-1" x="26" y="15" width="12" height="10"/><rect class="cls-2" x="38" y="15" width="12" height="10"/><rect class="cls-1" x="50" y="15" width="13" height="10"/><path class="cls-2" d="M1,53H14a0,0,0,0,1,0,0V63a0,0,0,0,1,0,0H5a4,4,0,0,1-4-4V53A0,0,0,0,1,1,53Z"/><rect class="cls-1" x="14" y="53" width="12" height="10"/><rect class="cls-2" x="26" y="53" width="12" height="10"/><rect class="cls-1" x="38" y="53" width="12" height="10"/><path class="cls-2" d="M50,53H63a0,0,0,0,1,0,0v6a4,4,0,0,1-4,4H50a0,0,0,0,1,0,0V53A0,0,0,0,1,50,53Z"/><rect class="cls-2" x="1" y="25" width="13" height="14"/><rect class="cls-1" x="14" y="25" width="12" height="14"/><rect class="cls-3" x="26" y="25" width="12" height="14"/><rect class="cls-1" x="38" y="25" width="12" height="14"/><rect class="cls-2" x="50" y="25" width="13" height="14"/><rect class="cls-1" x="1" y="39" width="13" height="14"/><rect class="cls-3" x="14" y="39" width="12" height="14"/><rect class="cls-1" x="26" y="39" width="12" height="14"/><rect class="cls-3" x="38" y="39" width="12" height="14"/><rect class="cls-1" x="50" y="39" width="13" height="14"/><path class="cls-1" d="M54,6V9a2,2,0,0,1-4,0V3a2.006,2.006,0,0,1,2-2,1.955,1.955,0,0,1,1.41.59A1.955,1.955,0,0,1,54,3Z"/><path class="cls-1" d="M44,6V9a2,2,0,0,1-4,0V3a2.006,2.006,0,0,1,2-2,1.955,1.955,0,0,1,1.41.59A1.955,1.955,0,0,1,44,3Z"/><path class="cls-1" d="M34,6V9a2,2,0,0,1-4,0V3a2.006,2.006,0,0,1,2-2,1.955,1.955,0,0,1,1.41.59A1.955,1.955,0,0,1,34,3Z"/><path class="cls-1" d="M24,6V9a2,2,0,0,1-4,0V3a2.006,2.006,0,0,1,2-2,1.955,1.955,0,0,1,1.41.59A1.955,1.955,0,0,1,24,3Z"/><path class="cls-1" d="M14,6V9a2,2,0,0,1-4,0V3a2.006,2.006,0,0,1,2-2,1.955,1.955,0,0,1,1.41.59A1.955,1.955,0,0,1,14,3Z"/><path class="cls-4" d="M63,10v5H1V10A4,4,0,0,1,5,6h5V9a2,2,0,0,0,4,0V6h6V9a2,2,0,0,0,4,0V6h6V9a2,2,0,0,0,4,0V6h6V9a2,2,0,0,0,4,0V6h6V9a2,2,0,0,0,4,0V6h5A4,4,0,0,1,63,10Z"/><path class="cls-5" d="M59,5H55V3A2.922,2.922,0,0,0,54.126.892,2.944,2.944,0,0,0,52,0a3,3,0,0,0-3,3V5H45V3A2.922,2.922,0,0,0,44.126.892,2.944,2.944,0,0,0,42,0a3,3,0,0,0-3,3V5H35V3A2.922,2.922,0,0,0,34.126.892,2.944,2.944,0,0,0,32,0a3,3,0,0,0-3,3V5H25V3A2.922,2.922,0,0,0,24.126.892,2.944,2.944,0,0,0,22,0a3,3,0,0,0-3,3V5H15V3A2.922,2.922,0,0,0,14.126.892,2.944,2.944,0,0,0,12,0,3,3,0,0,0,9,3V5H5a5.006,5.006,0,0,0-5,5V59a5.006,5.006,0,0,0,5,5H59a5.006,5.006,0,0,0,5-5V10A5.006,5.006,0,0,0,59,5ZM51,3a1,1,0,0,1,1-1,.978.978,0,0,1,.713.306A.965.965,0,0,1,53,3V9a1,1,0,0,1-2,0ZM41,3a1,1,0,0,1,1-1,.978.978,0,0,1,.713.306A.965.965,0,0,1,43,3V9a1,1,0,0,1-2,0ZM31,3a1,1,0,0,1,1-1,.978.978,0,0,1,.713.306A.965.965,0,0,1,33,3V9a1,1,0,0,1-2,0ZM21,3a1,1,0,0,1,1-1,.978.978,0,0,1,.713.306A.965.965,0,0,1,23,3V9a1,1,0,0,1-2,0ZM11,3a1,1,0,0,1,1-1,.978.978,0,0,1,.713.306A.965.965,0,0,1,13,3V9a1,1,0,0,1-2,0ZM5,7H9V9a3,3,0,0,0,6,0V7h4V9a3,3,0,0,0,6,0V7h4V9a3,3,0,0,0,6,0V7h4V9a3,3,0,0,0,6,0V7h4V9a3,3,0,0,0,6,0V7h4a3,3,0,0,1,3,3v4H2V10A3,3,0,0,1,5,7ZM59,62H5a3,3,0,0,1-3-3V16H62V59A3,3,0,0,1,59,62Z"/><path class="cls-5" d="M51,18H49v6H39V18H37v6H27V18H25v6H15V18H13v6H4v2h9V38H4v2h9V52H4v2h9v6h2V54H25v6h2V54H37v6h2V54H49v6h2V54h9V52H51V40h9V38H51V26h9V24H51ZM37,26V38H27V26ZM15,26H25V38H15Zm0,26V40H25V52Zm12,0V40H37V52Zm22,0H39V40H49Zm0-14H39V26H49Z"/><path class="cls-5" d="M42.293,48.707a1,1,0,0,0,1.414,0l4-4-1.414-1.414L43,46.586l-1.293-1.293-1.414,1.414Z"/><path class="cls-5" d="M30.293,33.707a1,1,0,0,0,1.414,0l4-4-1.414-1.414L31,31.586l-1.293-1.293-1.414,1.414Z"/><path class="cls-5" d="M22.293,43.293,19,46.586l-1.293-1.293-1.414,1.414,2,2a1,1,0,0,0,1.414,0l4-4Z"/></g></svg>